%TF.GenerationSoftware,KiCad,Pcbnew,(6.0.0-0)*%
%TF.CreationDate,2023-03-28T13:10:47-04:00*%
%TF.ProjectId,passthrough-breakout,70617373-7468-4726-9f75-67682d627265,rev?*%
%TF.SameCoordinates,Original*%
%TF.FileFunction,Copper,L1,Top*%
%TF.FilePolarity,Positive*%
%FSLAX46Y46*%
G04 Gerber Fmt 4.6, Leading zero omitted, Abs format (unit mm)*
G04 Created by KiCad (PCBNEW (6.0.0-0)) date 2023-03-28 13:10:47*
%MOMM*%
%LPD*%
G01*
G04 APERTURE LIST*
G04 Aperture macros list*
%AMRoundRect*
0 Rectangle with rounded corners*
0 $1 Rounding radius*
0 $2 $3 $4 $5 $6 $7 $8 $9 X,Y pos of 4 corners*
0 Add a 4 corners polygon primitive as box body*
4,1,4,$2,$3,$4,$5,$6,$7,$8,$9,$2,$3,0*
0 Add four circle primitives for the rounded corners*
1,1,$1+$1,$2,$3*
1,1,$1+$1,$4,$5*
1,1,$1+$1,$6,$7*
1,1,$1+$1,$8,$9*
0 Add four rect primitives between the rounded corners*
20,1,$1+$1,$2,$3,$4,$5,0*
20,1,$1+$1,$4,$5,$6,$7,0*
20,1,$1+$1,$6,$7,$8,$9,0*
20,1,$1+$1,$8,$9,$2,$3,0*%
G04 Aperture macros list end*
%ADD10C,0.300000*%
%TA.AperFunction,NonConductor*%
%ADD11C,0.300000*%
%TD*%
%TA.AperFunction,SMDPad,CuDef*%
%ADD12RoundRect,0.187500X0.562500X-0.562500X0.562500X0.562500X-0.562500X0.562500X-0.562500X-0.562500X0*%
%TD*%
%TA.AperFunction,ComponentPad*%
%ADD13R,1.700000X1.700000*%
%TD*%
%TA.AperFunction,ComponentPad*%
%ADD14O,1.700000X1.700000*%
%TD*%
%TA.AperFunction,Conductor*%
%ADD15C,0.250000*%
%TD*%
G04 APERTURE END LIST*
D10*
D11*
X34682857Y-37985000D02*
X34540000Y-37913571D01*
X34325714Y-37913571D01*
X34111428Y-37985000D01*
X33968571Y-38127857D01*
X33897142Y-38270714D01*
X33825714Y-38556428D01*
X33825714Y-38770714D01*
X33897142Y-39056428D01*
X33968571Y-39199285D01*
X34111428Y-39342142D01*
X34325714Y-39413571D01*
X34468571Y-39413571D01*
X34682857Y-39342142D01*
X34754285Y-39270714D01*
X34754285Y-38770714D01*
X34468571Y-38770714D01*
D12*
%TO.P,J1,R1*%
%TO.N,Net-(J1-PadR1)*%
X25858500Y-39136000D03*
%TO.P,J1,R1N*%
%TO.N,unconnected-(J1-PadR1N)*%
X29558500Y-39136000D03*
%TO.P,J1,R2*%
%TO.N,Net-(J1-PadR1)*%
X22158500Y-44636000D03*
%TO.P,J1,S*%
X22158500Y-39136000D03*
%TO.P,J1,T*%
%TO.N,Net-(J1-PadT)*%
X25858500Y-44636000D03*
%TO.P,J1,TN*%
%TO.N,unconnected-(J1-PadTN)*%
X29558500Y-44636000D03*
%TD*%
D13*
%TO.P,J2,1,Pin_1*%
%TO.N,Net-(J1-PadR1)*%
X35883500Y-40640000D03*
D14*
%TO.P,J2,2,Pin_2*%
%TO.N,Net-(J1-PadT)*%
X35883500Y-43180000D03*
%TD*%
D15*
%TO.N,Net-(J1-PadR1)*%
X22158500Y-39136000D02*
X21159500Y-40135000D01*
X35883500Y-40640000D02*
X28886500Y-40640000D01*
X28886500Y-40640000D02*
X27382500Y-39136000D01*
X21159500Y-43637000D02*
X22158500Y-44636000D01*
X27382500Y-39136000D02*
X25858500Y-39136000D01*
X21159500Y-40135000D02*
X21159500Y-43637000D01*
X22158500Y-39136000D02*
X25858500Y-39136000D01*
%TO.N,Net-(J1-PadT)*%
X35883500Y-43180000D02*
X28672500Y-43180000D01*
X28672500Y-43180000D02*
X27216500Y-44636000D01*
X27216500Y-44636000D02*
X25858500Y-44636000D01*
%TD*%
M02*
