%TF.GenerationSoftware,KiCad,Pcbnew,(6.0.0-0)*%
%TF.CreationDate,2023-03-28T13:10:48-04:00*%
%TF.ProjectId,passthrough-breakout,70617373-7468-4726-9f75-67682d627265,rev?*%
%TF.SameCoordinates,Original*%
%TF.FileFunction,Legend,Top*%
%TF.FilePolarity,Positive*%
%FSLAX46Y46*%
G04 Gerber Fmt 4.6, Leading zero omitted, Abs format (unit mm)*
G04 Created by KiCad (PCBNEW (6.0.0-0)) date 2023-03-28 13:10:48*
%MOMM*%
%LPD*%
G01*
G04 APERTURE LIST*
%ADD10C,0.150000*%
%ADD11C,0.120000*%
G04 APERTURE END LIST*
D10*
%TO.C,J1*%
X32310880Y-42219333D02*
X33025166Y-42219333D01*
X33168023Y-42266952D01*
X33263261Y-42362190D01*
X33310880Y-42505047D01*
X33310880Y-42600285D01*
X33310880Y-41219333D02*
X33310880Y-41790761D01*
X33310880Y-41505047D02*
X32310880Y-41505047D01*
X32453738Y-41600285D01*
X32548976Y-41695523D01*
X32596595Y-41790761D01*
%TO.C,J2*%
X35550166Y-37762380D02*
X35550166Y-38476666D01*
X35502547Y-38619523D01*
X35407309Y-38714761D01*
X35264452Y-38762380D01*
X35169214Y-38762380D01*
X35978738Y-37857619D02*
X36026357Y-37810000D01*
X36121595Y-37762380D01*
X36359690Y-37762380D01*
X36454928Y-37810000D01*
X36502547Y-37857619D01*
X36550166Y-37952857D01*
X36550166Y-38048095D01*
X36502547Y-38190952D01*
X35931119Y-38762380D01*
X36550166Y-38762380D01*
D11*
%TO.C,J1*%
X20458500Y-43886000D02*
X19458500Y-43886000D01*
X19458500Y-43886000D02*
X19458500Y-39886000D01*
X19458500Y-39886000D02*
X20458500Y-39886000D01*
X20458500Y-39886000D02*
X20458500Y-43886000D01*
X20458500Y-44386000D02*
X31258500Y-44386000D01*
X31258500Y-44386000D02*
X31258500Y-39386000D01*
X31258500Y-39386000D02*
X20458500Y-39386000D01*
X20458500Y-39386000D02*
X20458500Y-44386000D01*
%TO.C,J2*%
X34553500Y-44510000D02*
X37213500Y-44510000D01*
X34553500Y-41910000D02*
X37213500Y-41910000D01*
X34553500Y-39310000D02*
X35883500Y-39310000D01*
X34553500Y-40640000D02*
X34553500Y-39310000D01*
X37213500Y-41910000D02*
X37213500Y-44510000D01*
X34553500Y-41910000D02*
X34553500Y-44510000D01*
%TD*%
M02*
