%FSLAX45Y45*%
G04 Gerber Fmt 4.5, Leading zero omitted, Abs format (unit mm)*
G04 Created by KiCad (PCBNEW (6.0.0-0)) date 2023-03-28 13:10:44*
%MOMM*%
%LPD*%
G01*
G04 APERTURE LIST*
%TA.AperFunction,Profile*%
%ADD10C,0.100000*%
%TD*%
%ADD11C,0.200000*%
%ADD12C,0.100000*%
G04 APERTURE END LIST*
D10*
X3810000Y-3873500D02*
X3810000Y-4508500D01*
X2095500Y-3746500D02*
X3683000Y-3746500D01*
X3683000Y-4635500D02*
X3810000Y-4508500D01*
X3683000Y-4635500D02*
X2095500Y-4635500D01*
X1968500Y-4508500D02*
X1968500Y-3873500D01*
X1968500Y-3873500D02*
X2095500Y-3746500D01*
X3810000Y-3873500D02*
X3683000Y-3746500D01*
X2095500Y-4635500D02*
X1968500Y-4508500D01*
D11*
D12*
X3538350Y-4014000D02*
X3638350Y-4114000D01*
X3638350Y-4014000D02*
X3538350Y-4114000D01*
X3538350Y-4268000D02*
X3638350Y-4368000D01*
X3638350Y-4268000D02*
X3538350Y-4368000D01*
D11*
X2221119Y-4950976D02*
X2221119Y-4750976D01*
X2268738Y-4750976D01*
X2297310Y-4760500D01*
X2316357Y-4779548D01*
X2325881Y-4798595D01*
X2335405Y-4836690D01*
X2335405Y-4865262D01*
X2325881Y-4903357D01*
X2316357Y-4922405D01*
X2297310Y-4941452D01*
X2268738Y-4950976D01*
X2221119Y-4950976D01*
X2421119Y-4950976D02*
X2421119Y-4817643D01*
X2421119Y-4855738D02*
X2430643Y-4836690D01*
X2440167Y-4827167D01*
X2459214Y-4817643D01*
X2478262Y-4817643D01*
X2544929Y-4950976D02*
X2544929Y-4817643D01*
X2544929Y-4750976D02*
X2535405Y-4760500D01*
X2544929Y-4770024D01*
X2554452Y-4760500D01*
X2544929Y-4750976D01*
X2544929Y-4770024D01*
X2668738Y-4950976D02*
X2649690Y-4941452D01*
X2640167Y-4922405D01*
X2640167Y-4750976D01*
X2773500Y-4950976D02*
X2754452Y-4941452D01*
X2744929Y-4922405D01*
X2744929Y-4750976D01*
X3002071Y-4950976D02*
X3002071Y-4750976D01*
X3068738Y-4893833D01*
X3135405Y-4750976D01*
X3135405Y-4950976D01*
X3316357Y-4950976D02*
X3316357Y-4846214D01*
X3306833Y-4827167D01*
X3287786Y-4817643D01*
X3249690Y-4817643D01*
X3230643Y-4827167D01*
X3316357Y-4941452D02*
X3297309Y-4950976D01*
X3249690Y-4950976D01*
X3230643Y-4941452D01*
X3221119Y-4922405D01*
X3221119Y-4903357D01*
X3230643Y-4884310D01*
X3249690Y-4874786D01*
X3297309Y-4874786D01*
X3316357Y-4865262D01*
X3411595Y-4817643D02*
X3411595Y-5017643D01*
X3411595Y-4827167D02*
X3430643Y-4817643D01*
X3468738Y-4817643D01*
X3487786Y-4827167D01*
X3497309Y-4836690D01*
X3506833Y-4855738D01*
X3506833Y-4912881D01*
X3497309Y-4931929D01*
X3487786Y-4941452D01*
X3468738Y-4950976D01*
X3430643Y-4950976D01*
X3411595Y-4941452D01*
X3592548Y-4931929D02*
X3602071Y-4941452D01*
X3592548Y-4950976D01*
X3583024Y-4941452D01*
X3592548Y-4931929D01*
X3592548Y-4950976D01*
X3592548Y-4827167D02*
X3602071Y-4836690D01*
X3592548Y-4846214D01*
X3583024Y-4836690D01*
X3592548Y-4827167D01*
X3592548Y-4846214D01*
D12*
X1863500Y-5230500D02*
X1963500Y-5330500D01*
X1963500Y-5230500D02*
X1863500Y-5330500D01*
D11*
X2325881Y-5370976D02*
X2211595Y-5370976D01*
X2268738Y-5370976D02*
X2268738Y-5170976D01*
X2249690Y-5199548D01*
X2230643Y-5218595D01*
X2211595Y-5228119D01*
X2411595Y-5351929D02*
X2421119Y-5361452D01*
X2411595Y-5370976D01*
X2402071Y-5361452D01*
X2411595Y-5351929D01*
X2411595Y-5370976D01*
X2544929Y-5170976D02*
X2563976Y-5170976D01*
X2583024Y-5180500D01*
X2592548Y-5190024D01*
X2602071Y-5209071D01*
X2611595Y-5247167D01*
X2611595Y-5294786D01*
X2602071Y-5332881D01*
X2592548Y-5351929D01*
X2583024Y-5361452D01*
X2563976Y-5370976D01*
X2544929Y-5370976D01*
X2525881Y-5361452D01*
X2516357Y-5351929D01*
X2506833Y-5332881D01*
X2497310Y-5294786D01*
X2497310Y-5247167D01*
X2506833Y-5209071D01*
X2516357Y-5190024D01*
X2525881Y-5180500D01*
X2544929Y-5170976D01*
X2735405Y-5170976D02*
X2754452Y-5170976D01*
X2773500Y-5180500D01*
X2783024Y-5190024D01*
X2792548Y-5209071D01*
X2802071Y-5247167D01*
X2802071Y-5294786D01*
X2792548Y-5332881D01*
X2783024Y-5351929D01*
X2773500Y-5361452D01*
X2754452Y-5370976D01*
X2735405Y-5370976D01*
X2716357Y-5361452D01*
X2706833Y-5351929D01*
X2697310Y-5332881D01*
X2687786Y-5294786D01*
X2687786Y-5247167D01*
X2697310Y-5209071D01*
X2706833Y-5190024D01*
X2716357Y-5180500D01*
X2735405Y-5170976D01*
X2925881Y-5170976D02*
X2944928Y-5170976D01*
X2963976Y-5180500D01*
X2973500Y-5190024D01*
X2983024Y-5209071D01*
X2992548Y-5247167D01*
X2992548Y-5294786D01*
X2983024Y-5332881D01*
X2973500Y-5351929D01*
X2963976Y-5361452D01*
X2944928Y-5370976D01*
X2925881Y-5370976D01*
X2906833Y-5361452D01*
X2897309Y-5351929D01*
X2887786Y-5332881D01*
X2878262Y-5294786D01*
X2878262Y-5247167D01*
X2887786Y-5209071D01*
X2897309Y-5190024D01*
X2906833Y-5180500D01*
X2925881Y-5170976D01*
X3078262Y-5370976D02*
X3078262Y-5237643D01*
X3078262Y-5256690D02*
X3087786Y-5247167D01*
X3106833Y-5237643D01*
X3135405Y-5237643D01*
X3154452Y-5247167D01*
X3163976Y-5266214D01*
X3163976Y-5370976D01*
X3163976Y-5266214D02*
X3173500Y-5247167D01*
X3192548Y-5237643D01*
X3221119Y-5237643D01*
X3240167Y-5247167D01*
X3249690Y-5266214D01*
X3249690Y-5370976D01*
X3344928Y-5370976D02*
X3344928Y-5237643D01*
X3344928Y-5256690D02*
X3354452Y-5247167D01*
X3373500Y-5237643D01*
X3402071Y-5237643D01*
X3421119Y-5247167D01*
X3430643Y-5266214D01*
X3430643Y-5370976D01*
X3430643Y-5266214D02*
X3440167Y-5247167D01*
X3459214Y-5237643D01*
X3487786Y-5237643D01*
X3506833Y-5247167D01*
X3516357Y-5266214D01*
X3516357Y-5370976D01*
X3906833Y-5161452D02*
X3735405Y-5418595D01*
X4163976Y-5170976D02*
X4183024Y-5170976D01*
X4202071Y-5180500D01*
X4211595Y-5190024D01*
X4221119Y-5209071D01*
X4230643Y-5247167D01*
X4230643Y-5294786D01*
X4221119Y-5332881D01*
X4211595Y-5351929D01*
X4202071Y-5361452D01*
X4183024Y-5370976D01*
X4163976Y-5370976D01*
X4144928Y-5361452D01*
X4135405Y-5351929D01*
X4125881Y-5332881D01*
X4116357Y-5294786D01*
X4116357Y-5247167D01*
X4125881Y-5209071D01*
X4135405Y-5190024D01*
X4144928Y-5180500D01*
X4163976Y-5170976D01*
X4316357Y-5351929D02*
X4325881Y-5361452D01*
X4316357Y-5370976D01*
X4306833Y-5361452D01*
X4316357Y-5351929D01*
X4316357Y-5370976D01*
X4449690Y-5170976D02*
X4468738Y-5170976D01*
X4487786Y-5180500D01*
X4497310Y-5190024D01*
X4506833Y-5209071D01*
X4516357Y-5247167D01*
X4516357Y-5294786D01*
X4506833Y-5332881D01*
X4497310Y-5351929D01*
X4487786Y-5361452D01*
X4468738Y-5370976D01*
X4449690Y-5370976D01*
X4430643Y-5361452D01*
X4421119Y-5351929D01*
X4411595Y-5332881D01*
X4402071Y-5294786D01*
X4402071Y-5247167D01*
X4411595Y-5209071D01*
X4421119Y-5190024D01*
X4430643Y-5180500D01*
X4449690Y-5170976D01*
X4583024Y-5170976D02*
X4706833Y-5170976D01*
X4640167Y-5247167D01*
X4668738Y-5247167D01*
X4687786Y-5256690D01*
X4697310Y-5266214D01*
X4706833Y-5285262D01*
X4706833Y-5332881D01*
X4697310Y-5351929D01*
X4687786Y-5361452D01*
X4668738Y-5370976D01*
X4611595Y-5370976D01*
X4592548Y-5361452D01*
X4583024Y-5351929D01*
X4802071Y-5370976D02*
X4840167Y-5370976D01*
X4859214Y-5361452D01*
X4868738Y-5351929D01*
X4887786Y-5323357D01*
X4897310Y-5285262D01*
X4897310Y-5209071D01*
X4887786Y-5190024D01*
X4878262Y-5180500D01*
X4859214Y-5170976D01*
X4821119Y-5170976D01*
X4802071Y-5180500D01*
X4792548Y-5190024D01*
X4783024Y-5209071D01*
X4783024Y-5256690D01*
X4792548Y-5275738D01*
X4802071Y-5285262D01*
X4821119Y-5294786D01*
X4859214Y-5294786D01*
X4878262Y-5285262D01*
X4887786Y-5275738D01*
X4897310Y-5256690D01*
X5068738Y-5237643D02*
X5068738Y-5370976D01*
X5021119Y-5161452D02*
X4973500Y-5304310D01*
X5097310Y-5304310D01*
X5163976Y-5170976D02*
X5163976Y-5209071D01*
X5240167Y-5170976D02*
X5240167Y-5209071D01*
X5535405Y-5447167D02*
X5525881Y-5437643D01*
X5506833Y-5409071D01*
X5497310Y-5390024D01*
X5487786Y-5361452D01*
X5478262Y-5313833D01*
X5478262Y-5275738D01*
X5487786Y-5228119D01*
X5497310Y-5199548D01*
X5506833Y-5180500D01*
X5525881Y-5151929D01*
X5535405Y-5142405D01*
X5602071Y-5190024D02*
X5611595Y-5180500D01*
X5630643Y-5170976D01*
X5678262Y-5170976D01*
X5697309Y-5180500D01*
X5706833Y-5190024D01*
X5716357Y-5209071D01*
X5716357Y-5228119D01*
X5706833Y-5256690D01*
X5592548Y-5370976D01*
X5716357Y-5370976D01*
X5954452Y-5370976D02*
X5954452Y-5170976D01*
X6040167Y-5370976D02*
X6040167Y-5266214D01*
X6030643Y-5247167D01*
X6011595Y-5237643D01*
X5983024Y-5237643D01*
X5963976Y-5247167D01*
X5954452Y-5256690D01*
X6163976Y-5370976D02*
X6144928Y-5361452D01*
X6135405Y-5351929D01*
X6125881Y-5332881D01*
X6125881Y-5275738D01*
X6135405Y-5256690D01*
X6144928Y-5247167D01*
X6163976Y-5237643D01*
X6192548Y-5237643D01*
X6211595Y-5247167D01*
X6221119Y-5256690D01*
X6230643Y-5275738D01*
X6230643Y-5332881D01*
X6221119Y-5351929D01*
X6211595Y-5361452D01*
X6192548Y-5370976D01*
X6163976Y-5370976D01*
X6344928Y-5370976D02*
X6325881Y-5361452D01*
X6316357Y-5342405D01*
X6316357Y-5170976D01*
X6497309Y-5361452D02*
X6478262Y-5370976D01*
X6440167Y-5370976D01*
X6421119Y-5361452D01*
X6411595Y-5342405D01*
X6411595Y-5266214D01*
X6421119Y-5247167D01*
X6440167Y-5237643D01*
X6478262Y-5237643D01*
X6497309Y-5247167D01*
X6506833Y-5266214D01*
X6506833Y-5285262D01*
X6411595Y-5304310D01*
X6583024Y-5361452D02*
X6602071Y-5370976D01*
X6640167Y-5370976D01*
X6659214Y-5361452D01*
X6668738Y-5342405D01*
X6668738Y-5332881D01*
X6659214Y-5313833D01*
X6640167Y-5304310D01*
X6611595Y-5304310D01*
X6592548Y-5294786D01*
X6583024Y-5275738D01*
X6583024Y-5266214D01*
X6592548Y-5247167D01*
X6611595Y-5237643D01*
X6640167Y-5237643D01*
X6659214Y-5247167D01*
X6735405Y-5447167D02*
X6744928Y-5437643D01*
X6763976Y-5409071D01*
X6773500Y-5390024D01*
X6783024Y-5361452D01*
X6792548Y-5313833D01*
X6792548Y-5275738D01*
X6783024Y-5228119D01*
X6773500Y-5199548D01*
X6763976Y-5180500D01*
X6744928Y-5151929D01*
X6735405Y-5142405D01*
M02*
