%TF.GenerationSoftware,KiCad,Pcbnew,(6.0.0-0)*%
%TF.CreationDate,2023-04-18T12:25:17-04:00*%
%TF.ProjectId,row-breakout,726f772d-6272-4656-916b-6f75742e6b69,rev?*%
%TF.SameCoordinates,Original*%
%TF.FileFunction,Copper,L1,Top*%
%TF.FilePolarity,Positive*%
%FSLAX46Y46*%
G04 Gerber Fmt 4.6, Leading zero omitted, Abs format (unit mm)*
G04 Created by KiCad (PCBNEW (6.0.0-0)) date 2023-04-18 12:25:17*
%MOMM*%
%LPD*%
G01*
G04 APERTURE LIST*
G04 Aperture macros list*
%AMRoundRect*
0 Rectangle with rounded corners*
0 $1 Rounding radius*
0 $2 $3 $4 $5 $6 $7 $8 $9 X,Y pos of 4 corners*
0 Add a 4 corners polygon primitive as box body*
4,1,4,$2,$3,$4,$5,$6,$7,$8,$9,$2,$3,0*
0 Add four circle primitives for the rounded corners*
1,1,$1+$1,$2,$3*
1,1,$1+$1,$4,$5*
1,1,$1+$1,$6,$7*
1,1,$1+$1,$8,$9*
0 Add four rect primitives between the rounded corners*
20,1,$1+$1,$2,$3,$4,$5,0*
20,1,$1+$1,$4,$5,$6,$7,0*
20,1,$1+$1,$6,$7,$8,$9,0*
20,1,$1+$1,$8,$9,$2,$3,0*%
G04 Aperture macros list end*
%ADD10C,0.250000*%
%TA.AperFunction,NonConductor*%
%ADD11C,0.250000*%
%TD*%
%TA.AperFunction,SMDPad,CuDef*%
%ADD12RoundRect,0.187500X0.562500X-0.562500X0.562500X0.562500X-0.562500X0.562500X-0.562500X-0.562500X0*%
%TD*%
%TA.AperFunction,ComponentPad*%
%ADD13R,1.700000X1.700000*%
%TD*%
%TA.AperFunction,ComponentPad*%
%ADD14O,1.700000X1.700000*%
%TD*%
%TA.AperFunction,ComponentPad*%
%ADD15R,1.500000X1.500000*%
%TD*%
%TA.AperFunction,ComponentPad*%
%ADD16C,1.500000*%
%TD*%
%TA.AperFunction,Conductor*%
%ADD17C,0.400000*%
%TD*%
%TA.AperFunction,Conductor*%
%ADD18C,0.250000*%
%TD*%
G04 APERTURE END LIST*
D10*
D11*
X50175023Y-36498523D02*
X50022642Y-36422333D01*
X49946452Y-36346142D01*
X49870261Y-36193761D01*
X49870261Y-36117571D01*
X49946452Y-35965190D01*
X50022642Y-35889000D01*
X50175023Y-35812809D01*
X50479785Y-35812809D01*
X50632166Y-35889000D01*
X50708357Y-35965190D01*
X50784547Y-36117571D01*
X50784547Y-36193761D01*
X50708357Y-36346142D01*
X50632166Y-36422333D01*
X50479785Y-36498523D01*
X50175023Y-36498523D01*
X50022642Y-36574714D01*
X49946452Y-36650904D01*
X49870261Y-36803285D01*
X49870261Y-37108047D01*
X49946452Y-37260428D01*
X50022642Y-37336619D01*
X50175023Y-37412809D01*
X50479785Y-37412809D01*
X50632166Y-37336619D01*
X50708357Y-37260428D01*
X50784547Y-37108047D01*
X50784547Y-36803285D01*
X50708357Y-36650904D01*
X50632166Y-36574714D01*
X50479785Y-36498523D01*
X49794071Y-38388809D02*
X50860738Y-38388809D01*
X50175023Y-39988809D01*
X50632166Y-40964809D02*
X50327404Y-40964809D01*
X50175023Y-41041000D01*
X50098833Y-41117190D01*
X49946452Y-41345761D01*
X49870261Y-41650523D01*
X49870261Y-42260047D01*
X49946452Y-42412428D01*
X50022642Y-42488619D01*
X50175023Y-42564809D01*
X50479785Y-42564809D01*
X50632166Y-42488619D01*
X50708357Y-42412428D01*
X50784547Y-42260047D01*
X50784547Y-41879095D01*
X50708357Y-41726714D01*
X50632166Y-41650523D01*
X50479785Y-41574333D01*
X50175023Y-41574333D01*
X50022642Y-41650523D01*
X49946452Y-41726714D01*
X49870261Y-41879095D01*
X50708357Y-43540809D02*
X49946452Y-43540809D01*
X49870261Y-44302714D01*
X49946452Y-44226523D01*
X50098833Y-44150333D01*
X50479785Y-44150333D01*
X50632166Y-44226523D01*
X50708357Y-44302714D01*
X50784547Y-44455095D01*
X50784547Y-44836047D01*
X50708357Y-44988428D01*
X50632166Y-45064619D01*
X50479785Y-45140809D01*
X50098833Y-45140809D01*
X49946452Y-45064619D01*
X49870261Y-44988428D01*
X50632166Y-46650142D02*
X50632166Y-47716809D01*
X50251214Y-46040619D02*
X49870261Y-47183476D01*
X50860738Y-47183476D01*
X49794071Y-48692809D02*
X50784547Y-48692809D01*
X50251214Y-49302333D01*
X50479785Y-49302333D01*
X50632166Y-49378523D01*
X50708357Y-49454714D01*
X50784547Y-49607095D01*
X50784547Y-49988047D01*
X50708357Y-50140428D01*
X50632166Y-50216619D01*
X50479785Y-50292809D01*
X50022642Y-50292809D01*
X49870261Y-50216619D01*
X49794071Y-50140428D01*
X49870261Y-51421190D02*
X49946452Y-51345000D01*
X50098833Y-51268809D01*
X50479785Y-51268809D01*
X50632166Y-51345000D01*
X50708357Y-51421190D01*
X50784547Y-51573571D01*
X50784547Y-51725952D01*
X50708357Y-51954523D01*
X49794071Y-52868809D01*
X50784547Y-52868809D01*
X50784547Y-55444809D02*
X49870261Y-55444809D01*
X50327404Y-55444809D02*
X50327404Y-53844809D01*
X50175023Y-54073380D01*
X50022642Y-54225761D01*
X49870261Y-54301952D01*
D10*
D11*
X45960857Y-26130000D02*
X45818000Y-26058571D01*
X45603714Y-26058571D01*
X45389428Y-26130000D01*
X45246571Y-26272857D01*
X45175142Y-26415714D01*
X45103714Y-26701428D01*
X45103714Y-26915714D01*
X45175142Y-27201428D01*
X45246571Y-27344285D01*
X45389428Y-27487142D01*
X45603714Y-27558571D01*
X45746571Y-27558571D01*
X45960857Y-27487142D01*
X46032285Y-27415714D01*
X46032285Y-26915714D01*
X45746571Y-26915714D01*
D12*
%TO.P,J1,R1*%
%TO.N,Earth*%
X27280000Y-28702000D03*
%TO.P,J1,R1N*%
%TO.N,unconnected-(J1-PadR1N)*%
X30980000Y-28702000D03*
%TO.P,J1,R2*%
%TO.N,Earth*%
X23580000Y-34202000D03*
%TO.P,J1,S*%
X23580000Y-28702000D03*
%TO.P,J1,T*%
%TO.N,Net-(J1-PadT)*%
X27280000Y-34202000D03*
%TO.P,J1,TN*%
%TO.N,unconnected-(J1-PadTN)*%
X30980000Y-34202000D03*
%TD*%
D13*
%TO.P,J2,1,Pin_1*%
%TO.N,Earth*%
X47473000Y-28785000D03*
D14*
%TO.P,J2,2,Pin_2*%
%TO.N,Net-(J1-PadT)*%
X47473000Y-31325000D03*
%TD*%
D13*
%TO.P,J4,1,Pin_1*%
%TO.N,Net-(J3-Pad1)*%
X47448000Y-54580000D03*
D14*
%TO.P,J4,2,Pin_2*%
%TO.N,Net-(J3-Pad2)*%
X47448000Y-52040000D03*
%TO.P,J4,3,Pin_3*%
%TO.N,Net-(J3-Pad3)*%
X47448000Y-49500000D03*
%TO.P,J4,4,Pin_4*%
%TO.N,Net-(J3-Pad4)*%
X47448000Y-46960000D03*
%TO.P,J4,5,Pin_5*%
%TO.N,Net-(J3-Pad5)*%
X47448000Y-44420000D03*
%TO.P,J4,6,Pin_6*%
%TO.N,Net-(J3-Pad6)*%
X47448000Y-41880000D03*
%TO.P,J4,7,Pin_7*%
%TO.N,Net-(J3-Pad7)*%
X47448000Y-39340000D03*
%TO.P,J4,8,Pin_8*%
%TO.N,Net-(J3-Pad8)*%
X47448000Y-36800000D03*
%TD*%
D15*
%TO.P,J3,1*%
%TO.N,Net-(J3-Pad1)*%
X34945000Y-50165000D03*
D16*
%TO.P,J3,2*%
%TO.N,Net-(J3-Pad2)*%
X37485000Y-48895000D03*
%TO.P,J3,3*%
%TO.N,Net-(J3-Pad3)*%
X34945000Y-47625000D03*
%TO.P,J3,4*%
%TO.N,Net-(J3-Pad4)*%
X37485000Y-46355000D03*
%TO.P,J3,5*%
%TO.N,Net-(J3-Pad5)*%
X34945000Y-45085000D03*
%TO.P,J3,6*%
%TO.N,Net-(J3-Pad6)*%
X37485000Y-43815000D03*
%TO.P,J3,7*%
%TO.N,Net-(J3-Pad7)*%
X34945000Y-42545000D03*
%TO.P,J3,8*%
%TO.N,Net-(J3-Pad8)*%
X37485000Y-41275000D03*
%TD*%
D17*
%TO.N,Net-(J1-PadT)*%
X44958000Y-30480000D02*
X32189000Y-30480000D01*
X32189000Y-30480000D02*
X28467000Y-34202000D01*
X47473000Y-31325000D02*
X45803000Y-31325000D01*
X45803000Y-31325000D02*
X44958000Y-30480000D01*
D18*
X28467000Y-34119000D02*
X27280000Y-34119000D01*
D17*
%TO.N,Earth*%
X28321000Y-28702000D02*
X29718000Y-27305000D01*
X23580000Y-28702000D02*
X27280000Y-28702000D01*
X23205479Y-28993521D02*
X23580000Y-28619000D01*
X29718000Y-27305000D02*
X44571568Y-27305000D01*
X23580000Y-34119000D02*
X22708000Y-33247000D01*
X22708000Y-29464000D02*
X23553000Y-28619000D01*
X44571568Y-27305000D02*
X46051568Y-28785000D01*
X46051568Y-28785000D02*
X47473000Y-28785000D01*
X27280000Y-28702000D02*
X28321000Y-28702000D01*
X22708000Y-33247000D02*
X22708000Y-29464000D01*
X23553000Y-28619000D02*
X23580000Y-28619000D01*
%TO.N,Net-(J3-Pad1)*%
X34945000Y-50165000D02*
X41377000Y-50165000D01*
X41377000Y-50165000D02*
X45822000Y-54610000D01*
X45822000Y-54610000D02*
X47498000Y-54610000D01*
%TO.N,Net-(J3-Pad2)*%
X41885000Y-48895000D02*
X45060000Y-52070000D01*
X37485000Y-48895000D02*
X41885000Y-48895000D01*
X45060000Y-52070000D02*
X47498000Y-52070000D01*
%TO.N,Net-(J3-Pad3)*%
X47498000Y-49530000D02*
X44298000Y-49530000D01*
X34945000Y-47625000D02*
X42393000Y-47625000D01*
X44298000Y-49530000D02*
X42393000Y-47625000D01*
%TO.N,Net-(J3-Pad4)*%
X43536000Y-46990000D02*
X42901000Y-46355000D01*
X47498000Y-46990000D02*
X43536000Y-46990000D01*
X37485000Y-46355000D02*
X42901000Y-46355000D01*
%TO.N,Net-(J3-Pad5)*%
X42862500Y-45085000D02*
X43497500Y-44450000D01*
X42862500Y-45085000D02*
X34945000Y-45085000D01*
X43497500Y-44450000D02*
X47498000Y-44450000D01*
%TO.N,Net-(J3-Pad6)*%
X42393000Y-43815000D02*
X44298000Y-41910000D01*
X44298000Y-41910000D02*
X47498000Y-41910000D01*
X37485000Y-43815000D02*
X42393000Y-43815000D01*
%TO.N,Net-(J3-Pad7)*%
X34945000Y-42545000D02*
X41758000Y-42545000D01*
X44933000Y-39370000D02*
X41758000Y-42545000D01*
X47498000Y-39370000D02*
X44933000Y-39370000D01*
%TO.N,Net-(J3-Pad8)*%
X45568000Y-36830000D02*
X41123000Y-41275000D01*
X47498000Y-36830000D02*
X45568000Y-36830000D01*
X41123000Y-41275000D02*
X37485000Y-41275000D01*
%TD*%
%TA.AperFunction,Conductor*%
%TO.N,Earth*%
G36*
X43389288Y-25529954D02*
G01*
X43470070Y-25583930D01*
X43524046Y-25664712D01*
X43543000Y-25760000D01*
X43543000Y-29030500D01*
X43524046Y-29125788D01*
X43470070Y-29206570D01*
X43389288Y-29260546D01*
X43294000Y-29279500D01*
X32979500Y-29279500D01*
X32884212Y-29260546D01*
X32803430Y-29206570D01*
X32749454Y-29125788D01*
X32730500Y-29030500D01*
X32730500Y-28068492D01*
X32723093Y-27967270D01*
X32671938Y-27755008D01*
X32582957Y-27555623D01*
X32459131Y-27375792D01*
X32304607Y-27221537D01*
X32124560Y-27098025D01*
X32114128Y-27093391D01*
X32114122Y-27093388D01*
X31935457Y-27014029D01*
X31935458Y-27014029D01*
X31925020Y-27009393D01*
X31913920Y-27006738D01*
X31913916Y-27006737D01*
X31764296Y-26970955D01*
X31712669Y-26958608D01*
X31702529Y-26957881D01*
X31702528Y-26957881D01*
X31687871Y-26956830D01*
X31613508Y-26951500D01*
X30346492Y-26951500D01*
X30341955Y-26951832D01*
X30255418Y-26958164D01*
X30255413Y-26958165D01*
X30245270Y-26958907D01*
X30235379Y-26961291D01*
X30235377Y-26961291D01*
X30210892Y-26967192D01*
X30033008Y-27010062D01*
X29833623Y-27099043D01*
X29653792Y-27222869D01*
X29499537Y-27377393D01*
X29376025Y-27557440D01*
X29371391Y-27567872D01*
X29371388Y-27567878D01*
X29336562Y-27646284D01*
X29287393Y-27756980D01*
X29236608Y-27969331D01*
X29229500Y-28068492D01*
X29229500Y-29335508D01*
X29236907Y-29436730D01*
X29242495Y-29459917D01*
X29246393Y-29556991D01*
X29212845Y-29648170D01*
X29146958Y-29719570D01*
X29058763Y-29760322D01*
X29038093Y-29764386D01*
X29031447Y-29765403D01*
X29022024Y-29766120D01*
X28769985Y-29824539D01*
X28761208Y-29828040D01*
X28761210Y-29828040D01*
X28614012Y-29886766D01*
X28529682Y-29920410D01*
X28306646Y-30051527D01*
X28106009Y-30214871D01*
X28099671Y-30221873D01*
X28099669Y-30221875D01*
X27955290Y-30381382D01*
X27932387Y-30406685D01*
X27842064Y-30543408D01*
X27824630Y-30569798D01*
X27789778Y-30622553D01*
X27785821Y-30631137D01*
X27711743Y-30791825D01*
X27681462Y-30857509D01*
X27609932Y-31106145D01*
X27576833Y-31362741D01*
X27577056Y-31372198D01*
X27581262Y-31550641D01*
X27582929Y-31621390D01*
X27628078Y-31876142D01*
X27701921Y-32093677D01*
X27711241Y-32121133D01*
X27708663Y-32122008D01*
X27725008Y-32199871D01*
X27707061Y-32295354D01*
X27653940Y-32376701D01*
X27573733Y-32431527D01*
X27476022Y-32451500D01*
X26646492Y-32451500D01*
X26641955Y-32451832D01*
X26555418Y-32458164D01*
X26555413Y-32458165D01*
X26545270Y-32458907D01*
X26535379Y-32461291D01*
X26535377Y-32461291D01*
X26401054Y-32493663D01*
X26333008Y-32510062D01*
X26133623Y-32599043D01*
X26124216Y-32605520D01*
X26114266Y-32611104D01*
X26112706Y-32608324D01*
X26043358Y-32638202D01*
X25946212Y-32639573D01*
X25855937Y-32603663D01*
X25786276Y-32535941D01*
X25747833Y-32446715D01*
X25746462Y-32349569D01*
X25770846Y-32281734D01*
X25770222Y-32281447D01*
X25773522Y-32274288D01*
X25835706Y-32139401D01*
X25874577Y-32055084D01*
X25874579Y-32055079D01*
X25878538Y-32046491D01*
X25930225Y-31866830D01*
X25947453Y-31806945D01*
X25947453Y-31806944D01*
X25950068Y-31797855D01*
X25951278Y-31788476D01*
X25981957Y-31550641D01*
X25981957Y-31550638D01*
X25983167Y-31541259D01*
X25980666Y-31435135D01*
X25977294Y-31292057D01*
X25977294Y-31292052D01*
X25977071Y-31282610D01*
X25931922Y-31027858D01*
X25848759Y-30782867D01*
X25729495Y-30553275D01*
X25576875Y-30344364D01*
X25394411Y-30160942D01*
X25330658Y-30113853D01*
X25193913Y-30012851D01*
X25193908Y-30012848D01*
X25186302Y-30007230D01*
X25177935Y-30002828D01*
X25177932Y-30002826D01*
X24965710Y-29891171D01*
X24965707Y-29891170D01*
X24957337Y-29886766D01*
X24948400Y-29883680D01*
X24948393Y-29883677D01*
X24721729Y-29805409D01*
X24721724Y-29805408D01*
X24712785Y-29802321D01*
X24458274Y-29755839D01*
X24375481Y-29751500D01*
X24214218Y-29751500D01*
X24098244Y-29760322D01*
X24031446Y-29765403D01*
X24031442Y-29765404D01*
X24022024Y-29766120D01*
X23769985Y-29824539D01*
X23761208Y-29828040D01*
X23761210Y-29828040D01*
X23614012Y-29886766D01*
X23529682Y-29920410D01*
X23306646Y-30051527D01*
X23106009Y-30214871D01*
X23099671Y-30221873D01*
X23099669Y-30221875D01*
X22955290Y-30381382D01*
X22932387Y-30406685D01*
X22842064Y-30543408D01*
X22824630Y-30569798D01*
X22789778Y-30622553D01*
X22785821Y-30631137D01*
X22711743Y-30791825D01*
X22681462Y-30857509D01*
X22609932Y-31106145D01*
X22576833Y-31362741D01*
X22577056Y-31372198D01*
X22581262Y-31550641D01*
X22582929Y-31621390D01*
X22628078Y-31876142D01*
X22711241Y-32121133D01*
X22830505Y-32350725D01*
X22836088Y-32358367D01*
X22965815Y-32535941D01*
X22983125Y-32559636D01*
X23165589Y-32743058D01*
X23173198Y-32748678D01*
X23173199Y-32748679D01*
X23366087Y-32891149D01*
X23366092Y-32891152D01*
X23373698Y-32896770D01*
X23382065Y-32901172D01*
X23382068Y-32901174D01*
X23534660Y-32981456D01*
X23602663Y-33017234D01*
X23611600Y-33020320D01*
X23611607Y-33020323D01*
X23838271Y-33098591D01*
X23838276Y-33098592D01*
X23847215Y-33101679D01*
X23856522Y-33103379D01*
X23856523Y-33103379D01*
X23982092Y-33126312D01*
X24101726Y-33148161D01*
X24184519Y-33152500D01*
X24345782Y-33152500D01*
X24463820Y-33143521D01*
X24528554Y-33138597D01*
X24528558Y-33138596D01*
X24537976Y-33137880D01*
X24790015Y-33079461D01*
X24938246Y-33020323D01*
X25021543Y-32987091D01*
X25021544Y-32987090D01*
X25030318Y-32983590D01*
X25210964Y-32877393D01*
X25245208Y-32857262D01*
X25245210Y-32857261D01*
X25253354Y-32852473D01*
X25260680Y-32846509D01*
X25265963Y-32842837D01*
X25355027Y-32804019D01*
X25452165Y-32802240D01*
X25542591Y-32837769D01*
X25612536Y-32905198D01*
X25651354Y-32994262D01*
X25653133Y-33091400D01*
X25635630Y-33148381D01*
X25587393Y-33256980D01*
X25536608Y-33469331D01*
X25529500Y-33568492D01*
X25529500Y-34835508D01*
X25529832Y-34840045D01*
X25534759Y-34907370D01*
X25536907Y-34936730D01*
X25539291Y-34946621D01*
X25539291Y-34946623D01*
X25553038Y-35003663D01*
X25588062Y-35148992D01*
X25677043Y-35348377D01*
X25800869Y-35528208D01*
X25955393Y-35682463D01*
X26068676Y-35760175D01*
X26122315Y-35796971D01*
X26135440Y-35805975D01*
X26145872Y-35810609D01*
X26145878Y-35810612D01*
X26291743Y-35875402D01*
X26334980Y-35894607D01*
X26346080Y-35897262D01*
X26346084Y-35897263D01*
X26469681Y-35926822D01*
X26547331Y-35945392D01*
X26557471Y-35946119D01*
X26557472Y-35946119D01*
X26572129Y-35947170D01*
X26646492Y-35952500D01*
X27913508Y-35952500D01*
X27918345Y-35952146D01*
X28004582Y-35945836D01*
X28004587Y-35945835D01*
X28014730Y-35945093D01*
X28024621Y-35942709D01*
X28024623Y-35942709D01*
X28215888Y-35896614D01*
X28215887Y-35896614D01*
X28226992Y-35893938D01*
X28426377Y-35804957D01*
X28606208Y-35681131D01*
X28639198Y-35648084D01*
X28752400Y-35534684D01*
X28760463Y-35526607D01*
X28856983Y-35385907D01*
X28926516Y-35318052D01*
X28946376Y-35306401D01*
X29047134Y-35253390D01*
X29140288Y-35225797D01*
X29236910Y-35235952D01*
X29322292Y-35282311D01*
X29376762Y-35347747D01*
X29377043Y-35348377D01*
X29500869Y-35528208D01*
X29655393Y-35682463D01*
X29768676Y-35760175D01*
X29822315Y-35796971D01*
X29835440Y-35805975D01*
X29845872Y-35810609D01*
X29845878Y-35810612D01*
X29991743Y-35875402D01*
X30034980Y-35894607D01*
X30046080Y-35897262D01*
X30046084Y-35897263D01*
X30169681Y-35926822D01*
X30247331Y-35945392D01*
X30257471Y-35946119D01*
X30257472Y-35946119D01*
X30272129Y-35947170D01*
X30346492Y-35952500D01*
X31613508Y-35952500D01*
X31618345Y-35952146D01*
X31704582Y-35945836D01*
X31704587Y-35945835D01*
X31714730Y-35945093D01*
X31724621Y-35942709D01*
X31724623Y-35942709D01*
X31915888Y-35896614D01*
X31915887Y-35896614D01*
X31926992Y-35893938D01*
X32126377Y-35804957D01*
X32306208Y-35681131D01*
X32339198Y-35648084D01*
X32452400Y-35534684D01*
X32460463Y-35526607D01*
X32583975Y-35346560D01*
X32588609Y-35336128D01*
X32588612Y-35336122D01*
X32667971Y-35157457D01*
X32672607Y-35147020D01*
X32676729Y-35129787D01*
X32721027Y-34944557D01*
X32723392Y-34934669D01*
X32730500Y-34835508D01*
X32730500Y-33568492D01*
X32723093Y-33467270D01*
X32671938Y-33255008D01*
X32582957Y-33055623D01*
X32459131Y-32875792D01*
X32430684Y-32847394D01*
X32331796Y-32748679D01*
X32304607Y-32721537D01*
X32171913Y-32630509D01*
X32160617Y-32622760D01*
X32092763Y-32553226D01*
X32056683Y-32463019D01*
X32057870Y-32365871D01*
X32096144Y-32276573D01*
X32125404Y-32241360D01*
X32613334Y-31753430D01*
X32694116Y-31699454D01*
X32789404Y-31680500D01*
X39422239Y-31680500D01*
X39517527Y-31699454D01*
X39598309Y-31753430D01*
X39652285Y-31834212D01*
X39671239Y-31929500D01*
X39652285Y-32024788D01*
X39598309Y-32105570D01*
X39532369Y-32152821D01*
X39342536Y-32246436D01*
X39342529Y-32246440D01*
X39335229Y-32250040D01*
X39328462Y-32254561D01*
X39328456Y-32254565D01*
X39220903Y-32326430D01*
X39079036Y-32421222D01*
X38847380Y-32624380D01*
X38644222Y-32856036D01*
X38639697Y-32862808D01*
X38639694Y-32862812D01*
X38562193Y-32978801D01*
X38473040Y-33112228D01*
X38336762Y-33388573D01*
X38237720Y-33680341D01*
X38236131Y-33688328D01*
X38236131Y-33688329D01*
X38197992Y-33880069D01*
X38177609Y-33982540D01*
X38157457Y-34290000D01*
X38177609Y-34597460D01*
X38179197Y-34605445D01*
X38179198Y-34605450D01*
X38225844Y-34839953D01*
X38237720Y-34899659D01*
X38336762Y-35191427D01*
X38473040Y-35467771D01*
X38477561Y-35474538D01*
X38477565Y-35474544D01*
X38518813Y-35536276D01*
X38644222Y-35723964D01*
X38847380Y-35955620D01*
X39079036Y-36158778D01*
X39207626Y-36244699D01*
X39328456Y-36325435D01*
X39328462Y-36325439D01*
X39335229Y-36329960D01*
X39611573Y-36466238D01*
X39903341Y-36565280D01*
X39911328Y-36566869D01*
X39911329Y-36566869D01*
X40197550Y-36623802D01*
X40197555Y-36623803D01*
X40205540Y-36625391D01*
X40213670Y-36625924D01*
X40213671Y-36625924D01*
X40274392Y-36629904D01*
X40436059Y-36640500D01*
X40589941Y-36640500D01*
X40751608Y-36629904D01*
X40812329Y-36625924D01*
X40812330Y-36625924D01*
X40820460Y-36625391D01*
X40828445Y-36623803D01*
X40828450Y-36623802D01*
X41114671Y-36566869D01*
X41114672Y-36566869D01*
X41122659Y-36565280D01*
X41414427Y-36466238D01*
X41690771Y-36329960D01*
X41697538Y-36325439D01*
X41697544Y-36325435D01*
X41818374Y-36244699D01*
X41946964Y-36158778D01*
X42178620Y-35955620D01*
X42381778Y-35723964D01*
X42389893Y-35711820D01*
X42548435Y-35474544D01*
X42552960Y-35467772D01*
X42673533Y-35223274D01*
X42685630Y-35198744D01*
X42685632Y-35198740D01*
X42689238Y-35191427D01*
X42788280Y-34899659D01*
X42800156Y-34839953D01*
X42846802Y-34605450D01*
X42846803Y-34605445D01*
X42848391Y-34597460D01*
X42868543Y-34290000D01*
X42848391Y-33982540D01*
X42828009Y-33880069D01*
X42789869Y-33688329D01*
X42789869Y-33688328D01*
X42788280Y-33680341D01*
X42689238Y-33388573D01*
X42552960Y-33112229D01*
X42548439Y-33105462D01*
X42548435Y-33105456D01*
X42408995Y-32896770D01*
X42381778Y-32856036D01*
X42178620Y-32624380D01*
X41946964Y-32421222D01*
X41805097Y-32326430D01*
X41697544Y-32254565D01*
X41697538Y-32254561D01*
X41690771Y-32250040D01*
X41683471Y-32246440D01*
X41683464Y-32246436D01*
X41493631Y-32152821D01*
X41416553Y-32093677D01*
X41367975Y-32009538D01*
X41355294Y-31913214D01*
X41380440Y-31819370D01*
X41439584Y-31742292D01*
X41523723Y-31693714D01*
X41603761Y-31680500D01*
X44357597Y-31680500D01*
X44452885Y-31699454D01*
X44533666Y-31753430D01*
X44919638Y-32139401D01*
X44930762Y-32151277D01*
X44973090Y-32199543D01*
X44982050Y-32206606D01*
X44982060Y-32206616D01*
X45044854Y-32256118D01*
X45049920Y-32260220D01*
X45120116Y-32318601D01*
X45130074Y-32324178D01*
X45132054Y-32325539D01*
X45133264Y-32326430D01*
X45134077Y-32326973D01*
X45135355Y-32327745D01*
X45137394Y-32329069D01*
X45146360Y-32336137D01*
X45227205Y-32378672D01*
X45232902Y-32381765D01*
X45302659Y-32420832D01*
X45302663Y-32420834D01*
X45312620Y-32426410D01*
X45323430Y-32430079D01*
X45325628Y-32431058D01*
X45326974Y-32431711D01*
X45327878Y-32432100D01*
X45329296Y-32432633D01*
X45331512Y-32433551D01*
X45341620Y-32438869D01*
X45428833Y-32465949D01*
X45435002Y-32467953D01*
X45521548Y-32497331D01*
X45532845Y-32498969D01*
X45535175Y-32499528D01*
X45536621Y-32499926D01*
X45537600Y-32500147D01*
X45539085Y-32500412D01*
X45541422Y-32500909D01*
X45552333Y-32504297D01*
X45626137Y-32513032D01*
X45643081Y-32515038D01*
X45649541Y-32515889D01*
X45728597Y-32527351D01*
X45728598Y-32527351D01*
X45739902Y-32528990D01*
X45751310Y-32528542D01*
X45751314Y-32528542D01*
X45823843Y-32525692D01*
X45833619Y-32525500D01*
X45953678Y-32525500D01*
X46048966Y-32544454D01*
X46136524Y-32605478D01*
X46197033Y-32670937D01*
X46197039Y-32670943D01*
X46203010Y-32677402D01*
X46209830Y-32682954D01*
X46209836Y-32682960D01*
X46267125Y-32729600D01*
X46406235Y-32842853D01*
X46413774Y-32847392D01*
X46413777Y-32847394D01*
X46463606Y-32877393D01*
X46630745Y-32978019D01*
X46638857Y-32981454D01*
X46638861Y-32981456D01*
X46838641Y-33066052D01*
X46872060Y-33080203D01*
X46880571Y-33082460D01*
X46880575Y-33082461D01*
X47116852Y-33145109D01*
X47116855Y-33145109D01*
X47125365Y-33147366D01*
X47134108Y-33148401D01*
X47134109Y-33148401D01*
X47200025Y-33156202D01*
X47385607Y-33178167D01*
X47647592Y-33171993D01*
X47906094Y-33128967D01*
X48155955Y-33049946D01*
X48392188Y-32936509D01*
X48610082Y-32790917D01*
X48663516Y-32743058D01*
X48798727Y-32621952D01*
X48798730Y-32621949D01*
X48805287Y-32616076D01*
X48973910Y-32415475D01*
X49112586Y-32193116D01*
X49218547Y-31953436D01*
X49289681Y-31701216D01*
X49324566Y-31441491D01*
X49328227Y-31325000D01*
X49309719Y-31063596D01*
X49267308Y-30866606D01*
X49256416Y-30816013D01*
X49256415Y-30816008D01*
X49254563Y-30807408D01*
X49248815Y-30791825D01*
X49166904Y-30569798D01*
X49166904Y-30569797D01*
X49163860Y-30561547D01*
X49039420Y-30330920D01*
X48883726Y-30120126D01*
X48699884Y-29933374D01*
X48491562Y-29774388D01*
X48262917Y-29646340D01*
X48018512Y-29551787D01*
X47785776Y-29497842D01*
X47697228Y-29457862D01*
X47630721Y-29387039D01*
X47596379Y-29296156D01*
X47593000Y-29255273D01*
X47593000Y-25760000D01*
X47611954Y-25664712D01*
X47665930Y-25583930D01*
X47746712Y-25529954D01*
X47842000Y-25511000D01*
X48479646Y-25511000D01*
X48574934Y-25529954D01*
X48655716Y-25583930D01*
X50718070Y-27646284D01*
X50772046Y-27727066D01*
X50791000Y-27822354D01*
X50791000Y-33627000D01*
X50772046Y-33722288D01*
X50718070Y-33803070D01*
X50637288Y-33857046D01*
X50542000Y-33876000D01*
X48253000Y-33876000D01*
X48253000Y-34773617D01*
X48234046Y-34868905D01*
X48180070Y-34949687D01*
X48099288Y-35003663D01*
X48004000Y-35022617D01*
X47947776Y-35016186D01*
X47746807Y-34969604D01*
X47746805Y-34969604D01*
X47738221Y-34967614D01*
X47729445Y-34966854D01*
X47729439Y-34966853D01*
X47599935Y-34955637D01*
X47477141Y-34945002D01*
X47337933Y-34952663D01*
X47224266Y-34958918D01*
X47224261Y-34958919D01*
X47215478Y-34959402D01*
X47087818Y-34984795D01*
X46967091Y-35008809D01*
X46967086Y-35008810D01*
X46958456Y-35010527D01*
X46711201Y-35097357D01*
X46703394Y-35101412D01*
X46703388Y-35101415D01*
X46488315Y-35213137D01*
X46478647Y-35218159D01*
X46429346Y-35253390D01*
X46272594Y-35365406D01*
X46272590Y-35365409D01*
X46265434Y-35370523D01*
X46259066Y-35376597D01*
X46259062Y-35376601D01*
X46082194Y-35545324D01*
X46082189Y-35545329D01*
X46075816Y-35551409D01*
X46075553Y-35551133D01*
X46001536Y-35605802D01*
X45907247Y-35629224D01*
X45895518Y-35629500D01*
X45616756Y-35629500D01*
X45600470Y-35628967D01*
X45536440Y-35624770D01*
X45525102Y-35626112D01*
X45525098Y-35626112D01*
X45445720Y-35635507D01*
X45439240Y-35636188D01*
X45363912Y-35643110D01*
X45348289Y-35644546D01*
X45337302Y-35647645D01*
X45334933Y-35648084D01*
X45333451Y-35648309D01*
X45332469Y-35648504D01*
X45331005Y-35648866D01*
X45328668Y-35649363D01*
X45317333Y-35650704D01*
X45306432Y-35654089D01*
X45306431Y-35654089D01*
X45230139Y-35677778D01*
X45223893Y-35679629D01*
X45135936Y-35704435D01*
X45125698Y-35709484D01*
X45123457Y-35710344D01*
X45122032Y-35710838D01*
X45121128Y-35711199D01*
X45119757Y-35711820D01*
X45117522Y-35712746D01*
X45106620Y-35716131D01*
X45096516Y-35721447D01*
X45096511Y-35721449D01*
X45025782Y-35758662D01*
X45020039Y-35761589D01*
X44938053Y-35802020D01*
X44928901Y-35808855D01*
X44926859Y-35810106D01*
X44925549Y-35810851D01*
X44924707Y-35811382D01*
X44923466Y-35812247D01*
X44921466Y-35813546D01*
X44911359Y-35818863D01*
X44902392Y-35825932D01*
X44839639Y-35875402D01*
X44834470Y-35879368D01*
X44770418Y-35927198D01*
X44770408Y-35927207D01*
X44761267Y-35934033D01*
X44750095Y-35946119D01*
X44704244Y-35995720D01*
X44697468Y-36002768D01*
X42669737Y-38030500D01*
X40698667Y-40001570D01*
X40617885Y-40055546D01*
X40522597Y-40074500D01*
X38862453Y-40074500D01*
X38767165Y-40055546D01*
X38691843Y-40006865D01*
X38596439Y-39917118D01*
X38596437Y-39917117D01*
X38589714Y-39910792D01*
X38582137Y-39905535D01*
X38582130Y-39905530D01*
X38383531Y-39767757D01*
X38383529Y-39767756D01*
X38375937Y-39762489D01*
X38367648Y-39758401D01*
X38367644Y-39758399D01*
X38261276Y-39705945D01*
X38142587Y-39647414D01*
X37983602Y-39596523D01*
X37903593Y-39570911D01*
X37903590Y-39570910D01*
X37894792Y-39568094D01*
X37885678Y-39566610D01*
X37885675Y-39566609D01*
X37799754Y-39552616D01*
X37637994Y-39526272D01*
X37628764Y-39526151D01*
X37628762Y-39526151D01*
X37445625Y-39523754D01*
X37377835Y-39522866D01*
X37341897Y-39527757D01*
X37129176Y-39556707D01*
X37129172Y-39556708D01*
X37120030Y-39557952D01*
X36870243Y-39630758D01*
X36861850Y-39634627D01*
X36861848Y-39634628D01*
X36828534Y-39649986D01*
X36633961Y-39739686D01*
X36416375Y-39882341D01*
X36222265Y-40055591D01*
X36055895Y-40255629D01*
X36042719Y-40277343D01*
X35925709Y-40470168D01*
X35925706Y-40470174D01*
X35920920Y-40478061D01*
X35917351Y-40486572D01*
X35917349Y-40486576D01*
X35836518Y-40679338D01*
X35820305Y-40718001D01*
X35818031Y-40726954D01*
X35817607Y-40728222D01*
X35769396Y-40812572D01*
X35692576Y-40872051D01*
X35598842Y-40897605D01*
X35505567Y-40886357D01*
X35354792Y-40838094D01*
X35345678Y-40836610D01*
X35345675Y-40836609D01*
X35259754Y-40822616D01*
X35097994Y-40796272D01*
X35088764Y-40796151D01*
X35088762Y-40796151D01*
X34905625Y-40793754D01*
X34837835Y-40792866D01*
X34801897Y-40797757D01*
X34589176Y-40826707D01*
X34589172Y-40826708D01*
X34580030Y-40827952D01*
X34330243Y-40900758D01*
X34321850Y-40904627D01*
X34321848Y-40904628D01*
X34156151Y-40981016D01*
X34093961Y-41009686D01*
X33876375Y-41152341D01*
X33682265Y-41325591D01*
X33515895Y-41525629D01*
X33459701Y-41618235D01*
X33385709Y-41740168D01*
X33385706Y-41740174D01*
X33380920Y-41748061D01*
X33280305Y-41988001D01*
X33216261Y-42240177D01*
X33215335Y-42249368D01*
X33215335Y-42249371D01*
X33193271Y-42468494D01*
X33190194Y-42499049D01*
X33202677Y-42758930D01*
X33204476Y-42767975D01*
X33204477Y-42767982D01*
X33251632Y-43005048D01*
X33253435Y-43014112D01*
X33256556Y-43022804D01*
X33256558Y-43022812D01*
X33337948Y-43249500D01*
X33341355Y-43258989D01*
X33464504Y-43488180D01*
X33470031Y-43495582D01*
X33470032Y-43495583D01*
X33598573Y-43667720D01*
X33640399Y-43755411D01*
X33645484Y-43852433D01*
X33613053Y-43944015D01*
X33590502Y-43975923D01*
X33515895Y-44065629D01*
X33511104Y-44073525D01*
X33385709Y-44280168D01*
X33385706Y-44280174D01*
X33380920Y-44288061D01*
X33280305Y-44528001D01*
X33216261Y-44780177D01*
X33190194Y-45039049D01*
X33202677Y-45298930D01*
X33204476Y-45307975D01*
X33204477Y-45307982D01*
X33251632Y-45545048D01*
X33253435Y-45554112D01*
X33256556Y-45562804D01*
X33256558Y-45562812D01*
X33337948Y-45789500D01*
X33341355Y-45798989D01*
X33464504Y-46028180D01*
X33470031Y-46035582D01*
X33470032Y-46035583D01*
X33598573Y-46207720D01*
X33640399Y-46295411D01*
X33645484Y-46392433D01*
X33613053Y-46484015D01*
X33590502Y-46515923D01*
X33515895Y-46605629D01*
X33511104Y-46613525D01*
X33385709Y-46820168D01*
X33385706Y-46820174D01*
X33380920Y-46828061D01*
X33280305Y-47068001D01*
X33216261Y-47320177D01*
X33190194Y-47579049D01*
X33202677Y-47838930D01*
X33204476Y-47847975D01*
X33204477Y-47847982D01*
X33251632Y-48085048D01*
X33253435Y-48094112D01*
X33256556Y-48102804D01*
X33256558Y-48102812D01*
X33337948Y-48329500D01*
X33341355Y-48338989D01*
X33345727Y-48347126D01*
X33345729Y-48347130D01*
X33437488Y-48517901D01*
X33465893Y-48610811D01*
X33456581Y-48707519D01*
X33411109Y-48793130D01*
X33355427Y-48861404D01*
X33349584Y-48872580D01*
X33349583Y-48872582D01*
X33330420Y-48909238D01*
X33261259Y-49041530D01*
X33205234Y-49236913D01*
X33204180Y-49248719D01*
X33204180Y-49248721D01*
X33203672Y-49254419D01*
X33194500Y-49357184D01*
X33194500Y-50972816D01*
X33205234Y-51093087D01*
X33261259Y-51288470D01*
X33267105Y-51299652D01*
X33339657Y-51438430D01*
X33355427Y-51468596D01*
X33483891Y-51626109D01*
X33493673Y-51634087D01*
X33631630Y-51746602D01*
X33631633Y-51746604D01*
X33641404Y-51754573D01*
X33652580Y-51760416D01*
X33652582Y-51760417D01*
X33748405Y-51810512D01*
X33821530Y-51848741D01*
X34016913Y-51904766D01*
X34028719Y-51905820D01*
X34028721Y-51905820D01*
X34131668Y-51915008D01*
X34131675Y-51915008D01*
X34137184Y-51915500D01*
X35752816Y-51915500D01*
X35758325Y-51915008D01*
X35758332Y-51915008D01*
X35861279Y-51905820D01*
X35861281Y-51905820D01*
X35873087Y-51904766D01*
X36068470Y-51848741D01*
X36141595Y-51810512D01*
X36237418Y-51760417D01*
X36237420Y-51760416D01*
X36248596Y-51754573D01*
X36258367Y-51746604D01*
X36258370Y-51746602D01*
X36396327Y-51634087D01*
X36406109Y-51626109D01*
X36534573Y-51468596D01*
X36535334Y-51469217D01*
X36595502Y-51408311D01*
X36685034Y-51370585D01*
X36735098Y-51365500D01*
X40776596Y-51365500D01*
X40871884Y-51384454D01*
X40952666Y-51438430D01*
X44938645Y-55424408D01*
X44949783Y-55436301D01*
X44992090Y-55484543D01*
X45001050Y-55491606D01*
X45001060Y-55491616D01*
X45063854Y-55541118D01*
X45068920Y-55545220D01*
X45139116Y-55603601D01*
X45149077Y-55609179D01*
X45151050Y-55610535D01*
X45152260Y-55611426D01*
X45153094Y-55611984D01*
X45154385Y-55612763D01*
X45156390Y-55614065D01*
X45165360Y-55621137D01*
X45175468Y-55626455D01*
X45175471Y-55626457D01*
X45246194Y-55663666D01*
X45251923Y-55666776D01*
X45331621Y-55711410D01*
X45342421Y-55715076D01*
X45344627Y-55716058D01*
X45345956Y-55716703D01*
X45346900Y-55717108D01*
X45348308Y-55717638D01*
X45350516Y-55718553D01*
X45360620Y-55723869D01*
X45371523Y-55727254D01*
X45371529Y-55727257D01*
X45447851Y-55750956D01*
X45454046Y-55752969D01*
X45529738Y-55778662D01*
X45529743Y-55778663D01*
X45540548Y-55782331D01*
X45551839Y-55783968D01*
X45554190Y-55784533D01*
X45569888Y-55788849D01*
X45571331Y-55789297D01*
X45570491Y-55792004D01*
X45641539Y-55822516D01*
X45709343Y-55892098D01*
X45721191Y-55912370D01*
X45758427Y-55983596D01*
X45766396Y-55993367D01*
X45766398Y-55993370D01*
X45861064Y-56109442D01*
X45886891Y-56141109D01*
X45896673Y-56149087D01*
X46034630Y-56261602D01*
X46034633Y-56261604D01*
X46044404Y-56269573D01*
X46224530Y-56363741D01*
X46419913Y-56419766D01*
X46431719Y-56420820D01*
X46431721Y-56420820D01*
X46534668Y-56430008D01*
X46534675Y-56430008D01*
X46540184Y-56430500D01*
X48004000Y-56430500D01*
X48099288Y-56449454D01*
X48180070Y-56503430D01*
X48234046Y-56584212D01*
X48253000Y-56679500D01*
X48253000Y-57534000D01*
X48258755Y-57534000D01*
X48263207Y-57540664D01*
X48300386Y-57630424D01*
X48300385Y-57727579D01*
X48263205Y-57817338D01*
X48194506Y-57886037D01*
X48104746Y-57923216D01*
X48056170Y-57928000D01*
X24241354Y-57928000D01*
X24146066Y-57909046D01*
X24065284Y-57855070D01*
X22002930Y-55792716D01*
X21948954Y-55711934D01*
X21930000Y-55616646D01*
X21930000Y-51480471D01*
X25989955Y-51480471D01*
X25990552Y-51488056D01*
X25990552Y-51488060D01*
X26010900Y-51746602D01*
X26014914Y-51797607D01*
X26078336Y-52109338D01*
X26179276Y-52411016D01*
X26182545Y-52417870D01*
X26182546Y-52417872D01*
X26274603Y-52610872D01*
X26316229Y-52698143D01*
X26320310Y-52704550D01*
X26320314Y-52704556D01*
X26435517Y-52885388D01*
X26487153Y-52966440D01*
X26689500Y-53211907D01*
X26920254Y-53430884D01*
X26926368Y-53435408D01*
X26926369Y-53435409D01*
X27112626Y-53573232D01*
X27175975Y-53620108D01*
X27452849Y-53776756D01*
X27616635Y-53844598D01*
X27739725Y-53895584D01*
X27739729Y-53895585D01*
X27746751Y-53898494D01*
X28053298Y-53983507D01*
X28295035Y-54019635D01*
X28361470Y-54029564D01*
X28361472Y-54029564D01*
X28367921Y-54030528D01*
X28374429Y-54030812D01*
X28374438Y-54030813D01*
X28479078Y-54035381D01*
X28481804Y-54035500D01*
X28675799Y-54035500D01*
X28679571Y-54035269D01*
X28679581Y-54035269D01*
X28874745Y-54023332D01*
X28912524Y-54021021D01*
X28919997Y-54019636D01*
X28920005Y-54019635D01*
X29217830Y-53964436D01*
X29217832Y-53964436D01*
X29225313Y-53963049D01*
X29232565Y-53960763D01*
X29232567Y-53960762D01*
X29423612Y-53900526D01*
X29528707Y-53867390D01*
X29607826Y-53831333D01*
X29811257Y-53738625D01*
X29811264Y-53738621D01*
X29818181Y-53735469D01*
X30006433Y-53620108D01*
X30082927Y-53573232D01*
X30082928Y-53573231D01*
X30089420Y-53569253D01*
X30095374Y-53564517D01*
X30332430Y-53375955D01*
X30332434Y-53375952D01*
X30338381Y-53371221D01*
X30561352Y-53144324D01*
X30565987Y-53138284D01*
X30565991Y-53138279D01*
X30697847Y-52966440D01*
X30755009Y-52891945D01*
X30758867Y-52885395D01*
X30758872Y-52885388D01*
X30912607Y-52624398D01*
X30912610Y-52624393D01*
X30916466Y-52617846D01*
X30971224Y-52491911D01*
X31040284Y-52333086D01*
X31040287Y-52333079D01*
X31043315Y-52326114D01*
X31133665Y-52021097D01*
X31161926Y-51852218D01*
X31184913Y-51714849D01*
X31184913Y-51714848D01*
X31186169Y-51707343D01*
X31200045Y-51389529D01*
X31191137Y-51276343D01*
X31175684Y-51079986D01*
X31175683Y-51079979D01*
X31175086Y-51072393D01*
X31111664Y-50760662D01*
X31010724Y-50458984D01*
X31007454Y-50452128D01*
X30877042Y-50178714D01*
X30877039Y-50178709D01*
X30873771Y-50171857D01*
X30869690Y-50165450D01*
X30869686Y-50165444D01*
X30706933Y-49909974D01*
X30702847Y-49903560D01*
X30500500Y-49658093D01*
X30269746Y-49439116D01*
X30159022Y-49357184D01*
X30020143Y-49254419D01*
X30020142Y-49254418D01*
X30014025Y-49249892D01*
X29737151Y-49093244D01*
X29573365Y-49025402D01*
X29450275Y-48974416D01*
X29450271Y-48974415D01*
X29443249Y-48971506D01*
X29136702Y-48886493D01*
X28891601Y-48849862D01*
X28828530Y-48840436D01*
X28828528Y-48840436D01*
X28822079Y-48839472D01*
X28815571Y-48839188D01*
X28815562Y-48839187D01*
X28710922Y-48834619D01*
X28710921Y-48834619D01*
X28708196Y-48834500D01*
X28514201Y-48834500D01*
X28510429Y-48834731D01*
X28510419Y-48834731D01*
X28315255Y-48846668D01*
X28277476Y-48848979D01*
X28270003Y-48850364D01*
X28269995Y-48850365D01*
X27972170Y-48905564D01*
X27972168Y-48905564D01*
X27964687Y-48906951D01*
X27957435Y-48909237D01*
X27957433Y-48909238D01*
X27861757Y-48939404D01*
X27661293Y-49002610D01*
X27654377Y-49005762D01*
X27378743Y-49131375D01*
X27378736Y-49131379D01*
X27371819Y-49134531D01*
X27365330Y-49138507D01*
X27365329Y-49138508D01*
X27176180Y-49254419D01*
X27100580Y-49300747D01*
X27094626Y-49305483D01*
X26920041Y-49444354D01*
X26851619Y-49498779D01*
X26628648Y-49725676D01*
X26624013Y-49731716D01*
X26624009Y-49731721D01*
X26537645Y-49844273D01*
X26434991Y-49978055D01*
X26431133Y-49984605D01*
X26431128Y-49984612D01*
X26277393Y-50245602D01*
X26273534Y-50252154D01*
X26270502Y-50259128D01*
X26149716Y-50536914D01*
X26149713Y-50536921D01*
X26146685Y-50543886D01*
X26056335Y-50848903D01*
X26055081Y-50856399D01*
X26055079Y-50856406D01*
X26018936Y-51072393D01*
X26003831Y-51162657D01*
X25989955Y-51480471D01*
X21930000Y-51480471D01*
X21930000Y-40050471D01*
X25989955Y-40050471D01*
X25990552Y-40058056D01*
X25990552Y-40058060D01*
X26008401Y-40284849D01*
X26014914Y-40367607D01*
X26078336Y-40679338D01*
X26116322Y-40792866D01*
X26147604Y-40886357D01*
X26179276Y-40981016D01*
X26182545Y-40987870D01*
X26182546Y-40987872D01*
X26274603Y-41180872D01*
X26316229Y-41268143D01*
X26320310Y-41274550D01*
X26320314Y-41274556D01*
X26352827Y-41325591D01*
X26487153Y-41536440D01*
X26689500Y-41781907D01*
X26920254Y-42000884D01*
X26926368Y-42005408D01*
X26926369Y-42005409D01*
X27112626Y-42143232D01*
X27175975Y-42190108D01*
X27452849Y-42346756D01*
X27616635Y-42414598D01*
X27739725Y-42465584D01*
X27739729Y-42465585D01*
X27746751Y-42468494D01*
X28053298Y-42553507D01*
X28295035Y-42589635D01*
X28361470Y-42599564D01*
X28361472Y-42599564D01*
X28367921Y-42600528D01*
X28374429Y-42600812D01*
X28374438Y-42600813D01*
X28479078Y-42605381D01*
X28481804Y-42605500D01*
X28675799Y-42605500D01*
X28679571Y-42605269D01*
X28679581Y-42605269D01*
X28874745Y-42593332D01*
X28912524Y-42591021D01*
X28919997Y-42589636D01*
X28920005Y-42589635D01*
X29217830Y-42534436D01*
X29217832Y-42534436D01*
X29225313Y-42533049D01*
X29232565Y-42530763D01*
X29232567Y-42530762D01*
X29423612Y-42470526D01*
X29528707Y-42437390D01*
X29607826Y-42401333D01*
X29811257Y-42308625D01*
X29811264Y-42308621D01*
X29818181Y-42305469D01*
X30006433Y-42190108D01*
X30082927Y-42143232D01*
X30082928Y-42143231D01*
X30089420Y-42139253D01*
X30095374Y-42134517D01*
X30332430Y-41945955D01*
X30332434Y-41945952D01*
X30338381Y-41941221D01*
X30561352Y-41714324D01*
X30565987Y-41708284D01*
X30565991Y-41708279D01*
X30700084Y-41533525D01*
X30755009Y-41461945D01*
X30758867Y-41455395D01*
X30758872Y-41455388D01*
X30912607Y-41194398D01*
X30912610Y-41194393D01*
X30916466Y-41187846D01*
X30991732Y-41014746D01*
X31040284Y-40903086D01*
X31040287Y-40903079D01*
X31043315Y-40896114D01*
X31063506Y-40827952D01*
X31098598Y-40709480D01*
X31133665Y-40591097D01*
X31153902Y-40470168D01*
X31184913Y-40284849D01*
X31184913Y-40284848D01*
X31186169Y-40277343D01*
X31200045Y-39959529D01*
X31196707Y-39917118D01*
X31175684Y-39649986D01*
X31175683Y-39649979D01*
X31175086Y-39642393D01*
X31111664Y-39330662D01*
X31010724Y-39028984D01*
X31007454Y-39022128D01*
X30877042Y-38748714D01*
X30877039Y-38748709D01*
X30873771Y-38741857D01*
X30869690Y-38735450D01*
X30869686Y-38735444D01*
X30706933Y-38479974D01*
X30702847Y-38473560D01*
X30500500Y-38228093D01*
X30269746Y-38009116D01*
X30082752Y-37870747D01*
X30020143Y-37824419D01*
X30020142Y-37824418D01*
X30014025Y-37819892D01*
X29737151Y-37663244D01*
X29573365Y-37595402D01*
X29450275Y-37544416D01*
X29450271Y-37544415D01*
X29443249Y-37541506D01*
X29136702Y-37456493D01*
X28891601Y-37419862D01*
X28828530Y-37410436D01*
X28828528Y-37410436D01*
X28822079Y-37409472D01*
X28815571Y-37409188D01*
X28815562Y-37409187D01*
X28710922Y-37404619D01*
X28710921Y-37404619D01*
X28708196Y-37404500D01*
X28514201Y-37404500D01*
X28510429Y-37404731D01*
X28510419Y-37404731D01*
X28315255Y-37416668D01*
X28277476Y-37418979D01*
X28270003Y-37420364D01*
X28269995Y-37420365D01*
X27972170Y-37475564D01*
X27972168Y-37475564D01*
X27964687Y-37476951D01*
X27957435Y-37479237D01*
X27957433Y-37479238D01*
X27861757Y-37509404D01*
X27661293Y-37572610D01*
X27654377Y-37575762D01*
X27378743Y-37701375D01*
X27378736Y-37701379D01*
X27371819Y-37704531D01*
X27365330Y-37708507D01*
X27365329Y-37708508D01*
X27176180Y-37824419D01*
X27100580Y-37870747D01*
X27094626Y-37875483D01*
X26920041Y-38014354D01*
X26851619Y-38068779D01*
X26628648Y-38295676D01*
X26624013Y-38301716D01*
X26624009Y-38301721D01*
X26537645Y-38414273D01*
X26434991Y-38548055D01*
X26431133Y-38554605D01*
X26431128Y-38554612D01*
X26277393Y-38815602D01*
X26273534Y-38822154D01*
X26270502Y-38829128D01*
X26149716Y-39106914D01*
X26149713Y-39106921D01*
X26146685Y-39113886D01*
X26056335Y-39418903D01*
X26055081Y-39426399D01*
X26055079Y-39426406D01*
X26018096Y-39647414D01*
X26003831Y-39732657D01*
X26003499Y-39740259D01*
X26003499Y-39740260D01*
X25998980Y-39843757D01*
X25989955Y-40050471D01*
X21930000Y-40050471D01*
X21930000Y-27822354D01*
X21948954Y-27727066D01*
X22002930Y-27646284D01*
X24065284Y-25583930D01*
X24146066Y-25529954D01*
X24241354Y-25511000D01*
X43294000Y-25511000D01*
X43389288Y-25529954D01*
G37*
%TD.AperFunction*%
%TD*%
M02*
