%FSLAX45Y45*%
G04 Gerber Fmt 4.5, Leading zero omitted, Abs format (unit mm)*
G04 Created by KiCad (PCBNEW (6.0.0-0)) date 2023-03-28 13:07:50*
%MOMM*%
%LPD*%
G01*
G04 APERTURE LIST*
%TA.AperFunction,Profile*%
%ADD10C,0.100000*%
%TD*%
%ADD11C,0.200000*%
%ADD12C,0.140000*%
%ADD13C,0.270000*%
%ADD14C,0.320000*%
G04 APERTURE END LIST*
D10*
X2372400Y-5892800D02*
X2093000Y-5613400D01*
X4899700Y-5892800D02*
X5179100Y-5613400D01*
X2372400Y-2451100D02*
X2093000Y-2730500D01*
X5179100Y-2730500D02*
X5179100Y-5613400D01*
X4899700Y-2451100D02*
X2372400Y-2451100D01*
X2093000Y-5613400D02*
X2093000Y-2730500D01*
X4899700Y-2451100D02*
X5179100Y-2730500D01*
X4899700Y-5892800D02*
X2372400Y-5892800D01*
D11*
D12*
X2358000Y-3075200D02*
X2498000Y-3215200D01*
X2498000Y-3075200D02*
X2358000Y-3215200D01*
X2858000Y-3075200D02*
X2998000Y-3215200D01*
X2998000Y-3075200D02*
X2858000Y-3215200D01*
D13*
X4186300Y-3429000D02*
G75*
G03*
X4186300Y-3429000I-135000J0D01*
G01*
D14*
X2859500Y-3840500D02*
X2859500Y-4160500D01*
X2699500Y-4000500D02*
X3019500Y-4000500D01*
X2859500Y-4983500D02*
X2859500Y-5303500D01*
X2699500Y-5143500D02*
X3019500Y-5143500D01*
D11*
X2345619Y-6208276D02*
X2345619Y-6008276D01*
X2393238Y-6008276D01*
X2421810Y-6017800D01*
X2440857Y-6036848D01*
X2450381Y-6055895D01*
X2459905Y-6093990D01*
X2459905Y-6122562D01*
X2450381Y-6160657D01*
X2440857Y-6179705D01*
X2421810Y-6198752D01*
X2393238Y-6208276D01*
X2345619Y-6208276D01*
X2545619Y-6208276D02*
X2545619Y-6074943D01*
X2545619Y-6113038D02*
X2555143Y-6093990D01*
X2564667Y-6084467D01*
X2583714Y-6074943D01*
X2602762Y-6074943D01*
X2669429Y-6208276D02*
X2669429Y-6074943D01*
X2669429Y-6008276D02*
X2659905Y-6017800D01*
X2669429Y-6027324D01*
X2678952Y-6017800D01*
X2669429Y-6008276D01*
X2669429Y-6027324D01*
X2793238Y-6208276D02*
X2774190Y-6198752D01*
X2764667Y-6179705D01*
X2764667Y-6008276D01*
X2898000Y-6208276D02*
X2878952Y-6198752D01*
X2869428Y-6179705D01*
X2869428Y-6008276D01*
X3126571Y-6208276D02*
X3126571Y-6008276D01*
X3193238Y-6151133D01*
X3259905Y-6008276D01*
X3259905Y-6208276D01*
X3440857Y-6208276D02*
X3440857Y-6103514D01*
X3431333Y-6084467D01*
X3412286Y-6074943D01*
X3374190Y-6074943D01*
X3355143Y-6084467D01*
X3440857Y-6198752D02*
X3421809Y-6208276D01*
X3374190Y-6208276D01*
X3355143Y-6198752D01*
X3345619Y-6179705D01*
X3345619Y-6160657D01*
X3355143Y-6141609D01*
X3374190Y-6132086D01*
X3421809Y-6132086D01*
X3440857Y-6122562D01*
X3536095Y-6074943D02*
X3536095Y-6274943D01*
X3536095Y-6084467D02*
X3555143Y-6074943D01*
X3593238Y-6074943D01*
X3612286Y-6084467D01*
X3621809Y-6093990D01*
X3631333Y-6113038D01*
X3631333Y-6170181D01*
X3621809Y-6189228D01*
X3612286Y-6198752D01*
X3593238Y-6208276D01*
X3555143Y-6208276D01*
X3536095Y-6198752D01*
X3717048Y-6189228D02*
X3726571Y-6198752D01*
X3717048Y-6208276D01*
X3707524Y-6198752D01*
X3717048Y-6189228D01*
X3717048Y-6208276D01*
X3717048Y-6084467D02*
X3726571Y-6093990D01*
X3717048Y-6103514D01*
X3707524Y-6093990D01*
X3717048Y-6084467D01*
X3717048Y-6103514D01*
D12*
X1948000Y-6467800D02*
X2088000Y-6607800D01*
X2088000Y-6467800D02*
X1948000Y-6607800D01*
D11*
X2450381Y-6628276D02*
X2336095Y-6628276D01*
X2393238Y-6628276D02*
X2393238Y-6428276D01*
X2374190Y-6456848D01*
X2355143Y-6475895D01*
X2336095Y-6485419D01*
X2536095Y-6609228D02*
X2545619Y-6618752D01*
X2536095Y-6628276D01*
X2526571Y-6618752D01*
X2536095Y-6609228D01*
X2536095Y-6628276D01*
X2717048Y-6494943D02*
X2717048Y-6628276D01*
X2669429Y-6418752D02*
X2621810Y-6561609D01*
X2745619Y-6561609D01*
X2859905Y-6428276D02*
X2878952Y-6428276D01*
X2898000Y-6437800D01*
X2907524Y-6447324D01*
X2917048Y-6466371D01*
X2926571Y-6504467D01*
X2926571Y-6552086D01*
X2917048Y-6590181D01*
X2907524Y-6609228D01*
X2898000Y-6618752D01*
X2878952Y-6628276D01*
X2859905Y-6628276D01*
X2840857Y-6618752D01*
X2831333Y-6609228D01*
X2821809Y-6590181D01*
X2812286Y-6552086D01*
X2812286Y-6504467D01*
X2821809Y-6466371D01*
X2831333Y-6447324D01*
X2840857Y-6437800D01*
X2859905Y-6428276D01*
X3050381Y-6428276D02*
X3069428Y-6428276D01*
X3088476Y-6437800D01*
X3098000Y-6447324D01*
X3107524Y-6466371D01*
X3117048Y-6504467D01*
X3117048Y-6552086D01*
X3107524Y-6590181D01*
X3098000Y-6609228D01*
X3088476Y-6618752D01*
X3069428Y-6628276D01*
X3050381Y-6628276D01*
X3031333Y-6618752D01*
X3021809Y-6609228D01*
X3012286Y-6590181D01*
X3002762Y-6552086D01*
X3002762Y-6504467D01*
X3012286Y-6466371D01*
X3021809Y-6447324D01*
X3031333Y-6437800D01*
X3050381Y-6428276D01*
X3202762Y-6628276D02*
X3202762Y-6494943D01*
X3202762Y-6513990D02*
X3212286Y-6504467D01*
X3231333Y-6494943D01*
X3259905Y-6494943D01*
X3278952Y-6504467D01*
X3288476Y-6523514D01*
X3288476Y-6628276D01*
X3288476Y-6523514D02*
X3298000Y-6504467D01*
X3317048Y-6494943D01*
X3345619Y-6494943D01*
X3364667Y-6504467D01*
X3374190Y-6523514D01*
X3374190Y-6628276D01*
X3469428Y-6628276D02*
X3469428Y-6494943D01*
X3469428Y-6513990D02*
X3478952Y-6504467D01*
X3498000Y-6494943D01*
X3526571Y-6494943D01*
X3545619Y-6504467D01*
X3555143Y-6523514D01*
X3555143Y-6628276D01*
X3555143Y-6523514D02*
X3564667Y-6504467D01*
X3583714Y-6494943D01*
X3612286Y-6494943D01*
X3631333Y-6504467D01*
X3640857Y-6523514D01*
X3640857Y-6628276D01*
X4031333Y-6418752D02*
X3859905Y-6675895D01*
X4288476Y-6428276D02*
X4307524Y-6428276D01*
X4326571Y-6437800D01*
X4336095Y-6447324D01*
X4345619Y-6466371D01*
X4355143Y-6504467D01*
X4355143Y-6552086D01*
X4345619Y-6590181D01*
X4336095Y-6609228D01*
X4326571Y-6618752D01*
X4307524Y-6628276D01*
X4288476Y-6628276D01*
X4269429Y-6618752D01*
X4259905Y-6609228D01*
X4250381Y-6590181D01*
X4240857Y-6552086D01*
X4240857Y-6504467D01*
X4250381Y-6466371D01*
X4259905Y-6447324D01*
X4269429Y-6437800D01*
X4288476Y-6428276D01*
X4440857Y-6609228D02*
X4450381Y-6618752D01*
X4440857Y-6628276D01*
X4431333Y-6618752D01*
X4440857Y-6609228D01*
X4440857Y-6628276D01*
X4574190Y-6428276D02*
X4593238Y-6428276D01*
X4612286Y-6437800D01*
X4621810Y-6447324D01*
X4631333Y-6466371D01*
X4640857Y-6504467D01*
X4640857Y-6552086D01*
X4631333Y-6590181D01*
X4621810Y-6609228D01*
X4612286Y-6618752D01*
X4593238Y-6628276D01*
X4574190Y-6628276D01*
X4555143Y-6618752D01*
X4545619Y-6609228D01*
X4536095Y-6590181D01*
X4526571Y-6552086D01*
X4526571Y-6504467D01*
X4536095Y-6466371D01*
X4545619Y-6447324D01*
X4555143Y-6437800D01*
X4574190Y-6428276D01*
X4821810Y-6428276D02*
X4726571Y-6428276D01*
X4717048Y-6523514D01*
X4726571Y-6513990D01*
X4745619Y-6504467D01*
X4793238Y-6504467D01*
X4812286Y-6513990D01*
X4821810Y-6523514D01*
X4831333Y-6542562D01*
X4831333Y-6590181D01*
X4821810Y-6609228D01*
X4812286Y-6618752D01*
X4793238Y-6628276D01*
X4745619Y-6628276D01*
X4726571Y-6618752D01*
X4717048Y-6609228D01*
X5012286Y-6428276D02*
X4917048Y-6428276D01*
X4907524Y-6523514D01*
X4917048Y-6513990D01*
X4936095Y-6504467D01*
X4983714Y-6504467D01*
X5002762Y-6513990D01*
X5012286Y-6523514D01*
X5021810Y-6542562D01*
X5021810Y-6590181D01*
X5012286Y-6609228D01*
X5002762Y-6618752D01*
X4983714Y-6628276D01*
X4936095Y-6628276D01*
X4917048Y-6618752D01*
X4907524Y-6609228D01*
X5212286Y-6628276D02*
X5098000Y-6628276D01*
X5155143Y-6628276D02*
X5155143Y-6428276D01*
X5136095Y-6456848D01*
X5117048Y-6475895D01*
X5098000Y-6485419D01*
X5288476Y-6428276D02*
X5288476Y-6466371D01*
X5364667Y-6428276D02*
X5364667Y-6466371D01*
X5659905Y-6704467D02*
X5650381Y-6694943D01*
X5631333Y-6666371D01*
X5621809Y-6647324D01*
X5612286Y-6618752D01*
X5602762Y-6571133D01*
X5602762Y-6533038D01*
X5612286Y-6485419D01*
X5621809Y-6456848D01*
X5631333Y-6437800D01*
X5650381Y-6409228D01*
X5659905Y-6399705D01*
X5726571Y-6447324D02*
X5736095Y-6437800D01*
X5755143Y-6428276D01*
X5802762Y-6428276D01*
X5821809Y-6437800D01*
X5831333Y-6447324D01*
X5840857Y-6466371D01*
X5840857Y-6485419D01*
X5831333Y-6513990D01*
X5717048Y-6628276D01*
X5840857Y-6628276D01*
X6078952Y-6628276D02*
X6078952Y-6428276D01*
X6164667Y-6628276D02*
X6164667Y-6523514D01*
X6155143Y-6504467D01*
X6136095Y-6494943D01*
X6107524Y-6494943D01*
X6088476Y-6504467D01*
X6078952Y-6513990D01*
X6288476Y-6628276D02*
X6269428Y-6618752D01*
X6259905Y-6609228D01*
X6250381Y-6590181D01*
X6250381Y-6533038D01*
X6259905Y-6513990D01*
X6269428Y-6504467D01*
X6288476Y-6494943D01*
X6317048Y-6494943D01*
X6336095Y-6504467D01*
X6345619Y-6513990D01*
X6355143Y-6533038D01*
X6355143Y-6590181D01*
X6345619Y-6609228D01*
X6336095Y-6618752D01*
X6317048Y-6628276D01*
X6288476Y-6628276D01*
X6469428Y-6628276D02*
X6450381Y-6618752D01*
X6440857Y-6599705D01*
X6440857Y-6428276D01*
X6621809Y-6618752D02*
X6602762Y-6628276D01*
X6564667Y-6628276D01*
X6545619Y-6618752D01*
X6536095Y-6599705D01*
X6536095Y-6523514D01*
X6545619Y-6504467D01*
X6564667Y-6494943D01*
X6602762Y-6494943D01*
X6621809Y-6504467D01*
X6631333Y-6523514D01*
X6631333Y-6542562D01*
X6536095Y-6561609D01*
X6707524Y-6618752D02*
X6726571Y-6628276D01*
X6764667Y-6628276D01*
X6783714Y-6618752D01*
X6793238Y-6599705D01*
X6793238Y-6590181D01*
X6783714Y-6571133D01*
X6764667Y-6561609D01*
X6736095Y-6561609D01*
X6717048Y-6552086D01*
X6707524Y-6533038D01*
X6707524Y-6523514D01*
X6717048Y-6504467D01*
X6736095Y-6494943D01*
X6764667Y-6494943D01*
X6783714Y-6504467D01*
X6859905Y-6704467D02*
X6869428Y-6694943D01*
X6888476Y-6666371D01*
X6898000Y-6647324D01*
X6907524Y-6618752D01*
X6917048Y-6571133D01*
X6917048Y-6533038D01*
X6907524Y-6485419D01*
X6898000Y-6456848D01*
X6888476Y-6437800D01*
X6869428Y-6409228D01*
X6859905Y-6399705D01*
X7221809Y-6704467D02*
X7212286Y-6694943D01*
X7193238Y-6666371D01*
X7183714Y-6647324D01*
X7174190Y-6618752D01*
X7164667Y-6571133D01*
X7164667Y-6533038D01*
X7174190Y-6485419D01*
X7183714Y-6456848D01*
X7193238Y-6437800D01*
X7212286Y-6409228D01*
X7221809Y-6399705D01*
X7298000Y-6494943D02*
X7298000Y-6628276D01*
X7298000Y-6513990D02*
X7307524Y-6504467D01*
X7326571Y-6494943D01*
X7355143Y-6494943D01*
X7374190Y-6504467D01*
X7383714Y-6523514D01*
X7383714Y-6628276D01*
X7507524Y-6628276D02*
X7488476Y-6618752D01*
X7478952Y-6609228D01*
X7469428Y-6590181D01*
X7469428Y-6533038D01*
X7478952Y-6513990D01*
X7488476Y-6504467D01*
X7507524Y-6494943D01*
X7536095Y-6494943D01*
X7555143Y-6504467D01*
X7564667Y-6513990D01*
X7574190Y-6533038D01*
X7574190Y-6590181D01*
X7564667Y-6609228D01*
X7555143Y-6618752D01*
X7536095Y-6628276D01*
X7507524Y-6628276D01*
X7631333Y-6494943D02*
X7707524Y-6494943D01*
X7659905Y-6428276D02*
X7659905Y-6599705D01*
X7669428Y-6618752D01*
X7688476Y-6628276D01*
X7707524Y-6628276D01*
X7926571Y-6494943D02*
X7926571Y-6694943D01*
X7926571Y-6504467D02*
X7945619Y-6494943D01*
X7983714Y-6494943D01*
X8002762Y-6504467D01*
X8012286Y-6513990D01*
X8021809Y-6533038D01*
X8021809Y-6590181D01*
X8012286Y-6609228D01*
X8002762Y-6618752D01*
X7983714Y-6628276D01*
X7945619Y-6628276D01*
X7926571Y-6618752D01*
X8136095Y-6628276D02*
X8117048Y-6618752D01*
X8107524Y-6599705D01*
X8107524Y-6428276D01*
X8298000Y-6628276D02*
X8298000Y-6523514D01*
X8288476Y-6504467D01*
X8269428Y-6494943D01*
X8231333Y-6494943D01*
X8212286Y-6504467D01*
X8298000Y-6618752D02*
X8278952Y-6628276D01*
X8231333Y-6628276D01*
X8212286Y-6618752D01*
X8202762Y-6599705D01*
X8202762Y-6580657D01*
X8212286Y-6561609D01*
X8231333Y-6552086D01*
X8278952Y-6552086D01*
X8298000Y-6542562D01*
X8364667Y-6494943D02*
X8440857Y-6494943D01*
X8393238Y-6428276D02*
X8393238Y-6599705D01*
X8402762Y-6618752D01*
X8421810Y-6628276D01*
X8440857Y-6628276D01*
X8583714Y-6618752D02*
X8564667Y-6628276D01*
X8526571Y-6628276D01*
X8507524Y-6618752D01*
X8498000Y-6599705D01*
X8498000Y-6523514D01*
X8507524Y-6504467D01*
X8526571Y-6494943D01*
X8564667Y-6494943D01*
X8583714Y-6504467D01*
X8593238Y-6523514D01*
X8593238Y-6542562D01*
X8498000Y-6561609D01*
X8764667Y-6628276D02*
X8764667Y-6428276D01*
X8764667Y-6618752D02*
X8745619Y-6628276D01*
X8707524Y-6628276D01*
X8688476Y-6618752D01*
X8678952Y-6609228D01*
X8669429Y-6590181D01*
X8669429Y-6533038D01*
X8678952Y-6513990D01*
X8688476Y-6504467D01*
X8707524Y-6494943D01*
X8745619Y-6494943D01*
X8764667Y-6504467D01*
X8840857Y-6704467D02*
X8850381Y-6694943D01*
X8869429Y-6666371D01*
X8878952Y-6647324D01*
X8888476Y-6618752D01*
X8898000Y-6571133D01*
X8898000Y-6533038D01*
X8888476Y-6485419D01*
X8878952Y-6456848D01*
X8869429Y-6437800D01*
X8850381Y-6409228D01*
X8840857Y-6399705D01*
X2088000Y-6801800D02*
G75*
G03*
X2088000Y-6801800I-100000J0D01*
G01*
X2336095Y-6711324D02*
X2345619Y-6701800D01*
X2364667Y-6692276D01*
X2412286Y-6692276D01*
X2431333Y-6701800D01*
X2440857Y-6711324D01*
X2450381Y-6730371D01*
X2450381Y-6749419D01*
X2440857Y-6777990D01*
X2326571Y-6892276D01*
X2450381Y-6892276D01*
X2536095Y-6873228D02*
X2545619Y-6882752D01*
X2536095Y-6892276D01*
X2526571Y-6882752D01*
X2536095Y-6873228D01*
X2536095Y-6892276D01*
X2612286Y-6692276D02*
X2745619Y-6692276D01*
X2659905Y-6892276D01*
X2859905Y-6692276D02*
X2878952Y-6692276D01*
X2898000Y-6701800D01*
X2907524Y-6711324D01*
X2917048Y-6730371D01*
X2926571Y-6768467D01*
X2926571Y-6816086D01*
X2917048Y-6854181D01*
X2907524Y-6873228D01*
X2898000Y-6882752D01*
X2878952Y-6892276D01*
X2859905Y-6892276D01*
X2840857Y-6882752D01*
X2831333Y-6873228D01*
X2821809Y-6854181D01*
X2812286Y-6816086D01*
X2812286Y-6768467D01*
X2821809Y-6730371D01*
X2831333Y-6711324D01*
X2840857Y-6701800D01*
X2859905Y-6692276D01*
X3050381Y-6692276D02*
X3069428Y-6692276D01*
X3088476Y-6701800D01*
X3098000Y-6711324D01*
X3107524Y-6730371D01*
X3117048Y-6768467D01*
X3117048Y-6816086D01*
X3107524Y-6854181D01*
X3098000Y-6873228D01*
X3088476Y-6882752D01*
X3069428Y-6892276D01*
X3050381Y-6892276D01*
X3031333Y-6882752D01*
X3021809Y-6873228D01*
X3012286Y-6854181D01*
X3002762Y-6816086D01*
X3002762Y-6768467D01*
X3012286Y-6730371D01*
X3021809Y-6711324D01*
X3031333Y-6701800D01*
X3050381Y-6692276D01*
X3202762Y-6892276D02*
X3202762Y-6758943D01*
X3202762Y-6777990D02*
X3212286Y-6768467D01*
X3231333Y-6758943D01*
X3259905Y-6758943D01*
X3278952Y-6768467D01*
X3288476Y-6787514D01*
X3288476Y-6892276D01*
X3288476Y-6787514D02*
X3298000Y-6768467D01*
X3317048Y-6758943D01*
X3345619Y-6758943D01*
X3364667Y-6768467D01*
X3374190Y-6787514D01*
X3374190Y-6892276D01*
X3469428Y-6892276D02*
X3469428Y-6758943D01*
X3469428Y-6777990D02*
X3478952Y-6768467D01*
X3498000Y-6758943D01*
X3526571Y-6758943D01*
X3545619Y-6768467D01*
X3555143Y-6787514D01*
X3555143Y-6892276D01*
X3555143Y-6787514D02*
X3564667Y-6768467D01*
X3583714Y-6758943D01*
X3612286Y-6758943D01*
X3631333Y-6768467D01*
X3640857Y-6787514D01*
X3640857Y-6892276D01*
X4031333Y-6682752D02*
X3859905Y-6939895D01*
X4288476Y-6692276D02*
X4307524Y-6692276D01*
X4326571Y-6701800D01*
X4336095Y-6711324D01*
X4345619Y-6730371D01*
X4355143Y-6768467D01*
X4355143Y-6816086D01*
X4345619Y-6854181D01*
X4336095Y-6873228D01*
X4326571Y-6882752D01*
X4307524Y-6892276D01*
X4288476Y-6892276D01*
X4269429Y-6882752D01*
X4259905Y-6873228D01*
X4250381Y-6854181D01*
X4240857Y-6816086D01*
X4240857Y-6768467D01*
X4250381Y-6730371D01*
X4259905Y-6711324D01*
X4269429Y-6701800D01*
X4288476Y-6692276D01*
X4440857Y-6873228D02*
X4450381Y-6882752D01*
X4440857Y-6892276D01*
X4431333Y-6882752D01*
X4440857Y-6873228D01*
X4440857Y-6892276D01*
X4640857Y-6892276D02*
X4526571Y-6892276D01*
X4583714Y-6892276D02*
X4583714Y-6692276D01*
X4564667Y-6720848D01*
X4545619Y-6739895D01*
X4526571Y-6749419D01*
X4764667Y-6692276D02*
X4783714Y-6692276D01*
X4802762Y-6701800D01*
X4812286Y-6711324D01*
X4821810Y-6730371D01*
X4831333Y-6768467D01*
X4831333Y-6816086D01*
X4821810Y-6854181D01*
X4812286Y-6873228D01*
X4802762Y-6882752D01*
X4783714Y-6892276D01*
X4764667Y-6892276D01*
X4745619Y-6882752D01*
X4736095Y-6873228D01*
X4726571Y-6854181D01*
X4717048Y-6816086D01*
X4717048Y-6768467D01*
X4726571Y-6730371D01*
X4736095Y-6711324D01*
X4745619Y-6701800D01*
X4764667Y-6692276D01*
X5002762Y-6692276D02*
X4964667Y-6692276D01*
X4945619Y-6701800D01*
X4936095Y-6711324D01*
X4917048Y-6739895D01*
X4907524Y-6777990D01*
X4907524Y-6854181D01*
X4917048Y-6873228D01*
X4926571Y-6882752D01*
X4945619Y-6892276D01*
X4983714Y-6892276D01*
X5002762Y-6882752D01*
X5012286Y-6873228D01*
X5021810Y-6854181D01*
X5021810Y-6806562D01*
X5012286Y-6787514D01*
X5002762Y-6777990D01*
X4983714Y-6768467D01*
X4945619Y-6768467D01*
X4926571Y-6777990D01*
X4917048Y-6787514D01*
X4907524Y-6806562D01*
X5088476Y-6692276D02*
X5212286Y-6692276D01*
X5145619Y-6768467D01*
X5174190Y-6768467D01*
X5193238Y-6777990D01*
X5202762Y-6787514D01*
X5212286Y-6806562D01*
X5212286Y-6854181D01*
X5202762Y-6873228D01*
X5193238Y-6882752D01*
X5174190Y-6892276D01*
X5117048Y-6892276D01*
X5098000Y-6882752D01*
X5088476Y-6873228D01*
X5288476Y-6692276D02*
X5288476Y-6730371D01*
X5364667Y-6692276D02*
X5364667Y-6730371D01*
X5659905Y-6968467D02*
X5650381Y-6958943D01*
X5631333Y-6930371D01*
X5621809Y-6911324D01*
X5612286Y-6882752D01*
X5602762Y-6835133D01*
X5602762Y-6797038D01*
X5612286Y-6749419D01*
X5621809Y-6720848D01*
X5631333Y-6701800D01*
X5650381Y-6673228D01*
X5659905Y-6663705D01*
X5840857Y-6892276D02*
X5726571Y-6892276D01*
X5783714Y-6892276D02*
X5783714Y-6692276D01*
X5764667Y-6720848D01*
X5745619Y-6739895D01*
X5726571Y-6749419D01*
X6078952Y-6892276D02*
X6078952Y-6692276D01*
X6164667Y-6892276D02*
X6164667Y-6787514D01*
X6155143Y-6768467D01*
X6136095Y-6758943D01*
X6107524Y-6758943D01*
X6088476Y-6768467D01*
X6078952Y-6777990D01*
X6288476Y-6892276D02*
X6269428Y-6882752D01*
X6259905Y-6873228D01*
X6250381Y-6854181D01*
X6250381Y-6797038D01*
X6259905Y-6777990D01*
X6269428Y-6768467D01*
X6288476Y-6758943D01*
X6317048Y-6758943D01*
X6336095Y-6768467D01*
X6345619Y-6777990D01*
X6355143Y-6797038D01*
X6355143Y-6854181D01*
X6345619Y-6873228D01*
X6336095Y-6882752D01*
X6317048Y-6892276D01*
X6288476Y-6892276D01*
X6469428Y-6892276D02*
X6450381Y-6882752D01*
X6440857Y-6863705D01*
X6440857Y-6692276D01*
X6621809Y-6882752D02*
X6602762Y-6892276D01*
X6564667Y-6892276D01*
X6545619Y-6882752D01*
X6536095Y-6863705D01*
X6536095Y-6787514D01*
X6545619Y-6768467D01*
X6564667Y-6758943D01*
X6602762Y-6758943D01*
X6621809Y-6768467D01*
X6631333Y-6787514D01*
X6631333Y-6806562D01*
X6536095Y-6825609D01*
X6698000Y-6968467D02*
X6707524Y-6958943D01*
X6726571Y-6930371D01*
X6736095Y-6911324D01*
X6745619Y-6882752D01*
X6755143Y-6835133D01*
X6755143Y-6797038D01*
X6745619Y-6749419D01*
X6736095Y-6720848D01*
X6726571Y-6701800D01*
X6707524Y-6673228D01*
X6698000Y-6663705D01*
X7059905Y-6968467D02*
X7050381Y-6958943D01*
X7031333Y-6930371D01*
X7021809Y-6911324D01*
X7012286Y-6882752D01*
X7002762Y-6835133D01*
X7002762Y-6797038D01*
X7012286Y-6749419D01*
X7021809Y-6720848D01*
X7031333Y-6701800D01*
X7050381Y-6673228D01*
X7059905Y-6663705D01*
X7136095Y-6758943D02*
X7136095Y-6892276D01*
X7136095Y-6777990D02*
X7145619Y-6768467D01*
X7164667Y-6758943D01*
X7193238Y-6758943D01*
X7212286Y-6768467D01*
X7221809Y-6787514D01*
X7221809Y-6892276D01*
X7345619Y-6892276D02*
X7326571Y-6882752D01*
X7317048Y-6873228D01*
X7307524Y-6854181D01*
X7307524Y-6797038D01*
X7317048Y-6777990D01*
X7326571Y-6768467D01*
X7345619Y-6758943D01*
X7374190Y-6758943D01*
X7393238Y-6768467D01*
X7402762Y-6777990D01*
X7412286Y-6797038D01*
X7412286Y-6854181D01*
X7402762Y-6873228D01*
X7393238Y-6882752D01*
X7374190Y-6892276D01*
X7345619Y-6892276D01*
X7469428Y-6758943D02*
X7545619Y-6758943D01*
X7498000Y-6692276D02*
X7498000Y-6863705D01*
X7507524Y-6882752D01*
X7526571Y-6892276D01*
X7545619Y-6892276D01*
X7764667Y-6758943D02*
X7764667Y-6958943D01*
X7764667Y-6768467D02*
X7783714Y-6758943D01*
X7821809Y-6758943D01*
X7840857Y-6768467D01*
X7850381Y-6777990D01*
X7859905Y-6797038D01*
X7859905Y-6854181D01*
X7850381Y-6873228D01*
X7840857Y-6882752D01*
X7821809Y-6892276D01*
X7783714Y-6892276D01*
X7764667Y-6882752D01*
X7974190Y-6892276D02*
X7955143Y-6882752D01*
X7945619Y-6863705D01*
X7945619Y-6692276D01*
X8136095Y-6892276D02*
X8136095Y-6787514D01*
X8126571Y-6768467D01*
X8107524Y-6758943D01*
X8069428Y-6758943D01*
X8050381Y-6768467D01*
X8136095Y-6882752D02*
X8117048Y-6892276D01*
X8069428Y-6892276D01*
X8050381Y-6882752D01*
X8040857Y-6863705D01*
X8040857Y-6844657D01*
X8050381Y-6825609D01*
X8069428Y-6816086D01*
X8117048Y-6816086D01*
X8136095Y-6806562D01*
X8202762Y-6758943D02*
X8278952Y-6758943D01*
X8231333Y-6692276D02*
X8231333Y-6863705D01*
X8240857Y-6882752D01*
X8259905Y-6892276D01*
X8278952Y-6892276D01*
X8421810Y-6882752D02*
X8402762Y-6892276D01*
X8364667Y-6892276D01*
X8345619Y-6882752D01*
X8336095Y-6863705D01*
X8336095Y-6787514D01*
X8345619Y-6768467D01*
X8364667Y-6758943D01*
X8402762Y-6758943D01*
X8421810Y-6768467D01*
X8431333Y-6787514D01*
X8431333Y-6806562D01*
X8336095Y-6825609D01*
X8602762Y-6892276D02*
X8602762Y-6692276D01*
X8602762Y-6882752D02*
X8583714Y-6892276D01*
X8545619Y-6892276D01*
X8526571Y-6882752D01*
X8517048Y-6873228D01*
X8507524Y-6854181D01*
X8507524Y-6797038D01*
X8517048Y-6777990D01*
X8526571Y-6768467D01*
X8545619Y-6758943D01*
X8583714Y-6758943D01*
X8602762Y-6768467D01*
X8678952Y-6968467D02*
X8688476Y-6958943D01*
X8707524Y-6930371D01*
X8717048Y-6911324D01*
X8726571Y-6882752D01*
X8736095Y-6835133D01*
X8736095Y-6797038D01*
X8726571Y-6749419D01*
X8717048Y-6720848D01*
X8707524Y-6701800D01*
X8688476Y-6673228D01*
X8678952Y-6663705D01*
X1988000Y-7021800D02*
X1988000Y-7221800D01*
X1888000Y-7121800D02*
X2088000Y-7121800D01*
X2326571Y-7012276D02*
X2450381Y-7012276D01*
X2383714Y-7088467D01*
X2412286Y-7088467D01*
X2431333Y-7097990D01*
X2440857Y-7107514D01*
X2450381Y-7126562D01*
X2450381Y-7174181D01*
X2440857Y-7193228D01*
X2431333Y-7202752D01*
X2412286Y-7212276D01*
X2355143Y-7212276D01*
X2336095Y-7202752D01*
X2326571Y-7193228D01*
X2536095Y-7193228D02*
X2545619Y-7202752D01*
X2536095Y-7212276D01*
X2526571Y-7202752D01*
X2536095Y-7193228D01*
X2536095Y-7212276D01*
X2621810Y-7031324D02*
X2631333Y-7021800D01*
X2650381Y-7012276D01*
X2698000Y-7012276D01*
X2717048Y-7021800D01*
X2726571Y-7031324D01*
X2736095Y-7050371D01*
X2736095Y-7069419D01*
X2726571Y-7097990D01*
X2612286Y-7212276D01*
X2736095Y-7212276D01*
X2859905Y-7012276D02*
X2878952Y-7012276D01*
X2898000Y-7021800D01*
X2907524Y-7031324D01*
X2917048Y-7050371D01*
X2926571Y-7088467D01*
X2926571Y-7136086D01*
X2917048Y-7174181D01*
X2907524Y-7193228D01*
X2898000Y-7202752D01*
X2878952Y-7212276D01*
X2859905Y-7212276D01*
X2840857Y-7202752D01*
X2831333Y-7193228D01*
X2821809Y-7174181D01*
X2812286Y-7136086D01*
X2812286Y-7088467D01*
X2821809Y-7050371D01*
X2831333Y-7031324D01*
X2840857Y-7021800D01*
X2859905Y-7012276D01*
X3050381Y-7012276D02*
X3069428Y-7012276D01*
X3088476Y-7021800D01*
X3098000Y-7031324D01*
X3107524Y-7050371D01*
X3117048Y-7088467D01*
X3117048Y-7136086D01*
X3107524Y-7174181D01*
X3098000Y-7193228D01*
X3088476Y-7202752D01*
X3069428Y-7212276D01*
X3050381Y-7212276D01*
X3031333Y-7202752D01*
X3021809Y-7193228D01*
X3012286Y-7174181D01*
X3002762Y-7136086D01*
X3002762Y-7088467D01*
X3012286Y-7050371D01*
X3021809Y-7031324D01*
X3031333Y-7021800D01*
X3050381Y-7012276D01*
X3202762Y-7212276D02*
X3202762Y-7078943D01*
X3202762Y-7097990D02*
X3212286Y-7088467D01*
X3231333Y-7078943D01*
X3259905Y-7078943D01*
X3278952Y-7088467D01*
X3288476Y-7107514D01*
X3288476Y-7212276D01*
X3288476Y-7107514D02*
X3298000Y-7088467D01*
X3317048Y-7078943D01*
X3345619Y-7078943D01*
X3364667Y-7088467D01*
X3374190Y-7107514D01*
X3374190Y-7212276D01*
X3469428Y-7212276D02*
X3469428Y-7078943D01*
X3469428Y-7097990D02*
X3478952Y-7088467D01*
X3498000Y-7078943D01*
X3526571Y-7078943D01*
X3545619Y-7088467D01*
X3555143Y-7107514D01*
X3555143Y-7212276D01*
X3555143Y-7107514D02*
X3564667Y-7088467D01*
X3583714Y-7078943D01*
X3612286Y-7078943D01*
X3631333Y-7088467D01*
X3640857Y-7107514D01*
X3640857Y-7212276D01*
X4031333Y-7002752D02*
X3859905Y-7259895D01*
X4288476Y-7012276D02*
X4307524Y-7012276D01*
X4326571Y-7021800D01*
X4336095Y-7031324D01*
X4345619Y-7050371D01*
X4355143Y-7088467D01*
X4355143Y-7136086D01*
X4345619Y-7174181D01*
X4336095Y-7193228D01*
X4326571Y-7202752D01*
X4307524Y-7212276D01*
X4288476Y-7212276D01*
X4269429Y-7202752D01*
X4259905Y-7193228D01*
X4250381Y-7174181D01*
X4240857Y-7136086D01*
X4240857Y-7088467D01*
X4250381Y-7050371D01*
X4259905Y-7031324D01*
X4269429Y-7021800D01*
X4288476Y-7012276D01*
X4440857Y-7193228D02*
X4450381Y-7202752D01*
X4440857Y-7212276D01*
X4431333Y-7202752D01*
X4440857Y-7193228D01*
X4440857Y-7212276D01*
X4640857Y-7212276D02*
X4526571Y-7212276D01*
X4583714Y-7212276D02*
X4583714Y-7012276D01*
X4564667Y-7040848D01*
X4545619Y-7059895D01*
X4526571Y-7069419D01*
X4717048Y-7031324D02*
X4726571Y-7021800D01*
X4745619Y-7012276D01*
X4793238Y-7012276D01*
X4812286Y-7021800D01*
X4821810Y-7031324D01*
X4831333Y-7050371D01*
X4831333Y-7069419D01*
X4821810Y-7097990D01*
X4707524Y-7212276D01*
X4831333Y-7212276D01*
X5002762Y-7012276D02*
X4964667Y-7012276D01*
X4945619Y-7021800D01*
X4936095Y-7031324D01*
X4917048Y-7059895D01*
X4907524Y-7097990D01*
X4907524Y-7174181D01*
X4917048Y-7193228D01*
X4926571Y-7202752D01*
X4945619Y-7212276D01*
X4983714Y-7212276D01*
X5002762Y-7202752D01*
X5012286Y-7193228D01*
X5021810Y-7174181D01*
X5021810Y-7126562D01*
X5012286Y-7107514D01*
X5002762Y-7097990D01*
X4983714Y-7088467D01*
X4945619Y-7088467D01*
X4926571Y-7097990D01*
X4917048Y-7107514D01*
X4907524Y-7126562D01*
X5145619Y-7012276D02*
X5164667Y-7012276D01*
X5183714Y-7021800D01*
X5193238Y-7031324D01*
X5202762Y-7050371D01*
X5212286Y-7088467D01*
X5212286Y-7136086D01*
X5202762Y-7174181D01*
X5193238Y-7193228D01*
X5183714Y-7202752D01*
X5164667Y-7212276D01*
X5145619Y-7212276D01*
X5126571Y-7202752D01*
X5117048Y-7193228D01*
X5107524Y-7174181D01*
X5098000Y-7136086D01*
X5098000Y-7088467D01*
X5107524Y-7050371D01*
X5117048Y-7031324D01*
X5126571Y-7021800D01*
X5145619Y-7012276D01*
X5288476Y-7012276D02*
X5288476Y-7050371D01*
X5364667Y-7012276D02*
X5364667Y-7050371D01*
X5659905Y-7288467D02*
X5650381Y-7278943D01*
X5631333Y-7250371D01*
X5621809Y-7231324D01*
X5612286Y-7202752D01*
X5602762Y-7155133D01*
X5602762Y-7117038D01*
X5612286Y-7069419D01*
X5621809Y-7040848D01*
X5631333Y-7021800D01*
X5650381Y-6993228D01*
X5659905Y-6983705D01*
X5726571Y-7031324D02*
X5736095Y-7021800D01*
X5755143Y-7012276D01*
X5802762Y-7012276D01*
X5821809Y-7021800D01*
X5831333Y-7031324D01*
X5840857Y-7050371D01*
X5840857Y-7069419D01*
X5831333Y-7097990D01*
X5717048Y-7212276D01*
X5840857Y-7212276D01*
X6078952Y-7212276D02*
X6078952Y-7012276D01*
X6164667Y-7212276D02*
X6164667Y-7107514D01*
X6155143Y-7088467D01*
X6136095Y-7078943D01*
X6107524Y-7078943D01*
X6088476Y-7088467D01*
X6078952Y-7097990D01*
X6288476Y-7212276D02*
X6269428Y-7202752D01*
X6259905Y-7193228D01*
X6250381Y-7174181D01*
X6250381Y-7117038D01*
X6259905Y-7097990D01*
X6269428Y-7088467D01*
X6288476Y-7078943D01*
X6317048Y-7078943D01*
X6336095Y-7088467D01*
X6345619Y-7097990D01*
X6355143Y-7117038D01*
X6355143Y-7174181D01*
X6345619Y-7193228D01*
X6336095Y-7202752D01*
X6317048Y-7212276D01*
X6288476Y-7212276D01*
X6469428Y-7212276D02*
X6450381Y-7202752D01*
X6440857Y-7183705D01*
X6440857Y-7012276D01*
X6621809Y-7202752D02*
X6602762Y-7212276D01*
X6564667Y-7212276D01*
X6545619Y-7202752D01*
X6536095Y-7183705D01*
X6536095Y-7107514D01*
X6545619Y-7088467D01*
X6564667Y-7078943D01*
X6602762Y-7078943D01*
X6621809Y-7088467D01*
X6631333Y-7107514D01*
X6631333Y-7126562D01*
X6536095Y-7145609D01*
X6707524Y-7202752D02*
X6726571Y-7212276D01*
X6764667Y-7212276D01*
X6783714Y-7202752D01*
X6793238Y-7183705D01*
X6793238Y-7174181D01*
X6783714Y-7155133D01*
X6764667Y-7145609D01*
X6736095Y-7145609D01*
X6717048Y-7136086D01*
X6707524Y-7117038D01*
X6707524Y-7107514D01*
X6717048Y-7088467D01*
X6736095Y-7078943D01*
X6764667Y-7078943D01*
X6783714Y-7088467D01*
X6859905Y-7288467D02*
X6869428Y-7278943D01*
X6888476Y-7250371D01*
X6898000Y-7231324D01*
X6907524Y-7202752D01*
X6917048Y-7155133D01*
X6917048Y-7117038D01*
X6907524Y-7069419D01*
X6898000Y-7040848D01*
X6888476Y-7021800D01*
X6869428Y-6993228D01*
X6859905Y-6983705D01*
X7221809Y-7288467D02*
X7212286Y-7278943D01*
X7193238Y-7250371D01*
X7183714Y-7231324D01*
X7174190Y-7202752D01*
X7164667Y-7155133D01*
X7164667Y-7117038D01*
X7174190Y-7069419D01*
X7183714Y-7040848D01*
X7193238Y-7021800D01*
X7212286Y-6993228D01*
X7221809Y-6983705D01*
X7298000Y-7078943D02*
X7298000Y-7212276D01*
X7298000Y-7097990D02*
X7307524Y-7088467D01*
X7326571Y-7078943D01*
X7355143Y-7078943D01*
X7374190Y-7088467D01*
X7383714Y-7107514D01*
X7383714Y-7212276D01*
X7507524Y-7212276D02*
X7488476Y-7202752D01*
X7478952Y-7193228D01*
X7469428Y-7174181D01*
X7469428Y-7117038D01*
X7478952Y-7097990D01*
X7488476Y-7088467D01*
X7507524Y-7078943D01*
X7536095Y-7078943D01*
X7555143Y-7088467D01*
X7564667Y-7097990D01*
X7574190Y-7117038D01*
X7574190Y-7174181D01*
X7564667Y-7193228D01*
X7555143Y-7202752D01*
X7536095Y-7212276D01*
X7507524Y-7212276D01*
X7631333Y-7078943D02*
X7707524Y-7078943D01*
X7659905Y-7012276D02*
X7659905Y-7183705D01*
X7669428Y-7202752D01*
X7688476Y-7212276D01*
X7707524Y-7212276D01*
X7926571Y-7078943D02*
X7926571Y-7278943D01*
X7926571Y-7088467D02*
X7945619Y-7078943D01*
X7983714Y-7078943D01*
X8002762Y-7088467D01*
X8012286Y-7097990D01*
X8021809Y-7117038D01*
X8021809Y-7174181D01*
X8012286Y-7193228D01*
X8002762Y-7202752D01*
X7983714Y-7212276D01*
X7945619Y-7212276D01*
X7926571Y-7202752D01*
X8136095Y-7212276D02*
X8117048Y-7202752D01*
X8107524Y-7183705D01*
X8107524Y-7012276D01*
X8298000Y-7212276D02*
X8298000Y-7107514D01*
X8288476Y-7088467D01*
X8269428Y-7078943D01*
X8231333Y-7078943D01*
X8212286Y-7088467D01*
X8298000Y-7202752D02*
X8278952Y-7212276D01*
X8231333Y-7212276D01*
X8212286Y-7202752D01*
X8202762Y-7183705D01*
X8202762Y-7164657D01*
X8212286Y-7145609D01*
X8231333Y-7136086D01*
X8278952Y-7136086D01*
X8298000Y-7126562D01*
X8364667Y-7078943D02*
X8440857Y-7078943D01*
X8393238Y-7012276D02*
X8393238Y-7183705D01*
X8402762Y-7202752D01*
X8421810Y-7212276D01*
X8440857Y-7212276D01*
X8583714Y-7202752D02*
X8564667Y-7212276D01*
X8526571Y-7212276D01*
X8507524Y-7202752D01*
X8498000Y-7183705D01*
X8498000Y-7107514D01*
X8507524Y-7088467D01*
X8526571Y-7078943D01*
X8564667Y-7078943D01*
X8583714Y-7088467D01*
X8593238Y-7107514D01*
X8593238Y-7126562D01*
X8498000Y-7145609D01*
X8764667Y-7212276D02*
X8764667Y-7012276D01*
X8764667Y-7202752D02*
X8745619Y-7212276D01*
X8707524Y-7212276D01*
X8688476Y-7202752D01*
X8678952Y-7193228D01*
X8669429Y-7174181D01*
X8669429Y-7117038D01*
X8678952Y-7097990D01*
X8688476Y-7088467D01*
X8707524Y-7078943D01*
X8745619Y-7078943D01*
X8764667Y-7088467D01*
X8840857Y-7288467D02*
X8850381Y-7278943D01*
X8869429Y-7250371D01*
X8878952Y-7231324D01*
X8888476Y-7202752D01*
X8898000Y-7155133D01*
X8898000Y-7117038D01*
X8888476Y-7069419D01*
X8878952Y-7040848D01*
X8869429Y-7021800D01*
X8850381Y-6993228D01*
X8840857Y-6983705D01*
M02*
