%FSLAX45Y45*%
G04 Gerber Fmt 4.5, Leading zero omitted, Abs format (unit mm)*
G04 Created by KiCad (PCBNEW (6.0.0-0)) date 2023-04-18 12:25:15*
%MOMM*%
%LPD*%
G01*
G04 APERTURE LIST*
%TA.AperFunction,Profile*%
%ADD10C,0.100000*%
%TD*%
%ADD11C,0.200000*%
%ADD12C,0.076000*%
%ADD13C,0.100000*%
G04 APERTURE END LIST*
D10*
X2372400Y-5892800D02*
X2093000Y-5613400D01*
X4899700Y-5892800D02*
X5179100Y-5613400D01*
X2372400Y-2451100D02*
X2093000Y-2730500D01*
X5179100Y-2730500D02*
X5179100Y-5613400D01*
X4899700Y-2451100D02*
X2372400Y-2451100D01*
X2093000Y-5613400D02*
X2093000Y-2730500D01*
X4899700Y-2451100D02*
X5179100Y-2730500D01*
X4899700Y-5892800D02*
X2372400Y-5892800D01*
D11*
D12*
X3456500Y-4216500D02*
X3532500Y-4292500D01*
X3532500Y-4216500D02*
X3456500Y-4292500D01*
X3456500Y-4470500D02*
X3532500Y-4546500D01*
X3532500Y-4470500D02*
X3456500Y-4546500D01*
X3456500Y-4724500D02*
X3532500Y-4800500D01*
X3532500Y-4724500D02*
X3456500Y-4800500D01*
X3456500Y-4978500D02*
X3532500Y-5054500D01*
X3532500Y-4978500D02*
X3456500Y-5054500D01*
X3710500Y-4089500D02*
X3786500Y-4165500D01*
X3786500Y-4089500D02*
X3710500Y-4165500D01*
X3710500Y-4343500D02*
X3786500Y-4419500D01*
X3786500Y-4343500D02*
X3710500Y-4419500D01*
X3710500Y-4597500D02*
X3786500Y-4673500D01*
X3786500Y-4597500D02*
X3710500Y-4673500D01*
X3710500Y-4851500D02*
X3786500Y-4927500D01*
X3786500Y-4851500D02*
X3710500Y-4927500D01*
D13*
X4794800Y-3680000D02*
G75*
G03*
X4794800Y-3680000I-50000J0D01*
G01*
X4794800Y-3934000D02*
G75*
G03*
X4794800Y-3934000I-50000J0D01*
G01*
X4794800Y-4188000D02*
G75*
G03*
X4794800Y-4188000I-50000J0D01*
G01*
X4794800Y-4442000D02*
G75*
G03*
X4794800Y-4442000I-50000J0D01*
G01*
X4794800Y-4696000D02*
G75*
G03*
X4794800Y-4696000I-50000J0D01*
G01*
X4794800Y-4950000D02*
G75*
G03*
X4794800Y-4950000I-50000J0D01*
G01*
X4794800Y-5204000D02*
G75*
G03*
X4794800Y-5204000I-50000J0D01*
G01*
X4794800Y-5458000D02*
G75*
G03*
X4794800Y-5458000I-50000J0D01*
G01*
X4797300Y-2878500D02*
G75*
G03*
X4797300Y-2878500I-50000J0D01*
G01*
X4797300Y-3132500D02*
G75*
G03*
X4797300Y-3132500I-50000J0D01*
G01*
D11*
X2345619Y-6208276D02*
X2345619Y-6008276D01*
X2393238Y-6008276D01*
X2421810Y-6017800D01*
X2440857Y-6036848D01*
X2450381Y-6055895D01*
X2459905Y-6093990D01*
X2459905Y-6122562D01*
X2450381Y-6160657D01*
X2440857Y-6179705D01*
X2421810Y-6198752D01*
X2393238Y-6208276D01*
X2345619Y-6208276D01*
X2545619Y-6208276D02*
X2545619Y-6074943D01*
X2545619Y-6113038D02*
X2555143Y-6093990D01*
X2564667Y-6084467D01*
X2583714Y-6074943D01*
X2602762Y-6074943D01*
X2669429Y-6208276D02*
X2669429Y-6074943D01*
X2669429Y-6008276D02*
X2659905Y-6017800D01*
X2669429Y-6027324D01*
X2678952Y-6017800D01*
X2669429Y-6008276D01*
X2669429Y-6027324D01*
X2793238Y-6208276D02*
X2774190Y-6198752D01*
X2764667Y-6179705D01*
X2764667Y-6008276D01*
X2898000Y-6208276D02*
X2878952Y-6198752D01*
X2869428Y-6179705D01*
X2869428Y-6008276D01*
X3126571Y-6208276D02*
X3126571Y-6008276D01*
X3193238Y-6151133D01*
X3259905Y-6008276D01*
X3259905Y-6208276D01*
X3440857Y-6208276D02*
X3440857Y-6103514D01*
X3431333Y-6084467D01*
X3412286Y-6074943D01*
X3374190Y-6074943D01*
X3355143Y-6084467D01*
X3440857Y-6198752D02*
X3421809Y-6208276D01*
X3374190Y-6208276D01*
X3355143Y-6198752D01*
X3345619Y-6179705D01*
X3345619Y-6160657D01*
X3355143Y-6141609D01*
X3374190Y-6132086D01*
X3421809Y-6132086D01*
X3440857Y-6122562D01*
X3536095Y-6074943D02*
X3536095Y-6274943D01*
X3536095Y-6084467D02*
X3555143Y-6074943D01*
X3593238Y-6074943D01*
X3612286Y-6084467D01*
X3621809Y-6093990D01*
X3631333Y-6113038D01*
X3631333Y-6170181D01*
X3621809Y-6189228D01*
X3612286Y-6198752D01*
X3593238Y-6208276D01*
X3555143Y-6208276D01*
X3536095Y-6198752D01*
X3717048Y-6189228D02*
X3726571Y-6198752D01*
X3717048Y-6208276D01*
X3707524Y-6198752D01*
X3717048Y-6189228D01*
X3717048Y-6208276D01*
X3717048Y-6084467D02*
X3726571Y-6093990D01*
X3717048Y-6103514D01*
X3707524Y-6093990D01*
X3717048Y-6084467D01*
X3717048Y-6103514D01*
D12*
X2012000Y-6499800D02*
X2088000Y-6575800D01*
X2088000Y-6499800D02*
X2012000Y-6575800D01*
D11*
X2383714Y-6428276D02*
X2402762Y-6428276D01*
X2421810Y-6437800D01*
X2431333Y-6447324D01*
X2440857Y-6466371D01*
X2450381Y-6504467D01*
X2450381Y-6552086D01*
X2440857Y-6590181D01*
X2431333Y-6609228D01*
X2421810Y-6618752D01*
X2402762Y-6628276D01*
X2383714Y-6628276D01*
X2364667Y-6618752D01*
X2355143Y-6609228D01*
X2345619Y-6590181D01*
X2336095Y-6552086D01*
X2336095Y-6504467D01*
X2345619Y-6466371D01*
X2355143Y-6447324D01*
X2364667Y-6437800D01*
X2383714Y-6428276D01*
X2536095Y-6609228D02*
X2545619Y-6618752D01*
X2536095Y-6628276D01*
X2526571Y-6618752D01*
X2536095Y-6609228D01*
X2536095Y-6628276D01*
X2612286Y-6428276D02*
X2745619Y-6428276D01*
X2659905Y-6628276D01*
X2907524Y-6428276D02*
X2869428Y-6428276D01*
X2850381Y-6437800D01*
X2840857Y-6447324D01*
X2821809Y-6475895D01*
X2812286Y-6513990D01*
X2812286Y-6590181D01*
X2821809Y-6609228D01*
X2831333Y-6618752D01*
X2850381Y-6628276D01*
X2888476Y-6628276D01*
X2907524Y-6618752D01*
X2917048Y-6609228D01*
X2926571Y-6590181D01*
X2926571Y-6542562D01*
X2917048Y-6523514D01*
X2907524Y-6513990D01*
X2888476Y-6504467D01*
X2850381Y-6504467D01*
X2831333Y-6513990D01*
X2821809Y-6523514D01*
X2812286Y-6542562D01*
X3050381Y-6428276D02*
X3069428Y-6428276D01*
X3088476Y-6437800D01*
X3098000Y-6447324D01*
X3107524Y-6466371D01*
X3117048Y-6504467D01*
X3117048Y-6552086D01*
X3107524Y-6590181D01*
X3098000Y-6609228D01*
X3088476Y-6618752D01*
X3069428Y-6628276D01*
X3050381Y-6628276D01*
X3031333Y-6618752D01*
X3021809Y-6609228D01*
X3012286Y-6590181D01*
X3002762Y-6552086D01*
X3002762Y-6504467D01*
X3012286Y-6466371D01*
X3021809Y-6447324D01*
X3031333Y-6437800D01*
X3050381Y-6428276D01*
X3202762Y-6628276D02*
X3202762Y-6494943D01*
X3202762Y-6513990D02*
X3212286Y-6504467D01*
X3231333Y-6494943D01*
X3259905Y-6494943D01*
X3278952Y-6504467D01*
X3288476Y-6523514D01*
X3288476Y-6628276D01*
X3288476Y-6523514D02*
X3298000Y-6504467D01*
X3317048Y-6494943D01*
X3345619Y-6494943D01*
X3364667Y-6504467D01*
X3374190Y-6523514D01*
X3374190Y-6628276D01*
X3469428Y-6628276D02*
X3469428Y-6494943D01*
X3469428Y-6513990D02*
X3478952Y-6504467D01*
X3498000Y-6494943D01*
X3526571Y-6494943D01*
X3545619Y-6504467D01*
X3555143Y-6523514D01*
X3555143Y-6628276D01*
X3555143Y-6523514D02*
X3564667Y-6504467D01*
X3583714Y-6494943D01*
X3612286Y-6494943D01*
X3631333Y-6504467D01*
X3640857Y-6523514D01*
X3640857Y-6628276D01*
X4031333Y-6418752D02*
X3859905Y-6675895D01*
X4288476Y-6428276D02*
X4307524Y-6428276D01*
X4326571Y-6437800D01*
X4336095Y-6447324D01*
X4345619Y-6466371D01*
X4355143Y-6504467D01*
X4355143Y-6552086D01*
X4345619Y-6590181D01*
X4336095Y-6609228D01*
X4326571Y-6618752D01*
X4307524Y-6628276D01*
X4288476Y-6628276D01*
X4269429Y-6618752D01*
X4259905Y-6609228D01*
X4250381Y-6590181D01*
X4240857Y-6552086D01*
X4240857Y-6504467D01*
X4250381Y-6466371D01*
X4259905Y-6447324D01*
X4269429Y-6437800D01*
X4288476Y-6428276D01*
X4440857Y-6609228D02*
X4450381Y-6618752D01*
X4440857Y-6628276D01*
X4431333Y-6618752D01*
X4440857Y-6609228D01*
X4440857Y-6628276D01*
X4574190Y-6428276D02*
X4593238Y-6428276D01*
X4612286Y-6437800D01*
X4621810Y-6447324D01*
X4631333Y-6466371D01*
X4640857Y-6504467D01*
X4640857Y-6552086D01*
X4631333Y-6590181D01*
X4621810Y-6609228D01*
X4612286Y-6618752D01*
X4593238Y-6628276D01*
X4574190Y-6628276D01*
X4555143Y-6618752D01*
X4545619Y-6609228D01*
X4536095Y-6590181D01*
X4526571Y-6552086D01*
X4526571Y-6504467D01*
X4536095Y-6466371D01*
X4545619Y-6447324D01*
X4555143Y-6437800D01*
X4574190Y-6428276D01*
X4717048Y-6447324D02*
X4726571Y-6437800D01*
X4745619Y-6428276D01*
X4793238Y-6428276D01*
X4812286Y-6437800D01*
X4821810Y-6447324D01*
X4831333Y-6466371D01*
X4831333Y-6485419D01*
X4821810Y-6513990D01*
X4707524Y-6628276D01*
X4831333Y-6628276D01*
X4926571Y-6628276D02*
X4964667Y-6628276D01*
X4983714Y-6618752D01*
X4993238Y-6609228D01*
X5012286Y-6580657D01*
X5021810Y-6542562D01*
X5021810Y-6466371D01*
X5012286Y-6447324D01*
X5002762Y-6437800D01*
X4983714Y-6428276D01*
X4945619Y-6428276D01*
X4926571Y-6437800D01*
X4917048Y-6447324D01*
X4907524Y-6466371D01*
X4907524Y-6513990D01*
X4917048Y-6533038D01*
X4926571Y-6542562D01*
X4945619Y-6552086D01*
X4983714Y-6552086D01*
X5002762Y-6542562D01*
X5012286Y-6533038D01*
X5021810Y-6513990D01*
X5117048Y-6628276D02*
X5155143Y-6628276D01*
X5174190Y-6618752D01*
X5183714Y-6609228D01*
X5202762Y-6580657D01*
X5212286Y-6542562D01*
X5212286Y-6466371D01*
X5202762Y-6447324D01*
X5193238Y-6437800D01*
X5174190Y-6428276D01*
X5136095Y-6428276D01*
X5117048Y-6437800D01*
X5107524Y-6447324D01*
X5098000Y-6466371D01*
X5098000Y-6513990D01*
X5107524Y-6533038D01*
X5117048Y-6542562D01*
X5136095Y-6552086D01*
X5174190Y-6552086D01*
X5193238Y-6542562D01*
X5202762Y-6533038D01*
X5212286Y-6513990D01*
X5288476Y-6428276D02*
X5288476Y-6466371D01*
X5364667Y-6428276D02*
X5364667Y-6466371D01*
X5659905Y-6704467D02*
X5650381Y-6694943D01*
X5631333Y-6666371D01*
X5621809Y-6647324D01*
X5612286Y-6618752D01*
X5602762Y-6571133D01*
X5602762Y-6533038D01*
X5612286Y-6485419D01*
X5621809Y-6456848D01*
X5631333Y-6437800D01*
X5650381Y-6409228D01*
X5659905Y-6399705D01*
X5764667Y-6513990D02*
X5745619Y-6504467D01*
X5736095Y-6494943D01*
X5726571Y-6475895D01*
X5726571Y-6466371D01*
X5736095Y-6447324D01*
X5745619Y-6437800D01*
X5764667Y-6428276D01*
X5802762Y-6428276D01*
X5821809Y-6437800D01*
X5831333Y-6447324D01*
X5840857Y-6466371D01*
X5840857Y-6475895D01*
X5831333Y-6494943D01*
X5821809Y-6504467D01*
X5802762Y-6513990D01*
X5764667Y-6513990D01*
X5745619Y-6523514D01*
X5736095Y-6533038D01*
X5726571Y-6552086D01*
X5726571Y-6590181D01*
X5736095Y-6609228D01*
X5745619Y-6618752D01*
X5764667Y-6628276D01*
X5802762Y-6628276D01*
X5821809Y-6618752D01*
X5831333Y-6609228D01*
X5840857Y-6590181D01*
X5840857Y-6552086D01*
X5831333Y-6533038D01*
X5821809Y-6523514D01*
X5802762Y-6513990D01*
X6078952Y-6628276D02*
X6078952Y-6428276D01*
X6164667Y-6628276D02*
X6164667Y-6523514D01*
X6155143Y-6504467D01*
X6136095Y-6494943D01*
X6107524Y-6494943D01*
X6088476Y-6504467D01*
X6078952Y-6513990D01*
X6288476Y-6628276D02*
X6269428Y-6618752D01*
X6259905Y-6609228D01*
X6250381Y-6590181D01*
X6250381Y-6533038D01*
X6259905Y-6513990D01*
X6269428Y-6504467D01*
X6288476Y-6494943D01*
X6317048Y-6494943D01*
X6336095Y-6504467D01*
X6345619Y-6513990D01*
X6355143Y-6533038D01*
X6355143Y-6590181D01*
X6345619Y-6609228D01*
X6336095Y-6618752D01*
X6317048Y-6628276D01*
X6288476Y-6628276D01*
X6469428Y-6628276D02*
X6450381Y-6618752D01*
X6440857Y-6599705D01*
X6440857Y-6428276D01*
X6621809Y-6618752D02*
X6602762Y-6628276D01*
X6564667Y-6628276D01*
X6545619Y-6618752D01*
X6536095Y-6599705D01*
X6536095Y-6523514D01*
X6545619Y-6504467D01*
X6564667Y-6494943D01*
X6602762Y-6494943D01*
X6621809Y-6504467D01*
X6631333Y-6523514D01*
X6631333Y-6542562D01*
X6536095Y-6561609D01*
X6707524Y-6618752D02*
X6726571Y-6628276D01*
X6764667Y-6628276D01*
X6783714Y-6618752D01*
X6793238Y-6599705D01*
X6793238Y-6590181D01*
X6783714Y-6571133D01*
X6764667Y-6561609D01*
X6736095Y-6561609D01*
X6717048Y-6552086D01*
X6707524Y-6533038D01*
X6707524Y-6523514D01*
X6717048Y-6504467D01*
X6736095Y-6494943D01*
X6764667Y-6494943D01*
X6783714Y-6504467D01*
X6859905Y-6704467D02*
X6869428Y-6694943D01*
X6888476Y-6666371D01*
X6898000Y-6647324D01*
X6907524Y-6618752D01*
X6917048Y-6571133D01*
X6917048Y-6533038D01*
X6907524Y-6485419D01*
X6898000Y-6456848D01*
X6888476Y-6437800D01*
X6869428Y-6409228D01*
X6859905Y-6399705D01*
D13*
X2088000Y-6801800D02*
G75*
G03*
X2088000Y-6801800I-50000J0D01*
G01*
D11*
X2450381Y-6892276D02*
X2336095Y-6892276D01*
X2393238Y-6892276D02*
X2393238Y-6692276D01*
X2374190Y-6720848D01*
X2355143Y-6739895D01*
X2336095Y-6749419D01*
X2536095Y-6873228D02*
X2545619Y-6882752D01*
X2536095Y-6892276D01*
X2526571Y-6882752D01*
X2536095Y-6873228D01*
X2536095Y-6892276D01*
X2669429Y-6692276D02*
X2688476Y-6692276D01*
X2707524Y-6701800D01*
X2717048Y-6711324D01*
X2726571Y-6730371D01*
X2736095Y-6768467D01*
X2736095Y-6816086D01*
X2726571Y-6854181D01*
X2717048Y-6873228D01*
X2707524Y-6882752D01*
X2688476Y-6892276D01*
X2669429Y-6892276D01*
X2650381Y-6882752D01*
X2640857Y-6873228D01*
X2631333Y-6854181D01*
X2621810Y-6816086D01*
X2621810Y-6768467D01*
X2631333Y-6730371D01*
X2640857Y-6711324D01*
X2650381Y-6701800D01*
X2669429Y-6692276D01*
X2859905Y-6692276D02*
X2878952Y-6692276D01*
X2898000Y-6701800D01*
X2907524Y-6711324D01*
X2917048Y-6730371D01*
X2926571Y-6768467D01*
X2926571Y-6816086D01*
X2917048Y-6854181D01*
X2907524Y-6873228D01*
X2898000Y-6882752D01*
X2878952Y-6892276D01*
X2859905Y-6892276D01*
X2840857Y-6882752D01*
X2831333Y-6873228D01*
X2821809Y-6854181D01*
X2812286Y-6816086D01*
X2812286Y-6768467D01*
X2821809Y-6730371D01*
X2831333Y-6711324D01*
X2840857Y-6701800D01*
X2859905Y-6692276D01*
X3050381Y-6692276D02*
X3069428Y-6692276D01*
X3088476Y-6701800D01*
X3098000Y-6711324D01*
X3107524Y-6730371D01*
X3117048Y-6768467D01*
X3117048Y-6816086D01*
X3107524Y-6854181D01*
X3098000Y-6873228D01*
X3088476Y-6882752D01*
X3069428Y-6892276D01*
X3050381Y-6892276D01*
X3031333Y-6882752D01*
X3021809Y-6873228D01*
X3012286Y-6854181D01*
X3002762Y-6816086D01*
X3002762Y-6768467D01*
X3012286Y-6730371D01*
X3021809Y-6711324D01*
X3031333Y-6701800D01*
X3050381Y-6692276D01*
X3202762Y-6892276D02*
X3202762Y-6758943D01*
X3202762Y-6777990D02*
X3212286Y-6768467D01*
X3231333Y-6758943D01*
X3259905Y-6758943D01*
X3278952Y-6768467D01*
X3288476Y-6787514D01*
X3288476Y-6892276D01*
X3288476Y-6787514D02*
X3298000Y-6768467D01*
X3317048Y-6758943D01*
X3345619Y-6758943D01*
X3364667Y-6768467D01*
X3374190Y-6787514D01*
X3374190Y-6892276D01*
X3469428Y-6892276D02*
X3469428Y-6758943D01*
X3469428Y-6777990D02*
X3478952Y-6768467D01*
X3498000Y-6758943D01*
X3526571Y-6758943D01*
X3545619Y-6768467D01*
X3555143Y-6787514D01*
X3555143Y-6892276D01*
X3555143Y-6787514D02*
X3564667Y-6768467D01*
X3583714Y-6758943D01*
X3612286Y-6758943D01*
X3631333Y-6768467D01*
X3640857Y-6787514D01*
X3640857Y-6892276D01*
X4031333Y-6682752D02*
X3859905Y-6939895D01*
X4288476Y-6692276D02*
X4307524Y-6692276D01*
X4326571Y-6701800D01*
X4336095Y-6711324D01*
X4345619Y-6730371D01*
X4355143Y-6768467D01*
X4355143Y-6816086D01*
X4345619Y-6854181D01*
X4336095Y-6873228D01*
X4326571Y-6882752D01*
X4307524Y-6892276D01*
X4288476Y-6892276D01*
X4269429Y-6882752D01*
X4259905Y-6873228D01*
X4250381Y-6854181D01*
X4240857Y-6816086D01*
X4240857Y-6768467D01*
X4250381Y-6730371D01*
X4259905Y-6711324D01*
X4269429Y-6701800D01*
X4288476Y-6692276D01*
X4440857Y-6873228D02*
X4450381Y-6882752D01*
X4440857Y-6892276D01*
X4431333Y-6882752D01*
X4440857Y-6873228D01*
X4440857Y-6892276D01*
X4574190Y-6692276D02*
X4593238Y-6692276D01*
X4612286Y-6701800D01*
X4621810Y-6711324D01*
X4631333Y-6730371D01*
X4640857Y-6768467D01*
X4640857Y-6816086D01*
X4631333Y-6854181D01*
X4621810Y-6873228D01*
X4612286Y-6882752D01*
X4593238Y-6892276D01*
X4574190Y-6892276D01*
X4555143Y-6882752D01*
X4545619Y-6873228D01*
X4536095Y-6854181D01*
X4526571Y-6816086D01*
X4526571Y-6768467D01*
X4536095Y-6730371D01*
X4545619Y-6711324D01*
X4555143Y-6701800D01*
X4574190Y-6692276D01*
X4707524Y-6692276D02*
X4831333Y-6692276D01*
X4764667Y-6768467D01*
X4793238Y-6768467D01*
X4812286Y-6777990D01*
X4821810Y-6787514D01*
X4831333Y-6806562D01*
X4831333Y-6854181D01*
X4821810Y-6873228D01*
X4812286Y-6882752D01*
X4793238Y-6892276D01*
X4736095Y-6892276D01*
X4717048Y-6882752D01*
X4707524Y-6873228D01*
X4926571Y-6892276D02*
X4964667Y-6892276D01*
X4983714Y-6882752D01*
X4993238Y-6873228D01*
X5012286Y-6844657D01*
X5021810Y-6806562D01*
X5021810Y-6730371D01*
X5012286Y-6711324D01*
X5002762Y-6701800D01*
X4983714Y-6692276D01*
X4945619Y-6692276D01*
X4926571Y-6701800D01*
X4917048Y-6711324D01*
X4907524Y-6730371D01*
X4907524Y-6777990D01*
X4917048Y-6797038D01*
X4926571Y-6806562D01*
X4945619Y-6816086D01*
X4983714Y-6816086D01*
X5002762Y-6806562D01*
X5012286Y-6797038D01*
X5021810Y-6777990D01*
X5193238Y-6758943D02*
X5193238Y-6892276D01*
X5145619Y-6682752D02*
X5098000Y-6825609D01*
X5221810Y-6825609D01*
X5288476Y-6692276D02*
X5288476Y-6730371D01*
X5364667Y-6692276D02*
X5364667Y-6730371D01*
X5659905Y-6968467D02*
X5650381Y-6958943D01*
X5631333Y-6930371D01*
X5621809Y-6911324D01*
X5612286Y-6882752D01*
X5602762Y-6835133D01*
X5602762Y-6797038D01*
X5612286Y-6749419D01*
X5621809Y-6720848D01*
X5631333Y-6701800D01*
X5650381Y-6673228D01*
X5659905Y-6663705D01*
X5840857Y-6892276D02*
X5726571Y-6892276D01*
X5783714Y-6892276D02*
X5783714Y-6692276D01*
X5764667Y-6720848D01*
X5745619Y-6739895D01*
X5726571Y-6749419D01*
X5964667Y-6692276D02*
X5983714Y-6692276D01*
X6002762Y-6701800D01*
X6012286Y-6711324D01*
X6021809Y-6730371D01*
X6031333Y-6768467D01*
X6031333Y-6816086D01*
X6021809Y-6854181D01*
X6012286Y-6873228D01*
X6002762Y-6882752D01*
X5983714Y-6892276D01*
X5964667Y-6892276D01*
X5945619Y-6882752D01*
X5936095Y-6873228D01*
X5926571Y-6854181D01*
X5917048Y-6816086D01*
X5917048Y-6768467D01*
X5926571Y-6730371D01*
X5936095Y-6711324D01*
X5945619Y-6701800D01*
X5964667Y-6692276D01*
X6269428Y-6892276D02*
X6269428Y-6692276D01*
X6355143Y-6892276D02*
X6355143Y-6787514D01*
X6345619Y-6768467D01*
X6326571Y-6758943D01*
X6298000Y-6758943D01*
X6278952Y-6768467D01*
X6269428Y-6777990D01*
X6478952Y-6892276D02*
X6459905Y-6882752D01*
X6450381Y-6873228D01*
X6440857Y-6854181D01*
X6440857Y-6797038D01*
X6450381Y-6777990D01*
X6459905Y-6768467D01*
X6478952Y-6758943D01*
X6507524Y-6758943D01*
X6526571Y-6768467D01*
X6536095Y-6777990D01*
X6545619Y-6797038D01*
X6545619Y-6854181D01*
X6536095Y-6873228D01*
X6526571Y-6882752D01*
X6507524Y-6892276D01*
X6478952Y-6892276D01*
X6659905Y-6892276D02*
X6640857Y-6882752D01*
X6631333Y-6863705D01*
X6631333Y-6692276D01*
X6812286Y-6882752D02*
X6793238Y-6892276D01*
X6755143Y-6892276D01*
X6736095Y-6882752D01*
X6726571Y-6863705D01*
X6726571Y-6787514D01*
X6736095Y-6768467D01*
X6755143Y-6758943D01*
X6793238Y-6758943D01*
X6812286Y-6768467D01*
X6821809Y-6787514D01*
X6821809Y-6806562D01*
X6726571Y-6825609D01*
X6898000Y-6882752D02*
X6917048Y-6892276D01*
X6955143Y-6892276D01*
X6974190Y-6882752D01*
X6983714Y-6863705D01*
X6983714Y-6854181D01*
X6974190Y-6835133D01*
X6955143Y-6825609D01*
X6926571Y-6825609D01*
X6907524Y-6816086D01*
X6898000Y-6797038D01*
X6898000Y-6787514D01*
X6907524Y-6768467D01*
X6926571Y-6758943D01*
X6955143Y-6758943D01*
X6974190Y-6768467D01*
X7050381Y-6968467D02*
X7059905Y-6958943D01*
X7078952Y-6930371D01*
X7088476Y-6911324D01*
X7098000Y-6882752D01*
X7107524Y-6835133D01*
X7107524Y-6797038D01*
X7098000Y-6749419D01*
X7088476Y-6720848D01*
X7078952Y-6701800D01*
X7059905Y-6673228D01*
X7050381Y-6663705D01*
M02*
