%TF.GenerationSoftware,KiCad,Pcbnew,(6.0.0-0)*%
%TF.CreationDate,2023-04-18T12:25:17-04:00*%
%TF.ProjectId,row-breakout,726f772d-6272-4656-916b-6f75742e6b69,rev?*%
%TF.SameCoordinates,Original*%
%TF.FileFunction,Copper,L2,Bot*%
%TF.FilePolarity,Positive*%
%FSLAX46Y46*%
G04 Gerber Fmt 4.6, Leading zero omitted, Abs format (unit mm)*
G04 Created by KiCad (PCBNEW (6.0.0-0)) date 2023-04-18 12:25:17*
%MOMM*%
%LPD*%
G01*
G04 APERTURE LIST*
%TA.AperFunction,ComponentPad*%
%ADD10R,1.700000X1.700000*%
%TD*%
%TA.AperFunction,ComponentPad*%
%ADD11O,1.700000X1.700000*%
%TD*%
%TA.AperFunction,ComponentPad*%
%ADD12R,1.500000X1.500000*%
%TD*%
%TA.AperFunction,ComponentPad*%
%ADD13C,1.500000*%
%TD*%
G04 APERTURE END LIST*
D10*
%TO.P,J2,1,Pin_1*%
%TO.N,Earth*%
X47473000Y-28785000D03*
D11*
%TO.P,J2,2,Pin_2*%
%TO.N,Net-(J1-PadT)*%
X47473000Y-31325000D03*
%TD*%
D10*
%TO.P,J4,1,Pin_1*%
%TO.N,Net-(J3-Pad1)*%
X47448000Y-54580000D03*
D11*
%TO.P,J4,2,Pin_2*%
%TO.N,Net-(J3-Pad2)*%
X47448000Y-52040000D03*
%TO.P,J4,3,Pin_3*%
%TO.N,Net-(J3-Pad3)*%
X47448000Y-49500000D03*
%TO.P,J4,4,Pin_4*%
%TO.N,Net-(J3-Pad4)*%
X47448000Y-46960000D03*
%TO.P,J4,5,Pin_5*%
%TO.N,Net-(J3-Pad5)*%
X47448000Y-44420000D03*
%TO.P,J4,6,Pin_6*%
%TO.N,Net-(J3-Pad6)*%
X47448000Y-41880000D03*
%TO.P,J4,7,Pin_7*%
%TO.N,Net-(J3-Pad7)*%
X47448000Y-39340000D03*
%TO.P,J4,8,Pin_8*%
%TO.N,Net-(J3-Pad8)*%
X47448000Y-36800000D03*
%TD*%
D12*
%TO.P,J3,1*%
%TO.N,Net-(J3-Pad1)*%
X34945000Y-50165000D03*
D13*
%TO.P,J3,2*%
%TO.N,Net-(J3-Pad2)*%
X37485000Y-48895000D03*
%TO.P,J3,3*%
%TO.N,Net-(J3-Pad3)*%
X34945000Y-47625000D03*
%TO.P,J3,4*%
%TO.N,Net-(J3-Pad4)*%
X37485000Y-46355000D03*
%TO.P,J3,5*%
%TO.N,Net-(J3-Pad5)*%
X34945000Y-45085000D03*
%TO.P,J3,6*%
%TO.N,Net-(J3-Pad6)*%
X37485000Y-43815000D03*
%TO.P,J3,7*%
%TO.N,Net-(J3-Pad7)*%
X34945000Y-42545000D03*
%TO.P,J3,8*%
%TO.N,Net-(J3-Pad8)*%
X37485000Y-41275000D03*
%TD*%
%TA.AperFunction,Conductor*%
%TO.N,Earth*%
G36*
X48574934Y-25529954D02*
G01*
X48655716Y-25583930D01*
X50718070Y-27646284D01*
X50772046Y-27727066D01*
X50791000Y-27822354D01*
X50791000Y-55616646D01*
X50772046Y-55711934D01*
X50718070Y-55792716D01*
X48655716Y-57855070D01*
X48574934Y-57909046D01*
X48479646Y-57928000D01*
X24241354Y-57928000D01*
X24146066Y-57909046D01*
X24065284Y-57855070D01*
X22002930Y-55792716D01*
X21948954Y-55711934D01*
X21930000Y-55616646D01*
X21930000Y-51480471D01*
X25989955Y-51480471D01*
X25990552Y-51488056D01*
X25990552Y-51488060D01*
X26013418Y-51778596D01*
X26014914Y-51797607D01*
X26078336Y-52109338D01*
X26179276Y-52411016D01*
X26182545Y-52417870D01*
X26182546Y-52417872D01*
X26274603Y-52610872D01*
X26316229Y-52698143D01*
X26320310Y-52704550D01*
X26320314Y-52704556D01*
X26343922Y-52741613D01*
X26487153Y-52966440D01*
X26689500Y-53211907D01*
X26920254Y-53430884D01*
X26926368Y-53435408D01*
X26926369Y-53435409D01*
X27112626Y-53573232D01*
X27175975Y-53620108D01*
X27452849Y-53776756D01*
X27616635Y-53844598D01*
X27739725Y-53895584D01*
X27739729Y-53895585D01*
X27746751Y-53898494D01*
X28053298Y-53983507D01*
X28295035Y-54019635D01*
X28361470Y-54029564D01*
X28361472Y-54029564D01*
X28367921Y-54030528D01*
X28374429Y-54030812D01*
X28374438Y-54030813D01*
X28479078Y-54035381D01*
X28481804Y-54035500D01*
X28675799Y-54035500D01*
X28679571Y-54035269D01*
X28679581Y-54035269D01*
X28874745Y-54023332D01*
X28912524Y-54021021D01*
X28919997Y-54019636D01*
X28920005Y-54019635D01*
X29217830Y-53964436D01*
X29217832Y-53964436D01*
X29225313Y-53963049D01*
X29232565Y-53960763D01*
X29232567Y-53960762D01*
X29423612Y-53900526D01*
X29528707Y-53867390D01*
X29607826Y-53831333D01*
X29811257Y-53738625D01*
X29811264Y-53738621D01*
X29818181Y-53735469D01*
X29921453Y-53672184D01*
X30082927Y-53573232D01*
X30082928Y-53573231D01*
X30089420Y-53569253D01*
X30125545Y-53540518D01*
X30332430Y-53375955D01*
X30332434Y-53375952D01*
X30338381Y-53371221D01*
X30561352Y-53144324D01*
X30565987Y-53138284D01*
X30565991Y-53138279D01*
X30697847Y-52966440D01*
X30755009Y-52891945D01*
X30758867Y-52885395D01*
X30758872Y-52885388D01*
X30912607Y-52624398D01*
X30912610Y-52624393D01*
X30916466Y-52617846D01*
X31000452Y-52424693D01*
X31040284Y-52333086D01*
X31040287Y-52333079D01*
X31043315Y-52326114D01*
X31133665Y-52021097D01*
X31138782Y-51990523D01*
X31140254Y-51981726D01*
X45593688Y-51981726D01*
X45595978Y-52040000D01*
X45600803Y-52162791D01*
X45603977Y-52243582D01*
X45651058Y-52501376D01*
X45733994Y-52749965D01*
X45801661Y-52885388D01*
X45803473Y-52889014D01*
X45829109Y-52982726D01*
X45816933Y-53079115D01*
X45773693Y-53157686D01*
X45758427Y-53176404D01*
X45752584Y-53187580D01*
X45752583Y-53187582D01*
X45742937Y-53206034D01*
X45664259Y-53356530D01*
X45608234Y-53551913D01*
X45607180Y-53563719D01*
X45607180Y-53563721D01*
X45602148Y-53620108D01*
X45597500Y-53672184D01*
X45597500Y-55487816D01*
X45608234Y-55608087D01*
X45664259Y-55803470D01*
X45758427Y-55983596D01*
X45766396Y-55993367D01*
X45766398Y-55993370D01*
X45861064Y-56109442D01*
X45886891Y-56141109D01*
X45896673Y-56149087D01*
X46034630Y-56261602D01*
X46034633Y-56261604D01*
X46044404Y-56269573D01*
X46224530Y-56363741D01*
X46419913Y-56419766D01*
X46431719Y-56420820D01*
X46431721Y-56420820D01*
X46534668Y-56430008D01*
X46534675Y-56430008D01*
X46540184Y-56430500D01*
X48355816Y-56430500D01*
X48361325Y-56430008D01*
X48361332Y-56430008D01*
X48464279Y-56420820D01*
X48464281Y-56420820D01*
X48476087Y-56419766D01*
X48671470Y-56363741D01*
X48851596Y-56269573D01*
X48861367Y-56261604D01*
X48861370Y-56261602D01*
X48999327Y-56149087D01*
X49009109Y-56141109D01*
X49034936Y-56109442D01*
X49129602Y-55993370D01*
X49129604Y-55993367D01*
X49137573Y-55983596D01*
X49231741Y-55803470D01*
X49287766Y-55608087D01*
X49298500Y-55487816D01*
X49298500Y-53672184D01*
X49293853Y-53620108D01*
X49288820Y-53563721D01*
X49288820Y-53563719D01*
X49287766Y-53551913D01*
X49231741Y-53356530D01*
X49156134Y-53211907D01*
X49143420Y-53187587D01*
X49143417Y-53187582D01*
X49137573Y-53176404D01*
X49124775Y-53160712D01*
X49079239Y-53074889D01*
X49070012Y-52978173D01*
X49090000Y-52902656D01*
X49154024Y-52757835D01*
X49193547Y-52668436D01*
X49264681Y-52416216D01*
X49299566Y-52156491D01*
X49300822Y-52116543D01*
X49303027Y-52046357D01*
X49303227Y-52040000D01*
X49301358Y-52013594D01*
X49289685Y-51848741D01*
X49284719Y-51778596D01*
X49253607Y-51634087D01*
X49231416Y-51531013D01*
X49231415Y-51531008D01*
X49229563Y-51522408D01*
X49216892Y-51488060D01*
X49141904Y-51284798D01*
X49141904Y-51284797D01*
X49138860Y-51276547D01*
X49106299Y-51216200D01*
X49018601Y-51053669D01*
X49014420Y-51045920D01*
X49009190Y-51038840D01*
X49009183Y-51038828D01*
X48921344Y-50919903D01*
X48879978Y-50831995D01*
X48875401Y-50734947D01*
X48908312Y-50643536D01*
X48931029Y-50611747D01*
X48943251Y-50597207D01*
X48948910Y-50590475D01*
X48969709Y-50557126D01*
X49082924Y-50375591D01*
X49087586Y-50368116D01*
X49113640Y-50309184D01*
X49138852Y-50252154D01*
X49193547Y-50128436D01*
X49264681Y-49876216D01*
X49289050Y-49694782D01*
X49298720Y-49622791D01*
X49298720Y-49622787D01*
X49299566Y-49616491D01*
X49303227Y-49500000D01*
X49284719Y-49238596D01*
X49282865Y-49229983D01*
X49231416Y-48991013D01*
X49231415Y-48991008D01*
X49229563Y-48982408D01*
X49224792Y-48969474D01*
X49141904Y-48744798D01*
X49141904Y-48744797D01*
X49138860Y-48736547D01*
X49106299Y-48676200D01*
X49048014Y-48568180D01*
X49014420Y-48505920D01*
X49009190Y-48498840D01*
X49009183Y-48498828D01*
X48921344Y-48379903D01*
X48879978Y-48291995D01*
X48875401Y-48194947D01*
X48908312Y-48103536D01*
X48931029Y-48071747D01*
X48943251Y-48057207D01*
X48948910Y-48050475D01*
X49087586Y-47828116D01*
X49193547Y-47588436D01*
X49264681Y-47336216D01*
X49299566Y-47076491D01*
X49303227Y-46960000D01*
X49284719Y-46698596D01*
X49238521Y-46484015D01*
X49231416Y-46451013D01*
X49231415Y-46451008D01*
X49229563Y-46442408D01*
X49215981Y-46405591D01*
X49141904Y-46204798D01*
X49141904Y-46204797D01*
X49138860Y-46196547D01*
X49106299Y-46136200D01*
X49018601Y-45973669D01*
X49014420Y-45965920D01*
X49009190Y-45958840D01*
X49009183Y-45958828D01*
X48921344Y-45839903D01*
X48879978Y-45751995D01*
X48875401Y-45654947D01*
X48908312Y-45563536D01*
X48931029Y-45531747D01*
X48943251Y-45517207D01*
X48948910Y-45510475D01*
X49087586Y-45288116D01*
X49193547Y-45048436D01*
X49264681Y-44796216D01*
X49299566Y-44536491D01*
X49303227Y-44420000D01*
X49284719Y-44158596D01*
X49238521Y-43944015D01*
X49231416Y-43911013D01*
X49231415Y-43911008D01*
X49229563Y-43902408D01*
X49215981Y-43865591D01*
X49141904Y-43664798D01*
X49141904Y-43664797D01*
X49138860Y-43656547D01*
X49106299Y-43596200D01*
X49018601Y-43433669D01*
X49014420Y-43425920D01*
X49009190Y-43418840D01*
X49009183Y-43418828D01*
X48921344Y-43299903D01*
X48879978Y-43211995D01*
X48875401Y-43114947D01*
X48908312Y-43023536D01*
X48931029Y-42991747D01*
X48943251Y-42977207D01*
X48948910Y-42970475D01*
X49087586Y-42748116D01*
X49193547Y-42508436D01*
X49264681Y-42256216D01*
X49299566Y-41996491D01*
X49303227Y-41880000D01*
X49284719Y-41618596D01*
X49268294Y-41542306D01*
X49231416Y-41371013D01*
X49231415Y-41371008D01*
X49229563Y-41362408D01*
X49215981Y-41325591D01*
X49141904Y-41124798D01*
X49141904Y-41124797D01*
X49138860Y-41116547D01*
X49106299Y-41056200D01*
X49018601Y-40893669D01*
X49014420Y-40885920D01*
X49009190Y-40878840D01*
X49009183Y-40878828D01*
X48921344Y-40759903D01*
X48879978Y-40671995D01*
X48875401Y-40574947D01*
X48908312Y-40483536D01*
X48931029Y-40451747D01*
X48943251Y-40437207D01*
X48948910Y-40430475D01*
X48983465Y-40375069D01*
X49082924Y-40215591D01*
X49087586Y-40208116D01*
X49193547Y-39968436D01*
X49264681Y-39716216D01*
X49284576Y-39568094D01*
X49298720Y-39462791D01*
X49298720Y-39462787D01*
X49299566Y-39456491D01*
X49300512Y-39426406D01*
X49303027Y-39346357D01*
X49303227Y-39340000D01*
X49284719Y-39078596D01*
X49229563Y-38822408D01*
X49212169Y-38775258D01*
X49141904Y-38584798D01*
X49141904Y-38584797D01*
X49138860Y-38576547D01*
X49127025Y-38554612D01*
X49018601Y-38353669D01*
X49014420Y-38345920D01*
X49009190Y-38338840D01*
X49009183Y-38338828D01*
X48921344Y-38219903D01*
X48879978Y-38131995D01*
X48875401Y-38034947D01*
X48908312Y-37943536D01*
X48931029Y-37911747D01*
X48943251Y-37897207D01*
X48948910Y-37890475D01*
X48990107Y-37824419D01*
X49082924Y-37675591D01*
X49087586Y-37668116D01*
X49193547Y-37428436D01*
X49264681Y-37176216D01*
X49299566Y-36916491D01*
X49303227Y-36800000D01*
X49284719Y-36538596D01*
X49268364Y-36462630D01*
X49231416Y-36291013D01*
X49231415Y-36291008D01*
X49229563Y-36282408D01*
X49212169Y-36235258D01*
X49141904Y-36044798D01*
X49141904Y-36044797D01*
X49138860Y-36036547D01*
X49106299Y-35976200D01*
X49018601Y-35813669D01*
X49014420Y-35805920D01*
X48858726Y-35595126D01*
X48822505Y-35558331D01*
X48681057Y-35414645D01*
X48674884Y-35408374D01*
X48466562Y-35249388D01*
X48237917Y-35121340D01*
X47993512Y-35026787D01*
X47792761Y-34980256D01*
X47746807Y-34969604D01*
X47746805Y-34969604D01*
X47738221Y-34967614D01*
X47729445Y-34966854D01*
X47729439Y-34966853D01*
X47599935Y-34955637D01*
X47477141Y-34945002D01*
X47337933Y-34952663D01*
X47224266Y-34958918D01*
X47224261Y-34958919D01*
X47215478Y-34959402D01*
X47087818Y-34984795D01*
X46967091Y-35008809D01*
X46967086Y-35008810D01*
X46958456Y-35010527D01*
X46711201Y-35097357D01*
X46703394Y-35101412D01*
X46703388Y-35101415D01*
X46486455Y-35214103D01*
X46478647Y-35218159D01*
X46356796Y-35305235D01*
X46272594Y-35365406D01*
X46272590Y-35365409D01*
X46265434Y-35370523D01*
X46259066Y-35376597D01*
X46259062Y-35376601D01*
X46082194Y-35545324D01*
X46082189Y-35545329D01*
X46075816Y-35551409D01*
X45913578Y-35757208D01*
X45781955Y-35983813D01*
X45683574Y-36226703D01*
X45620399Y-36481032D01*
X45593688Y-36741726D01*
X45595978Y-36800000D01*
X45600803Y-36922791D01*
X45603977Y-37003582D01*
X45651058Y-37261376D01*
X45733994Y-37509965D01*
X45851128Y-37744387D01*
X45856126Y-37751619D01*
X45856134Y-37751632D01*
X45979324Y-37929873D01*
X46017908Y-38019037D01*
X46019434Y-38116180D01*
X45983669Y-38206512D01*
X45970031Y-38225597D01*
X45963434Y-38233966D01*
X45913578Y-38297208D01*
X45781955Y-38523813D01*
X45683574Y-38766703D01*
X45620399Y-39021032D01*
X45593688Y-39281726D01*
X45599078Y-39418903D01*
X45600803Y-39462791D01*
X45603977Y-39543582D01*
X45651058Y-39801376D01*
X45733994Y-40049965D01*
X45851128Y-40284387D01*
X45856126Y-40291619D01*
X45856134Y-40291632D01*
X45979324Y-40469873D01*
X46017908Y-40559037D01*
X46019434Y-40656180D01*
X45983669Y-40746512D01*
X45970031Y-40765597D01*
X45913578Y-40837208D01*
X45909156Y-40844821D01*
X45909154Y-40844824D01*
X45810455Y-41014746D01*
X45781955Y-41063813D01*
X45683574Y-41306703D01*
X45620399Y-41561032D01*
X45612937Y-41633863D01*
X45598370Y-41776034D01*
X45593688Y-41821726D01*
X45595978Y-41880000D01*
X45600803Y-42002791D01*
X45603977Y-42083582D01*
X45651058Y-42341376D01*
X45733994Y-42589965D01*
X45851128Y-42824387D01*
X45856126Y-42831619D01*
X45856134Y-42831632D01*
X45979324Y-43009873D01*
X46017908Y-43099037D01*
X46019434Y-43196180D01*
X45983669Y-43286512D01*
X45970031Y-43305597D01*
X45913578Y-43377208D01*
X45781955Y-43603813D01*
X45683574Y-43846703D01*
X45620399Y-44101032D01*
X45612937Y-44173863D01*
X45602045Y-44280168D01*
X45593688Y-44361726D01*
X45595978Y-44420000D01*
X45600803Y-44542791D01*
X45603977Y-44623582D01*
X45651058Y-44881376D01*
X45733994Y-45129965D01*
X45851128Y-45364387D01*
X45856126Y-45371619D01*
X45856134Y-45371632D01*
X45979324Y-45549873D01*
X46017908Y-45639037D01*
X46019434Y-45736180D01*
X45983669Y-45826512D01*
X45970031Y-45845597D01*
X45913578Y-45917208D01*
X45781955Y-46143813D01*
X45683574Y-46386703D01*
X45620399Y-46641032D01*
X45612937Y-46713863D01*
X45602045Y-46820168D01*
X45593688Y-46901726D01*
X45595978Y-46960000D01*
X45600803Y-47082791D01*
X45603977Y-47163582D01*
X45651058Y-47421376D01*
X45733994Y-47669965D01*
X45851128Y-47904387D01*
X45856126Y-47911619D01*
X45856134Y-47911632D01*
X45979324Y-48089873D01*
X46017908Y-48179037D01*
X46019434Y-48276180D01*
X45983669Y-48366512D01*
X45970031Y-48385597D01*
X45913578Y-48457208D01*
X45909156Y-48464821D01*
X45909154Y-48464824D01*
X45849120Y-48568180D01*
X45781955Y-48683813D01*
X45683574Y-48926703D01*
X45620399Y-49181032D01*
X45593688Y-49441726D01*
X45595930Y-49498779D01*
X45602190Y-49658093D01*
X45603977Y-49703582D01*
X45651058Y-49961376D01*
X45733994Y-50209965D01*
X45851128Y-50444387D01*
X45856126Y-50451619D01*
X45856134Y-50451632D01*
X45979324Y-50629873D01*
X46017908Y-50719037D01*
X46019434Y-50816180D01*
X45983669Y-50906512D01*
X45970031Y-50925597D01*
X45913578Y-50997208D01*
X45909156Y-51004821D01*
X45909154Y-51004824D01*
X45857887Y-51093087D01*
X45781955Y-51223813D01*
X45683574Y-51466703D01*
X45620399Y-51721032D01*
X45607913Y-51842895D01*
X45600474Y-51915500D01*
X45593688Y-51981726D01*
X31140254Y-51981726D01*
X31184913Y-51714849D01*
X31184913Y-51714848D01*
X31186169Y-51707343D01*
X31200045Y-51389529D01*
X31191137Y-51276343D01*
X31175684Y-51079986D01*
X31175683Y-51079979D01*
X31175086Y-51072393D01*
X31111664Y-50760662D01*
X31010724Y-50458984D01*
X31000008Y-50436517D01*
X30877042Y-50178714D01*
X30877039Y-50178709D01*
X30873771Y-50171857D01*
X30869690Y-50165450D01*
X30869686Y-50165444D01*
X30706933Y-49909974D01*
X30702847Y-49903560D01*
X30500500Y-49658093D01*
X30269746Y-49439116D01*
X30159022Y-49357184D01*
X30020143Y-49254419D01*
X30020142Y-49254418D01*
X30014025Y-49249892D01*
X29737151Y-49093244D01*
X29573365Y-49025402D01*
X29450275Y-48974416D01*
X29450271Y-48974415D01*
X29443249Y-48971506D01*
X29136702Y-48886493D01*
X28891601Y-48849862D01*
X28828530Y-48840436D01*
X28828528Y-48840436D01*
X28822079Y-48839472D01*
X28815571Y-48839188D01*
X28815562Y-48839187D01*
X28710922Y-48834619D01*
X28710921Y-48834619D01*
X28708196Y-48834500D01*
X28514201Y-48834500D01*
X28510429Y-48834731D01*
X28510419Y-48834731D01*
X28315255Y-48846668D01*
X28277476Y-48848979D01*
X28270003Y-48850364D01*
X28269995Y-48850365D01*
X27972170Y-48905564D01*
X27972168Y-48905564D01*
X27964687Y-48906951D01*
X27957435Y-48909237D01*
X27957433Y-48909238D01*
X27927950Y-48918534D01*
X27661293Y-49002610D01*
X27654377Y-49005762D01*
X27378743Y-49131375D01*
X27378736Y-49131379D01*
X27371819Y-49134531D01*
X27365330Y-49138507D01*
X27365329Y-49138508D01*
X27177087Y-49253863D01*
X27100580Y-49300747D01*
X27094626Y-49305483D01*
X26858061Y-49493655D01*
X26851619Y-49498779D01*
X26628648Y-49725676D01*
X26624013Y-49731716D01*
X26624009Y-49731721D01*
X26617372Y-49740371D01*
X26434991Y-49978055D01*
X26431133Y-49984605D01*
X26431128Y-49984612D01*
X26303305Y-50201613D01*
X26273534Y-50252154D01*
X26244026Y-50320018D01*
X26149716Y-50536914D01*
X26149713Y-50536921D01*
X26146685Y-50543886D01*
X26144527Y-50551172D01*
X26144525Y-50551177D01*
X26118985Y-50637401D01*
X26056335Y-50848903D01*
X26055081Y-50856399D01*
X26055079Y-50856406D01*
X26018936Y-51072393D01*
X26003831Y-51162657D01*
X25989955Y-51480471D01*
X21930000Y-51480471D01*
X21930000Y-47579049D01*
X33190194Y-47579049D01*
X33202677Y-47838930D01*
X33204476Y-47847975D01*
X33204477Y-47847982D01*
X33215697Y-47904387D01*
X33253435Y-48094112D01*
X33256556Y-48102804D01*
X33256558Y-48102812D01*
X33338231Y-48330288D01*
X33341355Y-48338989D01*
X33345727Y-48347126D01*
X33345729Y-48347130D01*
X33437488Y-48517901D01*
X33465893Y-48610811D01*
X33456581Y-48707519D01*
X33411109Y-48793130D01*
X33355427Y-48861404D01*
X33349584Y-48872580D01*
X33349583Y-48872582D01*
X33330420Y-48909238D01*
X33261259Y-49041530D01*
X33205234Y-49236913D01*
X33204180Y-49248719D01*
X33204180Y-49248721D01*
X33203672Y-49254419D01*
X33194500Y-49357184D01*
X33194500Y-50972816D01*
X33194992Y-50978325D01*
X33194992Y-50978332D01*
X33200391Y-51038828D01*
X33205234Y-51093087D01*
X33261259Y-51288470D01*
X33355427Y-51468596D01*
X33483891Y-51626109D01*
X33493673Y-51634087D01*
X33631630Y-51746602D01*
X33631633Y-51746604D01*
X33641404Y-51754573D01*
X33652580Y-51760416D01*
X33652582Y-51760417D01*
X33748405Y-51810512D01*
X33821530Y-51848741D01*
X34016913Y-51904766D01*
X34028719Y-51905820D01*
X34028721Y-51905820D01*
X34131668Y-51915008D01*
X34131675Y-51915008D01*
X34137184Y-51915500D01*
X35752816Y-51915500D01*
X35758325Y-51915008D01*
X35758332Y-51915008D01*
X35861279Y-51905820D01*
X35861281Y-51905820D01*
X35873087Y-51904766D01*
X36068470Y-51848741D01*
X36141595Y-51810512D01*
X36237418Y-51760417D01*
X36237420Y-51760416D01*
X36248596Y-51754573D01*
X36258367Y-51746604D01*
X36258370Y-51746602D01*
X36396327Y-51634087D01*
X36406109Y-51626109D01*
X36534573Y-51468596D01*
X36628741Y-51288470D01*
X36684766Y-51093087D01*
X36689609Y-51038828D01*
X36695008Y-50978332D01*
X36695008Y-50978325D01*
X36695500Y-50972816D01*
X36695500Y-50824249D01*
X36714454Y-50728961D01*
X36768430Y-50648179D01*
X36849212Y-50594203D01*
X36944500Y-50575249D01*
X37012579Y-50586797D01*
X37013019Y-50585156D01*
X37021937Y-50587545D01*
X37030667Y-50590594D01*
X37190894Y-50621014D01*
X37277206Y-50637401D01*
X37277208Y-50637401D01*
X37286282Y-50639124D01*
X37295507Y-50639486D01*
X37295512Y-50639487D01*
X37398571Y-50643536D01*
X37546263Y-50649339D01*
X37555438Y-50648334D01*
X37555444Y-50648334D01*
X37795713Y-50622020D01*
X37795714Y-50622020D01*
X37804898Y-50621014D01*
X37813834Y-50618661D01*
X37813836Y-50618661D01*
X38047562Y-50557126D01*
X38047568Y-50557124D01*
X38056505Y-50554771D01*
X38295557Y-50452066D01*
X38516803Y-50315155D01*
X38523852Y-50309188D01*
X38523857Y-50309184D01*
X38708330Y-50153016D01*
X38715382Y-50147046D01*
X38721470Y-50140104D01*
X38721476Y-50140098D01*
X38880839Y-49958378D01*
X38880841Y-49958375D01*
X38886931Y-49951431D01*
X39027683Y-49732608D01*
X39031475Y-49724191D01*
X39130748Y-49503813D01*
X39130750Y-49503807D01*
X39134544Y-49495385D01*
X39147197Y-49450523D01*
X39157582Y-49413699D01*
X39205168Y-49244972D01*
X39238002Y-48986871D01*
X39240095Y-48906951D01*
X39240245Y-48901240D01*
X39240245Y-48901232D01*
X39240408Y-48895000D01*
X39221126Y-48635534D01*
X39205886Y-48568180D01*
X39165746Y-48390788D01*
X39163705Y-48381768D01*
X39069405Y-48139277D01*
X39064825Y-48131263D01*
X38944880Y-47921402D01*
X38944876Y-47921396D01*
X38940299Y-47913388D01*
X38834855Y-47779633D01*
X38790750Y-47693071D01*
X38783127Y-47596216D01*
X38813149Y-47503816D01*
X38843192Y-47461306D01*
X38870882Y-47429731D01*
X38886931Y-47411431D01*
X39027683Y-47192608D01*
X39031475Y-47184191D01*
X39130748Y-46963813D01*
X39130750Y-46963807D01*
X39134544Y-46955385D01*
X39147197Y-46910523D01*
X39202660Y-46713863D01*
X39205168Y-46704972D01*
X39238002Y-46446871D01*
X39240408Y-46355000D01*
X39221126Y-46095534D01*
X39205886Y-46028180D01*
X39165746Y-45850788D01*
X39163705Y-45841768D01*
X39069405Y-45599277D01*
X39064825Y-45591263D01*
X38944880Y-45381402D01*
X38944876Y-45381396D01*
X38940299Y-45373388D01*
X38834855Y-45239633D01*
X38790750Y-45153071D01*
X38783127Y-45056216D01*
X38813149Y-44963816D01*
X38843192Y-44921306D01*
X38870882Y-44889731D01*
X38886931Y-44871431D01*
X39027683Y-44652608D01*
X39031475Y-44644191D01*
X39130748Y-44423813D01*
X39130750Y-44423807D01*
X39134544Y-44415385D01*
X39147197Y-44370523D01*
X39202660Y-44173863D01*
X39205168Y-44164972D01*
X39238002Y-43906871D01*
X39240408Y-43815000D01*
X39221126Y-43555534D01*
X39205886Y-43488180D01*
X39165746Y-43310788D01*
X39163705Y-43301768D01*
X39069405Y-43059277D01*
X39064825Y-43051263D01*
X38944880Y-42841402D01*
X38944876Y-42841396D01*
X38940299Y-42833388D01*
X38834855Y-42699633D01*
X38790750Y-42613071D01*
X38783127Y-42516216D01*
X38813149Y-42423816D01*
X38843192Y-42381306D01*
X38870882Y-42349731D01*
X38886931Y-42331431D01*
X39027683Y-42112608D01*
X39031475Y-42104191D01*
X39130748Y-41883813D01*
X39130750Y-41883807D01*
X39134544Y-41875385D01*
X39147197Y-41830523D01*
X39202660Y-41633863D01*
X39205168Y-41624972D01*
X39216431Y-41536440D01*
X39237213Y-41373073D01*
X39238002Y-41366871D01*
X39240408Y-41275000D01*
X39221126Y-41015534D01*
X39215826Y-40992108D01*
X39165746Y-40770788D01*
X39163705Y-40761768D01*
X39069405Y-40519277D01*
X39064825Y-40511263D01*
X38944880Y-40301402D01*
X38944876Y-40301396D01*
X38940299Y-40293388D01*
X38934587Y-40286142D01*
X38934582Y-40286135D01*
X38856941Y-40187649D01*
X38779223Y-40089064D01*
X38589714Y-39910792D01*
X38375937Y-39762489D01*
X38367648Y-39758401D01*
X38367644Y-39758399D01*
X38261276Y-39705945D01*
X38142587Y-39647414D01*
X37983602Y-39596523D01*
X37903593Y-39570911D01*
X37903590Y-39570910D01*
X37894792Y-39568094D01*
X37885678Y-39566610D01*
X37885675Y-39566609D01*
X37797457Y-39552242D01*
X37637994Y-39526272D01*
X37628764Y-39526151D01*
X37628762Y-39526151D01*
X37445625Y-39523754D01*
X37377835Y-39522866D01*
X37341897Y-39527757D01*
X37129176Y-39556707D01*
X37129172Y-39556708D01*
X37120030Y-39557952D01*
X36870243Y-39630758D01*
X36861850Y-39634627D01*
X36861848Y-39634628D01*
X36828534Y-39649986D01*
X36633961Y-39739686D01*
X36416375Y-39882341D01*
X36222265Y-40055591D01*
X36055895Y-40255629D01*
X36028119Y-40301402D01*
X35925709Y-40470168D01*
X35925706Y-40470174D01*
X35920920Y-40478061D01*
X35917351Y-40486572D01*
X35917349Y-40486576D01*
X35839597Y-40671995D01*
X35820305Y-40718001D01*
X35818031Y-40726954D01*
X35817607Y-40728222D01*
X35769396Y-40812572D01*
X35692576Y-40872051D01*
X35598842Y-40897605D01*
X35505567Y-40886357D01*
X35354792Y-40838094D01*
X35345678Y-40836610D01*
X35345675Y-40836609D01*
X35259754Y-40822616D01*
X35097994Y-40796272D01*
X35088764Y-40796151D01*
X35088762Y-40796151D01*
X34905625Y-40793754D01*
X34837835Y-40792866D01*
X34801897Y-40797757D01*
X34589176Y-40826707D01*
X34589172Y-40826708D01*
X34580030Y-40827952D01*
X34330243Y-40900758D01*
X34321850Y-40904627D01*
X34321848Y-40904628D01*
X34156151Y-40981016D01*
X34093961Y-41009686D01*
X33876375Y-41152341D01*
X33682265Y-41325591D01*
X33515895Y-41525629D01*
X33499598Y-41552486D01*
X33385709Y-41740168D01*
X33385706Y-41740174D01*
X33380920Y-41748061D01*
X33377351Y-41756572D01*
X33377349Y-41756576D01*
X33350030Y-41821726D01*
X33280305Y-41988001D01*
X33278032Y-41996951D01*
X33278030Y-41996957D01*
X33256031Y-42083582D01*
X33216261Y-42240177D01*
X33215335Y-42249368D01*
X33215335Y-42249371D01*
X33193271Y-42468494D01*
X33190194Y-42499049D01*
X33202677Y-42758930D01*
X33204476Y-42767975D01*
X33204477Y-42767982D01*
X33215697Y-42824387D01*
X33253435Y-43014112D01*
X33256556Y-43022804D01*
X33256558Y-43022812D01*
X33338231Y-43250288D01*
X33341355Y-43258989D01*
X33345727Y-43267126D01*
X33345729Y-43267130D01*
X33427240Y-43418828D01*
X33464504Y-43488180D01*
X33470031Y-43495582D01*
X33470032Y-43495583D01*
X33598573Y-43667720D01*
X33640399Y-43755411D01*
X33645484Y-43852433D01*
X33613053Y-43944015D01*
X33590502Y-43975923D01*
X33515895Y-44065629D01*
X33511104Y-44073525D01*
X33385709Y-44280168D01*
X33385706Y-44280174D01*
X33380920Y-44288061D01*
X33377351Y-44296572D01*
X33377349Y-44296576D01*
X33350030Y-44361726D01*
X33280305Y-44528001D01*
X33278032Y-44536951D01*
X33278030Y-44536957D01*
X33256031Y-44623582D01*
X33216261Y-44780177D01*
X33215335Y-44789368D01*
X33215335Y-44789371D01*
X33197770Y-44963816D01*
X33190194Y-45039049D01*
X33202677Y-45298930D01*
X33204476Y-45307975D01*
X33204477Y-45307982D01*
X33215697Y-45364387D01*
X33253435Y-45554112D01*
X33256556Y-45562804D01*
X33256558Y-45562812D01*
X33338231Y-45790288D01*
X33341355Y-45798989D01*
X33345727Y-45807126D01*
X33345729Y-45807130D01*
X33427240Y-45958828D01*
X33464504Y-46028180D01*
X33470031Y-46035582D01*
X33470032Y-46035583D01*
X33598573Y-46207720D01*
X33640399Y-46295411D01*
X33645484Y-46392433D01*
X33613053Y-46484015D01*
X33590502Y-46515923D01*
X33515895Y-46605629D01*
X33511104Y-46613525D01*
X33385709Y-46820168D01*
X33385706Y-46820174D01*
X33380920Y-46828061D01*
X33377351Y-46836572D01*
X33377349Y-46836576D01*
X33350030Y-46901726D01*
X33280305Y-47068001D01*
X33278032Y-47076951D01*
X33278030Y-47076957D01*
X33256031Y-47163582D01*
X33216261Y-47320177D01*
X33215335Y-47329368D01*
X33215335Y-47329371D01*
X33197770Y-47503816D01*
X33190194Y-47579049D01*
X21930000Y-47579049D01*
X21930000Y-40050471D01*
X25989955Y-40050471D01*
X25990552Y-40058056D01*
X25990552Y-40058060D01*
X26009704Y-40301402D01*
X26014914Y-40367607D01*
X26016432Y-40375067D01*
X26016432Y-40375069D01*
X26029074Y-40437207D01*
X26078336Y-40679338D01*
X26100812Y-40746512D01*
X26147604Y-40886357D01*
X26179276Y-40981016D01*
X26182545Y-40987870D01*
X26182546Y-40987872D01*
X26274603Y-41180872D01*
X26316229Y-41268143D01*
X26320310Y-41274550D01*
X26320314Y-41274556D01*
X26381764Y-41371013D01*
X26487153Y-41536440D01*
X26689500Y-41781907D01*
X26920254Y-42000884D01*
X26926368Y-42005408D01*
X26926369Y-42005409D01*
X27112626Y-42143232D01*
X27175975Y-42190108D01*
X27372845Y-42301492D01*
X27443340Y-42341376D01*
X27452849Y-42346756D01*
X27616635Y-42414598D01*
X27739725Y-42465584D01*
X27739729Y-42465585D01*
X27746751Y-42468494D01*
X28053298Y-42553507D01*
X28241359Y-42581613D01*
X28361470Y-42599564D01*
X28361472Y-42599564D01*
X28367921Y-42600528D01*
X28374429Y-42600812D01*
X28374438Y-42600813D01*
X28479078Y-42605381D01*
X28481804Y-42605500D01*
X28675799Y-42605500D01*
X28679571Y-42605269D01*
X28679581Y-42605269D01*
X28874745Y-42593332D01*
X28912524Y-42591021D01*
X28919997Y-42589636D01*
X28920005Y-42589635D01*
X29217830Y-42534436D01*
X29217832Y-42534436D01*
X29225313Y-42533049D01*
X29232565Y-42530763D01*
X29232567Y-42530762D01*
X29423612Y-42470526D01*
X29528707Y-42437390D01*
X29651772Y-42381306D01*
X29811257Y-42308625D01*
X29811264Y-42308621D01*
X29818181Y-42305469D01*
X29912796Y-42247489D01*
X30082927Y-42143232D01*
X30082928Y-42143231D01*
X30089420Y-42139253D01*
X30113158Y-42120371D01*
X30332430Y-41945955D01*
X30332434Y-41945952D01*
X30338381Y-41941221D01*
X30561352Y-41714324D01*
X30565987Y-41708284D01*
X30565991Y-41708279D01*
X30678977Y-41561032D01*
X30755009Y-41461945D01*
X30758867Y-41455395D01*
X30758872Y-41455388D01*
X30912607Y-41194398D01*
X30912610Y-41194393D01*
X30916466Y-41187846D01*
X30991732Y-41014746D01*
X31040284Y-40903086D01*
X31040287Y-40903079D01*
X31043315Y-40896114D01*
X31048436Y-40878828D01*
X31098598Y-40709480D01*
X31133665Y-40591097D01*
X31144244Y-40527883D01*
X31184913Y-40284849D01*
X31184913Y-40284848D01*
X31186169Y-40277343D01*
X31200045Y-39959529D01*
X31196708Y-39917125D01*
X31175684Y-39649986D01*
X31175683Y-39649979D01*
X31175086Y-39642393D01*
X31111664Y-39330662D01*
X31036799Y-39106914D01*
X31013135Y-39036189D01*
X31013134Y-39036186D01*
X31010724Y-39028984D01*
X31002855Y-39012486D01*
X30877042Y-38748714D01*
X30877039Y-38748709D01*
X30873771Y-38741857D01*
X30869690Y-38735450D01*
X30869686Y-38735444D01*
X30706933Y-38479974D01*
X30702847Y-38473560D01*
X30500500Y-38228093D01*
X30269746Y-38009116D01*
X30162656Y-37929873D01*
X30020143Y-37824419D01*
X30020142Y-37824418D01*
X30014025Y-37819892D01*
X29804547Y-37701375D01*
X29743776Y-37666992D01*
X29743773Y-37666990D01*
X29737151Y-37663244D01*
X29573365Y-37595402D01*
X29450275Y-37544416D01*
X29450271Y-37544415D01*
X29443249Y-37541506D01*
X29136702Y-37456493D01*
X28891601Y-37419862D01*
X28828530Y-37410436D01*
X28828528Y-37410436D01*
X28822079Y-37409472D01*
X28815571Y-37409188D01*
X28815562Y-37409187D01*
X28710922Y-37404619D01*
X28710921Y-37404619D01*
X28708196Y-37404500D01*
X28514201Y-37404500D01*
X28510429Y-37404731D01*
X28510419Y-37404731D01*
X28315255Y-37416668D01*
X28277476Y-37418979D01*
X28270003Y-37420364D01*
X28269995Y-37420365D01*
X27972170Y-37475564D01*
X27972168Y-37475564D01*
X27964687Y-37476951D01*
X27957435Y-37479237D01*
X27957433Y-37479238D01*
X27861757Y-37509404D01*
X27661293Y-37572610D01*
X27654377Y-37575762D01*
X27378743Y-37701375D01*
X27378736Y-37701379D01*
X27371819Y-37704531D01*
X27365330Y-37708507D01*
X27365329Y-37708508D01*
X27176180Y-37824419D01*
X27100580Y-37870747D01*
X27094626Y-37875483D01*
X26894152Y-38034947D01*
X26851619Y-38068779D01*
X26628648Y-38295676D01*
X26624013Y-38301716D01*
X26624009Y-38301721D01*
X26595536Y-38338828D01*
X26434991Y-38548055D01*
X26431133Y-38554605D01*
X26431128Y-38554612D01*
X26278247Y-38814153D01*
X26273534Y-38822154D01*
X26270502Y-38829128D01*
X26149716Y-39106914D01*
X26149713Y-39106921D01*
X26146685Y-39113886D01*
X26056335Y-39418903D01*
X26055081Y-39426399D01*
X26055079Y-39426406D01*
X26018096Y-39647414D01*
X26003831Y-39732657D01*
X26003499Y-39740259D01*
X26003499Y-39740260D01*
X26001209Y-39792717D01*
X25989955Y-40050471D01*
X21930000Y-40050471D01*
X21930000Y-34290000D01*
X38157457Y-34290000D01*
X38177609Y-34597460D01*
X38237720Y-34899659D01*
X38336762Y-35191427D01*
X38473040Y-35467771D01*
X38477561Y-35474538D01*
X38477565Y-35474544D01*
X38524859Y-35545324D01*
X38644222Y-35723964D01*
X38847380Y-35955620D01*
X39079036Y-36158778D01*
X39193497Y-36235258D01*
X39328456Y-36325435D01*
X39328462Y-36325439D01*
X39335229Y-36329960D01*
X39611573Y-36466238D01*
X39903341Y-36565280D01*
X39911328Y-36566869D01*
X39911329Y-36566869D01*
X40197550Y-36623802D01*
X40197555Y-36623803D01*
X40205540Y-36625391D01*
X40213670Y-36625924D01*
X40213671Y-36625924D01*
X40274392Y-36629904D01*
X40436059Y-36640500D01*
X40589941Y-36640500D01*
X40751608Y-36629904D01*
X40812329Y-36625924D01*
X40812330Y-36625924D01*
X40820460Y-36625391D01*
X40828445Y-36623803D01*
X40828450Y-36623802D01*
X41114671Y-36566869D01*
X41114672Y-36566869D01*
X41122659Y-36565280D01*
X41414427Y-36466238D01*
X41690771Y-36329960D01*
X41697538Y-36325439D01*
X41697544Y-36325435D01*
X41832503Y-36235258D01*
X41946964Y-36158778D01*
X42178620Y-35955620D01*
X42381778Y-35723964D01*
X42492451Y-35558331D01*
X42548435Y-35474544D01*
X42552960Y-35467772D01*
X42660655Y-35249388D01*
X42685630Y-35198744D01*
X42685632Y-35198740D01*
X42689238Y-35191427D01*
X42788280Y-34899659D01*
X42848391Y-34597460D01*
X42868543Y-34290000D01*
X42848391Y-33982540D01*
X42788280Y-33680341D01*
X42689238Y-33388573D01*
X42552960Y-33112229D01*
X42548439Y-33105462D01*
X42548435Y-33105456D01*
X42408995Y-32896770D01*
X42381778Y-32856036D01*
X42178620Y-32624380D01*
X41946964Y-32421222D01*
X41818374Y-32335301D01*
X41697544Y-32254565D01*
X41697538Y-32254561D01*
X41690771Y-32250040D01*
X41414427Y-32113762D01*
X41122659Y-32014720D01*
X41114671Y-32013131D01*
X40828450Y-31956198D01*
X40828445Y-31956197D01*
X40820460Y-31954609D01*
X40812330Y-31954076D01*
X40812329Y-31954076D01*
X40751608Y-31950096D01*
X40589941Y-31939500D01*
X40436059Y-31939500D01*
X40274392Y-31950096D01*
X40213671Y-31954076D01*
X40213670Y-31954076D01*
X40205540Y-31954609D01*
X40197555Y-31956197D01*
X40197550Y-31956198D01*
X39911329Y-32013131D01*
X39903341Y-32014720D01*
X39611573Y-32113762D01*
X39335229Y-32250040D01*
X39328462Y-32254561D01*
X39328456Y-32254565D01*
X39207626Y-32335301D01*
X39079036Y-32421222D01*
X38847380Y-32624380D01*
X38644222Y-32856036D01*
X38639697Y-32862808D01*
X38639694Y-32862812D01*
X38562193Y-32978801D01*
X38473040Y-33112228D01*
X38336762Y-33388573D01*
X38237720Y-33680341D01*
X38177609Y-33982540D01*
X38157457Y-34290000D01*
X21930000Y-34290000D01*
X21930000Y-31362741D01*
X22576833Y-31362741D01*
X22577056Y-31372198D01*
X22581262Y-31550641D01*
X22582929Y-31621390D01*
X22628078Y-31876142D01*
X22685904Y-32046491D01*
X22707850Y-32111142D01*
X22711241Y-32121133D01*
X22830505Y-32350725D01*
X22836088Y-32358367D01*
X22928576Y-32484967D01*
X22983125Y-32559636D01*
X23165589Y-32743058D01*
X23173198Y-32748678D01*
X23173199Y-32748679D01*
X23366087Y-32891149D01*
X23366092Y-32891152D01*
X23373698Y-32896770D01*
X23382065Y-32901172D01*
X23382068Y-32901174D01*
X23534660Y-32981456D01*
X23602663Y-33017234D01*
X23611600Y-33020320D01*
X23611607Y-33020323D01*
X23838271Y-33098591D01*
X23838276Y-33098592D01*
X23847215Y-33101679D01*
X23856522Y-33103379D01*
X23856523Y-33103379D01*
X23982092Y-33126312D01*
X24101726Y-33148161D01*
X24184519Y-33152500D01*
X24345782Y-33152500D01*
X24463820Y-33143521D01*
X24528554Y-33138597D01*
X24528558Y-33138596D01*
X24537976Y-33137880D01*
X24790015Y-33079461D01*
X24938246Y-33020323D01*
X25021543Y-32987091D01*
X25021544Y-32987090D01*
X25030318Y-32983590D01*
X25253354Y-32852473D01*
X25453991Y-32689129D01*
X25507052Y-32630509D01*
X25621266Y-32504327D01*
X25627613Y-32497315D01*
X25770222Y-32281447D01*
X25814659Y-32185055D01*
X25874577Y-32055084D01*
X25874579Y-32055079D01*
X25878538Y-32046491D01*
X25950068Y-31797855D01*
X25962534Y-31701216D01*
X25981957Y-31550641D01*
X25981957Y-31550638D01*
X25983167Y-31541259D01*
X25980666Y-31435135D01*
X25978960Y-31362741D01*
X27576833Y-31362741D01*
X27577056Y-31372198D01*
X27581262Y-31550641D01*
X27582929Y-31621390D01*
X27628078Y-31876142D01*
X27685904Y-32046491D01*
X27707850Y-32111142D01*
X27711241Y-32121133D01*
X27830505Y-32350725D01*
X27836088Y-32358367D01*
X27928576Y-32484967D01*
X27983125Y-32559636D01*
X28165589Y-32743058D01*
X28173198Y-32748678D01*
X28173199Y-32748679D01*
X28366087Y-32891149D01*
X28366092Y-32891152D01*
X28373698Y-32896770D01*
X28382065Y-32901172D01*
X28382068Y-32901174D01*
X28534660Y-32981456D01*
X28602663Y-33017234D01*
X28611600Y-33020320D01*
X28611607Y-33020323D01*
X28838271Y-33098591D01*
X28838276Y-33098592D01*
X28847215Y-33101679D01*
X28856522Y-33103379D01*
X28856523Y-33103379D01*
X28982092Y-33126312D01*
X29101726Y-33148161D01*
X29184519Y-33152500D01*
X29345782Y-33152500D01*
X29463820Y-33143521D01*
X29528554Y-33138597D01*
X29528558Y-33138596D01*
X29537976Y-33137880D01*
X29790015Y-33079461D01*
X29938246Y-33020323D01*
X30021543Y-32987091D01*
X30021544Y-32987090D01*
X30030318Y-32983590D01*
X30253354Y-32852473D01*
X30453991Y-32689129D01*
X30507052Y-32630509D01*
X30621266Y-32504327D01*
X30627613Y-32497315D01*
X30770222Y-32281447D01*
X30814659Y-32185055D01*
X30874577Y-32055084D01*
X30874579Y-32055079D01*
X30878538Y-32046491D01*
X30950068Y-31797855D01*
X30962534Y-31701216D01*
X30981957Y-31550641D01*
X30981957Y-31550638D01*
X30983167Y-31541259D01*
X30980666Y-31435135D01*
X30977294Y-31292057D01*
X30977294Y-31292052D01*
X30977071Y-31282610D01*
X30974256Y-31266726D01*
X45618688Y-31266726D01*
X45620978Y-31325000D01*
X45625803Y-31447791D01*
X45628977Y-31528582D01*
X45676058Y-31786376D01*
X45758994Y-32034965D01*
X45876128Y-32269387D01*
X45881127Y-32276620D01*
X45881130Y-32276625D01*
X45977095Y-32415475D01*
X46025124Y-32484967D01*
X46203010Y-32677402D01*
X46209830Y-32682954D01*
X46209836Y-32682960D01*
X46275420Y-32736353D01*
X46406235Y-32842853D01*
X46413774Y-32847392D01*
X46413777Y-32847394D01*
X46486454Y-32891149D01*
X46630745Y-32978019D01*
X46638857Y-32981454D01*
X46638861Y-32981456D01*
X46643901Y-32983590D01*
X46872060Y-33080203D01*
X46880571Y-33082460D01*
X46880575Y-33082461D01*
X47116852Y-33145109D01*
X47116855Y-33145109D01*
X47125365Y-33147366D01*
X47134108Y-33148401D01*
X47134109Y-33148401D01*
X47200025Y-33156202D01*
X47385607Y-33178167D01*
X47647592Y-33171993D01*
X47906094Y-33128967D01*
X48155955Y-33049946D01*
X48392188Y-32936509D01*
X48610082Y-32790917D01*
X48663516Y-32743058D01*
X48798727Y-32621952D01*
X48798730Y-32621949D01*
X48805287Y-32616076D01*
X48973910Y-32415475D01*
X49112586Y-32193116D01*
X49218547Y-31953436D01*
X49289681Y-31701216D01*
X49324566Y-31441491D01*
X49328227Y-31325000D01*
X49309719Y-31063596D01*
X49267308Y-30866606D01*
X49256416Y-30816013D01*
X49256415Y-30816008D01*
X49254563Y-30807408D01*
X49248815Y-30791825D01*
X49166904Y-30569798D01*
X49166904Y-30569797D01*
X49163860Y-30561547D01*
X49131299Y-30501200D01*
X49076517Y-30399673D01*
X49039420Y-30330920D01*
X48883726Y-30120126D01*
X48847505Y-30083331D01*
X48706057Y-29939645D01*
X48699884Y-29933374D01*
X48491562Y-29774388D01*
X48262917Y-29646340D01*
X48018512Y-29551787D01*
X47817761Y-29505256D01*
X47771807Y-29494604D01*
X47771805Y-29494604D01*
X47763221Y-29492614D01*
X47754445Y-29491854D01*
X47754439Y-29491853D01*
X47624935Y-29480637D01*
X47502141Y-29470002D01*
X47362933Y-29477663D01*
X47249266Y-29483918D01*
X47249261Y-29483919D01*
X47240478Y-29484402D01*
X47112818Y-29509795D01*
X46992091Y-29533809D01*
X46992086Y-29533810D01*
X46983456Y-29535527D01*
X46736201Y-29622357D01*
X46728394Y-29626412D01*
X46728388Y-29626415D01*
X46511455Y-29739103D01*
X46503647Y-29743159D01*
X46392753Y-29822405D01*
X46297594Y-29890406D01*
X46297590Y-29890409D01*
X46290434Y-29895523D01*
X46284066Y-29901597D01*
X46284062Y-29901601D01*
X46107194Y-30070324D01*
X46107189Y-30070329D01*
X46100816Y-30076409D01*
X45938578Y-30282208D01*
X45934156Y-30289821D01*
X45934154Y-30289824D01*
X45870349Y-30399673D01*
X45806955Y-30508813D01*
X45708574Y-30751703D01*
X45645399Y-31006032D01*
X45618688Y-31266726D01*
X30974256Y-31266726D01*
X30931922Y-31027858D01*
X30848759Y-30782867D01*
X30729495Y-30553275D01*
X30576875Y-30344364D01*
X30394411Y-30160942D01*
X30330658Y-30113853D01*
X30193913Y-30012851D01*
X30193908Y-30012848D01*
X30186302Y-30007230D01*
X30177935Y-30002828D01*
X30177932Y-30002826D01*
X29965710Y-29891171D01*
X29965707Y-29891170D01*
X29957337Y-29886766D01*
X29948400Y-29883680D01*
X29948393Y-29883677D01*
X29721729Y-29805409D01*
X29721724Y-29805408D01*
X29712785Y-29802321D01*
X29458274Y-29755839D01*
X29375481Y-29751500D01*
X29214218Y-29751500D01*
X29096180Y-29760479D01*
X29031446Y-29765403D01*
X29031442Y-29765404D01*
X29022024Y-29766120D01*
X28769985Y-29824539D01*
X28761208Y-29828040D01*
X28761210Y-29828040D01*
X28614012Y-29886766D01*
X28529682Y-29920410D01*
X28306646Y-30051527D01*
X28106009Y-30214871D01*
X28099671Y-30221873D01*
X28099669Y-30221875D01*
X27955290Y-30381382D01*
X27932387Y-30406685D01*
X27869948Y-30501200D01*
X27824630Y-30569798D01*
X27789778Y-30622553D01*
X27785821Y-30631137D01*
X27711743Y-30791825D01*
X27681462Y-30857509D01*
X27609932Y-31106145D01*
X27576833Y-31362741D01*
X25978960Y-31362741D01*
X25977294Y-31292057D01*
X25977294Y-31292052D01*
X25977071Y-31282610D01*
X25931922Y-31027858D01*
X25848759Y-30782867D01*
X25729495Y-30553275D01*
X25576875Y-30344364D01*
X25394411Y-30160942D01*
X25330658Y-30113853D01*
X25193913Y-30012851D01*
X25193908Y-30012848D01*
X25186302Y-30007230D01*
X25177935Y-30002828D01*
X25177932Y-30002826D01*
X24965710Y-29891171D01*
X24965707Y-29891170D01*
X24957337Y-29886766D01*
X24948400Y-29883680D01*
X24948393Y-29883677D01*
X24721729Y-29805409D01*
X24721724Y-29805408D01*
X24712785Y-29802321D01*
X24458274Y-29755839D01*
X24375481Y-29751500D01*
X24214218Y-29751500D01*
X24096180Y-29760479D01*
X24031446Y-29765403D01*
X24031442Y-29765404D01*
X24022024Y-29766120D01*
X23769985Y-29824539D01*
X23761208Y-29828040D01*
X23761210Y-29828040D01*
X23614012Y-29886766D01*
X23529682Y-29920410D01*
X23306646Y-30051527D01*
X23106009Y-30214871D01*
X23099671Y-30221873D01*
X23099669Y-30221875D01*
X22955290Y-30381382D01*
X22932387Y-30406685D01*
X22869948Y-30501200D01*
X22824630Y-30569798D01*
X22789778Y-30622553D01*
X22785821Y-30631137D01*
X22711743Y-30791825D01*
X22681462Y-30857509D01*
X22609932Y-31106145D01*
X22576833Y-31362741D01*
X21930000Y-31362741D01*
X21930000Y-27822354D01*
X21948954Y-27727066D01*
X22002930Y-27646284D01*
X24065284Y-25583930D01*
X24146066Y-25529954D01*
X24241354Y-25511000D01*
X48479646Y-25511000D01*
X48574934Y-25529954D01*
G37*
%TD.AperFunction*%
%TD*%
M02*
