M48
; DRILL file {KiCad (6.0.0-0)} date Tuesday, April 18, 2023 at 12:24:42 PM
; FORMAT={-:-/ absolute / metric / decimal}
; #@! TF.CreationDate,2023-04-18T12:24:42-04:00
; #@! TF.GenerationSoftware,Kicad,Pcbnew,(6.0.0-0)
; #@! TF.FileFunction,Plated,1,2,PTH
FMAT,2
METRIC
; #@! TA.AperFunction,Plated,PTH,ViaDrill
T1C0.400
; #@! TA.AperFunction,Plated,PTH,ViaDrill
T2C0.600
; #@! TA.AperFunction,Plated,PTH,ComponentDrill
T3C0.800
; #@! TA.AperFunction,Plated,PTH,ComponentDrill
T4C0.889
; #@! TA.AperFunction,Plated,PTH,ComponentDrill
T5C1.000
; #@! TA.AperFunction,Plated,PTH,ComponentDrill
T6C1.100
%
G90
G05
T1
X124.968Y-98.679
X126.365Y-98.679
T2
X72.644Y-138.684
X75.5Y-60.075
X75.5Y-62.865
X83.058Y-92.122
X83.439Y-97.663
X96.901Y-92.075
X100.457Y-93.599
X120.396Y-67.945
X121.793Y-72.136
X126.174Y-69.659
T3
X69.469Y-128.956
X75.453Y-76.876
X75.453Y-84.496
X75.478Y-71.12
X77.089Y-128.956
X77.993Y-76.876
X77.993Y-84.496
X80.478Y-71.12
X80.533Y-76.876
X80.533Y-84.496
X83.073Y-76.876
X83.073Y-84.496
X84.328Y-108.632
X84.328Y-111.172
X84.328Y-113.712
X84.328Y-116.252
X84.328Y-118.792
X84.328Y-121.332
X84.328Y-123.872
X84.328Y-126.412
X84.328Y-128.952
X84.328Y-131.492
X84.328Y-134.032
X84.328Y-136.572
X84.328Y-139.112
X84.328Y-141.652
X85.613Y-76.876
X85.613Y-84.496
X88.153Y-76.876
X88.153Y-84.496
X90.693Y-76.876
X90.693Y-84.496
X91.948Y-108.632
X91.948Y-111.172
X91.948Y-113.712
X91.948Y-116.252
X91.948Y-118.792
X91.948Y-121.332
X91.948Y-123.872
X91.948Y-126.412
X91.948Y-128.952
X91.948Y-131.492
X91.948Y-134.032
X91.948Y-136.572
X91.948Y-139.112
X91.948Y-141.652
X92.456Y-86.948
X92.456Y-91.948
X93.233Y-76.876
X93.233Y-84.496
X95.758Y-134.032
X95.758Y-139.032
X104.648Y-80.772
X104.648Y-83.312
X104.648Y-85.852
X104.648Y-88.392
X104.648Y-90.932
X104.648Y-93.472
X104.648Y-96.012
X104.648Y-98.552
X104.648Y-101.092
X104.648Y-103.632
X104.648Y-106.172
X104.648Y-108.712
X104.648Y-111.252
X104.648Y-113.792
X112.268Y-80.772
X112.268Y-83.312
X112.268Y-85.852
X112.268Y-88.392
X112.268Y-90.932
X112.268Y-93.472
X112.268Y-96.012
X112.268Y-98.552
X112.268Y-101.092
X112.268Y-103.632
X112.268Y-106.172
X112.268Y-108.712
X112.268Y-111.252
X112.268Y-113.792
X116.078Y-106.172
X116.078Y-111.172
T4
X66.31Y-64.22
X66.31Y-66.76
X66.31Y-69.3
X66.31Y-71.84
X66.31Y-78.19
X66.31Y-80.73
X66.31Y-83.27
X66.31Y-85.81
X66.31Y-92.16
X66.31Y-94.7
X66.31Y-97.24
X66.31Y-99.78
X66.31Y-106.13
X66.31Y-108.67
X66.31Y-111.21
X66.31Y-113.75
X68.85Y-65.49
X68.85Y-68.03
X68.85Y-70.57
X68.85Y-73.11
X68.85Y-79.46
X68.85Y-82.0
X68.85Y-84.54
X68.85Y-87.08
X68.85Y-93.43
X68.85Y-95.97
X68.85Y-98.51
X68.85Y-101.05
X68.85Y-107.4
X68.85Y-109.94
X68.85Y-112.48
X68.85Y-115.02
T5
X128.778Y-63.246
X128.778Y-65.786
X128.778Y-68.326
X128.778Y-70.866
X128.778Y-73.406
X128.778Y-75.946
X128.778Y-78.486
X128.778Y-81.026
X128.778Y-83.566
X128.778Y-86.106
X128.778Y-88.646
X128.778Y-91.186
X128.778Y-93.726
X128.778Y-96.266
X128.778Y-98.806
X128.778Y-101.346
X128.778Y-103.886
X128.778Y-106.426
X128.778Y-108.966
X128.778Y-111.506
X131.318Y-63.246
X131.318Y-65.786
X131.318Y-68.326
X131.318Y-70.866
X131.318Y-73.406
X131.318Y-75.946
X131.318Y-78.486
X131.318Y-81.026
X131.318Y-83.566
X131.318Y-86.106
X131.318Y-88.646
X131.318Y-91.186
X131.318Y-93.726
X131.318Y-96.266
X131.318Y-98.806
X131.318Y-101.346
X131.318Y-103.886
X131.318Y-106.426
X131.318Y-108.966
X131.318Y-111.506
X140.208Y-138.592
X140.208Y-143.592
T6
X112.776Y-127.676
X115.316Y-127.676
X117.856Y-127.676
X123.698Y-132.969
X124.854Y-48.3
X124.854Y-53.3
X126.774Y-139.953
X126.774Y-144.953
X128.354Y-48.3
X128.354Y-53.3
X130.274Y-139.953
X130.274Y-144.953
X131.854Y-48.3
X131.854Y-53.3
X133.858Y-132.969
X135.354Y-48.3
X135.354Y-53.3
X149.75Y-62.25
X149.75Y-65.75
X149.75Y-48.25
X149.75Y-51.75
X149.75Y-55.25
X149.75Y-58.75
X149.75Y-69.25
X149.75Y-72.75
X149.75Y-84.0
X149.75Y-87.5
X149.75Y-91.0
X149.75Y-94.5
X149.75Y-98.0
X149.75Y-101.5
X149.75Y-112.75
X149.75Y-116.25
X149.75Y-119.75
X149.75Y-123.25
X149.75Y-126.75
X149.75Y-130.25
X149.75Y-133.75
X149.75Y-137.25
X154.75Y-62.25
X154.75Y-65.75
X154.75Y-48.25
X154.75Y-51.75
X154.75Y-55.25
X154.75Y-58.75
X154.75Y-69.25
X154.75Y-72.75
X154.75Y-84.0
X154.75Y-87.5
X154.75Y-91.0
X154.75Y-94.5
X154.75Y-98.0
X154.75Y-101.5
X154.75Y-112.75
X154.75Y-116.25
X154.75Y-119.75
X154.75Y-123.25
X154.75Y-126.75
X154.75Y-130.25
X154.75Y-133.75
X154.75Y-137.25
T0
M30
