  0
SECTION
  2
HEADER
  9
$ANGBASE
  50
0.0
  9
$ANGDIR
  70
1
  9
$MEASUREMENT
  70
1
  0
ENDSEC
  0
SECTION
  2
TABLES
  0
TABLE
  2
LTYPE
  70
4
  0
LTYPE
  5
40F
  2
CONTINUOUS
  70
0
  3
Solid line
  72
65
  73
0
  40
0.0
  0
LTYPE
  5
410
  2
DASHDOT
 70
0
  3
Dash Dot ____ _ ____ _
 72
65
 73
4
 40
2.0
 49
1.25
 49
-0.25
 49
0.25
 49
-0.25
  0
LTYPE
  5
411
  2
DASHED
 70
0
  3
Dashed __ __ __ __ __
 72
65
 73
2
 40
0.75
 49
0.5
 49
-0.25
  0
LTYPE
  5
43B
  2
DOTTED
 70
0
  3
Dotted .  .  .  .
 72
65
 73
2
 40
0.2
 49
0.0
 49
-0.2
  0
ENDTAB
  0
TABLE
  2
STYLE
  70
4
  0
STYLE
  2
KICAD
  70
0
  40
0
  41
1
  42
1
  50
0
  71
0
  3
isocp.shx
  0
STYLE
  2
KICADB
  70
0
  40
0
  41
1
  42
1
  50
0
  71
0
  3
isocp.shx
  0
STYLE
  2
KICADI
  70
0
  40
0
  41
1
  42
1
  50
15
  71
0
  3
isocp.shx
  0
STYLE
  2
KICADBI
  70
0
  40
0
  41
1
  42
1
  50
15
  71
0
  3
isocp.shx
  0
ENDTAB
  0
TABLE
  2
LAYER
  70
1
  0
LAYER
  2
BLACK
  70
0
  62
7
  6
CONTINUOUS
  0
ENDTAB
  0
ENDSEC
  0
SECTION
  2
ENTITIES
0
LINE
8
BLACK
6
CONTINUOUS
10
57.023
20
-148.336
11
49.657
21
-140.97
0
LINE
8
BLACK
6
CONTINUOUS
10
158.115
20
-140.97
11
150.749
21
-148.336
0
LINE
8
BLACK
6
CONTINUOUS
10
57.023
20
-44.958
11
134.747
21
-44.958
0
LINE
8
BLACK
6
CONTINUOUS
10
134.747
20
-44.958
11
158.115
21
-44.958
0
LINE
8
BLACK
6
CONTINUOUS
10
158.115
20
-140.97
11
158.115
21
-44.958
0
LINE
8
BLACK
6
CONTINUOUS
10
49.657
20
-140.97
11
49.657
21
-52.324
0
LINE
8
BLACK
6
CONTINUOUS
10
57.023
20
-44.958
11
49.657
21
-52.324
0
LINE
8
BLACK
6
CONTINUOUS
10
150.749
20
-148.336
11
57.023
21
-148.336
0
LINE
8
BLACK
6
CONTINUOUS
10
51.418
20
-133.92
11
52.818
21
-135.32
0
LINE
8
BLACK
6
CONTINUOUS
10
52.818
20
-133.92
11
51.418
21
-135.32
0
LINE
8
BLACK
6
CONTINUOUS
10
56.418
20
-133.92
11
57.818
21
-135.32
0
LINE
8
BLACK
6
CONTINUOUS
10
57.818
20
-133.92
11
56.418
21
-135.32
0
CIRCLE
8
BLACK
10
56.2774
20
-60.1814
40
0.8001
0
CIRCLE
8
BLACK
10
56.2774
20
-119.059
40
0.8001
0
CIRCLE
8
BLACK
10
70.1204
20
-75.65
40
0.8001
0
CIRCLE
8
BLACK
10
70.1204
20
-89.62
40
0.8001
0
CIRCLE
8
BLACK
10
70.1204
20
-103.59
40
0.8001
0
LINE
8
BLACK
6
CONTINUOUS
10
53.9496
20
-52.6504
11
53.9496
21
-55.3504
0
LINE
8
BLACK
6
CONTINUOUS
10
52.5996
20
-54.0004
11
55.2996
21
-54.0004
0
LINE
8
BLACK
6
CONTINUOUS
10
59.69
20
-142.795
11
59.69
21
-145.495
0
LINE
8
BLACK
6
CONTINUOUS
10
58.34
20
-144.145
11
61.04
21
-144.145
0
LINE
8
BLACK
6
CONTINUOUS
10
101.068
20
-56.996
11
101.068
21
-59.696
0
LINE
8
BLACK
6
CONTINUOUS
10
99.718
20
-58.346
11
102.418
21
-58.346
0
LINE
8
BLACK
6
CONTINUOUS
10
130.068
20
-56.996
11
130.068
21
-59.696
0
LINE
8
BLACK
6
CONTINUOUS
10
128.718
20
-58.346
11
131.418
21
-58.346
0
LINE
8
BLACK
6
CONTINUOUS
10
130.068
20
-114.996
11
130.068
21
-117.696
0
LINE
8
BLACK
6
CONTINUOUS
10
128.718
20
-116.346
11
131.418
21
-116.346
0
LINE
8
BLACK
6
CONTINUOUS
10
147.8
20
-143.45
11
147.8
21
-146.15
0
LINE
8
BLACK
6
CONTINUOUS
10
146.45
20
-144.8
11
149.15
21
-144.8
0
LINE
8
BLACK
6
CONTINUOUS
10
61.0919
20
-64.0815
11
61.0919
21
-61.8185
0
LINE
8
BLACK
6
CONTINUOUS
10
61.0919
20
-61.8185
11
58.8289
21
-61.8185
0
LINE
8
BLACK
6
CONTINUOUS
10
58.8289
20
-61.8185
11
58.8289
21
-64.0815
0
LINE
8
BLACK
6
CONTINUOUS
10
58.8289
20
-64.0815
11
61.0919
21
-64.0815
0
LINE
8
BLACK
6
CONTINUOUS
10
61.0919
20
-117.422
11
61.0919
21
-115.158
0
LINE
8
BLACK
6
CONTINUOUS
10
61.0919
20
-115.158
11
58.8289
21
-115.158
0
LINE
8
BLACK
6
CONTINUOUS
10
58.8289
20
-115.158
11
58.8289
21
-117.422
0
LINE
8
BLACK
6
CONTINUOUS
10
58.8289
20
-117.422
11
61.0919
21
-117.422
0
LINE
8
BLACK
6
CONTINUOUS
10
154.709
20
-64.742
11
156.459
21
-62.992
0
LINE
8
BLACK
6
CONTINUOUS
10
156.459
20
-62.992
11
154.709
21
-61.242
0
LINE
8
BLACK
6
CONTINUOUS
10
154.709
20
-61.242
11
152.959
21
-62.992
0
LINE
8
BLACK
6
CONTINUOUS
10
152.959
20
-62.992
11
154.709
21
-64.742
0
LINE
8
BLACK
6
CONTINUOUS
10
52.0832
20
-151.511
11
52.0832
21
-149.511
0
LINE
8
BLACK
6
CONTINUOUS
10
52.0832
20
-149.511
11
52.5594
21
-149.511
0
LINE
8
BLACK
6
CONTINUOUS
10
52.5594
20
-149.511
11
52.8451
21
-149.606
0
LINE
8
BLACK
6
CONTINUOUS
10
52.8451
20
-149.606
11
53.0356
21
-149.797
0
LINE
8
BLACK
6
CONTINUOUS
10
53.0356
20
-149.797
11
53.1308
21
-149.987
0
LINE
8
BLACK
6
CONTINUOUS
10
53.1308
20
-149.987
11
53.226
21
-150.368
0
LINE
8
BLACK
6
CONTINUOUS
10
53.226
20
-150.368
11
53.226
21
-150.654
0
LINE
8
BLACK
6
CONTINUOUS
10
53.226
20
-150.654
11
53.1308
21
-151.035
0
LINE
8
BLACK
6
CONTINUOUS
10
53.1308
20
-151.035
11
53.0356
21
-151.226
0
LINE
8
BLACK
6
CONTINUOUS
10
53.0356
20
-151.226
11
52.8451
21
-151.416
0
LINE
8
BLACK
6
CONTINUOUS
10
52.8451
20
-151.416
11
52.5594
21
-151.511
0
LINE
8
BLACK
6
CONTINUOUS
10
52.5594
20
-151.511
11
52.0832
21
-151.511
0
LINE
8
BLACK
6
CONTINUOUS
10
54.0832
20
-151.511
11
54.0832
21
-150.178
0
LINE
8
BLACK
6
CONTINUOUS
10
54.0832
20
-150.559
11
54.1784
21
-150.368
0
LINE
8
BLACK
6
CONTINUOUS
10
54.1784
20
-150.368
11
54.2737
21
-150.273
0
LINE
8
BLACK
6
CONTINUOUS
10
54.2737
20
-150.273
11
54.4641
21
-150.178
0
LINE
8
BLACK
6
CONTINUOUS
10
54.4641
20
-150.178
11
54.6546
21
-150.178
0
LINE
8
BLACK
6
CONTINUOUS
10
55.3213
20
-151.511
11
55.3213
21
-150.178
0
LINE
8
BLACK
6
CONTINUOUS
10
55.3213
20
-149.511
11
55.226
21
-149.606
0
LINE
8
BLACK
6
CONTINUOUS
10
55.226
20
-149.606
11
55.3213
21
-149.702
0
LINE
8
BLACK
6
CONTINUOUS
10
55.3213
20
-149.702
11
55.4165
21
-149.606
0
LINE
8
BLACK
6
CONTINUOUS
10
55.4165
20
-149.606
11
55.3213
21
-149.511
0
LINE
8
BLACK
6
CONTINUOUS
10
55.3213
20
-149.511
11
55.3213
21
-149.702
0
LINE
8
BLACK
6
CONTINUOUS
10
56.5594
20
-151.511
11
56.3689
21
-151.416
0
LINE
8
BLACK
6
CONTINUOUS
10
56.3689
20
-151.416
11
56.2737
21
-151.226
0
LINE
8
BLACK
6
CONTINUOUS
10
56.2737
20
-151.226
11
56.2737
21
-149.511
0
LINE
8
BLACK
6
CONTINUOUS
10
57.607
20
-151.511
11
57.4165
21
-151.416
0
LINE
8
BLACK
6
CONTINUOUS
10
57.4165
20
-151.416
11
57.3213
21
-151.226
0
LINE
8
BLACK
6
CONTINUOUS
10
57.3213
20
-151.226
11
57.3213
21
-149.511
0
LINE
8
BLACK
6
CONTINUOUS
10
59.8927
20
-151.511
11
59.8927
21
-149.511
0
LINE
8
BLACK
6
CONTINUOUS
10
59.8927
20
-149.511
11
60.5594
21
-150.94
0
LINE
8
BLACK
6
CONTINUOUS
10
60.5594
20
-150.94
11
61.226
21
-149.511
0
LINE
8
BLACK
6
CONTINUOUS
10
61.226
20
-149.511
11
61.226
21
-151.511
0
LINE
8
BLACK
6
CONTINUOUS
10
63.0356
20
-151.511
11
63.0356
21
-150.464
0
LINE
8
BLACK
6
CONTINUOUS
10
63.0356
20
-150.464
11
62.9403
21
-150.273
0
LINE
8
BLACK
6
CONTINUOUS
10
62.9403
20
-150.273
11
62.7499
21
-150.178
0
LINE
8
BLACK
6
CONTINUOUS
10
62.7499
20
-150.178
11
62.3689
21
-150.178
0
LINE
8
BLACK
6
CONTINUOUS
10
62.3689
20
-150.178
11
62.1784
21
-150.273
0
LINE
8
BLACK
6
CONTINUOUS
10
63.0356
20
-151.416
11
62.8451
21
-151.511
0
LINE
8
BLACK
6
CONTINUOUS
10
62.8451
20
-151.511
11
62.3689
21
-151.511
0
LINE
8
BLACK
6
CONTINUOUS
10
62.3689
20
-151.511
11
62.1784
21
-151.416
0
LINE
8
BLACK
6
CONTINUOUS
10
62.1784
20
-151.416
11
62.0832
21
-151.226
0
LINE
8
BLACK
6
CONTINUOUS
10
62.0832
20
-151.226
11
62.0832
21
-151.035
0
LINE
8
BLACK
6
CONTINUOUS
10
62.0832
20
-151.035
11
62.1784
21
-150.845
0
LINE
8
BLACK
6
CONTINUOUS
10
62.1784
20
-150.845
11
62.3689
21
-150.749
0
LINE
8
BLACK
6
CONTINUOUS
10
62.3689
20
-150.749
11
62.8451
21
-150.749
0
LINE
8
BLACK
6
CONTINUOUS
10
62.8451
20
-150.749
11
63.0356
21
-150.654
0
LINE
8
BLACK
6
CONTINUOUS
10
63.988
20
-150.178
11
63.988
21
-152.178
0
LINE
8
BLACK
6
CONTINUOUS
10
63.988
20
-150.273
11
64.1784
21
-150.178
0
LINE
8
BLACK
6
CONTINUOUS
10
64.1784
20
-150.178
11
64.5594
21
-150.178
0
LINE
8
BLACK
6
CONTINUOUS
10
64.5594
20
-150.178
11
64.7499
21
-150.273
0
LINE
8
BLACK
6
CONTINUOUS
10
64.7499
20
-150.273
11
64.8451
21
-150.368
0
LINE
8
BLACK
6
CONTINUOUS
10
64.8451
20
-150.368
11
64.9403
21
-150.559
0
LINE
8
BLACK
6
CONTINUOUS
10
64.9403
20
-150.559
11
64.9403
21
-151.13
0
LINE
8
BLACK
6
CONTINUOUS
10
64.9403
20
-151.13
11
64.8451
21
-151.321
0
LINE
8
BLACK
6
CONTINUOUS
10
64.8451
20
-151.321
11
64.7499
21
-151.416
0
LINE
8
BLACK
6
CONTINUOUS
10
64.7499
20
-151.416
11
64.5594
21
-151.511
0
LINE
8
BLACK
6
CONTINUOUS
10
64.5594
20
-151.511
11
64.1784
21
-151.511
0
LINE
8
BLACK
6
CONTINUOUS
10
64.1784
20
-151.511
11
63.988
21
-151.416
0
LINE
8
BLACK
6
CONTINUOUS
10
65.7975
20
-151.321
11
65.8927
21
-151.416
0
LINE
8
BLACK
6
CONTINUOUS
10
65.8927
20
-151.416
11
65.7975
21
-151.511
0
LINE
8
BLACK
6
CONTINUOUS
10
65.7975
20
-151.511
11
65.7022
21
-151.416
0
LINE
8
BLACK
6
CONTINUOUS
10
65.7022
20
-151.416
11
65.7975
21
-151.321
0
LINE
8
BLACK
6
CONTINUOUS
10
65.7975
20
-151.321
11
65.7975
21
-151.511
0
LINE
8
BLACK
6
CONTINUOUS
10
65.7975
20
-150.273
11
65.8927
21
-150.368
0
LINE
8
BLACK
6
CONTINUOUS
10
65.8927
20
-150.368
11
65.7975
21
-150.464
0
LINE
8
BLACK
6
CONTINUOUS
10
65.7975
20
-150.464
11
65.7022
21
-150.368
0
LINE
8
BLACK
6
CONTINUOUS
10
65.7022
20
-150.368
11
65.7975
21
-150.273
0
LINE
8
BLACK
6
CONTINUOUS
10
65.7975
20
-150.273
11
65.7975
21
-150.464
0
LINE
8
BLACK
6
CONTINUOUS
10
48.207
20
-154.086
11
49.607
21
-155.486
0
LINE
8
BLACK
6
CONTINUOUS
10
49.607
20
-154.086
11
48.207
21
-155.486
0
LINE
8
BLACK
6
CONTINUOUS
10
53.1308
20
-155.711
11
51.988
21
-155.711
0
LINE
8
BLACK
6
CONTINUOUS
10
52.5594
20
-155.711
11
52.5594
21
-153.711
0
LINE
8
BLACK
6
CONTINUOUS
10
52.5594
20
-153.711
11
52.3689
21
-153.997
0
LINE
8
BLACK
6
CONTINUOUS
10
52.3689
20
-153.997
11
52.1784
21
-154.187
0
LINE
8
BLACK
6
CONTINUOUS
10
52.1784
20
-154.187
11
51.988
21
-154.283
0
LINE
8
BLACK
6
CONTINUOUS
10
53.988
20
-155.521
11
54.0832
21
-155.616
0
LINE
8
BLACK
6
CONTINUOUS
10
54.0832
20
-155.616
11
53.988
21
-155.711
0
LINE
8
BLACK
6
CONTINUOUS
10
53.988
20
-155.711
11
53.8927
21
-155.616
0
LINE
8
BLACK
6
CONTINUOUS
10
53.8927
20
-155.616
11
53.988
21
-155.521
0
LINE
8
BLACK
6
CONTINUOUS
10
53.988
20
-155.521
11
53.988
21
-155.711
0
LINE
8
BLACK
6
CONTINUOUS
10
55.7975
20
-154.378
11
55.7975
21
-155.711
0
LINE
8
BLACK
6
CONTINUOUS
10
55.3213
20
-153.616
11
54.8451
21
-155.045
0
LINE
8
BLACK
6
CONTINUOUS
10
54.8451
20
-155.045
11
56.0832
21
-155.045
0
LINE
8
BLACK
6
CONTINUOUS
10
57.226
20
-153.711
11
57.4165
21
-153.711
0
LINE
8
BLACK
6
CONTINUOUS
10
57.4165
20
-153.711
11
57.607
21
-153.806
0
LINE
8
BLACK
6
CONTINUOUS
10
57.607
20
-153.806
11
57.7022
21
-153.902
0
LINE
8
BLACK
6
CONTINUOUS
10
57.7022
20
-153.902
11
57.7975
21
-154.092
0
LINE
8
BLACK
6
CONTINUOUS
10
57.7975
20
-154.092
11
57.8927
21
-154.473
0
LINE
8
BLACK
6
CONTINUOUS
10
57.8927
20
-154.473
11
57.8927
21
-154.949
0
LINE
8
BLACK
6
CONTINUOUS
10
57.8927
20
-154.949
11
57.7975
21
-155.33
0
LINE
8
BLACK
6
CONTINUOUS
10
57.7975
20
-155.33
11
57.7022
21
-155.521
0
LINE
8
BLACK
6
CONTINUOUS
10
57.7022
20
-155.521
11
57.607
21
-155.616
0
LINE
8
BLACK
6
CONTINUOUS
10
57.607
20
-155.616
11
57.4165
21
-155.711
0
LINE
8
BLACK
6
CONTINUOUS
10
57.4165
20
-155.711
11
57.226
21
-155.711
0
LINE
8
BLACK
6
CONTINUOUS
10
57.226
20
-155.711
11
57.0356
21
-155.616
0
LINE
8
BLACK
6
CONTINUOUS
10
57.0356
20
-155.616
11
56.9403
21
-155.521
0
LINE
8
BLACK
6
CONTINUOUS
10
56.9403
20
-155.521
11
56.8451
21
-155.33
0
LINE
8
BLACK
6
CONTINUOUS
10
56.8451
20
-155.33
11
56.7499
21
-154.949
0
LINE
8
BLACK
6
CONTINUOUS
10
56.7499
20
-154.949
11
56.7499
21
-154.473
0
LINE
8
BLACK
6
CONTINUOUS
10
56.7499
20
-154.473
11
56.8451
21
-154.092
0
LINE
8
BLACK
6
CONTINUOUS
10
56.8451
20
-154.092
11
56.9403
21
-153.902
0
LINE
8
BLACK
6
CONTINUOUS
10
56.9403
20
-153.902
11
57.0356
21
-153.806
0
LINE
8
BLACK
6
CONTINUOUS
10
57.0356
20
-153.806
11
57.226
21
-153.711
0
LINE
8
BLACK
6
CONTINUOUS
10
59.1308
20
-153.711
11
59.3213
21
-153.711
0
LINE
8
BLACK
6
CONTINUOUS
10
59.3213
20
-153.711
11
59.5118
21
-153.806
0
LINE
8
BLACK
6
CONTINUOUS
10
59.5118
20
-153.806
11
59.607
21
-153.902
0
LINE
8
BLACK
6
CONTINUOUS
10
59.607
20
-153.902
11
59.7022
21
-154.092
0
LINE
8
BLACK
6
CONTINUOUS
10
59.7022
20
-154.092
11
59.7975
21
-154.473
0
LINE
8
BLACK
6
CONTINUOUS
10
59.7975
20
-154.473
11
59.7975
21
-154.949
0
LINE
8
BLACK
6
CONTINUOUS
10
59.7975
20
-154.949
11
59.7022
21
-155.33
0
LINE
8
BLACK
6
CONTINUOUS
10
59.7022
20
-155.33
11
59.607
21
-155.521
0
LINE
8
BLACK
6
CONTINUOUS
10
59.607
20
-155.521
11
59.5118
21
-155.616
0
LINE
8
BLACK
6
CONTINUOUS
10
59.5118
20
-155.616
11
59.3213
21
-155.711
0
LINE
8
BLACK
6
CONTINUOUS
10
59.3213
20
-155.711
11
59.1308
21
-155.711
0
LINE
8
BLACK
6
CONTINUOUS
10
59.1308
20
-155.711
11
58.9403
21
-155.616
0
LINE
8
BLACK
6
CONTINUOUS
10
58.9403
20
-155.616
11
58.8451
21
-155.521
0
LINE
8
BLACK
6
CONTINUOUS
10
58.8451
20
-155.521
11
58.7499
21
-155.33
0
LINE
8
BLACK
6
CONTINUOUS
10
58.7499
20
-155.33
11
58.6546
21
-154.949
0
LINE
8
BLACK
6
CONTINUOUS
10
58.6546
20
-154.949
11
58.6546
21
-154.473
0
LINE
8
BLACK
6
CONTINUOUS
10
58.6546
20
-154.473
11
58.7499
21
-154.092
0
LINE
8
BLACK
6
CONTINUOUS
10
58.7499
20
-154.092
11
58.8451
21
-153.902
0
LINE
8
BLACK
6
CONTINUOUS
10
58.8451
20
-153.902
11
58.9403
21
-153.806
0
LINE
8
BLACK
6
CONTINUOUS
10
58.9403
20
-153.806
11
59.1308
21
-153.711
0
LINE
8
BLACK
6
CONTINUOUS
10
60.6546
20
-155.711
11
60.6546
21
-154.378
0
LINE
8
BLACK
6
CONTINUOUS
10
60.6546
20
-154.568
11
60.7499
21
-154.473
0
LINE
8
BLACK
6
CONTINUOUS
10
60.7499
20
-154.473
11
60.9403
21
-154.378
0
LINE
8
BLACK
6
CONTINUOUS
10
60.9403
20
-154.378
11
61.226
21
-154.378
0
LINE
8
BLACK
6
CONTINUOUS
10
61.226
20
-154.378
11
61.4165
21
-154.473
0
LINE
8
BLACK
6
CONTINUOUS
10
61.4165
20
-154.473
11
61.5118
21
-154.664
0
LINE
8
BLACK
6
CONTINUOUS
10
61.5118
20
-154.664
11
61.5118
21
-155.711
0
LINE
8
BLACK
6
CONTINUOUS
10
61.5118
20
-154.664
11
61.607
21
-154.473
0
LINE
8
BLACK
6
CONTINUOUS
10
61.607
20
-154.473
11
61.7975
21
-154.378
0
LINE
8
BLACK
6
CONTINUOUS
10
61.7975
20
-154.378
11
62.0832
21
-154.378
0
LINE
8
BLACK
6
CONTINUOUS
10
62.0832
20
-154.378
11
62.2737
21
-154.473
0
LINE
8
BLACK
6
CONTINUOUS
10
62.2737
20
-154.473
11
62.3689
21
-154.664
0
LINE
8
BLACK
6
CONTINUOUS
10
62.3689
20
-154.664
11
62.3689
21
-155.711
0
LINE
8
BLACK
6
CONTINUOUS
10
63.3213
20
-155.711
11
63.3213
21
-154.378
0
LINE
8
BLACK
6
CONTINUOUS
10
63.3213
20
-154.568
11
63.4165
21
-154.473
0
LINE
8
BLACK
6
CONTINUOUS
10
63.4165
20
-154.473
11
63.607
21
-154.378
0
LINE
8
BLACK
6
CONTINUOUS
10
63.607
20
-154.378
11
63.8927
21
-154.378
0
LINE
8
BLACK
6
CONTINUOUS
10
63.8927
20
-154.378
11
64.0832
21
-154.473
0
LINE
8
BLACK
6
CONTINUOUS
10
64.0832
20
-154.473
11
64.1784
21
-154.664
0
LINE
8
BLACK
6
CONTINUOUS
10
64.1784
20
-154.664
11
64.1784
21
-155.711
0
LINE
8
BLACK
6
CONTINUOUS
10
64.1784
20
-154.664
11
64.2737
21
-154.473
0
LINE
8
BLACK
6
CONTINUOUS
10
64.2737
20
-154.473
11
64.4641
21
-154.378
0
LINE
8
BLACK
6
CONTINUOUS
10
64.4641
20
-154.378
11
64.7499
21
-154.378
0
LINE
8
BLACK
6
CONTINUOUS
10
64.7499
20
-154.378
11
64.9403
21
-154.473
0
LINE
8
BLACK
6
CONTINUOUS
10
64.9403
20
-154.473
11
65.0356
21
-154.664
0
LINE
8
BLACK
6
CONTINUOUS
10
65.0356
20
-154.664
11
65.0356
21
-155.711
0
LINE
8
BLACK
6
CONTINUOUS
10
68.9403
20
-153.616
11
67.226
21
-156.187
0
LINE
8
BLACK
6
CONTINUOUS
10
71.5118
20
-153.711
11
71.7022
21
-153.711
0
LINE
8
BLACK
6
CONTINUOUS
10
71.7022
20
-153.711
11
71.8927
21
-153.806
0
LINE
8
BLACK
6
CONTINUOUS
10
71.8927
20
-153.806
11
71.988
21
-153.902
0
LINE
8
BLACK
6
CONTINUOUS
10
71.988
20
-153.902
11
72.0832
21
-154.092
0
LINE
8
BLACK
6
CONTINUOUS
10
72.0832
20
-154.092
11
72.1784
21
-154.473
0
LINE
8
BLACK
6
CONTINUOUS
10
72.1784
20
-154.473
11
72.1784
21
-154.949
0
LINE
8
BLACK
6
CONTINUOUS
10
72.1784
20
-154.949
11
72.0832
21
-155.33
0
LINE
8
BLACK
6
CONTINUOUS
10
72.0832
20
-155.33
11
71.988
21
-155.521
0
LINE
8
BLACK
6
CONTINUOUS
10
71.988
20
-155.521
11
71.8927
21
-155.616
0
LINE
8
BLACK
6
CONTINUOUS
10
71.8927
20
-155.616
11
71.7022
21
-155.711
0
LINE
8
BLACK
6
CONTINUOUS
10
71.7022
20
-155.711
11
71.5118
21
-155.711
0
LINE
8
BLACK
6
CONTINUOUS
10
71.5118
20
-155.711
11
71.3213
21
-155.616
0
LINE
8
BLACK
6
CONTINUOUS
10
71.3213
20
-155.616
11
71.226
21
-155.521
0
LINE
8
BLACK
6
CONTINUOUS
10
71.226
20
-155.521
11
71.1308
21
-155.33
0
LINE
8
BLACK
6
CONTINUOUS
10
71.1308
20
-155.33
11
71.0356
21
-154.949
0
LINE
8
BLACK
6
CONTINUOUS
10
71.0356
20
-154.949
11
71.0356
21
-154.473
0
LINE
8
BLACK
6
CONTINUOUS
10
71.0356
20
-154.473
11
71.1308
21
-154.092
0
LINE
8
BLACK
6
CONTINUOUS
10
71.1308
20
-154.092
11
71.226
21
-153.902
0
LINE
8
BLACK
6
CONTINUOUS
10
71.226
20
-153.902
11
71.3213
21
-153.806
0
LINE
8
BLACK
6
CONTINUOUS
10
71.3213
20
-153.806
11
71.5118
21
-153.711
0
LINE
8
BLACK
6
CONTINUOUS
10
73.0356
20
-155.521
11
73.1308
21
-155.616
0
LINE
8
BLACK
6
CONTINUOUS
10
73.1308
20
-155.616
11
73.0356
21
-155.711
0
LINE
8
BLACK
6
CONTINUOUS
10
73.0356
20
-155.711
11
72.9403
21
-155.616
0
LINE
8
BLACK
6
CONTINUOUS
10
72.9403
20
-155.616
11
73.0356
21
-155.521
0
LINE
8
BLACK
6
CONTINUOUS
10
73.0356
20
-155.521
11
73.0356
21
-155.711
0
LINE
8
BLACK
6
CONTINUOUS
10
74.3689
20
-153.711
11
74.5594
21
-153.711
0
LINE
8
BLACK
6
CONTINUOUS
10
74.5594
20
-153.711
11
74.7499
21
-153.806
0
LINE
8
BLACK
6
CONTINUOUS
10
74.7499
20
-153.806
11
74.8451
21
-153.902
0
LINE
8
BLACK
6
CONTINUOUS
10
74.8451
20
-153.902
11
74.9403
21
-154.092
0
LINE
8
BLACK
6
CONTINUOUS
10
74.9403
20
-154.092
11
75.0356
21
-154.473
0
LINE
8
BLACK
6
CONTINUOUS
10
75.0356
20
-154.473
11
75.0356
21
-154.949
0
LINE
8
BLACK
6
CONTINUOUS
10
75.0356
20
-154.949
11
74.9403
21
-155.33
0
LINE
8
BLACK
6
CONTINUOUS
10
74.9403
20
-155.33
11
74.8451
21
-155.521
0
LINE
8
BLACK
6
CONTINUOUS
10
74.8451
20
-155.521
11
74.7499
21
-155.616
0
LINE
8
BLACK
6
CONTINUOUS
10
74.7499
20
-155.616
11
74.5594
21
-155.711
0
LINE
8
BLACK
6
CONTINUOUS
10
74.5594
20
-155.711
11
74.3689
21
-155.711
0
LINE
8
BLACK
6
CONTINUOUS
10
74.3689
20
-155.711
11
74.1784
21
-155.616
0
LINE
8
BLACK
6
CONTINUOUS
10
74.1784
20
-155.616
11
74.0832
21
-155.521
0
LINE
8
BLACK
6
CONTINUOUS
10
74.0832
20
-155.521
11
73.988
21
-155.33
0
LINE
8
BLACK
6
CONTINUOUS
10
73.988
20
-155.33
11
73.8927
21
-154.949
0
LINE
8
BLACK
6
CONTINUOUS
10
73.8927
20
-154.949
11
73.8927
21
-154.473
0
LINE
8
BLACK
6
CONTINUOUS
10
73.8927
20
-154.473
11
73.988
21
-154.092
0
LINE
8
BLACK
6
CONTINUOUS
10
73.988
20
-154.092
11
74.0832
21
-153.902
0
LINE
8
BLACK
6
CONTINUOUS
10
74.0832
20
-153.902
11
74.1784
21
-153.806
0
LINE
8
BLACK
6
CONTINUOUS
10
74.1784
20
-153.806
11
74.3689
21
-153.711
0
LINE
8
BLACK
6
CONTINUOUS
10
76.8451
20
-153.711
11
75.8927
21
-153.711
0
LINE
8
BLACK
6
CONTINUOUS
10
75.8927
20
-153.711
11
75.7975
21
-154.664
0
LINE
8
BLACK
6
CONTINUOUS
10
75.7975
20
-154.664
11
75.8927
21
-154.568
0
LINE
8
BLACK
6
CONTINUOUS
10
75.8927
20
-154.568
11
76.0832
21
-154.473
0
LINE
8
BLACK
6
CONTINUOUS
10
76.0832
20
-154.473
11
76.5594
21
-154.473
0
LINE
8
BLACK
6
CONTINUOUS
10
76.5594
20
-154.473
11
76.7499
21
-154.568
0
LINE
8
BLACK
6
CONTINUOUS
10
76.7499
20
-154.568
11
76.8451
21
-154.664
0
LINE
8
BLACK
6
CONTINUOUS
10
76.8451
20
-154.664
11
76.9403
21
-154.854
0
LINE
8
BLACK
6
CONTINUOUS
10
76.9403
20
-154.854
11
76.9403
21
-155.33
0
LINE
8
BLACK
6
CONTINUOUS
10
76.9403
20
-155.33
11
76.8451
21
-155.521
0
LINE
8
BLACK
6
CONTINUOUS
10
76.8451
20
-155.521
11
76.7499
21
-155.616
0
LINE
8
BLACK
6
CONTINUOUS
10
76.7499
20
-155.616
11
76.5594
21
-155.711
0
LINE
8
BLACK
6
CONTINUOUS
10
76.5594
20
-155.711
11
76.0832
21
-155.711
0
LINE
8
BLACK
6
CONTINUOUS
10
76.0832
20
-155.711
11
75.8927
21
-155.616
0
LINE
8
BLACK
6
CONTINUOUS
10
75.8927
20
-155.616
11
75.7975
21
-155.521
0
LINE
8
BLACK
6
CONTINUOUS
10
78.7499
20
-153.711
11
77.7975
21
-153.711
0
LINE
8
BLACK
6
CONTINUOUS
10
77.7975
20
-153.711
11
77.7022
21
-154.664
0
LINE
8
BLACK
6
CONTINUOUS
10
77.7022
20
-154.664
11
77.7975
21
-154.568
0
LINE
8
BLACK
6
CONTINUOUS
10
77.7975
20
-154.568
11
77.988
21
-154.473
0
LINE
8
BLACK
6
CONTINUOUS
10
77.988
20
-154.473
11
78.4641
21
-154.473
0
LINE
8
BLACK
6
CONTINUOUS
10
78.4641
20
-154.473
11
78.6546
21
-154.568
0
LINE
8
BLACK
6
CONTINUOUS
10
78.6546
20
-154.568
11
78.7499
21
-154.664
0
LINE
8
BLACK
6
CONTINUOUS
10
78.7499
20
-154.664
11
78.8451
21
-154.854
0
LINE
8
BLACK
6
CONTINUOUS
10
78.8451
20
-154.854
11
78.8451
21
-155.33
0
LINE
8
BLACK
6
CONTINUOUS
10
78.8451
20
-155.33
11
78.7499
21
-155.521
0
LINE
8
BLACK
6
CONTINUOUS
10
78.7499
20
-155.521
11
78.6546
21
-155.616
0
LINE
8
BLACK
6
CONTINUOUS
10
78.6546
20
-155.616
11
78.4641
21
-155.711
0
LINE
8
BLACK
6
CONTINUOUS
10
78.4641
20
-155.711
11
77.988
21
-155.711
0
LINE
8
BLACK
6
CONTINUOUS
10
77.988
20
-155.711
11
77.7975
21
-155.616
0
LINE
8
BLACK
6
CONTINUOUS
10
77.7975
20
-155.616
11
77.7022
21
-155.521
0
LINE
8
BLACK
6
CONTINUOUS
10
80.7499
20
-155.711
11
79.607
21
-155.711
0
LINE
8
BLACK
6
CONTINUOUS
10
80.1784
20
-155.711
11
80.1784
21
-153.711
0
LINE
8
BLACK
6
CONTINUOUS
10
80.1784
20
-153.711
11
79.988
21
-153.997
0
LINE
8
BLACK
6
CONTINUOUS
10
79.988
20
-153.997
11
79.7975
21
-154.187
0
LINE
8
BLACK
6
CONTINUOUS
10
79.7975
20
-154.187
11
79.607
21
-154.283
0
LINE
8
BLACK
6
CONTINUOUS
10
81.5118
20
-153.711
11
81.5118
21
-154.092
0
LINE
8
BLACK
6
CONTINUOUS
10
82.2737
20
-153.711
11
82.2737
21
-154.092
0
LINE
8
BLACK
6
CONTINUOUS
10
85.2261
20
-156.473
11
85.1308
21
-156.378
0
LINE
8
BLACK
6
CONTINUOUS
10
85.1308
20
-156.378
11
84.9403
21
-156.092
0
LINE
8
BLACK
6
CONTINUOUS
10
84.9403
20
-156.092
11
84.8451
21
-155.902
0
LINE
8
BLACK
6
CONTINUOUS
10
84.8451
20
-155.902
11
84.7499
21
-155.616
0
LINE
8
BLACK
6
CONTINUOUS
10
84.7499
20
-155.616
11
84.6546
21
-155.14
0
LINE
8
BLACK
6
CONTINUOUS
10
84.6546
20
-155.14
11
84.6546
21
-154.759
0
LINE
8
BLACK
6
CONTINUOUS
10
84.6546
20
-154.759
11
84.7499
21
-154.283
0
LINE
8
BLACK
6
CONTINUOUS
10
84.7499
20
-154.283
11
84.8451
21
-153.997
0
LINE
8
BLACK
6
CONTINUOUS
10
84.8451
20
-153.997
11
84.9403
21
-153.806
0
LINE
8
BLACK
6
CONTINUOUS
10
84.9403
20
-153.806
11
85.1308
21
-153.521
0
LINE
8
BLACK
6
CONTINUOUS
10
85.1308
20
-153.521
11
85.2261
21
-153.426
0
LINE
8
BLACK
6
CONTINUOUS
10
85.8927
20
-153.902
11
85.988
21
-153.806
0
LINE
8
BLACK
6
CONTINUOUS
10
85.988
20
-153.806
11
86.1784
21
-153.711
0
LINE
8
BLACK
6
CONTINUOUS
10
86.1784
20
-153.711
11
86.6546
21
-153.711
0
LINE
8
BLACK
6
CONTINUOUS
10
86.6546
20
-153.711
11
86.8451
21
-153.806
0
LINE
8
BLACK
6
CONTINUOUS
10
86.8451
20
-153.806
11
86.9403
21
-153.902
0
LINE
8
BLACK
6
CONTINUOUS
10
86.9403
20
-153.902
11
87.0356
21
-154.092
0
LINE
8
BLACK
6
CONTINUOUS
10
87.0356
20
-154.092
11
87.0356
21
-154.283
0
LINE
8
BLACK
6
CONTINUOUS
10
87.0356
20
-154.283
11
86.9403
21
-154.568
0
LINE
8
BLACK
6
CONTINUOUS
10
86.9403
20
-154.568
11
85.7975
21
-155.711
0
LINE
8
BLACK
6
CONTINUOUS
10
85.7975
20
-155.711
11
87.0356
21
-155.711
0
LINE
8
BLACK
6
CONTINUOUS
10
89.4165
20
-155.711
11
89.4165
21
-153.711
0
LINE
8
BLACK
6
CONTINUOUS
10
90.2737
20
-155.711
11
90.2737
21
-154.664
0
LINE
8
BLACK
6
CONTINUOUS
10
90.2737
20
-154.664
11
90.1784
21
-154.473
0
LINE
8
BLACK
6
CONTINUOUS
10
90.1784
20
-154.473
11
89.988
21
-154.378
0
LINE
8
BLACK
6
CONTINUOUS
10
89.988
20
-154.378
11
89.7022
21
-154.378
0
LINE
8
BLACK
6
CONTINUOUS
10
89.7022
20
-154.378
11
89.5118
21
-154.473
0
LINE
8
BLACK
6
CONTINUOUS
10
89.5118
20
-154.473
11
89.4165
21
-154.568
0
LINE
8
BLACK
6
CONTINUOUS
10
91.5118
20
-155.711
11
91.3213
21
-155.616
0
LINE
8
BLACK
6
CONTINUOUS
10
91.3213
20
-155.616
11
91.2261
21
-155.521
0
LINE
8
BLACK
6
CONTINUOUS
10
91.2261
20
-155.521
11
91.1308
21
-155.33
0
LINE
8
BLACK
6
CONTINUOUS
10
91.1308
20
-155.33
11
91.1308
21
-154.759
0
LINE
8
BLACK
6
CONTINUOUS
10
91.1308
20
-154.759
11
91.2261
21
-154.568
0
LINE
8
BLACK
6
CONTINUOUS
10
91.2261
20
-154.568
11
91.3213
21
-154.473
0
LINE
8
BLACK
6
CONTINUOUS
10
91.3213
20
-154.473
11
91.5118
21
-154.378
0
LINE
8
BLACK
6
CONTINUOUS
10
91.5118
20
-154.378
11
91.7975
21
-154.378
0
LINE
8
BLACK
6
CONTINUOUS
10
91.7975
20
-154.378
11
91.988
21
-154.473
0
LINE
8
BLACK
6
CONTINUOUS
10
91.988
20
-154.473
11
92.0832
21
-154.568
0
LINE
8
BLACK
6
CONTINUOUS
10
92.0832
20
-154.568
11
92.1784
21
-154.759
0
LINE
8
BLACK
6
CONTINUOUS
10
92.1784
20
-154.759
11
92.1784
21
-155.33
0
LINE
8
BLACK
6
CONTINUOUS
10
92.1784
20
-155.33
11
92.0832
21
-155.521
0
LINE
8
BLACK
6
CONTINUOUS
10
92.0832
20
-155.521
11
91.988
21
-155.616
0
LINE
8
BLACK
6
CONTINUOUS
10
91.988
20
-155.616
11
91.7975
21
-155.711
0
LINE
8
BLACK
6
CONTINUOUS
10
91.7975
20
-155.711
11
91.5118
21
-155.711
0
LINE
8
BLACK
6
CONTINUOUS
10
93.3213
20
-155.711
11
93.1308
21
-155.616
0
LINE
8
BLACK
6
CONTINUOUS
10
93.1308
20
-155.616
11
93.0356
21
-155.426
0
LINE
8
BLACK
6
CONTINUOUS
10
93.0356
20
-155.426
11
93.0356
21
-153.711
0
LINE
8
BLACK
6
CONTINUOUS
10
94.8451
20
-155.616
11
94.6546
21
-155.711
0
LINE
8
BLACK
6
CONTINUOUS
10
94.6546
20
-155.711
11
94.2737
21
-155.711
0
LINE
8
BLACK
6
CONTINUOUS
10
94.2737
20
-155.711
11
94.0832
21
-155.616
0
LINE
8
BLACK
6
CONTINUOUS
10
94.0832
20
-155.616
11
93.988
21
-155.426
0
LINE
8
BLACK
6
CONTINUOUS
10
93.988
20
-155.426
11
93.988
21
-154.664
0
LINE
8
BLACK
6
CONTINUOUS
10
93.988
20
-154.664
11
94.0832
21
-154.473
0
LINE
8
BLACK
6
CONTINUOUS
10
94.0832
20
-154.473
11
94.2737
21
-154.378
0
LINE
8
BLACK
6
CONTINUOUS
10
94.2737
20
-154.378
11
94.6546
21
-154.378
0
LINE
8
BLACK
6
CONTINUOUS
10
94.6546
20
-154.378
11
94.8451
21
-154.473
0
LINE
8
BLACK
6
CONTINUOUS
10
94.8451
20
-154.473
11
94.9403
21
-154.664
0
LINE
8
BLACK
6
CONTINUOUS
10
94.9403
20
-154.664
11
94.9403
21
-154.854
0
LINE
8
BLACK
6
CONTINUOUS
10
94.9403
20
-154.854
11
93.988
21
-155.045
0
LINE
8
BLACK
6
CONTINUOUS
10
95.7022
20
-155.616
11
95.8927
21
-155.711
0
LINE
8
BLACK
6
CONTINUOUS
10
95.8927
20
-155.711
11
96.2737
21
-155.711
0
LINE
8
BLACK
6
CONTINUOUS
10
96.2737
20
-155.711
11
96.4641
21
-155.616
0
LINE
8
BLACK
6
CONTINUOUS
10
96.4641
20
-155.616
11
96.5594
21
-155.426
0
LINE
8
BLACK
6
CONTINUOUS
10
96.5594
20
-155.426
11
96.5594
21
-155.33
0
LINE
8
BLACK
6
CONTINUOUS
10
96.5594
20
-155.33
11
96.4641
21
-155.14
0
LINE
8
BLACK
6
CONTINUOUS
10
96.4641
20
-155.14
11
96.2737
21
-155.045
0
LINE
8
BLACK
6
CONTINUOUS
10
96.2737
20
-155.045
11
95.988
21
-155.045
0
LINE
8
BLACK
6
CONTINUOUS
10
95.988
20
-155.045
11
95.7975
21
-154.949
0
LINE
8
BLACK
6
CONTINUOUS
10
95.7975
20
-154.949
11
95.7022
21
-154.759
0
LINE
8
BLACK
6
CONTINUOUS
10
95.7022
20
-154.759
11
95.7022
21
-154.664
0
LINE
8
BLACK
6
CONTINUOUS
10
95.7022
20
-154.664
11
95.7975
21
-154.473
0
LINE
8
BLACK
6
CONTINUOUS
10
95.7975
20
-154.473
11
95.988
21
-154.378
0
LINE
8
BLACK
6
CONTINUOUS
10
95.988
20
-154.378
11
96.2737
21
-154.378
0
LINE
8
BLACK
6
CONTINUOUS
10
96.2737
20
-154.378
11
96.4641
21
-154.473
0
LINE
8
BLACK
6
CONTINUOUS
10
97.2261
20
-156.473
11
97.3213
21
-156.378
0
LINE
8
BLACK
6
CONTINUOUS
10
97.3213
20
-156.378
11
97.5118
21
-156.092
0
LINE
8
BLACK
6
CONTINUOUS
10
97.5118
20
-156.092
11
97.607
21
-155.902
0
LINE
8
BLACK
6
CONTINUOUS
10
97.607
20
-155.902
11
97.7022
21
-155.616
0
LINE
8
BLACK
6
CONTINUOUS
10
97.7022
20
-155.616
11
97.7975
21
-155.14
0
LINE
8
BLACK
6
CONTINUOUS
10
97.7975
20
-155.14
11
97.7975
21
-154.759
0
LINE
8
BLACK
6
CONTINUOUS
10
97.7975
20
-154.759
11
97.7022
21
-154.283
0
LINE
8
BLACK
6
CONTINUOUS
10
97.7022
20
-154.283
11
97.607
21
-153.997
0
LINE
8
BLACK
6
CONTINUOUS
10
97.607
20
-153.997
11
97.5118
21
-153.806
0
LINE
8
BLACK
6
CONTINUOUS
10
97.5118
20
-153.806
11
97.3213
21
-153.521
0
LINE
8
BLACK
6
CONTINUOUS
10
97.3213
20
-153.521
11
97.2261
21
-153.426
0
LINE
8
BLACK
6
CONTINUOUS
10
100.845
20
-156.473
11
100.75
21
-156.378
0
LINE
8
BLACK
6
CONTINUOUS
10
100.75
20
-156.378
11
100.559
21
-156.092
0
LINE
8
BLACK
6
CONTINUOUS
10
100.559
20
-156.092
11
100.464
21
-155.902
0
LINE
8
BLACK
6
CONTINUOUS
10
100.464
20
-155.902
11
100.369
21
-155.616
0
LINE
8
BLACK
6
CONTINUOUS
10
100.369
20
-155.616
11
100.274
21
-155.14
0
LINE
8
BLACK
6
CONTINUOUS
10
100.274
20
-155.14
11
100.274
21
-154.759
0
LINE
8
BLACK
6
CONTINUOUS
10
100.274
20
-154.759
11
100.369
21
-154.283
0
LINE
8
BLACK
6
CONTINUOUS
10
100.369
20
-154.283
11
100.464
21
-153.997
0
LINE
8
BLACK
6
CONTINUOUS
10
100.464
20
-153.997
11
100.559
21
-153.806
0
LINE
8
BLACK
6
CONTINUOUS
10
100.559
20
-153.806
11
100.75
21
-153.521
0
LINE
8
BLACK
6
CONTINUOUS
10
100.75
20
-153.521
11
100.845
21
-153.426
0
LINE
8
BLACK
6
CONTINUOUS
10
101.607
20
-154.378
11
101.607
21
-155.711
0
LINE
8
BLACK
6
CONTINUOUS
10
101.607
20
-154.568
11
101.702
21
-154.473
0
LINE
8
BLACK
6
CONTINUOUS
10
101.702
20
-154.473
11
101.893
21
-154.378
0
LINE
8
BLACK
6
CONTINUOUS
10
101.893
20
-154.378
11
102.178
21
-154.378
0
LINE
8
BLACK
6
CONTINUOUS
10
102.178
20
-154.378
11
102.369
21
-154.473
0
LINE
8
BLACK
6
CONTINUOUS
10
102.369
20
-154.473
11
102.464
21
-154.664
0
LINE
8
BLACK
6
CONTINUOUS
10
102.464
20
-154.664
11
102.464
21
-155.711
0
LINE
8
BLACK
6
CONTINUOUS
10
103.702
20
-155.711
11
103.512
21
-155.616
0
LINE
8
BLACK
6
CONTINUOUS
10
103.512
20
-155.616
11
103.417
21
-155.521
0
LINE
8
BLACK
6
CONTINUOUS
10
103.417
20
-155.521
11
103.321
21
-155.33
0
LINE
8
BLACK
6
CONTINUOUS
10
103.321
20
-155.33
11
103.321
21
-154.759
0
LINE
8
BLACK
6
CONTINUOUS
10
103.321
20
-154.759
11
103.417
21
-154.568
0
LINE
8
BLACK
6
CONTINUOUS
10
103.417
20
-154.568
11
103.512
21
-154.473
0
LINE
8
BLACK
6
CONTINUOUS
10
103.512
20
-154.473
11
103.702
21
-154.378
0
LINE
8
BLACK
6
CONTINUOUS
10
103.702
20
-154.378
11
103.988
21
-154.378
0
LINE
8
BLACK
6
CONTINUOUS
10
103.988
20
-154.378
11
104.178
21
-154.473
0
LINE
8
BLACK
6
CONTINUOUS
10
104.178
20
-154.473
11
104.274
21
-154.568
0
LINE
8
BLACK
6
CONTINUOUS
10
104.274
20
-154.568
11
104.369
21
-154.759
0
LINE
8
BLACK
6
CONTINUOUS
10
104.369
20
-154.759
11
104.369
21
-155.33
0
LINE
8
BLACK
6
CONTINUOUS
10
104.369
20
-155.33
11
104.274
21
-155.521
0
LINE
8
BLACK
6
CONTINUOUS
10
104.274
20
-155.521
11
104.178
21
-155.616
0
LINE
8
BLACK
6
CONTINUOUS
10
104.178
20
-155.616
11
103.988
21
-155.711
0
LINE
8
BLACK
6
CONTINUOUS
10
103.988
20
-155.711
11
103.702
21
-155.711
0
LINE
8
BLACK
6
CONTINUOUS
10
104.94
20
-154.378
11
105.702
21
-154.378
0
LINE
8
BLACK
6
CONTINUOUS
10
105.226
20
-153.711
11
105.226
21
-155.426
0
LINE
8
BLACK
6
CONTINUOUS
10
105.226
20
-155.426
11
105.321
21
-155.616
0
LINE
8
BLACK
6
CONTINUOUS
10
105.321
20
-155.616
11
105.512
21
-155.711
0
LINE
8
BLACK
6
CONTINUOUS
10
105.512
20
-155.711
11
105.702
21
-155.711
0
LINE
8
BLACK
6
CONTINUOUS
10
107.893
20
-154.378
11
107.893
21
-156.378
0
LINE
8
BLACK
6
CONTINUOUS
10
107.893
20
-154.473
11
108.083
21
-154.378
0
LINE
8
BLACK
6
CONTINUOUS
10
108.083
20
-154.378
11
108.464
21
-154.378
0
LINE
8
BLACK
6
CONTINUOUS
10
108.464
20
-154.378
11
108.655
21
-154.473
0
LINE
8
BLACK
6
CONTINUOUS
10
108.655
20
-154.473
11
108.75
21
-154.568
0
LINE
8
BLACK
6
CONTINUOUS
10
108.75
20
-154.568
11
108.845
21
-154.759
0
LINE
8
BLACK
6
CONTINUOUS
10
108.845
20
-154.759
11
108.845
21
-155.33
0
LINE
8
BLACK
6
CONTINUOUS
10
108.845
20
-155.33
11
108.75
21
-155.521
0
LINE
8
BLACK
6
CONTINUOUS
10
108.75
20
-155.521
11
108.655
21
-155.616
0
LINE
8
BLACK
6
CONTINUOUS
10
108.655
20
-155.616
11
108.464
21
-155.711
0
LINE
8
BLACK
6
CONTINUOUS
10
108.464
20
-155.711
11
108.083
21
-155.711
0
LINE
8
BLACK
6
CONTINUOUS
10
108.083
20
-155.711
11
107.893
21
-155.616
0
LINE
8
BLACK
6
CONTINUOUS
10
109.988
20
-155.711
11
109.797
21
-155.616
0
LINE
8
BLACK
6
CONTINUOUS
10
109.797
20
-155.616
11
109.702
21
-155.426
0
LINE
8
BLACK
6
CONTINUOUS
10
109.702
20
-155.426
11
109.702
21
-153.711
0
LINE
8
BLACK
6
CONTINUOUS
10
111.607
20
-155.711
11
111.607
21
-154.664
0
LINE
8
BLACK
6
CONTINUOUS
10
111.607
20
-154.664
11
111.512
21
-154.473
0
LINE
8
BLACK
6
CONTINUOUS
10
111.512
20
-154.473
11
111.321
21
-154.378
0
LINE
8
BLACK
6
CONTINUOUS
10
111.321
20
-154.378
11
110.94
21
-154.378
0
LINE
8
BLACK
6
CONTINUOUS
10
110.94
20
-154.378
11
110.75
21
-154.473
0
LINE
8
BLACK
6
CONTINUOUS
10
111.607
20
-155.616
11
111.417
21
-155.711
0
LINE
8
BLACK
6
CONTINUOUS
10
111.417
20
-155.711
11
110.94
21
-155.711
0
LINE
8
BLACK
6
CONTINUOUS
10
110.94
20
-155.711
11
110.75
21
-155.616
0
LINE
8
BLACK
6
CONTINUOUS
10
110.75
20
-155.616
11
110.655
21
-155.426
0
LINE
8
BLACK
6
CONTINUOUS
10
110.655
20
-155.426
11
110.655
21
-155.235
0
LINE
8
BLACK
6
CONTINUOUS
10
110.655
20
-155.235
11
110.75
21
-155.045
0
LINE
8
BLACK
6
CONTINUOUS
10
110.75
20
-155.045
11
110.94
21
-154.949
0
LINE
8
BLACK
6
CONTINUOUS
10
110.94
20
-154.949
11
111.417
21
-154.949
0
LINE
8
BLACK
6
CONTINUOUS
10
111.417
20
-154.949
11
111.607
21
-154.854
0
LINE
8
BLACK
6
CONTINUOUS
10
112.274
20
-154.378
11
113.036
21
-154.378
0
LINE
8
BLACK
6
CONTINUOUS
10
112.559
20
-153.711
11
112.559
21
-155.426
0
LINE
8
BLACK
6
CONTINUOUS
10
112.559
20
-155.426
11
112.655
21
-155.616
0
LINE
8
BLACK
6
CONTINUOUS
10
112.655
20
-155.616
11
112.845
21
-155.711
0
LINE
8
BLACK
6
CONTINUOUS
10
112.845
20
-155.711
11
113.036
21
-155.711
0
LINE
8
BLACK
6
CONTINUOUS
10
114.464
20
-155.616
11
114.274
21
-155.711
0
LINE
8
BLACK
6
CONTINUOUS
10
114.274
20
-155.711
11
113.893
21
-155.711
0
LINE
8
BLACK
6
CONTINUOUS
10
113.893
20
-155.711
11
113.702
21
-155.616
0
LINE
8
BLACK
6
CONTINUOUS
10
113.702
20
-155.616
11
113.607
21
-155.426
0
LINE
8
BLACK
6
CONTINUOUS
10
113.607
20
-155.426
11
113.607
21
-154.664
0
LINE
8
BLACK
6
CONTINUOUS
10
113.607
20
-154.664
11
113.702
21
-154.473
0
LINE
8
BLACK
6
CONTINUOUS
10
113.702
20
-154.473
11
113.893
21
-154.378
0
LINE
8
BLACK
6
CONTINUOUS
10
113.893
20
-154.378
11
114.274
21
-154.378
0
LINE
8
BLACK
6
CONTINUOUS
10
114.274
20
-154.378
11
114.464
21
-154.473
0
LINE
8
BLACK
6
CONTINUOUS
10
114.464
20
-154.473
11
114.559
21
-154.664
0
LINE
8
BLACK
6
CONTINUOUS
10
114.559
20
-154.664
11
114.559
21
-154.854
0
LINE
8
BLACK
6
CONTINUOUS
10
114.559
20
-154.854
11
113.607
21
-155.045
0
LINE
8
BLACK
6
CONTINUOUS
10
116.274
20
-155.711
11
116.274
21
-153.711
0
LINE
8
BLACK
6
CONTINUOUS
10
116.274
20
-155.616
11
116.083
21
-155.711
0
LINE
8
BLACK
6
CONTINUOUS
10
116.083
20
-155.711
11
115.702
21
-155.711
0
LINE
8
BLACK
6
CONTINUOUS
10
115.702
20
-155.711
11
115.512
21
-155.616
0
LINE
8
BLACK
6
CONTINUOUS
10
115.512
20
-155.616
11
115.417
21
-155.521
0
LINE
8
BLACK
6
CONTINUOUS
10
115.417
20
-155.521
11
115.321
21
-155.33
0
LINE
8
BLACK
6
CONTINUOUS
10
115.321
20
-155.33
11
115.321
21
-154.759
0
LINE
8
BLACK
6
CONTINUOUS
10
115.321
20
-154.759
11
115.417
21
-154.568
0
LINE
8
BLACK
6
CONTINUOUS
10
115.417
20
-154.568
11
115.512
21
-154.473
0
LINE
8
BLACK
6
CONTINUOUS
10
115.512
20
-154.473
11
115.702
21
-154.378
0
LINE
8
BLACK
6
CONTINUOUS
10
115.702
20
-154.378
11
116.083
21
-154.378
0
LINE
8
BLACK
6
CONTINUOUS
10
116.083
20
-154.378
11
116.274
21
-154.473
0
LINE
8
BLACK
6
CONTINUOUS
10
117.036
20
-156.473
11
117.131
21
-156.378
0
LINE
8
BLACK
6
CONTINUOUS
10
117.131
20
-156.378
11
117.321
21
-156.092
0
LINE
8
BLACK
6
CONTINUOUS
10
117.321
20
-156.092
11
117.417
21
-155.902
0
LINE
8
BLACK
6
CONTINUOUS
10
117.417
20
-155.902
11
117.512
21
-155.616
0
LINE
8
BLACK
6
CONTINUOUS
10
117.512
20
-155.616
11
117.607
21
-155.14
0
LINE
8
BLACK
6
CONTINUOUS
10
117.607
20
-155.14
11
117.607
21
-154.759
0
LINE
8
BLACK
6
CONTINUOUS
10
117.607
20
-154.759
11
117.512
21
-154.283
0
LINE
8
BLACK
6
CONTINUOUS
10
117.512
20
-154.283
11
117.417
21
-153.997
0
LINE
8
BLACK
6
CONTINUOUS
10
117.417
20
-153.997
11
117.321
21
-153.806
0
LINE
8
BLACK
6
CONTINUOUS
10
117.321
20
-153.806
11
117.131
21
-153.521
0
LINE
8
BLACK
6
CONTINUOUS
10
117.131
20
-153.521
11
117.036
21
-153.426
0
CIRCLE
8
BLACK
10
48.8069
20
-157.426
40
0.8001
0
LINE
8
BLACK
6
CONTINUOUS
10
53.1308
20
-158.351
11
51.988
21
-158.351
0
LINE
8
BLACK
6
CONTINUOUS
10
52.5594
20
-158.351
11
52.5594
21
-156.351
0
LINE
8
BLACK
6
CONTINUOUS
10
52.5594
20
-156.351
11
52.3689
21
-156.637
0
LINE
8
BLACK
6
CONTINUOUS
10
52.3689
20
-156.637
11
52.1784
21
-156.827
0
LINE
8
BLACK
6
CONTINUOUS
10
52.1784
20
-156.827
11
51.988
21
-156.923
0
LINE
8
BLACK
6
CONTINUOUS
10
53.988
20
-158.161
11
54.0832
21
-158.256
0
LINE
8
BLACK
6
CONTINUOUS
10
54.0832
20
-158.256
11
53.988
21
-158.351
0
LINE
8
BLACK
6
CONTINUOUS
10
53.988
20
-158.351
11
53.8927
21
-158.256
0
LINE
8
BLACK
6
CONTINUOUS
10
53.8927
20
-158.256
11
53.988
21
-158.161
0
LINE
8
BLACK
6
CONTINUOUS
10
53.988
20
-158.161
11
53.988
21
-158.351
0
LINE
8
BLACK
6
CONTINUOUS
10
55.7975
20
-156.351
11
55.4165
21
-156.351
0
LINE
8
BLACK
6
CONTINUOUS
10
55.4165
20
-156.351
11
55.226
21
-156.446
0
LINE
8
BLACK
6
CONTINUOUS
10
55.226
20
-156.446
11
55.1308
21
-156.542
0
LINE
8
BLACK
6
CONTINUOUS
10
55.1308
20
-156.542
11
54.9403
21
-156.827
0
LINE
8
BLACK
6
CONTINUOUS
10
54.9403
20
-156.827
11
54.8451
21
-157.208
0
LINE
8
BLACK
6
CONTINUOUS
10
54.8451
20
-157.208
11
54.8451
21
-157.97
0
LINE
8
BLACK
6
CONTINUOUS
10
54.8451
20
-157.97
11
54.9403
21
-158.161
0
LINE
8
BLACK
6
CONTINUOUS
10
54.9403
20
-158.161
11
55.0356
21
-158.256
0
LINE
8
BLACK
6
CONTINUOUS
10
55.0356
20
-158.256
11
55.226
21
-158.351
0
LINE
8
BLACK
6
CONTINUOUS
10
55.226
20
-158.351
11
55.607
21
-158.351
0
LINE
8
BLACK
6
CONTINUOUS
10
55.607
20
-158.351
11
55.7975
21
-158.256
0
LINE
8
BLACK
6
CONTINUOUS
10
55.7975
20
-158.256
11
55.8927
21
-158.161
0
LINE
8
BLACK
6
CONTINUOUS
10
55.8927
20
-158.161
11
55.988
21
-157.97
0
LINE
8
BLACK
6
CONTINUOUS
10
55.988
20
-157.97
11
55.988
21
-157.494
0
LINE
8
BLACK
6
CONTINUOUS
10
55.988
20
-157.494
11
55.8927
21
-157.304
0
LINE
8
BLACK
6
CONTINUOUS
10
55.8927
20
-157.304
11
55.7975
21
-157.208
0
LINE
8
BLACK
6
CONTINUOUS
10
55.7975
20
-157.208
11
55.607
21
-157.113
0
LINE
8
BLACK
6
CONTINUOUS
10
55.607
20
-157.113
11
55.226
21
-157.113
0
LINE
8
BLACK
6
CONTINUOUS
10
55.226
20
-157.113
11
55.0356
21
-157.208
0
LINE
8
BLACK
6
CONTINUOUS
10
55.0356
20
-157.208
11
54.9403
21
-157.304
0
LINE
8
BLACK
6
CONTINUOUS
10
54.9403
20
-157.304
11
54.8451
21
-157.494
0
LINE
8
BLACK
6
CONTINUOUS
10
57.226
20
-156.351
11
57.4165
21
-156.351
0
LINE
8
BLACK
6
CONTINUOUS
10
57.4165
20
-156.351
11
57.607
21
-156.446
0
LINE
8
BLACK
6
CONTINUOUS
10
57.607
20
-156.446
11
57.7022
21
-156.542
0
LINE
8
BLACK
6
CONTINUOUS
10
57.7022
20
-156.542
11
57.7975
21
-156.732
0
LINE
8
BLACK
6
CONTINUOUS
10
57.7975
20
-156.732
11
57.8927
21
-157.113
0
LINE
8
BLACK
6
CONTINUOUS
10
57.8927
20
-157.113
11
57.8927
21
-157.589
0
LINE
8
BLACK
6
CONTINUOUS
10
57.8927
20
-157.589
11
57.7975
21
-157.97
0
LINE
8
BLACK
6
CONTINUOUS
10
57.7975
20
-157.97
11
57.7022
21
-158.161
0
LINE
8
BLACK
6
CONTINUOUS
10
57.7022
20
-158.161
11
57.607
21
-158.256
0
LINE
8
BLACK
6
CONTINUOUS
10
57.607
20
-158.256
11
57.4165
21
-158.351
0
LINE
8
BLACK
6
CONTINUOUS
10
57.4165
20
-158.351
11
57.226
21
-158.351
0
LINE
8
BLACK
6
CONTINUOUS
10
57.226
20
-158.351
11
57.0356
21
-158.256
0
LINE
8
BLACK
6
CONTINUOUS
10
57.0356
20
-158.256
11
56.9403
21
-158.161
0
LINE
8
BLACK
6
CONTINUOUS
10
56.9403
20
-158.161
11
56.8451
21
-157.97
0
LINE
8
BLACK
6
CONTINUOUS
10
56.8451
20
-157.97
11
56.7499
21
-157.589
0
LINE
8
BLACK
6
CONTINUOUS
10
56.7499
20
-157.589
11
56.7499
21
-157.113
0
LINE
8
BLACK
6
CONTINUOUS
10
56.7499
20
-157.113
11
56.8451
21
-156.732
0
LINE
8
BLACK
6
CONTINUOUS
10
56.8451
20
-156.732
11
56.9403
21
-156.542
0
LINE
8
BLACK
6
CONTINUOUS
10
56.9403
20
-156.542
11
57.0356
21
-156.446
0
LINE
8
BLACK
6
CONTINUOUS
10
57.0356
20
-156.446
11
57.226
21
-156.351
0
LINE
8
BLACK
6
CONTINUOUS
10
59.1308
20
-156.351
11
59.3213
21
-156.351
0
LINE
8
BLACK
6
CONTINUOUS
10
59.3213
20
-156.351
11
59.5118
21
-156.446
0
LINE
8
BLACK
6
CONTINUOUS
10
59.5118
20
-156.446
11
59.607
21
-156.542
0
LINE
8
BLACK
6
CONTINUOUS
10
59.607
20
-156.542
11
59.7022
21
-156.732
0
LINE
8
BLACK
6
CONTINUOUS
10
59.7022
20
-156.732
11
59.7975
21
-157.113
0
LINE
8
BLACK
6
CONTINUOUS
10
59.7975
20
-157.113
11
59.7975
21
-157.589
0
LINE
8
BLACK
6
CONTINUOUS
10
59.7975
20
-157.589
11
59.7022
21
-157.97
0
LINE
8
BLACK
6
CONTINUOUS
10
59.7022
20
-157.97
11
59.607
21
-158.161
0
LINE
8
BLACK
6
CONTINUOUS
10
59.607
20
-158.161
11
59.5118
21
-158.256
0
LINE
8
BLACK
6
CONTINUOUS
10
59.5118
20
-158.256
11
59.3213
21
-158.351
0
LINE
8
BLACK
6
CONTINUOUS
10
59.3213
20
-158.351
11
59.1308
21
-158.351
0
LINE
8
BLACK
6
CONTINUOUS
10
59.1308
20
-158.351
11
58.9403
21
-158.256
0
LINE
8
BLACK
6
CONTINUOUS
10
58.9403
20
-158.256
11
58.8451
21
-158.161
0
LINE
8
BLACK
6
CONTINUOUS
10
58.8451
20
-158.161
11
58.7499
21
-157.97
0
LINE
8
BLACK
6
CONTINUOUS
10
58.7499
20
-157.97
11
58.6546
21
-157.589
0
LINE
8
BLACK
6
CONTINUOUS
10
58.6546
20
-157.589
11
58.6546
21
-157.113
0
LINE
8
BLACK
6
CONTINUOUS
10
58.6546
20
-157.113
11
58.7499
21
-156.732
0
LINE
8
BLACK
6
CONTINUOUS
10
58.7499
20
-156.732
11
58.8451
21
-156.542
0
LINE
8
BLACK
6
CONTINUOUS
10
58.8451
20
-156.542
11
58.9403
21
-156.446
0
LINE
8
BLACK
6
CONTINUOUS
10
58.9403
20
-156.446
11
59.1308
21
-156.351
0
LINE
8
BLACK
6
CONTINUOUS
10
60.6546
20
-158.351
11
60.6546
21
-157.018
0
LINE
8
BLACK
6
CONTINUOUS
10
60.6546
20
-157.208
11
60.7499
21
-157.113
0
LINE
8
BLACK
6
CONTINUOUS
10
60.7499
20
-157.113
11
60.9403
21
-157.018
0
LINE
8
BLACK
6
CONTINUOUS
10
60.9403
20
-157.018
11
61.226
21
-157.018
0
LINE
8
BLACK
6
CONTINUOUS
10
61.226
20
-157.018
11
61.4165
21
-157.113
0
LINE
8
BLACK
6
CONTINUOUS
10
61.4165
20
-157.113
11
61.5118
21
-157.304
0
LINE
8
BLACK
6
CONTINUOUS
10
61.5118
20
-157.304
11
61.5118
21
-158.351
0
LINE
8
BLACK
6
CONTINUOUS
10
61.5118
20
-157.304
11
61.607
21
-157.113
0
LINE
8
BLACK
6
CONTINUOUS
10
61.607
20
-157.113
11
61.7975
21
-157.018
0
LINE
8
BLACK
6
CONTINUOUS
10
61.7975
20
-157.018
11
62.0832
21
-157.018
0
LINE
8
BLACK
6
CONTINUOUS
10
62.0832
20
-157.018
11
62.2737
21
-157.113
0
LINE
8
BLACK
6
CONTINUOUS
10
62.2737
20
-157.113
11
62.3689
21
-157.304
0
LINE
8
BLACK
6
CONTINUOUS
10
62.3689
20
-157.304
11
62.3689
21
-158.351
0
LINE
8
BLACK
6
CONTINUOUS
10
63.3213
20
-158.351
11
63.3213
21
-157.018
0
LINE
8
BLACK
6
CONTINUOUS
10
63.3213
20
-157.208
11
63.4165
21
-157.113
0
LINE
8
BLACK
6
CONTINUOUS
10
63.4165
20
-157.113
11
63.607
21
-157.018
0
LINE
8
BLACK
6
CONTINUOUS
10
63.607
20
-157.018
11
63.8927
21
-157.018
0
LINE
8
BLACK
6
CONTINUOUS
10
63.8927
20
-157.018
11
64.0832
21
-157.113
0
LINE
8
BLACK
6
CONTINUOUS
10
64.0832
20
-157.113
11
64.1784
21
-157.304
0
LINE
8
BLACK
6
CONTINUOUS
10
64.1784
20
-157.304
11
64.1784
21
-158.351
0
LINE
8
BLACK
6
CONTINUOUS
10
64.1784
20
-157.304
11
64.2737
21
-157.113
0
LINE
8
BLACK
6
CONTINUOUS
10
64.2737
20
-157.113
11
64.4641
21
-157.018
0
LINE
8
BLACK
6
CONTINUOUS
10
64.4641
20
-157.018
11
64.7499
21
-157.018
0
LINE
8
BLACK
6
CONTINUOUS
10
64.7499
20
-157.018
11
64.9403
21
-157.113
0
LINE
8
BLACK
6
CONTINUOUS
10
64.9403
20
-157.113
11
65.0356
21
-157.304
0
LINE
8
BLACK
6
CONTINUOUS
10
65.0356
20
-157.304
11
65.0356
21
-158.351
0
LINE
8
BLACK
6
CONTINUOUS
10
68.9403
20
-156.256
11
67.226
21
-158.827
0
LINE
8
BLACK
6
CONTINUOUS
10
71.5118
20
-156.351
11
71.7022
21
-156.351
0
LINE
8
BLACK
6
CONTINUOUS
10
71.7022
20
-156.351
11
71.8927
21
-156.446
0
LINE
8
BLACK
6
CONTINUOUS
10
71.8927
20
-156.446
11
71.988
21
-156.542
0
LINE
8
BLACK
6
CONTINUOUS
10
71.988
20
-156.542
11
72.0832
21
-156.732
0
LINE
8
BLACK
6
CONTINUOUS
10
72.0832
20
-156.732
11
72.1784
21
-157.113
0
LINE
8
BLACK
6
CONTINUOUS
10
72.1784
20
-157.113
11
72.1784
21
-157.589
0
LINE
8
BLACK
6
CONTINUOUS
10
72.1784
20
-157.589
11
72.0832
21
-157.97
0
LINE
8
BLACK
6
CONTINUOUS
10
72.0832
20
-157.97
11
71.988
21
-158.161
0
LINE
8
BLACK
6
CONTINUOUS
10
71.988
20
-158.161
11
71.8927
21
-158.256
0
LINE
8
BLACK
6
CONTINUOUS
10
71.8927
20
-158.256
11
71.7022
21
-158.351
0
LINE
8
BLACK
6
CONTINUOUS
10
71.7022
20
-158.351
11
71.5118
21
-158.351
0
LINE
8
BLACK
6
CONTINUOUS
10
71.5118
20
-158.351
11
71.3213
21
-158.256
0
LINE
8
BLACK
6
CONTINUOUS
10
71.3213
20
-158.256
11
71.226
21
-158.161
0
LINE
8
BLACK
6
CONTINUOUS
10
71.226
20
-158.161
11
71.1308
21
-157.97
0
LINE
8
BLACK
6
CONTINUOUS
10
71.1308
20
-157.97
11
71.0356
21
-157.589
0
LINE
8
BLACK
6
CONTINUOUS
10
71.0356
20
-157.589
11
71.0356
21
-157.113
0
LINE
8
BLACK
6
CONTINUOUS
10
71.0356
20
-157.113
11
71.1308
21
-156.732
0
LINE
8
BLACK
6
CONTINUOUS
10
71.1308
20
-156.732
11
71.226
21
-156.542
0
LINE
8
BLACK
6
CONTINUOUS
10
71.226
20
-156.542
11
71.3213
21
-156.446
0
LINE
8
BLACK
6
CONTINUOUS
10
71.3213
20
-156.446
11
71.5118
21
-156.351
0
LINE
8
BLACK
6
CONTINUOUS
10
73.0356
20
-158.161
11
73.1308
21
-158.256
0
LINE
8
BLACK
6
CONTINUOUS
10
73.1308
20
-158.256
11
73.0356
21
-158.351
0
LINE
8
BLACK
6
CONTINUOUS
10
73.0356
20
-158.351
11
72.9403
21
-158.256
0
LINE
8
BLACK
6
CONTINUOUS
10
72.9403
20
-158.256
11
73.0356
21
-158.161
0
LINE
8
BLACK
6
CONTINUOUS
10
73.0356
20
-158.161
11
73.0356
21
-158.351
0
LINE
8
BLACK
6
CONTINUOUS
10
74.3689
20
-156.351
11
74.5594
21
-156.351
0
LINE
8
BLACK
6
CONTINUOUS
10
74.5594
20
-156.351
11
74.7499
21
-156.446
0
LINE
8
BLACK
6
CONTINUOUS
10
74.7499
20
-156.446
11
74.8451
21
-156.542
0
LINE
8
BLACK
6
CONTINUOUS
10
74.8451
20
-156.542
11
74.9403
21
-156.732
0
LINE
8
BLACK
6
CONTINUOUS
10
74.9403
20
-156.732
11
75.0356
21
-157.113
0
LINE
8
BLACK
6
CONTINUOUS
10
75.0356
20
-157.113
11
75.0356
21
-157.589
0
LINE
8
BLACK
6
CONTINUOUS
10
75.0356
20
-157.589
11
74.9403
21
-157.97
0
LINE
8
BLACK
6
CONTINUOUS
10
74.9403
20
-157.97
11
74.8451
21
-158.161
0
LINE
8
BLACK
6
CONTINUOUS
10
74.8451
20
-158.161
11
74.7499
21
-158.256
0
LINE
8
BLACK
6
CONTINUOUS
10
74.7499
20
-158.256
11
74.5594
21
-158.351
0
LINE
8
BLACK
6
CONTINUOUS
10
74.5594
20
-158.351
11
74.3689
21
-158.351
0
LINE
8
BLACK
6
CONTINUOUS
10
74.3689
20
-158.351
11
74.1784
21
-158.256
0
LINE
8
BLACK
6
CONTINUOUS
10
74.1784
20
-158.256
11
74.0832
21
-158.161
0
LINE
8
BLACK
6
CONTINUOUS
10
74.0832
20
-158.161
11
73.988
21
-157.97
0
LINE
8
BLACK
6
CONTINUOUS
10
73.988
20
-157.97
11
73.8927
21
-157.589
0
LINE
8
BLACK
6
CONTINUOUS
10
73.8927
20
-157.589
11
73.8927
21
-157.113
0
LINE
8
BLACK
6
CONTINUOUS
10
73.8927
20
-157.113
11
73.988
21
-156.732
0
LINE
8
BLACK
6
CONTINUOUS
10
73.988
20
-156.732
11
74.0832
21
-156.542
0
LINE
8
BLACK
6
CONTINUOUS
10
74.0832
20
-156.542
11
74.1784
21
-156.446
0
LINE
8
BLACK
6
CONTINUOUS
10
74.1784
20
-156.446
11
74.3689
21
-156.351
0
LINE
8
BLACK
6
CONTINUOUS
10
76.7499
20
-156.351
11
76.3689
21
-156.351
0
LINE
8
BLACK
6
CONTINUOUS
10
76.3689
20
-156.351
11
76.1784
21
-156.446
0
LINE
8
BLACK
6
CONTINUOUS
10
76.1784
20
-156.446
11
76.0832
21
-156.542
0
LINE
8
BLACK
6
CONTINUOUS
10
76.0832
20
-156.542
11
75.8927
21
-156.827
0
LINE
8
BLACK
6
CONTINUOUS
10
75.8927
20
-156.827
11
75.7975
21
-157.208
0
LINE
8
BLACK
6
CONTINUOUS
10
75.7975
20
-157.208
11
75.7975
21
-157.97
0
LINE
8
BLACK
6
CONTINUOUS
10
75.7975
20
-157.97
11
75.8927
21
-158.161
0
LINE
8
BLACK
6
CONTINUOUS
10
75.8927
20
-158.161
11
75.988
21
-158.256
0
LINE
8
BLACK
6
CONTINUOUS
10
75.988
20
-158.256
11
76.1784
21
-158.351
0
LINE
8
BLACK
6
CONTINUOUS
10
76.1784
20
-158.351
11
76.5594
21
-158.351
0
LINE
8
BLACK
6
CONTINUOUS
10
76.5594
20
-158.351
11
76.7499
21
-158.256
0
LINE
8
BLACK
6
CONTINUOUS
10
76.7499
20
-158.256
11
76.8451
21
-158.161
0
LINE
8
BLACK
6
CONTINUOUS
10
76.8451
20
-158.161
11
76.9403
21
-157.97
0
LINE
8
BLACK
6
CONTINUOUS
10
76.9403
20
-157.97
11
76.9403
21
-157.494
0
LINE
8
BLACK
6
CONTINUOUS
10
76.9403
20
-157.494
11
76.8451
21
-157.304
0
LINE
8
BLACK
6
CONTINUOUS
10
76.8451
20
-157.304
11
76.7499
21
-157.208
0
LINE
8
BLACK
6
CONTINUOUS
10
76.7499
20
-157.208
11
76.5594
21
-157.113
0
LINE
8
BLACK
6
CONTINUOUS
10
76.5594
20
-157.113
11
76.1784
21
-157.113
0
LINE
8
BLACK
6
CONTINUOUS
10
76.1784
20
-157.113
11
75.988
21
-157.208
0
LINE
8
BLACK
6
CONTINUOUS
10
75.988
20
-157.208
11
75.8927
21
-157.304
0
LINE
8
BLACK
6
CONTINUOUS
10
75.8927
20
-157.304
11
75.7975
21
-157.494
0
LINE
8
BLACK
6
CONTINUOUS
10
77.607
20
-156.351
11
78.8451
21
-156.351
0
LINE
8
BLACK
6
CONTINUOUS
10
78.8451
20
-156.351
11
78.1784
21
-157.113
0
LINE
8
BLACK
6
CONTINUOUS
10
78.1784
20
-157.113
11
78.4641
21
-157.113
0
LINE
8
BLACK
6
CONTINUOUS
10
78.4641
20
-157.113
11
78.6546
21
-157.208
0
LINE
8
BLACK
6
CONTINUOUS
10
78.6546
20
-157.208
11
78.7499
21
-157.304
0
LINE
8
BLACK
6
CONTINUOUS
10
78.7499
20
-157.304
11
78.8451
21
-157.494
0
LINE
8
BLACK
6
CONTINUOUS
10
78.8451
20
-157.494
11
78.8451
21
-157.97
0
LINE
8
BLACK
6
CONTINUOUS
10
78.8451
20
-157.97
11
78.7499
21
-158.161
0
LINE
8
BLACK
6
CONTINUOUS
10
78.7499
20
-158.161
11
78.6546
21
-158.256
0
LINE
8
BLACK
6
CONTINUOUS
10
78.6546
20
-158.256
11
78.4641
21
-158.351
0
LINE
8
BLACK
6
CONTINUOUS
10
78.4641
20
-158.351
11
77.8927
21
-158.351
0
LINE
8
BLACK
6
CONTINUOUS
10
77.8927
20
-158.351
11
77.7022
21
-158.256
0
LINE
8
BLACK
6
CONTINUOUS
10
77.7022
20
-158.256
11
77.607
21
-158.161
0
LINE
8
BLACK
6
CONTINUOUS
10
80.0832
20
-156.351
11
80.2737
21
-156.351
0
LINE
8
BLACK
6
CONTINUOUS
10
80.2737
20
-156.351
11
80.4641
21
-156.446
0
LINE
8
BLACK
6
CONTINUOUS
10
80.4641
20
-156.446
11
80.5594
21
-156.542
0
LINE
8
BLACK
6
CONTINUOUS
10
80.5594
20
-156.542
11
80.6546
21
-156.732
0
LINE
8
BLACK
6
CONTINUOUS
10
80.6546
20
-156.732
11
80.7499
21
-157.113
0
LINE
8
BLACK
6
CONTINUOUS
10
80.7499
20
-157.113
11
80.7499
21
-157.589
0
LINE
8
BLACK
6
CONTINUOUS
10
80.7499
20
-157.589
11
80.6546
21
-157.97
0
LINE
8
BLACK
6
CONTINUOUS
10
80.6546
20
-157.97
11
80.5594
21
-158.161
0
LINE
8
BLACK
6
CONTINUOUS
10
80.5594
20
-158.161
11
80.4641
21
-158.256
0
LINE
8
BLACK
6
CONTINUOUS
10
80.4641
20
-158.256
11
80.2737
21
-158.351
0
LINE
8
BLACK
6
CONTINUOUS
10
80.2737
20
-158.351
11
80.0832
21
-158.351
0
LINE
8
BLACK
6
CONTINUOUS
10
80.0832
20
-158.351
11
79.8927
21
-158.256
0
LINE
8
BLACK
6
CONTINUOUS
10
79.8927
20
-158.256
11
79.7975
21
-158.161
0
LINE
8
BLACK
6
CONTINUOUS
10
79.7975
20
-158.161
11
79.7022
21
-157.97
0
LINE
8
BLACK
6
CONTINUOUS
10
79.7022
20
-157.97
11
79.607
21
-157.589
0
LINE
8
BLACK
6
CONTINUOUS
10
79.607
20
-157.589
11
79.607
21
-157.113
0
LINE
8
BLACK
6
CONTINUOUS
10
79.607
20
-157.113
11
79.7022
21
-156.732
0
LINE
8
BLACK
6
CONTINUOUS
10
79.7022
20
-156.732
11
79.7975
21
-156.542
0
LINE
8
BLACK
6
CONTINUOUS
10
79.7975
20
-156.542
11
79.8927
21
-156.446
0
LINE
8
BLACK
6
CONTINUOUS
10
79.8927
20
-156.446
11
80.0832
21
-156.351
0
LINE
8
BLACK
6
CONTINUOUS
10
81.5118
20
-156.351
11
81.5118
21
-156.732
0
LINE
8
BLACK
6
CONTINUOUS
10
82.2737
20
-156.351
11
82.2737
21
-156.732
0
LINE
8
BLACK
6
CONTINUOUS
10
85.2261
20
-159.113
11
85.1308
21
-159.018
0
LINE
8
BLACK
6
CONTINUOUS
10
85.1308
20
-159.018
11
84.9403
21
-158.732
0
LINE
8
BLACK
6
CONTINUOUS
10
84.9403
20
-158.732
11
84.8451
21
-158.542
0
LINE
8
BLACK
6
CONTINUOUS
10
84.8451
20
-158.542
11
84.7499
21
-158.256
0
LINE
8
BLACK
6
CONTINUOUS
10
84.7499
20
-158.256
11
84.6546
21
-157.78
0
LINE
8
BLACK
6
CONTINUOUS
10
84.6546
20
-157.78
11
84.6546
21
-157.399
0
LINE
8
BLACK
6
CONTINUOUS
10
84.6546
20
-157.399
11
84.7499
21
-156.923
0
LINE
8
BLACK
6
CONTINUOUS
10
84.7499
20
-156.923
11
84.8451
21
-156.637
0
LINE
8
BLACK
6
CONTINUOUS
10
84.8451
20
-156.637
11
84.9403
21
-156.446
0
LINE
8
BLACK
6
CONTINUOUS
10
84.9403
20
-156.446
11
85.1308
21
-156.161
0
LINE
8
BLACK
6
CONTINUOUS
10
85.1308
20
-156.161
11
85.2261
21
-156.066
0
LINE
8
BLACK
6
CONTINUOUS
10
86.9403
20
-156.351
11
85.988
21
-156.351
0
LINE
8
BLACK
6
CONTINUOUS
10
85.988
20
-156.351
11
85.8927
21
-157.304
0
LINE
8
BLACK
6
CONTINUOUS
10
85.8927
20
-157.304
11
85.988
21
-157.208
0
LINE
8
BLACK
6
CONTINUOUS
10
85.988
20
-157.208
11
86.1784
21
-157.113
0
LINE
8
BLACK
6
CONTINUOUS
10
86.1784
20
-157.113
11
86.6546
21
-157.113
0
LINE
8
BLACK
6
CONTINUOUS
10
86.6546
20
-157.113
11
86.8451
21
-157.208
0
LINE
8
BLACK
6
CONTINUOUS
10
86.8451
20
-157.208
11
86.9403
21
-157.304
0
LINE
8
BLACK
6
CONTINUOUS
10
86.9403
20
-157.304
11
87.0356
21
-157.494
0
LINE
8
BLACK
6
CONTINUOUS
10
87.0356
20
-157.494
11
87.0356
21
-157.97
0
LINE
8
BLACK
6
CONTINUOUS
10
87.0356
20
-157.97
11
86.9403
21
-158.161
0
LINE
8
BLACK
6
CONTINUOUS
10
86.9403
20
-158.161
11
86.8451
21
-158.256
0
LINE
8
BLACK
6
CONTINUOUS
10
86.8451
20
-158.256
11
86.6546
21
-158.351
0
LINE
8
BLACK
6
CONTINUOUS
10
86.6546
20
-158.351
11
86.1784
21
-158.351
0
LINE
8
BLACK
6
CONTINUOUS
10
86.1784
20
-158.351
11
85.988
21
-158.256
0
LINE
8
BLACK
6
CONTINUOUS
10
85.988
20
-158.256
11
85.8927
21
-158.161
0
LINE
8
BLACK
6
CONTINUOUS
10
89.4165
20
-158.351
11
89.4165
21
-156.351
0
LINE
8
BLACK
6
CONTINUOUS
10
90.2737
20
-158.351
11
90.2737
21
-157.304
0
LINE
8
BLACK
6
CONTINUOUS
10
90.2737
20
-157.304
11
90.1784
21
-157.113
0
LINE
8
BLACK
6
CONTINUOUS
10
90.1784
20
-157.113
11
89.988
21
-157.018
0
LINE
8
BLACK
6
CONTINUOUS
10
89.988
20
-157.018
11
89.7022
21
-157.018
0
LINE
8
BLACK
6
CONTINUOUS
10
89.7022
20
-157.018
11
89.5118
21
-157.113
0
LINE
8
BLACK
6
CONTINUOUS
10
89.5118
20
-157.113
11
89.4165
21
-157.208
0
LINE
8
BLACK
6
CONTINUOUS
10
91.5118
20
-158.351
11
91.3213
21
-158.256
0
LINE
8
BLACK
6
CONTINUOUS
10
91.3213
20
-158.256
11
91.2261
21
-158.161
0
LINE
8
BLACK
6
CONTINUOUS
10
91.2261
20
-158.161
11
91.1308
21
-157.97
0
LINE
8
BLACK
6
CONTINUOUS
10
91.1308
20
-157.97
11
91.1308
21
-157.399
0
LINE
8
BLACK
6
CONTINUOUS
10
91.1308
20
-157.399
11
91.2261
21
-157.208
0
LINE
8
BLACK
6
CONTINUOUS
10
91.2261
20
-157.208
11
91.3213
21
-157.113
0
LINE
8
BLACK
6
CONTINUOUS
10
91.3213
20
-157.113
11
91.5118
21
-157.018
0
LINE
8
BLACK
6
CONTINUOUS
10
91.5118
20
-157.018
11
91.7975
21
-157.018
0
LINE
8
BLACK
6
CONTINUOUS
10
91.7975
20
-157.018
11
91.988
21
-157.113
0
LINE
8
BLACK
6
CONTINUOUS
10
91.988
20
-157.113
11
92.0832
21
-157.208
0
LINE
8
BLACK
6
CONTINUOUS
10
92.0832
20
-157.208
11
92.1784
21
-157.399
0
LINE
8
BLACK
6
CONTINUOUS
10
92.1784
20
-157.399
11
92.1784
21
-157.97
0
LINE
8
BLACK
6
CONTINUOUS
10
92.1784
20
-157.97
11
92.0832
21
-158.161
0
LINE
8
BLACK
6
CONTINUOUS
10
92.0832
20
-158.161
11
91.988
21
-158.256
0
LINE
8
BLACK
6
CONTINUOUS
10
91.988
20
-158.256
11
91.7975
21
-158.351
0
LINE
8
BLACK
6
CONTINUOUS
10
91.7975
20
-158.351
11
91.5118
21
-158.351
0
LINE
8
BLACK
6
CONTINUOUS
10
93.3213
20
-158.351
11
93.1308
21
-158.256
0
LINE
8
BLACK
6
CONTINUOUS
10
93.1308
20
-158.256
11
93.0356
21
-158.066
0
LINE
8
BLACK
6
CONTINUOUS
10
93.0356
20
-158.066
11
93.0356
21
-156.351
0
LINE
8
BLACK
6
CONTINUOUS
10
94.8451
20
-158.256
11
94.6546
21
-158.351
0
LINE
8
BLACK
6
CONTINUOUS
10
94.6546
20
-158.351
11
94.2737
21
-158.351
0
LINE
8
BLACK
6
CONTINUOUS
10
94.2737
20
-158.351
11
94.0832
21
-158.256
0
LINE
8
BLACK
6
CONTINUOUS
10
94.0832
20
-158.256
11
93.988
21
-158.066
0
LINE
8
BLACK
6
CONTINUOUS
10
93.988
20
-158.066
11
93.988
21
-157.304
0
LINE
8
BLACK
6
CONTINUOUS
10
93.988
20
-157.304
11
94.0832
21
-157.113
0
LINE
8
BLACK
6
CONTINUOUS
10
94.0832
20
-157.113
11
94.2737
21
-157.018
0
LINE
8
BLACK
6
CONTINUOUS
10
94.2737
20
-157.018
11
94.6546
21
-157.018
0
LINE
8
BLACK
6
CONTINUOUS
10
94.6546
20
-157.018
11
94.8451
21
-157.113
0
LINE
8
BLACK
6
CONTINUOUS
10
94.8451
20
-157.113
11
94.9403
21
-157.304
0
LINE
8
BLACK
6
CONTINUOUS
10
94.9403
20
-157.304
11
94.9403
21
-157.494
0
LINE
8
BLACK
6
CONTINUOUS
10
94.9403
20
-157.494
11
93.988
21
-157.685
0
LINE
8
BLACK
6
CONTINUOUS
10
95.7022
20
-158.256
11
95.8927
21
-158.351
0
LINE
8
BLACK
6
CONTINUOUS
10
95.8927
20
-158.351
11
96.2737
21
-158.351
0
LINE
8
BLACK
6
CONTINUOUS
10
96.2737
20
-158.351
11
96.4641
21
-158.256
0
LINE
8
BLACK
6
CONTINUOUS
10
96.4641
20
-158.256
11
96.5594
21
-158.066
0
LINE
8
BLACK
6
CONTINUOUS
10
96.5594
20
-158.066
11
96.5594
21
-157.97
0
LINE
8
BLACK
6
CONTINUOUS
10
96.5594
20
-157.97
11
96.4641
21
-157.78
0
LINE
8
BLACK
6
CONTINUOUS
10
96.4641
20
-157.78
11
96.2737
21
-157.685
0
LINE
8
BLACK
6
CONTINUOUS
10
96.2737
20
-157.685
11
95.988
21
-157.685
0
LINE
8
BLACK
6
CONTINUOUS
10
95.988
20
-157.685
11
95.7975
21
-157.589
0
LINE
8
BLACK
6
CONTINUOUS
10
95.7975
20
-157.589
11
95.7022
21
-157.399
0
LINE
8
BLACK
6
CONTINUOUS
10
95.7022
20
-157.399
11
95.7022
21
-157.304
0
LINE
8
BLACK
6
CONTINUOUS
10
95.7022
20
-157.304
11
95.7975
21
-157.113
0
LINE
8
BLACK
6
CONTINUOUS
10
95.7975
20
-157.113
11
95.988
21
-157.018
0
LINE
8
BLACK
6
CONTINUOUS
10
95.988
20
-157.018
11
96.2737
21
-157.018
0
LINE
8
BLACK
6
CONTINUOUS
10
96.2737
20
-157.018
11
96.4641
21
-157.113
0
LINE
8
BLACK
6
CONTINUOUS
10
97.2261
20
-159.113
11
97.3213
21
-159.018
0
LINE
8
BLACK
6
CONTINUOUS
10
97.3213
20
-159.018
11
97.5118
21
-158.732
0
LINE
8
BLACK
6
CONTINUOUS
10
97.5118
20
-158.732
11
97.607
21
-158.542
0
LINE
8
BLACK
6
CONTINUOUS
10
97.607
20
-158.542
11
97.7022
21
-158.256
0
LINE
8
BLACK
6
CONTINUOUS
10
97.7022
20
-158.256
11
97.7975
21
-157.78
0
LINE
8
BLACK
6
CONTINUOUS
10
97.7975
20
-157.78
11
97.7975
21
-157.399
0
LINE
8
BLACK
6
CONTINUOUS
10
97.7975
20
-157.399
11
97.7022
21
-156.923
0
LINE
8
BLACK
6
CONTINUOUS
10
97.7022
20
-156.923
11
97.607
21
-156.637
0
LINE
8
BLACK
6
CONTINUOUS
10
97.607
20
-156.637
11
97.5118
21
-156.446
0
LINE
8
BLACK
6
CONTINUOUS
10
97.5118
20
-156.446
11
97.3213
21
-156.161
0
LINE
8
BLACK
6
CONTINUOUS
10
97.3213
20
-156.161
11
97.2261
21
-156.066
0
LINE
8
BLACK
6
CONTINUOUS
10
100.845
20
-159.113
11
100.75
21
-159.018
0
LINE
8
BLACK
6
CONTINUOUS
10
100.75
20
-159.018
11
100.559
21
-158.732
0
LINE
8
BLACK
6
CONTINUOUS
10
100.559
20
-158.732
11
100.464
21
-158.542
0
LINE
8
BLACK
6
CONTINUOUS
10
100.464
20
-158.542
11
100.369
21
-158.256
0
LINE
8
BLACK
6
CONTINUOUS
10
100.369
20
-158.256
11
100.274
21
-157.78
0
LINE
8
BLACK
6
CONTINUOUS
10
100.274
20
-157.78
11
100.274
21
-157.399
0
LINE
8
BLACK
6
CONTINUOUS
10
100.274
20
-157.399
11
100.369
21
-156.923
0
LINE
8
BLACK
6
CONTINUOUS
10
100.369
20
-156.923
11
100.464
21
-156.637
0
LINE
8
BLACK
6
CONTINUOUS
10
100.464
20
-156.637
11
100.559
21
-156.446
0
LINE
8
BLACK
6
CONTINUOUS
10
100.559
20
-156.446
11
100.75
21
-156.161
0
LINE
8
BLACK
6
CONTINUOUS
10
100.75
20
-156.161
11
100.845
21
-156.066
0
LINE
8
BLACK
6
CONTINUOUS
10
101.607
20
-157.018
11
101.607
21
-158.351
0
LINE
8
BLACK
6
CONTINUOUS
10
101.607
20
-157.208
11
101.702
21
-157.113
0
LINE
8
BLACK
6
CONTINUOUS
10
101.702
20
-157.113
11
101.893
21
-157.018
0
LINE
8
BLACK
6
CONTINUOUS
10
101.893
20
-157.018
11
102.178
21
-157.018
0
LINE
8
BLACK
6
CONTINUOUS
10
102.178
20
-157.018
11
102.369
21
-157.113
0
LINE
8
BLACK
6
CONTINUOUS
10
102.369
20
-157.113
11
102.464
21
-157.304
0
LINE
8
BLACK
6
CONTINUOUS
10
102.464
20
-157.304
11
102.464
21
-158.351
0
LINE
8
BLACK
6
CONTINUOUS
10
103.702
20
-158.351
11
103.512
21
-158.256
0
LINE
8
BLACK
6
CONTINUOUS
10
103.512
20
-158.256
11
103.417
21
-158.161
0
LINE
8
BLACK
6
CONTINUOUS
10
103.417
20
-158.161
11
103.321
21
-157.97
0
LINE
8
BLACK
6
CONTINUOUS
10
103.321
20
-157.97
11
103.321
21
-157.399
0
LINE
8
BLACK
6
CONTINUOUS
10
103.321
20
-157.399
11
103.417
21
-157.208
0
LINE
8
BLACK
6
CONTINUOUS
10
103.417
20
-157.208
11
103.512
21
-157.113
0
LINE
8
BLACK
6
CONTINUOUS
10
103.512
20
-157.113
11
103.702
21
-157.018
0
LINE
8
BLACK
6
CONTINUOUS
10
103.702
20
-157.018
11
103.988
21
-157.018
0
LINE
8
BLACK
6
CONTINUOUS
10
103.988
20
-157.018
11
104.178
21
-157.113
0
LINE
8
BLACK
6
CONTINUOUS
10
104.178
20
-157.113
11
104.274
21
-157.208
0
LINE
8
BLACK
6
CONTINUOUS
10
104.274
20
-157.208
11
104.369
21
-157.399
0
LINE
8
BLACK
6
CONTINUOUS
10
104.369
20
-157.399
11
104.369
21
-157.97
0
LINE
8
BLACK
6
CONTINUOUS
10
104.369
20
-157.97
11
104.274
21
-158.161
0
LINE
8
BLACK
6
CONTINUOUS
10
104.274
20
-158.161
11
104.178
21
-158.256
0
LINE
8
BLACK
6
CONTINUOUS
10
104.178
20
-158.256
11
103.988
21
-158.351
0
LINE
8
BLACK
6
CONTINUOUS
10
103.988
20
-158.351
11
103.702
21
-158.351
0
LINE
8
BLACK
6
CONTINUOUS
10
104.94
20
-157.018
11
105.702
21
-157.018
0
LINE
8
BLACK
6
CONTINUOUS
10
105.226
20
-156.351
11
105.226
21
-158.066
0
LINE
8
BLACK
6
CONTINUOUS
10
105.226
20
-158.066
11
105.321
21
-158.256
0
LINE
8
BLACK
6
CONTINUOUS
10
105.321
20
-158.256
11
105.512
21
-158.351
0
LINE
8
BLACK
6
CONTINUOUS
10
105.512
20
-158.351
11
105.702
21
-158.351
0
LINE
8
BLACK
6
CONTINUOUS
10
107.893
20
-157.018
11
107.893
21
-159.018
0
LINE
8
BLACK
6
CONTINUOUS
10
107.893
20
-157.113
11
108.083
21
-157.018
0
LINE
8
BLACK
6
CONTINUOUS
10
108.083
20
-157.018
11
108.464
21
-157.018
0
LINE
8
BLACK
6
CONTINUOUS
10
108.464
20
-157.018
11
108.655
21
-157.113
0
LINE
8
BLACK
6
CONTINUOUS
10
108.655
20
-157.113
11
108.75
21
-157.208
0
LINE
8
BLACK
6
CONTINUOUS
10
108.75
20
-157.208
11
108.845
21
-157.399
0
LINE
8
BLACK
6
CONTINUOUS
10
108.845
20
-157.399
11
108.845
21
-157.97
0
LINE
8
BLACK
6
CONTINUOUS
10
108.845
20
-157.97
11
108.75
21
-158.161
0
LINE
8
BLACK
6
CONTINUOUS
10
108.75
20
-158.161
11
108.655
21
-158.256
0
LINE
8
BLACK
6
CONTINUOUS
10
108.655
20
-158.256
11
108.464
21
-158.351
0
LINE
8
BLACK
6
CONTINUOUS
10
108.464
20
-158.351
11
108.083
21
-158.351
0
LINE
8
BLACK
6
CONTINUOUS
10
108.083
20
-158.351
11
107.893
21
-158.256
0
LINE
8
BLACK
6
CONTINUOUS
10
109.988
20
-158.351
11
109.797
21
-158.256
0
LINE
8
BLACK
6
CONTINUOUS
10
109.797
20
-158.256
11
109.702
21
-158.066
0
LINE
8
BLACK
6
CONTINUOUS
10
109.702
20
-158.066
11
109.702
21
-156.351
0
LINE
8
BLACK
6
CONTINUOUS
10
111.607
20
-158.351
11
111.607
21
-157.304
0
LINE
8
BLACK
6
CONTINUOUS
10
111.607
20
-157.304
11
111.512
21
-157.113
0
LINE
8
BLACK
6
CONTINUOUS
10
111.512
20
-157.113
11
111.321
21
-157.018
0
LINE
8
BLACK
6
CONTINUOUS
10
111.321
20
-157.018
11
110.94
21
-157.018
0
LINE
8
BLACK
6
CONTINUOUS
10
110.94
20
-157.018
11
110.75
21
-157.113
0
LINE
8
BLACK
6
CONTINUOUS
10
111.607
20
-158.256
11
111.417
21
-158.351
0
LINE
8
BLACK
6
CONTINUOUS
10
111.417
20
-158.351
11
110.94
21
-158.351
0
LINE
8
BLACK
6
CONTINUOUS
10
110.94
20
-158.351
11
110.75
21
-158.256
0
LINE
8
BLACK
6
CONTINUOUS
10
110.75
20
-158.256
11
110.655
21
-158.066
0
LINE
8
BLACK
6
CONTINUOUS
10
110.655
20
-158.066
11
110.655
21
-157.875
0
LINE
8
BLACK
6
CONTINUOUS
10
110.655
20
-157.875
11
110.75
21
-157.685
0
LINE
8
BLACK
6
CONTINUOUS
10
110.75
20
-157.685
11
110.94
21
-157.589
0
LINE
8
BLACK
6
CONTINUOUS
10
110.94
20
-157.589
11
111.417
21
-157.589
0
LINE
8
BLACK
6
CONTINUOUS
10
111.417
20
-157.589
11
111.607
21
-157.494
0
LINE
8
BLACK
6
CONTINUOUS
10
112.274
20
-157.018
11
113.036
21
-157.018
0
LINE
8
BLACK
6
CONTINUOUS
10
112.559
20
-156.351
11
112.559
21
-158.066
0
LINE
8
BLACK
6
CONTINUOUS
10
112.559
20
-158.066
11
112.655
21
-158.256
0
LINE
8
BLACK
6
CONTINUOUS
10
112.655
20
-158.256
11
112.845
21
-158.351
0
LINE
8
BLACK
6
CONTINUOUS
10
112.845
20
-158.351
11
113.036
21
-158.351
0
LINE
8
BLACK
6
CONTINUOUS
10
114.464
20
-158.256
11
114.274
21
-158.351
0
LINE
8
BLACK
6
CONTINUOUS
10
114.274
20
-158.351
11
113.893
21
-158.351
0
LINE
8
BLACK
6
CONTINUOUS
10
113.893
20
-158.351
11
113.702
21
-158.256
0
LINE
8
BLACK
6
CONTINUOUS
10
113.702
20
-158.256
11
113.607
21
-158.066
0
LINE
8
BLACK
6
CONTINUOUS
10
113.607
20
-158.066
11
113.607
21
-157.304
0
LINE
8
BLACK
6
CONTINUOUS
10
113.607
20
-157.304
11
113.702
21
-157.113
0
LINE
8
BLACK
6
CONTINUOUS
10
113.702
20
-157.113
11
113.893
21
-157.018
0
LINE
8
BLACK
6
CONTINUOUS
10
113.893
20
-157.018
11
114.274
21
-157.018
0
LINE
8
BLACK
6
CONTINUOUS
10
114.274
20
-157.018
11
114.464
21
-157.113
0
LINE
8
BLACK
6
CONTINUOUS
10
114.464
20
-157.113
11
114.559
21
-157.304
0
LINE
8
BLACK
6
CONTINUOUS
10
114.559
20
-157.304
11
114.559
21
-157.494
0
LINE
8
BLACK
6
CONTINUOUS
10
114.559
20
-157.494
11
113.607
21
-157.685
0
LINE
8
BLACK
6
CONTINUOUS
10
116.274
20
-158.351
11
116.274
21
-156.351
0
LINE
8
BLACK
6
CONTINUOUS
10
116.274
20
-158.256
11
116.083
21
-158.351
0
LINE
8
BLACK
6
CONTINUOUS
10
116.083
20
-158.351
11
115.702
21
-158.351
0
LINE
8
BLACK
6
CONTINUOUS
10
115.702
20
-158.351
11
115.512
21
-158.256
0
LINE
8
BLACK
6
CONTINUOUS
10
115.512
20
-158.256
11
115.417
21
-158.161
0
LINE
8
BLACK
6
CONTINUOUS
10
115.417
20
-158.161
11
115.321
21
-157.97
0
LINE
8
BLACK
6
CONTINUOUS
10
115.321
20
-157.97
11
115.321
21
-157.399
0
LINE
8
BLACK
6
CONTINUOUS
10
115.321
20
-157.399
11
115.417
21
-157.208
0
LINE
8
BLACK
6
CONTINUOUS
10
115.417
20
-157.208
11
115.512
21
-157.113
0
LINE
8
BLACK
6
CONTINUOUS
10
115.512
20
-157.113
11
115.702
21
-157.018
0
LINE
8
BLACK
6
CONTINUOUS
10
115.702
20
-157.018
11
116.083
21
-157.018
0
LINE
8
BLACK
6
CONTINUOUS
10
116.083
20
-157.018
11
116.274
21
-157.113
0
LINE
8
BLACK
6
CONTINUOUS
10
117.036
20
-159.113
11
117.131
21
-159.018
0
LINE
8
BLACK
6
CONTINUOUS
10
117.131
20
-159.018
11
117.321
21
-158.732
0
LINE
8
BLACK
6
CONTINUOUS
10
117.321
20
-158.732
11
117.417
21
-158.542
0
LINE
8
BLACK
6
CONTINUOUS
10
117.417
20
-158.542
11
117.512
21
-158.256
0
LINE
8
BLACK
6
CONTINUOUS
10
117.512
20
-158.256
11
117.607
21
-157.78
0
LINE
8
BLACK
6
CONTINUOUS
10
117.607
20
-157.78
11
117.607
21
-157.399
0
LINE
8
BLACK
6
CONTINUOUS
10
117.607
20
-157.399
11
117.512
21
-156.923
0
LINE
8
BLACK
6
CONTINUOUS
10
117.512
20
-156.923
11
117.417
21
-156.637
0
LINE
8
BLACK
6
CONTINUOUS
10
117.417
20
-156.637
11
117.321
21
-156.446
0
LINE
8
BLACK
6
CONTINUOUS
10
117.321
20
-156.446
11
117.131
21
-156.161
0
LINE
8
BLACK
6
CONTINUOUS
10
117.131
20
-156.161
11
117.036
21
-156.066
0
LINE
8
BLACK
6
CONTINUOUS
10
48.607
20
-159.226
11
48.607
21
-161.226
0
LINE
8
BLACK
6
CONTINUOUS
10
47.607
20
-160.226
11
49.607
21
-160.226
0
LINE
8
BLACK
6
CONTINUOUS
10
51.988
20
-159.342
11
52.0832
21
-159.247
0
LINE
8
BLACK
6
CONTINUOUS
10
52.0832
20
-159.247
11
52.2737
21
-159.151
0
LINE
8
BLACK
6
CONTINUOUS
10
52.2737
20
-159.151
11
52.7499
21
-159.151
0
LINE
8
BLACK
6
CONTINUOUS
10
52.7499
20
-159.151
11
52.9403
21
-159.247
0
LINE
8
BLACK
6
CONTINUOUS
10
52.9403
20
-159.247
11
53.0356
21
-159.342
0
LINE
8
BLACK
6
CONTINUOUS
10
53.0356
20
-159.342
11
53.1308
21
-159.532
0
LINE
8
BLACK
6
CONTINUOUS
10
53.1308
20
-159.532
11
53.1308
21
-159.723
0
LINE
8
BLACK
6
CONTINUOUS
10
53.1308
20
-159.723
11
53.0356
21
-160.009
0
LINE
8
BLACK
6
CONTINUOUS
10
53.0356
20
-160.009
11
51.8927
21
-161.151
0
LINE
8
BLACK
6
CONTINUOUS
10
51.8927
20
-161.151
11
53.1308
21
-161.151
0
LINE
8
BLACK
6
CONTINUOUS
10
53.988
20
-160.961
11
54.0832
21
-161.056
0
LINE
8
BLACK
6
CONTINUOUS
10
54.0832
20
-161.056
11
53.988
21
-161.151
0
LINE
8
BLACK
6
CONTINUOUS
10
53.988
20
-161.151
11
53.8927
21
-161.056
0
LINE
8
BLACK
6
CONTINUOUS
10
53.8927
20
-161.056
11
53.988
21
-160.961
0
LINE
8
BLACK
6
CONTINUOUS
10
53.988
20
-160.961
11
53.988
21
-161.151
0
LINE
8
BLACK
6
CONTINUOUS
10
54.7499
20
-159.151
11
56.0832
21
-159.151
0
LINE
8
BLACK
6
CONTINUOUS
10
56.0832
20
-159.151
11
55.226
21
-161.151
0
LINE
8
BLACK
6
CONTINUOUS
10
57.226
20
-159.151
11
57.4165
21
-159.151
0
LINE
8
BLACK
6
CONTINUOUS
10
57.4165
20
-159.151
11
57.607
21
-159.247
0
LINE
8
BLACK
6
CONTINUOUS
10
57.607
20
-159.247
11
57.7022
21
-159.342
0
LINE
8
BLACK
6
CONTINUOUS
10
57.7022
20
-159.342
11
57.7975
21
-159.532
0
LINE
8
BLACK
6
CONTINUOUS
10
57.7975
20
-159.532
11
57.8927
21
-159.913
0
LINE
8
BLACK
6
CONTINUOUS
10
57.8927
20
-159.913
11
57.8927
21
-160.39
0
LINE
8
BLACK
6
CONTINUOUS
10
57.8927
20
-160.39
11
57.7975
21
-160.77
0
LINE
8
BLACK
6
CONTINUOUS
10
57.7975
20
-160.77
11
57.7022
21
-160.961
0
LINE
8
BLACK
6
CONTINUOUS
10
57.7022
20
-160.961
11
57.607
21
-161.056
0
LINE
8
BLACK
6
CONTINUOUS
10
57.607
20
-161.056
11
57.4165
21
-161.151
0
LINE
8
BLACK
6
CONTINUOUS
10
57.4165
20
-161.151
11
57.226
21
-161.151
0
LINE
8
BLACK
6
CONTINUOUS
10
57.226
20
-161.151
11
57.0356
21
-161.056
0
LINE
8
BLACK
6
CONTINUOUS
10
57.0356
20
-161.056
11
56.9403
21
-160.961
0
LINE
8
BLACK
6
CONTINUOUS
10
56.9403
20
-160.961
11
56.8451
21
-160.77
0
LINE
8
BLACK
6
CONTINUOUS
10
56.8451
20
-160.77
11
56.7499
21
-160.39
0
LINE
8
BLACK
6
CONTINUOUS
10
56.7499
20
-160.39
11
56.7499
21
-159.913
0
LINE
8
BLACK
6
CONTINUOUS
10
56.7499
20
-159.913
11
56.8451
21
-159.532
0
LINE
8
BLACK
6
CONTINUOUS
10
56.8451
20
-159.532
11
56.9403
21
-159.342
0
LINE
8
BLACK
6
CONTINUOUS
10
56.9403
20
-159.342
11
57.0356
21
-159.247
0
LINE
8
BLACK
6
CONTINUOUS
10
57.0356
20
-159.247
11
57.226
21
-159.151
0
LINE
8
BLACK
6
CONTINUOUS
10
59.1308
20
-159.151
11
59.3213
21
-159.151
0
LINE
8
BLACK
6
CONTINUOUS
10
59.3213
20
-159.151
11
59.5118
21
-159.247
0
LINE
8
BLACK
6
CONTINUOUS
10
59.5118
20
-159.247
11
59.607
21
-159.342
0
LINE
8
BLACK
6
CONTINUOUS
10
59.607
20
-159.342
11
59.7022
21
-159.532
0
LINE
8
BLACK
6
CONTINUOUS
10
59.7022
20
-159.532
11
59.7975
21
-159.913
0
LINE
8
BLACK
6
CONTINUOUS
10
59.7975
20
-159.913
11
59.7975
21
-160.39
0
LINE
8
BLACK
6
CONTINUOUS
10
59.7975
20
-160.39
11
59.7022
21
-160.77
0
LINE
8
BLACK
6
CONTINUOUS
10
59.7022
20
-160.77
11
59.607
21
-160.961
0
LINE
8
BLACK
6
CONTINUOUS
10
59.607
20
-160.961
11
59.5118
21
-161.056
0
LINE
8
BLACK
6
CONTINUOUS
10
59.5118
20
-161.056
11
59.3213
21
-161.151
0
LINE
8
BLACK
6
CONTINUOUS
10
59.3213
20
-161.151
11
59.1308
21
-161.151
0
LINE
8
BLACK
6
CONTINUOUS
10
59.1308
20
-161.151
11
58.9403
21
-161.056
0
LINE
8
BLACK
6
CONTINUOUS
10
58.9403
20
-161.056
11
58.8451
21
-160.961
0
LINE
8
BLACK
6
CONTINUOUS
10
58.8451
20
-160.961
11
58.7499
21
-160.77
0
LINE
8
BLACK
6
CONTINUOUS
10
58.7499
20
-160.77
11
58.6546
21
-160.39
0
LINE
8
BLACK
6
CONTINUOUS
10
58.6546
20
-160.39
11
58.6546
21
-159.913
0
LINE
8
BLACK
6
CONTINUOUS
10
58.6546
20
-159.913
11
58.7499
21
-159.532
0
LINE
8
BLACK
6
CONTINUOUS
10
58.7499
20
-159.532
11
58.8451
21
-159.342
0
LINE
8
BLACK
6
CONTINUOUS
10
58.8451
20
-159.342
11
58.9403
21
-159.247
0
LINE
8
BLACK
6
CONTINUOUS
10
58.9403
20
-159.247
11
59.1308
21
-159.151
0
LINE
8
BLACK
6
CONTINUOUS
10
60.6546
20
-161.151
11
60.6546
21
-159.818
0
LINE
8
BLACK
6
CONTINUOUS
10
60.6546
20
-160.009
11
60.7499
21
-159.913
0
LINE
8
BLACK
6
CONTINUOUS
10
60.7499
20
-159.913
11
60.9403
21
-159.818
0
LINE
8
BLACK
6
CONTINUOUS
10
60.9403
20
-159.818
11
61.226
21
-159.818
0
LINE
8
BLACK
6
CONTINUOUS
10
61.226
20
-159.818
11
61.4165
21
-159.913
0
LINE
8
BLACK
6
CONTINUOUS
10
61.4165
20
-159.913
11
61.5118
21
-160.104
0
LINE
8
BLACK
6
CONTINUOUS
10
61.5118
20
-160.104
11
61.5118
21
-161.151
0
LINE
8
BLACK
6
CONTINUOUS
10
61.5118
20
-160.104
11
61.607
21
-159.913
0
LINE
8
BLACK
6
CONTINUOUS
10
61.607
20
-159.913
11
61.7975
21
-159.818
0
LINE
8
BLACK
6
CONTINUOUS
10
61.7975
20
-159.818
11
62.0832
21
-159.818
0
LINE
8
BLACK
6
CONTINUOUS
10
62.0832
20
-159.818
11
62.2737
21
-159.913
0
LINE
8
BLACK
6
CONTINUOUS
10
62.2737
20
-159.913
11
62.3689
21
-160.104
0
LINE
8
BLACK
6
CONTINUOUS
10
62.3689
20
-160.104
11
62.3689
21
-161.151
0
LINE
8
BLACK
6
CONTINUOUS
10
63.3213
20
-161.151
11
63.3213
21
-159.818
0
LINE
8
BLACK
6
CONTINUOUS
10
63.3213
20
-160.009
11
63.4165
21
-159.913
0
LINE
8
BLACK
6
CONTINUOUS
10
63.4165
20
-159.913
11
63.607
21
-159.818
0
LINE
8
BLACK
6
CONTINUOUS
10
63.607
20
-159.818
11
63.8927
21
-159.818
0
LINE
8
BLACK
6
CONTINUOUS
10
63.8927
20
-159.818
11
64.0832
21
-159.913
0
LINE
8
BLACK
6
CONTINUOUS
10
64.0832
20
-159.913
11
64.1784
21
-160.104
0
LINE
8
BLACK
6
CONTINUOUS
10
64.1784
20
-160.104
11
64.1784
21
-161.151
0
LINE
8
BLACK
6
CONTINUOUS
10
64.1784
20
-160.104
11
64.2737
21
-159.913
0
LINE
8
BLACK
6
CONTINUOUS
10
64.2737
20
-159.913
11
64.4641
21
-159.818
0
LINE
8
BLACK
6
CONTINUOUS
10
64.4641
20
-159.818
11
64.7499
21
-159.818
0
LINE
8
BLACK
6
CONTINUOUS
10
64.7499
20
-159.818
11
64.9403
21
-159.913
0
LINE
8
BLACK
6
CONTINUOUS
10
64.9403
20
-159.913
11
65.0356
21
-160.104
0
LINE
8
BLACK
6
CONTINUOUS
10
65.0356
20
-160.104
11
65.0356
21
-161.151
0
LINE
8
BLACK
6
CONTINUOUS
10
68.9403
20
-159.056
11
67.226
21
-161.628
0
LINE
8
BLACK
6
CONTINUOUS
10
71.5118
20
-159.151
11
71.7022
21
-159.151
0
LINE
8
BLACK
6
CONTINUOUS
10
71.7022
20
-159.151
11
71.8927
21
-159.247
0
LINE
8
BLACK
6
CONTINUOUS
10
71.8927
20
-159.247
11
71.988
21
-159.342
0
LINE
8
BLACK
6
CONTINUOUS
10
71.988
20
-159.342
11
72.0832
21
-159.532
0
LINE
8
BLACK
6
CONTINUOUS
10
72.0832
20
-159.532
11
72.1784
21
-159.913
0
LINE
8
BLACK
6
CONTINUOUS
10
72.1784
20
-159.913
11
72.1784
21
-160.39
0
LINE
8
BLACK
6
CONTINUOUS
10
72.1784
20
-160.39
11
72.0832
21
-160.77
0
LINE
8
BLACK
6
CONTINUOUS
10
72.0832
20
-160.77
11
71.988
21
-160.961
0
LINE
8
BLACK
6
CONTINUOUS
10
71.988
20
-160.961
11
71.8927
21
-161.056
0
LINE
8
BLACK
6
CONTINUOUS
10
71.8927
20
-161.056
11
71.7022
21
-161.151
0
LINE
8
BLACK
6
CONTINUOUS
10
71.7022
20
-161.151
11
71.5118
21
-161.151
0
LINE
8
BLACK
6
CONTINUOUS
10
71.5118
20
-161.151
11
71.3213
21
-161.056
0
LINE
8
BLACK
6
CONTINUOUS
10
71.3213
20
-161.056
11
71.226
21
-160.961
0
LINE
8
BLACK
6
CONTINUOUS
10
71.226
20
-160.961
11
71.1308
21
-160.77
0
LINE
8
BLACK
6
CONTINUOUS
10
71.1308
20
-160.77
11
71.0356
21
-160.39
0
LINE
8
BLACK
6
CONTINUOUS
10
71.0356
20
-160.39
11
71.0356
21
-159.913
0
LINE
8
BLACK
6
CONTINUOUS
10
71.0356
20
-159.913
11
71.1308
21
-159.532
0
LINE
8
BLACK
6
CONTINUOUS
10
71.1308
20
-159.532
11
71.226
21
-159.342
0
LINE
8
BLACK
6
CONTINUOUS
10
71.226
20
-159.342
11
71.3213
21
-159.247
0
LINE
8
BLACK
6
CONTINUOUS
10
71.3213
20
-159.247
11
71.5118
21
-159.151
0
LINE
8
BLACK
6
CONTINUOUS
10
73.0356
20
-160.961
11
73.1308
21
-161.056
0
LINE
8
BLACK
6
CONTINUOUS
10
73.1308
20
-161.056
11
73.0356
21
-161.151
0
LINE
8
BLACK
6
CONTINUOUS
10
73.0356
20
-161.151
11
72.9403
21
-161.056
0
LINE
8
BLACK
6
CONTINUOUS
10
72.9403
20
-161.056
11
73.0356
21
-160.961
0
LINE
8
BLACK
6
CONTINUOUS
10
73.0356
20
-160.961
11
73.0356
21
-161.151
0
LINE
8
BLACK
6
CONTINUOUS
10
75.0356
20
-161.151
11
73.8927
21
-161.151
0
LINE
8
BLACK
6
CONTINUOUS
10
74.4641
20
-161.151
11
74.4641
21
-159.151
0
LINE
8
BLACK
6
CONTINUOUS
10
74.4641
20
-159.151
11
74.2737
21
-159.437
0
LINE
8
BLACK
6
CONTINUOUS
10
74.2737
20
-159.437
11
74.0832
21
-159.628
0
LINE
8
BLACK
6
CONTINUOUS
10
74.0832
20
-159.628
11
73.8927
21
-159.723
0
LINE
8
BLACK
6
CONTINUOUS
10
76.2737
20
-159.151
11
76.4641
21
-159.151
0
LINE
8
BLACK
6
CONTINUOUS
10
76.4641
20
-159.151
11
76.6546
21
-159.247
0
LINE
8
BLACK
6
CONTINUOUS
10
76.6546
20
-159.247
11
76.7499
21
-159.342
0
LINE
8
BLACK
6
CONTINUOUS
10
76.7499
20
-159.342
11
76.8451
21
-159.532
0
LINE
8
BLACK
6
CONTINUOUS
10
76.8451
20
-159.532
11
76.9403
21
-159.913
0
LINE
8
BLACK
6
CONTINUOUS
10
76.9403
20
-159.913
11
76.9403
21
-160.39
0
LINE
8
BLACK
6
CONTINUOUS
10
76.9403
20
-160.39
11
76.8451
21
-160.77
0
LINE
8
BLACK
6
CONTINUOUS
10
76.8451
20
-160.77
11
76.7499
21
-160.961
0
LINE
8
BLACK
6
CONTINUOUS
10
76.7499
20
-160.961
11
76.6546
21
-161.056
0
LINE
8
BLACK
6
CONTINUOUS
10
76.6546
20
-161.056
11
76.4641
21
-161.151
0
LINE
8
BLACK
6
CONTINUOUS
10
76.4641
20
-161.151
11
76.2737
21
-161.151
0
LINE
8
BLACK
6
CONTINUOUS
10
76.2737
20
-161.151
11
76.0832
21
-161.056
0
LINE
8
BLACK
6
CONTINUOUS
10
76.0832
20
-161.056
11
75.988
21
-160.961
0
LINE
8
BLACK
6
CONTINUOUS
10
75.988
20
-160.961
11
75.8927
21
-160.77
0
LINE
8
BLACK
6
CONTINUOUS
10
75.8927
20
-160.77
11
75.7975
21
-160.39
0
LINE
8
BLACK
6
CONTINUOUS
10
75.7975
20
-160.39
11
75.7975
21
-159.913
0
LINE
8
BLACK
6
CONTINUOUS
10
75.7975
20
-159.913
11
75.8927
21
-159.532
0
LINE
8
BLACK
6
CONTINUOUS
10
75.8927
20
-159.532
11
75.988
21
-159.342
0
LINE
8
BLACK
6
CONTINUOUS
10
75.988
20
-159.342
11
76.0832
21
-159.247
0
LINE
8
BLACK
6
CONTINUOUS
10
76.0832
20
-159.247
11
76.2737
21
-159.151
0
LINE
8
BLACK
6
CONTINUOUS
10
78.6546
20
-159.151
11
78.2737
21
-159.151
0
LINE
8
BLACK
6
CONTINUOUS
10
78.2737
20
-159.151
11
78.0832
21
-159.247
0
LINE
8
BLACK
6
CONTINUOUS
10
78.0832
20
-159.247
11
77.988
21
-159.342
0
LINE
8
BLACK
6
CONTINUOUS
10
77.988
20
-159.342
11
77.7975
21
-159.628
0
LINE
8
BLACK
6
CONTINUOUS
10
77.7975
20
-159.628
11
77.7022
21
-160.009
0
LINE
8
BLACK
6
CONTINUOUS
10
77.7022
20
-160.009
11
77.7022
21
-160.77
0
LINE
8
BLACK
6
CONTINUOUS
10
77.7022
20
-160.77
11
77.7975
21
-160.961
0
LINE
8
BLACK
6
CONTINUOUS
10
77.7975
20
-160.961
11
77.8927
21
-161.056
0
LINE
8
BLACK
6
CONTINUOUS
10
77.8927
20
-161.056
11
78.0832
21
-161.151
0
LINE
8
BLACK
6
CONTINUOUS
10
78.0832
20
-161.151
11
78.4641
21
-161.151
0
LINE
8
BLACK
6
CONTINUOUS
10
78.4641
20
-161.151
11
78.6546
21
-161.056
0
LINE
8
BLACK
6
CONTINUOUS
10
78.6546
20
-161.056
11
78.7499
21
-160.961
0
LINE
8
BLACK
6
CONTINUOUS
10
78.7499
20
-160.961
11
78.8451
21
-160.77
0
LINE
8
BLACK
6
CONTINUOUS
10
78.8451
20
-160.77
11
78.8451
21
-160.294
0
LINE
8
BLACK
6
CONTINUOUS
10
78.8451
20
-160.294
11
78.7499
21
-160.104
0
LINE
8
BLACK
6
CONTINUOUS
10
78.7499
20
-160.104
11
78.6546
21
-160.009
0
LINE
8
BLACK
6
CONTINUOUS
10
78.6546
20
-160.009
11
78.4641
21
-159.913
0
LINE
8
BLACK
6
CONTINUOUS
10
78.4641
20
-159.913
11
78.0832
21
-159.913
0
LINE
8
BLACK
6
CONTINUOUS
10
78.0832
20
-159.913
11
77.8927
21
-160.009
0
LINE
8
BLACK
6
CONTINUOUS
10
77.8927
20
-160.009
11
77.7975
21
-160.104
0
LINE
8
BLACK
6
CONTINUOUS
10
77.7975
20
-160.104
11
77.7022
21
-160.294
0
LINE
8
BLACK
6
CONTINUOUS
10
79.5118
20
-159.151
11
80.7499
21
-159.151
0
LINE
8
BLACK
6
CONTINUOUS
10
80.7499
20
-159.151
11
80.0832
21
-159.913
0
LINE
8
BLACK
6
CONTINUOUS
10
80.0832
20
-159.913
11
80.3689
21
-159.913
0
LINE
8
BLACK
6
CONTINUOUS
10
80.3689
20
-159.913
11
80.5594
21
-160.009
0
LINE
8
BLACK
6
CONTINUOUS
10
80.5594
20
-160.009
11
80.6546
21
-160.104
0
LINE
8
BLACK
6
CONTINUOUS
10
80.6546
20
-160.104
11
80.7499
21
-160.294
0
LINE
8
BLACK
6
CONTINUOUS
10
80.7499
20
-160.294
11
80.7499
21
-160.77
0
LINE
8
BLACK
6
CONTINUOUS
10
80.7499
20
-160.77
11
80.6546
21
-160.961
0
LINE
8
BLACK
6
CONTINUOUS
10
80.6546
20
-160.961
11
80.5594
21
-161.056
0
LINE
8
BLACK
6
CONTINUOUS
10
80.5594
20
-161.056
11
80.3689
21
-161.151
0
LINE
8
BLACK
6
CONTINUOUS
10
80.3689
20
-161.151
11
79.7975
21
-161.151
0
LINE
8
BLACK
6
CONTINUOUS
10
79.7975
20
-161.151
11
79.607
21
-161.056
0
LINE
8
BLACK
6
CONTINUOUS
10
79.607
20
-161.056
11
79.5118
21
-160.961
0
LINE
8
BLACK
6
CONTINUOUS
10
81.5118
20
-159.151
11
81.5118
21
-159.532
0
LINE
8
BLACK
6
CONTINUOUS
10
82.2737
20
-159.151
11
82.2737
21
-159.532
0
LINE
8
BLACK
6
CONTINUOUS
10
85.2261
20
-161.913
11
85.1308
21
-161.818
0
LINE
8
BLACK
6
CONTINUOUS
10
85.1308
20
-161.818
11
84.9403
21
-161.532
0
LINE
8
BLACK
6
CONTINUOUS
10
84.9403
20
-161.532
11
84.8451
21
-161.342
0
LINE
8
BLACK
6
CONTINUOUS
10
84.8451
20
-161.342
11
84.7499
21
-161.056
0
LINE
8
BLACK
6
CONTINUOUS
10
84.7499
20
-161.056
11
84.6546
21
-160.58
0
LINE
8
BLACK
6
CONTINUOUS
10
84.6546
20
-160.58
11
84.6546
21
-160.199
0
LINE
8
BLACK
6
CONTINUOUS
10
84.6546
20
-160.199
11
84.7499
21
-159.723
0
LINE
8
BLACK
6
CONTINUOUS
10
84.7499
20
-159.723
11
84.8451
21
-159.437
0
LINE
8
BLACK
6
CONTINUOUS
10
84.8451
20
-159.437
11
84.9403
21
-159.247
0
LINE
8
BLACK
6
CONTINUOUS
10
84.9403
20
-159.247
11
85.1308
21
-158.961
0
LINE
8
BLACK
6
CONTINUOUS
10
85.1308
20
-158.961
11
85.2261
21
-158.866
0
LINE
8
BLACK
6
CONTINUOUS
10
86.8451
20
-159.151
11
86.4641
21
-159.151
0
LINE
8
BLACK
6
CONTINUOUS
10
86.4641
20
-159.151
11
86.2737
21
-159.247
0
LINE
8
BLACK
6
CONTINUOUS
10
86.2737
20
-159.247
11
86.1784
21
-159.342
0
LINE
8
BLACK
6
CONTINUOUS
10
86.1784
20
-159.342
11
85.988
21
-159.628
0
LINE
8
BLACK
6
CONTINUOUS
10
85.988
20
-159.628
11
85.8927
21
-160.009
0
LINE
8
BLACK
6
CONTINUOUS
10
85.8927
20
-160.009
11
85.8927
21
-160.77
0
LINE
8
BLACK
6
CONTINUOUS
10
85.8927
20
-160.77
11
85.988
21
-160.961
0
LINE
8
BLACK
6
CONTINUOUS
10
85.988
20
-160.961
11
86.0832
21
-161.056
0
LINE
8
BLACK
6
CONTINUOUS
10
86.0832
20
-161.056
11
86.2737
21
-161.151
0
LINE
8
BLACK
6
CONTINUOUS
10
86.2737
20
-161.151
11
86.6546
21
-161.151
0
LINE
8
BLACK
6
CONTINUOUS
10
86.6546
20
-161.151
11
86.8451
21
-161.056
0
LINE
8
BLACK
6
CONTINUOUS
10
86.8451
20
-161.056
11
86.9403
21
-160.961
0
LINE
8
BLACK
6
CONTINUOUS
10
86.9403
20
-160.961
11
87.0356
21
-160.77
0
LINE
8
BLACK
6
CONTINUOUS
10
87.0356
20
-160.77
11
87.0356
21
-160.294
0
LINE
8
BLACK
6
CONTINUOUS
10
87.0356
20
-160.294
11
86.9403
21
-160.104
0
LINE
8
BLACK
6
CONTINUOUS
10
86.9403
20
-160.104
11
86.8451
21
-160.009
0
LINE
8
BLACK
6
CONTINUOUS
10
86.8451
20
-160.009
11
86.6546
21
-159.913
0
LINE
8
BLACK
6
CONTINUOUS
10
86.6546
20
-159.913
11
86.2737
21
-159.913
0
LINE
8
BLACK
6
CONTINUOUS
10
86.2737
20
-159.913
11
86.0832
21
-160.009
0
LINE
8
BLACK
6
CONTINUOUS
10
86.0832
20
-160.009
11
85.988
21
-160.104
0
LINE
8
BLACK
6
CONTINUOUS
10
85.988
20
-160.104
11
85.8927
21
-160.294
0
LINE
8
BLACK
6
CONTINUOUS
10
89.4165
20
-161.151
11
89.4165
21
-159.151
0
LINE
8
BLACK
6
CONTINUOUS
10
90.2737
20
-161.151
11
90.2737
21
-160.104
0
LINE
8
BLACK
6
CONTINUOUS
10
90.2737
20
-160.104
11
90.1784
21
-159.913
0
LINE
8
BLACK
6
CONTINUOUS
10
90.1784
20
-159.913
11
89.988
21
-159.818
0
LINE
8
BLACK
6
CONTINUOUS
10
89.988
20
-159.818
11
89.7022
21
-159.818
0
LINE
8
BLACK
6
CONTINUOUS
10
89.7022
20
-159.818
11
89.5118
21
-159.913
0
LINE
8
BLACK
6
CONTINUOUS
10
89.5118
20
-159.913
11
89.4165
21
-160.009
0
LINE
8
BLACK
6
CONTINUOUS
10
91.5118
20
-161.151
11
91.3213
21
-161.056
0
LINE
8
BLACK
6
CONTINUOUS
10
91.3213
20
-161.056
11
91.2261
21
-160.961
0
LINE
8
BLACK
6
CONTINUOUS
10
91.2261
20
-160.961
11
91.1308
21
-160.77
0
LINE
8
BLACK
6
CONTINUOUS
10
91.1308
20
-160.77
11
91.1308
21
-160.199
0
LINE
8
BLACK
6
CONTINUOUS
10
91.1308
20
-160.199
11
91.2261
21
-160.009
0
LINE
8
BLACK
6
CONTINUOUS
10
91.2261
20
-160.009
11
91.3213
21
-159.913
0
LINE
8
BLACK
6
CONTINUOUS
10
91.3213
20
-159.913
11
91.5118
21
-159.818
0
LINE
8
BLACK
6
CONTINUOUS
10
91.5118
20
-159.818
11
91.7975
21
-159.818
0
LINE
8
BLACK
6
CONTINUOUS
10
91.7975
20
-159.818
11
91.988
21
-159.913
0
LINE
8
BLACK
6
CONTINUOUS
10
91.988
20
-159.913
11
92.0832
21
-160.009
0
LINE
8
BLACK
6
CONTINUOUS
10
92.0832
20
-160.009
11
92.1784
21
-160.199
0
LINE
8
BLACK
6
CONTINUOUS
10
92.1784
20
-160.199
11
92.1784
21
-160.77
0
LINE
8
BLACK
6
CONTINUOUS
10
92.1784
20
-160.77
11
92.0832
21
-160.961
0
LINE
8
BLACK
6
CONTINUOUS
10
92.0832
20
-160.961
11
91.988
21
-161.056
0
LINE
8
BLACK
6
CONTINUOUS
10
91.988
20
-161.056
11
91.7975
21
-161.151
0
LINE
8
BLACK
6
CONTINUOUS
10
91.7975
20
-161.151
11
91.5118
21
-161.151
0
LINE
8
BLACK
6
CONTINUOUS
10
93.3213
20
-161.151
11
93.1308
21
-161.056
0
LINE
8
BLACK
6
CONTINUOUS
10
93.1308
20
-161.056
11
93.0356
21
-160.866
0
LINE
8
BLACK
6
CONTINUOUS
10
93.0356
20
-160.866
11
93.0356
21
-159.151
0
LINE
8
BLACK
6
CONTINUOUS
10
94.8451
20
-161.056
11
94.6546
21
-161.151
0
LINE
8
BLACK
6
CONTINUOUS
10
94.6546
20
-161.151
11
94.2737
21
-161.151
0
LINE
8
BLACK
6
CONTINUOUS
10
94.2737
20
-161.151
11
94.0832
21
-161.056
0
LINE
8
BLACK
6
CONTINUOUS
10
94.0832
20
-161.056
11
93.988
21
-160.866
0
LINE
8
BLACK
6
CONTINUOUS
10
93.988
20
-160.866
11
93.988
21
-160.104
0
LINE
8
BLACK
6
CONTINUOUS
10
93.988
20
-160.104
11
94.0832
21
-159.913
0
LINE
8
BLACK
6
CONTINUOUS
10
94.0832
20
-159.913
11
94.2737
21
-159.818
0
LINE
8
BLACK
6
CONTINUOUS
10
94.2737
20
-159.818
11
94.6546
21
-159.818
0
LINE
8
BLACK
6
CONTINUOUS
10
94.6546
20
-159.818
11
94.8451
21
-159.913
0
LINE
8
BLACK
6
CONTINUOUS
10
94.8451
20
-159.913
11
94.9403
21
-160.104
0
LINE
8
BLACK
6
CONTINUOUS
10
94.9403
20
-160.104
11
94.9403
21
-160.294
0
LINE
8
BLACK
6
CONTINUOUS
10
94.9403
20
-160.294
11
93.988
21
-160.485
0
LINE
8
BLACK
6
CONTINUOUS
10
95.7022
20
-161.056
11
95.8927
21
-161.151
0
LINE
8
BLACK
6
CONTINUOUS
10
95.8927
20
-161.151
11
96.2737
21
-161.151
0
LINE
8
BLACK
6
CONTINUOUS
10
96.2737
20
-161.151
11
96.4641
21
-161.056
0
LINE
8
BLACK
6
CONTINUOUS
10
96.4641
20
-161.056
11
96.5594
21
-160.866
0
LINE
8
BLACK
6
CONTINUOUS
10
96.5594
20
-160.866
11
96.5594
21
-160.77
0
LINE
8
BLACK
6
CONTINUOUS
10
96.5594
20
-160.77
11
96.4641
21
-160.58
0
LINE
8
BLACK
6
CONTINUOUS
10
96.4641
20
-160.58
11
96.2737
21
-160.485
0
LINE
8
BLACK
6
CONTINUOUS
10
96.2737
20
-160.485
11
95.988
21
-160.485
0
LINE
8
BLACK
6
CONTINUOUS
10
95.988
20
-160.485
11
95.7975
21
-160.39
0
LINE
8
BLACK
6
CONTINUOUS
10
95.7975
20
-160.39
11
95.7022
21
-160.199
0
LINE
8
BLACK
6
CONTINUOUS
10
95.7022
20
-160.199
11
95.7022
21
-160.104
0
LINE
8
BLACK
6
CONTINUOUS
10
95.7022
20
-160.104
11
95.7975
21
-159.913
0
LINE
8
BLACK
6
CONTINUOUS
10
95.7975
20
-159.913
11
95.988
21
-159.818
0
LINE
8
BLACK
6
CONTINUOUS
10
95.988
20
-159.818
11
96.2737
21
-159.818
0
LINE
8
BLACK
6
CONTINUOUS
10
96.2737
20
-159.818
11
96.4641
21
-159.913
0
LINE
8
BLACK
6
CONTINUOUS
10
97.2261
20
-161.913
11
97.3213
21
-161.818
0
LINE
8
BLACK
6
CONTINUOUS
10
97.3213
20
-161.818
11
97.5118
21
-161.532
0
LINE
8
BLACK
6
CONTINUOUS
10
97.5118
20
-161.532
11
97.607
21
-161.342
0
LINE
8
BLACK
6
CONTINUOUS
10
97.607
20
-161.342
11
97.7022
21
-161.056
0
LINE
8
BLACK
6
CONTINUOUS
10
97.7022
20
-161.056
11
97.7975
21
-160.58
0
LINE
8
BLACK
6
CONTINUOUS
10
97.7975
20
-160.58
11
97.7975
21
-160.199
0
LINE
8
BLACK
6
CONTINUOUS
10
97.7975
20
-160.199
11
97.7022
21
-159.723
0
LINE
8
BLACK
6
CONTINUOUS
10
97.7022
20
-159.723
11
97.607
21
-159.437
0
LINE
8
BLACK
6
CONTINUOUS
10
97.607
20
-159.437
11
97.5118
21
-159.247
0
LINE
8
BLACK
6
CONTINUOUS
10
97.5118
20
-159.247
11
97.3213
21
-158.961
0
LINE
8
BLACK
6
CONTINUOUS
10
97.3213
20
-158.961
11
97.2261
21
-158.866
0
LINE
8
BLACK
6
CONTINUOUS
10
100.845
20
-161.913
11
100.75
21
-161.818
0
LINE
8
BLACK
6
CONTINUOUS
10
100.75
20
-161.818
11
100.559
21
-161.532
0
LINE
8
BLACK
6
CONTINUOUS
10
100.559
20
-161.532
11
100.464
21
-161.342
0
LINE
8
BLACK
6
CONTINUOUS
10
100.464
20
-161.342
11
100.369
21
-161.056
0
LINE
8
BLACK
6
CONTINUOUS
10
100.369
20
-161.056
11
100.274
21
-160.58
0
LINE
8
BLACK
6
CONTINUOUS
10
100.274
20
-160.58
11
100.274
21
-160.199
0
LINE
8
BLACK
6
CONTINUOUS
10
100.274
20
-160.199
11
100.369
21
-159.723
0
LINE
8
BLACK
6
CONTINUOUS
10
100.369
20
-159.723
11
100.464
21
-159.437
0
LINE
8
BLACK
6
CONTINUOUS
10
100.464
20
-159.437
11
100.559
21
-159.247
0
LINE
8
BLACK
6
CONTINUOUS
10
100.559
20
-159.247
11
100.75
21
-158.961
0
LINE
8
BLACK
6
CONTINUOUS
10
100.75
20
-158.961
11
100.845
21
-158.866
0
LINE
8
BLACK
6
CONTINUOUS
10
101.607
20
-159.818
11
101.607
21
-161.151
0
LINE
8
BLACK
6
CONTINUOUS
10
101.607
20
-160.009
11
101.702
21
-159.913
0
LINE
8
BLACK
6
CONTINUOUS
10
101.702
20
-159.913
11
101.893
21
-159.818
0
LINE
8
BLACK
6
CONTINUOUS
10
101.893
20
-159.818
11
102.178
21
-159.818
0
LINE
8
BLACK
6
CONTINUOUS
10
102.178
20
-159.818
11
102.369
21
-159.913
0
LINE
8
BLACK
6
CONTINUOUS
10
102.369
20
-159.913
11
102.464
21
-160.104
0
LINE
8
BLACK
6
CONTINUOUS
10
102.464
20
-160.104
11
102.464
21
-161.151
0
LINE
8
BLACK
6
CONTINUOUS
10
103.702
20
-161.151
11
103.512
21
-161.056
0
LINE
8
BLACK
6
CONTINUOUS
10
103.512
20
-161.056
11
103.417
21
-160.961
0
LINE
8
BLACK
6
CONTINUOUS
10
103.417
20
-160.961
11
103.321
21
-160.77
0
LINE
8
BLACK
6
CONTINUOUS
10
103.321
20
-160.77
11
103.321
21
-160.199
0
LINE
8
BLACK
6
CONTINUOUS
10
103.321
20
-160.199
11
103.417
21
-160.009
0
LINE
8
BLACK
6
CONTINUOUS
10
103.417
20
-160.009
11
103.512
21
-159.913
0
LINE
8
BLACK
6
CONTINUOUS
10
103.512
20
-159.913
11
103.702
21
-159.818
0
LINE
8
BLACK
6
CONTINUOUS
10
103.702
20
-159.818
11
103.988
21
-159.818
0
LINE
8
BLACK
6
CONTINUOUS
10
103.988
20
-159.818
11
104.178
21
-159.913
0
LINE
8
BLACK
6
CONTINUOUS
10
104.178
20
-159.913
11
104.274
21
-160.009
0
LINE
8
BLACK
6
CONTINUOUS
10
104.274
20
-160.009
11
104.369
21
-160.199
0
LINE
8
BLACK
6
CONTINUOUS
10
104.369
20
-160.199
11
104.369
21
-160.77
0
LINE
8
BLACK
6
CONTINUOUS
10
104.369
20
-160.77
11
104.274
21
-160.961
0
LINE
8
BLACK
6
CONTINUOUS
10
104.274
20
-160.961
11
104.178
21
-161.056
0
LINE
8
BLACK
6
CONTINUOUS
10
104.178
20
-161.056
11
103.988
21
-161.151
0
LINE
8
BLACK
6
CONTINUOUS
10
103.988
20
-161.151
11
103.702
21
-161.151
0
LINE
8
BLACK
6
CONTINUOUS
10
104.94
20
-159.818
11
105.702
21
-159.818
0
LINE
8
BLACK
6
CONTINUOUS
10
105.226
20
-159.151
11
105.226
21
-160.866
0
LINE
8
BLACK
6
CONTINUOUS
10
105.226
20
-160.866
11
105.321
21
-161.056
0
LINE
8
BLACK
6
CONTINUOUS
10
105.321
20
-161.056
11
105.512
21
-161.151
0
LINE
8
BLACK
6
CONTINUOUS
10
105.512
20
-161.151
11
105.702
21
-161.151
0
LINE
8
BLACK
6
CONTINUOUS
10
107.893
20
-159.818
11
107.893
21
-161.818
0
LINE
8
BLACK
6
CONTINUOUS
10
107.893
20
-159.913
11
108.083
21
-159.818
0
LINE
8
BLACK
6
CONTINUOUS
10
108.083
20
-159.818
11
108.464
21
-159.818
0
LINE
8
BLACK
6
CONTINUOUS
10
108.464
20
-159.818
11
108.655
21
-159.913
0
LINE
8
BLACK
6
CONTINUOUS
10
108.655
20
-159.913
11
108.75
21
-160.009
0
LINE
8
BLACK
6
CONTINUOUS
10
108.75
20
-160.009
11
108.845
21
-160.199
0
LINE
8
BLACK
6
CONTINUOUS
10
108.845
20
-160.199
11
108.845
21
-160.77
0
LINE
8
BLACK
6
CONTINUOUS
10
108.845
20
-160.77
11
108.75
21
-160.961
0
LINE
8
BLACK
6
CONTINUOUS
10
108.75
20
-160.961
11
108.655
21
-161.056
0
LINE
8
BLACK
6
CONTINUOUS
10
108.655
20
-161.056
11
108.464
21
-161.151
0
LINE
8
BLACK
6
CONTINUOUS
10
108.464
20
-161.151
11
108.083
21
-161.151
0
LINE
8
BLACK
6
CONTINUOUS
10
108.083
20
-161.151
11
107.893
21
-161.056
0
LINE
8
BLACK
6
CONTINUOUS
10
109.988
20
-161.151
11
109.797
21
-161.056
0
LINE
8
BLACK
6
CONTINUOUS
10
109.797
20
-161.056
11
109.702
21
-160.866
0
LINE
8
BLACK
6
CONTINUOUS
10
109.702
20
-160.866
11
109.702
21
-159.151
0
LINE
8
BLACK
6
CONTINUOUS
10
111.607
20
-161.151
11
111.607
21
-160.104
0
LINE
8
BLACK
6
CONTINUOUS
10
111.607
20
-160.104
11
111.512
21
-159.913
0
LINE
8
BLACK
6
CONTINUOUS
10
111.512
20
-159.913
11
111.321
21
-159.818
0
LINE
8
BLACK
6
CONTINUOUS
10
111.321
20
-159.818
11
110.94
21
-159.818
0
LINE
8
BLACK
6
CONTINUOUS
10
110.94
20
-159.818
11
110.75
21
-159.913
0
LINE
8
BLACK
6
CONTINUOUS
10
111.607
20
-161.056
11
111.417
21
-161.151
0
LINE
8
BLACK
6
CONTINUOUS
10
111.417
20
-161.151
11
110.94
21
-161.151
0
LINE
8
BLACK
6
CONTINUOUS
10
110.94
20
-161.151
11
110.75
21
-161.056
0
LINE
8
BLACK
6
CONTINUOUS
10
110.75
20
-161.056
11
110.655
21
-160.866
0
LINE
8
BLACK
6
CONTINUOUS
10
110.655
20
-160.866
11
110.655
21
-160.675
0
LINE
8
BLACK
6
CONTINUOUS
10
110.655
20
-160.675
11
110.75
21
-160.485
0
LINE
8
BLACK
6
CONTINUOUS
10
110.75
20
-160.485
11
110.94
21
-160.39
0
LINE
8
BLACK
6
CONTINUOUS
10
110.94
20
-160.39
11
111.417
21
-160.39
0
LINE
8
BLACK
6
CONTINUOUS
10
111.417
20
-160.39
11
111.607
21
-160.294
0
LINE
8
BLACK
6
CONTINUOUS
10
112.274
20
-159.818
11
113.036
21
-159.818
0
LINE
8
BLACK
6
CONTINUOUS
10
112.559
20
-159.151
11
112.559
21
-160.866
0
LINE
8
BLACK
6
CONTINUOUS
10
112.559
20
-160.866
11
112.655
21
-161.056
0
LINE
8
BLACK
6
CONTINUOUS
10
112.655
20
-161.056
11
112.845
21
-161.151
0
LINE
8
BLACK
6
CONTINUOUS
10
112.845
20
-161.151
11
113.036
21
-161.151
0
LINE
8
BLACK
6
CONTINUOUS
10
114.464
20
-161.056
11
114.274
21
-161.151
0
LINE
8
BLACK
6
CONTINUOUS
10
114.274
20
-161.151
11
113.893
21
-161.151
0
LINE
8
BLACK
6
CONTINUOUS
10
113.893
20
-161.151
11
113.702
21
-161.056
0
LINE
8
BLACK
6
CONTINUOUS
10
113.702
20
-161.056
11
113.607
21
-160.866
0
LINE
8
BLACK
6
CONTINUOUS
10
113.607
20
-160.866
11
113.607
21
-160.104
0
LINE
8
BLACK
6
CONTINUOUS
10
113.607
20
-160.104
11
113.702
21
-159.913
0
LINE
8
BLACK
6
CONTINUOUS
10
113.702
20
-159.913
11
113.893
21
-159.818
0
LINE
8
BLACK
6
CONTINUOUS
10
113.893
20
-159.818
11
114.274
21
-159.818
0
LINE
8
BLACK
6
CONTINUOUS
10
114.274
20
-159.818
11
114.464
21
-159.913
0
LINE
8
BLACK
6
CONTINUOUS
10
114.464
20
-159.913
11
114.559
21
-160.104
0
LINE
8
BLACK
6
CONTINUOUS
10
114.559
20
-160.104
11
114.559
21
-160.294
0
LINE
8
BLACK
6
CONTINUOUS
10
114.559
20
-160.294
11
113.607
21
-160.485
0
LINE
8
BLACK
6
CONTINUOUS
10
116.274
20
-161.151
11
116.274
21
-159.151
0
LINE
8
BLACK
6
CONTINUOUS
10
116.274
20
-161.056
11
116.083
21
-161.151
0
LINE
8
BLACK
6
CONTINUOUS
10
116.083
20
-161.151
11
115.702
21
-161.151
0
LINE
8
BLACK
6
CONTINUOUS
10
115.702
20
-161.151
11
115.512
21
-161.056
0
LINE
8
BLACK
6
CONTINUOUS
10
115.512
20
-161.056
11
115.417
21
-160.961
0
LINE
8
BLACK
6
CONTINUOUS
10
115.417
20
-160.961
11
115.321
21
-160.77
0
LINE
8
BLACK
6
CONTINUOUS
10
115.321
20
-160.77
11
115.321
21
-160.199
0
LINE
8
BLACK
6
CONTINUOUS
10
115.321
20
-160.199
11
115.417
21
-160.009
0
LINE
8
BLACK
6
CONTINUOUS
10
115.417
20
-160.009
11
115.512
21
-159.913
0
LINE
8
BLACK
6
CONTINUOUS
10
115.512
20
-159.913
11
115.702
21
-159.818
0
LINE
8
BLACK
6
CONTINUOUS
10
115.702
20
-159.818
11
116.083
21
-159.818
0
LINE
8
BLACK
6
CONTINUOUS
10
116.083
20
-159.818
11
116.274
21
-159.913
0
LINE
8
BLACK
6
CONTINUOUS
10
117.036
20
-161.913
11
117.131
21
-161.818
0
LINE
8
BLACK
6
CONTINUOUS
10
117.131
20
-161.818
11
117.321
21
-161.532
0
LINE
8
BLACK
6
CONTINUOUS
10
117.321
20
-161.532
11
117.417
21
-161.342
0
LINE
8
BLACK
6
CONTINUOUS
10
117.417
20
-161.342
11
117.512
21
-161.056
0
LINE
8
BLACK
6
CONTINUOUS
10
117.512
20
-161.056
11
117.607
21
-160.58
0
LINE
8
BLACK
6
CONTINUOUS
10
117.607
20
-160.58
11
117.607
21
-160.199
0
LINE
8
BLACK
6
CONTINUOUS
10
117.607
20
-160.199
11
117.512
21
-159.723
0
LINE
8
BLACK
6
CONTINUOUS
10
117.512
20
-159.723
11
117.417
21
-159.437
0
LINE
8
BLACK
6
CONTINUOUS
10
117.417
20
-159.437
11
117.321
21
-159.247
0
LINE
8
BLACK
6
CONTINUOUS
10
117.321
20
-159.247
11
117.131
21
-158.961
0
LINE
8
BLACK
6
CONTINUOUS
10
117.131
20
-158.961
11
117.036
21
-158.866
0
LINE
8
BLACK
6
CONTINUOUS
10
49.3141
20
-164.133
11
49.3141
21
-162.719
0
LINE
8
BLACK
6
CONTINUOUS
10
49.3141
20
-162.719
11
47.8999
21
-162.719
0
LINE
8
BLACK
6
CONTINUOUS
10
47.8999
20
-162.719
11
47.8999
21
-164.133
0
LINE
8
BLACK
6
CONTINUOUS
10
47.8999
20
-164.133
11
49.3141
21
-164.133
0
LINE
8
BLACK
6
CONTINUOUS
10
51.8927
20
-162.351
11
53.1308
21
-162.351
0
LINE
8
BLACK
6
CONTINUOUS
10
53.1308
20
-162.351
11
52.4641
21
-163.113
0
LINE
8
BLACK
6
CONTINUOUS
10
52.4641
20
-163.113
11
52.7499
21
-163.113
0
LINE
8
BLACK
6
CONTINUOUS
10
52.7499
20
-163.113
11
52.9403
21
-163.209
0
LINE
8
BLACK
6
CONTINUOUS
10
52.9403
20
-163.209
11
53.0356
21
-163.304
0
LINE
8
BLACK
6
CONTINUOUS
10
53.0356
20
-163.304
11
53.1308
21
-163.494
0
LINE
8
BLACK
6
CONTINUOUS
10
53.1308
20
-163.494
11
53.1308
21
-163.97
0
LINE
8
BLACK
6
CONTINUOUS
10
53.1308
20
-163.97
11
53.0356
21
-164.161
0
LINE
8
BLACK
6
CONTINUOUS
10
53.0356
20
-164.161
11
52.9403
21
-164.256
0
LINE
8
BLACK
6
CONTINUOUS
10
52.9403
20
-164.256
11
52.7499
21
-164.351
0
LINE
8
BLACK
6
CONTINUOUS
10
52.7499
20
-164.351
11
52.1784
21
-164.351
0
LINE
8
BLACK
6
CONTINUOUS
10
52.1784
20
-164.351
11
51.988
21
-164.256
0
LINE
8
BLACK
6
CONTINUOUS
10
51.988
20
-164.256
11
51.8927
21
-164.161
0
LINE
8
BLACK
6
CONTINUOUS
10
53.988
20
-164.161
11
54.0832
21
-164.256
0
LINE
8
BLACK
6
CONTINUOUS
10
54.0832
20
-164.256
11
53.988
21
-164.351
0
LINE
8
BLACK
6
CONTINUOUS
10
53.988
20
-164.351
11
53.8927
21
-164.256
0
LINE
8
BLACK
6
CONTINUOUS
10
53.8927
20
-164.256
11
53.988
21
-164.161
0
LINE
8
BLACK
6
CONTINUOUS
10
53.988
20
-164.161
11
53.988
21
-164.351
0
LINE
8
BLACK
6
CONTINUOUS
10
54.8451
20
-162.542
11
54.9403
21
-162.447
0
LINE
8
BLACK
6
CONTINUOUS
10
54.9403
20
-162.447
11
55.1308
21
-162.351
0
LINE
8
BLACK
6
CONTINUOUS
10
55.1308
20
-162.351
11
55.607
21
-162.351
0
LINE
8
BLACK
6
CONTINUOUS
10
55.607
20
-162.351
11
55.7975
21
-162.447
0
LINE
8
BLACK
6
CONTINUOUS
10
55.7975
20
-162.447
11
55.8927
21
-162.542
0
LINE
8
BLACK
6
CONTINUOUS
10
55.8927
20
-162.542
11
55.988
21
-162.732
0
LINE
8
BLACK
6
CONTINUOUS
10
55.988
20
-162.732
11
55.988
21
-162.923
0
LINE
8
BLACK
6
CONTINUOUS
10
55.988
20
-162.923
11
55.8927
21
-163.209
0
LINE
8
BLACK
6
CONTINUOUS
10
55.8927
20
-163.209
11
54.7499
21
-164.351
0
LINE
8
BLACK
6
CONTINUOUS
10
54.7499
20
-164.351
11
55.988
21
-164.351
0
LINE
8
BLACK
6
CONTINUOUS
10
57.226
20
-162.351
11
57.4165
21
-162.351
0
LINE
8
BLACK
6
CONTINUOUS
10
57.4165
20
-162.351
11
57.607
21
-162.447
0
LINE
8
BLACK
6
CONTINUOUS
10
57.607
20
-162.447
11
57.7022
21
-162.542
0
LINE
8
BLACK
6
CONTINUOUS
10
57.7022
20
-162.542
11
57.7975
21
-162.732
0
LINE
8
BLACK
6
CONTINUOUS
10
57.7975
20
-162.732
11
57.8927
21
-163.113
0
LINE
8
BLACK
6
CONTINUOUS
10
57.8927
20
-163.113
11
57.8927
21
-163.59
0
LINE
8
BLACK
6
CONTINUOUS
10
57.8927
20
-163.59
11
57.7975
21
-163.97
0
LINE
8
BLACK
6
CONTINUOUS
10
57.7975
20
-163.97
11
57.7022
21
-164.161
0
LINE
8
BLACK
6
CONTINUOUS
10
57.7022
20
-164.161
11
57.607
21
-164.256
0
LINE
8
BLACK
6
CONTINUOUS
10
57.607
20
-164.256
11
57.4165
21
-164.351
0
LINE
8
BLACK
6
CONTINUOUS
10
57.4165
20
-164.351
11
57.226
21
-164.351
0
LINE
8
BLACK
6
CONTINUOUS
10
57.226
20
-164.351
11
57.0356
21
-164.256
0
LINE
8
BLACK
6
CONTINUOUS
10
57.0356
20
-164.256
11
56.9403
21
-164.161
0
LINE
8
BLACK
6
CONTINUOUS
10
56.9403
20
-164.161
11
56.8451
21
-163.97
0
LINE
8
BLACK
6
CONTINUOUS
10
56.8451
20
-163.97
11
56.7499
21
-163.59
0
LINE
8
BLACK
6
CONTINUOUS
10
56.7499
20
-163.59
11
56.7499
21
-163.113
0
LINE
8
BLACK
6
CONTINUOUS
10
56.7499
20
-163.113
11
56.8451
21
-162.732
0
LINE
8
BLACK
6
CONTINUOUS
10
56.8451
20
-162.732
11
56.9403
21
-162.542
0
LINE
8
BLACK
6
CONTINUOUS
10
56.9403
20
-162.542
11
57.0356
21
-162.447
0
LINE
8
BLACK
6
CONTINUOUS
10
57.0356
20
-162.447
11
57.226
21
-162.351
0
LINE
8
BLACK
6
CONTINUOUS
10
59.1308
20
-162.351
11
59.3213
21
-162.351
0
LINE
8
BLACK
6
CONTINUOUS
10
59.3213
20
-162.351
11
59.5118
21
-162.447
0
LINE
8
BLACK
6
CONTINUOUS
10
59.5118
20
-162.447
11
59.607
21
-162.542
0
LINE
8
BLACK
6
CONTINUOUS
10
59.607
20
-162.542
11
59.7022
21
-162.732
0
LINE
8
BLACK
6
CONTINUOUS
10
59.7022
20
-162.732
11
59.7975
21
-163.113
0
LINE
8
BLACK
6
CONTINUOUS
10
59.7975
20
-163.113
11
59.7975
21
-163.59
0
LINE
8
BLACK
6
CONTINUOUS
10
59.7975
20
-163.59
11
59.7022
21
-163.97
0
LINE
8
BLACK
6
CONTINUOUS
10
59.7022
20
-163.97
11
59.607
21
-164.161
0
LINE
8
BLACK
6
CONTINUOUS
10
59.607
20
-164.161
11
59.5118
21
-164.256
0
LINE
8
BLACK
6
CONTINUOUS
10
59.5118
20
-164.256
11
59.3213
21
-164.351
0
LINE
8
BLACK
6
CONTINUOUS
10
59.3213
20
-164.351
11
59.1308
21
-164.351
0
LINE
8
BLACK
6
CONTINUOUS
10
59.1308
20
-164.351
11
58.9403
21
-164.256
0
LINE
8
BLACK
6
CONTINUOUS
10
58.9403
20
-164.256
11
58.8451
21
-164.161
0
LINE
8
BLACK
6
CONTINUOUS
10
58.8451
20
-164.161
11
58.7499
21
-163.97
0
LINE
8
BLACK
6
CONTINUOUS
10
58.7499
20
-163.97
11
58.6546
21
-163.59
0
LINE
8
BLACK
6
CONTINUOUS
10
58.6546
20
-163.59
11
58.6546
21
-163.113
0
LINE
8
BLACK
6
CONTINUOUS
10
58.6546
20
-163.113
11
58.7499
21
-162.732
0
LINE
8
BLACK
6
CONTINUOUS
10
58.7499
20
-162.732
11
58.8451
21
-162.542
0
LINE
8
BLACK
6
CONTINUOUS
10
58.8451
20
-162.542
11
58.9403
21
-162.447
0
LINE
8
BLACK
6
CONTINUOUS
10
58.9403
20
-162.447
11
59.1308
21
-162.351
0
LINE
8
BLACK
6
CONTINUOUS
10
60.6546
20
-164.351
11
60.6546
21
-163.018
0
LINE
8
BLACK
6
CONTINUOUS
10
60.6546
20
-163.209
11
60.7499
21
-163.113
0
LINE
8
BLACK
6
CONTINUOUS
10
60.7499
20
-163.113
11
60.9403
21
-163.018
0
LINE
8
BLACK
6
CONTINUOUS
10
60.9403
20
-163.018
11
61.226
21
-163.018
0
LINE
8
BLACK
6
CONTINUOUS
10
61.226
20
-163.018
11
61.4165
21
-163.113
0
LINE
8
BLACK
6
CONTINUOUS
10
61.4165
20
-163.113
11
61.5118
21
-163.304
0
LINE
8
BLACK
6
CONTINUOUS
10
61.5118
20
-163.304
11
61.5118
21
-164.351
0
LINE
8
BLACK
6
CONTINUOUS
10
61.5118
20
-163.304
11
61.607
21
-163.113
0
LINE
8
BLACK
6
CONTINUOUS
10
61.607
20
-163.113
11
61.7975
21
-163.018
0
LINE
8
BLACK
6
CONTINUOUS
10
61.7975
20
-163.018
11
62.0832
21
-163.018
0
LINE
8
BLACK
6
CONTINUOUS
10
62.0832
20
-163.018
11
62.2737
21
-163.113
0
LINE
8
BLACK
6
CONTINUOUS
10
62.2737
20
-163.113
11
62.3689
21
-163.304
0
LINE
8
BLACK
6
CONTINUOUS
10
62.3689
20
-163.304
11
62.3689
21
-164.351
0
LINE
8
BLACK
6
CONTINUOUS
10
63.3213
20
-164.351
11
63.3213
21
-163.018
0
LINE
8
BLACK
6
CONTINUOUS
10
63.3213
20
-163.209
11
63.4165
21
-163.113
0
LINE
8
BLACK
6
CONTINUOUS
10
63.4165
20
-163.113
11
63.607
21
-163.018
0
LINE
8
BLACK
6
CONTINUOUS
10
63.607
20
-163.018
11
63.8927
21
-163.018
0
LINE
8
BLACK
6
CONTINUOUS
10
63.8927
20
-163.018
11
64.0832
21
-163.113
0
LINE
8
BLACK
6
CONTINUOUS
10
64.0832
20
-163.113
11
64.1784
21
-163.304
0
LINE
8
BLACK
6
CONTINUOUS
10
64.1784
20
-163.304
11
64.1784
21
-164.351
0
LINE
8
BLACK
6
CONTINUOUS
10
64.1784
20
-163.304
11
64.2737
21
-163.113
0
LINE
8
BLACK
6
CONTINUOUS
10
64.2737
20
-163.113
11
64.4641
21
-163.018
0
LINE
8
BLACK
6
CONTINUOUS
10
64.4641
20
-163.018
11
64.7499
21
-163.018
0
LINE
8
BLACK
6
CONTINUOUS
10
64.7499
20
-163.018
11
64.9403
21
-163.113
0
LINE
8
BLACK
6
CONTINUOUS
10
64.9403
20
-163.113
11
65.0356
21
-163.304
0
LINE
8
BLACK
6
CONTINUOUS
10
65.0356
20
-163.304
11
65.0356
21
-164.351
0
LINE
8
BLACK
6
CONTINUOUS
10
68.9403
20
-162.256
11
67.226
21
-164.828
0
LINE
8
BLACK
6
CONTINUOUS
10
71.5118
20
-162.351
11
71.7022
21
-162.351
0
LINE
8
BLACK
6
CONTINUOUS
10
71.7022
20
-162.351
11
71.8927
21
-162.447
0
LINE
8
BLACK
6
CONTINUOUS
10
71.8927
20
-162.447
11
71.988
21
-162.542
0
LINE
8
BLACK
6
CONTINUOUS
10
71.988
20
-162.542
11
72.0832
21
-162.732
0
LINE
8
BLACK
6
CONTINUOUS
10
72.0832
20
-162.732
11
72.1784
21
-163.113
0
LINE
8
BLACK
6
CONTINUOUS
10
72.1784
20
-163.113
11
72.1784
21
-163.59
0
LINE
8
BLACK
6
CONTINUOUS
10
72.1784
20
-163.59
11
72.0832
21
-163.97
0
LINE
8
BLACK
6
CONTINUOUS
10
72.0832
20
-163.97
11
71.988
21
-164.161
0
LINE
8
BLACK
6
CONTINUOUS
10
71.988
20
-164.161
11
71.8927
21
-164.256
0
LINE
8
BLACK
6
CONTINUOUS
10
71.8927
20
-164.256
11
71.7022
21
-164.351
0
LINE
8
BLACK
6
CONTINUOUS
10
71.7022
20
-164.351
11
71.5118
21
-164.351
0
LINE
8
BLACK
6
CONTINUOUS
10
71.5118
20
-164.351
11
71.3213
21
-164.256
0
LINE
8
BLACK
6
CONTINUOUS
10
71.3213
20
-164.256
11
71.226
21
-164.161
0
LINE
8
BLACK
6
CONTINUOUS
10
71.226
20
-164.161
11
71.1308
21
-163.97
0
LINE
8
BLACK
6
CONTINUOUS
10
71.1308
20
-163.97
11
71.0356
21
-163.59
0
LINE
8
BLACK
6
CONTINUOUS
10
71.0356
20
-163.59
11
71.0356
21
-163.113
0
LINE
8
BLACK
6
CONTINUOUS
10
71.0356
20
-163.113
11
71.1308
21
-162.732
0
LINE
8
BLACK
6
CONTINUOUS
10
71.1308
20
-162.732
11
71.226
21
-162.542
0
LINE
8
BLACK
6
CONTINUOUS
10
71.226
20
-162.542
11
71.3213
21
-162.447
0
LINE
8
BLACK
6
CONTINUOUS
10
71.3213
20
-162.447
11
71.5118
21
-162.351
0
LINE
8
BLACK
6
CONTINUOUS
10
73.0356
20
-164.161
11
73.1308
21
-164.256
0
LINE
8
BLACK
6
CONTINUOUS
10
73.1308
20
-164.256
11
73.0356
21
-164.351
0
LINE
8
BLACK
6
CONTINUOUS
10
73.0356
20
-164.351
11
72.9403
21
-164.256
0
LINE
8
BLACK
6
CONTINUOUS
10
72.9403
20
-164.256
11
73.0356
21
-164.161
0
LINE
8
BLACK
6
CONTINUOUS
10
73.0356
20
-164.161
11
73.0356
21
-164.351
0
LINE
8
BLACK
6
CONTINUOUS
10
75.0356
20
-164.351
11
73.8927
21
-164.351
0
LINE
8
BLACK
6
CONTINUOUS
10
74.4641
20
-164.351
11
74.4641
21
-162.351
0
LINE
8
BLACK
6
CONTINUOUS
10
74.4641
20
-162.351
11
74.2737
21
-162.637
0
LINE
8
BLACK
6
CONTINUOUS
10
74.2737
20
-162.637
11
74.0832
21
-162.828
0
LINE
8
BLACK
6
CONTINUOUS
10
74.0832
20
-162.828
11
73.8927
21
-162.923
0
LINE
8
BLACK
6
CONTINUOUS
10
75.7975
20
-162.542
11
75.8927
21
-162.447
0
LINE
8
BLACK
6
CONTINUOUS
10
75.8927
20
-162.447
11
76.0832
21
-162.351
0
LINE
8
BLACK
6
CONTINUOUS
10
76.0832
20
-162.351
11
76.5594
21
-162.351
0
LINE
8
BLACK
6
CONTINUOUS
10
76.5594
20
-162.351
11
76.7499
21
-162.447
0
LINE
8
BLACK
6
CONTINUOUS
10
76.7499
20
-162.447
11
76.8451
21
-162.542
0
LINE
8
BLACK
6
CONTINUOUS
10
76.8451
20
-162.542
11
76.9403
21
-162.732
0
LINE
8
BLACK
6
CONTINUOUS
10
76.9403
20
-162.732
11
76.9403
21
-162.923
0
LINE
8
BLACK
6
CONTINUOUS
10
76.9403
20
-162.923
11
76.8451
21
-163.209
0
LINE
8
BLACK
6
CONTINUOUS
10
76.8451
20
-163.209
11
75.7022
21
-164.351
0
LINE
8
BLACK
6
CONTINUOUS
10
75.7022
20
-164.351
11
76.9403
21
-164.351
0
LINE
8
BLACK
6
CONTINUOUS
10
78.6546
20
-162.351
11
78.2737
21
-162.351
0
LINE
8
BLACK
6
CONTINUOUS
10
78.2737
20
-162.351
11
78.0832
21
-162.447
0
LINE
8
BLACK
6
CONTINUOUS
10
78.0832
20
-162.447
11
77.988
21
-162.542
0
LINE
8
BLACK
6
CONTINUOUS
10
77.988
20
-162.542
11
77.7975
21
-162.828
0
LINE
8
BLACK
6
CONTINUOUS
10
77.7975
20
-162.828
11
77.7022
21
-163.209
0
LINE
8
BLACK
6
CONTINUOUS
10
77.7022
20
-163.209
11
77.7022
21
-163.97
0
LINE
8
BLACK
6
CONTINUOUS
10
77.7022
20
-163.97
11
77.7975
21
-164.161
0
LINE
8
BLACK
6
CONTINUOUS
10
77.7975
20
-164.161
11
77.8927
21
-164.256
0
LINE
8
BLACK
6
CONTINUOUS
10
77.8927
20
-164.256
11
78.0832
21
-164.351
0
LINE
8
BLACK
6
CONTINUOUS
10
78.0832
20
-164.351
11
78.4641
21
-164.351
0
LINE
8
BLACK
6
CONTINUOUS
10
78.4641
20
-164.351
11
78.6546
21
-164.256
0
LINE
8
BLACK
6
CONTINUOUS
10
78.6546
20
-164.256
11
78.7499
21
-164.161
0
LINE
8
BLACK
6
CONTINUOUS
10
78.7499
20
-164.161
11
78.8451
21
-163.97
0
LINE
8
BLACK
6
CONTINUOUS
10
78.8451
20
-163.97
11
78.8451
21
-163.494
0
LINE
8
BLACK
6
CONTINUOUS
10
78.8451
20
-163.494
11
78.7499
21
-163.304
0
LINE
8
BLACK
6
CONTINUOUS
10
78.7499
20
-163.304
11
78.6546
21
-163.209
0
LINE
8
BLACK
6
CONTINUOUS
10
78.6546
20
-163.209
11
78.4641
21
-163.113
0
LINE
8
BLACK
6
CONTINUOUS
10
78.4641
20
-163.113
11
78.0832
21
-163.113
0
LINE
8
BLACK
6
CONTINUOUS
10
78.0832
20
-163.113
11
77.8927
21
-163.209
0
LINE
8
BLACK
6
CONTINUOUS
10
77.8927
20
-163.209
11
77.7975
21
-163.304
0
LINE
8
BLACK
6
CONTINUOUS
10
77.7975
20
-163.304
11
77.7022
21
-163.494
0
LINE
8
BLACK
6
CONTINUOUS
10
80.0832
20
-162.351
11
80.2737
21
-162.351
0
LINE
8
BLACK
6
CONTINUOUS
10
80.2737
20
-162.351
11
80.4641
21
-162.447
0
LINE
8
BLACK
6
CONTINUOUS
10
80.4641
20
-162.447
11
80.5594
21
-162.542
0
LINE
8
BLACK
6
CONTINUOUS
10
80.5594
20
-162.542
11
80.6546
21
-162.732
0
LINE
8
BLACK
6
CONTINUOUS
10
80.6546
20
-162.732
11
80.7499
21
-163.113
0
LINE
8
BLACK
6
CONTINUOUS
10
80.7499
20
-163.113
11
80.7499
21
-163.59
0
LINE
8
BLACK
6
CONTINUOUS
10
80.7499
20
-163.59
11
80.6546
21
-163.97
0
LINE
8
BLACK
6
CONTINUOUS
10
80.6546
20
-163.97
11
80.5594
21
-164.161
0
LINE
8
BLACK
6
CONTINUOUS
10
80.5594
20
-164.161
11
80.4641
21
-164.256
0
LINE
8
BLACK
6
CONTINUOUS
10
80.4641
20
-164.256
11
80.2737
21
-164.351
0
LINE
8
BLACK
6
CONTINUOUS
10
80.2737
20
-164.351
11
80.0832
21
-164.351
0
LINE
8
BLACK
6
CONTINUOUS
10
80.0832
20
-164.351
11
79.8927
21
-164.256
0
LINE
8
BLACK
6
CONTINUOUS
10
79.8927
20
-164.256
11
79.7975
21
-164.161
0
LINE
8
BLACK
6
CONTINUOUS
10
79.7975
20
-164.161
11
79.7022
21
-163.97
0
LINE
8
BLACK
6
CONTINUOUS
10
79.7022
20
-163.97
11
79.607
21
-163.59
0
LINE
8
BLACK
6
CONTINUOUS
10
79.607
20
-163.59
11
79.607
21
-163.113
0
LINE
8
BLACK
6
CONTINUOUS
10
79.607
20
-163.113
11
79.7022
21
-162.732
0
LINE
8
BLACK
6
CONTINUOUS
10
79.7022
20
-162.732
11
79.7975
21
-162.542
0
LINE
8
BLACK
6
CONTINUOUS
10
79.7975
20
-162.542
11
79.8927
21
-162.447
0
LINE
8
BLACK
6
CONTINUOUS
10
79.8927
20
-162.447
11
80.0832
21
-162.351
0
LINE
8
BLACK
6
CONTINUOUS
10
81.5118
20
-162.351
11
81.5118
21
-162.732
0
LINE
8
BLACK
6
CONTINUOUS
10
82.2737
20
-162.351
11
82.2737
21
-162.732
0
LINE
8
BLACK
6
CONTINUOUS
10
85.2261
20
-165.113
11
85.1308
21
-165.018
0
LINE
8
BLACK
6
CONTINUOUS
10
85.1308
20
-165.018
11
84.9403
21
-164.732
0
LINE
8
BLACK
6
CONTINUOUS
10
84.9403
20
-164.732
11
84.8451
21
-164.542
0
LINE
8
BLACK
6
CONTINUOUS
10
84.8451
20
-164.542
11
84.7499
21
-164.256
0
LINE
8
BLACK
6
CONTINUOUS
10
84.7499
20
-164.256
11
84.6546
21
-163.78
0
LINE
8
BLACK
6
CONTINUOUS
10
84.6546
20
-163.78
11
84.6546
21
-163.399
0
LINE
8
BLACK
6
CONTINUOUS
10
84.6546
20
-163.399
11
84.7499
21
-162.923
0
LINE
8
BLACK
6
CONTINUOUS
10
84.7499
20
-162.923
11
84.8451
21
-162.637
0
LINE
8
BLACK
6
CONTINUOUS
10
84.8451
20
-162.637
11
84.9403
21
-162.447
0
LINE
8
BLACK
6
CONTINUOUS
10
84.9403
20
-162.447
11
85.1308
21
-162.161
0
LINE
8
BLACK
6
CONTINUOUS
10
85.1308
20
-162.161
11
85.2261
21
-162.066
0
LINE
8
BLACK
6
CONTINUOUS
10
85.8927
20
-162.542
11
85.988
21
-162.447
0
LINE
8
BLACK
6
CONTINUOUS
10
85.988
20
-162.447
11
86.1784
21
-162.351
0
LINE
8
BLACK
6
CONTINUOUS
10
86.1784
20
-162.351
11
86.6546
21
-162.351
0
LINE
8
BLACK
6
CONTINUOUS
10
86.6546
20
-162.351
11
86.8451
21
-162.447
0
LINE
8
BLACK
6
CONTINUOUS
10
86.8451
20
-162.447
11
86.9403
21
-162.542
0
LINE
8
BLACK
6
CONTINUOUS
10
86.9403
20
-162.542
11
87.0356
21
-162.732
0
LINE
8
BLACK
6
CONTINUOUS
10
87.0356
20
-162.732
11
87.0356
21
-162.923
0
LINE
8
BLACK
6
CONTINUOUS
10
87.0356
20
-162.923
11
86.9403
21
-163.209
0
LINE
8
BLACK
6
CONTINUOUS
10
86.9403
20
-163.209
11
85.7975
21
-164.351
0
LINE
8
BLACK
6
CONTINUOUS
10
85.7975
20
-164.351
11
87.0356
21
-164.351
0
LINE
8
BLACK
6
CONTINUOUS
10
89.4165
20
-164.351
11
89.4165
21
-162.351
0
LINE
8
BLACK
6
CONTINUOUS
10
90.2737
20
-164.351
11
90.2737
21
-163.304
0
LINE
8
BLACK
6
CONTINUOUS
10
90.2737
20
-163.304
11
90.1784
21
-163.113
0
LINE
8
BLACK
6
CONTINUOUS
10
90.1784
20
-163.113
11
89.988
21
-163.018
0
LINE
8
BLACK
6
CONTINUOUS
10
89.988
20
-163.018
11
89.7022
21
-163.018
0
LINE
8
BLACK
6
CONTINUOUS
10
89.7022
20
-163.018
11
89.5118
21
-163.113
0
LINE
8
BLACK
6
CONTINUOUS
10
89.5118
20
-163.113
11
89.4165
21
-163.209
0
LINE
8
BLACK
6
CONTINUOUS
10
91.5118
20
-164.351
11
91.3213
21
-164.256
0
LINE
8
BLACK
6
CONTINUOUS
10
91.3213
20
-164.256
11
91.2261
21
-164.161
0
LINE
8
BLACK
6
CONTINUOUS
10
91.2261
20
-164.161
11
91.1308
21
-163.97
0
LINE
8
BLACK
6
CONTINUOUS
10
91.1308
20
-163.97
11
91.1308
21
-163.399
0
LINE
8
BLACK
6
CONTINUOUS
10
91.1308
20
-163.399
11
91.2261
21
-163.209
0
LINE
8
BLACK
6
CONTINUOUS
10
91.2261
20
-163.209
11
91.3213
21
-163.113
0
LINE
8
BLACK
6
CONTINUOUS
10
91.3213
20
-163.113
11
91.5118
21
-163.018
0
LINE
8
BLACK
6
CONTINUOUS
10
91.5118
20
-163.018
11
91.7975
21
-163.018
0
LINE
8
BLACK
6
CONTINUOUS
10
91.7975
20
-163.018
11
91.988
21
-163.113
0
LINE
8
BLACK
6
CONTINUOUS
10
91.988
20
-163.113
11
92.0832
21
-163.209
0
LINE
8
BLACK
6
CONTINUOUS
10
92.0832
20
-163.209
11
92.1784
21
-163.399
0
LINE
8
BLACK
6
CONTINUOUS
10
92.1784
20
-163.399
11
92.1784
21
-163.97
0
LINE
8
BLACK
6
CONTINUOUS
10
92.1784
20
-163.97
11
92.0832
21
-164.161
0
LINE
8
BLACK
6
CONTINUOUS
10
92.0832
20
-164.161
11
91.988
21
-164.256
0
LINE
8
BLACK
6
CONTINUOUS
10
91.988
20
-164.256
11
91.7975
21
-164.351
0
LINE
8
BLACK
6
CONTINUOUS
10
91.7975
20
-164.351
11
91.5118
21
-164.351
0
LINE
8
BLACK
6
CONTINUOUS
10
93.3213
20
-164.351
11
93.1308
21
-164.256
0
LINE
8
BLACK
6
CONTINUOUS
10
93.1308
20
-164.256
11
93.0356
21
-164.066
0
LINE
8
BLACK
6
CONTINUOUS
10
93.0356
20
-164.066
11
93.0356
21
-162.351
0
LINE
8
BLACK
6
CONTINUOUS
10
94.8451
20
-164.256
11
94.6546
21
-164.351
0
LINE
8
BLACK
6
CONTINUOUS
10
94.6546
20
-164.351
11
94.2737
21
-164.351
0
LINE
8
BLACK
6
CONTINUOUS
10
94.2737
20
-164.351
11
94.0832
21
-164.256
0
LINE
8
BLACK
6
CONTINUOUS
10
94.0832
20
-164.256
11
93.988
21
-164.066
0
LINE
8
BLACK
6
CONTINUOUS
10
93.988
20
-164.066
11
93.988
21
-163.304
0
LINE
8
BLACK
6
CONTINUOUS
10
93.988
20
-163.304
11
94.0832
21
-163.113
0
LINE
8
BLACK
6
CONTINUOUS
10
94.0832
20
-163.113
11
94.2737
21
-163.018
0
LINE
8
BLACK
6
CONTINUOUS
10
94.2737
20
-163.018
11
94.6546
21
-163.018
0
LINE
8
BLACK
6
CONTINUOUS
10
94.6546
20
-163.018
11
94.8451
21
-163.113
0
LINE
8
BLACK
6
CONTINUOUS
10
94.8451
20
-163.113
11
94.9403
21
-163.304
0
LINE
8
BLACK
6
CONTINUOUS
10
94.9403
20
-163.304
11
94.9403
21
-163.494
0
LINE
8
BLACK
6
CONTINUOUS
10
94.9403
20
-163.494
11
93.988
21
-163.685
0
LINE
8
BLACK
6
CONTINUOUS
10
95.7022
20
-164.256
11
95.8927
21
-164.351
0
LINE
8
BLACK
6
CONTINUOUS
10
95.8927
20
-164.351
11
96.2737
21
-164.351
0
LINE
8
BLACK
6
CONTINUOUS
10
96.2737
20
-164.351
11
96.4641
21
-164.256
0
LINE
8
BLACK
6
CONTINUOUS
10
96.4641
20
-164.256
11
96.5594
21
-164.066
0
LINE
8
BLACK
6
CONTINUOUS
10
96.5594
20
-164.066
11
96.5594
21
-163.97
0
LINE
8
BLACK
6
CONTINUOUS
10
96.5594
20
-163.97
11
96.4641
21
-163.78
0
LINE
8
BLACK
6
CONTINUOUS
10
96.4641
20
-163.78
11
96.2737
21
-163.685
0
LINE
8
BLACK
6
CONTINUOUS
10
96.2737
20
-163.685
11
95.988
21
-163.685
0
LINE
8
BLACK
6
CONTINUOUS
10
95.988
20
-163.685
11
95.7975
21
-163.59
0
LINE
8
BLACK
6
CONTINUOUS
10
95.7975
20
-163.59
11
95.7022
21
-163.399
0
LINE
8
BLACK
6
CONTINUOUS
10
95.7022
20
-163.399
11
95.7022
21
-163.304
0
LINE
8
BLACK
6
CONTINUOUS
10
95.7022
20
-163.304
11
95.7975
21
-163.113
0
LINE
8
BLACK
6
CONTINUOUS
10
95.7975
20
-163.113
11
95.988
21
-163.018
0
LINE
8
BLACK
6
CONTINUOUS
10
95.988
20
-163.018
11
96.2737
21
-163.018
0
LINE
8
BLACK
6
CONTINUOUS
10
96.2737
20
-163.018
11
96.4641
21
-163.113
0
LINE
8
BLACK
6
CONTINUOUS
10
97.2261
20
-165.113
11
97.3213
21
-165.018
0
LINE
8
BLACK
6
CONTINUOUS
10
97.3213
20
-165.018
11
97.5118
21
-164.732
0
LINE
8
BLACK
6
CONTINUOUS
10
97.5118
20
-164.732
11
97.607
21
-164.542
0
LINE
8
BLACK
6
CONTINUOUS
10
97.607
20
-164.542
11
97.7022
21
-164.256
0
LINE
8
BLACK
6
CONTINUOUS
10
97.7022
20
-164.256
11
97.7975
21
-163.78
0
LINE
8
BLACK
6
CONTINUOUS
10
97.7975
20
-163.78
11
97.7975
21
-163.399
0
LINE
8
BLACK
6
CONTINUOUS
10
97.7975
20
-163.399
11
97.7022
21
-162.923
0
LINE
8
BLACK
6
CONTINUOUS
10
97.7022
20
-162.923
11
97.607
21
-162.637
0
LINE
8
BLACK
6
CONTINUOUS
10
97.607
20
-162.637
11
97.5118
21
-162.447
0
LINE
8
BLACK
6
CONTINUOUS
10
97.5118
20
-162.447
11
97.3213
21
-162.161
0
LINE
8
BLACK
6
CONTINUOUS
10
97.3213
20
-162.161
11
97.2261
21
-162.066
0
LINE
8
BLACK
6
CONTINUOUS
10
100.845
20
-165.113
11
100.75
21
-165.018
0
LINE
8
BLACK
6
CONTINUOUS
10
100.75
20
-165.018
11
100.559
21
-164.732
0
LINE
8
BLACK
6
CONTINUOUS
10
100.559
20
-164.732
11
100.464
21
-164.542
0
LINE
8
BLACK
6
CONTINUOUS
10
100.464
20
-164.542
11
100.369
21
-164.256
0
LINE
8
BLACK
6
CONTINUOUS
10
100.369
20
-164.256
11
100.274
21
-163.78
0
LINE
8
BLACK
6
CONTINUOUS
10
100.274
20
-163.78
11
100.274
21
-163.399
0
LINE
8
BLACK
6
CONTINUOUS
10
100.274
20
-163.399
11
100.369
21
-162.923
0
LINE
8
BLACK
6
CONTINUOUS
10
100.369
20
-162.923
11
100.464
21
-162.637
0
LINE
8
BLACK
6
CONTINUOUS
10
100.464
20
-162.637
11
100.559
21
-162.447
0
LINE
8
BLACK
6
CONTINUOUS
10
100.559
20
-162.447
11
100.75
21
-162.161
0
LINE
8
BLACK
6
CONTINUOUS
10
100.75
20
-162.161
11
100.845
21
-162.066
0
LINE
8
BLACK
6
CONTINUOUS
10
101.607
20
-163.018
11
101.607
21
-164.351
0
LINE
8
BLACK
6
CONTINUOUS
10
101.607
20
-163.209
11
101.702
21
-163.113
0
LINE
8
BLACK
6
CONTINUOUS
10
101.702
20
-163.113
11
101.893
21
-163.018
0
LINE
8
BLACK
6
CONTINUOUS
10
101.893
20
-163.018
11
102.178
21
-163.018
0
LINE
8
BLACK
6
CONTINUOUS
10
102.178
20
-163.018
11
102.369
21
-163.113
0
LINE
8
BLACK
6
CONTINUOUS
10
102.369
20
-163.113
11
102.464
21
-163.304
0
LINE
8
BLACK
6
CONTINUOUS
10
102.464
20
-163.304
11
102.464
21
-164.351
0
LINE
8
BLACK
6
CONTINUOUS
10
103.702
20
-164.351
11
103.512
21
-164.256
0
LINE
8
BLACK
6
CONTINUOUS
10
103.512
20
-164.256
11
103.417
21
-164.161
0
LINE
8
BLACK
6
CONTINUOUS
10
103.417
20
-164.161
11
103.321
21
-163.97
0
LINE
8
BLACK
6
CONTINUOUS
10
103.321
20
-163.97
11
103.321
21
-163.399
0
LINE
8
BLACK
6
CONTINUOUS
10
103.321
20
-163.399
11
103.417
21
-163.209
0
LINE
8
BLACK
6
CONTINUOUS
10
103.417
20
-163.209
11
103.512
21
-163.113
0
LINE
8
BLACK
6
CONTINUOUS
10
103.512
20
-163.113
11
103.702
21
-163.018
0
LINE
8
BLACK
6
CONTINUOUS
10
103.702
20
-163.018
11
103.988
21
-163.018
0
LINE
8
BLACK
6
CONTINUOUS
10
103.988
20
-163.018
11
104.178
21
-163.113
0
LINE
8
BLACK
6
CONTINUOUS
10
104.178
20
-163.113
11
104.274
21
-163.209
0
LINE
8
BLACK
6
CONTINUOUS
10
104.274
20
-163.209
11
104.369
21
-163.399
0
LINE
8
BLACK
6
CONTINUOUS
10
104.369
20
-163.399
11
104.369
21
-163.97
0
LINE
8
BLACK
6
CONTINUOUS
10
104.369
20
-163.97
11
104.274
21
-164.161
0
LINE
8
BLACK
6
CONTINUOUS
10
104.274
20
-164.161
11
104.178
21
-164.256
0
LINE
8
BLACK
6
CONTINUOUS
10
104.178
20
-164.256
11
103.988
21
-164.351
0
LINE
8
BLACK
6
CONTINUOUS
10
103.988
20
-164.351
11
103.702
21
-164.351
0
LINE
8
BLACK
6
CONTINUOUS
10
104.94
20
-163.018
11
105.702
21
-163.018
0
LINE
8
BLACK
6
CONTINUOUS
10
105.226
20
-162.351
11
105.226
21
-164.066
0
LINE
8
BLACK
6
CONTINUOUS
10
105.226
20
-164.066
11
105.321
21
-164.256
0
LINE
8
BLACK
6
CONTINUOUS
10
105.321
20
-164.256
11
105.512
21
-164.351
0
LINE
8
BLACK
6
CONTINUOUS
10
105.512
20
-164.351
11
105.702
21
-164.351
0
LINE
8
BLACK
6
CONTINUOUS
10
107.893
20
-163.018
11
107.893
21
-165.018
0
LINE
8
BLACK
6
CONTINUOUS
10
107.893
20
-163.113
11
108.083
21
-163.018
0
LINE
8
BLACK
6
CONTINUOUS
10
108.083
20
-163.018
11
108.464
21
-163.018
0
LINE
8
BLACK
6
CONTINUOUS
10
108.464
20
-163.018
11
108.655
21
-163.113
0
LINE
8
BLACK
6
CONTINUOUS
10
108.655
20
-163.113
11
108.75
21
-163.209
0
LINE
8
BLACK
6
CONTINUOUS
10
108.75
20
-163.209
11
108.845
21
-163.399
0
LINE
8
BLACK
6
CONTINUOUS
10
108.845
20
-163.399
11
108.845
21
-163.97
0
LINE
8
BLACK
6
CONTINUOUS
10
108.845
20
-163.97
11
108.75
21
-164.161
0
LINE
8
BLACK
6
CONTINUOUS
10
108.75
20
-164.161
11
108.655
21
-164.256
0
LINE
8
BLACK
6
CONTINUOUS
10
108.655
20
-164.256
11
108.464
21
-164.351
0
LINE
8
BLACK
6
CONTINUOUS
10
108.464
20
-164.351
11
108.083
21
-164.351
0
LINE
8
BLACK
6
CONTINUOUS
10
108.083
20
-164.351
11
107.893
21
-164.256
0
LINE
8
BLACK
6
CONTINUOUS
10
109.988
20
-164.351
11
109.797
21
-164.256
0
LINE
8
BLACK
6
CONTINUOUS
10
109.797
20
-164.256
11
109.702
21
-164.066
0
LINE
8
BLACK
6
CONTINUOUS
10
109.702
20
-164.066
11
109.702
21
-162.351
0
LINE
8
BLACK
6
CONTINUOUS
10
111.607
20
-164.351
11
111.607
21
-163.304
0
LINE
8
BLACK
6
CONTINUOUS
10
111.607
20
-163.304
11
111.512
21
-163.113
0
LINE
8
BLACK
6
CONTINUOUS
10
111.512
20
-163.113
11
111.321
21
-163.018
0
LINE
8
BLACK
6
CONTINUOUS
10
111.321
20
-163.018
11
110.94
21
-163.018
0
LINE
8
BLACK
6
CONTINUOUS
10
110.94
20
-163.018
11
110.75
21
-163.113
0
LINE
8
BLACK
6
CONTINUOUS
10
111.607
20
-164.256
11
111.417
21
-164.351
0
LINE
8
BLACK
6
CONTINUOUS
10
111.417
20
-164.351
11
110.94
21
-164.351
0
LINE
8
BLACK
6
CONTINUOUS
10
110.94
20
-164.351
11
110.75
21
-164.256
0
LINE
8
BLACK
6
CONTINUOUS
10
110.75
20
-164.256
11
110.655
21
-164.066
0
LINE
8
BLACK
6
CONTINUOUS
10
110.655
20
-164.066
11
110.655
21
-163.875
0
LINE
8
BLACK
6
CONTINUOUS
10
110.655
20
-163.875
11
110.75
21
-163.685
0
LINE
8
BLACK
6
CONTINUOUS
10
110.75
20
-163.685
11
110.94
21
-163.59
0
LINE
8
BLACK
6
CONTINUOUS
10
110.94
20
-163.59
11
111.417
21
-163.59
0
LINE
8
BLACK
6
CONTINUOUS
10
111.417
20
-163.59
11
111.607
21
-163.494
0
LINE
8
BLACK
6
CONTINUOUS
10
112.274
20
-163.018
11
113.036
21
-163.018
0
LINE
8
BLACK
6
CONTINUOUS
10
112.559
20
-162.351
11
112.559
21
-164.066
0
LINE
8
BLACK
6
CONTINUOUS
10
112.559
20
-164.066
11
112.655
21
-164.256
0
LINE
8
BLACK
6
CONTINUOUS
10
112.655
20
-164.256
11
112.845
21
-164.351
0
LINE
8
BLACK
6
CONTINUOUS
10
112.845
20
-164.351
11
113.036
21
-164.351
0
LINE
8
BLACK
6
CONTINUOUS
10
114.464
20
-164.256
11
114.274
21
-164.351
0
LINE
8
BLACK
6
CONTINUOUS
10
114.274
20
-164.351
11
113.893
21
-164.351
0
LINE
8
BLACK
6
CONTINUOUS
10
113.893
20
-164.351
11
113.702
21
-164.256
0
LINE
8
BLACK
6
CONTINUOUS
10
113.702
20
-164.256
11
113.607
21
-164.066
0
LINE
8
BLACK
6
CONTINUOUS
10
113.607
20
-164.066
11
113.607
21
-163.304
0
LINE
8
BLACK
6
CONTINUOUS
10
113.607
20
-163.304
11
113.702
21
-163.113
0
LINE
8
BLACK
6
CONTINUOUS
10
113.702
20
-163.113
11
113.893
21
-163.018
0
LINE
8
BLACK
6
CONTINUOUS
10
113.893
20
-163.018
11
114.274
21
-163.018
0
LINE
8
BLACK
6
CONTINUOUS
10
114.274
20
-163.018
11
114.464
21
-163.113
0
LINE
8
BLACK
6
CONTINUOUS
10
114.464
20
-163.113
11
114.559
21
-163.304
0
LINE
8
BLACK
6
CONTINUOUS
10
114.559
20
-163.304
11
114.559
21
-163.494
0
LINE
8
BLACK
6
CONTINUOUS
10
114.559
20
-163.494
11
113.607
21
-163.685
0
LINE
8
BLACK
6
CONTINUOUS
10
116.274
20
-164.351
11
116.274
21
-162.351
0
LINE
8
BLACK
6
CONTINUOUS
10
116.274
20
-164.256
11
116.083
21
-164.351
0
LINE
8
BLACK
6
CONTINUOUS
10
116.083
20
-164.351
11
115.702
21
-164.351
0
LINE
8
BLACK
6
CONTINUOUS
10
115.702
20
-164.351
11
115.512
21
-164.256
0
LINE
8
BLACK
6
CONTINUOUS
10
115.512
20
-164.256
11
115.417
21
-164.161
0
LINE
8
BLACK
6
CONTINUOUS
10
115.417
20
-164.161
11
115.321
21
-163.97
0
LINE
8
BLACK
6
CONTINUOUS
10
115.321
20
-163.97
11
115.321
21
-163.399
0
LINE
8
BLACK
6
CONTINUOUS
10
115.321
20
-163.399
11
115.417
21
-163.209
0
LINE
8
BLACK
6
CONTINUOUS
10
115.417
20
-163.209
11
115.512
21
-163.113
0
LINE
8
BLACK
6
CONTINUOUS
10
115.512
20
-163.113
11
115.702
21
-163.018
0
LINE
8
BLACK
6
CONTINUOUS
10
115.702
20
-163.018
11
116.083
21
-163.018
0
LINE
8
BLACK
6
CONTINUOUS
10
116.083
20
-163.018
11
116.274
21
-163.113
0
LINE
8
BLACK
6
CONTINUOUS
10
117.036
20
-165.113
11
117.131
21
-165.018
0
LINE
8
BLACK
6
CONTINUOUS
10
117.131
20
-165.018
11
117.321
21
-164.732
0
LINE
8
BLACK
6
CONTINUOUS
10
117.321
20
-164.732
11
117.417
21
-164.542
0
LINE
8
BLACK
6
CONTINUOUS
10
117.417
20
-164.542
11
117.512
21
-164.256
0
LINE
8
BLACK
6
CONTINUOUS
10
117.512
20
-164.256
11
117.607
21
-163.78
0
LINE
8
BLACK
6
CONTINUOUS
10
117.607
20
-163.78
11
117.607
21
-163.399
0
LINE
8
BLACK
6
CONTINUOUS
10
117.607
20
-163.399
11
117.512
21
-162.923
0
LINE
8
BLACK
6
CONTINUOUS
10
117.512
20
-162.923
11
117.417
21
-162.637
0
LINE
8
BLACK
6
CONTINUOUS
10
117.417
20
-162.637
11
117.321
21
-162.447
0
LINE
8
BLACK
6
CONTINUOUS
10
117.321
20
-162.447
11
117.131
21
-162.161
0
LINE
8
BLACK
6
CONTINUOUS
10
117.131
20
-162.161
11
117.036
21
-162.066
0
LINE
8
BLACK
6
CONTINUOUS
10
48.607
20
-167.626
11
49.607
21
-166.626
0
LINE
8
BLACK
6
CONTINUOUS
10
49.607
20
-166.626
11
48.607
21
-165.626
0
LINE
8
BLACK
6
CONTINUOUS
10
48.607
20
-165.626
11
47.607
21
-166.626
0
LINE
8
BLACK
6
CONTINUOUS
10
47.607
20
-166.626
11
48.607
21
-167.626
0
LINE
8
BLACK
6
CONTINUOUS
10
51.8927
20
-165.551
11
53.1308
21
-165.551
0
LINE
8
BLACK
6
CONTINUOUS
10
53.1308
20
-165.551
11
52.4641
21
-166.313
0
LINE
8
BLACK
6
CONTINUOUS
10
52.4641
20
-166.313
11
52.7499
21
-166.313
0
LINE
8
BLACK
6
CONTINUOUS
10
52.7499
20
-166.313
11
52.9403
21
-166.409
0
LINE
8
BLACK
6
CONTINUOUS
10
52.9403
20
-166.409
11
53.0356
21
-166.504
0
LINE
8
BLACK
6
CONTINUOUS
10
53.0356
20
-166.504
11
53.1308
21
-166.694
0
LINE
8
BLACK
6
CONTINUOUS
10
53.1308
20
-166.694
11
53.1308
21
-167.17
0
LINE
8
BLACK
6
CONTINUOUS
10
53.1308
20
-167.17
11
53.0356
21
-167.361
0
LINE
8
BLACK
6
CONTINUOUS
10
53.0356
20
-167.361
11
52.9403
21
-167.456
0
LINE
8
BLACK
6
CONTINUOUS
10
52.9403
20
-167.456
11
52.7499
21
-167.551
0
LINE
8
BLACK
6
CONTINUOUS
10
52.7499
20
-167.551
11
52.1784
21
-167.551
0
LINE
8
BLACK
6
CONTINUOUS
10
52.1784
20
-167.551
11
51.988
21
-167.456
0
LINE
8
BLACK
6
CONTINUOUS
10
51.988
20
-167.456
11
51.8927
21
-167.361
0
LINE
8
BLACK
6
CONTINUOUS
10
53.988
20
-167.361
11
54.0832
21
-167.456
0
LINE
8
BLACK
6
CONTINUOUS
10
54.0832
20
-167.456
11
53.988
21
-167.551
0
LINE
8
BLACK
6
CONTINUOUS
10
53.988
20
-167.551
11
53.8927
21
-167.456
0
LINE
8
BLACK
6
CONTINUOUS
10
53.8927
20
-167.456
11
53.988
21
-167.361
0
LINE
8
BLACK
6
CONTINUOUS
10
53.988
20
-167.361
11
53.988
21
-167.551
0
LINE
8
BLACK
6
CONTINUOUS
10
55.8927
20
-165.551
11
54.9403
21
-165.551
0
LINE
8
BLACK
6
CONTINUOUS
10
54.9403
20
-165.551
11
54.8451
21
-166.504
0
LINE
8
BLACK
6
CONTINUOUS
10
54.8451
20
-166.504
11
54.9403
21
-166.409
0
LINE
8
BLACK
6
CONTINUOUS
10
54.9403
20
-166.409
11
55.1308
21
-166.313
0
LINE
8
BLACK
6
CONTINUOUS
10
55.1308
20
-166.313
11
55.607
21
-166.313
0
LINE
8
BLACK
6
CONTINUOUS
10
55.607
20
-166.313
11
55.7975
21
-166.409
0
LINE
8
BLACK
6
CONTINUOUS
10
55.7975
20
-166.409
11
55.8927
21
-166.504
0
LINE
8
BLACK
6
CONTINUOUS
10
55.8927
20
-166.504
11
55.988
21
-166.694
0
LINE
8
BLACK
6
CONTINUOUS
10
55.988
20
-166.694
11
55.988
21
-167.17
0
LINE
8
BLACK
6
CONTINUOUS
10
55.988
20
-167.17
11
55.8927
21
-167.361
0
LINE
8
BLACK
6
CONTINUOUS
10
55.8927
20
-167.361
11
55.7975
21
-167.456
0
LINE
8
BLACK
6
CONTINUOUS
10
55.7975
20
-167.456
11
55.607
21
-167.551
0
LINE
8
BLACK
6
CONTINUOUS
10
55.607
20
-167.551
11
55.1308
21
-167.551
0
LINE
8
BLACK
6
CONTINUOUS
10
55.1308
20
-167.551
11
54.9403
21
-167.456
0
LINE
8
BLACK
6
CONTINUOUS
10
54.9403
20
-167.456
11
54.8451
21
-167.361
0
LINE
8
BLACK
6
CONTINUOUS
10
57.226
20
-165.551
11
57.4165
21
-165.551
0
LINE
8
BLACK
6
CONTINUOUS
10
57.4165
20
-165.551
11
57.607
21
-165.647
0
LINE
8
BLACK
6
CONTINUOUS
10
57.607
20
-165.647
11
57.7022
21
-165.742
0
LINE
8
BLACK
6
CONTINUOUS
10
57.7022
20
-165.742
11
57.7975
21
-165.932
0
LINE
8
BLACK
6
CONTINUOUS
10
57.7975
20
-165.932
11
57.8927
21
-166.313
0
LINE
8
BLACK
6
CONTINUOUS
10
57.8927
20
-166.313
11
57.8927
21
-166.79
0
LINE
8
BLACK
6
CONTINUOUS
10
57.8927
20
-166.79
11
57.7975
21
-167.17
0
LINE
8
BLACK
6
CONTINUOUS
10
57.7975
20
-167.17
11
57.7022
21
-167.361
0
LINE
8
BLACK
6
CONTINUOUS
10
57.7022
20
-167.361
11
57.607
21
-167.456
0
LINE
8
BLACK
6
CONTINUOUS
10
57.607
20
-167.456
11
57.4165
21
-167.551
0
LINE
8
BLACK
6
CONTINUOUS
10
57.4165
20
-167.551
11
57.226
21
-167.551
0
LINE
8
BLACK
6
CONTINUOUS
10
57.226
20
-167.551
11
57.0356
21
-167.456
0
LINE
8
BLACK
6
CONTINUOUS
10
57.0356
20
-167.456
11
56.9403
21
-167.361
0
LINE
8
BLACK
6
CONTINUOUS
10
56.9403
20
-167.361
11
56.8451
21
-167.17
0
LINE
8
BLACK
6
CONTINUOUS
10
56.8451
20
-167.17
11
56.7499
21
-166.79
0
LINE
8
BLACK
6
CONTINUOUS
10
56.7499
20
-166.79
11
56.7499
21
-166.313
0
LINE
8
BLACK
6
CONTINUOUS
10
56.7499
20
-166.313
11
56.8451
21
-165.932
0
LINE
8
BLACK
6
CONTINUOUS
10
56.8451
20
-165.932
11
56.9403
21
-165.742
0
LINE
8
BLACK
6
CONTINUOUS
10
56.9403
20
-165.742
11
57.0356
21
-165.647
0
LINE
8
BLACK
6
CONTINUOUS
10
57.0356
20
-165.647
11
57.226
21
-165.551
0
LINE
8
BLACK
6
CONTINUOUS
10
59.1308
20
-165.551
11
59.3213
21
-165.551
0
LINE
8
BLACK
6
CONTINUOUS
10
59.3213
20
-165.551
11
59.5118
21
-165.647
0
LINE
8
BLACK
6
CONTINUOUS
10
59.5118
20
-165.647
11
59.607
21
-165.742
0
LINE
8
BLACK
6
CONTINUOUS
10
59.607
20
-165.742
11
59.7022
21
-165.932
0
LINE
8
BLACK
6
CONTINUOUS
10
59.7022
20
-165.932
11
59.7975
21
-166.313
0
LINE
8
BLACK
6
CONTINUOUS
10
59.7975
20
-166.313
11
59.7975
21
-166.79
0
LINE
8
BLACK
6
CONTINUOUS
10
59.7975
20
-166.79
11
59.7022
21
-167.17
0
LINE
8
BLACK
6
CONTINUOUS
10
59.7022
20
-167.17
11
59.607
21
-167.361
0
LINE
8
BLACK
6
CONTINUOUS
10
59.607
20
-167.361
11
59.5118
21
-167.456
0
LINE
8
BLACK
6
CONTINUOUS
10
59.5118
20
-167.456
11
59.3213
21
-167.551
0
LINE
8
BLACK
6
CONTINUOUS
10
59.3213
20
-167.551
11
59.1308
21
-167.551
0
LINE
8
BLACK
6
CONTINUOUS
10
59.1308
20
-167.551
11
58.9403
21
-167.456
0
LINE
8
BLACK
6
CONTINUOUS
10
58.9403
20
-167.456
11
58.8451
21
-167.361
0
LINE
8
BLACK
6
CONTINUOUS
10
58.8451
20
-167.361
11
58.7499
21
-167.17
0
LINE
8
BLACK
6
CONTINUOUS
10
58.7499
20
-167.17
11
58.6546
21
-166.79
0
LINE
8
BLACK
6
CONTINUOUS
10
58.6546
20
-166.79
11
58.6546
21
-166.313
0
LINE
8
BLACK
6
CONTINUOUS
10
58.6546
20
-166.313
11
58.7499
21
-165.932
0
LINE
8
BLACK
6
CONTINUOUS
10
58.7499
20
-165.932
11
58.8451
21
-165.742
0
LINE
8
BLACK
6
CONTINUOUS
10
58.8451
20
-165.742
11
58.9403
21
-165.647
0
LINE
8
BLACK
6
CONTINUOUS
10
58.9403
20
-165.647
11
59.1308
21
-165.551
0
LINE
8
BLACK
6
CONTINUOUS
10
60.6546
20
-167.551
11
60.6546
21
-166.218
0
LINE
8
BLACK
6
CONTINUOUS
10
60.6546
20
-166.409
11
60.7499
21
-166.313
0
LINE
8
BLACK
6
CONTINUOUS
10
60.7499
20
-166.313
11
60.9403
21
-166.218
0
LINE
8
BLACK
6
CONTINUOUS
10
60.9403
20
-166.218
11
61.226
21
-166.218
0
LINE
8
BLACK
6
CONTINUOUS
10
61.226
20
-166.218
11
61.4165
21
-166.313
0
LINE
8
BLACK
6
CONTINUOUS
10
61.4165
20
-166.313
11
61.5118
21
-166.504
0
LINE
8
BLACK
6
CONTINUOUS
10
61.5118
20
-166.504
11
61.5118
21
-167.551
0
LINE
8
BLACK
6
CONTINUOUS
10
61.5118
20
-166.504
11
61.607
21
-166.313
0
LINE
8
BLACK
6
CONTINUOUS
10
61.607
20
-166.313
11
61.7975
21
-166.218
0
LINE
8
BLACK
6
CONTINUOUS
10
61.7975
20
-166.218
11
62.0832
21
-166.218
0
LINE
8
BLACK
6
CONTINUOUS
10
62.0832
20
-166.218
11
62.2737
21
-166.313
0
LINE
8
BLACK
6
CONTINUOUS
10
62.2737
20
-166.313
11
62.3689
21
-166.504
0
LINE
8
BLACK
6
CONTINUOUS
10
62.3689
20
-166.504
11
62.3689
21
-167.551
0
LINE
8
BLACK
6
CONTINUOUS
10
63.3213
20
-167.551
11
63.3213
21
-166.218
0
LINE
8
BLACK
6
CONTINUOUS
10
63.3213
20
-166.409
11
63.4165
21
-166.313
0
LINE
8
BLACK
6
CONTINUOUS
10
63.4165
20
-166.313
11
63.607
21
-166.218
0
LINE
8
BLACK
6
CONTINUOUS
10
63.607
20
-166.218
11
63.8927
21
-166.218
0
LINE
8
BLACK
6
CONTINUOUS
10
63.8927
20
-166.218
11
64.0832
21
-166.313
0
LINE
8
BLACK
6
CONTINUOUS
10
64.0832
20
-166.313
11
64.1784
21
-166.504
0
LINE
8
BLACK
6
CONTINUOUS
10
64.1784
20
-166.504
11
64.1784
21
-167.551
0
LINE
8
BLACK
6
CONTINUOUS
10
64.1784
20
-166.504
11
64.2737
21
-166.313
0
LINE
8
BLACK
6
CONTINUOUS
10
64.2737
20
-166.313
11
64.4641
21
-166.218
0
LINE
8
BLACK
6
CONTINUOUS
10
64.4641
20
-166.218
11
64.7499
21
-166.218
0
LINE
8
BLACK
6
CONTINUOUS
10
64.7499
20
-166.218
11
64.9403
21
-166.313
0
LINE
8
BLACK
6
CONTINUOUS
10
64.9403
20
-166.313
11
65.0356
21
-166.504
0
LINE
8
BLACK
6
CONTINUOUS
10
65.0356
20
-166.504
11
65.0356
21
-167.551
0
LINE
8
BLACK
6
CONTINUOUS
10
68.9403
20
-165.456
11
67.226
21
-168.028
0
LINE
8
BLACK
6
CONTINUOUS
10
71.5118
20
-165.551
11
71.7022
21
-165.551
0
LINE
8
BLACK
6
CONTINUOUS
10
71.7022
20
-165.551
11
71.8927
21
-165.647
0
LINE
8
BLACK
6
CONTINUOUS
10
71.8927
20
-165.647
11
71.988
21
-165.742
0
LINE
8
BLACK
6
CONTINUOUS
10
71.988
20
-165.742
11
72.0832
21
-165.932
0
LINE
8
BLACK
6
CONTINUOUS
10
72.0832
20
-165.932
11
72.1784
21
-166.313
0
LINE
8
BLACK
6
CONTINUOUS
10
72.1784
20
-166.313
11
72.1784
21
-166.79
0
LINE
8
BLACK
6
CONTINUOUS
10
72.1784
20
-166.79
11
72.0832
21
-167.17
0
LINE
8
BLACK
6
CONTINUOUS
10
72.0832
20
-167.17
11
71.988
21
-167.361
0
LINE
8
BLACK
6
CONTINUOUS
10
71.988
20
-167.361
11
71.8927
21
-167.456
0
LINE
8
BLACK
6
CONTINUOUS
10
71.8927
20
-167.456
11
71.7022
21
-167.551
0
LINE
8
BLACK
6
CONTINUOUS
10
71.7022
20
-167.551
11
71.5118
21
-167.551
0
LINE
8
BLACK
6
CONTINUOUS
10
71.5118
20
-167.551
11
71.3213
21
-167.456
0
LINE
8
BLACK
6
CONTINUOUS
10
71.3213
20
-167.456
11
71.226
21
-167.361
0
LINE
8
BLACK
6
CONTINUOUS
10
71.226
20
-167.361
11
71.1308
21
-167.17
0
LINE
8
BLACK
6
CONTINUOUS
10
71.1308
20
-167.17
11
71.0356
21
-166.79
0
LINE
8
BLACK
6
CONTINUOUS
10
71.0356
20
-166.79
11
71.0356
21
-166.313
0
LINE
8
BLACK
6
CONTINUOUS
10
71.0356
20
-166.313
11
71.1308
21
-165.932
0
LINE
8
BLACK
6
CONTINUOUS
10
71.1308
20
-165.932
11
71.226
21
-165.742
0
LINE
8
BLACK
6
CONTINUOUS
10
71.226
20
-165.742
11
71.3213
21
-165.647
0
LINE
8
BLACK
6
CONTINUOUS
10
71.3213
20
-165.647
11
71.5118
21
-165.551
0
LINE
8
BLACK
6
CONTINUOUS
10
73.0356
20
-167.361
11
73.1308
21
-167.456
0
LINE
8
BLACK
6
CONTINUOUS
10
73.1308
20
-167.456
11
73.0356
21
-167.551
0
LINE
8
BLACK
6
CONTINUOUS
10
73.0356
20
-167.551
11
72.9403
21
-167.456
0
LINE
8
BLACK
6
CONTINUOUS
10
72.9403
20
-167.456
11
73.0356
21
-167.361
0
LINE
8
BLACK
6
CONTINUOUS
10
73.0356
20
-167.361
11
73.0356
21
-167.551
0
LINE
8
BLACK
6
CONTINUOUS
10
75.0356
20
-167.551
11
73.8927
21
-167.551
0
LINE
8
BLACK
6
CONTINUOUS
10
74.4641
20
-167.551
11
74.4641
21
-165.551
0
LINE
8
BLACK
6
CONTINUOUS
10
74.4641
20
-165.551
11
74.2737
21
-165.837
0
LINE
8
BLACK
6
CONTINUOUS
10
74.2737
20
-165.837
11
74.0832
21
-166.028
0
LINE
8
BLACK
6
CONTINUOUS
10
74.0832
20
-166.028
11
73.8927
21
-166.123
0
LINE
8
BLACK
6
CONTINUOUS
10
75.7022
20
-165.551
11
76.9403
21
-165.551
0
LINE
8
BLACK
6
CONTINUOUS
10
76.9403
20
-165.551
11
76.2737
21
-166.313
0
LINE
8
BLACK
6
CONTINUOUS
10
76.2737
20
-166.313
11
76.5594
21
-166.313
0
LINE
8
BLACK
6
CONTINUOUS
10
76.5594
20
-166.313
11
76.7499
21
-166.409
0
LINE
8
BLACK
6
CONTINUOUS
10
76.7499
20
-166.409
11
76.8451
21
-166.504
0
LINE
8
BLACK
6
CONTINUOUS
10
76.8451
20
-166.504
11
76.9403
21
-166.694
0
LINE
8
BLACK
6
CONTINUOUS
10
76.9403
20
-166.694
11
76.9403
21
-167.17
0
LINE
8
BLACK
6
CONTINUOUS
10
76.9403
20
-167.17
11
76.8451
21
-167.361
0
LINE
8
BLACK
6
CONTINUOUS
10
76.8451
20
-167.361
11
76.7499
21
-167.456
0
LINE
8
BLACK
6
CONTINUOUS
10
76.7499
20
-167.456
11
76.5594
21
-167.551
0
LINE
8
BLACK
6
CONTINUOUS
10
76.5594
20
-167.551
11
75.988
21
-167.551
0
LINE
8
BLACK
6
CONTINUOUS
10
75.988
20
-167.551
11
75.7975
21
-167.456
0
LINE
8
BLACK
6
CONTINUOUS
10
75.7975
20
-167.456
11
75.7022
21
-167.361
0
LINE
8
BLACK
6
CONTINUOUS
10
77.607
20
-165.551
11
78.9403
21
-165.551
0
LINE
8
BLACK
6
CONTINUOUS
10
78.9403
20
-165.551
11
78.0832
21
-167.551
0
LINE
8
BLACK
6
CONTINUOUS
10
79.988
20
-166.409
11
79.7975
21
-166.313
0
LINE
8
BLACK
6
CONTINUOUS
10
79.7975
20
-166.313
11
79.7022
21
-166.218
0
LINE
8
BLACK
6
CONTINUOUS
10
79.7022
20
-166.218
11
79.607
21
-166.028
0
LINE
8
BLACK
6
CONTINUOUS
10
79.607
20
-166.028
11
79.607
21
-165.932
0
LINE
8
BLACK
6
CONTINUOUS
10
79.607
20
-165.932
11
79.7022
21
-165.742
0
LINE
8
BLACK
6
CONTINUOUS
10
79.7022
20
-165.742
11
79.7975
21
-165.647
0
LINE
8
BLACK
6
CONTINUOUS
10
79.7975
20
-165.647
11
79.988
21
-165.551
0
LINE
8
BLACK
6
CONTINUOUS
10
79.988
20
-165.551
11
80.3689
21
-165.551
0
LINE
8
BLACK
6
CONTINUOUS
10
80.3689
20
-165.551
11
80.5594
21
-165.647
0
LINE
8
BLACK
6
CONTINUOUS
10
80.5594
20
-165.647
11
80.6546
21
-165.742
0
LINE
8
BLACK
6
CONTINUOUS
10
80.6546
20
-165.742
11
80.7499
21
-165.932
0
LINE
8
BLACK
6
CONTINUOUS
10
80.7499
20
-165.932
11
80.7499
21
-166.028
0
LINE
8
BLACK
6
CONTINUOUS
10
80.7499
20
-166.028
11
80.6546
21
-166.218
0
LINE
8
BLACK
6
CONTINUOUS
10
80.6546
20
-166.218
11
80.5594
21
-166.313
0
LINE
8
BLACK
6
CONTINUOUS
10
80.5594
20
-166.313
11
80.3689
21
-166.409
0
LINE
8
BLACK
6
CONTINUOUS
10
80.3689
20
-166.409
11
79.988
21
-166.409
0
LINE
8
BLACK
6
CONTINUOUS
10
79.988
20
-166.409
11
79.7975
21
-166.504
0
LINE
8
BLACK
6
CONTINUOUS
10
79.7975
20
-166.504
11
79.7022
21
-166.599
0
LINE
8
BLACK
6
CONTINUOUS
10
79.7022
20
-166.599
11
79.607
21
-166.79
0
LINE
8
BLACK
6
CONTINUOUS
10
79.607
20
-166.79
11
79.607
21
-167.17
0
LINE
8
BLACK
6
CONTINUOUS
10
79.607
20
-167.17
11
79.7022
21
-167.361
0
LINE
8
BLACK
6
CONTINUOUS
10
79.7022
20
-167.361
11
79.7975
21
-167.456
0
LINE
8
BLACK
6
CONTINUOUS
10
79.7975
20
-167.456
11
79.988
21
-167.551
0
LINE
8
BLACK
6
CONTINUOUS
10
79.988
20
-167.551
11
80.3689
21
-167.551
0
LINE
8
BLACK
6
CONTINUOUS
10
80.3689
20
-167.551
11
80.5594
21
-167.456
0
LINE
8
BLACK
6
CONTINUOUS
10
80.5594
20
-167.456
11
80.6546
21
-167.361
0
LINE
8
BLACK
6
CONTINUOUS
10
80.6546
20
-167.361
11
80.7499
21
-167.17
0
LINE
8
BLACK
6
CONTINUOUS
10
80.7499
20
-167.17
11
80.7499
21
-166.79
0
LINE
8
BLACK
6
CONTINUOUS
10
80.7499
20
-166.79
11
80.6546
21
-166.599
0
LINE
8
BLACK
6
CONTINUOUS
10
80.6546
20
-166.599
11
80.5594
21
-166.504
0
LINE
8
BLACK
6
CONTINUOUS
10
80.5594
20
-166.504
11
80.3689
21
-166.409
0
LINE
8
BLACK
6
CONTINUOUS
10
81.5118
20
-165.551
11
81.5118
21
-165.932
0
LINE
8
BLACK
6
CONTINUOUS
10
82.2737
20
-165.551
11
82.2737
21
-165.932
0
LINE
8
BLACK
6
CONTINUOUS
10
85.2261
20
-168.313
11
85.1308
21
-168.218
0
LINE
8
BLACK
6
CONTINUOUS
10
85.1308
20
-168.218
11
84.9403
21
-167.932
0
LINE
8
BLACK
6
CONTINUOUS
10
84.9403
20
-167.932
11
84.8451
21
-167.742
0
LINE
8
BLACK
6
CONTINUOUS
10
84.8451
20
-167.742
11
84.7499
21
-167.456
0
LINE
8
BLACK
6
CONTINUOUS
10
84.7499
20
-167.456
11
84.6546
21
-166.98
0
LINE
8
BLACK
6
CONTINUOUS
10
84.6546
20
-166.98
11
84.6546
21
-166.599
0
LINE
8
BLACK
6
CONTINUOUS
10
84.6546
20
-166.599
11
84.7499
21
-166.123
0
LINE
8
BLACK
6
CONTINUOUS
10
84.7499
20
-166.123
11
84.8451
21
-165.837
0
LINE
8
BLACK
6
CONTINUOUS
10
84.8451
20
-165.837
11
84.9403
21
-165.647
0
LINE
8
BLACK
6
CONTINUOUS
10
84.9403
20
-165.647
11
85.1308
21
-165.361
0
LINE
8
BLACK
6
CONTINUOUS
10
85.1308
20
-165.361
11
85.2261
21
-165.266
0
LINE
8
BLACK
6
CONTINUOUS
10
87.0356
20
-167.551
11
85.8927
21
-167.551
0
LINE
8
BLACK
6
CONTINUOUS
10
86.4641
20
-167.551
11
86.4641
21
-165.551
0
LINE
8
BLACK
6
CONTINUOUS
10
86.4641
20
-165.551
11
86.2737
21
-165.837
0
LINE
8
BLACK
6
CONTINUOUS
10
86.2737
20
-165.837
11
86.0832
21
-166.028
0
LINE
8
BLACK
6
CONTINUOUS
10
86.0832
20
-166.028
11
85.8927
21
-166.123
0
LINE
8
BLACK
6
CONTINUOUS
10
89.4165
20
-167.551
11
89.4165
21
-165.551
0
LINE
8
BLACK
6
CONTINUOUS
10
90.2737
20
-167.551
11
90.2737
21
-166.504
0
LINE
8
BLACK
6
CONTINUOUS
10
90.2737
20
-166.504
11
90.1784
21
-166.313
0
LINE
8
BLACK
6
CONTINUOUS
10
90.1784
20
-166.313
11
89.988
21
-166.218
0
LINE
8
BLACK
6
CONTINUOUS
10
89.988
20
-166.218
11
89.7022
21
-166.218
0
LINE
8
BLACK
6
CONTINUOUS
10
89.7022
20
-166.218
11
89.5118
21
-166.313
0
LINE
8
BLACK
6
CONTINUOUS
10
89.5118
20
-166.313
11
89.4165
21
-166.409
0
LINE
8
BLACK
6
CONTINUOUS
10
91.5118
20
-167.551
11
91.3213
21
-167.456
0
LINE
8
BLACK
6
CONTINUOUS
10
91.3213
20
-167.456
11
91.2261
21
-167.361
0
LINE
8
BLACK
6
CONTINUOUS
10
91.2261
20
-167.361
11
91.1308
21
-167.17
0
LINE
8
BLACK
6
CONTINUOUS
10
91.1308
20
-167.17
11
91.1308
21
-166.599
0
LINE
8
BLACK
6
CONTINUOUS
10
91.1308
20
-166.599
11
91.2261
21
-166.409
0
LINE
8
BLACK
6
CONTINUOUS
10
91.2261
20
-166.409
11
91.3213
21
-166.313
0
LINE
8
BLACK
6
CONTINUOUS
10
91.3213
20
-166.313
11
91.5118
21
-166.218
0
LINE
8
BLACK
6
CONTINUOUS
10
91.5118
20
-166.218
11
91.7975
21
-166.218
0
LINE
8
BLACK
6
CONTINUOUS
10
91.7975
20
-166.218
11
91.988
21
-166.313
0
LINE
8
BLACK
6
CONTINUOUS
10
91.988
20
-166.313
11
92.0832
21
-166.409
0
LINE
8
BLACK
6
CONTINUOUS
10
92.0832
20
-166.409
11
92.1784
21
-166.599
0
LINE
8
BLACK
6
CONTINUOUS
10
92.1784
20
-166.599
11
92.1784
21
-167.17
0
LINE
8
BLACK
6
CONTINUOUS
10
92.1784
20
-167.17
11
92.0832
21
-167.361
0
LINE
8
BLACK
6
CONTINUOUS
10
92.0832
20
-167.361
11
91.988
21
-167.456
0
LINE
8
BLACK
6
CONTINUOUS
10
91.988
20
-167.456
11
91.7975
21
-167.551
0
LINE
8
BLACK
6
CONTINUOUS
10
91.7975
20
-167.551
11
91.5118
21
-167.551
0
LINE
8
BLACK
6
CONTINUOUS
10
93.3213
20
-167.551
11
93.1308
21
-167.456
0
LINE
8
BLACK
6
CONTINUOUS
10
93.1308
20
-167.456
11
93.0356
21
-167.266
0
LINE
8
BLACK
6
CONTINUOUS
10
93.0356
20
-167.266
11
93.0356
21
-165.551
0
LINE
8
BLACK
6
CONTINUOUS
10
94.8451
20
-167.456
11
94.6546
21
-167.551
0
LINE
8
BLACK
6
CONTINUOUS
10
94.6546
20
-167.551
11
94.2737
21
-167.551
0
LINE
8
BLACK
6
CONTINUOUS
10
94.2737
20
-167.551
11
94.0832
21
-167.456
0
LINE
8
BLACK
6
CONTINUOUS
10
94.0832
20
-167.456
11
93.988
21
-167.266
0
LINE
8
BLACK
6
CONTINUOUS
10
93.988
20
-167.266
11
93.988
21
-166.504
0
LINE
8
BLACK
6
CONTINUOUS
10
93.988
20
-166.504
11
94.0832
21
-166.313
0
LINE
8
BLACK
6
CONTINUOUS
10
94.0832
20
-166.313
11
94.2737
21
-166.218
0
LINE
8
BLACK
6
CONTINUOUS
10
94.2737
20
-166.218
11
94.6546
21
-166.218
0
LINE
8
BLACK
6
CONTINUOUS
10
94.6546
20
-166.218
11
94.8451
21
-166.313
0
LINE
8
BLACK
6
CONTINUOUS
10
94.8451
20
-166.313
11
94.9403
21
-166.504
0
LINE
8
BLACK
6
CONTINUOUS
10
94.9403
20
-166.504
11
94.9403
21
-166.694
0
LINE
8
BLACK
6
CONTINUOUS
10
94.9403
20
-166.694
11
93.988
21
-166.885
0
LINE
8
BLACK
6
CONTINUOUS
10
95.607
20
-168.313
11
95.7022
21
-168.218
0
LINE
8
BLACK
6
CONTINUOUS
10
95.7022
20
-168.218
11
95.8927
21
-167.932
0
LINE
8
BLACK
6
CONTINUOUS
10
95.8927
20
-167.932
11
95.988
21
-167.742
0
LINE
8
BLACK
6
CONTINUOUS
10
95.988
20
-167.742
11
96.0832
21
-167.456
0
LINE
8
BLACK
6
CONTINUOUS
10
96.0832
20
-167.456
11
96.1784
21
-166.98
0
LINE
8
BLACK
6
CONTINUOUS
10
96.1784
20
-166.98
11
96.1784
21
-166.599
0
LINE
8
BLACK
6
CONTINUOUS
10
96.1784
20
-166.599
11
96.0832
21
-166.123
0
LINE
8
BLACK
6
CONTINUOUS
10
96.0832
20
-166.123
11
95.988
21
-165.837
0
LINE
8
BLACK
6
CONTINUOUS
10
95.988
20
-165.837
11
95.8927
21
-165.647
0
LINE
8
BLACK
6
CONTINUOUS
10
95.8927
20
-165.647
11
95.7022
21
-165.361
0
LINE
8
BLACK
6
CONTINUOUS
10
95.7022
20
-165.361
11
95.607
21
-165.266
0
LINE
8
BLACK
6
CONTINUOUS
10
99.2261
20
-168.313
11
99.1308
21
-168.218
0
LINE
8
BLACK
6
CONTINUOUS
10
99.1308
20
-168.218
11
98.9403
21
-167.932
0
LINE
8
BLACK
6
CONTINUOUS
10
98.9403
20
-167.932
11
98.8451
21
-167.742
0
LINE
8
BLACK
6
CONTINUOUS
10
98.8451
20
-167.742
11
98.7499
21
-167.456
0
LINE
8
BLACK
6
CONTINUOUS
10
98.7499
20
-167.456
11
98.6546
21
-166.98
0
LINE
8
BLACK
6
CONTINUOUS
10
98.6546
20
-166.98
11
98.6546
21
-166.599
0
LINE
8
BLACK
6
CONTINUOUS
10
98.6546
20
-166.599
11
98.7499
21
-166.123
0
LINE
8
BLACK
6
CONTINUOUS
10
98.7499
20
-166.123
11
98.8451
21
-165.837
0
LINE
8
BLACK
6
CONTINUOUS
10
98.8451
20
-165.837
11
98.9403
21
-165.647
0
LINE
8
BLACK
6
CONTINUOUS
10
98.9403
20
-165.647
11
99.1308
21
-165.361
0
LINE
8
BLACK
6
CONTINUOUS
10
99.1308
20
-165.361
11
99.2261
21
-165.266
0
LINE
8
BLACK
6
CONTINUOUS
10
99.988
20
-166.218
11
99.988
21
-167.551
0
LINE
8
BLACK
6
CONTINUOUS
10
99.988
20
-166.409
11
100.083
21
-166.313
0
LINE
8
BLACK
6
CONTINUOUS
10
100.083
20
-166.313
11
100.274
21
-166.218
0
LINE
8
BLACK
6
CONTINUOUS
10
100.274
20
-166.218
11
100.559
21
-166.218
0
LINE
8
BLACK
6
CONTINUOUS
10
100.559
20
-166.218
11
100.75
21
-166.313
0
LINE
8
BLACK
6
CONTINUOUS
10
100.75
20
-166.313
11
100.845
21
-166.504
0
LINE
8
BLACK
6
CONTINUOUS
10
100.845
20
-166.504
11
100.845
21
-167.551
0
LINE
8
BLACK
6
CONTINUOUS
10
102.083
20
-167.551
11
101.893
21
-167.456
0
LINE
8
BLACK
6
CONTINUOUS
10
101.893
20
-167.456
11
101.797
21
-167.361
0
LINE
8
BLACK
6
CONTINUOUS
10
101.797
20
-167.361
11
101.702
21
-167.17
0
LINE
8
BLACK
6
CONTINUOUS
10
101.702
20
-167.17
11
101.702
21
-166.599
0
LINE
8
BLACK
6
CONTINUOUS
10
101.702
20
-166.599
11
101.797
21
-166.409
0
LINE
8
BLACK
6
CONTINUOUS
10
101.797
20
-166.409
11
101.893
21
-166.313
0
LINE
8
BLACK
6
CONTINUOUS
10
101.893
20
-166.313
11
102.083
21
-166.218
0
LINE
8
BLACK
6
CONTINUOUS
10
102.083
20
-166.218
11
102.369
21
-166.218
0
LINE
8
BLACK
6
CONTINUOUS
10
102.369
20
-166.218
11
102.559
21
-166.313
0
LINE
8
BLACK
6
CONTINUOUS
10
102.559
20
-166.313
11
102.655
21
-166.409
0
LINE
8
BLACK
6
CONTINUOUS
10
102.655
20
-166.409
11
102.75
21
-166.599
0
LINE
8
BLACK
6
CONTINUOUS
10
102.75
20
-166.599
11
102.75
21
-167.17
0
LINE
8
BLACK
6
CONTINUOUS
10
102.75
20
-167.17
11
102.655
21
-167.361
0
LINE
8
BLACK
6
CONTINUOUS
10
102.655
20
-167.361
11
102.559
21
-167.456
0
LINE
8
BLACK
6
CONTINUOUS
10
102.559
20
-167.456
11
102.369
21
-167.551
0
LINE
8
BLACK
6
CONTINUOUS
10
102.369
20
-167.551
11
102.083
21
-167.551
0
LINE
8
BLACK
6
CONTINUOUS
10
103.321
20
-166.218
11
104.083
21
-166.218
0
LINE
8
BLACK
6
CONTINUOUS
10
103.607
20
-165.551
11
103.607
21
-167.266
0
LINE
8
BLACK
6
CONTINUOUS
10
103.607
20
-167.266
11
103.702
21
-167.456
0
LINE
8
BLACK
6
CONTINUOUS
10
103.702
20
-167.456
11
103.893
21
-167.551
0
LINE
8
BLACK
6
CONTINUOUS
10
103.893
20
-167.551
11
104.083
21
-167.551
0
LINE
8
BLACK
6
CONTINUOUS
10
106.274
20
-166.218
11
106.274
21
-168.218
0
LINE
8
BLACK
6
CONTINUOUS
10
106.274
20
-166.313
11
106.464
21
-166.218
0
LINE
8
BLACK
6
CONTINUOUS
10
106.464
20
-166.218
11
106.845
21
-166.218
0
LINE
8
BLACK
6
CONTINUOUS
10
106.845
20
-166.218
11
107.036
21
-166.313
0
LINE
8
BLACK
6
CONTINUOUS
10
107.036
20
-166.313
11
107.131
21
-166.409
0
LINE
8
BLACK
6
CONTINUOUS
10
107.131
20
-166.409
11
107.226
21
-166.599
0
LINE
8
BLACK
6
CONTINUOUS
10
107.226
20
-166.599
11
107.226
21
-167.17
0
LINE
8
BLACK
6
CONTINUOUS
10
107.226
20
-167.17
11
107.131
21
-167.361
0
LINE
8
BLACK
6
CONTINUOUS
10
107.131
20
-167.361
11
107.036
21
-167.456
0
LINE
8
BLACK
6
CONTINUOUS
10
107.036
20
-167.456
11
106.845
21
-167.551
0
LINE
8
BLACK
6
CONTINUOUS
10
106.845
20
-167.551
11
106.464
21
-167.551
0
LINE
8
BLACK
6
CONTINUOUS
10
106.464
20
-167.551
11
106.274
21
-167.456
0
LINE
8
BLACK
6
CONTINUOUS
10
108.369
20
-167.551
11
108.178
21
-167.456
0
LINE
8
BLACK
6
CONTINUOUS
10
108.178
20
-167.456
11
108.083
21
-167.266
0
LINE
8
BLACK
6
CONTINUOUS
10
108.083
20
-167.266
11
108.083
21
-165.551
0
LINE
8
BLACK
6
CONTINUOUS
10
109.988
20
-167.551
11
109.988
21
-166.504
0
LINE
8
BLACK
6
CONTINUOUS
10
109.988
20
-166.504
11
109.893
21
-166.313
0
LINE
8
BLACK
6
CONTINUOUS
10
109.893
20
-166.313
11
109.702
21
-166.218
0
LINE
8
BLACK
6
CONTINUOUS
10
109.702
20
-166.218
11
109.321
21
-166.218
0
LINE
8
BLACK
6
CONTINUOUS
10
109.321
20
-166.218
11
109.131
21
-166.313
0
LINE
8
BLACK
6
CONTINUOUS
10
109.988
20
-167.456
11
109.797
21
-167.551
0
LINE
8
BLACK
6
CONTINUOUS
10
109.797
20
-167.551
11
109.321
21
-167.551
0
LINE
8
BLACK
6
CONTINUOUS
10
109.321
20
-167.551
11
109.131
21
-167.456
0
LINE
8
BLACK
6
CONTINUOUS
10
109.131
20
-167.456
11
109.036
21
-167.266
0
LINE
8
BLACK
6
CONTINUOUS
10
109.036
20
-167.266
11
109.036
21
-167.075
0
LINE
8
BLACK
6
CONTINUOUS
10
109.036
20
-167.075
11
109.131
21
-166.885
0
LINE
8
BLACK
6
CONTINUOUS
10
109.131
20
-166.885
11
109.321
21
-166.79
0
LINE
8
BLACK
6
CONTINUOUS
10
109.321
20
-166.79
11
109.797
21
-166.79
0
LINE
8
BLACK
6
CONTINUOUS
10
109.797
20
-166.79
11
109.988
21
-166.694
0
LINE
8
BLACK
6
CONTINUOUS
10
110.655
20
-166.218
11
111.417
21
-166.218
0
LINE
8
BLACK
6
CONTINUOUS
10
110.94
20
-165.551
11
110.94
21
-167.266
0
LINE
8
BLACK
6
CONTINUOUS
10
110.94
20
-167.266
11
111.036
21
-167.456
0
LINE
8
BLACK
6
CONTINUOUS
10
111.036
20
-167.456
11
111.226
21
-167.551
0
LINE
8
BLACK
6
CONTINUOUS
10
111.226
20
-167.551
11
111.417
21
-167.551
0
LINE
8
BLACK
6
CONTINUOUS
10
112.845
20
-167.456
11
112.655
21
-167.551
0
LINE
8
BLACK
6
CONTINUOUS
10
112.655
20
-167.551
11
112.274
21
-167.551
0
LINE
8
BLACK
6
CONTINUOUS
10
112.274
20
-167.551
11
112.083
21
-167.456
0
LINE
8
BLACK
6
CONTINUOUS
10
112.083
20
-167.456
11
111.988
21
-167.266
0
LINE
8
BLACK
6
CONTINUOUS
10
111.988
20
-167.266
11
111.988
21
-166.504
0
LINE
8
BLACK
6
CONTINUOUS
10
111.988
20
-166.504
11
112.083
21
-166.313
0
LINE
8
BLACK
6
CONTINUOUS
10
112.083
20
-166.313
11
112.274
21
-166.218
0
LINE
8
BLACK
6
CONTINUOUS
10
112.274
20
-166.218
11
112.655
21
-166.218
0
LINE
8
BLACK
6
CONTINUOUS
10
112.655
20
-166.218
11
112.845
21
-166.313
0
LINE
8
BLACK
6
CONTINUOUS
10
112.845
20
-166.313
11
112.94
21
-166.504
0
LINE
8
BLACK
6
CONTINUOUS
10
112.94
20
-166.504
11
112.94
21
-166.694
0
LINE
8
BLACK
6
CONTINUOUS
10
112.94
20
-166.694
11
111.988
21
-166.885
0
LINE
8
BLACK
6
CONTINUOUS
10
114.655
20
-167.551
11
114.655
21
-165.551
0
LINE
8
BLACK
6
CONTINUOUS
10
114.655
20
-167.456
11
114.464
21
-167.551
0
LINE
8
BLACK
6
CONTINUOUS
10
114.464
20
-167.551
11
114.083
21
-167.551
0
LINE
8
BLACK
6
CONTINUOUS
10
114.083
20
-167.551
11
113.893
21
-167.456
0
LINE
8
BLACK
6
CONTINUOUS
10
113.893
20
-167.456
11
113.797
21
-167.361
0
LINE
8
BLACK
6
CONTINUOUS
10
113.797
20
-167.361
11
113.702
21
-167.17
0
LINE
8
BLACK
6
CONTINUOUS
10
113.702
20
-167.17
11
113.702
21
-166.599
0
LINE
8
BLACK
6
CONTINUOUS
10
113.702
20
-166.599
11
113.797
21
-166.409
0
LINE
8
BLACK
6
CONTINUOUS
10
113.797
20
-166.409
11
113.893
21
-166.313
0
LINE
8
BLACK
6
CONTINUOUS
10
113.893
20
-166.313
11
114.083
21
-166.218
0
LINE
8
BLACK
6
CONTINUOUS
10
114.083
20
-166.218
11
114.464
21
-166.218
0
LINE
8
BLACK
6
CONTINUOUS
10
114.464
20
-166.218
11
114.655
21
-166.313
0
LINE
8
BLACK
6
CONTINUOUS
10
115.417
20
-168.313
11
115.512
21
-168.218
0
LINE
8
BLACK
6
CONTINUOUS
10
115.512
20
-168.218
11
115.702
21
-167.932
0
LINE
8
BLACK
6
CONTINUOUS
10
115.702
20
-167.932
11
115.797
21
-167.742
0
LINE
8
BLACK
6
CONTINUOUS
10
115.797
20
-167.742
11
115.893
21
-167.456
0
LINE
8
BLACK
6
CONTINUOUS
10
115.893
20
-167.456
11
115.988
21
-166.98
0
LINE
8
BLACK
6
CONTINUOUS
10
115.988
20
-166.98
11
115.988
21
-166.599
0
LINE
8
BLACK
6
CONTINUOUS
10
115.988
20
-166.599
11
115.893
21
-166.123
0
LINE
8
BLACK
6
CONTINUOUS
10
115.893
20
-166.123
11
115.797
21
-165.837
0
LINE
8
BLACK
6
CONTINUOUS
10
115.797
20
-165.837
11
115.702
21
-165.647
0
LINE
8
BLACK
6
CONTINUOUS
10
115.702
20
-165.647
11
115.512
21
-165.361
0
LINE
8
BLACK
6
CONTINUOUS
10
115.512
20
-165.361
11
115.417
21
-165.266
  0
ENDSEC
  0
EOF
