%TF.GenerationSoftware,KiCad,Pcbnew,7.0.2-0*%
%TF.CreationDate,2023-05-05T14:14:21-04:00*%
%TF.ProjectId,SATS,53415453-2e6b-4696-9361-645f70636258,rev?*%
%TF.SameCoordinates,Original*%
%TF.FileFunction,Legend,Top*%
%TF.FilePolarity,Positive*%
%FSLAX46Y46*%
G04 Gerber Fmt 4.6, Leading zero omitted, Abs format (unit mm)*
G04 Created by KiCad (PCBNEW 7.0.2-0) date 2023-05-05 14:14:21*
%MOMM*%
%LPD*%
G01*
G04 APERTURE LIST*
%ADD10C,0.200000*%
%ADD11C,0.150000*%
%ADD12C,0.120000*%
%ADD13C,0.127000*%
G04 APERTURE END LIST*
D10*
X139786190Y-52497237D02*
X139738571Y-52592475D01*
X139738571Y-52592475D02*
X139690952Y-52640094D01*
X139690952Y-52640094D02*
X139595714Y-52687713D01*
X139595714Y-52687713D02*
X139548095Y-52687713D01*
X139548095Y-52687713D02*
X139452857Y-52640094D01*
X139452857Y-52640094D02*
X139405238Y-52592475D01*
X139405238Y-52592475D02*
X139357619Y-52497237D01*
X139357619Y-52497237D02*
X139357619Y-52306761D01*
X139357619Y-52306761D02*
X139405238Y-52211523D01*
X139405238Y-52211523D02*
X139452857Y-52163904D01*
X139452857Y-52163904D02*
X139548095Y-52116285D01*
X139548095Y-52116285D02*
X139595714Y-52116285D01*
X139595714Y-52116285D02*
X139690952Y-52163904D01*
X139690952Y-52163904D02*
X139738571Y-52211523D01*
X139738571Y-52211523D02*
X139786190Y-52306761D01*
X139786190Y-52306761D02*
X139786190Y-52497237D01*
X139786190Y-52497237D02*
X139833809Y-52592475D01*
X139833809Y-52592475D02*
X139881428Y-52640094D01*
X139881428Y-52640094D02*
X139976666Y-52687713D01*
X139976666Y-52687713D02*
X140167142Y-52687713D01*
X140167142Y-52687713D02*
X140262380Y-52640094D01*
X140262380Y-52640094D02*
X140310000Y-52592475D01*
X140310000Y-52592475D02*
X140357619Y-52497237D01*
X140357619Y-52497237D02*
X140357619Y-52306761D01*
X140357619Y-52306761D02*
X140310000Y-52211523D01*
X140310000Y-52211523D02*
X140262380Y-52163904D01*
X140262380Y-52163904D02*
X140167142Y-52116285D01*
X140167142Y-52116285D02*
X139976666Y-52116285D01*
X139976666Y-52116285D02*
X139881428Y-52163904D01*
X139881428Y-52163904D02*
X139833809Y-52211523D01*
X139833809Y-52211523D02*
X139786190Y-52306761D01*
X104882914Y-78770819D02*
X104311486Y-78770819D01*
X104597200Y-78770819D02*
X104597200Y-77770819D01*
X104597200Y-77770819D02*
X104501962Y-77913676D01*
X104501962Y-77913676D02*
X104406724Y-78008914D01*
X104406724Y-78008914D02*
X104311486Y-78056533D01*
X126625314Y-65105619D02*
X126053886Y-65105619D01*
X126339600Y-65105619D02*
X126339600Y-64105619D01*
X126339600Y-64105619D02*
X126244362Y-64248476D01*
X126244362Y-64248476D02*
X126149124Y-64343714D01*
X126149124Y-64343714D02*
X126053886Y-64391333D01*
X143641095Y-94587238D02*
X143545857Y-94539619D01*
X143545857Y-94539619D02*
X143403000Y-94539619D01*
X143403000Y-94539619D02*
X143260143Y-94587238D01*
X143260143Y-94587238D02*
X143164905Y-94682476D01*
X143164905Y-94682476D02*
X143117286Y-94777714D01*
X143117286Y-94777714D02*
X143069667Y-94968190D01*
X143069667Y-94968190D02*
X143069667Y-95111047D01*
X143069667Y-95111047D02*
X143117286Y-95301523D01*
X143117286Y-95301523D02*
X143164905Y-95396761D01*
X143164905Y-95396761D02*
X143260143Y-95492000D01*
X143260143Y-95492000D02*
X143403000Y-95539619D01*
X143403000Y-95539619D02*
X143498238Y-95539619D01*
X143498238Y-95539619D02*
X143641095Y-95492000D01*
X143641095Y-95492000D02*
X143688714Y-95444380D01*
X143688714Y-95444380D02*
X143688714Y-95111047D01*
X143688714Y-95111047D02*
X143498238Y-95111047D01*
X144688714Y-95539619D02*
X144355381Y-95063428D01*
X144117286Y-95539619D02*
X144117286Y-94539619D01*
X144117286Y-94539619D02*
X144498238Y-94539619D01*
X144498238Y-94539619D02*
X144593476Y-94587238D01*
X144593476Y-94587238D02*
X144641095Y-94634857D01*
X144641095Y-94634857D02*
X144688714Y-94730095D01*
X144688714Y-94730095D02*
X144688714Y-94872952D01*
X144688714Y-94872952D02*
X144641095Y-94968190D01*
X144641095Y-94968190D02*
X144593476Y-95015809D01*
X144593476Y-95015809D02*
X144498238Y-95063428D01*
X144498238Y-95063428D02*
X144117286Y-95063428D01*
X145117286Y-95539619D02*
X145117286Y-94539619D01*
X145117286Y-94539619D02*
X145688714Y-95539619D01*
X145688714Y-95539619D02*
X145688714Y-94539619D01*
X59829676Y-47563000D02*
X59972533Y-47610619D01*
X59972533Y-47610619D02*
X60210628Y-47610619D01*
X60210628Y-47610619D02*
X60305866Y-47563000D01*
X60305866Y-47563000D02*
X60353485Y-47515380D01*
X60353485Y-47515380D02*
X60401104Y-47420142D01*
X60401104Y-47420142D02*
X60401104Y-47324904D01*
X60401104Y-47324904D02*
X60353485Y-47229666D01*
X60353485Y-47229666D02*
X60305866Y-47182047D01*
X60305866Y-47182047D02*
X60210628Y-47134428D01*
X60210628Y-47134428D02*
X60020152Y-47086809D01*
X60020152Y-47086809D02*
X59924914Y-47039190D01*
X59924914Y-47039190D02*
X59877295Y-46991571D01*
X59877295Y-46991571D02*
X59829676Y-46896333D01*
X59829676Y-46896333D02*
X59829676Y-46801095D01*
X59829676Y-46801095D02*
X59877295Y-46705857D01*
X59877295Y-46705857D02*
X59924914Y-46658238D01*
X59924914Y-46658238D02*
X60020152Y-46610619D01*
X60020152Y-46610619D02*
X60258247Y-46610619D01*
X60258247Y-46610619D02*
X60401104Y-46658238D01*
X60782057Y-47324904D02*
X61258247Y-47324904D01*
X60686819Y-47610619D02*
X61020152Y-46610619D01*
X61020152Y-46610619D02*
X61353485Y-47610619D01*
X61543962Y-46610619D02*
X62115390Y-46610619D01*
X61829676Y-47610619D02*
X61829676Y-46610619D01*
X62401105Y-47563000D02*
X62543962Y-47610619D01*
X62543962Y-47610619D02*
X62782057Y-47610619D01*
X62782057Y-47610619D02*
X62877295Y-47563000D01*
X62877295Y-47563000D02*
X62924914Y-47515380D01*
X62924914Y-47515380D02*
X62972533Y-47420142D01*
X62972533Y-47420142D02*
X62972533Y-47324904D01*
X62972533Y-47324904D02*
X62924914Y-47229666D01*
X62924914Y-47229666D02*
X62877295Y-47182047D01*
X62877295Y-47182047D02*
X62782057Y-47134428D01*
X62782057Y-47134428D02*
X62591581Y-47086809D01*
X62591581Y-47086809D02*
X62496343Y-47039190D01*
X62496343Y-47039190D02*
X62448724Y-46991571D01*
X62448724Y-46991571D02*
X62401105Y-46896333D01*
X62401105Y-46896333D02*
X62401105Y-46801095D01*
X62401105Y-46801095D02*
X62448724Y-46705857D01*
X62448724Y-46705857D02*
X62496343Y-46658238D01*
X62496343Y-46658238D02*
X62591581Y-46610619D01*
X62591581Y-46610619D02*
X62829676Y-46610619D01*
X62829676Y-46610619D02*
X62972533Y-46658238D01*
X64163010Y-47610619D02*
X64163010Y-46610619D01*
X64163010Y-46610619D02*
X64543962Y-46610619D01*
X64543962Y-46610619D02*
X64639200Y-46658238D01*
X64639200Y-46658238D02*
X64686819Y-46705857D01*
X64686819Y-46705857D02*
X64734438Y-46801095D01*
X64734438Y-46801095D02*
X64734438Y-46943952D01*
X64734438Y-46943952D02*
X64686819Y-47039190D01*
X64686819Y-47039190D02*
X64639200Y-47086809D01*
X64639200Y-47086809D02*
X64543962Y-47134428D01*
X64543962Y-47134428D02*
X64163010Y-47134428D01*
X65734438Y-47515380D02*
X65686819Y-47563000D01*
X65686819Y-47563000D02*
X65543962Y-47610619D01*
X65543962Y-47610619D02*
X65448724Y-47610619D01*
X65448724Y-47610619D02*
X65305867Y-47563000D01*
X65305867Y-47563000D02*
X65210629Y-47467761D01*
X65210629Y-47467761D02*
X65163010Y-47372523D01*
X65163010Y-47372523D02*
X65115391Y-47182047D01*
X65115391Y-47182047D02*
X65115391Y-47039190D01*
X65115391Y-47039190D02*
X65163010Y-46848714D01*
X65163010Y-46848714D02*
X65210629Y-46753476D01*
X65210629Y-46753476D02*
X65305867Y-46658238D01*
X65305867Y-46658238D02*
X65448724Y-46610619D01*
X65448724Y-46610619D02*
X65543962Y-46610619D01*
X65543962Y-46610619D02*
X65686819Y-46658238D01*
X65686819Y-46658238D02*
X65734438Y-46705857D01*
X66496343Y-47086809D02*
X66639200Y-47134428D01*
X66639200Y-47134428D02*
X66686819Y-47182047D01*
X66686819Y-47182047D02*
X66734438Y-47277285D01*
X66734438Y-47277285D02*
X66734438Y-47420142D01*
X66734438Y-47420142D02*
X66686819Y-47515380D01*
X66686819Y-47515380D02*
X66639200Y-47563000D01*
X66639200Y-47563000D02*
X66543962Y-47610619D01*
X66543962Y-47610619D02*
X66163010Y-47610619D01*
X66163010Y-47610619D02*
X66163010Y-46610619D01*
X66163010Y-46610619D02*
X66496343Y-46610619D01*
X66496343Y-46610619D02*
X66591581Y-46658238D01*
X66591581Y-46658238D02*
X66639200Y-46705857D01*
X66639200Y-46705857D02*
X66686819Y-46801095D01*
X66686819Y-46801095D02*
X66686819Y-46896333D01*
X66686819Y-46896333D02*
X66639200Y-46991571D01*
X66639200Y-46991571D02*
X66591581Y-47039190D01*
X66591581Y-47039190D02*
X66496343Y-47086809D01*
X66496343Y-47086809D02*
X66163010Y-47086809D01*
X68496343Y-47610619D02*
X68163010Y-47134428D01*
X67924915Y-47610619D02*
X67924915Y-46610619D01*
X67924915Y-46610619D02*
X68305867Y-46610619D01*
X68305867Y-46610619D02*
X68401105Y-46658238D01*
X68401105Y-46658238D02*
X68448724Y-46705857D01*
X68448724Y-46705857D02*
X68496343Y-46801095D01*
X68496343Y-46801095D02*
X68496343Y-46943952D01*
X68496343Y-46943952D02*
X68448724Y-47039190D01*
X68448724Y-47039190D02*
X68401105Y-47086809D01*
X68401105Y-47086809D02*
X68305867Y-47134428D01*
X68305867Y-47134428D02*
X67924915Y-47134428D01*
X68924915Y-47086809D02*
X69258248Y-47086809D01*
X69401105Y-47610619D02*
X68924915Y-47610619D01*
X68924915Y-47610619D02*
X68924915Y-46610619D01*
X68924915Y-46610619D02*
X69401105Y-46610619D01*
X69686820Y-46610619D02*
X70020153Y-47610619D01*
X70020153Y-47610619D02*
X70353486Y-46610619D01*
X71877296Y-46943952D02*
X71877296Y-47610619D01*
X71639201Y-46563000D02*
X71401106Y-47277285D01*
X71401106Y-47277285D02*
X72020153Y-47277285D01*
X73163011Y-47229666D02*
X73924916Y-47229666D01*
X75163011Y-47610619D02*
X75163011Y-46610619D01*
X75163011Y-46610619D02*
X75496344Y-47324904D01*
X75496344Y-47324904D02*
X75829677Y-46610619D01*
X75829677Y-46610619D02*
X75829677Y-47610619D01*
X76258249Y-47324904D02*
X76734439Y-47324904D01*
X76163011Y-47610619D02*
X76496344Y-46610619D01*
X76496344Y-46610619D02*
X76829677Y-47610619D01*
X77020154Y-46610619D02*
X77591582Y-46610619D01*
X77305868Y-47610619D02*
X77305868Y-46610619D01*
X77782059Y-46610619D02*
X78353487Y-46610619D01*
X78067773Y-47610619D02*
X78067773Y-46610619D01*
X78686821Y-47610619D02*
X78686821Y-46610619D01*
X78686821Y-47086809D02*
X79258249Y-47086809D01*
X79258249Y-47610619D02*
X79258249Y-46610619D01*
X79734440Y-47086809D02*
X80067773Y-47086809D01*
X80210630Y-47610619D02*
X79734440Y-47610619D01*
X79734440Y-47610619D02*
X79734440Y-46610619D01*
X79734440Y-46610619D02*
X80210630Y-46610619D01*
X80543964Y-46610619D02*
X80782059Y-47610619D01*
X80782059Y-47610619D02*
X80972535Y-46896333D01*
X80972535Y-46896333D02*
X81163011Y-47610619D01*
X81163011Y-47610619D02*
X81401107Y-46610619D01*
X82543964Y-47610619D02*
X82543964Y-46610619D01*
X82543964Y-47086809D02*
X83115392Y-47086809D01*
X83115392Y-47610619D02*
X83115392Y-46610619D01*
X83543964Y-47324904D02*
X84020154Y-47324904D01*
X83448726Y-47610619D02*
X83782059Y-46610619D01*
X83782059Y-46610619D02*
X84115392Y-47610619D01*
X84401107Y-47324904D02*
X84877297Y-47324904D01*
X84305869Y-47610619D02*
X84639202Y-46610619D01*
X84639202Y-46610619D02*
X84972535Y-47610619D01*
X85305869Y-47610619D02*
X85305869Y-46610619D01*
X85305869Y-47086809D02*
X85877297Y-47086809D01*
X85877297Y-47610619D02*
X85877297Y-46610619D01*
X86924916Y-47610619D02*
X86591583Y-47134428D01*
X86353488Y-47610619D02*
X86353488Y-46610619D01*
X86353488Y-46610619D02*
X86734440Y-46610619D01*
X86734440Y-46610619D02*
X86829678Y-46658238D01*
X86829678Y-46658238D02*
X86877297Y-46705857D01*
X86877297Y-46705857D02*
X86924916Y-46801095D01*
X86924916Y-46801095D02*
X86924916Y-46943952D01*
X86924916Y-46943952D02*
X86877297Y-47039190D01*
X86877297Y-47039190D02*
X86829678Y-47086809D01*
X86829678Y-47086809D02*
X86734440Y-47134428D01*
X86734440Y-47134428D02*
X86353488Y-47134428D01*
X88924917Y-47610619D02*
X88877298Y-47610619D01*
X88877298Y-47610619D02*
X88782059Y-47563000D01*
X88782059Y-47563000D02*
X88639202Y-47420142D01*
X88639202Y-47420142D02*
X88401107Y-47134428D01*
X88401107Y-47134428D02*
X88305869Y-46991571D01*
X88305869Y-46991571D02*
X88258250Y-46848714D01*
X88258250Y-46848714D02*
X88258250Y-46753476D01*
X88258250Y-46753476D02*
X88305869Y-46658238D01*
X88305869Y-46658238D02*
X88401107Y-46610619D01*
X88401107Y-46610619D02*
X88448726Y-46610619D01*
X88448726Y-46610619D02*
X88543964Y-46658238D01*
X88543964Y-46658238D02*
X88591583Y-46753476D01*
X88591583Y-46753476D02*
X88591583Y-46801095D01*
X88591583Y-46801095D02*
X88543964Y-46896333D01*
X88543964Y-46896333D02*
X88496345Y-46943952D01*
X88496345Y-46943952D02*
X88210631Y-47134428D01*
X88210631Y-47134428D02*
X88163012Y-47182047D01*
X88163012Y-47182047D02*
X88115393Y-47277285D01*
X88115393Y-47277285D02*
X88115393Y-47420142D01*
X88115393Y-47420142D02*
X88163012Y-47515380D01*
X88163012Y-47515380D02*
X88210631Y-47563000D01*
X88210631Y-47563000D02*
X88305869Y-47610619D01*
X88305869Y-47610619D02*
X88448726Y-47610619D01*
X88448726Y-47610619D02*
X88543964Y-47563000D01*
X88543964Y-47563000D02*
X88591583Y-47515380D01*
X88591583Y-47515380D02*
X88734440Y-47324904D01*
X88734440Y-47324904D02*
X88782059Y-47182047D01*
X88782059Y-47182047D02*
X88782059Y-47086809D01*
X90067774Y-47324904D02*
X90543964Y-47324904D01*
X89972536Y-47610619D02*
X90305869Y-46610619D01*
X90305869Y-46610619D02*
X90639202Y-47610619D01*
X91448726Y-47610619D02*
X90972536Y-47610619D01*
X90972536Y-47610619D02*
X90972536Y-46610619D01*
X91782060Y-47086809D02*
X92115393Y-47086809D01*
X92258250Y-47610619D02*
X91782060Y-47610619D01*
X91782060Y-47610619D02*
X91782060Y-46610619D01*
X91782060Y-46610619D02*
X92258250Y-46610619D01*
X92591584Y-46610619D02*
X93258250Y-47610619D01*
X93258250Y-46610619D02*
X92591584Y-47610619D01*
X93591584Y-47324904D02*
X94067774Y-47324904D01*
X93496346Y-47610619D02*
X93829679Y-46610619D01*
X93829679Y-46610619D02*
X94163012Y-47610619D01*
X94496346Y-47610619D02*
X94496346Y-46610619D01*
X94496346Y-46610619D02*
X95067774Y-47610619D01*
X95067774Y-47610619D02*
X95067774Y-46610619D01*
X95543965Y-47610619D02*
X95543965Y-46610619D01*
X95543965Y-46610619D02*
X95782060Y-46610619D01*
X95782060Y-46610619D02*
X95924917Y-46658238D01*
X95924917Y-46658238D02*
X96020155Y-46753476D01*
X96020155Y-46753476D02*
X96067774Y-46848714D01*
X96067774Y-46848714D02*
X96115393Y-47039190D01*
X96115393Y-47039190D02*
X96115393Y-47182047D01*
X96115393Y-47182047D02*
X96067774Y-47372523D01*
X96067774Y-47372523D02*
X96020155Y-47467761D01*
X96020155Y-47467761D02*
X95924917Y-47563000D01*
X95924917Y-47563000D02*
X95782060Y-47610619D01*
X95782060Y-47610619D02*
X95543965Y-47610619D01*
X96543965Y-47086809D02*
X96877298Y-47086809D01*
X97020155Y-47610619D02*
X96543965Y-47610619D01*
X96543965Y-47610619D02*
X96543965Y-46610619D01*
X96543965Y-46610619D02*
X97020155Y-46610619D01*
X98020155Y-47610619D02*
X97686822Y-47134428D01*
X97448727Y-47610619D02*
X97448727Y-46610619D01*
X97448727Y-46610619D02*
X97829679Y-46610619D01*
X97829679Y-46610619D02*
X97924917Y-46658238D01*
X97924917Y-46658238D02*
X97972536Y-46705857D01*
X97972536Y-46705857D02*
X98020155Y-46801095D01*
X98020155Y-46801095D02*
X98020155Y-46943952D01*
X98020155Y-46943952D02*
X97972536Y-47039190D01*
X97972536Y-47039190D02*
X97924917Y-47086809D01*
X97924917Y-47086809D02*
X97829679Y-47134428D01*
X97829679Y-47134428D02*
X97448727Y-47134428D01*
X99210632Y-47610619D02*
X99210632Y-46610619D01*
X99210632Y-47086809D02*
X99782060Y-47086809D01*
X99782060Y-47610619D02*
X99782060Y-46610619D01*
X100210632Y-47324904D02*
X100686822Y-47324904D01*
X100115394Y-47610619D02*
X100448727Y-46610619D01*
X100448727Y-46610619D02*
X100782060Y-47610619D01*
X101305870Y-47134428D02*
X101305870Y-47610619D01*
X100972537Y-46610619D02*
X101305870Y-47134428D01*
X101305870Y-47134428D02*
X101639203Y-46610619D01*
X101972537Y-47610619D02*
X101972537Y-46610619D01*
X101972537Y-46610619D02*
X102210632Y-46610619D01*
X102210632Y-46610619D02*
X102353489Y-46658238D01*
X102353489Y-46658238D02*
X102448727Y-46753476D01*
X102448727Y-46753476D02*
X102496346Y-46848714D01*
X102496346Y-46848714D02*
X102543965Y-47039190D01*
X102543965Y-47039190D02*
X102543965Y-47182047D01*
X102543965Y-47182047D02*
X102496346Y-47372523D01*
X102496346Y-47372523D02*
X102448727Y-47467761D01*
X102448727Y-47467761D02*
X102353489Y-47563000D01*
X102353489Y-47563000D02*
X102210632Y-47610619D01*
X102210632Y-47610619D02*
X101972537Y-47610619D01*
X102972537Y-47086809D02*
X103305870Y-47086809D01*
X103448727Y-47610619D02*
X102972537Y-47610619D01*
X102972537Y-47610619D02*
X102972537Y-46610619D01*
X102972537Y-46610619D02*
X103448727Y-46610619D01*
X103877299Y-47610619D02*
X103877299Y-46610619D01*
X103877299Y-46610619D02*
X104448727Y-47610619D01*
X104448727Y-47610619D02*
X104448727Y-46610619D01*
X59877295Y-49230619D02*
X59877295Y-48230619D01*
X59877295Y-48230619D02*
X60210628Y-48944904D01*
X60210628Y-48944904D02*
X60543961Y-48230619D01*
X60543961Y-48230619D02*
X60543961Y-49230619D01*
X60972533Y-48944904D02*
X61448723Y-48944904D01*
X60877295Y-49230619D02*
X61210628Y-48230619D01*
X61210628Y-48230619D02*
X61543961Y-49230619D01*
X62067771Y-48754428D02*
X62067771Y-49230619D01*
X61734438Y-48230619D02*
X62067771Y-48754428D01*
X62067771Y-48754428D02*
X62401104Y-48230619D01*
X63448724Y-48325857D02*
X63496343Y-48278238D01*
X63496343Y-48278238D02*
X63591581Y-48230619D01*
X63591581Y-48230619D02*
X63829676Y-48230619D01*
X63829676Y-48230619D02*
X63924914Y-48278238D01*
X63924914Y-48278238D02*
X63972533Y-48325857D01*
X63972533Y-48325857D02*
X64020152Y-48421095D01*
X64020152Y-48421095D02*
X64020152Y-48516333D01*
X64020152Y-48516333D02*
X63972533Y-48659190D01*
X63972533Y-48659190D02*
X63401105Y-49230619D01*
X63401105Y-49230619D02*
X64020152Y-49230619D01*
X64639200Y-48230619D02*
X64734438Y-48230619D01*
X64734438Y-48230619D02*
X64829676Y-48278238D01*
X64829676Y-48278238D02*
X64877295Y-48325857D01*
X64877295Y-48325857D02*
X64924914Y-48421095D01*
X64924914Y-48421095D02*
X64972533Y-48611571D01*
X64972533Y-48611571D02*
X64972533Y-48849666D01*
X64972533Y-48849666D02*
X64924914Y-49040142D01*
X64924914Y-49040142D02*
X64877295Y-49135380D01*
X64877295Y-49135380D02*
X64829676Y-49183000D01*
X64829676Y-49183000D02*
X64734438Y-49230619D01*
X64734438Y-49230619D02*
X64639200Y-49230619D01*
X64639200Y-49230619D02*
X64543962Y-49183000D01*
X64543962Y-49183000D02*
X64496343Y-49135380D01*
X64496343Y-49135380D02*
X64448724Y-49040142D01*
X64448724Y-49040142D02*
X64401105Y-48849666D01*
X64401105Y-48849666D02*
X64401105Y-48611571D01*
X64401105Y-48611571D02*
X64448724Y-48421095D01*
X64448724Y-48421095D02*
X64496343Y-48325857D01*
X64496343Y-48325857D02*
X64543962Y-48278238D01*
X64543962Y-48278238D02*
X64639200Y-48230619D01*
X65353486Y-48325857D02*
X65401105Y-48278238D01*
X65401105Y-48278238D02*
X65496343Y-48230619D01*
X65496343Y-48230619D02*
X65734438Y-48230619D01*
X65734438Y-48230619D02*
X65829676Y-48278238D01*
X65829676Y-48278238D02*
X65877295Y-48325857D01*
X65877295Y-48325857D02*
X65924914Y-48421095D01*
X65924914Y-48421095D02*
X65924914Y-48516333D01*
X65924914Y-48516333D02*
X65877295Y-48659190D01*
X65877295Y-48659190D02*
X65305867Y-49230619D01*
X65305867Y-49230619D02*
X65924914Y-49230619D01*
X66258248Y-48230619D02*
X66877295Y-48230619D01*
X66877295Y-48230619D02*
X66543962Y-48611571D01*
X66543962Y-48611571D02*
X66686819Y-48611571D01*
X66686819Y-48611571D02*
X66782057Y-48659190D01*
X66782057Y-48659190D02*
X66829676Y-48706809D01*
X66829676Y-48706809D02*
X66877295Y-48802047D01*
X66877295Y-48802047D02*
X66877295Y-49040142D01*
X66877295Y-49040142D02*
X66829676Y-49135380D01*
X66829676Y-49135380D02*
X66782057Y-49183000D01*
X66782057Y-49183000D02*
X66686819Y-49230619D01*
X66686819Y-49230619D02*
X66401105Y-49230619D01*
X66401105Y-49230619D02*
X66305867Y-49183000D01*
X66305867Y-49183000D02*
X66258248Y-49135380D01*
X59782057Y-49850619D02*
X60020152Y-50850619D01*
X60020152Y-50850619D02*
X60210628Y-50136333D01*
X60210628Y-50136333D02*
X60401104Y-50850619D01*
X60401104Y-50850619D02*
X60639200Y-49850619D01*
X61020152Y-50850619D02*
X61020152Y-49850619D01*
X61020152Y-49850619D02*
X61401104Y-49850619D01*
X61401104Y-49850619D02*
X61496342Y-49898238D01*
X61496342Y-49898238D02*
X61543961Y-49945857D01*
X61543961Y-49945857D02*
X61591580Y-50041095D01*
X61591580Y-50041095D02*
X61591580Y-50183952D01*
X61591580Y-50183952D02*
X61543961Y-50279190D01*
X61543961Y-50279190D02*
X61496342Y-50326809D01*
X61496342Y-50326809D02*
X61401104Y-50374428D01*
X61401104Y-50374428D02*
X61020152Y-50374428D01*
X62020152Y-50850619D02*
X62020152Y-49850619D01*
X63734437Y-50850619D02*
X63258247Y-50850619D01*
X63258247Y-50850619D02*
X63258247Y-49850619D01*
X64067771Y-50326809D02*
X64401104Y-50326809D01*
X64543961Y-50850619D02*
X64067771Y-50850619D01*
X64067771Y-50850619D02*
X64067771Y-49850619D01*
X64067771Y-49850619D02*
X64543961Y-49850619D01*
X64972533Y-50850619D02*
X64972533Y-49850619D01*
X64972533Y-49850619D02*
X65543961Y-50850619D01*
X65543961Y-50850619D02*
X65543961Y-49850619D01*
X65972533Y-50803000D02*
X66115390Y-50850619D01*
X66115390Y-50850619D02*
X66353485Y-50850619D01*
X66353485Y-50850619D02*
X66448723Y-50803000D01*
X66448723Y-50803000D02*
X66496342Y-50755380D01*
X66496342Y-50755380D02*
X66543961Y-50660142D01*
X66543961Y-50660142D02*
X66543961Y-50564904D01*
X66543961Y-50564904D02*
X66496342Y-50469666D01*
X66496342Y-50469666D02*
X66448723Y-50422047D01*
X66448723Y-50422047D02*
X66353485Y-50374428D01*
X66353485Y-50374428D02*
X66163009Y-50326809D01*
X66163009Y-50326809D02*
X66067771Y-50279190D01*
X66067771Y-50279190D02*
X66020152Y-50231571D01*
X66020152Y-50231571D02*
X65972533Y-50136333D01*
X65972533Y-50136333D02*
X65972533Y-50041095D01*
X65972533Y-50041095D02*
X66020152Y-49945857D01*
X66020152Y-49945857D02*
X66067771Y-49898238D01*
X66067771Y-49898238D02*
X66163009Y-49850619D01*
X66163009Y-49850619D02*
X66401104Y-49850619D01*
X66401104Y-49850619D02*
X66543961Y-49898238D01*
X68543962Y-50850619D02*
X68496343Y-50850619D01*
X68496343Y-50850619D02*
X68401104Y-50803000D01*
X68401104Y-50803000D02*
X68258247Y-50660142D01*
X68258247Y-50660142D02*
X68020152Y-50374428D01*
X68020152Y-50374428D02*
X67924914Y-50231571D01*
X67924914Y-50231571D02*
X67877295Y-50088714D01*
X67877295Y-50088714D02*
X67877295Y-49993476D01*
X67877295Y-49993476D02*
X67924914Y-49898238D01*
X67924914Y-49898238D02*
X68020152Y-49850619D01*
X68020152Y-49850619D02*
X68067771Y-49850619D01*
X68067771Y-49850619D02*
X68163009Y-49898238D01*
X68163009Y-49898238D02*
X68210628Y-49993476D01*
X68210628Y-49993476D02*
X68210628Y-50041095D01*
X68210628Y-50041095D02*
X68163009Y-50136333D01*
X68163009Y-50136333D02*
X68115390Y-50183952D01*
X68115390Y-50183952D02*
X67829676Y-50374428D01*
X67829676Y-50374428D02*
X67782057Y-50422047D01*
X67782057Y-50422047D02*
X67734438Y-50517285D01*
X67734438Y-50517285D02*
X67734438Y-50660142D01*
X67734438Y-50660142D02*
X67782057Y-50755380D01*
X67782057Y-50755380D02*
X67829676Y-50803000D01*
X67829676Y-50803000D02*
X67924914Y-50850619D01*
X67924914Y-50850619D02*
X68067771Y-50850619D01*
X68067771Y-50850619D02*
X68163009Y-50803000D01*
X68163009Y-50803000D02*
X68210628Y-50755380D01*
X68210628Y-50755380D02*
X68353485Y-50564904D01*
X68353485Y-50564904D02*
X68401104Y-50422047D01*
X68401104Y-50422047D02*
X68401104Y-50326809D01*
X70210628Y-50850619D02*
X69734438Y-50850619D01*
X69734438Y-50850619D02*
X69734438Y-49850619D01*
X70543962Y-50850619D02*
X70543962Y-49850619D01*
X71543961Y-49898238D02*
X71448723Y-49850619D01*
X71448723Y-49850619D02*
X71305866Y-49850619D01*
X71305866Y-49850619D02*
X71163009Y-49898238D01*
X71163009Y-49898238D02*
X71067771Y-49993476D01*
X71067771Y-49993476D02*
X71020152Y-50088714D01*
X71020152Y-50088714D02*
X70972533Y-50279190D01*
X70972533Y-50279190D02*
X70972533Y-50422047D01*
X70972533Y-50422047D02*
X71020152Y-50612523D01*
X71020152Y-50612523D02*
X71067771Y-50707761D01*
X71067771Y-50707761D02*
X71163009Y-50803000D01*
X71163009Y-50803000D02*
X71305866Y-50850619D01*
X71305866Y-50850619D02*
X71401104Y-50850619D01*
X71401104Y-50850619D02*
X71543961Y-50803000D01*
X71543961Y-50803000D02*
X71591580Y-50755380D01*
X71591580Y-50755380D02*
X71591580Y-50422047D01*
X71591580Y-50422047D02*
X71401104Y-50422047D01*
X72020152Y-50850619D02*
X72020152Y-49850619D01*
X72020152Y-50326809D02*
X72591580Y-50326809D01*
X72591580Y-50850619D02*
X72591580Y-49850619D01*
X72924914Y-49850619D02*
X73496342Y-49850619D01*
X73210628Y-50850619D02*
X73210628Y-49850619D01*
X73782057Y-50803000D02*
X73924914Y-50850619D01*
X73924914Y-50850619D02*
X74163009Y-50850619D01*
X74163009Y-50850619D02*
X74258247Y-50803000D01*
X74258247Y-50803000D02*
X74305866Y-50755380D01*
X74305866Y-50755380D02*
X74353485Y-50660142D01*
X74353485Y-50660142D02*
X74353485Y-50564904D01*
X74353485Y-50564904D02*
X74305866Y-50469666D01*
X74305866Y-50469666D02*
X74258247Y-50422047D01*
X74258247Y-50422047D02*
X74163009Y-50374428D01*
X74163009Y-50374428D02*
X73972533Y-50326809D01*
X73972533Y-50326809D02*
X73877295Y-50279190D01*
X73877295Y-50279190D02*
X73829676Y-50231571D01*
X73829676Y-50231571D02*
X73782057Y-50136333D01*
X73782057Y-50136333D02*
X73782057Y-50041095D01*
X73782057Y-50041095D02*
X73829676Y-49945857D01*
X73829676Y-49945857D02*
X73877295Y-49898238D01*
X73877295Y-49898238D02*
X73972533Y-49850619D01*
X73972533Y-49850619D02*
X74210628Y-49850619D01*
X74210628Y-49850619D02*
X74353485Y-49898238D01*
X143988095Y-113142238D02*
X143892857Y-113094619D01*
X143892857Y-113094619D02*
X143750000Y-113094619D01*
X143750000Y-113094619D02*
X143607143Y-113142238D01*
X143607143Y-113142238D02*
X143511905Y-113237476D01*
X143511905Y-113237476D02*
X143464286Y-113332714D01*
X143464286Y-113332714D02*
X143416667Y-113523190D01*
X143416667Y-113523190D02*
X143416667Y-113666047D01*
X143416667Y-113666047D02*
X143464286Y-113856523D01*
X143464286Y-113856523D02*
X143511905Y-113951761D01*
X143511905Y-113951761D02*
X143607143Y-114047000D01*
X143607143Y-114047000D02*
X143750000Y-114094619D01*
X143750000Y-114094619D02*
X143845238Y-114094619D01*
X143845238Y-114094619D02*
X143988095Y-114047000D01*
X143988095Y-114047000D02*
X144035714Y-113999380D01*
X144035714Y-113999380D02*
X144035714Y-113666047D01*
X144035714Y-113666047D02*
X143845238Y-113666047D01*
X144464286Y-114094619D02*
X144464286Y-113094619D01*
X144464286Y-113094619D02*
X145035714Y-114094619D01*
X145035714Y-114094619D02*
X145035714Y-113094619D01*
X145511905Y-114094619D02*
X145511905Y-113094619D01*
X145511905Y-113094619D02*
X145750000Y-113094619D01*
X145750000Y-113094619D02*
X145892857Y-113142238D01*
X145892857Y-113142238D02*
X145988095Y-113237476D01*
X145988095Y-113237476D02*
X146035714Y-113332714D01*
X146035714Y-113332714D02*
X146083333Y-113523190D01*
X146083333Y-113523190D02*
X146083333Y-113666047D01*
X146083333Y-113666047D02*
X146035714Y-113856523D01*
X146035714Y-113856523D02*
X145988095Y-113951761D01*
X145988095Y-113951761D02*
X145892857Y-114047000D01*
X145892857Y-114047000D02*
X145750000Y-114094619D01*
X145750000Y-114094619D02*
X145511905Y-114094619D01*
X122779619Y-59531094D02*
X122779619Y-58912047D01*
X122779619Y-58912047D02*
X123160571Y-59245380D01*
X123160571Y-59245380D02*
X123160571Y-59102523D01*
X123160571Y-59102523D02*
X123208190Y-59007285D01*
X123208190Y-59007285D02*
X123255809Y-58959666D01*
X123255809Y-58959666D02*
X123351047Y-58912047D01*
X123351047Y-58912047D02*
X123589142Y-58912047D01*
X123589142Y-58912047D02*
X123684380Y-58959666D01*
X123684380Y-58959666D02*
X123732000Y-59007285D01*
X123732000Y-59007285D02*
X123779619Y-59102523D01*
X123779619Y-59102523D02*
X123779619Y-59388237D01*
X123779619Y-59388237D02*
X123732000Y-59483475D01*
X123732000Y-59483475D02*
X123684380Y-59531094D01*
X122779619Y-58626332D02*
X123779619Y-58292999D01*
X123779619Y-58292999D02*
X122779619Y-57959666D01*
X122779619Y-57721570D02*
X122779619Y-57102523D01*
X122779619Y-57102523D02*
X123160571Y-57435856D01*
X123160571Y-57435856D02*
X123160571Y-57292999D01*
X123160571Y-57292999D02*
X123208190Y-57197761D01*
X123208190Y-57197761D02*
X123255809Y-57150142D01*
X123255809Y-57150142D02*
X123351047Y-57102523D01*
X123351047Y-57102523D02*
X123589142Y-57102523D01*
X123589142Y-57102523D02*
X123684380Y-57150142D01*
X123684380Y-57150142D02*
X123732000Y-57197761D01*
X123732000Y-57197761D02*
X123779619Y-57292999D01*
X123779619Y-57292999D02*
X123779619Y-57578713D01*
X123779619Y-57578713D02*
X123732000Y-57673951D01*
X123732000Y-57673951D02*
X123684380Y-57721570D01*
X144010142Y-92039619D02*
X143676809Y-91563428D01*
X143438714Y-92039619D02*
X143438714Y-91039619D01*
X143438714Y-91039619D02*
X143819666Y-91039619D01*
X143819666Y-91039619D02*
X143914904Y-91087238D01*
X143914904Y-91087238D02*
X143962523Y-91134857D01*
X143962523Y-91134857D02*
X144010142Y-91230095D01*
X144010142Y-91230095D02*
X144010142Y-91372952D01*
X144010142Y-91372952D02*
X143962523Y-91468190D01*
X143962523Y-91468190D02*
X143914904Y-91515809D01*
X143914904Y-91515809D02*
X143819666Y-91563428D01*
X143819666Y-91563428D02*
X143438714Y-91563428D01*
X144438714Y-91515809D02*
X144772047Y-91515809D01*
X144914904Y-92039619D02*
X144438714Y-92039619D01*
X144438714Y-92039619D02*
X144438714Y-91039619D01*
X144438714Y-91039619D02*
X144914904Y-91039619D01*
X145343476Y-92039619D02*
X145343476Y-91039619D01*
X145343476Y-91039619D02*
X145581571Y-91039619D01*
X145581571Y-91039619D02*
X145724428Y-91087238D01*
X145724428Y-91087238D02*
X145819666Y-91182476D01*
X145819666Y-91182476D02*
X145867285Y-91277714D01*
X145867285Y-91277714D02*
X145914904Y-91468190D01*
X145914904Y-91468190D02*
X145914904Y-91611047D01*
X145914904Y-91611047D02*
X145867285Y-91801523D01*
X145867285Y-91801523D02*
X145819666Y-91896761D01*
X145819666Y-91896761D02*
X145724428Y-91992000D01*
X145724428Y-91992000D02*
X145581571Y-92039619D01*
X145581571Y-92039619D02*
X145343476Y-92039619D01*
X143988095Y-120392238D02*
X143892857Y-120344619D01*
X143892857Y-120344619D02*
X143750000Y-120344619D01*
X143750000Y-120344619D02*
X143607143Y-120392238D01*
X143607143Y-120392238D02*
X143511905Y-120487476D01*
X143511905Y-120487476D02*
X143464286Y-120582714D01*
X143464286Y-120582714D02*
X143416667Y-120773190D01*
X143416667Y-120773190D02*
X143416667Y-120916047D01*
X143416667Y-120916047D02*
X143464286Y-121106523D01*
X143464286Y-121106523D02*
X143511905Y-121201761D01*
X143511905Y-121201761D02*
X143607143Y-121297000D01*
X143607143Y-121297000D02*
X143750000Y-121344619D01*
X143750000Y-121344619D02*
X143845238Y-121344619D01*
X143845238Y-121344619D02*
X143988095Y-121297000D01*
X143988095Y-121297000D02*
X144035714Y-121249380D01*
X144035714Y-121249380D02*
X144035714Y-120916047D01*
X144035714Y-120916047D02*
X143845238Y-120916047D01*
X144464286Y-121344619D02*
X144464286Y-120344619D01*
X144464286Y-120344619D02*
X145035714Y-121344619D01*
X145035714Y-121344619D02*
X145035714Y-120344619D01*
X145511905Y-121344619D02*
X145511905Y-120344619D01*
X145511905Y-120344619D02*
X145750000Y-120344619D01*
X145750000Y-120344619D02*
X145892857Y-120392238D01*
X145892857Y-120392238D02*
X145988095Y-120487476D01*
X145988095Y-120487476D02*
X146035714Y-120582714D01*
X146035714Y-120582714D02*
X146083333Y-120773190D01*
X146083333Y-120773190D02*
X146083333Y-120916047D01*
X146083333Y-120916047D02*
X146035714Y-121106523D01*
X146035714Y-121106523D02*
X145988095Y-121201761D01*
X145988095Y-121201761D02*
X145892857Y-121297000D01*
X145892857Y-121297000D02*
X145750000Y-121344619D01*
X145750000Y-121344619D02*
X145511905Y-121344619D01*
X143988095Y-73642238D02*
X143892857Y-73594619D01*
X143892857Y-73594619D02*
X143750000Y-73594619D01*
X143750000Y-73594619D02*
X143607143Y-73642238D01*
X143607143Y-73642238D02*
X143511905Y-73737476D01*
X143511905Y-73737476D02*
X143464286Y-73832714D01*
X143464286Y-73832714D02*
X143416667Y-74023190D01*
X143416667Y-74023190D02*
X143416667Y-74166047D01*
X143416667Y-74166047D02*
X143464286Y-74356523D01*
X143464286Y-74356523D02*
X143511905Y-74451761D01*
X143511905Y-74451761D02*
X143607143Y-74547000D01*
X143607143Y-74547000D02*
X143750000Y-74594619D01*
X143750000Y-74594619D02*
X143845238Y-74594619D01*
X143845238Y-74594619D02*
X143988095Y-74547000D01*
X143988095Y-74547000D02*
X144035714Y-74499380D01*
X144035714Y-74499380D02*
X144035714Y-74166047D01*
X144035714Y-74166047D02*
X143845238Y-74166047D01*
X144464286Y-74594619D02*
X144464286Y-73594619D01*
X144464286Y-73594619D02*
X145035714Y-74594619D01*
X145035714Y-74594619D02*
X145035714Y-73594619D01*
X145511905Y-74594619D02*
X145511905Y-73594619D01*
X145511905Y-73594619D02*
X145750000Y-73594619D01*
X145750000Y-73594619D02*
X145892857Y-73642238D01*
X145892857Y-73642238D02*
X145988095Y-73737476D01*
X145988095Y-73737476D02*
X146035714Y-73832714D01*
X146035714Y-73832714D02*
X146083333Y-74023190D01*
X146083333Y-74023190D02*
X146083333Y-74166047D01*
X146083333Y-74166047D02*
X146035714Y-74356523D01*
X146035714Y-74356523D02*
X145988095Y-74451761D01*
X145988095Y-74451761D02*
X145892857Y-74547000D01*
X145892857Y-74547000D02*
X145750000Y-74594619D01*
X145750000Y-74594619D02*
X145511905Y-74594619D01*
X91389295Y-105729857D02*
X91436914Y-105682238D01*
X91436914Y-105682238D02*
X91532152Y-105634619D01*
X91532152Y-105634619D02*
X91770247Y-105634619D01*
X91770247Y-105634619D02*
X91865485Y-105682238D01*
X91865485Y-105682238D02*
X91913104Y-105729857D01*
X91913104Y-105729857D02*
X91960723Y-105825095D01*
X91960723Y-105825095D02*
X91960723Y-105920333D01*
X91960723Y-105920333D02*
X91913104Y-106063190D01*
X91913104Y-106063190D02*
X91341676Y-106634619D01*
X91341676Y-106634619D02*
X91960723Y-106634619D01*
X92532152Y-106063190D02*
X92436914Y-106015571D01*
X92436914Y-106015571D02*
X92389295Y-105967952D01*
X92389295Y-105967952D02*
X92341676Y-105872714D01*
X92341676Y-105872714D02*
X92341676Y-105825095D01*
X92341676Y-105825095D02*
X92389295Y-105729857D01*
X92389295Y-105729857D02*
X92436914Y-105682238D01*
X92436914Y-105682238D02*
X92532152Y-105634619D01*
X92532152Y-105634619D02*
X92722628Y-105634619D01*
X92722628Y-105634619D02*
X92817866Y-105682238D01*
X92817866Y-105682238D02*
X92865485Y-105729857D01*
X92865485Y-105729857D02*
X92913104Y-105825095D01*
X92913104Y-105825095D02*
X92913104Y-105872714D01*
X92913104Y-105872714D02*
X92865485Y-105967952D01*
X92865485Y-105967952D02*
X92817866Y-106015571D01*
X92817866Y-106015571D02*
X92722628Y-106063190D01*
X92722628Y-106063190D02*
X92532152Y-106063190D01*
X92532152Y-106063190D02*
X92436914Y-106110809D01*
X92436914Y-106110809D02*
X92389295Y-106158428D01*
X92389295Y-106158428D02*
X92341676Y-106253666D01*
X92341676Y-106253666D02*
X92341676Y-106444142D01*
X92341676Y-106444142D02*
X92389295Y-106539380D01*
X92389295Y-106539380D02*
X92436914Y-106587000D01*
X92436914Y-106587000D02*
X92532152Y-106634619D01*
X92532152Y-106634619D02*
X92722628Y-106634619D01*
X92722628Y-106634619D02*
X92817866Y-106587000D01*
X92817866Y-106587000D02*
X92865485Y-106539380D01*
X92865485Y-106539380D02*
X92913104Y-106444142D01*
X92913104Y-106444142D02*
X92913104Y-106253666D01*
X92913104Y-106253666D02*
X92865485Y-106158428D01*
X92865485Y-106158428D02*
X92817866Y-106110809D01*
X92817866Y-106110809D02*
X92722628Y-106063190D01*
X143069666Y-81015809D02*
X143212523Y-81063428D01*
X143212523Y-81063428D02*
X143260142Y-81111047D01*
X143260142Y-81111047D02*
X143307761Y-81206285D01*
X143307761Y-81206285D02*
X143307761Y-81349142D01*
X143307761Y-81349142D02*
X143260142Y-81444380D01*
X143260142Y-81444380D02*
X143212523Y-81492000D01*
X143212523Y-81492000D02*
X143117285Y-81539619D01*
X143117285Y-81539619D02*
X142736333Y-81539619D01*
X142736333Y-81539619D02*
X142736333Y-80539619D01*
X142736333Y-80539619D02*
X143069666Y-80539619D01*
X143069666Y-80539619D02*
X143164904Y-80587238D01*
X143164904Y-80587238D02*
X143212523Y-80634857D01*
X143212523Y-80634857D02*
X143260142Y-80730095D01*
X143260142Y-80730095D02*
X143260142Y-80825333D01*
X143260142Y-80825333D02*
X143212523Y-80920571D01*
X143212523Y-80920571D02*
X143164904Y-80968190D01*
X143164904Y-80968190D02*
X143069666Y-81015809D01*
X143069666Y-81015809D02*
X142736333Y-81015809D01*
X143736333Y-81015809D02*
X144069666Y-81015809D01*
X144212523Y-81539619D02*
X143736333Y-81539619D01*
X143736333Y-81539619D02*
X143736333Y-80539619D01*
X143736333Y-80539619D02*
X144212523Y-80539619D01*
X144641095Y-81015809D02*
X144974428Y-81015809D01*
X145117285Y-81539619D02*
X144641095Y-81539619D01*
X144641095Y-81539619D02*
X144641095Y-80539619D01*
X144641095Y-80539619D02*
X145117285Y-80539619D01*
X145545857Y-81539619D02*
X145545857Y-80539619D01*
X145545857Y-80539619D02*
X145926809Y-80539619D01*
X145926809Y-80539619D02*
X146022047Y-80587238D01*
X146022047Y-80587238D02*
X146069666Y-80634857D01*
X146069666Y-80634857D02*
X146117285Y-80730095D01*
X146117285Y-80730095D02*
X146117285Y-80872952D01*
X146117285Y-80872952D02*
X146069666Y-80968190D01*
X146069666Y-80968190D02*
X146022047Y-81015809D01*
X146022047Y-81015809D02*
X145926809Y-81063428D01*
X145926809Y-81063428D02*
X145545857Y-81063428D01*
X71967885Y-86282619D02*
X71967885Y-86996904D01*
X71967885Y-86996904D02*
X71920266Y-87139761D01*
X71920266Y-87139761D02*
X71825028Y-87235000D01*
X71825028Y-87235000D02*
X71682171Y-87282619D01*
X71682171Y-87282619D02*
X71586933Y-87282619D01*
X72396457Y-86996904D02*
X72872647Y-86996904D01*
X72301219Y-87282619D02*
X72634552Y-86282619D01*
X72634552Y-86282619D02*
X72967885Y-87282619D01*
X73872647Y-87187380D02*
X73825028Y-87235000D01*
X73825028Y-87235000D02*
X73682171Y-87282619D01*
X73682171Y-87282619D02*
X73586933Y-87282619D01*
X73586933Y-87282619D02*
X73444076Y-87235000D01*
X73444076Y-87235000D02*
X73348838Y-87139761D01*
X73348838Y-87139761D02*
X73301219Y-87044523D01*
X73301219Y-87044523D02*
X73253600Y-86854047D01*
X73253600Y-86854047D02*
X73253600Y-86711190D01*
X73253600Y-86711190D02*
X73301219Y-86520714D01*
X73301219Y-86520714D02*
X73348838Y-86425476D01*
X73348838Y-86425476D02*
X73444076Y-86330238D01*
X73444076Y-86330238D02*
X73586933Y-86282619D01*
X73586933Y-86282619D02*
X73682171Y-86282619D01*
X73682171Y-86282619D02*
X73825028Y-86330238D01*
X73825028Y-86330238D02*
X73872647Y-86377857D01*
X74301219Y-87282619D02*
X74301219Y-86282619D01*
X74872647Y-87282619D02*
X74444076Y-86711190D01*
X74872647Y-86282619D02*
X74301219Y-86854047D01*
X73539314Y-88902619D02*
X72967886Y-88902619D01*
X73253600Y-88902619D02*
X73253600Y-87902619D01*
X73253600Y-87902619D02*
X73158362Y-88045476D01*
X73158362Y-88045476D02*
X73063124Y-88140714D01*
X73063124Y-88140714D02*
X72967886Y-88188333D01*
X51305295Y-140442019D02*
X50733867Y-140442019D01*
X51019581Y-140442019D02*
X51019581Y-139442019D01*
X51019581Y-139442019D02*
X50924343Y-139584876D01*
X50924343Y-139584876D02*
X50829105Y-139680114D01*
X50829105Y-139680114D02*
X50733867Y-139727733D01*
X51733867Y-140061066D02*
X52495772Y-140061066D01*
X52876724Y-139442019D02*
X53114819Y-140442019D01*
X53114819Y-140442019D02*
X53305295Y-139727733D01*
X53305295Y-139727733D02*
X53495771Y-140442019D01*
X53495771Y-140442019D02*
X53733867Y-139442019D01*
X54114819Y-140442019D02*
X54114819Y-139442019D01*
X55162437Y-140442019D02*
X54829104Y-139965828D01*
X54591009Y-140442019D02*
X54591009Y-139442019D01*
X54591009Y-139442019D02*
X54971961Y-139442019D01*
X54971961Y-139442019D02*
X55067199Y-139489638D01*
X55067199Y-139489638D02*
X55114818Y-139537257D01*
X55114818Y-139537257D02*
X55162437Y-139632495D01*
X55162437Y-139632495D02*
X55162437Y-139775352D01*
X55162437Y-139775352D02*
X55114818Y-139870590D01*
X55114818Y-139870590D02*
X55067199Y-139918209D01*
X55067199Y-139918209D02*
X54971961Y-139965828D01*
X54971961Y-139965828D02*
X54591009Y-139965828D01*
X55591009Y-139918209D02*
X55924342Y-139918209D01*
X56067199Y-140442019D02*
X55591009Y-140442019D01*
X55591009Y-140442019D02*
X55591009Y-139442019D01*
X55591009Y-139442019D02*
X56067199Y-139442019D01*
X57257676Y-140442019D02*
X57257676Y-139442019D01*
X58448151Y-139394400D02*
X57591009Y-140680114D01*
X58971961Y-139442019D02*
X59162437Y-139442019D01*
X59162437Y-139442019D02*
X59257675Y-139489638D01*
X59257675Y-139489638D02*
X59352913Y-139584876D01*
X59352913Y-139584876D02*
X59400532Y-139775352D01*
X59400532Y-139775352D02*
X59400532Y-140108685D01*
X59400532Y-140108685D02*
X59352913Y-140299161D01*
X59352913Y-140299161D02*
X59257675Y-140394400D01*
X59257675Y-140394400D02*
X59162437Y-140442019D01*
X59162437Y-140442019D02*
X58971961Y-140442019D01*
X58971961Y-140442019D02*
X58876723Y-140394400D01*
X58876723Y-140394400D02*
X58781485Y-140299161D01*
X58781485Y-140299161D02*
X58733866Y-140108685D01*
X58733866Y-140108685D02*
X58733866Y-139775352D01*
X58733866Y-139775352D02*
X58781485Y-139584876D01*
X58781485Y-139584876D02*
X58876723Y-139489638D01*
X58876723Y-139489638D02*
X58971961Y-139442019D01*
X143748238Y-87539619D02*
X143986333Y-88539619D01*
X143986333Y-88539619D02*
X144176809Y-87825333D01*
X144176809Y-87825333D02*
X144367285Y-88539619D01*
X144367285Y-88539619D02*
X144605381Y-87539619D01*
X145510142Y-88539619D02*
X144938714Y-88539619D01*
X145224428Y-88539619D02*
X145224428Y-87539619D01*
X145224428Y-87539619D02*
X145129190Y-87682476D01*
X145129190Y-87682476D02*
X145033952Y-87777714D01*
X145033952Y-87777714D02*
X144938714Y-87825333D01*
X143988095Y-77244238D02*
X143892857Y-77196619D01*
X143892857Y-77196619D02*
X143750000Y-77196619D01*
X143750000Y-77196619D02*
X143607143Y-77244238D01*
X143607143Y-77244238D02*
X143511905Y-77339476D01*
X143511905Y-77339476D02*
X143464286Y-77434714D01*
X143464286Y-77434714D02*
X143416667Y-77625190D01*
X143416667Y-77625190D02*
X143416667Y-77768047D01*
X143416667Y-77768047D02*
X143464286Y-77958523D01*
X143464286Y-77958523D02*
X143511905Y-78053761D01*
X143511905Y-78053761D02*
X143607143Y-78149000D01*
X143607143Y-78149000D02*
X143750000Y-78196619D01*
X143750000Y-78196619D02*
X143845238Y-78196619D01*
X143845238Y-78196619D02*
X143988095Y-78149000D01*
X143988095Y-78149000D02*
X144035714Y-78101380D01*
X144035714Y-78101380D02*
X144035714Y-77768047D01*
X144035714Y-77768047D02*
X143845238Y-77768047D01*
X144464286Y-78196619D02*
X144464286Y-77196619D01*
X144464286Y-77196619D02*
X145035714Y-78196619D01*
X145035714Y-78196619D02*
X145035714Y-77196619D01*
X145511905Y-78196619D02*
X145511905Y-77196619D01*
X145511905Y-77196619D02*
X145750000Y-77196619D01*
X145750000Y-77196619D02*
X145892857Y-77244238D01*
X145892857Y-77244238D02*
X145988095Y-77339476D01*
X145988095Y-77339476D02*
X146035714Y-77434714D01*
X146035714Y-77434714D02*
X146083333Y-77625190D01*
X146083333Y-77625190D02*
X146083333Y-77768047D01*
X146083333Y-77768047D02*
X146035714Y-77958523D01*
X146035714Y-77958523D02*
X145988095Y-78053761D01*
X145988095Y-78053761D02*
X145892857Y-78149000D01*
X145892857Y-78149000D02*
X145750000Y-78196619D01*
X145750000Y-78196619D02*
X145511905Y-78196619D01*
X143988095Y-106142238D02*
X143892857Y-106094619D01*
X143892857Y-106094619D02*
X143750000Y-106094619D01*
X143750000Y-106094619D02*
X143607143Y-106142238D01*
X143607143Y-106142238D02*
X143511905Y-106237476D01*
X143511905Y-106237476D02*
X143464286Y-106332714D01*
X143464286Y-106332714D02*
X143416667Y-106523190D01*
X143416667Y-106523190D02*
X143416667Y-106666047D01*
X143416667Y-106666047D02*
X143464286Y-106856523D01*
X143464286Y-106856523D02*
X143511905Y-106951761D01*
X143511905Y-106951761D02*
X143607143Y-107047000D01*
X143607143Y-107047000D02*
X143750000Y-107094619D01*
X143750000Y-107094619D02*
X143845238Y-107094619D01*
X143845238Y-107094619D02*
X143988095Y-107047000D01*
X143988095Y-107047000D02*
X144035714Y-106999380D01*
X144035714Y-106999380D02*
X144035714Y-106666047D01*
X144035714Y-106666047D02*
X143845238Y-106666047D01*
X144464286Y-107094619D02*
X144464286Y-106094619D01*
X144464286Y-106094619D02*
X145035714Y-107094619D01*
X145035714Y-107094619D02*
X145035714Y-106094619D01*
X145511905Y-107094619D02*
X145511905Y-106094619D01*
X145511905Y-106094619D02*
X145750000Y-106094619D01*
X145750000Y-106094619D02*
X145892857Y-106142238D01*
X145892857Y-106142238D02*
X145988095Y-106237476D01*
X145988095Y-106237476D02*
X146035714Y-106332714D01*
X146035714Y-106332714D02*
X146083333Y-106523190D01*
X146083333Y-106523190D02*
X146083333Y-106666047D01*
X146083333Y-106666047D02*
X146035714Y-106856523D01*
X146035714Y-106856523D02*
X145988095Y-106951761D01*
X145988095Y-106951761D02*
X145892857Y-107047000D01*
X145892857Y-107047000D02*
X145750000Y-107094619D01*
X145750000Y-107094619D02*
X145511905Y-107094619D01*
X145059523Y-69957619D02*
X144583333Y-69957619D01*
X144583333Y-69957619D02*
X144535714Y-70433809D01*
X144535714Y-70433809D02*
X144583333Y-70386190D01*
X144583333Y-70386190D02*
X144678571Y-70338571D01*
X144678571Y-70338571D02*
X144916666Y-70338571D01*
X144916666Y-70338571D02*
X145011904Y-70386190D01*
X145011904Y-70386190D02*
X145059523Y-70433809D01*
X145059523Y-70433809D02*
X145107142Y-70529047D01*
X145107142Y-70529047D02*
X145107142Y-70767142D01*
X145107142Y-70767142D02*
X145059523Y-70862380D01*
X145059523Y-70862380D02*
X145011904Y-70910000D01*
X145011904Y-70910000D02*
X144916666Y-70957619D01*
X144916666Y-70957619D02*
X144678571Y-70957619D01*
X144678571Y-70957619D02*
X144583333Y-70910000D01*
X144583333Y-70910000D02*
X144535714Y-70862380D01*
X145392857Y-69957619D02*
X145726190Y-70957619D01*
X145726190Y-70957619D02*
X146059523Y-69957619D01*
X139357619Y-56021047D02*
X139357619Y-56592475D01*
X139357619Y-56306761D02*
X138357619Y-56306761D01*
X138357619Y-56306761D02*
X138500476Y-56401999D01*
X138500476Y-56401999D02*
X138595714Y-56497237D01*
X138595714Y-56497237D02*
X138643333Y-56592475D01*
X138452857Y-55640094D02*
X138405238Y-55592475D01*
X138405238Y-55592475D02*
X138357619Y-55497237D01*
X138357619Y-55497237D02*
X138357619Y-55259142D01*
X138357619Y-55259142D02*
X138405238Y-55163904D01*
X138405238Y-55163904D02*
X138452857Y-55116285D01*
X138452857Y-55116285D02*
X138548095Y-55068666D01*
X138548095Y-55068666D02*
X138643333Y-55068666D01*
X138643333Y-55068666D02*
X138786190Y-55116285D01*
X138786190Y-55116285D02*
X139357619Y-55687713D01*
X139357619Y-55687713D02*
X139357619Y-55068666D01*
X138357619Y-54782951D02*
X139357619Y-54449618D01*
X139357619Y-54449618D02*
X138357619Y-54116285D01*
X126002238Y-58943904D02*
X125954619Y-59039142D01*
X125954619Y-59039142D02*
X125954619Y-59181999D01*
X125954619Y-59181999D02*
X126002238Y-59324856D01*
X126002238Y-59324856D02*
X126097476Y-59420094D01*
X126097476Y-59420094D02*
X126192714Y-59467713D01*
X126192714Y-59467713D02*
X126383190Y-59515332D01*
X126383190Y-59515332D02*
X126526047Y-59515332D01*
X126526047Y-59515332D02*
X126716523Y-59467713D01*
X126716523Y-59467713D02*
X126811761Y-59420094D01*
X126811761Y-59420094D02*
X126907000Y-59324856D01*
X126907000Y-59324856D02*
X126954619Y-59181999D01*
X126954619Y-59181999D02*
X126954619Y-59086761D01*
X126954619Y-59086761D02*
X126907000Y-58943904D01*
X126907000Y-58943904D02*
X126859380Y-58896285D01*
X126859380Y-58896285D02*
X126526047Y-58896285D01*
X126526047Y-58896285D02*
X126526047Y-59086761D01*
X126954619Y-58467713D02*
X125954619Y-58467713D01*
X125954619Y-58467713D02*
X126954619Y-57896285D01*
X126954619Y-57896285D02*
X125954619Y-57896285D01*
X126954619Y-57420094D02*
X125954619Y-57420094D01*
X125954619Y-57420094D02*
X125954619Y-57181999D01*
X125954619Y-57181999D02*
X126002238Y-57039142D01*
X126002238Y-57039142D02*
X126097476Y-56943904D01*
X126097476Y-56943904D02*
X126192714Y-56896285D01*
X126192714Y-56896285D02*
X126383190Y-56848666D01*
X126383190Y-56848666D02*
X126526047Y-56848666D01*
X126526047Y-56848666D02*
X126716523Y-56896285D01*
X126716523Y-56896285D02*
X126811761Y-56943904D01*
X126811761Y-56943904D02*
X126907000Y-57039142D01*
X126907000Y-57039142D02*
X126954619Y-57181999D01*
X126954619Y-57181999D02*
X126954619Y-57420094D01*
X132302285Y-113968952D02*
X132302285Y-114635619D01*
X132064190Y-113588000D02*
X131826095Y-114302285D01*
X131826095Y-114302285D02*
X132445142Y-114302285D01*
X133016571Y-113635619D02*
X133111809Y-113635619D01*
X133111809Y-113635619D02*
X133207047Y-113683238D01*
X133207047Y-113683238D02*
X133254666Y-113730857D01*
X133254666Y-113730857D02*
X133302285Y-113826095D01*
X133302285Y-113826095D02*
X133349904Y-114016571D01*
X133349904Y-114016571D02*
X133349904Y-114254666D01*
X133349904Y-114254666D02*
X133302285Y-114445142D01*
X133302285Y-114445142D02*
X133254666Y-114540380D01*
X133254666Y-114540380D02*
X133207047Y-114588000D01*
X133207047Y-114588000D02*
X133111809Y-114635619D01*
X133111809Y-114635619D02*
X133016571Y-114635619D01*
X133016571Y-114635619D02*
X132921333Y-114588000D01*
X132921333Y-114588000D02*
X132873714Y-114540380D01*
X132873714Y-114540380D02*
X132826095Y-114445142D01*
X132826095Y-114445142D02*
X132778476Y-114254666D01*
X132778476Y-114254666D02*
X132778476Y-114016571D01*
X132778476Y-114016571D02*
X132826095Y-113826095D01*
X132826095Y-113826095D02*
X132873714Y-113730857D01*
X132873714Y-113730857D02*
X132921333Y-113683238D01*
X132921333Y-113683238D02*
X133016571Y-113635619D01*
X142440476Y-103271619D02*
X142440476Y-102271619D01*
X142440476Y-102271619D02*
X142678571Y-102271619D01*
X142678571Y-102271619D02*
X142821428Y-102319238D01*
X142821428Y-102319238D02*
X142916666Y-102414476D01*
X142916666Y-102414476D02*
X142964285Y-102509714D01*
X142964285Y-102509714D02*
X143011904Y-102700190D01*
X143011904Y-102700190D02*
X143011904Y-102843047D01*
X143011904Y-102843047D02*
X142964285Y-103033523D01*
X142964285Y-103033523D02*
X142916666Y-103128761D01*
X142916666Y-103128761D02*
X142821428Y-103224000D01*
X142821428Y-103224000D02*
X142678571Y-103271619D01*
X142678571Y-103271619D02*
X142440476Y-103271619D01*
X143630952Y-102271619D02*
X143821428Y-102271619D01*
X143821428Y-102271619D02*
X143916666Y-102319238D01*
X143916666Y-102319238D02*
X144011904Y-102414476D01*
X144011904Y-102414476D02*
X144059523Y-102604952D01*
X144059523Y-102604952D02*
X144059523Y-102938285D01*
X144059523Y-102938285D02*
X144011904Y-103128761D01*
X144011904Y-103128761D02*
X143916666Y-103224000D01*
X143916666Y-103224000D02*
X143821428Y-103271619D01*
X143821428Y-103271619D02*
X143630952Y-103271619D01*
X143630952Y-103271619D02*
X143535714Y-103224000D01*
X143535714Y-103224000D02*
X143440476Y-103128761D01*
X143440476Y-103128761D02*
X143392857Y-102938285D01*
X143392857Y-102938285D02*
X143392857Y-102604952D01*
X143392857Y-102604952D02*
X143440476Y-102414476D01*
X143440476Y-102414476D02*
X143535714Y-102319238D01*
X143535714Y-102319238D02*
X143630952Y-102271619D01*
X144678571Y-102271619D02*
X144869047Y-102271619D01*
X144869047Y-102271619D02*
X144964285Y-102319238D01*
X144964285Y-102319238D02*
X145059523Y-102414476D01*
X145059523Y-102414476D02*
X145107142Y-102604952D01*
X145107142Y-102604952D02*
X145107142Y-102938285D01*
X145107142Y-102938285D02*
X145059523Y-103128761D01*
X145059523Y-103128761D02*
X144964285Y-103224000D01*
X144964285Y-103224000D02*
X144869047Y-103271619D01*
X144869047Y-103271619D02*
X144678571Y-103271619D01*
X144678571Y-103271619D02*
X144583333Y-103224000D01*
X144583333Y-103224000D02*
X144488095Y-103128761D01*
X144488095Y-103128761D02*
X144440476Y-102938285D01*
X144440476Y-102938285D02*
X144440476Y-102604952D01*
X144440476Y-102604952D02*
X144488095Y-102414476D01*
X144488095Y-102414476D02*
X144583333Y-102319238D01*
X144583333Y-102319238D02*
X144678571Y-102271619D01*
X146107142Y-103271619D02*
X145773809Y-102795428D01*
X145535714Y-103271619D02*
X145535714Y-102271619D01*
X145535714Y-102271619D02*
X145916666Y-102271619D01*
X145916666Y-102271619D02*
X146011904Y-102319238D01*
X146011904Y-102319238D02*
X146059523Y-102366857D01*
X146059523Y-102366857D02*
X146107142Y-102462095D01*
X146107142Y-102462095D02*
X146107142Y-102604952D01*
X146107142Y-102604952D02*
X146059523Y-102700190D01*
X146059523Y-102700190D02*
X146011904Y-102747809D01*
X146011904Y-102747809D02*
X145916666Y-102795428D01*
X145916666Y-102795428D02*
X145535714Y-102795428D01*
X72707523Y-76992819D02*
X72136095Y-76992819D01*
X72421809Y-76992819D02*
X72421809Y-75992819D01*
X72421809Y-75992819D02*
X72326571Y-76135676D01*
X72326571Y-76135676D02*
X72231333Y-76230914D01*
X72231333Y-76230914D02*
X72136095Y-76278533D01*
X73564666Y-75992819D02*
X73374190Y-75992819D01*
X73374190Y-75992819D02*
X73278952Y-76040438D01*
X73278952Y-76040438D02*
X73231333Y-76088057D01*
X73231333Y-76088057D02*
X73136095Y-76230914D01*
X73136095Y-76230914D02*
X73088476Y-76421390D01*
X73088476Y-76421390D02*
X73088476Y-76802342D01*
X73088476Y-76802342D02*
X73136095Y-76897580D01*
X73136095Y-76897580D02*
X73183714Y-76945200D01*
X73183714Y-76945200D02*
X73278952Y-76992819D01*
X73278952Y-76992819D02*
X73469428Y-76992819D01*
X73469428Y-76992819D02*
X73564666Y-76945200D01*
X73564666Y-76945200D02*
X73612285Y-76897580D01*
X73612285Y-76897580D02*
X73659904Y-76802342D01*
X73659904Y-76802342D02*
X73659904Y-76564247D01*
X73659904Y-76564247D02*
X73612285Y-76469009D01*
X73612285Y-76469009D02*
X73564666Y-76421390D01*
X73564666Y-76421390D02*
X73469428Y-76373771D01*
X73469428Y-76373771D02*
X73278952Y-76373771D01*
X73278952Y-76373771D02*
X73183714Y-76421390D01*
X73183714Y-76421390D02*
X73136095Y-76469009D01*
X73136095Y-76469009D02*
X73088476Y-76564247D01*
X111785495Y-77866057D02*
X111833114Y-77818438D01*
X111833114Y-77818438D02*
X111928352Y-77770819D01*
X111928352Y-77770819D02*
X112166447Y-77770819D01*
X112166447Y-77770819D02*
X112261685Y-77818438D01*
X112261685Y-77818438D02*
X112309304Y-77866057D01*
X112309304Y-77866057D02*
X112356923Y-77961295D01*
X112356923Y-77961295D02*
X112356923Y-78056533D01*
X112356923Y-78056533D02*
X112309304Y-78199390D01*
X112309304Y-78199390D02*
X111737876Y-78770819D01*
X111737876Y-78770819D02*
X112356923Y-78770819D01*
X112928352Y-78199390D02*
X112833114Y-78151771D01*
X112833114Y-78151771D02*
X112785495Y-78104152D01*
X112785495Y-78104152D02*
X112737876Y-78008914D01*
X112737876Y-78008914D02*
X112737876Y-77961295D01*
X112737876Y-77961295D02*
X112785495Y-77866057D01*
X112785495Y-77866057D02*
X112833114Y-77818438D01*
X112833114Y-77818438D02*
X112928352Y-77770819D01*
X112928352Y-77770819D02*
X113118828Y-77770819D01*
X113118828Y-77770819D02*
X113214066Y-77818438D01*
X113214066Y-77818438D02*
X113261685Y-77866057D01*
X113261685Y-77866057D02*
X113309304Y-77961295D01*
X113309304Y-77961295D02*
X113309304Y-78008914D01*
X113309304Y-78008914D02*
X113261685Y-78104152D01*
X113261685Y-78104152D02*
X113214066Y-78151771D01*
X113214066Y-78151771D02*
X113118828Y-78199390D01*
X113118828Y-78199390D02*
X112928352Y-78199390D01*
X112928352Y-78199390D02*
X112833114Y-78247009D01*
X112833114Y-78247009D02*
X112785495Y-78294628D01*
X112785495Y-78294628D02*
X112737876Y-78389866D01*
X112737876Y-78389866D02*
X112737876Y-78580342D01*
X112737876Y-78580342D02*
X112785495Y-78675580D01*
X112785495Y-78675580D02*
X112833114Y-78723200D01*
X112833114Y-78723200D02*
X112928352Y-78770819D01*
X112928352Y-78770819D02*
X113118828Y-78770819D01*
X113118828Y-78770819D02*
X113214066Y-78723200D01*
X113214066Y-78723200D02*
X113261685Y-78675580D01*
X113261685Y-78675580D02*
X113309304Y-78580342D01*
X113309304Y-78580342D02*
X113309304Y-78389866D01*
X113309304Y-78389866D02*
X113261685Y-78294628D01*
X113261685Y-78294628D02*
X113214066Y-78247009D01*
X113214066Y-78247009D02*
X113118828Y-78199390D01*
X125230000Y-114127619D02*
X125230000Y-113127619D01*
X125230000Y-113127619D02*
X125610952Y-113127619D01*
X125610952Y-113127619D02*
X125706190Y-113175238D01*
X125706190Y-113175238D02*
X125753809Y-113222857D01*
X125753809Y-113222857D02*
X125801428Y-113318095D01*
X125801428Y-113318095D02*
X125801428Y-113460952D01*
X125801428Y-113460952D02*
X125753809Y-113556190D01*
X125753809Y-113556190D02*
X125706190Y-113603809D01*
X125706190Y-113603809D02*
X125610952Y-113651428D01*
X125610952Y-113651428D02*
X125230000Y-113651428D01*
X126230000Y-114127619D02*
X126230000Y-113127619D01*
X141492857Y-126244619D02*
X142064285Y-126244619D01*
X141778571Y-127244619D02*
X141778571Y-126244619D01*
X142588095Y-126244619D02*
X142778571Y-126244619D01*
X142778571Y-126244619D02*
X142873809Y-126292238D01*
X142873809Y-126292238D02*
X142969047Y-126387476D01*
X142969047Y-126387476D02*
X143016666Y-126577952D01*
X143016666Y-126577952D02*
X143016666Y-126911285D01*
X143016666Y-126911285D02*
X142969047Y-127101761D01*
X142969047Y-127101761D02*
X142873809Y-127197000D01*
X142873809Y-127197000D02*
X142778571Y-127244619D01*
X142778571Y-127244619D02*
X142588095Y-127244619D01*
X142588095Y-127244619D02*
X142492857Y-127197000D01*
X142492857Y-127197000D02*
X142397619Y-127101761D01*
X142397619Y-127101761D02*
X142350000Y-126911285D01*
X142350000Y-126911285D02*
X142350000Y-126577952D01*
X142350000Y-126577952D02*
X142397619Y-126387476D01*
X142397619Y-126387476D02*
X142492857Y-126292238D01*
X142492857Y-126292238D02*
X142588095Y-126244619D01*
X143445238Y-126244619D02*
X143445238Y-127054142D01*
X143445238Y-127054142D02*
X143492857Y-127149380D01*
X143492857Y-127149380D02*
X143540476Y-127197000D01*
X143540476Y-127197000D02*
X143635714Y-127244619D01*
X143635714Y-127244619D02*
X143826190Y-127244619D01*
X143826190Y-127244619D02*
X143921428Y-127197000D01*
X143921428Y-127197000D02*
X143969047Y-127149380D01*
X143969047Y-127149380D02*
X144016666Y-127054142D01*
X144016666Y-127054142D02*
X144016666Y-126244619D01*
X145064285Y-127149380D02*
X145016666Y-127197000D01*
X145016666Y-127197000D02*
X144873809Y-127244619D01*
X144873809Y-127244619D02*
X144778571Y-127244619D01*
X144778571Y-127244619D02*
X144635714Y-127197000D01*
X144635714Y-127197000D02*
X144540476Y-127101761D01*
X144540476Y-127101761D02*
X144492857Y-127006523D01*
X144492857Y-127006523D02*
X144445238Y-126816047D01*
X144445238Y-126816047D02*
X144445238Y-126673190D01*
X144445238Y-126673190D02*
X144492857Y-126482714D01*
X144492857Y-126482714D02*
X144540476Y-126387476D01*
X144540476Y-126387476D02*
X144635714Y-126292238D01*
X144635714Y-126292238D02*
X144778571Y-126244619D01*
X144778571Y-126244619D02*
X144873809Y-126244619D01*
X144873809Y-126244619D02*
X145016666Y-126292238D01*
X145016666Y-126292238D02*
X145064285Y-126339857D01*
X145492857Y-127244619D02*
X145492857Y-126244619D01*
X145492857Y-126720809D02*
X146064285Y-126720809D01*
X146064285Y-127244619D02*
X146064285Y-126244619D01*
X85679619Y-93622619D02*
X85679619Y-94194047D01*
X85679619Y-93908333D02*
X84679619Y-93908333D01*
X84679619Y-93908333D02*
X84822476Y-94003571D01*
X84822476Y-94003571D02*
X84917714Y-94098809D01*
X84917714Y-94098809D02*
X84965333Y-94194047D01*
X84679619Y-93003571D02*
X84679619Y-92908333D01*
X84679619Y-92908333D02*
X84727238Y-92813095D01*
X84727238Y-92813095D02*
X84774857Y-92765476D01*
X84774857Y-92765476D02*
X84870095Y-92717857D01*
X84870095Y-92717857D02*
X85060571Y-92670238D01*
X85060571Y-92670238D02*
X85298666Y-92670238D01*
X85298666Y-92670238D02*
X85489142Y-92717857D01*
X85489142Y-92717857D02*
X85584380Y-92765476D01*
X85584380Y-92765476D02*
X85632000Y-92813095D01*
X85632000Y-92813095D02*
X85679619Y-92908333D01*
X85679619Y-92908333D02*
X85679619Y-93003571D01*
X85679619Y-93003571D02*
X85632000Y-93098809D01*
X85632000Y-93098809D02*
X85584380Y-93146428D01*
X85584380Y-93146428D02*
X85489142Y-93194047D01*
X85489142Y-93194047D02*
X85298666Y-93241666D01*
X85298666Y-93241666D02*
X85060571Y-93241666D01*
X85060571Y-93241666D02*
X84870095Y-93194047D01*
X84870095Y-93194047D02*
X84774857Y-93146428D01*
X84774857Y-93146428D02*
X84727238Y-93098809D01*
X84727238Y-93098809D02*
X84679619Y-93003571D01*
X84679619Y-92051190D02*
X84679619Y-91955952D01*
X84679619Y-91955952D02*
X84727238Y-91860714D01*
X84727238Y-91860714D02*
X84774857Y-91813095D01*
X84774857Y-91813095D02*
X84870095Y-91765476D01*
X84870095Y-91765476D02*
X85060571Y-91717857D01*
X85060571Y-91717857D02*
X85298666Y-91717857D01*
X85298666Y-91717857D02*
X85489142Y-91765476D01*
X85489142Y-91765476D02*
X85584380Y-91813095D01*
X85584380Y-91813095D02*
X85632000Y-91860714D01*
X85632000Y-91860714D02*
X85679619Y-91955952D01*
X85679619Y-91955952D02*
X85679619Y-92051190D01*
X85679619Y-92051190D02*
X85632000Y-92146428D01*
X85632000Y-92146428D02*
X85584380Y-92194047D01*
X85584380Y-92194047D02*
X85489142Y-92241666D01*
X85489142Y-92241666D02*
X85298666Y-92289285D01*
X85298666Y-92289285D02*
X85060571Y-92289285D01*
X85060571Y-92289285D02*
X84870095Y-92241666D01*
X84870095Y-92241666D02*
X84774857Y-92194047D01*
X84774857Y-92194047D02*
X84727238Y-92146428D01*
X84727238Y-92146428D02*
X84679619Y-92051190D01*
X85012952Y-91289285D02*
X85679619Y-91289285D01*
X85108190Y-91289285D02*
X85060571Y-91241666D01*
X85060571Y-91241666D02*
X85012952Y-91146428D01*
X85012952Y-91146428D02*
X85012952Y-91003571D01*
X85012952Y-91003571D02*
X85060571Y-90908333D01*
X85060571Y-90908333D02*
X85155809Y-90860714D01*
X85155809Y-90860714D02*
X85679619Y-90860714D01*
X85155809Y-90051190D02*
X85155809Y-90384523D01*
X85679619Y-90384523D02*
X84679619Y-90384523D01*
X84679619Y-90384523D02*
X84679619Y-89908333D01*
X84410514Y-106685419D02*
X83839086Y-106685419D01*
X84124800Y-106685419D02*
X84124800Y-105685419D01*
X84124800Y-105685419D02*
X84029562Y-105828276D01*
X84029562Y-105828276D02*
X83934324Y-105923514D01*
X83934324Y-105923514D02*
X83839086Y-105971133D01*
X134382380Y-133267810D02*
X135382380Y-133267810D01*
X135382380Y-133934476D02*
X135382380Y-134124952D01*
X135382380Y-134124952D02*
X135334761Y-134220190D01*
X135334761Y-134220190D02*
X135239523Y-134315428D01*
X135239523Y-134315428D02*
X135049047Y-134363047D01*
X135049047Y-134363047D02*
X134715714Y-134363047D01*
X134715714Y-134363047D02*
X134525238Y-134315428D01*
X134525238Y-134315428D02*
X134430000Y-134220190D01*
X134430000Y-134220190D02*
X134382380Y-134124952D01*
X134382380Y-134124952D02*
X134382380Y-133934476D01*
X134382380Y-133934476D02*
X134430000Y-133839238D01*
X134430000Y-133839238D02*
X134525238Y-133744000D01*
X134525238Y-133744000D02*
X134715714Y-133696381D01*
X134715714Y-133696381D02*
X135049047Y-133696381D01*
X135049047Y-133696381D02*
X135239523Y-133744000D01*
X135239523Y-133744000D02*
X135334761Y-133839238D01*
X135334761Y-133839238D02*
X135382380Y-133934476D01*
X135287142Y-134744000D02*
X135334761Y-134791619D01*
X135334761Y-134791619D02*
X135382380Y-134886857D01*
X135382380Y-134886857D02*
X135382380Y-135124952D01*
X135382380Y-135124952D02*
X135334761Y-135220190D01*
X135334761Y-135220190D02*
X135287142Y-135267809D01*
X135287142Y-135267809D02*
X135191904Y-135315428D01*
X135191904Y-135315428D02*
X135096666Y-135315428D01*
X135096666Y-135315428D02*
X134953809Y-135267809D01*
X134953809Y-135267809D02*
X134382380Y-134696381D01*
X134382380Y-134696381D02*
X134382380Y-135315428D01*
X135382380Y-135934476D02*
X135382380Y-136029714D01*
X135382380Y-136029714D02*
X135334761Y-136124952D01*
X135334761Y-136124952D02*
X135287142Y-136172571D01*
X135287142Y-136172571D02*
X135191904Y-136220190D01*
X135191904Y-136220190D02*
X135001428Y-136267809D01*
X135001428Y-136267809D02*
X134763333Y-136267809D01*
X134763333Y-136267809D02*
X134572857Y-136220190D01*
X134572857Y-136220190D02*
X134477619Y-136172571D01*
X134477619Y-136172571D02*
X134430000Y-136124952D01*
X134430000Y-136124952D02*
X134382380Y-136029714D01*
X134382380Y-136029714D02*
X134382380Y-135934476D01*
X134382380Y-135934476D02*
X134430000Y-135839238D01*
X134430000Y-135839238D02*
X134477619Y-135791619D01*
X134477619Y-135791619D02*
X134572857Y-135744000D01*
X134572857Y-135744000D02*
X134763333Y-135696381D01*
X134763333Y-135696381D02*
X135001428Y-135696381D01*
X135001428Y-135696381D02*
X135191904Y-135744000D01*
X135191904Y-135744000D02*
X135287142Y-135791619D01*
X135287142Y-135791619D02*
X135334761Y-135839238D01*
X135334761Y-135839238D02*
X135382380Y-135934476D01*
X139133095Y-46554619D02*
X139133095Y-45554619D01*
X139133095Y-45554619D02*
X139514047Y-45554619D01*
X139514047Y-45554619D02*
X139609285Y-45602238D01*
X139609285Y-45602238D02*
X139656904Y-45649857D01*
X139656904Y-45649857D02*
X139704523Y-45745095D01*
X139704523Y-45745095D02*
X139704523Y-45887952D01*
X139704523Y-45887952D02*
X139656904Y-45983190D01*
X139656904Y-45983190D02*
X139609285Y-46030809D01*
X139609285Y-46030809D02*
X139514047Y-46078428D01*
X139514047Y-46078428D02*
X139133095Y-46078428D01*
X140323571Y-45554619D02*
X140514047Y-45554619D01*
X140514047Y-45554619D02*
X140609285Y-45602238D01*
X140609285Y-45602238D02*
X140704523Y-45697476D01*
X140704523Y-45697476D02*
X140752142Y-45887952D01*
X140752142Y-45887952D02*
X140752142Y-46221285D01*
X140752142Y-46221285D02*
X140704523Y-46411761D01*
X140704523Y-46411761D02*
X140609285Y-46507000D01*
X140609285Y-46507000D02*
X140514047Y-46554619D01*
X140514047Y-46554619D02*
X140323571Y-46554619D01*
X140323571Y-46554619D02*
X140228333Y-46507000D01*
X140228333Y-46507000D02*
X140133095Y-46411761D01*
X140133095Y-46411761D02*
X140085476Y-46221285D01*
X140085476Y-46221285D02*
X140085476Y-45887952D01*
X140085476Y-45887952D02*
X140133095Y-45697476D01*
X140133095Y-45697476D02*
X140228333Y-45602238D01*
X140228333Y-45602238D02*
X140323571Y-45554619D01*
X141085476Y-45554619D02*
X141323571Y-46554619D01*
X141323571Y-46554619D02*
X141514047Y-45840333D01*
X141514047Y-45840333D02*
X141704523Y-46554619D01*
X141704523Y-46554619D02*
X141942619Y-45554619D01*
X142323571Y-46030809D02*
X142656904Y-46030809D01*
X142799761Y-46554619D02*
X142323571Y-46554619D01*
X142323571Y-46554619D02*
X142323571Y-45554619D01*
X142323571Y-45554619D02*
X142799761Y-45554619D01*
X143799761Y-46554619D02*
X143466428Y-46078428D01*
X143228333Y-46554619D02*
X143228333Y-45554619D01*
X143228333Y-45554619D02*
X143609285Y-45554619D01*
X143609285Y-45554619D02*
X143704523Y-45602238D01*
X143704523Y-45602238D02*
X143752142Y-45649857D01*
X143752142Y-45649857D02*
X143799761Y-45745095D01*
X143799761Y-45745095D02*
X143799761Y-45887952D01*
X143799761Y-45887952D02*
X143752142Y-45983190D01*
X143752142Y-45983190D02*
X143704523Y-46030809D01*
X143704523Y-46030809D02*
X143609285Y-46078428D01*
X143609285Y-46078428D02*
X143228333Y-46078428D01*
X139133095Y-48174619D02*
X139133095Y-47174619D01*
X139609285Y-48174619D02*
X139609285Y-47174619D01*
X139609285Y-47174619D02*
X140180713Y-48174619D01*
X140180713Y-48174619D02*
X140180713Y-47174619D01*
X133193619Y-58229476D02*
X133193619Y-58705666D01*
X133193619Y-58705666D02*
X133669809Y-58753285D01*
X133669809Y-58753285D02*
X133622190Y-58705666D01*
X133622190Y-58705666D02*
X133574571Y-58610428D01*
X133574571Y-58610428D02*
X133574571Y-58372333D01*
X133574571Y-58372333D02*
X133622190Y-58277095D01*
X133622190Y-58277095D02*
X133669809Y-58229476D01*
X133669809Y-58229476D02*
X133765047Y-58181857D01*
X133765047Y-58181857D02*
X134003142Y-58181857D01*
X134003142Y-58181857D02*
X134098380Y-58229476D01*
X134098380Y-58229476D02*
X134146000Y-58277095D01*
X134146000Y-58277095D02*
X134193619Y-58372333D01*
X134193619Y-58372333D02*
X134193619Y-58610428D01*
X134193619Y-58610428D02*
X134146000Y-58705666D01*
X134146000Y-58705666D02*
X134098380Y-58753285D01*
X133193619Y-57896142D02*
X134193619Y-57562809D01*
X134193619Y-57562809D02*
X133193619Y-57229476D01*
X73539314Y-85197019D02*
X72967886Y-85197019D01*
X73253600Y-85197019D02*
X73253600Y-84197019D01*
X73253600Y-84197019D02*
X73158362Y-84339876D01*
X73158362Y-84339876D02*
X73063124Y-84435114D01*
X73063124Y-84435114D02*
X72967886Y-84482733D01*
X142583333Y-110297000D02*
X142726190Y-110344619D01*
X142726190Y-110344619D02*
X142964285Y-110344619D01*
X142964285Y-110344619D02*
X143059523Y-110297000D01*
X143059523Y-110297000D02*
X143107142Y-110249380D01*
X143107142Y-110249380D02*
X143154761Y-110154142D01*
X143154761Y-110154142D02*
X143154761Y-110058904D01*
X143154761Y-110058904D02*
X143107142Y-109963666D01*
X143107142Y-109963666D02*
X143059523Y-109916047D01*
X143059523Y-109916047D02*
X142964285Y-109868428D01*
X142964285Y-109868428D02*
X142773809Y-109820809D01*
X142773809Y-109820809D02*
X142678571Y-109773190D01*
X142678571Y-109773190D02*
X142630952Y-109725571D01*
X142630952Y-109725571D02*
X142583333Y-109630333D01*
X142583333Y-109630333D02*
X142583333Y-109535095D01*
X142583333Y-109535095D02*
X142630952Y-109439857D01*
X142630952Y-109439857D02*
X142678571Y-109392238D01*
X142678571Y-109392238D02*
X142773809Y-109344619D01*
X142773809Y-109344619D02*
X143011904Y-109344619D01*
X143011904Y-109344619D02*
X143154761Y-109392238D01*
X143583333Y-109820809D02*
X143916666Y-109820809D01*
X144059523Y-110344619D02*
X143583333Y-110344619D01*
X143583333Y-110344619D02*
X143583333Y-109344619D01*
X143583333Y-109344619D02*
X144059523Y-109344619D01*
X145059523Y-110344619D02*
X144726190Y-109868428D01*
X144488095Y-110344619D02*
X144488095Y-109344619D01*
X144488095Y-109344619D02*
X144869047Y-109344619D01*
X144869047Y-109344619D02*
X144964285Y-109392238D01*
X144964285Y-109392238D02*
X145011904Y-109439857D01*
X145011904Y-109439857D02*
X145059523Y-109535095D01*
X145059523Y-109535095D02*
X145059523Y-109677952D01*
X145059523Y-109677952D02*
X145011904Y-109773190D01*
X145011904Y-109773190D02*
X144964285Y-109820809D01*
X144964285Y-109820809D02*
X144869047Y-109868428D01*
X144869047Y-109868428D02*
X144488095Y-109868428D01*
X145345238Y-109344619D02*
X145678571Y-110344619D01*
X145678571Y-110344619D02*
X146011904Y-109344619D01*
X142311667Y-65364619D02*
X142311667Y-64364619D01*
X143359285Y-65364619D02*
X143025952Y-64888428D01*
X142787857Y-65364619D02*
X142787857Y-64364619D01*
X142787857Y-64364619D02*
X143168809Y-64364619D01*
X143168809Y-64364619D02*
X143264047Y-64412238D01*
X143264047Y-64412238D02*
X143311666Y-64459857D01*
X143311666Y-64459857D02*
X143359285Y-64555095D01*
X143359285Y-64555095D02*
X143359285Y-64697952D01*
X143359285Y-64697952D02*
X143311666Y-64793190D01*
X143311666Y-64793190D02*
X143264047Y-64840809D01*
X143264047Y-64840809D02*
X143168809Y-64888428D01*
X143168809Y-64888428D02*
X142787857Y-64888428D01*
X144264047Y-65364619D02*
X143787857Y-65364619D01*
X143787857Y-65364619D02*
X143787857Y-64364619D01*
X144502143Y-64364619D02*
X145168809Y-64364619D01*
X145168809Y-64364619D02*
X144502143Y-65364619D01*
X144502143Y-65364619D02*
X145168809Y-65364619D01*
X146073571Y-65364619D02*
X145502143Y-65364619D01*
X145787857Y-65364619D02*
X145787857Y-64364619D01*
X145787857Y-64364619D02*
X145692619Y-64507476D01*
X145692619Y-64507476D02*
X145597381Y-64602714D01*
X145597381Y-64602714D02*
X145502143Y-64650333D01*
X146930714Y-64697952D02*
X146930714Y-65364619D01*
X146692619Y-64317000D02*
X146454524Y-65031285D01*
X146454524Y-65031285D02*
X147073571Y-65031285D01*
X72382190Y-131240952D02*
X72382190Y-131907619D01*
X72144095Y-130860000D02*
X71906000Y-131574285D01*
X71906000Y-131574285D02*
X72525047Y-131574285D01*
X72906000Y-131812380D02*
X72953619Y-131860000D01*
X72953619Y-131860000D02*
X72906000Y-131907619D01*
X72906000Y-131907619D02*
X72858381Y-131860000D01*
X72858381Y-131860000D02*
X72906000Y-131812380D01*
X72906000Y-131812380D02*
X72906000Y-131907619D01*
X73286952Y-130907619D02*
X73953618Y-130907619D01*
X73953618Y-130907619D02*
X73525047Y-131907619D01*
X74334571Y-131907619D02*
X74334571Y-130907619D01*
X74905999Y-131907619D02*
X74477428Y-131336190D01*
X74905999Y-130907619D02*
X74334571Y-131479047D01*
X94286580Y-141788219D02*
X93715152Y-141788219D01*
X94000866Y-141788219D02*
X94000866Y-140788219D01*
X94000866Y-140788219D02*
X93905628Y-140931076D01*
X93905628Y-140931076D02*
X93810390Y-141026314D01*
X93810390Y-141026314D02*
X93715152Y-141073933D01*
X94905628Y-140788219D02*
X95000866Y-140788219D01*
X95000866Y-140788219D02*
X95096104Y-140835838D01*
X95096104Y-140835838D02*
X95143723Y-140883457D01*
X95143723Y-140883457D02*
X95191342Y-140978695D01*
X95191342Y-140978695D02*
X95238961Y-141169171D01*
X95238961Y-141169171D02*
X95238961Y-141407266D01*
X95238961Y-141407266D02*
X95191342Y-141597742D01*
X95191342Y-141597742D02*
X95143723Y-141692980D01*
X95143723Y-141692980D02*
X95096104Y-141740600D01*
X95096104Y-141740600D02*
X95000866Y-141788219D01*
X95000866Y-141788219D02*
X94905628Y-141788219D01*
X94905628Y-141788219D02*
X94810390Y-141740600D01*
X94810390Y-141740600D02*
X94762771Y-141692980D01*
X94762771Y-141692980D02*
X94715152Y-141597742D01*
X94715152Y-141597742D02*
X94667533Y-141407266D01*
X94667533Y-141407266D02*
X94667533Y-141169171D01*
X94667533Y-141169171D02*
X94715152Y-140978695D01*
X94715152Y-140978695D02*
X94762771Y-140883457D01*
X94762771Y-140883457D02*
X94810390Y-140835838D01*
X94810390Y-140835838D02*
X94905628Y-140788219D01*
X95858009Y-140788219D02*
X95953247Y-140788219D01*
X95953247Y-140788219D02*
X96048485Y-140835838D01*
X96048485Y-140835838D02*
X96096104Y-140883457D01*
X96096104Y-140883457D02*
X96143723Y-140978695D01*
X96143723Y-140978695D02*
X96191342Y-141169171D01*
X96191342Y-141169171D02*
X96191342Y-141407266D01*
X96191342Y-141407266D02*
X96143723Y-141597742D01*
X96143723Y-141597742D02*
X96096104Y-141692980D01*
X96096104Y-141692980D02*
X96048485Y-141740600D01*
X96048485Y-141740600D02*
X95953247Y-141788219D01*
X95953247Y-141788219D02*
X95858009Y-141788219D01*
X95858009Y-141788219D02*
X95762771Y-141740600D01*
X95762771Y-141740600D02*
X95715152Y-141692980D01*
X95715152Y-141692980D02*
X95667533Y-141597742D01*
X95667533Y-141597742D02*
X95619914Y-141407266D01*
X95619914Y-141407266D02*
X95619914Y-141169171D01*
X95619914Y-141169171D02*
X95667533Y-140978695D01*
X95667533Y-140978695D02*
X95715152Y-140883457D01*
X95715152Y-140883457D02*
X95762771Y-140835838D01*
X95762771Y-140835838D02*
X95858009Y-140788219D01*
X96619914Y-141121552D02*
X96619914Y-141788219D01*
X96619914Y-141216790D02*
X96667533Y-141169171D01*
X96667533Y-141169171D02*
X96762771Y-141121552D01*
X96762771Y-141121552D02*
X96905628Y-141121552D01*
X96905628Y-141121552D02*
X97000866Y-141169171D01*
X97000866Y-141169171D02*
X97048485Y-141264409D01*
X97048485Y-141264409D02*
X97048485Y-141788219D01*
X97858009Y-141264409D02*
X97524676Y-141264409D01*
X97524676Y-141788219D02*
X97524676Y-140788219D01*
X97524676Y-140788219D02*
X98000866Y-140788219D01*
X143748238Y-84039619D02*
X143986333Y-85039619D01*
X143986333Y-85039619D02*
X144176809Y-84325333D01*
X144176809Y-84325333D02*
X144367285Y-85039619D01*
X144367285Y-85039619D02*
X144605381Y-84039619D01*
X145176809Y-84039619D02*
X145272047Y-84039619D01*
X145272047Y-84039619D02*
X145367285Y-84087238D01*
X145367285Y-84087238D02*
X145414904Y-84134857D01*
X145414904Y-84134857D02*
X145462523Y-84230095D01*
X145462523Y-84230095D02*
X145510142Y-84420571D01*
X145510142Y-84420571D02*
X145510142Y-84658666D01*
X145510142Y-84658666D02*
X145462523Y-84849142D01*
X145462523Y-84849142D02*
X145414904Y-84944380D01*
X145414904Y-84944380D02*
X145367285Y-84992000D01*
X145367285Y-84992000D02*
X145272047Y-85039619D01*
X145272047Y-85039619D02*
X145176809Y-85039619D01*
X145176809Y-85039619D02*
X145081571Y-84992000D01*
X145081571Y-84992000D02*
X145033952Y-84944380D01*
X145033952Y-84944380D02*
X144986333Y-84849142D01*
X144986333Y-84849142D02*
X144938714Y-84658666D01*
X144938714Y-84658666D02*
X144938714Y-84420571D01*
X144938714Y-84420571D02*
X144986333Y-84230095D01*
X144986333Y-84230095D02*
X145033952Y-84134857D01*
X145033952Y-84134857D02*
X145081571Y-84087238D01*
X145081571Y-84087238D02*
X145176809Y-84039619D01*
X71917085Y-98881019D02*
X71917085Y-99595304D01*
X71917085Y-99595304D02*
X71869466Y-99738161D01*
X71869466Y-99738161D02*
X71774228Y-99833400D01*
X71774228Y-99833400D02*
X71631371Y-99881019D01*
X71631371Y-99881019D02*
X71536133Y-99881019D01*
X72345657Y-99595304D02*
X72821847Y-99595304D01*
X72250419Y-99881019D02*
X72583752Y-98881019D01*
X72583752Y-98881019D02*
X72917085Y-99881019D01*
X73821847Y-99785780D02*
X73774228Y-99833400D01*
X73774228Y-99833400D02*
X73631371Y-99881019D01*
X73631371Y-99881019D02*
X73536133Y-99881019D01*
X73536133Y-99881019D02*
X73393276Y-99833400D01*
X73393276Y-99833400D02*
X73298038Y-99738161D01*
X73298038Y-99738161D02*
X73250419Y-99642923D01*
X73250419Y-99642923D02*
X73202800Y-99452447D01*
X73202800Y-99452447D02*
X73202800Y-99309590D01*
X73202800Y-99309590D02*
X73250419Y-99119114D01*
X73250419Y-99119114D02*
X73298038Y-99023876D01*
X73298038Y-99023876D02*
X73393276Y-98928638D01*
X73393276Y-98928638D02*
X73536133Y-98881019D01*
X73536133Y-98881019D02*
X73631371Y-98881019D01*
X73631371Y-98881019D02*
X73774228Y-98928638D01*
X73774228Y-98928638D02*
X73821847Y-98976257D01*
X74250419Y-99881019D02*
X74250419Y-98881019D01*
X74821847Y-99881019D02*
X74393276Y-99309590D01*
X74821847Y-98881019D02*
X74250419Y-99452447D01*
X73393276Y-100834352D02*
X73393276Y-101501019D01*
X73155181Y-100453400D02*
X72917086Y-101167685D01*
X72917086Y-101167685D02*
X73536133Y-101167685D01*
X143789495Y-137662238D02*
X143694257Y-137614619D01*
X143694257Y-137614619D02*
X143551400Y-137614619D01*
X143551400Y-137614619D02*
X143408543Y-137662238D01*
X143408543Y-137662238D02*
X143313305Y-137757476D01*
X143313305Y-137757476D02*
X143265686Y-137852714D01*
X143265686Y-137852714D02*
X143218067Y-138043190D01*
X143218067Y-138043190D02*
X143218067Y-138186047D01*
X143218067Y-138186047D02*
X143265686Y-138376523D01*
X143265686Y-138376523D02*
X143313305Y-138471761D01*
X143313305Y-138471761D02*
X143408543Y-138567000D01*
X143408543Y-138567000D02*
X143551400Y-138614619D01*
X143551400Y-138614619D02*
X143646638Y-138614619D01*
X143646638Y-138614619D02*
X143789495Y-138567000D01*
X143789495Y-138567000D02*
X143837114Y-138519380D01*
X143837114Y-138519380D02*
X143837114Y-138186047D01*
X143837114Y-138186047D02*
X143646638Y-138186047D01*
X144265686Y-138614619D02*
X144265686Y-137614619D01*
X144265686Y-137614619D02*
X144837114Y-138614619D01*
X144837114Y-138614619D02*
X144837114Y-137614619D01*
X145313305Y-138614619D02*
X145313305Y-137614619D01*
X145313305Y-137614619D02*
X145551400Y-137614619D01*
X145551400Y-137614619D02*
X145694257Y-137662238D01*
X145694257Y-137662238D02*
X145789495Y-137757476D01*
X145789495Y-137757476D02*
X145837114Y-137852714D01*
X145837114Y-137852714D02*
X145884733Y-138043190D01*
X145884733Y-138043190D02*
X145884733Y-138186047D01*
X145884733Y-138186047D02*
X145837114Y-138376523D01*
X145837114Y-138376523D02*
X145789495Y-138471761D01*
X145789495Y-138471761D02*
X145694257Y-138567000D01*
X145694257Y-138567000D02*
X145551400Y-138614619D01*
X145551400Y-138614619D02*
X145313305Y-138614619D01*
X123882380Y-133267810D02*
X124882380Y-133267810D01*
X124882380Y-133934476D02*
X124882380Y-134124952D01*
X124882380Y-134124952D02*
X124834761Y-134220190D01*
X124834761Y-134220190D02*
X124739523Y-134315428D01*
X124739523Y-134315428D02*
X124549047Y-134363047D01*
X124549047Y-134363047D02*
X124215714Y-134363047D01*
X124215714Y-134363047D02*
X124025238Y-134315428D01*
X124025238Y-134315428D02*
X123930000Y-134220190D01*
X123930000Y-134220190D02*
X123882380Y-134124952D01*
X123882380Y-134124952D02*
X123882380Y-133934476D01*
X123882380Y-133934476D02*
X123930000Y-133839238D01*
X123930000Y-133839238D02*
X124025238Y-133744000D01*
X124025238Y-133744000D02*
X124215714Y-133696381D01*
X124215714Y-133696381D02*
X124549047Y-133696381D01*
X124549047Y-133696381D02*
X124739523Y-133744000D01*
X124739523Y-133744000D02*
X124834761Y-133839238D01*
X124834761Y-133839238D02*
X124882380Y-133934476D01*
X123882380Y-135315428D02*
X123882380Y-134744000D01*
X123882380Y-135029714D02*
X124882380Y-135029714D01*
X124882380Y-135029714D02*
X124739523Y-134934476D01*
X124739523Y-134934476D02*
X124644285Y-134839238D01*
X124644285Y-134839238D02*
X124596666Y-134744000D01*
X123882380Y-135791619D02*
X123882380Y-135982095D01*
X123882380Y-135982095D02*
X123930000Y-136077333D01*
X123930000Y-136077333D02*
X123977619Y-136124952D01*
X123977619Y-136124952D02*
X124120476Y-136220190D01*
X124120476Y-136220190D02*
X124310952Y-136267809D01*
X124310952Y-136267809D02*
X124691904Y-136267809D01*
X124691904Y-136267809D02*
X124787142Y-136220190D01*
X124787142Y-136220190D02*
X124834761Y-136172571D01*
X124834761Y-136172571D02*
X124882380Y-136077333D01*
X124882380Y-136077333D02*
X124882380Y-135886857D01*
X124882380Y-135886857D02*
X124834761Y-135791619D01*
X124834761Y-135791619D02*
X124787142Y-135744000D01*
X124787142Y-135744000D02*
X124691904Y-135696381D01*
X124691904Y-135696381D02*
X124453809Y-135696381D01*
X124453809Y-135696381D02*
X124358571Y-135744000D01*
X124358571Y-135744000D02*
X124310952Y-135791619D01*
X124310952Y-135791619D02*
X124263333Y-135886857D01*
X124263333Y-135886857D02*
X124263333Y-136077333D01*
X124263333Y-136077333D02*
X124310952Y-136172571D01*
X124310952Y-136172571D02*
X124358571Y-136220190D01*
X124358571Y-136220190D02*
X124453809Y-136267809D01*
X131132380Y-133267810D02*
X132132380Y-133267810D01*
X132132380Y-133934476D02*
X132132380Y-134124952D01*
X132132380Y-134124952D02*
X132084761Y-134220190D01*
X132084761Y-134220190D02*
X131989523Y-134315428D01*
X131989523Y-134315428D02*
X131799047Y-134363047D01*
X131799047Y-134363047D02*
X131465714Y-134363047D01*
X131465714Y-134363047D02*
X131275238Y-134315428D01*
X131275238Y-134315428D02*
X131180000Y-134220190D01*
X131180000Y-134220190D02*
X131132380Y-134124952D01*
X131132380Y-134124952D02*
X131132380Y-133934476D01*
X131132380Y-133934476D02*
X131180000Y-133839238D01*
X131180000Y-133839238D02*
X131275238Y-133744000D01*
X131275238Y-133744000D02*
X131465714Y-133696381D01*
X131465714Y-133696381D02*
X131799047Y-133696381D01*
X131799047Y-133696381D02*
X131989523Y-133744000D01*
X131989523Y-133744000D02*
X132084761Y-133839238D01*
X132084761Y-133839238D02*
X132132380Y-133934476D01*
X132037142Y-134744000D02*
X132084761Y-134791619D01*
X132084761Y-134791619D02*
X132132380Y-134886857D01*
X132132380Y-134886857D02*
X132132380Y-135124952D01*
X132132380Y-135124952D02*
X132084761Y-135220190D01*
X132084761Y-135220190D02*
X132037142Y-135267809D01*
X132037142Y-135267809D02*
X131941904Y-135315428D01*
X131941904Y-135315428D02*
X131846666Y-135315428D01*
X131846666Y-135315428D02*
X131703809Y-135267809D01*
X131703809Y-135267809D02*
X131132380Y-134696381D01*
X131132380Y-134696381D02*
X131132380Y-135315428D01*
X131132380Y-136267809D02*
X131132380Y-135696381D01*
X131132380Y-135982095D02*
X132132380Y-135982095D01*
X132132380Y-135982095D02*
X131989523Y-135886857D01*
X131989523Y-135886857D02*
X131894285Y-135791619D01*
X131894285Y-135791619D02*
X131846666Y-135696381D01*
X71942485Y-61009619D02*
X71942485Y-61723904D01*
X71942485Y-61723904D02*
X71894866Y-61866761D01*
X71894866Y-61866761D02*
X71799628Y-61962000D01*
X71799628Y-61962000D02*
X71656771Y-62009619D01*
X71656771Y-62009619D02*
X71561533Y-62009619D01*
X72371057Y-61723904D02*
X72847247Y-61723904D01*
X72275819Y-62009619D02*
X72609152Y-61009619D01*
X72609152Y-61009619D02*
X72942485Y-62009619D01*
X73847247Y-61914380D02*
X73799628Y-61962000D01*
X73799628Y-61962000D02*
X73656771Y-62009619D01*
X73656771Y-62009619D02*
X73561533Y-62009619D01*
X73561533Y-62009619D02*
X73418676Y-61962000D01*
X73418676Y-61962000D02*
X73323438Y-61866761D01*
X73323438Y-61866761D02*
X73275819Y-61771523D01*
X73275819Y-61771523D02*
X73228200Y-61581047D01*
X73228200Y-61581047D02*
X73228200Y-61438190D01*
X73228200Y-61438190D02*
X73275819Y-61247714D01*
X73275819Y-61247714D02*
X73323438Y-61152476D01*
X73323438Y-61152476D02*
X73418676Y-61057238D01*
X73418676Y-61057238D02*
X73561533Y-61009619D01*
X73561533Y-61009619D02*
X73656771Y-61009619D01*
X73656771Y-61009619D02*
X73799628Y-61057238D01*
X73799628Y-61057238D02*
X73847247Y-61104857D01*
X74275819Y-62009619D02*
X74275819Y-61009619D01*
X74847247Y-62009619D02*
X74418676Y-61438190D01*
X74847247Y-61009619D02*
X74275819Y-61581047D01*
X72942486Y-62724857D02*
X72990105Y-62677238D01*
X72990105Y-62677238D02*
X73085343Y-62629619D01*
X73085343Y-62629619D02*
X73323438Y-62629619D01*
X73323438Y-62629619D02*
X73418676Y-62677238D01*
X73418676Y-62677238D02*
X73466295Y-62724857D01*
X73466295Y-62724857D02*
X73513914Y-62820095D01*
X73513914Y-62820095D02*
X73513914Y-62915333D01*
X73513914Y-62915333D02*
X73466295Y-63058190D01*
X73466295Y-63058190D02*
X72894867Y-63629619D01*
X72894867Y-63629619D02*
X73513914Y-63629619D01*
X145857619Y-51425809D02*
X145857619Y-51901999D01*
X145857619Y-51901999D02*
X144857619Y-51901999D01*
X145571904Y-51140094D02*
X145571904Y-50663904D01*
X145857619Y-51235332D02*
X144857619Y-50901999D01*
X144857619Y-50901999D02*
X145857619Y-50568666D01*
X144857619Y-50378189D02*
X144857619Y-49806761D01*
X145857619Y-50092475D02*
X144857619Y-50092475D01*
X145762380Y-48901999D02*
X145810000Y-48949618D01*
X145810000Y-48949618D02*
X145857619Y-49092475D01*
X145857619Y-49092475D02*
X145857619Y-49187713D01*
X145857619Y-49187713D02*
X145810000Y-49330570D01*
X145810000Y-49330570D02*
X145714761Y-49425808D01*
X145714761Y-49425808D02*
X145619523Y-49473427D01*
X145619523Y-49473427D02*
X145429047Y-49521046D01*
X145429047Y-49521046D02*
X145286190Y-49521046D01*
X145286190Y-49521046D02*
X145095714Y-49473427D01*
X145095714Y-49473427D02*
X145000476Y-49425808D01*
X145000476Y-49425808D02*
X144905238Y-49330570D01*
X144905238Y-49330570D02*
X144857619Y-49187713D01*
X144857619Y-49187713D02*
X144857619Y-49092475D01*
X144857619Y-49092475D02*
X144905238Y-48949618D01*
X144905238Y-48949618D02*
X144952857Y-48901999D01*
X145857619Y-48473427D02*
X144857619Y-48473427D01*
X145333809Y-48473427D02*
X145333809Y-47901999D01*
X145857619Y-47901999D02*
X144857619Y-47901999D01*
X127382380Y-133267810D02*
X128382380Y-133267810D01*
X128382380Y-133934476D02*
X128382380Y-134124952D01*
X128382380Y-134124952D02*
X128334761Y-134220190D01*
X128334761Y-134220190D02*
X128239523Y-134315428D01*
X128239523Y-134315428D02*
X128049047Y-134363047D01*
X128049047Y-134363047D02*
X127715714Y-134363047D01*
X127715714Y-134363047D02*
X127525238Y-134315428D01*
X127525238Y-134315428D02*
X127430000Y-134220190D01*
X127430000Y-134220190D02*
X127382380Y-134124952D01*
X127382380Y-134124952D02*
X127382380Y-133934476D01*
X127382380Y-133934476D02*
X127430000Y-133839238D01*
X127430000Y-133839238D02*
X127525238Y-133744000D01*
X127525238Y-133744000D02*
X127715714Y-133696381D01*
X127715714Y-133696381D02*
X128049047Y-133696381D01*
X128049047Y-133696381D02*
X128239523Y-133744000D01*
X128239523Y-133744000D02*
X128334761Y-133839238D01*
X128334761Y-133839238D02*
X128382380Y-133934476D01*
X128287142Y-134744000D02*
X128334761Y-134791619D01*
X128334761Y-134791619D02*
X128382380Y-134886857D01*
X128382380Y-134886857D02*
X128382380Y-135124952D01*
X128382380Y-135124952D02*
X128334761Y-135220190D01*
X128334761Y-135220190D02*
X128287142Y-135267809D01*
X128287142Y-135267809D02*
X128191904Y-135315428D01*
X128191904Y-135315428D02*
X128096666Y-135315428D01*
X128096666Y-135315428D02*
X127953809Y-135267809D01*
X127953809Y-135267809D02*
X127382380Y-134696381D01*
X127382380Y-134696381D02*
X127382380Y-135315428D01*
X128382380Y-136172571D02*
X128382380Y-135982095D01*
X128382380Y-135982095D02*
X128334761Y-135886857D01*
X128334761Y-135886857D02*
X128287142Y-135839238D01*
X128287142Y-135839238D02*
X128144285Y-135744000D01*
X128144285Y-135744000D02*
X127953809Y-135696381D01*
X127953809Y-135696381D02*
X127572857Y-135696381D01*
X127572857Y-135696381D02*
X127477619Y-135744000D01*
X127477619Y-135744000D02*
X127430000Y-135791619D01*
X127430000Y-135791619D02*
X127382380Y-135886857D01*
X127382380Y-135886857D02*
X127382380Y-136077333D01*
X127382380Y-136077333D02*
X127430000Y-136172571D01*
X127430000Y-136172571D02*
X127477619Y-136220190D01*
X127477619Y-136220190D02*
X127572857Y-136267809D01*
X127572857Y-136267809D02*
X127810952Y-136267809D01*
X127810952Y-136267809D02*
X127906190Y-136220190D01*
X127906190Y-136220190D02*
X127953809Y-136172571D01*
X127953809Y-136172571D02*
X128001428Y-136077333D01*
X128001428Y-136077333D02*
X128001428Y-135886857D01*
X128001428Y-135886857D02*
X127953809Y-135791619D01*
X127953809Y-135791619D02*
X127906190Y-135744000D01*
X127906190Y-135744000D02*
X127810952Y-135696381D01*
X82678780Y-71481019D02*
X82107352Y-71481019D01*
X82393066Y-71481019D02*
X82393066Y-70481019D01*
X82393066Y-70481019D02*
X82297828Y-70623876D01*
X82297828Y-70623876D02*
X82202590Y-70719114D01*
X82202590Y-70719114D02*
X82107352Y-70766733D01*
X83297828Y-70481019D02*
X83393066Y-70481019D01*
X83393066Y-70481019D02*
X83488304Y-70528638D01*
X83488304Y-70528638D02*
X83535923Y-70576257D01*
X83535923Y-70576257D02*
X83583542Y-70671495D01*
X83583542Y-70671495D02*
X83631161Y-70861971D01*
X83631161Y-70861971D02*
X83631161Y-71100066D01*
X83631161Y-71100066D02*
X83583542Y-71290542D01*
X83583542Y-71290542D02*
X83535923Y-71385780D01*
X83535923Y-71385780D02*
X83488304Y-71433400D01*
X83488304Y-71433400D02*
X83393066Y-71481019D01*
X83393066Y-71481019D02*
X83297828Y-71481019D01*
X83297828Y-71481019D02*
X83202590Y-71433400D01*
X83202590Y-71433400D02*
X83154971Y-71385780D01*
X83154971Y-71385780D02*
X83107352Y-71290542D01*
X83107352Y-71290542D02*
X83059733Y-71100066D01*
X83059733Y-71100066D02*
X83059733Y-70861971D01*
X83059733Y-70861971D02*
X83107352Y-70671495D01*
X83107352Y-70671495D02*
X83154971Y-70576257D01*
X83154971Y-70576257D02*
X83202590Y-70528638D01*
X83202590Y-70528638D02*
X83297828Y-70481019D01*
X84250209Y-70481019D02*
X84345447Y-70481019D01*
X84345447Y-70481019D02*
X84440685Y-70528638D01*
X84440685Y-70528638D02*
X84488304Y-70576257D01*
X84488304Y-70576257D02*
X84535923Y-70671495D01*
X84535923Y-70671495D02*
X84583542Y-70861971D01*
X84583542Y-70861971D02*
X84583542Y-71100066D01*
X84583542Y-71100066D02*
X84535923Y-71290542D01*
X84535923Y-71290542D02*
X84488304Y-71385780D01*
X84488304Y-71385780D02*
X84440685Y-71433400D01*
X84440685Y-71433400D02*
X84345447Y-71481019D01*
X84345447Y-71481019D02*
X84250209Y-71481019D01*
X84250209Y-71481019D02*
X84154971Y-71433400D01*
X84154971Y-71433400D02*
X84107352Y-71385780D01*
X84107352Y-71385780D02*
X84059733Y-71290542D01*
X84059733Y-71290542D02*
X84012114Y-71100066D01*
X84012114Y-71100066D02*
X84012114Y-70861971D01*
X84012114Y-70861971D02*
X84059733Y-70671495D01*
X84059733Y-70671495D02*
X84107352Y-70576257D01*
X84107352Y-70576257D02*
X84154971Y-70528638D01*
X84154971Y-70528638D02*
X84250209Y-70481019D01*
X85012114Y-70814352D02*
X85012114Y-71481019D01*
X85012114Y-70909590D02*
X85059733Y-70861971D01*
X85059733Y-70861971D02*
X85154971Y-70814352D01*
X85154971Y-70814352D02*
X85297828Y-70814352D01*
X85297828Y-70814352D02*
X85393066Y-70861971D01*
X85393066Y-70861971D02*
X85440685Y-70957209D01*
X85440685Y-70957209D02*
X85440685Y-71481019D01*
X86250209Y-70957209D02*
X85916876Y-70957209D01*
X85916876Y-71481019D02*
X85916876Y-70481019D01*
X85916876Y-70481019D02*
X86393066Y-70481019D01*
X114530380Y-104424819D02*
X113958952Y-104424819D01*
X114244666Y-104424819D02*
X114244666Y-103424819D01*
X114244666Y-103424819D02*
X114149428Y-103567676D01*
X114149428Y-103567676D02*
X114054190Y-103662914D01*
X114054190Y-103662914D02*
X113958952Y-103710533D01*
X115149428Y-103424819D02*
X115244666Y-103424819D01*
X115244666Y-103424819D02*
X115339904Y-103472438D01*
X115339904Y-103472438D02*
X115387523Y-103520057D01*
X115387523Y-103520057D02*
X115435142Y-103615295D01*
X115435142Y-103615295D02*
X115482761Y-103805771D01*
X115482761Y-103805771D02*
X115482761Y-104043866D01*
X115482761Y-104043866D02*
X115435142Y-104234342D01*
X115435142Y-104234342D02*
X115387523Y-104329580D01*
X115387523Y-104329580D02*
X115339904Y-104377200D01*
X115339904Y-104377200D02*
X115244666Y-104424819D01*
X115244666Y-104424819D02*
X115149428Y-104424819D01*
X115149428Y-104424819D02*
X115054190Y-104377200D01*
X115054190Y-104377200D02*
X115006571Y-104329580D01*
X115006571Y-104329580D02*
X114958952Y-104234342D01*
X114958952Y-104234342D02*
X114911333Y-104043866D01*
X114911333Y-104043866D02*
X114911333Y-103805771D01*
X114911333Y-103805771D02*
X114958952Y-103615295D01*
X114958952Y-103615295D02*
X115006571Y-103520057D01*
X115006571Y-103520057D02*
X115054190Y-103472438D01*
X115054190Y-103472438D02*
X115149428Y-103424819D01*
X116101809Y-103424819D02*
X116197047Y-103424819D01*
X116197047Y-103424819D02*
X116292285Y-103472438D01*
X116292285Y-103472438D02*
X116339904Y-103520057D01*
X116339904Y-103520057D02*
X116387523Y-103615295D01*
X116387523Y-103615295D02*
X116435142Y-103805771D01*
X116435142Y-103805771D02*
X116435142Y-104043866D01*
X116435142Y-104043866D02*
X116387523Y-104234342D01*
X116387523Y-104234342D02*
X116339904Y-104329580D01*
X116339904Y-104329580D02*
X116292285Y-104377200D01*
X116292285Y-104377200D02*
X116197047Y-104424819D01*
X116197047Y-104424819D02*
X116101809Y-104424819D01*
X116101809Y-104424819D02*
X116006571Y-104377200D01*
X116006571Y-104377200D02*
X115958952Y-104329580D01*
X115958952Y-104329580D02*
X115911333Y-104234342D01*
X115911333Y-104234342D02*
X115863714Y-104043866D01*
X115863714Y-104043866D02*
X115863714Y-103805771D01*
X115863714Y-103805771D02*
X115911333Y-103615295D01*
X115911333Y-103615295D02*
X115958952Y-103520057D01*
X115958952Y-103520057D02*
X116006571Y-103472438D01*
X116006571Y-103472438D02*
X116101809Y-103424819D01*
X116863714Y-103758152D02*
X116863714Y-104424819D01*
X116863714Y-103853390D02*
X116911333Y-103805771D01*
X116911333Y-103805771D02*
X117006571Y-103758152D01*
X117006571Y-103758152D02*
X117149428Y-103758152D01*
X117149428Y-103758152D02*
X117244666Y-103805771D01*
X117244666Y-103805771D02*
X117292285Y-103901009D01*
X117292285Y-103901009D02*
X117292285Y-104424819D01*
X118101809Y-103901009D02*
X117768476Y-103901009D01*
X117768476Y-104424819D02*
X117768476Y-103424819D01*
X117768476Y-103424819D02*
X118244666Y-103424819D01*
X143416667Y-116368619D02*
X144035714Y-116368619D01*
X144035714Y-116368619D02*
X143702381Y-116749571D01*
X143702381Y-116749571D02*
X143845238Y-116749571D01*
X143845238Y-116749571D02*
X143940476Y-116797190D01*
X143940476Y-116797190D02*
X143988095Y-116844809D01*
X143988095Y-116844809D02*
X144035714Y-116940047D01*
X144035714Y-116940047D02*
X144035714Y-117178142D01*
X144035714Y-117178142D02*
X143988095Y-117273380D01*
X143988095Y-117273380D02*
X143940476Y-117321000D01*
X143940476Y-117321000D02*
X143845238Y-117368619D01*
X143845238Y-117368619D02*
X143559524Y-117368619D01*
X143559524Y-117368619D02*
X143464286Y-117321000D01*
X143464286Y-117321000D02*
X143416667Y-117273380D01*
X145035714Y-117368619D02*
X144702381Y-116892428D01*
X144464286Y-117368619D02*
X144464286Y-116368619D01*
X144464286Y-116368619D02*
X144845238Y-116368619D01*
X144845238Y-116368619D02*
X144940476Y-116416238D01*
X144940476Y-116416238D02*
X144988095Y-116463857D01*
X144988095Y-116463857D02*
X145035714Y-116559095D01*
X145035714Y-116559095D02*
X145035714Y-116701952D01*
X145035714Y-116701952D02*
X144988095Y-116797190D01*
X144988095Y-116797190D02*
X144940476Y-116844809D01*
X144940476Y-116844809D02*
X144845238Y-116892428D01*
X144845238Y-116892428D02*
X144464286Y-116892428D01*
X145464286Y-117368619D02*
X145464286Y-116368619D01*
X145464286Y-116368619D02*
X145702381Y-116368619D01*
X145702381Y-116368619D02*
X145845238Y-116416238D01*
X145845238Y-116416238D02*
X145940476Y-116511476D01*
X145940476Y-116511476D02*
X145988095Y-116606714D01*
X145988095Y-116606714D02*
X146035714Y-116797190D01*
X146035714Y-116797190D02*
X146035714Y-116940047D01*
X146035714Y-116940047D02*
X145988095Y-117130523D01*
X145988095Y-117130523D02*
X145940476Y-117225761D01*
X145940476Y-117225761D02*
X145845238Y-117321000D01*
X145845238Y-117321000D02*
X145702381Y-117368619D01*
X145702381Y-117368619D02*
X145464286Y-117368619D01*
X141648714Y-130744619D02*
X141648714Y-129744619D01*
X141648714Y-129744619D02*
X142029666Y-129744619D01*
X142029666Y-129744619D02*
X142124904Y-129792238D01*
X142124904Y-129792238D02*
X142172523Y-129839857D01*
X142172523Y-129839857D02*
X142220142Y-129935095D01*
X142220142Y-129935095D02*
X142220142Y-130077952D01*
X142220142Y-130077952D02*
X142172523Y-130173190D01*
X142172523Y-130173190D02*
X142124904Y-130220809D01*
X142124904Y-130220809D02*
X142029666Y-130268428D01*
X142029666Y-130268428D02*
X141648714Y-130268428D01*
X142648714Y-130744619D02*
X142648714Y-129744619D01*
X142648714Y-130220809D02*
X143220142Y-130220809D01*
X143220142Y-130744619D02*
X143220142Y-129744619D01*
X143886809Y-129744619D02*
X144077285Y-129744619D01*
X144077285Y-129744619D02*
X144172523Y-129792238D01*
X144172523Y-129792238D02*
X144267761Y-129887476D01*
X144267761Y-129887476D02*
X144315380Y-130077952D01*
X144315380Y-130077952D02*
X144315380Y-130411285D01*
X144315380Y-130411285D02*
X144267761Y-130601761D01*
X144267761Y-130601761D02*
X144172523Y-130697000D01*
X144172523Y-130697000D02*
X144077285Y-130744619D01*
X144077285Y-130744619D02*
X143886809Y-130744619D01*
X143886809Y-130744619D02*
X143791571Y-130697000D01*
X143791571Y-130697000D02*
X143696333Y-130601761D01*
X143696333Y-130601761D02*
X143648714Y-130411285D01*
X143648714Y-130411285D02*
X143648714Y-130077952D01*
X143648714Y-130077952D02*
X143696333Y-129887476D01*
X143696333Y-129887476D02*
X143791571Y-129792238D01*
X143791571Y-129792238D02*
X143886809Y-129744619D01*
X144601095Y-129744619D02*
X145172523Y-129744619D01*
X144886809Y-130744619D02*
X144886809Y-129744619D01*
X145696333Y-129744619D02*
X145886809Y-129744619D01*
X145886809Y-129744619D02*
X145982047Y-129792238D01*
X145982047Y-129792238D02*
X146077285Y-129887476D01*
X146077285Y-129887476D02*
X146124904Y-130077952D01*
X146124904Y-130077952D02*
X146124904Y-130411285D01*
X146124904Y-130411285D02*
X146077285Y-130601761D01*
X146077285Y-130601761D02*
X145982047Y-130697000D01*
X145982047Y-130697000D02*
X145886809Y-130744619D01*
X145886809Y-130744619D02*
X145696333Y-130744619D01*
X145696333Y-130744619D02*
X145601095Y-130697000D01*
X145601095Y-130697000D02*
X145505857Y-130601761D01*
X145505857Y-130601761D02*
X145458238Y-130411285D01*
X145458238Y-130411285D02*
X145458238Y-130077952D01*
X145458238Y-130077952D02*
X145505857Y-129887476D01*
X145505857Y-129887476D02*
X145601095Y-129792238D01*
X145601095Y-129792238D02*
X145696333Y-129744619D01*
X144954523Y-134114619D02*
X144478333Y-134114619D01*
X144478333Y-134114619D02*
X144430714Y-134590809D01*
X144430714Y-134590809D02*
X144478333Y-134543190D01*
X144478333Y-134543190D02*
X144573571Y-134495571D01*
X144573571Y-134495571D02*
X144811666Y-134495571D01*
X144811666Y-134495571D02*
X144906904Y-134543190D01*
X144906904Y-134543190D02*
X144954523Y-134590809D01*
X144954523Y-134590809D02*
X145002142Y-134686047D01*
X145002142Y-134686047D02*
X145002142Y-134924142D01*
X145002142Y-134924142D02*
X144954523Y-135019380D01*
X144954523Y-135019380D02*
X144906904Y-135067000D01*
X144906904Y-135067000D02*
X144811666Y-135114619D01*
X144811666Y-135114619D02*
X144573571Y-135114619D01*
X144573571Y-135114619D02*
X144478333Y-135067000D01*
X144478333Y-135067000D02*
X144430714Y-135019380D01*
X145287857Y-134114619D02*
X145621190Y-135114619D01*
X145621190Y-135114619D02*
X145954523Y-134114619D01*
X71840885Y-112597019D02*
X71840885Y-113311304D01*
X71840885Y-113311304D02*
X71793266Y-113454161D01*
X71793266Y-113454161D02*
X71698028Y-113549400D01*
X71698028Y-113549400D02*
X71555171Y-113597019D01*
X71555171Y-113597019D02*
X71459933Y-113597019D01*
X72269457Y-113311304D02*
X72745647Y-113311304D01*
X72174219Y-113597019D02*
X72507552Y-112597019D01*
X72507552Y-112597019D02*
X72840885Y-113597019D01*
X73745647Y-113501780D02*
X73698028Y-113549400D01*
X73698028Y-113549400D02*
X73555171Y-113597019D01*
X73555171Y-113597019D02*
X73459933Y-113597019D01*
X73459933Y-113597019D02*
X73317076Y-113549400D01*
X73317076Y-113549400D02*
X73221838Y-113454161D01*
X73221838Y-113454161D02*
X73174219Y-113358923D01*
X73174219Y-113358923D02*
X73126600Y-113168447D01*
X73126600Y-113168447D02*
X73126600Y-113025590D01*
X73126600Y-113025590D02*
X73174219Y-112835114D01*
X73174219Y-112835114D02*
X73221838Y-112739876D01*
X73221838Y-112739876D02*
X73317076Y-112644638D01*
X73317076Y-112644638D02*
X73459933Y-112597019D01*
X73459933Y-112597019D02*
X73555171Y-112597019D01*
X73555171Y-112597019D02*
X73698028Y-112644638D01*
X73698028Y-112644638D02*
X73745647Y-112692257D01*
X74174219Y-113597019D02*
X74174219Y-112597019D01*
X74745647Y-113597019D02*
X74317076Y-113025590D01*
X74745647Y-112597019D02*
X74174219Y-113168447D01*
X72793267Y-114217019D02*
X73412314Y-114217019D01*
X73412314Y-114217019D02*
X73078981Y-114597971D01*
X73078981Y-114597971D02*
X73221838Y-114597971D01*
X73221838Y-114597971D02*
X73317076Y-114645590D01*
X73317076Y-114645590D02*
X73364695Y-114693209D01*
X73364695Y-114693209D02*
X73412314Y-114788447D01*
X73412314Y-114788447D02*
X73412314Y-115026542D01*
X73412314Y-115026542D02*
X73364695Y-115121780D01*
X73364695Y-115121780D02*
X73317076Y-115169400D01*
X73317076Y-115169400D02*
X73221838Y-115217019D01*
X73221838Y-115217019D02*
X72936124Y-115217019D01*
X72936124Y-115217019D02*
X72840886Y-115169400D01*
X72840886Y-115169400D02*
X72793267Y-115121780D01*
D11*
%TO.C,Q1*%
X159302857Y-62997238D02*
X159255238Y-63092476D01*
X159255238Y-63092476D02*
X159160000Y-63187714D01*
X159160000Y-63187714D02*
X159017142Y-63330571D01*
X159017142Y-63330571D02*
X158969523Y-63425809D01*
X158969523Y-63425809D02*
X158969523Y-63521047D01*
X159207619Y-63473428D02*
X159160000Y-63568666D01*
X159160000Y-63568666D02*
X159064761Y-63663904D01*
X159064761Y-63663904D02*
X158874285Y-63711523D01*
X158874285Y-63711523D02*
X158540952Y-63711523D01*
X158540952Y-63711523D02*
X158350476Y-63663904D01*
X158350476Y-63663904D02*
X158255238Y-63568666D01*
X158255238Y-63568666D02*
X158207619Y-63473428D01*
X158207619Y-63473428D02*
X158207619Y-63282952D01*
X158207619Y-63282952D02*
X158255238Y-63187714D01*
X158255238Y-63187714D02*
X158350476Y-63092476D01*
X158350476Y-63092476D02*
X158540952Y-63044857D01*
X158540952Y-63044857D02*
X158874285Y-63044857D01*
X158874285Y-63044857D02*
X159064761Y-63092476D01*
X159064761Y-63092476D02*
X159160000Y-63187714D01*
X159160000Y-63187714D02*
X159207619Y-63282952D01*
X159207619Y-63282952D02*
X159207619Y-63473428D01*
X159207619Y-62092476D02*
X159207619Y-62663904D01*
X159207619Y-62378190D02*
X158207619Y-62378190D01*
X158207619Y-62378190D02*
X158350476Y-62473428D01*
X158350476Y-62473428D02*
X158445714Y-62568666D01*
X158445714Y-62568666D02*
X158493333Y-62663904D01*
%TO.C,U2*%
X87376095Y-105764619D02*
X87376095Y-106574142D01*
X87376095Y-106574142D02*
X87423714Y-106669380D01*
X87423714Y-106669380D02*
X87471333Y-106717000D01*
X87471333Y-106717000D02*
X87566571Y-106764619D01*
X87566571Y-106764619D02*
X87757047Y-106764619D01*
X87757047Y-106764619D02*
X87852285Y-106717000D01*
X87852285Y-106717000D02*
X87899904Y-106669380D01*
X87899904Y-106669380D02*
X87947523Y-106574142D01*
X87947523Y-106574142D02*
X87947523Y-105764619D01*
X88376095Y-105859857D02*
X88423714Y-105812238D01*
X88423714Y-105812238D02*
X88518952Y-105764619D01*
X88518952Y-105764619D02*
X88757047Y-105764619D01*
X88757047Y-105764619D02*
X88852285Y-105812238D01*
X88852285Y-105812238D02*
X88899904Y-105859857D01*
X88899904Y-105859857D02*
X88947523Y-105955095D01*
X88947523Y-105955095D02*
X88947523Y-106050333D01*
X88947523Y-106050333D02*
X88899904Y-106193190D01*
X88899904Y-106193190D02*
X88328476Y-106764619D01*
X88328476Y-106764619D02*
X88947523Y-106764619D01*
%TO.C,J2*%
X66091025Y-89915333D02*
X66805310Y-89915333D01*
X66805310Y-89915333D02*
X66948167Y-89962952D01*
X66948167Y-89962952D02*
X67043406Y-90058190D01*
X67043406Y-90058190D02*
X67091025Y-90201047D01*
X67091025Y-90201047D02*
X67091025Y-90296285D01*
X66186263Y-89486761D02*
X66138644Y-89439142D01*
X66138644Y-89439142D02*
X66091025Y-89343904D01*
X66091025Y-89343904D02*
X66091025Y-89105809D01*
X66091025Y-89105809D02*
X66138644Y-89010571D01*
X66138644Y-89010571D02*
X66186263Y-88962952D01*
X66186263Y-88962952D02*
X66281501Y-88915333D01*
X66281501Y-88915333D02*
X66376739Y-88915333D01*
X66376739Y-88915333D02*
X66519596Y-88962952D01*
X66519596Y-88962952D02*
X67091025Y-89534380D01*
X67091025Y-89534380D02*
X67091025Y-88915333D01*
X63851619Y-62610999D02*
X64089714Y-62610999D01*
X63994476Y-62849094D02*
X64089714Y-62610999D01*
X64089714Y-62610999D02*
X63994476Y-62372904D01*
X64280190Y-62753856D02*
X64089714Y-62610999D01*
X64089714Y-62610999D02*
X64280190Y-62468142D01*
%TO.C,H6*%
X53187695Y-50763019D02*
X53187695Y-49763019D01*
X53187695Y-50239209D02*
X53759123Y-50239209D01*
X53759123Y-50763019D02*
X53759123Y-49763019D01*
X54663885Y-49763019D02*
X54473409Y-49763019D01*
X54473409Y-49763019D02*
X54378171Y-49810638D01*
X54378171Y-49810638D02*
X54330552Y-49858257D01*
X54330552Y-49858257D02*
X54235314Y-50001114D01*
X54235314Y-50001114D02*
X54187695Y-50191590D01*
X54187695Y-50191590D02*
X54187695Y-50572542D01*
X54187695Y-50572542D02*
X54235314Y-50667780D01*
X54235314Y-50667780D02*
X54282933Y-50715400D01*
X54282933Y-50715400D02*
X54378171Y-50763019D01*
X54378171Y-50763019D02*
X54568647Y-50763019D01*
X54568647Y-50763019D02*
X54663885Y-50715400D01*
X54663885Y-50715400D02*
X54711504Y-50667780D01*
X54711504Y-50667780D02*
X54759123Y-50572542D01*
X54759123Y-50572542D02*
X54759123Y-50334447D01*
X54759123Y-50334447D02*
X54711504Y-50239209D01*
X54711504Y-50239209D02*
X54663885Y-50191590D01*
X54663885Y-50191590D02*
X54568647Y-50143971D01*
X54568647Y-50143971D02*
X54378171Y-50143971D01*
X54378171Y-50143971D02*
X54282933Y-50191590D01*
X54282933Y-50191590D02*
X54235314Y-50239209D01*
X54235314Y-50239209D02*
X54187695Y-50334447D01*
%TO.C,C4*%
X81647380Y-92408666D02*
X81695000Y-92456285D01*
X81695000Y-92456285D02*
X81742619Y-92599142D01*
X81742619Y-92599142D02*
X81742619Y-92694380D01*
X81742619Y-92694380D02*
X81695000Y-92837237D01*
X81695000Y-92837237D02*
X81599761Y-92932475D01*
X81599761Y-92932475D02*
X81504523Y-92980094D01*
X81504523Y-92980094D02*
X81314047Y-93027713D01*
X81314047Y-93027713D02*
X81171190Y-93027713D01*
X81171190Y-93027713D02*
X80980714Y-92980094D01*
X80980714Y-92980094D02*
X80885476Y-92932475D01*
X80885476Y-92932475D02*
X80790238Y-92837237D01*
X80790238Y-92837237D02*
X80742619Y-92694380D01*
X80742619Y-92694380D02*
X80742619Y-92599142D01*
X80742619Y-92599142D02*
X80790238Y-92456285D01*
X80790238Y-92456285D02*
X80837857Y-92408666D01*
X81075952Y-91551523D02*
X81742619Y-91551523D01*
X80695000Y-91789618D02*
X81409285Y-92027713D01*
X81409285Y-92027713D02*
X81409285Y-91408666D01*
%TO.C,U3*%
X71882095Y-80148419D02*
X71882095Y-80957942D01*
X71882095Y-80957942D02*
X71929714Y-81053180D01*
X71929714Y-81053180D02*
X71977333Y-81100800D01*
X71977333Y-81100800D02*
X72072571Y-81148419D01*
X72072571Y-81148419D02*
X72263047Y-81148419D01*
X72263047Y-81148419D02*
X72358285Y-81100800D01*
X72358285Y-81100800D02*
X72405904Y-81053180D01*
X72405904Y-81053180D02*
X72453523Y-80957942D01*
X72453523Y-80957942D02*
X72453523Y-80148419D01*
X72834476Y-80148419D02*
X73453523Y-80148419D01*
X73453523Y-80148419D02*
X73120190Y-80529371D01*
X73120190Y-80529371D02*
X73263047Y-80529371D01*
X73263047Y-80529371D02*
X73358285Y-80576990D01*
X73358285Y-80576990D02*
X73405904Y-80624609D01*
X73405904Y-80624609D02*
X73453523Y-80719847D01*
X73453523Y-80719847D02*
X73453523Y-80957942D01*
X73453523Y-80957942D02*
X73405904Y-81053180D01*
X73405904Y-81053180D02*
X73358285Y-81100800D01*
X73358285Y-81100800D02*
X73263047Y-81148419D01*
X73263047Y-81148419D02*
X72977333Y-81148419D01*
X72977333Y-81148419D02*
X72882095Y-81100800D01*
X72882095Y-81100800D02*
X72834476Y-81053180D01*
%TO.C,C5*%
X112172333Y-45803057D02*
X112124714Y-45850677D01*
X112124714Y-45850677D02*
X111981857Y-45898296D01*
X111981857Y-45898296D02*
X111886619Y-45898296D01*
X111886619Y-45898296D02*
X111743762Y-45850677D01*
X111743762Y-45850677D02*
X111648524Y-45755438D01*
X111648524Y-45755438D02*
X111600905Y-45660200D01*
X111600905Y-45660200D02*
X111553286Y-45469724D01*
X111553286Y-45469724D02*
X111553286Y-45326867D01*
X111553286Y-45326867D02*
X111600905Y-45136391D01*
X111600905Y-45136391D02*
X111648524Y-45041153D01*
X111648524Y-45041153D02*
X111743762Y-44945915D01*
X111743762Y-44945915D02*
X111886619Y-44898296D01*
X111886619Y-44898296D02*
X111981857Y-44898296D01*
X111981857Y-44898296D02*
X112124714Y-44945915D01*
X112124714Y-44945915D02*
X112172333Y-44993534D01*
X113077095Y-44898296D02*
X112600905Y-44898296D01*
X112600905Y-44898296D02*
X112553286Y-45374486D01*
X112553286Y-45374486D02*
X112600905Y-45326867D01*
X112600905Y-45326867D02*
X112696143Y-45279248D01*
X112696143Y-45279248D02*
X112934238Y-45279248D01*
X112934238Y-45279248D02*
X113029476Y-45326867D01*
X113029476Y-45326867D02*
X113077095Y-45374486D01*
X113077095Y-45374486D02*
X113124714Y-45469724D01*
X113124714Y-45469724D02*
X113124714Y-45707819D01*
X113124714Y-45707819D02*
X113077095Y-45803057D01*
X113077095Y-45803057D02*
X113029476Y-45850677D01*
X113029476Y-45850677D02*
X112934238Y-45898296D01*
X112934238Y-45898296D02*
X112696143Y-45898296D01*
X112696143Y-45898296D02*
X112600905Y-45850677D01*
X112600905Y-45850677D02*
X112553286Y-45803057D01*
%TO.C,C2*%
X96125380Y-136698666D02*
X96173000Y-136746285D01*
X96173000Y-136746285D02*
X96220619Y-136889142D01*
X96220619Y-136889142D02*
X96220619Y-136984380D01*
X96220619Y-136984380D02*
X96173000Y-137127237D01*
X96173000Y-137127237D02*
X96077761Y-137222475D01*
X96077761Y-137222475D02*
X95982523Y-137270094D01*
X95982523Y-137270094D02*
X95792047Y-137317713D01*
X95792047Y-137317713D02*
X95649190Y-137317713D01*
X95649190Y-137317713D02*
X95458714Y-137270094D01*
X95458714Y-137270094D02*
X95363476Y-137222475D01*
X95363476Y-137222475D02*
X95268238Y-137127237D01*
X95268238Y-137127237D02*
X95220619Y-136984380D01*
X95220619Y-136984380D02*
X95220619Y-136889142D01*
X95220619Y-136889142D02*
X95268238Y-136746285D01*
X95268238Y-136746285D02*
X95315857Y-136698666D01*
X95315857Y-136317713D02*
X95268238Y-136270094D01*
X95268238Y-136270094D02*
X95220619Y-136174856D01*
X95220619Y-136174856D02*
X95220619Y-135936761D01*
X95220619Y-135936761D02*
X95268238Y-135841523D01*
X95268238Y-135841523D02*
X95315857Y-135793904D01*
X95315857Y-135793904D02*
X95411095Y-135746285D01*
X95411095Y-135746285D02*
X95506333Y-135746285D01*
X95506333Y-135746285D02*
X95649190Y-135793904D01*
X95649190Y-135793904D02*
X96220619Y-136365332D01*
X96220619Y-136365332D02*
X96220619Y-135746285D01*
%TO.C,C1*%
X116445380Y-108838666D02*
X116493000Y-108886285D01*
X116493000Y-108886285D02*
X116540619Y-109029142D01*
X116540619Y-109029142D02*
X116540619Y-109124380D01*
X116540619Y-109124380D02*
X116493000Y-109267237D01*
X116493000Y-109267237D02*
X116397761Y-109362475D01*
X116397761Y-109362475D02*
X116302523Y-109410094D01*
X116302523Y-109410094D02*
X116112047Y-109457713D01*
X116112047Y-109457713D02*
X115969190Y-109457713D01*
X115969190Y-109457713D02*
X115778714Y-109410094D01*
X115778714Y-109410094D02*
X115683476Y-109362475D01*
X115683476Y-109362475D02*
X115588238Y-109267237D01*
X115588238Y-109267237D02*
X115540619Y-109124380D01*
X115540619Y-109124380D02*
X115540619Y-109029142D01*
X115540619Y-109029142D02*
X115588238Y-108886285D01*
X115588238Y-108886285D02*
X115635857Y-108838666D01*
X116540619Y-107886285D02*
X116540619Y-108457713D01*
X116540619Y-108171999D02*
X115540619Y-108171999D01*
X115540619Y-108171999D02*
X115683476Y-108267237D01*
X115683476Y-108267237D02*
X115778714Y-108362475D01*
X115778714Y-108362475D02*
X115826333Y-108457713D01*
%TO.C,J3*%
X61580619Y-134953333D02*
X62294904Y-134953333D01*
X62294904Y-134953333D02*
X62437761Y-135000952D01*
X62437761Y-135000952D02*
X62533000Y-135096190D01*
X62533000Y-135096190D02*
X62580619Y-135239047D01*
X62580619Y-135239047D02*
X62580619Y-135334285D01*
X61580619Y-134572380D02*
X61580619Y-133953333D01*
X61580619Y-133953333D02*
X61961571Y-134286666D01*
X61961571Y-134286666D02*
X61961571Y-134143809D01*
X61961571Y-134143809D02*
X62009190Y-134048571D01*
X62009190Y-134048571D02*
X62056809Y-134000952D01*
X62056809Y-134000952D02*
X62152047Y-133953333D01*
X62152047Y-133953333D02*
X62390142Y-133953333D01*
X62390142Y-133953333D02*
X62485380Y-134000952D01*
X62485380Y-134000952D02*
X62533000Y-134048571D01*
X62533000Y-134048571D02*
X62580619Y-134143809D01*
X62580619Y-134143809D02*
X62580619Y-134429523D01*
X62580619Y-134429523D02*
X62533000Y-134524761D01*
X62533000Y-134524761D02*
X62485380Y-134572380D01*
%TO.C,D1*%
X150156905Y-56364619D02*
X150156905Y-55364619D01*
X150156905Y-55364619D02*
X150395000Y-55364619D01*
X150395000Y-55364619D02*
X150537857Y-55412238D01*
X150537857Y-55412238D02*
X150633095Y-55507476D01*
X150633095Y-55507476D02*
X150680714Y-55602714D01*
X150680714Y-55602714D02*
X150728333Y-55793190D01*
X150728333Y-55793190D02*
X150728333Y-55936047D01*
X150728333Y-55936047D02*
X150680714Y-56126523D01*
X150680714Y-56126523D02*
X150633095Y-56221761D01*
X150633095Y-56221761D02*
X150537857Y-56317000D01*
X150537857Y-56317000D02*
X150395000Y-56364619D01*
X150395000Y-56364619D02*
X150156905Y-56364619D01*
X151680714Y-56364619D02*
X151109286Y-56364619D01*
X151395000Y-56364619D02*
X151395000Y-55364619D01*
X151395000Y-55364619D02*
X151299762Y-55507476D01*
X151299762Y-55507476D02*
X151204524Y-55602714D01*
X151204524Y-55602714D02*
X151109286Y-55650333D01*
X156213095Y-58464619D02*
X156213095Y-57464619D01*
X156784523Y-58464619D02*
X156355952Y-57893190D01*
X156784523Y-57464619D02*
X156213095Y-58036047D01*
%TO.C,C3*%
X77811333Y-71487380D02*
X77763714Y-71535000D01*
X77763714Y-71535000D02*
X77620857Y-71582619D01*
X77620857Y-71582619D02*
X77525619Y-71582619D01*
X77525619Y-71582619D02*
X77382762Y-71535000D01*
X77382762Y-71535000D02*
X77287524Y-71439761D01*
X77287524Y-71439761D02*
X77239905Y-71344523D01*
X77239905Y-71344523D02*
X77192286Y-71154047D01*
X77192286Y-71154047D02*
X77192286Y-71011190D01*
X77192286Y-71011190D02*
X77239905Y-70820714D01*
X77239905Y-70820714D02*
X77287524Y-70725476D01*
X77287524Y-70725476D02*
X77382762Y-70630238D01*
X77382762Y-70630238D02*
X77525619Y-70582619D01*
X77525619Y-70582619D02*
X77620857Y-70582619D01*
X77620857Y-70582619D02*
X77763714Y-70630238D01*
X77763714Y-70630238D02*
X77811333Y-70677857D01*
X78144667Y-70582619D02*
X78763714Y-70582619D01*
X78763714Y-70582619D02*
X78430381Y-70963571D01*
X78430381Y-70963571D02*
X78573238Y-70963571D01*
X78573238Y-70963571D02*
X78668476Y-71011190D01*
X78668476Y-71011190D02*
X78716095Y-71058809D01*
X78716095Y-71058809D02*
X78763714Y-71154047D01*
X78763714Y-71154047D02*
X78763714Y-71392142D01*
X78763714Y-71392142D02*
X78716095Y-71487380D01*
X78716095Y-71487380D02*
X78668476Y-71535000D01*
X78668476Y-71535000D02*
X78573238Y-71582619D01*
X78573238Y-71582619D02*
X78287524Y-71582619D01*
X78287524Y-71582619D02*
X78192286Y-71535000D01*
X78192286Y-71535000D02*
X78144667Y-71487380D01*
%TO.C,U1*%
X107696095Y-77904619D02*
X107696095Y-78714142D01*
X107696095Y-78714142D02*
X107743714Y-78809380D01*
X107743714Y-78809380D02*
X107791333Y-78857000D01*
X107791333Y-78857000D02*
X107886571Y-78904619D01*
X107886571Y-78904619D02*
X108077047Y-78904619D01*
X108077047Y-78904619D02*
X108172285Y-78857000D01*
X108172285Y-78857000D02*
X108219904Y-78809380D01*
X108219904Y-78809380D02*
X108267523Y-78714142D01*
X108267523Y-78714142D02*
X108267523Y-77904619D01*
X109267523Y-78904619D02*
X108696095Y-78904619D01*
X108981809Y-78904619D02*
X108981809Y-77904619D01*
X108981809Y-77904619D02*
X108886571Y-78047476D01*
X108886571Y-78047476D02*
X108791333Y-78142714D01*
X108791333Y-78142714D02*
X108696095Y-78190333D01*
%TO.C,R1*%
X73112333Y-127124619D02*
X72779000Y-126648428D01*
X72540905Y-127124619D02*
X72540905Y-126124619D01*
X72540905Y-126124619D02*
X72921857Y-126124619D01*
X72921857Y-126124619D02*
X73017095Y-126172238D01*
X73017095Y-126172238D02*
X73064714Y-126219857D01*
X73064714Y-126219857D02*
X73112333Y-126315095D01*
X73112333Y-126315095D02*
X73112333Y-126457952D01*
X73112333Y-126457952D02*
X73064714Y-126553190D01*
X73064714Y-126553190D02*
X73017095Y-126600809D01*
X73017095Y-126600809D02*
X72921857Y-126648428D01*
X72921857Y-126648428D02*
X72540905Y-126648428D01*
X74064714Y-127124619D02*
X73493286Y-127124619D01*
X73779000Y-127124619D02*
X73779000Y-126124619D01*
X73779000Y-126124619D02*
X73683762Y-126267476D01*
X73683762Y-126267476D02*
X73588524Y-126362714D01*
X73588524Y-126362714D02*
X73493286Y-126410333D01*
%TO.C,R2*%
X142228333Y-58960619D02*
X141895000Y-58484428D01*
X141656905Y-58960619D02*
X141656905Y-57960619D01*
X141656905Y-57960619D02*
X142037857Y-57960619D01*
X142037857Y-57960619D02*
X142133095Y-58008238D01*
X142133095Y-58008238D02*
X142180714Y-58055857D01*
X142180714Y-58055857D02*
X142228333Y-58151095D01*
X142228333Y-58151095D02*
X142228333Y-58293952D01*
X142228333Y-58293952D02*
X142180714Y-58389190D01*
X142180714Y-58389190D02*
X142133095Y-58436809D01*
X142133095Y-58436809D02*
X142037857Y-58484428D01*
X142037857Y-58484428D02*
X141656905Y-58484428D01*
X142609286Y-58055857D02*
X142656905Y-58008238D01*
X142656905Y-58008238D02*
X142752143Y-57960619D01*
X142752143Y-57960619D02*
X142990238Y-57960619D01*
X142990238Y-57960619D02*
X143085476Y-58008238D01*
X143085476Y-58008238D02*
X143133095Y-58055857D01*
X143133095Y-58055857D02*
X143180714Y-58151095D01*
X143180714Y-58151095D02*
X143180714Y-58246333D01*
X143180714Y-58246333D02*
X143133095Y-58389190D01*
X143133095Y-58389190D02*
X142561667Y-58960619D01*
X142561667Y-58960619D02*
X143180714Y-58960619D01*
D12*
%TO.C,Q1*%
X157745000Y-57782000D02*
X141855000Y-57782000D01*
X157745000Y-57782000D02*
X157745000Y-68022000D01*
X157745000Y-68022000D02*
X141855000Y-68022000D01*
X141855000Y-57782000D02*
X141855000Y-68022000D01*
X141855000Y-62902000D02*
X139315000Y-62902000D01*
X141855000Y-65442000D02*
X139315000Y-65442000D01*
X141855000Y-60362000D02*
X139315000Y-60362000D01*
D13*
%TO.C,SW2*%
X157750000Y-107382000D02*
X157750000Y-115882000D01*
X146750000Y-107382000D02*
X157750000Y-107382000D01*
X157750000Y-115882000D02*
X146750000Y-115882000D01*
X146750000Y-115882000D02*
X146750000Y-107382000D01*
D12*
%TO.C,U2*%
X85488000Y-107302000D02*
X85488000Y-142982000D01*
X85488000Y-142982000D02*
X90788000Y-142982000D01*
X87138000Y-107302000D02*
X85488000Y-107302000D01*
X90788000Y-107302000D02*
X89138000Y-107302000D01*
X90788000Y-142982000D02*
X90788000Y-107302000D01*
X87138000Y-107302000D02*
G75*
G03*
X89138000Y-107302000I1000000J0D01*
G01*
%TO.C,J2*%
X66691406Y-55330000D02*
G75*
G03*
X66691406Y-55330000I-381000J0D01*
G01*
X48784406Y-119426900D02*
X55206107Y-119426900D01*
X57348705Y-119426900D02*
X70603006Y-119426900D01*
X70603006Y-119426900D02*
X70603006Y-104614902D01*
X70603006Y-102565098D02*
X70603006Y-90644902D01*
X70603006Y-88595098D02*
X70603006Y-76674902D01*
X70603006Y-74625098D02*
X70603006Y-59813100D01*
X48784406Y-59813100D02*
X48784406Y-119426900D01*
X55206107Y-59813100D02*
X48784406Y-59813100D01*
X70603006Y-59813100D02*
X57348705Y-59813100D01*
D13*
%TO.C,J11*%
X146700000Y-140632000D02*
X146700000Y-132132000D01*
X157700000Y-140632000D02*
X146700000Y-140632000D01*
X146700000Y-132132000D02*
X157700000Y-132132000D01*
X157700000Y-132132000D02*
X157700000Y-140632000D01*
%TO.C,SW1*%
X157750000Y-100382000D02*
X157750000Y-108882000D01*
X146750000Y-100382000D02*
X157750000Y-100382000D01*
X157750000Y-108882000D02*
X146750000Y-108882000D01*
X146750000Y-108882000D02*
X146750000Y-100382000D01*
D12*
%TO.C,C4*%
X83912000Y-95862000D02*
X80172000Y-95862000D01*
X80172000Y-88622000D02*
X80172000Y-95862000D01*
X83912000Y-88622000D02*
X83912000Y-95862000D01*
X83912000Y-88622000D02*
X80172000Y-88622000D01*
D13*
%TO.C,L1*%
X157745000Y-45402000D02*
X157745000Y-53902000D01*
X146745000Y-45402000D02*
X157745000Y-45402000D01*
X157745000Y-53902000D02*
X146745000Y-53902000D01*
X146745000Y-53902000D02*
X146745000Y-45402000D01*
D12*
%TO.C,U3*%
X74123000Y-81685800D02*
G75*
G03*
X74123000Y-79685800I0J1000000D01*
G01*
X94563000Y-78035800D02*
X74123000Y-78035800D01*
X74123000Y-78035800D02*
X74123000Y-79685800D01*
X74123000Y-81685800D02*
X74123000Y-83335800D01*
X94563000Y-83335800D02*
X94563000Y-78035800D01*
X74123000Y-83335800D02*
X94563000Y-83335800D01*
D13*
%TO.C,J4*%
X129354000Y-45300000D02*
X137854000Y-45300000D01*
X129354000Y-56300000D02*
X129354000Y-45300000D01*
X137854000Y-45300000D02*
X137854000Y-56300000D01*
X137854000Y-56300000D02*
X129354000Y-56300000D01*
D12*
%TO.C,C5*%
X121015000Y-50902000D02*
G75*
G03*
X121015000Y-50902000I-5120000J0D01*
G01*
X116494000Y-55983000D02*
X115296000Y-55983000D01*
X116757000Y-55943000D02*
X115033000Y-55943000D01*
X116957000Y-55903000D02*
X114833000Y-55903000D01*
X117125000Y-55863000D02*
X114665000Y-55863000D01*
X117273000Y-55823000D02*
X114517000Y-55823000D01*
X117405000Y-55783000D02*
X114385000Y-55783000D01*
X117525000Y-55743000D02*
X114265000Y-55743000D01*
X117637000Y-55703000D02*
X114153000Y-55703000D01*
X117741000Y-55663000D02*
X114049000Y-55663000D01*
X117839000Y-55623000D02*
X113951000Y-55623000D01*
X117932000Y-55583000D02*
X113858000Y-55583000D01*
X118020000Y-55543000D02*
X113770000Y-55543000D01*
X118104000Y-55503000D02*
X113686000Y-55503000D01*
X118184000Y-55463000D02*
X113606000Y-55463000D01*
X118260000Y-55423000D02*
X113530000Y-55423000D01*
X118334000Y-55383000D02*
X113456000Y-55383000D01*
X118405000Y-55343000D02*
X113385000Y-55343000D01*
X118474000Y-55303000D02*
X113316000Y-55303000D01*
X118540000Y-55263000D02*
X113250000Y-55263000D01*
X118604000Y-55223000D02*
X113186000Y-55223000D01*
X118665000Y-55183000D02*
X113125000Y-55183000D01*
X118725000Y-55143000D02*
X113065000Y-55143000D01*
X118784000Y-55103000D02*
X113006000Y-55103000D01*
X118840000Y-55063000D02*
X112950000Y-55063000D01*
X118895000Y-55023000D02*
X112895000Y-55023000D01*
X118949000Y-54983000D02*
X112841000Y-54983000D01*
X119001000Y-54943000D02*
X112789000Y-54943000D01*
X119051000Y-54903000D02*
X112739000Y-54903000D01*
X119101000Y-54863000D02*
X112689000Y-54863000D01*
X119149000Y-54823000D02*
X112641000Y-54823000D01*
X119196000Y-54783000D02*
X112594000Y-54783000D01*
X119242000Y-54743000D02*
X112548000Y-54743000D01*
X119287000Y-54703000D02*
X112503000Y-54703000D01*
X119331000Y-54663000D02*
X112459000Y-54663000D01*
X114654000Y-54623000D02*
X112417000Y-54623000D01*
X119373000Y-54623000D02*
X117136000Y-54623000D01*
X114654000Y-54583000D02*
X112375000Y-54583000D01*
X119415000Y-54583000D02*
X117136000Y-54583000D01*
X114654000Y-54543000D02*
X112334000Y-54543000D01*
X119456000Y-54543000D02*
X117136000Y-54543000D01*
X114654000Y-54503000D02*
X112294000Y-54503000D01*
X119496000Y-54503000D02*
X117136000Y-54503000D01*
X114654000Y-54463000D02*
X112255000Y-54463000D01*
X119535000Y-54463000D02*
X117136000Y-54463000D01*
X114654000Y-54423000D02*
X112216000Y-54423000D01*
X119574000Y-54423000D02*
X117136000Y-54423000D01*
X114654000Y-54383000D02*
X112179000Y-54383000D01*
X119611000Y-54383000D02*
X117136000Y-54383000D01*
X114654000Y-54343000D02*
X112142000Y-54343000D01*
X119648000Y-54343000D02*
X117136000Y-54343000D01*
X114654000Y-54303000D02*
X112106000Y-54303000D01*
X119684000Y-54303000D02*
X117136000Y-54303000D01*
X114654000Y-54263000D02*
X112071000Y-54263000D01*
X119719000Y-54263000D02*
X117136000Y-54263000D01*
X114654000Y-54223000D02*
X112037000Y-54223000D01*
X119753000Y-54223000D02*
X117136000Y-54223000D01*
X114654000Y-54183000D02*
X112003000Y-54183000D01*
X119787000Y-54183000D02*
X117136000Y-54183000D01*
X114654000Y-54143000D02*
X111970000Y-54143000D01*
X119820000Y-54143000D02*
X117136000Y-54143000D01*
X114654000Y-54103000D02*
X111938000Y-54103000D01*
X119852000Y-54103000D02*
X117136000Y-54103000D01*
X114654000Y-54063000D02*
X111906000Y-54063000D01*
X119884000Y-54063000D02*
X117136000Y-54063000D01*
X114654000Y-54023000D02*
X111875000Y-54023000D01*
X119915000Y-54023000D02*
X117136000Y-54023000D01*
X114654000Y-53983000D02*
X111845000Y-53983000D01*
X119945000Y-53983000D02*
X117136000Y-53983000D01*
X114654000Y-53943000D02*
X111815000Y-53943000D01*
X119975000Y-53943000D02*
X117136000Y-53943000D01*
X114654000Y-53903000D02*
X111785000Y-53903000D01*
X120005000Y-53903000D02*
X117136000Y-53903000D01*
X114654000Y-53863000D02*
X111757000Y-53863000D01*
X120033000Y-53863000D02*
X117136000Y-53863000D01*
X114654000Y-53823000D02*
X111729000Y-53823000D01*
X120061000Y-53823000D02*
X117136000Y-53823000D01*
X114654000Y-53783000D02*
X111701000Y-53783000D01*
X120089000Y-53783000D02*
X117136000Y-53783000D01*
X114654000Y-53743000D02*
X111674000Y-53743000D01*
X120116000Y-53743000D02*
X117136000Y-53743000D01*
X114654000Y-53703000D02*
X111648000Y-53703000D01*
X120142000Y-53703000D02*
X117136000Y-53703000D01*
X114654000Y-53663000D02*
X111622000Y-53663000D01*
X120168000Y-53663000D02*
X117136000Y-53663000D01*
X114654000Y-53623000D02*
X111597000Y-53623000D01*
X120193000Y-53623000D02*
X117136000Y-53623000D01*
X114654000Y-53583000D02*
X111572000Y-53583000D01*
X120218000Y-53583000D02*
X117136000Y-53583000D01*
X114654000Y-53543000D02*
X111548000Y-53543000D01*
X120242000Y-53543000D02*
X117136000Y-53543000D01*
X114654000Y-53503000D02*
X111524000Y-53503000D01*
X120266000Y-53503000D02*
X117136000Y-53503000D01*
X114654000Y-53463000D02*
X111500000Y-53463000D01*
X120290000Y-53463000D02*
X117136000Y-53463000D01*
X114654000Y-53423000D02*
X111478000Y-53423000D01*
X120312000Y-53423000D02*
X117136000Y-53423000D01*
X114654000Y-53383000D02*
X111455000Y-53383000D01*
X120335000Y-53383000D02*
X117136000Y-53383000D01*
X114654000Y-53343000D02*
X111433000Y-53343000D01*
X120357000Y-53343000D02*
X117136000Y-53343000D01*
X114654000Y-53303000D02*
X111412000Y-53303000D01*
X120378000Y-53303000D02*
X117136000Y-53303000D01*
X114654000Y-53263000D02*
X111391000Y-53263000D01*
X120399000Y-53263000D02*
X117136000Y-53263000D01*
X114654000Y-53223000D02*
X111370000Y-53223000D01*
X120420000Y-53223000D02*
X117136000Y-53223000D01*
X114654000Y-53183000D02*
X111350000Y-53183000D01*
X120440000Y-53183000D02*
X117136000Y-53183000D01*
X114654000Y-53143000D02*
X111331000Y-53143000D01*
X120459000Y-53143000D02*
X117136000Y-53143000D01*
X114654000Y-53103000D02*
X111311000Y-53103000D01*
X120479000Y-53103000D02*
X117136000Y-53103000D01*
X114654000Y-53063000D02*
X111292000Y-53063000D01*
X120498000Y-53063000D02*
X117136000Y-53063000D01*
X114654000Y-53023000D02*
X111274000Y-53023000D01*
X120516000Y-53023000D02*
X117136000Y-53023000D01*
X114654000Y-52983000D02*
X111256000Y-52983000D01*
X120534000Y-52983000D02*
X117136000Y-52983000D01*
X114654000Y-52943000D02*
X111238000Y-52943000D01*
X120552000Y-52943000D02*
X117136000Y-52943000D01*
X114654000Y-52903000D02*
X111221000Y-52903000D01*
X120569000Y-52903000D02*
X117136000Y-52903000D01*
X114654000Y-52863000D02*
X111205000Y-52863000D01*
X120585000Y-52863000D02*
X117136000Y-52863000D01*
X114654000Y-52823000D02*
X111188000Y-52823000D01*
X120602000Y-52823000D02*
X117136000Y-52823000D01*
X114654000Y-52783000D02*
X111172000Y-52783000D01*
X120618000Y-52783000D02*
X117136000Y-52783000D01*
X114654000Y-52743000D02*
X111157000Y-52743000D01*
X120633000Y-52743000D02*
X117136000Y-52743000D01*
X114654000Y-52703000D02*
X111141000Y-52703000D01*
X120649000Y-52703000D02*
X117136000Y-52703000D01*
X114654000Y-52663000D02*
X111127000Y-52663000D01*
X120663000Y-52663000D02*
X117136000Y-52663000D01*
X114654000Y-52623000D02*
X111112000Y-52623000D01*
X120678000Y-52623000D02*
X117136000Y-52623000D01*
X114654000Y-52583000D02*
X111098000Y-52583000D01*
X120692000Y-52583000D02*
X117136000Y-52583000D01*
X114654000Y-52543000D02*
X111084000Y-52543000D01*
X120706000Y-52543000D02*
X117136000Y-52543000D01*
X114654000Y-52503000D02*
X111071000Y-52503000D01*
X120719000Y-52503000D02*
X117136000Y-52503000D01*
X114654000Y-52463000D02*
X111058000Y-52463000D01*
X120732000Y-52463000D02*
X117136000Y-52463000D01*
X114654000Y-52423000D02*
X111045000Y-52423000D01*
X120745000Y-52423000D02*
X117136000Y-52423000D01*
X114654000Y-52383000D02*
X111033000Y-52383000D01*
X120757000Y-52383000D02*
X117136000Y-52383000D01*
X114654000Y-52343000D02*
X111021000Y-52343000D01*
X120769000Y-52343000D02*
X117136000Y-52343000D01*
X114654000Y-52303000D02*
X111010000Y-52303000D01*
X120780000Y-52303000D02*
X117136000Y-52303000D01*
X114654000Y-52263000D02*
X110998000Y-52263000D01*
X120792000Y-52263000D02*
X117136000Y-52263000D01*
X114654000Y-52223000D02*
X110988000Y-52223000D01*
X120802000Y-52223000D02*
X117136000Y-52223000D01*
X114654000Y-52183000D02*
X110977000Y-52183000D01*
X120813000Y-52183000D02*
X117136000Y-52183000D01*
X120823000Y-52143000D02*
X110967000Y-52143000D01*
X120833000Y-52103000D02*
X110957000Y-52103000D01*
X120842000Y-52063000D02*
X110948000Y-52063000D01*
X120851000Y-52023000D02*
X110939000Y-52023000D01*
X120860000Y-51983000D02*
X110930000Y-51983000D01*
X120869000Y-51943000D02*
X110921000Y-51943000D01*
X120877000Y-51903000D02*
X110913000Y-51903000D01*
X120885000Y-51863000D02*
X110905000Y-51863000D01*
X120892000Y-51823000D02*
X110898000Y-51823000D01*
X120899000Y-51783000D02*
X110891000Y-51783000D01*
X120906000Y-51743000D02*
X110884000Y-51743000D01*
X120913000Y-51703000D02*
X110877000Y-51703000D01*
X120919000Y-51663000D02*
X110871000Y-51663000D01*
X120925000Y-51623000D02*
X110865000Y-51623000D01*
X120930000Y-51582000D02*
X110860000Y-51582000D01*
X120935000Y-51542000D02*
X110855000Y-51542000D01*
X120940000Y-51502000D02*
X110850000Y-51502000D01*
X120945000Y-51462000D02*
X110845000Y-51462000D01*
X120949000Y-51422000D02*
X110841000Y-51422000D01*
X120953000Y-51382000D02*
X110837000Y-51382000D01*
X120957000Y-51342000D02*
X110833000Y-51342000D01*
X120960000Y-51302000D02*
X110830000Y-51302000D01*
X120963000Y-51262000D02*
X110827000Y-51262000D01*
X120965000Y-51222000D02*
X110825000Y-51222000D01*
X120968000Y-51182000D02*
X110822000Y-51182000D01*
X120970000Y-51142000D02*
X110820000Y-51142000D01*
X120972000Y-51102000D02*
X110818000Y-51102000D01*
X120973000Y-51062000D02*
X110817000Y-51062000D01*
X120974000Y-51022000D02*
X110816000Y-51022000D01*
X120975000Y-50982000D02*
X110815000Y-50982000D01*
X120975000Y-50942000D02*
X110815000Y-50942000D01*
X120975000Y-50902000D02*
X110815000Y-50902000D01*
X119270000Y-45922354D02*
X118270000Y-45922354D01*
X118770000Y-45422354D02*
X118770000Y-46422354D01*
D13*
%TO.C,J10*%
X146700000Y-132882000D02*
X146700000Y-124382000D01*
X157700000Y-132882000D02*
X146700000Y-132882000D01*
X146700000Y-124382000D02*
X157700000Y-124382000D01*
X157700000Y-124382000D02*
X157700000Y-132882000D01*
%TO.C,SW3*%
X157750000Y-114382000D02*
X157750000Y-122882000D01*
X146750000Y-114382000D02*
X157750000Y-114382000D01*
X157750000Y-122882000D02*
X146750000Y-122882000D01*
X146750000Y-122882000D02*
X146750000Y-114382000D01*
D12*
%TO.C,C2*%
X97628000Y-132912000D02*
X93888000Y-132912000D01*
X97628000Y-132912000D02*
X97628000Y-140152000D01*
X93888000Y-132912000D02*
X93888000Y-140152000D01*
X97628000Y-140152000D02*
X93888000Y-140152000D01*
D13*
%TO.C,J12*%
X136345000Y-147994000D02*
X127845000Y-147994000D01*
X136345000Y-136994000D02*
X136345000Y-147994000D01*
X127845000Y-147994000D02*
X127845000Y-136994000D01*
X127845000Y-136994000D02*
X136345000Y-136994000D01*
%TO.C,J6*%
X157750000Y-90382000D02*
X157750000Y-98882000D01*
X146750000Y-90382000D02*
X157750000Y-90382000D01*
X157750000Y-98882000D02*
X146750000Y-98882000D01*
X146750000Y-98882000D02*
X146750000Y-90382000D01*
D12*
%TO.C,C1*%
X117948000Y-105052000D02*
X114208000Y-105052000D01*
X117948000Y-105052000D02*
X117948000Y-112292000D01*
X114208000Y-105052000D02*
X114208000Y-112292000D01*
X117948000Y-112292000D02*
X114208000Y-112292000D01*
D13*
%TO.C,J9*%
X157750000Y-69382000D02*
X157750000Y-77882000D01*
X146750000Y-69382000D02*
X157750000Y-69382000D01*
X157750000Y-77882000D02*
X146750000Y-77882000D01*
X146750000Y-77882000D02*
X146750000Y-69382000D01*
%TO.C,J8*%
X157750000Y-76382000D02*
X157750000Y-84882000D01*
X146750000Y-76382000D02*
X157750000Y-76382000D01*
X157750000Y-84882000D02*
X146750000Y-84882000D01*
X146750000Y-84882000D02*
X146750000Y-76382000D01*
D12*
%TO.C,J3*%
X49718000Y-136620000D02*
X48718000Y-136620000D01*
X48718000Y-136620000D02*
X48718000Y-132620000D01*
X48718000Y-132620000D02*
X49718000Y-132620000D01*
X49718000Y-132620000D02*
X49718000Y-136620000D01*
X60518000Y-132120000D02*
X59718000Y-132120000D01*
X59718000Y-132120000D02*
X59718000Y-132720000D01*
X56018000Y-132120000D02*
X57918000Y-132120000D01*
X56018000Y-132120000D02*
X56018000Y-132720000D01*
X52318000Y-132120000D02*
X54218000Y-132120000D01*
X52318000Y-132120000D02*
X52318000Y-132720000D01*
X49718000Y-132120000D02*
X50518000Y-132120000D01*
X59718000Y-132720000D02*
X57918000Y-132720000D01*
X57918000Y-132720000D02*
X57918000Y-132120000D01*
X56018000Y-132720000D02*
X54218000Y-132720000D01*
X54218000Y-132720000D02*
X54218000Y-132120000D01*
X52318000Y-132720000D02*
X50518000Y-132720000D01*
X50518000Y-132720000D02*
X50518000Y-132120000D01*
X59718000Y-136520000D02*
X59718000Y-137120000D01*
X57918000Y-136520000D02*
X59718000Y-136520000D01*
X56018000Y-136520000D02*
X56018000Y-137120000D01*
X54218000Y-136520000D02*
X56018000Y-136520000D01*
X52318000Y-136520000D02*
X52318000Y-137120000D01*
X50518000Y-136520000D02*
X52318000Y-136520000D01*
X60518000Y-137120000D02*
X60518000Y-132120000D01*
X59718000Y-137120000D02*
X60518000Y-137120000D01*
X57918000Y-137120000D02*
X57918000Y-136520000D01*
X56018000Y-137120000D02*
X57918000Y-137120000D01*
X54218000Y-137120000D02*
X54218000Y-136520000D01*
X54218000Y-137120000D02*
X52318000Y-137120000D01*
X50518000Y-137120000D02*
X50518000Y-136520000D01*
X49718000Y-137120000D02*
X49718000Y-132120000D01*
X49718000Y-137120000D02*
X50518000Y-137120000D01*
%TO.C,D1*%
X147655000Y-55902000D02*
X148675000Y-55902000D01*
X148675000Y-54432000D02*
X148675000Y-57372000D01*
X148675000Y-57372000D02*
X154115000Y-57372000D01*
X153095000Y-57372000D02*
X153095000Y-54432000D01*
X153215000Y-57372000D02*
X153215000Y-54432000D01*
X153335000Y-57372000D02*
X153335000Y-54432000D01*
X154115000Y-54432000D02*
X148675000Y-54432000D01*
X154115000Y-57372000D02*
X154115000Y-54432000D01*
X155135000Y-55902000D02*
X154115000Y-55902000D01*
%TO.C,C3*%
X74358000Y-69250000D02*
X74358000Y-72990000D01*
X74358000Y-69250000D02*
X81598000Y-69250000D01*
X74358000Y-72990000D02*
X81598000Y-72990000D01*
X81598000Y-69250000D02*
X81598000Y-72990000D01*
%TO.C,U1*%
X105808000Y-79442000D02*
X105808000Y-115122000D01*
X105808000Y-115122000D02*
X111108000Y-115122000D01*
X107458000Y-79442000D02*
X105808000Y-79442000D01*
X111108000Y-79442000D02*
X109458000Y-79442000D01*
X111108000Y-115122000D02*
X111108000Y-79442000D01*
X107458000Y-79442000D02*
G75*
G03*
X109458000Y-79442000I1000000J0D01*
G01*
D13*
%TO.C,J7*%
X157749998Y-83382000D02*
X157749998Y-91882000D01*
X146749998Y-83382000D02*
X157749998Y-83382000D01*
X157749998Y-91882000D02*
X146749998Y-91882000D01*
X146749998Y-91882000D02*
X146749998Y-83382000D01*
D12*
%TO.C,R1*%
X70009000Y-127662000D02*
X76549000Y-127662000D01*
X70009000Y-127992000D02*
X70009000Y-127662000D01*
X70009000Y-130072000D02*
X70009000Y-130402000D01*
X70009000Y-130402000D02*
X76549000Y-130402000D01*
X76549000Y-127662000D02*
X76549000Y-127992000D01*
X76549000Y-130402000D02*
X76549000Y-130072000D01*
D13*
%TO.C,J13*%
X129345000Y-147994000D02*
X120845000Y-147994000D01*
X129345000Y-136994000D02*
X129345000Y-147994000D01*
X120845000Y-147994000D02*
X120845000Y-136994000D01*
X120845000Y-136994000D02*
X129345000Y-136994000D01*
D12*
%TO.C,R2*%
X141025000Y-55672000D02*
X141355000Y-55672000D01*
X143765000Y-55672000D02*
X143435000Y-55672000D01*
X141025000Y-49132000D02*
X141025000Y-55672000D01*
X141355000Y-49132000D02*
X141025000Y-49132000D01*
X143435000Y-49132000D02*
X143765000Y-49132000D01*
X143765000Y-49132000D02*
X143765000Y-55672000D01*
D13*
%TO.C,J5*%
X130854000Y-56300000D02*
X122354000Y-56300000D01*
X130854000Y-45300000D02*
X130854000Y-56300000D01*
X122354000Y-56300000D02*
X122354000Y-45300000D01*
X122354000Y-45300000D02*
X130854000Y-45300000D01*
%TD*%
M02*
