  0
SECTION
  2
HEADER
  9
$ANGBASE
  50
0.0
  9
$ANGDIR
  70
1
  9
$MEASUREMENT
  70
1
  0
ENDSEC
  0
SECTION
  2
TABLES
  0
TABLE
  2
LTYPE
  70
4
  0
LTYPE
  5
40F
  2
CONTINUOUS
  70
0
  3
Solid line
  72
65
  73
0
  40
0.0
  0
LTYPE
  5
410
  2
DASHDOT
 70
0
  3
Dash Dot ____ _ ____ _
 72
65
 73
4
 40
2.0
 49
1.25
 49
-0.25
 49
0.25
 49
-0.25
  0
LTYPE
  5
411
  2
DASHED
 70
0
  3
Dashed __ __ __ __ __
 72
65
 73
2
 40
0.75
 49
0.5
 49
-0.25
  0
LTYPE
  5
43B
  2
DOTTED
 70
0
  3
Dotted .  .  .  .
 72
65
 73
2
 40
0.2
 49
0.0
 49
-0.2
  0
ENDTAB
  0
TABLE
  2
STYLE
  70
4
  0
STYLE
  2
KICAD
  70
0
  40
0
  41
1
  42
1
  50
0
  71
0
  3
isocp.shx
  0
STYLE
  2
KICADB
  70
0
  40
0
  41
1
  42
1
  50
0
  71
0
  3
isocp.shx
  0
STYLE
  2
KICADI
  70
0
  40
0
  41
1
  42
1
  50
15
  71
0
  3
isocp.shx
  0
STYLE
  2
KICADBI
  70
0
  40
0
  41
1
  42
1
  50
15
  71
0
  3
isocp.shx
  0
ENDTAB
  0
TABLE
  2
LAYER
  70
1
  0
LAYER
  2
BLACK
  70
0
  62
7
  6
CONTINUOUS
  0
ENDTAB
  0
ENDSEC
  0
SECTION
  2
ENTITIES
0
LINE
8
BLACK
6
CONTINUOUS
10
57.023
20
-148.336
11
49.657
21
-140.97
0
LINE
8
BLACK
6
CONTINUOUS
10
158.115
20
-140.97
11
150.749
21
-148.336
0
LINE
8
BLACK
6
CONTINUOUS
10
57.023
20
-44.958
11
134.747
21
-44.958
0
LINE
8
BLACK
6
CONTINUOUS
10
134.747
20
-44.958
11
158.115
21
-44.958
0
LINE
8
BLACK
6
CONTINUOUS
10
158.115
20
-140.97
11
158.115
21
-44.958
0
LINE
8
BLACK
6
CONTINUOUS
10
49.657
20
-140.97
11
49.657
21
-52.324
0
LINE
8
BLACK
6
CONTINUOUS
10
57.023
20
-44.958
11
49.657
21
-52.324
0
LINE
8
BLACK
6
CONTINUOUS
10
150.749
20
-148.336
11
57.023
21
-148.336
0
LINE
8
BLACK
6
CONTINUOUS
10
124.768
20
-100.702
11
125.168
21
-101.102
0
LINE
8
BLACK
6
CONTINUOUS
10
125.168
20
-100.702
11
124.768
21
-101.102
0
LINE
8
BLACK
6
CONTINUOUS
10
126.165
20
-100.702
11
126.565
21
-101.102
0
LINE
8
BLACK
6
CONTINUOUS
10
126.565
20
-100.702
11
126.165
21
-101.102
0
CIRCLE
8
BLACK
10
55.118
20
-129.794
40
0.3
0
CIRCLE
8
BLACK
10
82.677
20
-92.122
40
0.3
0
CIRCLE
8
BLACK
10
85.344
20
-95.758
40
0.3
0
CIRCLE
8
BLACK
10
96.901
20
-92.075
40
0.3
0
CIRCLE
8
BLACK
10
107.696
20
-99.06
40
0.3
0
CIRCLE
8
BLACK
10
108.331
20
-91.821
40
0.3
0
CIRCLE
8
BLACK
10
120.396
20
-59.944
40
0.3
0
CIRCLE
8
BLACK
10
120.396
20
-67.945
40
0.3
0
CIRCLE
8
BLACK
10
122.174
20
-72.517
40
0.3
0
CIRCLE
8
BLACK
10
126.174
20
-69.6595
40
0.3
0
LINE
8
BLACK
6
CONTINUOUS
10
69.469
20
-128.632
11
69.469
21
-129.432
0
LINE
8
BLACK
6
CONTINUOUS
10
69.069
20
-129.032
11
69.869
21
-129.032
0
LINE
8
BLACK
6
CONTINUOUS
10
75.453
20
-76.4758
11
75.453
21
-77.2758
0
LINE
8
BLACK
6
CONTINUOUS
10
75.053
20
-76.8758
11
75.853
21
-76.8758
0
LINE
8
BLACK
6
CONTINUOUS
10
75.453
20
-84.0958
11
75.453
21
-84.8958
0
LINE
8
BLACK
6
CONTINUOUS
10
75.053
20
-84.4958
11
75.853
21
-84.4958
0
LINE
8
BLACK
6
CONTINUOUS
10
75.478
20
-70.72
11
75.478
21
-71.52
0
LINE
8
BLACK
6
CONTINUOUS
10
75.078
20
-71.12
11
75.878
21
-71.12
0
LINE
8
BLACK
6
CONTINUOUS
10
77.089
20
-128.632
11
77.089
21
-129.432
0
LINE
8
BLACK
6
CONTINUOUS
10
76.689
20
-129.032
11
77.489
21
-129.032
0
LINE
8
BLACK
6
CONTINUOUS
10
77.993
20
-76.4758
11
77.993
21
-77.2758
0
LINE
8
BLACK
6
CONTINUOUS
10
77.593
20
-76.8758
11
78.393
21
-76.8758
0
LINE
8
BLACK
6
CONTINUOUS
10
77.993
20
-84.0958
11
77.993
21
-84.8958
0
LINE
8
BLACK
6
CONTINUOUS
10
77.593
20
-84.4958
11
78.393
21
-84.4958
0
LINE
8
BLACK
6
CONTINUOUS
10
80.478
20
-70.72
11
80.478
21
-71.52
0
LINE
8
BLACK
6
CONTINUOUS
10
80.078
20
-71.12
11
80.878
21
-71.12
0
LINE
8
BLACK
6
CONTINUOUS
10
80.533
20
-76.4758
11
80.533
21
-77.2758
0
LINE
8
BLACK
6
CONTINUOUS
10
80.133
20
-76.8758
11
80.933
21
-76.8758
0
LINE
8
BLACK
6
CONTINUOUS
10
80.533
20
-84.0958
11
80.533
21
-84.8958
0
LINE
8
BLACK
6
CONTINUOUS
10
80.133
20
-84.4958
11
80.933
21
-84.4958
0
LINE
8
BLACK
6
CONTINUOUS
10
82.042
20
-89.342
11
82.042
21
-90.142
0
LINE
8
BLACK
6
CONTINUOUS
10
81.642
20
-89.742
11
82.442
21
-89.742
0
LINE
8
BLACK
6
CONTINUOUS
10
82.042
20
-94.342
11
82.042
21
-95.142
0
LINE
8
BLACK
6
CONTINUOUS
10
81.642
20
-94.742
11
82.442
21
-94.742
0
LINE
8
BLACK
6
CONTINUOUS
10
83.073
20
-76.4758
11
83.073
21
-77.2758
0
LINE
8
BLACK
6
CONTINUOUS
10
82.673
20
-76.8758
11
83.473
21
-76.8758
0
LINE
8
BLACK
6
CONTINUOUS
10
83.073
20
-84.0958
11
83.073
21
-84.8958
0
LINE
8
BLACK
6
CONTINUOUS
10
82.673
20
-84.4958
11
83.473
21
-84.4958
0
LINE
8
BLACK
6
CONTINUOUS
10
84.328
20
-108.232
11
84.328
21
-109.032
0
LINE
8
BLACK
6
CONTINUOUS
10
83.928
20
-108.632
11
84.728
21
-108.632
0
LINE
8
BLACK
6
CONTINUOUS
10
84.328
20
-110.772
11
84.328
21
-111.572
0
LINE
8
BLACK
6
CONTINUOUS
10
83.928
20
-111.172
11
84.728
21
-111.172
0
LINE
8
BLACK
6
CONTINUOUS
10
84.328
20
-113.312
11
84.328
21
-114.112
0
LINE
8
BLACK
6
CONTINUOUS
10
83.928
20
-113.712
11
84.728
21
-113.712
0
LINE
8
BLACK
6
CONTINUOUS
10
84.328
20
-115.852
11
84.328
21
-116.652
0
LINE
8
BLACK
6
CONTINUOUS
10
83.928
20
-116.252
11
84.728
21
-116.252
0
LINE
8
BLACK
6
CONTINUOUS
10
84.328
20
-118.392
11
84.328
21
-119.192
0
LINE
8
BLACK
6
CONTINUOUS
10
83.928
20
-118.792
11
84.728
21
-118.792
0
LINE
8
BLACK
6
CONTINUOUS
10
84.328
20
-120.932
11
84.328
21
-121.732
0
LINE
8
BLACK
6
CONTINUOUS
10
83.928
20
-121.332
11
84.728
21
-121.332
0
LINE
8
BLACK
6
CONTINUOUS
10
84.328
20
-123.472
11
84.328
21
-124.272
0
LINE
8
BLACK
6
CONTINUOUS
10
83.928
20
-123.872
11
84.728
21
-123.872
0
LINE
8
BLACK
6
CONTINUOUS
10
84.328
20
-126.012
11
84.328
21
-126.812
0
LINE
8
BLACK
6
CONTINUOUS
10
83.928
20
-126.412
11
84.728
21
-126.412
0
LINE
8
BLACK
6
CONTINUOUS
10
84.328
20
-128.552
11
84.328
21
-129.352
0
LINE
8
BLACK
6
CONTINUOUS
10
83.928
20
-128.952
11
84.728
21
-128.952
0
LINE
8
BLACK
6
CONTINUOUS
10
84.328
20
-131.092
11
84.328
21
-131.892
0
LINE
8
BLACK
6
CONTINUOUS
10
83.928
20
-131.492
11
84.728
21
-131.492
0
LINE
8
BLACK
6
CONTINUOUS
10
84.328
20
-133.632
11
84.328
21
-134.432
0
LINE
8
BLACK
6
CONTINUOUS
10
83.928
20
-134.032
11
84.728
21
-134.032
0
LINE
8
BLACK
6
CONTINUOUS
10
84.328
20
-136.172
11
84.328
21
-136.972
0
LINE
8
BLACK
6
CONTINUOUS
10
83.928
20
-136.572
11
84.728
21
-136.572
0
LINE
8
BLACK
6
CONTINUOUS
10
84.328
20
-138.712
11
84.328
21
-139.512
0
LINE
8
BLACK
6
CONTINUOUS
10
83.928
20
-139.112
11
84.728
21
-139.112
0
LINE
8
BLACK
6
CONTINUOUS
10
84.328
20
-141.252
11
84.328
21
-142.052
0
LINE
8
BLACK
6
CONTINUOUS
10
83.928
20
-141.652
11
84.728
21
-141.652
0
LINE
8
BLACK
6
CONTINUOUS
10
85.613
20
-76.4758
11
85.613
21
-77.2758
0
LINE
8
BLACK
6
CONTINUOUS
10
85.213
20
-76.8758
11
86.013
21
-76.8758
0
LINE
8
BLACK
6
CONTINUOUS
10
85.613
20
-84.0958
11
85.613
21
-84.8958
0
LINE
8
BLACK
6
CONTINUOUS
10
85.213
20
-84.4958
11
86.013
21
-84.4958
0
LINE
8
BLACK
6
CONTINUOUS
10
88.153
20
-76.4758
11
88.153
21
-77.2758
0
LINE
8
BLACK
6
CONTINUOUS
10
87.753
20
-76.8758
11
88.553
21
-76.8758
0
LINE
8
BLACK
6
CONTINUOUS
10
88.153
20
-84.0958
11
88.153
21
-84.8958
0
LINE
8
BLACK
6
CONTINUOUS
10
87.753
20
-84.4958
11
88.553
21
-84.4958
0
LINE
8
BLACK
6
CONTINUOUS
10
90.693
20
-76.4758
11
90.693
21
-77.2758
0
LINE
8
BLACK
6
CONTINUOUS
10
90.293
20
-76.8758
11
91.093
21
-76.8758
0
LINE
8
BLACK
6
CONTINUOUS
10
90.693
20
-84.0958
11
90.693
21
-84.8958
0
LINE
8
BLACK
6
CONTINUOUS
10
90.293
20
-84.4958
11
91.093
21
-84.4958
0
LINE
8
BLACK
6
CONTINUOUS
10
91.948
20
-108.232
11
91.948
21
-109.032
0
LINE
8
BLACK
6
CONTINUOUS
10
91.548
20
-108.632
11
92.348
21
-108.632
0
LINE
8
BLACK
6
CONTINUOUS
10
91.948
20
-110.772
11
91.948
21
-111.572
0
LINE
8
BLACK
6
CONTINUOUS
10
91.548
20
-111.172
11
92.348
21
-111.172
0
LINE
8
BLACK
6
CONTINUOUS
10
91.948
20
-113.312
11
91.948
21
-114.112
0
LINE
8
BLACK
6
CONTINUOUS
10
91.548
20
-113.712
11
92.348
21
-113.712
0
LINE
8
BLACK
6
CONTINUOUS
10
91.948
20
-115.852
11
91.948
21
-116.652
0
LINE
8
BLACK
6
CONTINUOUS
10
91.548
20
-116.252
11
92.348
21
-116.252
0
LINE
8
BLACK
6
CONTINUOUS
10
91.948
20
-118.392
11
91.948
21
-119.192
0
LINE
8
BLACK
6
CONTINUOUS
10
91.548
20
-118.792
11
92.348
21
-118.792
0
LINE
8
BLACK
6
CONTINUOUS
10
91.948
20
-120.932
11
91.948
21
-121.732
0
LINE
8
BLACK
6
CONTINUOUS
10
91.548
20
-121.332
11
92.348
21
-121.332
0
LINE
8
BLACK
6
CONTINUOUS
10
91.948
20
-123.472
11
91.948
21
-124.272
0
LINE
8
BLACK
6
CONTINUOUS
10
91.548
20
-123.872
11
92.348
21
-123.872
0
LINE
8
BLACK
6
CONTINUOUS
10
91.948
20
-126.012
11
91.948
21
-126.812
0
LINE
8
BLACK
6
CONTINUOUS
10
91.548
20
-126.412
11
92.348
21
-126.412
0
LINE
8
BLACK
6
CONTINUOUS
10
91.948
20
-128.552
11
91.948
21
-129.352
0
LINE
8
BLACK
6
CONTINUOUS
10
91.548
20
-128.952
11
92.348
21
-128.952
0
LINE
8
BLACK
6
CONTINUOUS
10
91.948
20
-131.092
11
91.948
21
-131.892
0
LINE
8
BLACK
6
CONTINUOUS
10
91.548
20
-131.492
11
92.348
21
-131.492
0
LINE
8
BLACK
6
CONTINUOUS
10
91.948
20
-133.632
11
91.948
21
-134.432
0
LINE
8
BLACK
6
CONTINUOUS
10
91.548
20
-134.032
11
92.348
21
-134.032
0
LINE
8
BLACK
6
CONTINUOUS
10
91.948
20
-136.172
11
91.948
21
-136.972
0
LINE
8
BLACK
6
CONTINUOUS
10
91.548
20
-136.572
11
92.348
21
-136.572
0
LINE
8
BLACK
6
CONTINUOUS
10
91.948
20
-138.712
11
91.948
21
-139.512
0
LINE
8
BLACK
6
CONTINUOUS
10
91.548
20
-139.112
11
92.348
21
-139.112
0
LINE
8
BLACK
6
CONTINUOUS
10
91.948
20
-141.252
11
91.948
21
-142.052
0
LINE
8
BLACK
6
CONTINUOUS
10
91.548
20
-141.652
11
92.348
21
-141.652
0
LINE
8
BLACK
6
CONTINUOUS
10
93.233
20
-76.4758
11
93.233
21
-77.2758
0
LINE
8
BLACK
6
CONTINUOUS
10
92.833
20
-76.8758
11
93.633
21
-76.8758
0
LINE
8
BLACK
6
CONTINUOUS
10
93.233
20
-84.0958
11
93.233
21
-84.8958
0
LINE
8
BLACK
6
CONTINUOUS
10
92.833
20
-84.4958
11
93.633
21
-84.4958
0
LINE
8
BLACK
6
CONTINUOUS
10
95.758
20
-133.632
11
95.758
21
-134.432
0
LINE
8
BLACK
6
CONTINUOUS
10
95.358
20
-134.032
11
96.158
21
-134.032
0
LINE
8
BLACK
6
CONTINUOUS
10
95.758
20
-138.632
11
95.758
21
-139.432
0
LINE
8
BLACK
6
CONTINUOUS
10
95.358
20
-139.032
11
96.158
21
-139.032
0
LINE
8
BLACK
6
CONTINUOUS
10
104.648
20
-80.372
11
104.648
21
-81.172
0
LINE
8
BLACK
6
CONTINUOUS
10
104.248
20
-80.772
11
105.048
21
-80.772
0
LINE
8
BLACK
6
CONTINUOUS
10
104.648
20
-82.912
11
104.648
21
-83.712
0
LINE
8
BLACK
6
CONTINUOUS
10
104.248
20
-83.312
11
105.048
21
-83.312
0
LINE
8
BLACK
6
CONTINUOUS
10
104.648
20
-85.452
11
104.648
21
-86.252
0
LINE
8
BLACK
6
CONTINUOUS
10
104.248
20
-85.852
11
105.048
21
-85.852
0
LINE
8
BLACK
6
CONTINUOUS
10
104.648
20
-87.992
11
104.648
21
-88.792
0
LINE
8
BLACK
6
CONTINUOUS
10
104.248
20
-88.392
11
105.048
21
-88.392
0
LINE
8
BLACK
6
CONTINUOUS
10
104.648
20
-90.532
11
104.648
21
-91.332
0
LINE
8
BLACK
6
CONTINUOUS
10
104.248
20
-90.932
11
105.048
21
-90.932
0
LINE
8
BLACK
6
CONTINUOUS
10
104.648
20
-93.072
11
104.648
21
-93.872
0
LINE
8
BLACK
6
CONTINUOUS
10
104.248
20
-93.472
11
105.048
21
-93.472
0
LINE
8
BLACK
6
CONTINUOUS
10
104.648
20
-95.612
11
104.648
21
-96.412
0
LINE
8
BLACK
6
CONTINUOUS
10
104.248
20
-96.012
11
105.048
21
-96.012
0
LINE
8
BLACK
6
CONTINUOUS
10
104.648
20
-98.152
11
104.648
21
-98.952
0
LINE
8
BLACK
6
CONTINUOUS
10
104.248
20
-98.552
11
105.048
21
-98.552
0
LINE
8
BLACK
6
CONTINUOUS
10
104.648
20
-100.692
11
104.648
21
-101.492
0
LINE
8
BLACK
6
CONTINUOUS
10
104.248
20
-101.092
11
105.048
21
-101.092
0
LINE
8
BLACK
6
CONTINUOUS
10
104.648
20
-103.232
11
104.648
21
-104.032
0
LINE
8
BLACK
6
CONTINUOUS
10
104.248
20
-103.632
11
105.048
21
-103.632
0
LINE
8
BLACK
6
CONTINUOUS
10
104.648
20
-105.772
11
104.648
21
-106.572
0
LINE
8
BLACK
6
CONTINUOUS
10
104.248
20
-106.172
11
105.048
21
-106.172
0
LINE
8
BLACK
6
CONTINUOUS
10
104.648
20
-108.312
11
104.648
21
-109.112
0
LINE
8
BLACK
6
CONTINUOUS
10
104.248
20
-108.712
11
105.048
21
-108.712
0
LINE
8
BLACK
6
CONTINUOUS
10
104.648
20
-110.852
11
104.648
21
-111.652
0
LINE
8
BLACK
6
CONTINUOUS
10
104.248
20
-111.252
11
105.048
21
-111.252
0
LINE
8
BLACK
6
CONTINUOUS
10
104.648
20
-113.392
11
104.648
21
-114.192
0
LINE
8
BLACK
6
CONTINUOUS
10
104.248
20
-113.792
11
105.048
21
-113.792
0
LINE
8
BLACK
6
CONTINUOUS
10
112.268
20
-80.372
11
112.268
21
-81.172
0
LINE
8
BLACK
6
CONTINUOUS
10
111.868
20
-80.772
11
112.668
21
-80.772
0
LINE
8
BLACK
6
CONTINUOUS
10
112.268
20
-82.912
11
112.268
21
-83.712
0
LINE
8
BLACK
6
CONTINUOUS
10
111.868
20
-83.312
11
112.668
21
-83.312
0
LINE
8
BLACK
6
CONTINUOUS
10
112.268
20
-85.452
11
112.268
21
-86.252
0
LINE
8
BLACK
6
CONTINUOUS
10
111.868
20
-85.852
11
112.668
21
-85.852
0
LINE
8
BLACK
6
CONTINUOUS
10
112.268
20
-87.992
11
112.268
21
-88.792
0
LINE
8
BLACK
6
CONTINUOUS
10
111.868
20
-88.392
11
112.668
21
-88.392
0
LINE
8
BLACK
6
CONTINUOUS
10
112.268
20
-90.532
11
112.268
21
-91.332
0
LINE
8
BLACK
6
CONTINUOUS
10
111.868
20
-90.932
11
112.668
21
-90.932
0
LINE
8
BLACK
6
CONTINUOUS
10
112.268
20
-93.072
11
112.268
21
-93.872
0
LINE
8
BLACK
6
CONTINUOUS
10
111.868
20
-93.472
11
112.668
21
-93.472
0
LINE
8
BLACK
6
CONTINUOUS
10
112.268
20
-95.612
11
112.268
21
-96.412
0
LINE
8
BLACK
6
CONTINUOUS
10
111.868
20
-96.012
11
112.668
21
-96.012
0
LINE
8
BLACK
6
CONTINUOUS
10
112.268
20
-98.152
11
112.268
21
-98.952
0
LINE
8
BLACK
6
CONTINUOUS
10
111.868
20
-98.552
11
112.668
21
-98.552
0
LINE
8
BLACK
6
CONTINUOUS
10
112.268
20
-100.692
11
112.268
21
-101.492
0
LINE
8
BLACK
6
CONTINUOUS
10
111.868
20
-101.092
11
112.668
21
-101.092
0
LINE
8
BLACK
6
CONTINUOUS
10
112.268
20
-103.232
11
112.268
21
-104.032
0
LINE
8
BLACK
6
CONTINUOUS
10
111.868
20
-103.632
11
112.668
21
-103.632
0
LINE
8
BLACK
6
CONTINUOUS
10
112.268
20
-105.772
11
112.268
21
-106.572
0
LINE
8
BLACK
6
CONTINUOUS
10
111.868
20
-106.172
11
112.668
21
-106.172
0
LINE
8
BLACK
6
CONTINUOUS
10
112.268
20
-108.312
11
112.268
21
-109.112
0
LINE
8
BLACK
6
CONTINUOUS
10
111.868
20
-108.712
11
112.668
21
-108.712
0
LINE
8
BLACK
6
CONTINUOUS
10
112.268
20
-110.852
11
112.268
21
-111.652
0
LINE
8
BLACK
6
CONTINUOUS
10
111.868
20
-111.252
11
112.668
21
-111.252
0
LINE
8
BLACK
6
CONTINUOUS
10
112.268
20
-113.392
11
112.268
21
-114.192
0
LINE
8
BLACK
6
CONTINUOUS
10
111.868
20
-113.792
11
112.668
21
-113.792
0
LINE
8
BLACK
6
CONTINUOUS
10
116.078
20
-105.772
11
116.078
21
-106.572
0
LINE
8
BLACK
6
CONTINUOUS
10
115.678
20
-106.172
11
116.478
21
-106.172
0
LINE
8
BLACK
6
CONTINUOUS
10
116.078
20
-110.772
11
116.078
21
-111.572
0
LINE
8
BLACK
6
CONTINUOUS
10
115.678
20
-111.172
11
116.478
21
-111.172
0
LINE
8
BLACK
6
CONTINUOUS
10
142.395
20
-48.192
11
142.395
21
-48.992
0
LINE
8
BLACK
6
CONTINUOUS
10
141.995
20
-48.592
11
142.795
21
-48.592
0
LINE
8
BLACK
6
CONTINUOUS
10
142.395
20
-55.812
11
142.395
21
-56.612
0
LINE
8
BLACK
6
CONTINUOUS
10
141.995
20
-56.212
11
142.795
21
-56.212
0
LINE
8
BLACK
6
CONTINUOUS
10
66.6247
20
-64.5343
11
66.6247
21
-63.9057
0
LINE
8
BLACK
6
CONTINUOUS
10
66.6247
20
-63.9057
11
65.9961
21
-63.9057
0
LINE
8
BLACK
6
CONTINUOUS
10
65.9961
20
-63.9057
11
65.9961
21
-64.5343
0
LINE
8
BLACK
6
CONTINUOUS
10
65.9961
20
-64.5343
11
66.6247
21
-64.5343
0
LINE
8
BLACK
6
CONTINUOUS
10
66.6247
20
-67.0743
11
66.6247
21
-66.4457
0
LINE
8
BLACK
6
CONTINUOUS
10
66.6247
20
-66.4457
11
65.9961
21
-66.4457
0
LINE
8
BLACK
6
CONTINUOUS
10
65.9961
20
-66.4457
11
65.9961
21
-67.0743
0
LINE
8
BLACK
6
CONTINUOUS
10
65.9961
20
-67.0743
11
66.6247
21
-67.0743
0
LINE
8
BLACK
6
CONTINUOUS
10
66.6247
20
-69.6143
11
66.6247
21
-68.9857
0
LINE
8
BLACK
6
CONTINUOUS
10
66.6247
20
-68.9857
11
65.9961
21
-68.9857
0
LINE
8
BLACK
6
CONTINUOUS
10
65.9961
20
-68.9857
11
65.9961
21
-69.6143
0
LINE
8
BLACK
6
CONTINUOUS
10
65.9961
20
-69.6143
11
66.6247
21
-69.6143
0
LINE
8
BLACK
6
CONTINUOUS
10
66.6247
20
-72.1543
11
66.6247
21
-71.5257
0
LINE
8
BLACK
6
CONTINUOUS
10
66.6247
20
-71.5257
11
65.9961
21
-71.5257
0
LINE
8
BLACK
6
CONTINUOUS
10
65.9961
20
-71.5257
11
65.9961
21
-72.1543
0
LINE
8
BLACK
6
CONTINUOUS
10
65.9961
20
-72.1543
11
66.6247
21
-72.1543
0
LINE
8
BLACK
6
CONTINUOUS
10
66.6247
20
-78.5043
11
66.6247
21
-77.8757
0
LINE
8
BLACK
6
CONTINUOUS
10
66.6247
20
-77.8757
11
65.9961
21
-77.8757
0
LINE
8
BLACK
6
CONTINUOUS
10
65.9961
20
-77.8757
11
65.9961
21
-78.5043
0
LINE
8
BLACK
6
CONTINUOUS
10
65.9961
20
-78.5043
11
66.6247
21
-78.5043
0
LINE
8
BLACK
6
CONTINUOUS
10
66.6247
20
-81.0443
11
66.6247
21
-80.4157
0
LINE
8
BLACK
6
CONTINUOUS
10
66.6247
20
-80.4157
11
65.9961
21
-80.4157
0
LINE
8
BLACK
6
CONTINUOUS
10
65.9961
20
-80.4157
11
65.9961
21
-81.0443
0
LINE
8
BLACK
6
CONTINUOUS
10
65.9961
20
-81.0443
11
66.6247
21
-81.0443
0
LINE
8
BLACK
6
CONTINUOUS
10
66.6247
20
-83.5843
11
66.6247
21
-82.9557
0
LINE
8
BLACK
6
CONTINUOUS
10
66.6247
20
-82.9557
11
65.9961
21
-82.9557
0
LINE
8
BLACK
6
CONTINUOUS
10
65.9961
20
-82.9557
11
65.9961
21
-83.5843
0
LINE
8
BLACK
6
CONTINUOUS
10
65.9961
20
-83.5843
11
66.6247
21
-83.5843
0
LINE
8
BLACK
6
CONTINUOUS
10
66.6247
20
-86.1243
11
66.6247
21
-85.4957
0
LINE
8
BLACK
6
CONTINUOUS
10
66.6247
20
-85.4957
11
65.9961
21
-85.4957
0
LINE
8
BLACK
6
CONTINUOUS
10
65.9961
20
-85.4957
11
65.9961
21
-86.1243
0
LINE
8
BLACK
6
CONTINUOUS
10
65.9961
20
-86.1243
11
66.6247
21
-86.1243
0
LINE
8
BLACK
6
CONTINUOUS
10
66.6247
20
-92.4743
11
66.6247
21
-91.8457
0
LINE
8
BLACK
6
CONTINUOUS
10
66.6247
20
-91.8457
11
65.9961
21
-91.8457
0
LINE
8
BLACK
6
CONTINUOUS
10
65.9961
20
-91.8457
11
65.9961
21
-92.4743
0
LINE
8
BLACK
6
CONTINUOUS
10
65.9961
20
-92.4743
11
66.6247
21
-92.4743
0
LINE
8
BLACK
6
CONTINUOUS
10
66.6247
20
-95.0143
11
66.6247
21
-94.3857
0
LINE
8
BLACK
6
CONTINUOUS
10
66.6247
20
-94.3857
11
65.9961
21
-94.3857
0
LINE
8
BLACK
6
CONTINUOUS
10
65.9961
20
-94.3857
11
65.9961
21
-95.0143
0
LINE
8
BLACK
6
CONTINUOUS
10
65.9961
20
-95.0143
11
66.6247
21
-95.0143
0
LINE
8
BLACK
6
CONTINUOUS
10
66.6247
20
-97.5543
11
66.6247
21
-96.9257
0
LINE
8
BLACK
6
CONTINUOUS
10
66.6247
20
-96.9257
11
65.9961
21
-96.9257
0
LINE
8
BLACK
6
CONTINUOUS
10
65.9961
20
-96.9257
11
65.9961
21
-97.5543
0
LINE
8
BLACK
6
CONTINUOUS
10
65.9961
20
-97.5543
11
66.6247
21
-97.5543
0
LINE
8
BLACK
6
CONTINUOUS
10
66.6247
20
-100.094
11
66.6247
21
-99.4657
0
LINE
8
BLACK
6
CONTINUOUS
10
66.6247
20
-99.4657
11
65.9961
21
-99.4657
0
LINE
8
BLACK
6
CONTINUOUS
10
65.9961
20
-99.4657
11
65.9961
21
-100.094
0
LINE
8
BLACK
6
CONTINUOUS
10
65.9961
20
-100.094
11
66.6247
21
-100.094
0
LINE
8
BLACK
6
CONTINUOUS
10
66.6247
20
-106.444
11
66.6247
21
-105.816
0
LINE
8
BLACK
6
CONTINUOUS
10
66.6247
20
-105.816
11
65.9961
21
-105.816
0
LINE
8
BLACK
6
CONTINUOUS
10
65.9961
20
-105.816
11
65.9961
21
-106.444
0
LINE
8
BLACK
6
CONTINUOUS
10
65.9961
20
-106.444
11
66.6247
21
-106.444
0
LINE
8
BLACK
6
CONTINUOUS
10
66.6247
20
-108.984
11
66.6247
21
-108.356
0
LINE
8
BLACK
6
CONTINUOUS
10
66.6247
20
-108.356
11
65.9961
21
-108.356
0
LINE
8
BLACK
6
CONTINUOUS
10
65.9961
20
-108.356
11
65.9961
21
-108.984
0
LINE
8
BLACK
6
CONTINUOUS
10
65.9961
20
-108.984
11
66.6247
21
-108.984
0
LINE
8
BLACK
6
CONTINUOUS
10
66.6247
20
-111.524
11
66.6247
21
-110.896
0
LINE
8
BLACK
6
CONTINUOUS
10
66.6247
20
-110.896
11
65.9961
21
-110.896
0
LINE
8
BLACK
6
CONTINUOUS
10
65.9961
20
-110.896
11
65.9961
21
-111.524
0
LINE
8
BLACK
6
CONTINUOUS
10
65.9961
20
-111.524
11
66.6247
21
-111.524
0
LINE
8
BLACK
6
CONTINUOUS
10
66.6247
20
-114.064
11
66.6247
21
-113.436
0
LINE
8
BLACK
6
CONTINUOUS
10
66.6247
20
-113.436
11
65.9961
21
-113.436
0
LINE
8
BLACK
6
CONTINUOUS
10
65.9961
20
-113.436
11
65.9961
21
-114.064
0
LINE
8
BLACK
6
CONTINUOUS
10
65.9961
20
-114.064
11
66.6247
21
-114.064
0
LINE
8
BLACK
6
CONTINUOUS
10
69.1647
20
-65.8043
11
69.1647
21
-65.1757
0
LINE
8
BLACK
6
CONTINUOUS
10
69.1647
20
-65.1757
11
68.5361
21
-65.1757
0
LINE
8
BLACK
6
CONTINUOUS
10
68.5361
20
-65.1757
11
68.5361
21
-65.8043
0
LINE
8
BLACK
6
CONTINUOUS
10
68.5361
20
-65.8043
11
69.1647
21
-65.8043
0
LINE
8
BLACK
6
CONTINUOUS
10
69.1647
20
-68.3443
11
69.1647
21
-67.7157
0
LINE
8
BLACK
6
CONTINUOUS
10
69.1647
20
-67.7157
11
68.5361
21
-67.7157
0
LINE
8
BLACK
6
CONTINUOUS
10
68.5361
20
-67.7157
11
68.5361
21
-68.3443
0
LINE
8
BLACK
6
CONTINUOUS
10
68.5361
20
-68.3443
11
69.1647
21
-68.3443
0
LINE
8
BLACK
6
CONTINUOUS
10
69.1647
20
-70.8843
11
69.1647
21
-70.2557
0
LINE
8
BLACK
6
CONTINUOUS
10
69.1647
20
-70.2557
11
68.5361
21
-70.2557
0
LINE
8
BLACK
6
CONTINUOUS
10
68.5361
20
-70.2557
11
68.5361
21
-70.8843
0
LINE
8
BLACK
6
CONTINUOUS
10
68.5361
20
-70.8843
11
69.1647
21
-70.8843
0
LINE
8
BLACK
6
CONTINUOUS
10
69.1647
20
-73.4243
11
69.1647
21
-72.7957
0
LINE
8
BLACK
6
CONTINUOUS
10
69.1647
20
-72.7957
11
68.5361
21
-72.7957
0
LINE
8
BLACK
6
CONTINUOUS
10
68.5361
20
-72.7957
11
68.5361
21
-73.4243
0
LINE
8
BLACK
6
CONTINUOUS
10
68.5361
20
-73.4243
11
69.1647
21
-73.4243
0
LINE
8
BLACK
6
CONTINUOUS
10
69.1647
20
-79.7743
11
69.1647
21
-79.1457
0
LINE
8
BLACK
6
CONTINUOUS
10
69.1647
20
-79.1457
11
68.5361
21
-79.1457
0
LINE
8
BLACK
6
CONTINUOUS
10
68.5361
20
-79.1457
11
68.5361
21
-79.7743
0
LINE
8
BLACK
6
CONTINUOUS
10
68.5361
20
-79.7743
11
69.1647
21
-79.7743
0
LINE
8
BLACK
6
CONTINUOUS
10
69.1647
20
-82.3143
11
69.1647
21
-81.6857
0
LINE
8
BLACK
6
CONTINUOUS
10
69.1647
20
-81.6857
11
68.5361
21
-81.6857
0
LINE
8
BLACK
6
CONTINUOUS
10
68.5361
20
-81.6857
11
68.5361
21
-82.3143
0
LINE
8
BLACK
6
CONTINUOUS
10
68.5361
20
-82.3143
11
69.1647
21
-82.3143
0
LINE
8
BLACK
6
CONTINUOUS
10
69.1647
20
-84.8543
11
69.1647
21
-84.2257
0
LINE
8
BLACK
6
CONTINUOUS
10
69.1647
20
-84.2257
11
68.5361
21
-84.2257
0
LINE
8
BLACK
6
CONTINUOUS
10
68.5361
20
-84.2257
11
68.5361
21
-84.8543
0
LINE
8
BLACK
6
CONTINUOUS
10
68.5361
20
-84.8543
11
69.1647
21
-84.8543
0
LINE
8
BLACK
6
CONTINUOUS
10
69.1647
20
-87.3943
11
69.1647
21
-86.7657
0
LINE
8
BLACK
6
CONTINUOUS
10
69.1647
20
-86.7657
11
68.5361
21
-86.7657
0
LINE
8
BLACK
6
CONTINUOUS
10
68.5361
20
-86.7657
11
68.5361
21
-87.3943
0
LINE
8
BLACK
6
CONTINUOUS
10
68.5361
20
-87.3943
11
69.1647
21
-87.3943
0
LINE
8
BLACK
6
CONTINUOUS
10
69.1647
20
-93.7443
11
69.1647
21
-93.1157
0
LINE
8
BLACK
6
CONTINUOUS
10
69.1647
20
-93.1157
11
68.5361
21
-93.1157
0
LINE
8
BLACK
6
CONTINUOUS
10
68.5361
20
-93.1157
11
68.5361
21
-93.7443
0
LINE
8
BLACK
6
CONTINUOUS
10
68.5361
20
-93.7443
11
69.1647
21
-93.7443
0
LINE
8
BLACK
6
CONTINUOUS
10
69.1647
20
-96.2843
11
69.1647
21
-95.6557
0
LINE
8
BLACK
6
CONTINUOUS
10
69.1647
20
-95.6557
11
68.5361
21
-95.6557
0
LINE
8
BLACK
6
CONTINUOUS
10
68.5361
20
-95.6557
11
68.5361
21
-96.2843
0
LINE
8
BLACK
6
CONTINUOUS
10
68.5361
20
-96.2843
11
69.1647
21
-96.2843
0
LINE
8
BLACK
6
CONTINUOUS
10
69.1647
20
-98.8243
11
69.1647
21
-98.1957
0
LINE
8
BLACK
6
CONTINUOUS
10
69.1647
20
-98.1957
11
68.5361
21
-98.1957
0
LINE
8
BLACK
6
CONTINUOUS
10
68.5361
20
-98.1957
11
68.5361
21
-98.8243
0
LINE
8
BLACK
6
CONTINUOUS
10
68.5361
20
-98.8243
11
69.1647
21
-98.8243
0
LINE
8
BLACK
6
CONTINUOUS
10
69.1647
20
-101.364
11
69.1647
21
-100.736
0
LINE
8
BLACK
6
CONTINUOUS
10
69.1647
20
-100.736
11
68.5361
21
-100.736
0
LINE
8
BLACK
6
CONTINUOUS
10
68.5361
20
-100.736
11
68.5361
21
-101.364
0
LINE
8
BLACK
6
CONTINUOUS
10
68.5361
20
-101.364
11
69.1647
21
-101.364
0
LINE
8
BLACK
6
CONTINUOUS
10
69.1647
20
-107.714
11
69.1647
21
-107.086
0
LINE
8
BLACK
6
CONTINUOUS
10
69.1647
20
-107.086
11
68.5361
21
-107.086
0
LINE
8
BLACK
6
CONTINUOUS
10
68.5361
20
-107.086
11
68.5361
21
-107.714
0
LINE
8
BLACK
6
CONTINUOUS
10
68.5361
20
-107.714
11
69.1647
21
-107.714
0
LINE
8
BLACK
6
CONTINUOUS
10
69.1647
20
-110.254
11
69.1647
21
-109.626
0
LINE
8
BLACK
6
CONTINUOUS
10
69.1647
20
-109.626
11
68.5361
21
-109.626
0
LINE
8
BLACK
6
CONTINUOUS
10
68.5361
20
-109.626
11
68.5361
21
-110.254
0
LINE
8
BLACK
6
CONTINUOUS
10
68.5361
20
-110.254
11
69.1647
21
-110.254
0
LINE
8
BLACK
6
CONTINUOUS
10
69.1647
20
-112.794
11
69.1647
21
-112.166
0
LINE
8
BLACK
6
CONTINUOUS
10
69.1647
20
-112.166
11
68.5361
21
-112.166
0
LINE
8
BLACK
6
CONTINUOUS
10
68.5361
20
-112.166
11
68.5361
21
-112.794
0
LINE
8
BLACK
6
CONTINUOUS
10
68.5361
20
-112.794
11
69.1647
21
-112.794
0
LINE
8
BLACK
6
CONTINUOUS
10
69.1647
20
-115.334
11
69.1647
21
-114.706
0
LINE
8
BLACK
6
CONTINUOUS
10
69.1647
20
-114.706
11
68.5361
21
-114.706
0
LINE
8
BLACK
6
CONTINUOUS
10
68.5361
20
-114.706
11
68.5361
21
-115.334
0
LINE
8
BLACK
6
CONTINUOUS
10
68.5361
20
-115.334
11
69.1647
21
-115.334
0
LINE
8
BLACK
6
CONTINUOUS
10
115.895
20
-48.902
11
116.395
21
-48.402
0
LINE
8
BLACK
6
CONTINUOUS
10
116.395
20
-48.402
11
115.895
21
-47.902
0
LINE
8
BLACK
6
CONTINUOUS
10
115.895
20
-47.902
11
115.395
21
-48.402
0
LINE
8
BLACK
6
CONTINUOUS
10
115.395
20
-48.402
11
115.895
21
-48.902
0
LINE
8
BLACK
6
CONTINUOUS
10
115.895
20
-53.902
11
116.395
21
-53.402
0
LINE
8
BLACK
6
CONTINUOUS
10
116.395
20
-53.402
11
115.895
21
-52.902
0
LINE
8
BLACK
6
CONTINUOUS
10
115.895
20
-52.902
11
115.395
21
-53.402
0
LINE
8
BLACK
6
CONTINUOUS
10
115.395
20
-53.402
11
115.895
21
-53.902
0
LINE
8
BLACK
6
CONTINUOUS
10
128.778
20
-63.746
11
129.278
21
-63.246
0
LINE
8
BLACK
6
CONTINUOUS
10
129.278
20
-63.246
11
128.778
21
-62.746
0
LINE
8
BLACK
6
CONTINUOUS
10
128.778
20
-62.746
11
128.278
21
-63.246
0
LINE
8
BLACK
6
CONTINUOUS
10
128.278
20
-63.246
11
128.778
21
-63.746
0
LINE
8
BLACK
6
CONTINUOUS
10
128.778
20
-66.286
11
129.278
21
-65.786
0
LINE
8
BLACK
6
CONTINUOUS
10
129.278
20
-65.786
11
128.778
21
-65.286
0
LINE
8
BLACK
6
CONTINUOUS
10
128.778
20
-65.286
11
128.278
21
-65.786
0
LINE
8
BLACK
6
CONTINUOUS
10
128.278
20
-65.786
11
128.778
21
-66.286
0
LINE
8
BLACK
6
CONTINUOUS
10
128.778
20
-68.826
11
129.278
21
-68.326
0
LINE
8
BLACK
6
CONTINUOUS
10
129.278
20
-68.326
11
128.778
21
-67.826
0
LINE
8
BLACK
6
CONTINUOUS
10
128.778
20
-67.826
11
128.278
21
-68.326
0
LINE
8
BLACK
6
CONTINUOUS
10
128.278
20
-68.326
11
128.778
21
-68.826
0
LINE
8
BLACK
6
CONTINUOUS
10
128.778
20
-71.366
11
129.278
21
-70.866
0
LINE
8
BLACK
6
CONTINUOUS
10
129.278
20
-70.866
11
128.778
21
-70.366
0
LINE
8
BLACK
6
CONTINUOUS
10
128.778
20
-70.366
11
128.278
21
-70.866
0
LINE
8
BLACK
6
CONTINUOUS
10
128.278
20
-70.866
11
128.778
21
-71.366
0
LINE
8
BLACK
6
CONTINUOUS
10
128.778
20
-73.906
11
129.278
21
-73.406
0
LINE
8
BLACK
6
CONTINUOUS
10
129.278
20
-73.406
11
128.778
21
-72.906
0
LINE
8
BLACK
6
CONTINUOUS
10
128.778
20
-72.906
11
128.278
21
-73.406
0
LINE
8
BLACK
6
CONTINUOUS
10
128.278
20
-73.406
11
128.778
21
-73.906
0
LINE
8
BLACK
6
CONTINUOUS
10
128.778
20
-76.446
11
129.278
21
-75.946
0
LINE
8
BLACK
6
CONTINUOUS
10
129.278
20
-75.946
11
128.778
21
-75.446
0
LINE
8
BLACK
6
CONTINUOUS
10
128.778
20
-75.446
11
128.278
21
-75.946
0
LINE
8
BLACK
6
CONTINUOUS
10
128.278
20
-75.946
11
128.778
21
-76.446
0
LINE
8
BLACK
6
CONTINUOUS
10
128.778
20
-78.986
11
129.278
21
-78.486
0
LINE
8
BLACK
6
CONTINUOUS
10
129.278
20
-78.486
11
128.778
21
-77.986
0
LINE
8
BLACK
6
CONTINUOUS
10
128.778
20
-77.986
11
128.278
21
-78.486
0
LINE
8
BLACK
6
CONTINUOUS
10
128.278
20
-78.486
11
128.778
21
-78.986
0
LINE
8
BLACK
6
CONTINUOUS
10
128.778
20
-81.526
11
129.278
21
-81.026
0
LINE
8
BLACK
6
CONTINUOUS
10
129.278
20
-81.026
11
128.778
21
-80.526
0
LINE
8
BLACK
6
CONTINUOUS
10
128.778
20
-80.526
11
128.278
21
-81.026
0
LINE
8
BLACK
6
CONTINUOUS
10
128.278
20
-81.026
11
128.778
21
-81.526
0
LINE
8
BLACK
6
CONTINUOUS
10
128.778
20
-84.066
11
129.278
21
-83.566
0
LINE
8
BLACK
6
CONTINUOUS
10
129.278
20
-83.566
11
128.778
21
-83.066
0
LINE
8
BLACK
6
CONTINUOUS
10
128.778
20
-83.066
11
128.278
21
-83.566
0
LINE
8
BLACK
6
CONTINUOUS
10
128.278
20
-83.566
11
128.778
21
-84.066
0
LINE
8
BLACK
6
CONTINUOUS
10
128.778
20
-86.606
11
129.278
21
-86.106
0
LINE
8
BLACK
6
CONTINUOUS
10
129.278
20
-86.106
11
128.778
21
-85.606
0
LINE
8
BLACK
6
CONTINUOUS
10
128.778
20
-85.606
11
128.278
21
-86.106
0
LINE
8
BLACK
6
CONTINUOUS
10
128.278
20
-86.106
11
128.778
21
-86.606
0
LINE
8
BLACK
6
CONTINUOUS
10
128.778
20
-89.146
11
129.278
21
-88.646
0
LINE
8
BLACK
6
CONTINUOUS
10
129.278
20
-88.646
11
128.778
21
-88.146
0
LINE
8
BLACK
6
CONTINUOUS
10
128.778
20
-88.146
11
128.278
21
-88.646
0
LINE
8
BLACK
6
CONTINUOUS
10
128.278
20
-88.646
11
128.778
21
-89.146
0
LINE
8
BLACK
6
CONTINUOUS
10
128.778
20
-91.686
11
129.278
21
-91.186
0
LINE
8
BLACK
6
CONTINUOUS
10
129.278
20
-91.186
11
128.778
21
-90.686
0
LINE
8
BLACK
6
CONTINUOUS
10
128.778
20
-90.686
11
128.278
21
-91.186
0
LINE
8
BLACK
6
CONTINUOUS
10
128.278
20
-91.186
11
128.778
21
-91.686
0
LINE
8
BLACK
6
CONTINUOUS
10
128.778
20
-94.226
11
129.278
21
-93.726
0
LINE
8
BLACK
6
CONTINUOUS
10
129.278
20
-93.726
11
128.778
21
-93.226
0
LINE
8
BLACK
6
CONTINUOUS
10
128.778
20
-93.226
11
128.278
21
-93.726
0
LINE
8
BLACK
6
CONTINUOUS
10
128.278
20
-93.726
11
128.778
21
-94.226
0
LINE
8
BLACK
6
CONTINUOUS
10
128.778
20
-96.766
11
129.278
21
-96.266
0
LINE
8
BLACK
6
CONTINUOUS
10
129.278
20
-96.266
11
128.778
21
-95.766
0
LINE
8
BLACK
6
CONTINUOUS
10
128.778
20
-95.766
11
128.278
21
-96.266
0
LINE
8
BLACK
6
CONTINUOUS
10
128.278
20
-96.266
11
128.778
21
-96.766
0
LINE
8
BLACK
6
CONTINUOUS
10
128.778
20
-99.306
11
129.278
21
-98.806
0
LINE
8
BLACK
6
CONTINUOUS
10
129.278
20
-98.806
11
128.778
21
-98.306
0
LINE
8
BLACK
6
CONTINUOUS
10
128.778
20
-98.306
11
128.278
21
-98.806
0
LINE
8
BLACK
6
CONTINUOUS
10
128.278
20
-98.806
11
128.778
21
-99.306
0
LINE
8
BLACK
6
CONTINUOUS
10
128.778
20
-101.846
11
129.278
21
-101.346
0
LINE
8
BLACK
6
CONTINUOUS
10
129.278
20
-101.346
11
128.778
21
-100.846
0
LINE
8
BLACK
6
CONTINUOUS
10
128.778
20
-100.846
11
128.278
21
-101.346
0
LINE
8
BLACK
6
CONTINUOUS
10
128.278
20
-101.346
11
128.778
21
-101.846
0
LINE
8
BLACK
6
CONTINUOUS
10
128.778
20
-104.386
11
129.278
21
-103.886
0
LINE
8
BLACK
6
CONTINUOUS
10
129.278
20
-103.886
11
128.778
21
-103.386
0
LINE
8
BLACK
6
CONTINUOUS
10
128.778
20
-103.386
11
128.278
21
-103.886
0
LINE
8
BLACK
6
CONTINUOUS
10
128.278
20
-103.886
11
128.778
21
-104.386
0
LINE
8
BLACK
6
CONTINUOUS
10
128.778
20
-106.926
11
129.278
21
-106.426
0
LINE
8
BLACK
6
CONTINUOUS
10
129.278
20
-106.426
11
128.778
21
-105.926
0
LINE
8
BLACK
6
CONTINUOUS
10
128.778
20
-105.926
11
128.278
21
-106.426
0
LINE
8
BLACK
6
CONTINUOUS
10
128.278
20
-106.426
11
128.778
21
-106.926
0
LINE
8
BLACK
6
CONTINUOUS
10
128.778
20
-109.466
11
129.278
21
-108.966
0
LINE
8
BLACK
6
CONTINUOUS
10
129.278
20
-108.966
11
128.778
21
-108.466
0
LINE
8
BLACK
6
CONTINUOUS
10
128.778
20
-108.466
11
128.278
21
-108.966
0
LINE
8
BLACK
6
CONTINUOUS
10
128.278
20
-108.966
11
128.778
21
-109.466
0
LINE
8
BLACK
6
CONTINUOUS
10
128.778
20
-112.006
11
129.278
21
-111.506
0
LINE
8
BLACK
6
CONTINUOUS
10
129.278
20
-111.506
11
128.778
21
-111.006
0
LINE
8
BLACK
6
CONTINUOUS
10
128.778
20
-111.006
11
128.278
21
-111.506
0
LINE
8
BLACK
6
CONTINUOUS
10
128.278
20
-111.506
11
128.778
21
-112.006
0
LINE
8
BLACK
6
CONTINUOUS
10
131.318
20
-63.746
11
131.818
21
-63.246
0
LINE
8
BLACK
6
CONTINUOUS
10
131.818
20
-63.246
11
131.318
21
-62.746
0
LINE
8
BLACK
6
CONTINUOUS
10
131.318
20
-62.746
11
130.818
21
-63.246
0
LINE
8
BLACK
6
CONTINUOUS
10
130.818
20
-63.246
11
131.318
21
-63.746
0
LINE
8
BLACK
6
CONTINUOUS
10
131.318
20
-66.286
11
131.818
21
-65.786
0
LINE
8
BLACK
6
CONTINUOUS
10
131.818
20
-65.786
11
131.318
21
-65.286
0
LINE
8
BLACK
6
CONTINUOUS
10
131.318
20
-65.286
11
130.818
21
-65.786
0
LINE
8
BLACK
6
CONTINUOUS
10
130.818
20
-65.786
11
131.318
21
-66.286
0
LINE
8
BLACK
6
CONTINUOUS
10
131.318
20
-68.826
11
131.818
21
-68.326
0
LINE
8
BLACK
6
CONTINUOUS
10
131.818
20
-68.326
11
131.318
21
-67.826
0
LINE
8
BLACK
6
CONTINUOUS
10
131.318
20
-67.826
11
130.818
21
-68.326
0
LINE
8
BLACK
6
CONTINUOUS
10
130.818
20
-68.326
11
131.318
21
-68.826
0
LINE
8
BLACK
6
CONTINUOUS
10
131.318
20
-71.366
11
131.818
21
-70.866
0
LINE
8
BLACK
6
CONTINUOUS
10
131.818
20
-70.866
11
131.318
21
-70.366
0
LINE
8
BLACK
6
CONTINUOUS
10
131.318
20
-70.366
11
130.818
21
-70.866
0
LINE
8
BLACK
6
CONTINUOUS
10
130.818
20
-70.866
11
131.318
21
-71.366
0
LINE
8
BLACK
6
CONTINUOUS
10
131.318
20
-73.906
11
131.818
21
-73.406
0
LINE
8
BLACK
6
CONTINUOUS
10
131.818
20
-73.406
11
131.318
21
-72.906
0
LINE
8
BLACK
6
CONTINUOUS
10
131.318
20
-72.906
11
130.818
21
-73.406
0
LINE
8
BLACK
6
CONTINUOUS
10
130.818
20
-73.406
11
131.318
21
-73.906
0
LINE
8
BLACK
6
CONTINUOUS
10
131.318
20
-76.446
11
131.818
21
-75.946
0
LINE
8
BLACK
6
CONTINUOUS
10
131.818
20
-75.946
11
131.318
21
-75.446
0
LINE
8
BLACK
6
CONTINUOUS
10
131.318
20
-75.446
11
130.818
21
-75.946
0
LINE
8
BLACK
6
CONTINUOUS
10
130.818
20
-75.946
11
131.318
21
-76.446
0
LINE
8
BLACK
6
CONTINUOUS
10
131.318
20
-78.986
11
131.818
21
-78.486
0
LINE
8
BLACK
6
CONTINUOUS
10
131.818
20
-78.486
11
131.318
21
-77.986
0
LINE
8
BLACK
6
CONTINUOUS
10
131.318
20
-77.986
11
130.818
21
-78.486
0
LINE
8
BLACK
6
CONTINUOUS
10
130.818
20
-78.486
11
131.318
21
-78.986
0
LINE
8
BLACK
6
CONTINUOUS
10
131.318
20
-81.526
11
131.818
21
-81.026
0
LINE
8
BLACK
6
CONTINUOUS
10
131.818
20
-81.026
11
131.318
21
-80.526
0
LINE
8
BLACK
6
CONTINUOUS
10
131.318
20
-80.526
11
130.818
21
-81.026
0
LINE
8
BLACK
6
CONTINUOUS
10
130.818
20
-81.026
11
131.318
21
-81.526
0
LINE
8
BLACK
6
CONTINUOUS
10
131.318
20
-84.066
11
131.818
21
-83.566
0
LINE
8
BLACK
6
CONTINUOUS
10
131.818
20
-83.566
11
131.318
21
-83.066
0
LINE
8
BLACK
6
CONTINUOUS
10
131.318
20
-83.066
11
130.818
21
-83.566
0
LINE
8
BLACK
6
CONTINUOUS
10
130.818
20
-83.566
11
131.318
21
-84.066
0
LINE
8
BLACK
6
CONTINUOUS
10
131.318
20
-86.606
11
131.818
21
-86.106
0
LINE
8
BLACK
6
CONTINUOUS
10
131.818
20
-86.106
11
131.318
21
-85.606
0
LINE
8
BLACK
6
CONTINUOUS
10
131.318
20
-85.606
11
130.818
21
-86.106
0
LINE
8
BLACK
6
CONTINUOUS
10
130.818
20
-86.106
11
131.318
21
-86.606
0
LINE
8
BLACK
6
CONTINUOUS
10
131.318
20
-89.146
11
131.818
21
-88.646
0
LINE
8
BLACK
6
CONTINUOUS
10
131.818
20
-88.646
11
131.318
21
-88.146
0
LINE
8
BLACK
6
CONTINUOUS
10
131.318
20
-88.146
11
130.818
21
-88.646
0
LINE
8
BLACK
6
CONTINUOUS
10
130.818
20
-88.646
11
131.318
21
-89.146
0
LINE
8
BLACK
6
CONTINUOUS
10
131.318
20
-91.686
11
131.818
21
-91.186
0
LINE
8
BLACK
6
CONTINUOUS
10
131.818
20
-91.186
11
131.318
21
-90.686
0
LINE
8
BLACK
6
CONTINUOUS
10
131.318
20
-90.686
11
130.818
21
-91.186
0
LINE
8
BLACK
6
CONTINUOUS
10
130.818
20
-91.186
11
131.318
21
-91.686
0
LINE
8
BLACK
6
CONTINUOUS
10
131.318
20
-94.226
11
131.818
21
-93.726
0
LINE
8
BLACK
6
CONTINUOUS
10
131.818
20
-93.726
11
131.318
21
-93.226
0
LINE
8
BLACK
6
CONTINUOUS
10
131.318
20
-93.226
11
130.818
21
-93.726
0
LINE
8
BLACK
6
CONTINUOUS
10
130.818
20
-93.726
11
131.318
21
-94.226
0
LINE
8
BLACK
6
CONTINUOUS
10
131.318
20
-96.766
11
131.818
21
-96.266
0
LINE
8
BLACK
6
CONTINUOUS
10
131.818
20
-96.266
11
131.318
21
-95.766
0
LINE
8
BLACK
6
CONTINUOUS
10
131.318
20
-95.766
11
130.818
21
-96.266
0
LINE
8
BLACK
6
CONTINUOUS
10
130.818
20
-96.266
11
131.318
21
-96.766
0
LINE
8
BLACK
6
CONTINUOUS
10
131.318
20
-99.306
11
131.818
21
-98.806
0
LINE
8
BLACK
6
CONTINUOUS
10
131.818
20
-98.806
11
131.318
21
-98.306
0
LINE
8
BLACK
6
CONTINUOUS
10
131.318
20
-98.306
11
130.818
21
-98.806
0
LINE
8
BLACK
6
CONTINUOUS
10
130.818
20
-98.806
11
131.318
21
-99.306
0
LINE
8
BLACK
6
CONTINUOUS
10
131.318
20
-101.846
11
131.818
21
-101.346
0
LINE
8
BLACK
6
CONTINUOUS
10
131.818
20
-101.346
11
131.318
21
-100.846
0
LINE
8
BLACK
6
CONTINUOUS
10
131.318
20
-100.846
11
130.818
21
-101.346
0
LINE
8
BLACK
6
CONTINUOUS
10
130.818
20
-101.346
11
131.318
21
-101.846
0
LINE
8
BLACK
6
CONTINUOUS
10
131.318
20
-104.386
11
131.818
21
-103.886
0
LINE
8
BLACK
6
CONTINUOUS
10
131.818
20
-103.886
11
131.318
21
-103.386
0
LINE
8
BLACK
6
CONTINUOUS
10
131.318
20
-103.386
11
130.818
21
-103.886
0
LINE
8
BLACK
6
CONTINUOUS
10
130.818
20
-103.886
11
131.318
21
-104.386
0
LINE
8
BLACK
6
CONTINUOUS
10
131.318
20
-106.926
11
131.818
21
-106.426
0
LINE
8
BLACK
6
CONTINUOUS
10
131.818
20
-106.426
11
131.318
21
-105.926
0
LINE
8
BLACK
6
CONTINUOUS
10
131.318
20
-105.926
11
130.818
21
-106.426
0
LINE
8
BLACK
6
CONTINUOUS
10
130.818
20
-106.426
11
131.318
21
-106.926
0
LINE
8
BLACK
6
CONTINUOUS
10
131.318
20
-109.466
11
131.818
21
-108.966
0
LINE
8
BLACK
6
CONTINUOUS
10
131.818
20
-108.966
11
131.318
21
-108.466
0
LINE
8
BLACK
6
CONTINUOUS
10
131.318
20
-108.466
11
130.818
21
-108.966
0
LINE
8
BLACK
6
CONTINUOUS
10
130.818
20
-108.966
11
131.318
21
-109.466
0
LINE
8
BLACK
6
CONTINUOUS
10
131.318
20
-112.006
11
131.818
21
-111.506
0
LINE
8
BLACK
6
CONTINUOUS
10
131.818
20
-111.506
11
131.318
21
-111.006
0
LINE
8
BLACK
6
CONTINUOUS
10
131.318
20
-111.006
11
130.818
21
-111.506
0
LINE
8
BLACK
6
CONTINUOUS
10
130.818
20
-111.506
11
131.318
21
-112.006
0
LINE
8
BLACK
6
CONTINUOUS
10
122.795
20
-139.444
11
123.895
21
-140.544
0
LINE
8
BLACK
6
CONTINUOUS
10
123.895
20
-139.444
11
122.795
21
-140.544
0
CIRCLE
8
BLACK
10
123.345
20
-139.994
40
0.55
0
LINE
8
BLACK
6
CONTINUOUS
10
122.795
20
-144.444
11
123.895
21
-145.544
0
LINE
8
BLACK
6
CONTINUOUS
10
123.895
20
-144.444
11
122.795
21
-145.544
0
CIRCLE
8
BLACK
10
123.345
20
-144.994
40
0.55
0
LINE
8
BLACK
6
CONTINUOUS
10
124.304
20
-47.75
11
125.404
21
-48.85
0
LINE
8
BLACK
6
CONTINUOUS
10
125.404
20
-47.75
11
124.304
21
-48.85
0
CIRCLE
8
BLACK
10
124.854
20
-48.3
40
0.55
0
LINE
8
BLACK
6
CONTINUOUS
10
124.304
20
-52.75
11
125.404
21
-53.85
0
LINE
8
BLACK
6
CONTINUOUS
10
125.404
20
-52.75
11
124.304
21
-53.85
0
CIRCLE
8
BLACK
10
124.854
20
-53.3
40
0.55
0
LINE
8
BLACK
6
CONTINUOUS
10
126.295
20
-139.444
11
127.395
21
-140.544
0
LINE
8
BLACK
6
CONTINUOUS
10
127.395
20
-139.444
11
126.295
21
-140.544
0
CIRCLE
8
BLACK
10
126.845
20
-139.994
40
0.55
0
LINE
8
BLACK
6
CONTINUOUS
10
126.295
20
-144.444
11
127.395
21
-145.544
0
LINE
8
BLACK
6
CONTINUOUS
10
127.395
20
-144.444
11
126.295
21
-145.544
0
CIRCLE
8
BLACK
10
126.845
20
-144.994
40
0.55
0
LINE
8
BLACK
6
CONTINUOUS
10
127.804
20
-47.75
11
128.904
21
-48.85
0
LINE
8
BLACK
6
CONTINUOUS
10
128.904
20
-47.75
11
127.804
21
-48.85
0
CIRCLE
8
BLACK
10
128.354
20
-48.3
40
0.55
0
LINE
8
BLACK
6
CONTINUOUS
10
127.804
20
-52.75
11
128.904
21
-53.85
0
LINE
8
BLACK
6
CONTINUOUS
10
128.904
20
-52.75
11
127.804
21
-53.85
0
CIRCLE
8
BLACK
10
128.354
20
-53.3
40
0.55
0
LINE
8
BLACK
6
CONTINUOUS
10
129.795
20
-139.444
11
130.895
21
-140.544
0
LINE
8
BLACK
6
CONTINUOUS
10
130.895
20
-139.444
11
129.795
21
-140.544
0
CIRCLE
8
BLACK
10
130.345
20
-139.994
40
0.55
0
LINE
8
BLACK
6
CONTINUOUS
10
129.795
20
-144.444
11
130.895
21
-145.544
0
LINE
8
BLACK
6
CONTINUOUS
10
130.895
20
-144.444
11
129.795
21
-145.544
0
CIRCLE
8
BLACK
10
130.345
20
-144.994
40
0.55
0
LINE
8
BLACK
6
CONTINUOUS
10
131.304
20
-47.75
11
132.404
21
-48.85
0
LINE
8
BLACK
6
CONTINUOUS
10
132.404
20
-47.75
11
131.304
21
-48.85
0
CIRCLE
8
BLACK
10
131.854
20
-48.3
40
0.55
0
LINE
8
BLACK
6
CONTINUOUS
10
131.304
20
-52.75
11
132.404
21
-53.85
0
LINE
8
BLACK
6
CONTINUOUS
10
132.404
20
-52.75
11
131.304
21
-53.85
0
CIRCLE
8
BLACK
10
131.854
20
-53.3
40
0.55
0
LINE
8
BLACK
6
CONTINUOUS
10
133.295
20
-139.444
11
134.395
21
-140.544
0
LINE
8
BLACK
6
CONTINUOUS
10
134.395
20
-139.444
11
133.295
21
-140.544
0
CIRCLE
8
BLACK
10
133.845
20
-139.994
40
0.55
0
LINE
8
BLACK
6
CONTINUOUS
10
133.295
20
-144.444
11
134.395
21
-145.544
0
LINE
8
BLACK
6
CONTINUOUS
10
134.395
20
-144.444
11
133.295
21
-145.544
0
CIRCLE
8
BLACK
10
133.845
20
-144.994
40
0.55
0
LINE
8
BLACK
6
CONTINUOUS
10
134.804
20
-47.75
11
135.904
21
-48.85
0
LINE
8
BLACK
6
CONTINUOUS
10
135.904
20
-47.75
11
134.804
21
-48.85
0
CIRCLE
8
BLACK
10
135.354
20
-48.3
40
0.55
0
LINE
8
BLACK
6
CONTINUOUS
10
134.804
20
-52.75
11
135.904
21
-53.85
0
LINE
8
BLACK
6
CONTINUOUS
10
135.904
20
-52.75
11
134.804
21
-53.85
0
CIRCLE
8
BLACK
10
135.354
20
-53.3
40
0.55
0
LINE
8
BLACK
6
CONTINUOUS
10
137.499
20
-59.902
11
138.599
21
-61.002
0
LINE
8
BLACK
6
CONTINUOUS
10
138.599
20
-59.902
11
137.499
21
-61.002
0
CIRCLE
8
BLACK
10
138.049
20
-60.452
40
0.55
0
LINE
8
BLACK
6
CONTINUOUS
10
137.499
20
-62.442
11
138.599
21
-63.542
0
LINE
8
BLACK
6
CONTINUOUS
10
138.599
20
-62.442
11
137.499
21
-63.542
0
CIRCLE
8
BLACK
10
138.049
20
-62.992
40
0.55
0
LINE
8
BLACK
6
CONTINUOUS
10
137.499
20
-64.982
11
138.599
21
-66.082
0
LINE
8
BLACK
6
CONTINUOUS
10
138.599
20
-64.982
11
137.499
21
-66.082
0
CIRCLE
8
BLACK
10
138.049
20
-65.532
40
0.55
0
LINE
8
BLACK
6
CONTINUOUS
10
145.765
20
-55.352
11
146.865
21
-56.452
0
LINE
8
BLACK
6
CONTINUOUS
10
146.865
20
-55.352
11
145.765
21
-56.452
0
CIRCLE
8
BLACK
10
146.315
20
-55.902
40
0.55
0
LINE
8
BLACK
6
CONTINUOUS
10
149.15
20
-126.332
11
150.25
21
-127.432
0
LINE
8
BLACK
6
CONTINUOUS
10
150.25
20
-126.332
11
149.15
21
-127.432
0
CIRCLE
8
BLACK
10
149.7
20
-126.882
40
0.55
0
LINE
8
BLACK
6
CONTINUOUS
10
149.15
20
-129.832
11
150.25
21
-130.932
0
LINE
8
BLACK
6
CONTINUOUS
10
150.25
20
-129.832
11
149.15
21
-130.932
0
CIRCLE
8
BLACK
10
149.7
20
-130.382
40
0.55
0
LINE
8
BLACK
6
CONTINUOUS
10
149.15
20
-134.082
11
150.25
21
-135.182
0
LINE
8
BLACK
6
CONTINUOUS
10
150.25
20
-134.082
11
149.15
21
-135.182
0
CIRCLE
8
BLACK
10
149.7
20
-134.632
40
0.55
0
LINE
8
BLACK
6
CONTINUOUS
10
149.15
20
-137.582
11
150.25
21
-138.682
0
LINE
8
BLACK
6
CONTINUOUS
10
150.25
20
-137.582
11
149.15
21
-138.682
0
CIRCLE
8
BLACK
10
149.7
20
-138.132
40
0.55
0
LINE
8
BLACK
6
CONTINUOUS
10
149.195
20
-47.352
11
150.295
21
-48.452
0
LINE
8
BLACK
6
CONTINUOUS
10
150.295
20
-47.352
11
149.195
21
-48.452
0
CIRCLE
8
BLACK
10
149.745
20
-47.902
40
0.55
0
LINE
8
BLACK
6
CONTINUOUS
10
149.195
20
-50.852
11
150.295
21
-51.952
0
LINE
8
BLACK
6
CONTINUOUS
10
150.295
20
-50.852
11
149.195
21
-51.952
0
CIRCLE
8
BLACK
10
149.745
20
-51.402
40
0.55
0
LINE
8
BLACK
6
CONTINUOUS
10
149.2
20
-85.332
11
150.3
21
-86.432
0
LINE
8
BLACK
6
CONTINUOUS
10
150.3
20
-85.332
11
149.2
21
-86.432
0
CIRCLE
8
BLACK
10
149.75
20
-85.882
40
0.55
0
LINE
8
BLACK
6
CONTINUOUS
10
149.2
20
-88.832
11
150.3
21
-89.932
0
LINE
8
BLACK
6
CONTINUOUS
10
150.3
20
-88.832
11
149.2
21
-89.932
0
CIRCLE
8
BLACK
10
149.75
20
-89.382
40
0.55
0
LINE
8
BLACK
6
CONTINUOUS
10
149.2
20
-71.332
11
150.3
21
-72.432
0
LINE
8
BLACK
6
CONTINUOUS
10
150.3
20
-71.332
11
149.2
21
-72.432
0
CIRCLE
8
BLACK
10
149.75
20
-71.882
40
0.55
0
LINE
8
BLACK
6
CONTINUOUS
10
149.2
20
-74.832
11
150.3
21
-75.932
0
LINE
8
BLACK
6
CONTINUOUS
10
150.3
20
-74.832
11
149.2
21
-75.932
0
CIRCLE
8
BLACK
10
149.75
20
-75.382
40
0.55
0
LINE
8
BLACK
6
CONTINUOUS
10
149.2
20
-78.332
11
150.3
21
-79.432
0
LINE
8
BLACK
6
CONTINUOUS
10
150.3
20
-78.332
11
149.2
21
-79.432
0
CIRCLE
8
BLACK
10
149.75
20
-78.882
40
0.55
0
LINE
8
BLACK
6
CONTINUOUS
10
149.2
20
-81.832
11
150.3
21
-82.932
0
LINE
8
BLACK
6
CONTINUOUS
10
150.3
20
-81.832
11
149.2
21
-82.932
0
CIRCLE
8
BLACK
10
149.75
20
-82.382
40
0.55
0
LINE
8
BLACK
6
CONTINUOUS
10
149.2
20
-92.332
11
150.3
21
-93.432
0
LINE
8
BLACK
6
CONTINUOUS
10
150.3
20
-92.332
11
149.2
21
-93.432
0
CIRCLE
8
BLACK
10
149.75
20
-92.882
40
0.55
0
LINE
8
BLACK
6
CONTINUOUS
10
149.2
20
-95.832
11
150.3
21
-96.932
0
LINE
8
BLACK
6
CONTINUOUS
10
150.3
20
-95.832
11
149.2
21
-96.932
0
CIRCLE
8
BLACK
10
149.75
20
-96.382
40
0.55
0
LINE
8
BLACK
6
CONTINUOUS
10
149.2
20
-102.332
11
150.3
21
-103.432
0
LINE
8
BLACK
6
CONTINUOUS
10
150.3
20
-102.332
11
149.2
21
-103.432
0
CIRCLE
8
BLACK
10
149.75
20
-102.882
40
0.55
0
LINE
8
BLACK
6
CONTINUOUS
10
149.2
20
-105.832
11
150.3
21
-106.932
0
LINE
8
BLACK
6
CONTINUOUS
10
150.3
20
-105.832
11
149.2
21
-106.932
0
CIRCLE
8
BLACK
10
149.75
20
-106.382
40
0.55
0
LINE
8
BLACK
6
CONTINUOUS
10
149.2
20
-109.332
11
150.3
21
-110.432
0
LINE
8
BLACK
6
CONTINUOUS
10
150.3
20
-109.332
11
149.2
21
-110.432
0
CIRCLE
8
BLACK
10
149.75
20
-109.882
40
0.55
0
LINE
8
BLACK
6
CONTINUOUS
10
149.2
20
-112.832
11
150.3
21
-113.932
0
LINE
8
BLACK
6
CONTINUOUS
10
150.3
20
-112.832
11
149.2
21
-113.932
0
CIRCLE
8
BLACK
10
149.75
20
-113.382
40
0.55
0
LINE
8
BLACK
6
CONTINUOUS
10
149.2
20
-116.332
11
150.3
21
-117.432
0
LINE
8
BLACK
6
CONTINUOUS
10
150.3
20
-116.332
11
149.2
21
-117.432
0
CIRCLE
8
BLACK
10
149.75
20
-116.882
40
0.55
0
LINE
8
BLACK
6
CONTINUOUS
10
149.2
20
-119.832
11
150.3
21
-120.932
0
LINE
8
BLACK
6
CONTINUOUS
10
150.3
20
-119.832
11
149.2
21
-120.932
0
CIRCLE
8
BLACK
10
149.75
20
-120.382
40
0.55
0
LINE
8
BLACK
6
CONTINUOUS
10
154.15
20
-126.332
11
155.25
21
-127.432
0
LINE
8
BLACK
6
CONTINUOUS
10
155.25
20
-126.332
11
154.15
21
-127.432
0
CIRCLE
8
BLACK
10
154.7
20
-126.882
40
0.55
0
LINE
8
BLACK
6
CONTINUOUS
10
154.15
20
-129.832
11
155.25
21
-130.932
0
LINE
8
BLACK
6
CONTINUOUS
10
155.25
20
-129.832
11
154.15
21
-130.932
0
CIRCLE
8
BLACK
10
154.7
20
-130.382
40
0.55
0
LINE
8
BLACK
6
CONTINUOUS
10
154.15
20
-134.082
11
155.25
21
-135.182
0
LINE
8
BLACK
6
CONTINUOUS
10
155.25
20
-134.082
11
154.15
21
-135.182
0
CIRCLE
8
BLACK
10
154.7
20
-134.632
40
0.55
0
LINE
8
BLACK
6
CONTINUOUS
10
154.15
20
-137.582
11
155.25
21
-138.682
0
LINE
8
BLACK
6
CONTINUOUS
10
155.25
20
-137.582
11
154.15
21
-138.682
0
CIRCLE
8
BLACK
10
154.7
20
-138.132
40
0.55
0
LINE
8
BLACK
6
CONTINUOUS
10
154.195
20
-47.352
11
155.295
21
-48.452
0
LINE
8
BLACK
6
CONTINUOUS
10
155.295
20
-47.352
11
154.195
21
-48.452
0
CIRCLE
8
BLACK
10
154.745
20
-47.902
40
0.55
0
LINE
8
BLACK
6
CONTINUOUS
10
154.195
20
-50.852
11
155.295
21
-51.952
0
LINE
8
BLACK
6
CONTINUOUS
10
155.295
20
-50.852
11
154.195
21
-51.952
0
CIRCLE
8
BLACK
10
154.745
20
-51.402
40
0.55
0
LINE
8
BLACK
6
CONTINUOUS
10
154.2
20
-85.332
11
155.3
21
-86.432
0
LINE
8
BLACK
6
CONTINUOUS
10
155.3
20
-85.332
11
154.2
21
-86.432
0
CIRCLE
8
BLACK
10
154.75
20
-85.882
40
0.55
0
LINE
8
BLACK
6
CONTINUOUS
10
154.2
20
-88.832
11
155.3
21
-89.932
0
LINE
8
BLACK
6
CONTINUOUS
10
155.3
20
-88.832
11
154.2
21
-89.932
0
CIRCLE
8
BLACK
10
154.75
20
-89.382
40
0.55
0
LINE
8
BLACK
6
CONTINUOUS
10
154.2
20
-71.332
11
155.3
21
-72.432
0
LINE
8
BLACK
6
CONTINUOUS
10
155.3
20
-71.332
11
154.2
21
-72.432
0
CIRCLE
8
BLACK
10
154.75
20
-71.882
40
0.55
0
LINE
8
BLACK
6
CONTINUOUS
10
154.2
20
-74.832
11
155.3
21
-75.932
0
LINE
8
BLACK
6
CONTINUOUS
10
155.3
20
-74.832
11
154.2
21
-75.932
0
CIRCLE
8
BLACK
10
154.75
20
-75.382
40
0.55
0
LINE
8
BLACK
6
CONTINUOUS
10
154.2
20
-78.332
11
155.3
21
-79.432
0
LINE
8
BLACK
6
CONTINUOUS
10
155.3
20
-78.332
11
154.2
21
-79.432
0
CIRCLE
8
BLACK
10
154.75
20
-78.882
40
0.55
0
LINE
8
BLACK
6
CONTINUOUS
10
154.2
20
-81.832
11
155.3
21
-82.932
0
LINE
8
BLACK
6
CONTINUOUS
10
155.3
20
-81.832
11
154.2
21
-82.932
0
CIRCLE
8
BLACK
10
154.75
20
-82.382
40
0.55
0
LINE
8
BLACK
6
CONTINUOUS
10
154.2
20
-92.332
11
155.3
21
-93.432
0
LINE
8
BLACK
6
CONTINUOUS
10
155.3
20
-92.332
11
154.2
21
-93.432
0
CIRCLE
8
BLACK
10
154.75
20
-92.882
40
0.55
0
LINE
8
BLACK
6
CONTINUOUS
10
154.2
20
-95.832
11
155.3
21
-96.932
0
LINE
8
BLACK
6
CONTINUOUS
10
155.3
20
-95.832
11
154.2
21
-96.932
0
CIRCLE
8
BLACK
10
154.75
20
-96.382
40
0.55
0
LINE
8
BLACK
6
CONTINUOUS
10
154.2
20
-102.332
11
155.3
21
-103.432
0
LINE
8
BLACK
6
CONTINUOUS
10
155.3
20
-102.332
11
154.2
21
-103.432
0
CIRCLE
8
BLACK
10
154.75
20
-102.882
40
0.55
0
LINE
8
BLACK
6
CONTINUOUS
10
154.2
20
-105.832
11
155.3
21
-106.932
0
LINE
8
BLACK
6
CONTINUOUS
10
155.3
20
-105.832
11
154.2
21
-106.932
0
CIRCLE
8
BLACK
10
154.75
20
-106.382
40
0.55
0
LINE
8
BLACK
6
CONTINUOUS
10
154.2
20
-109.332
11
155.3
21
-110.432
0
LINE
8
BLACK
6
CONTINUOUS
10
155.3
20
-109.332
11
154.2
21
-110.432
0
CIRCLE
8
BLACK
10
154.75
20
-109.882
40
0.55
0
LINE
8
BLACK
6
CONTINUOUS
10
154.2
20
-112.832
11
155.3
21
-113.932
0
LINE
8
BLACK
6
CONTINUOUS
10
155.3
20
-112.832
11
154.2
21
-113.932
0
CIRCLE
8
BLACK
10
154.75
20
-113.382
40
0.55
0
LINE
8
BLACK
6
CONTINUOUS
10
154.2
20
-116.332
11
155.3
21
-117.432
0
LINE
8
BLACK
6
CONTINUOUS
10
155.3
20
-116.332
11
154.2
21
-117.432
0
CIRCLE
8
BLACK
10
154.75
20
-116.882
40
0.55
0
LINE
8
BLACK
6
CONTINUOUS
10
154.2
20
-119.832
11
155.3
21
-120.932
0
LINE
8
BLACK
6
CONTINUOUS
10
155.3
20
-119.832
11
154.2
21
-120.932
0
CIRCLE
8
BLACK
10
154.75
20
-120.382
40
0.55
0
LINE
8
BLACK
6
CONTINUOUS
10
155.925
20
-55.352
11
157.025
21
-56.452
0
LINE
8
BLACK
6
CONTINUOUS
10
157.025
20
-55.352
11
155.925
21
-56.452
0
CIRCLE
8
BLACK
10
156.475
20
-55.902
40
0.55
0
LINE
8
BLACK
6
CONTINUOUS
10
52.0832
20
-151.511
11
52.0832
21
-149.511
0
LINE
8
BLACK
6
CONTINUOUS
10
52.0832
20
-149.511
11
52.5594
21
-149.511
0
LINE
8
BLACK
6
CONTINUOUS
10
52.5594
20
-149.511
11
52.8451
21
-149.606
0
LINE
8
BLACK
6
CONTINUOUS
10
52.8451
20
-149.606
11
53.0356
21
-149.797
0
LINE
8
BLACK
6
CONTINUOUS
10
53.0356
20
-149.797
11
53.1308
21
-149.987
0
LINE
8
BLACK
6
CONTINUOUS
10
53.1308
20
-149.987
11
53.226
21
-150.368
0
LINE
8
BLACK
6
CONTINUOUS
10
53.226
20
-150.368
11
53.226
21
-150.654
0
LINE
8
BLACK
6
CONTINUOUS
10
53.226
20
-150.654
11
53.1308
21
-151.035
0
LINE
8
BLACK
6
CONTINUOUS
10
53.1308
20
-151.035
11
53.0356
21
-151.226
0
LINE
8
BLACK
6
CONTINUOUS
10
53.0356
20
-151.226
11
52.8451
21
-151.416
0
LINE
8
BLACK
6
CONTINUOUS
10
52.8451
20
-151.416
11
52.5594
21
-151.511
0
LINE
8
BLACK
6
CONTINUOUS
10
52.5594
20
-151.511
11
52.0832
21
-151.511
0
LINE
8
BLACK
6
CONTINUOUS
10
54.0832
20
-151.511
11
54.0832
21
-150.178
0
LINE
8
BLACK
6
CONTINUOUS
10
54.0832
20
-150.559
11
54.1784
21
-150.368
0
LINE
8
BLACK
6
CONTINUOUS
10
54.1784
20
-150.368
11
54.2737
21
-150.273
0
LINE
8
BLACK
6
CONTINUOUS
10
54.2737
20
-150.273
11
54.4641
21
-150.178
0
LINE
8
BLACK
6
CONTINUOUS
10
54.4641
20
-150.178
11
54.6546
21
-150.178
0
LINE
8
BLACK
6
CONTINUOUS
10
55.3213
20
-151.511
11
55.3213
21
-150.178
0
LINE
8
BLACK
6
CONTINUOUS
10
55.3213
20
-149.511
11
55.226
21
-149.606
0
LINE
8
BLACK
6
CONTINUOUS
10
55.226
20
-149.606
11
55.3213
21
-149.702
0
LINE
8
BLACK
6
CONTINUOUS
10
55.3213
20
-149.702
11
55.4165
21
-149.606
0
LINE
8
BLACK
6
CONTINUOUS
10
55.4165
20
-149.606
11
55.3213
21
-149.511
0
LINE
8
BLACK
6
CONTINUOUS
10
55.3213
20
-149.511
11
55.3213
21
-149.702
0
LINE
8
BLACK
6
CONTINUOUS
10
56.5594
20
-151.511
11
56.3689
21
-151.416
0
LINE
8
BLACK
6
CONTINUOUS
10
56.3689
20
-151.416
11
56.2737
21
-151.226
0
LINE
8
BLACK
6
CONTINUOUS
10
56.2737
20
-151.226
11
56.2737
21
-149.511
0
LINE
8
BLACK
6
CONTINUOUS
10
57.607
20
-151.511
11
57.4165
21
-151.416
0
LINE
8
BLACK
6
CONTINUOUS
10
57.4165
20
-151.416
11
57.3213
21
-151.226
0
LINE
8
BLACK
6
CONTINUOUS
10
57.3213
20
-151.226
11
57.3213
21
-149.511
0
LINE
8
BLACK
6
CONTINUOUS
10
59.8927
20
-151.511
11
59.8927
21
-149.511
0
LINE
8
BLACK
6
CONTINUOUS
10
59.8927
20
-149.511
11
60.5594
21
-150.94
0
LINE
8
BLACK
6
CONTINUOUS
10
60.5594
20
-150.94
11
61.226
21
-149.511
0
LINE
8
BLACK
6
CONTINUOUS
10
61.226
20
-149.511
11
61.226
21
-151.511
0
LINE
8
BLACK
6
CONTINUOUS
10
63.0356
20
-151.511
11
63.0356
21
-150.464
0
LINE
8
BLACK
6
CONTINUOUS
10
63.0356
20
-150.464
11
62.9403
21
-150.273
0
LINE
8
BLACK
6
CONTINUOUS
10
62.9403
20
-150.273
11
62.7499
21
-150.178
0
LINE
8
BLACK
6
CONTINUOUS
10
62.7499
20
-150.178
11
62.3689
21
-150.178
0
LINE
8
BLACK
6
CONTINUOUS
10
62.3689
20
-150.178
11
62.1784
21
-150.273
0
LINE
8
BLACK
6
CONTINUOUS
10
63.0356
20
-151.416
11
62.8451
21
-151.511
0
LINE
8
BLACK
6
CONTINUOUS
10
62.8451
20
-151.511
11
62.3689
21
-151.511
0
LINE
8
BLACK
6
CONTINUOUS
10
62.3689
20
-151.511
11
62.1784
21
-151.416
0
LINE
8
BLACK
6
CONTINUOUS
10
62.1784
20
-151.416
11
62.0832
21
-151.226
0
LINE
8
BLACK
6
CONTINUOUS
10
62.0832
20
-151.226
11
62.0832
21
-151.035
0
LINE
8
BLACK
6
CONTINUOUS
10
62.0832
20
-151.035
11
62.1784
21
-150.845
0
LINE
8
BLACK
6
CONTINUOUS
10
62.1784
20
-150.845
11
62.3689
21
-150.749
0
LINE
8
BLACK
6
CONTINUOUS
10
62.3689
20
-150.749
11
62.8451
21
-150.749
0
LINE
8
BLACK
6
CONTINUOUS
10
62.8451
20
-150.749
11
63.0356
21
-150.654
0
LINE
8
BLACK
6
CONTINUOUS
10
63.988
20
-150.178
11
63.988
21
-152.178
0
LINE
8
BLACK
6
CONTINUOUS
10
63.988
20
-150.273
11
64.1784
21
-150.178
0
LINE
8
BLACK
6
CONTINUOUS
10
64.1784
20
-150.178
11
64.5594
21
-150.178
0
LINE
8
BLACK
6
CONTINUOUS
10
64.5594
20
-150.178
11
64.7499
21
-150.273
0
LINE
8
BLACK
6
CONTINUOUS
10
64.7499
20
-150.273
11
64.8451
21
-150.368
0
LINE
8
BLACK
6
CONTINUOUS
10
64.8451
20
-150.368
11
64.9403
21
-150.559
0
LINE
8
BLACK
6
CONTINUOUS
10
64.9403
20
-150.559
11
64.9403
21
-151.13
0
LINE
8
BLACK
6
CONTINUOUS
10
64.9403
20
-151.13
11
64.8451
21
-151.321
0
LINE
8
BLACK
6
CONTINUOUS
10
64.8451
20
-151.321
11
64.7499
21
-151.416
0
LINE
8
BLACK
6
CONTINUOUS
10
64.7499
20
-151.416
11
64.5594
21
-151.511
0
LINE
8
BLACK
6
CONTINUOUS
10
64.5594
20
-151.511
11
64.1784
21
-151.511
0
LINE
8
BLACK
6
CONTINUOUS
10
64.1784
20
-151.511
11
63.988
21
-151.416
0
LINE
8
BLACK
6
CONTINUOUS
10
65.7975
20
-151.321
11
65.8927
21
-151.416
0
LINE
8
BLACK
6
CONTINUOUS
10
65.8927
20
-151.416
11
65.7975
21
-151.511
0
LINE
8
BLACK
6
CONTINUOUS
10
65.7975
20
-151.511
11
65.7022
21
-151.416
0
LINE
8
BLACK
6
CONTINUOUS
10
65.7022
20
-151.416
11
65.7975
21
-151.321
0
LINE
8
BLACK
6
CONTINUOUS
10
65.7975
20
-151.321
11
65.7975
21
-151.511
0
LINE
8
BLACK
6
CONTINUOUS
10
65.7975
20
-150.273
11
65.8927
21
-150.368
0
LINE
8
BLACK
6
CONTINUOUS
10
65.8927
20
-150.368
11
65.7975
21
-150.464
0
LINE
8
BLACK
6
CONTINUOUS
10
65.7975
20
-150.464
11
65.7022
21
-150.368
0
LINE
8
BLACK
6
CONTINUOUS
10
65.7022
20
-150.368
11
65.7975
21
-150.273
0
LINE
8
BLACK
6
CONTINUOUS
10
65.7975
20
-150.273
11
65.7975
21
-150.464
0
LINE
8
BLACK
6
CONTINUOUS
10
49.207
20
-154.586
11
49.607
21
-154.986
0
LINE
8
BLACK
6
CONTINUOUS
10
49.607
20
-154.586
11
49.207
21
-154.986
0
LINE
8
BLACK
6
CONTINUOUS
10
52.4641
20
-153.711
11
52.6546
21
-153.711
0
LINE
8
BLACK
6
CONTINUOUS
10
52.6546
20
-153.711
11
52.8451
21
-153.806
0
LINE
8
BLACK
6
CONTINUOUS
10
52.8451
20
-153.806
11
52.9403
21
-153.902
0
LINE
8
BLACK
6
CONTINUOUS
10
52.9403
20
-153.902
11
53.0356
21
-154.092
0
LINE
8
BLACK
6
CONTINUOUS
10
53.0356
20
-154.092
11
53.1308
21
-154.473
0
LINE
8
BLACK
6
CONTINUOUS
10
53.1308
20
-154.473
11
53.1308
21
-154.949
0
LINE
8
BLACK
6
CONTINUOUS
10
53.1308
20
-154.949
11
53.0356
21
-155.33
0
LINE
8
BLACK
6
CONTINUOUS
10
53.0356
20
-155.33
11
52.9403
21
-155.521
0
LINE
8
BLACK
6
CONTINUOUS
10
52.9403
20
-155.521
11
52.8451
21
-155.616
0
LINE
8
BLACK
6
CONTINUOUS
10
52.8451
20
-155.616
11
52.6546
21
-155.711
0
LINE
8
BLACK
6
CONTINUOUS
10
52.6546
20
-155.711
11
52.4641
21
-155.711
0
LINE
8
BLACK
6
CONTINUOUS
10
52.4641
20
-155.711
11
52.2737
21
-155.616
0
LINE
8
BLACK
6
CONTINUOUS
10
52.2737
20
-155.616
11
52.1784
21
-155.521
0
LINE
8
BLACK
6
CONTINUOUS
10
52.1784
20
-155.521
11
52.0832
21
-155.33
0
LINE
8
BLACK
6
CONTINUOUS
10
52.0832
20
-155.33
11
51.988
21
-154.949
0
LINE
8
BLACK
6
CONTINUOUS
10
51.988
20
-154.949
11
51.988
21
-154.473
0
LINE
8
BLACK
6
CONTINUOUS
10
51.988
20
-154.473
11
52.0832
21
-154.092
0
LINE
8
BLACK
6
CONTINUOUS
10
52.0832
20
-154.092
11
52.1784
21
-153.902
0
LINE
8
BLACK
6
CONTINUOUS
10
52.1784
20
-153.902
11
52.2737
21
-153.806
0
LINE
8
BLACK
6
CONTINUOUS
10
52.2737
20
-153.806
11
52.4641
21
-153.711
0
LINE
8
BLACK
6
CONTINUOUS
10
53.988
20
-155.521
11
54.0832
21
-155.616
0
LINE
8
BLACK
6
CONTINUOUS
10
54.0832
20
-155.616
11
53.988
21
-155.711
0
LINE
8
BLACK
6
CONTINUOUS
10
53.988
20
-155.711
11
53.8927
21
-155.616
0
LINE
8
BLACK
6
CONTINUOUS
10
53.8927
20
-155.616
11
53.988
21
-155.521
0
LINE
8
BLACK
6
CONTINUOUS
10
53.988
20
-155.521
11
53.988
21
-155.711
0
LINE
8
BLACK
6
CONTINUOUS
10
55.7975
20
-154.378
11
55.7975
21
-155.711
0
LINE
8
BLACK
6
CONTINUOUS
10
55.3213
20
-153.616
11
54.8451
21
-155.045
0
LINE
8
BLACK
6
CONTINUOUS
10
54.8451
20
-155.045
11
56.0832
21
-155.045
0
LINE
8
BLACK
6
CONTINUOUS
10
57.226
20
-153.711
11
57.4165
21
-153.711
0
LINE
8
BLACK
6
CONTINUOUS
10
57.4165
20
-153.711
11
57.607
21
-153.806
0
LINE
8
BLACK
6
CONTINUOUS
10
57.607
20
-153.806
11
57.7022
21
-153.902
0
LINE
8
BLACK
6
CONTINUOUS
10
57.7022
20
-153.902
11
57.7975
21
-154.092
0
LINE
8
BLACK
6
CONTINUOUS
10
57.7975
20
-154.092
11
57.8927
21
-154.473
0
LINE
8
BLACK
6
CONTINUOUS
10
57.8927
20
-154.473
11
57.8927
21
-154.949
0
LINE
8
BLACK
6
CONTINUOUS
10
57.8927
20
-154.949
11
57.7975
21
-155.33
0
LINE
8
BLACK
6
CONTINUOUS
10
57.7975
20
-155.33
11
57.7022
21
-155.521
0
LINE
8
BLACK
6
CONTINUOUS
10
57.7022
20
-155.521
11
57.607
21
-155.616
0
LINE
8
BLACK
6
CONTINUOUS
10
57.607
20
-155.616
11
57.4165
21
-155.711
0
LINE
8
BLACK
6
CONTINUOUS
10
57.4165
20
-155.711
11
57.226
21
-155.711
0
LINE
8
BLACK
6
CONTINUOUS
10
57.226
20
-155.711
11
57.0356
21
-155.616
0
LINE
8
BLACK
6
CONTINUOUS
10
57.0356
20
-155.616
11
56.9403
21
-155.521
0
LINE
8
BLACK
6
CONTINUOUS
10
56.9403
20
-155.521
11
56.8451
21
-155.33
0
LINE
8
BLACK
6
CONTINUOUS
10
56.8451
20
-155.33
11
56.7499
21
-154.949
0
LINE
8
BLACK
6
CONTINUOUS
10
56.7499
20
-154.949
11
56.7499
21
-154.473
0
LINE
8
BLACK
6
CONTINUOUS
10
56.7499
20
-154.473
11
56.8451
21
-154.092
0
LINE
8
BLACK
6
CONTINUOUS
10
56.8451
20
-154.092
11
56.9403
21
-153.902
0
LINE
8
BLACK
6
CONTINUOUS
10
56.9403
20
-153.902
11
57.0356
21
-153.806
0
LINE
8
BLACK
6
CONTINUOUS
10
57.0356
20
-153.806
11
57.226
21
-153.711
0
LINE
8
BLACK
6
CONTINUOUS
10
59.1308
20
-153.711
11
59.3213
21
-153.711
0
LINE
8
BLACK
6
CONTINUOUS
10
59.3213
20
-153.711
11
59.5118
21
-153.806
0
LINE
8
BLACK
6
CONTINUOUS
10
59.5118
20
-153.806
11
59.607
21
-153.902
0
LINE
8
BLACK
6
CONTINUOUS
10
59.607
20
-153.902
11
59.7022
21
-154.092
0
LINE
8
BLACK
6
CONTINUOUS
10
59.7022
20
-154.092
11
59.7975
21
-154.473
0
LINE
8
BLACK
6
CONTINUOUS
10
59.7975
20
-154.473
11
59.7975
21
-154.949
0
LINE
8
BLACK
6
CONTINUOUS
10
59.7975
20
-154.949
11
59.7022
21
-155.33
0
LINE
8
BLACK
6
CONTINUOUS
10
59.7022
20
-155.33
11
59.607
21
-155.521
0
LINE
8
BLACK
6
CONTINUOUS
10
59.607
20
-155.521
11
59.5118
21
-155.616
0
LINE
8
BLACK
6
CONTINUOUS
10
59.5118
20
-155.616
11
59.3213
21
-155.711
0
LINE
8
BLACK
6
CONTINUOUS
10
59.3213
20
-155.711
11
59.1308
21
-155.711
0
LINE
8
BLACK
6
CONTINUOUS
10
59.1308
20
-155.711
11
58.9403
21
-155.616
0
LINE
8
BLACK
6
CONTINUOUS
10
58.9403
20
-155.616
11
58.8451
21
-155.521
0
LINE
8
BLACK
6
CONTINUOUS
10
58.8451
20
-155.521
11
58.7499
21
-155.33
0
LINE
8
BLACK
6
CONTINUOUS
10
58.7499
20
-155.33
11
58.6546
21
-154.949
0
LINE
8
BLACK
6
CONTINUOUS
10
58.6546
20
-154.949
11
58.6546
21
-154.473
0
LINE
8
BLACK
6
CONTINUOUS
10
58.6546
20
-154.473
11
58.7499
21
-154.092
0
LINE
8
BLACK
6
CONTINUOUS
10
58.7499
20
-154.092
11
58.8451
21
-153.902
0
LINE
8
BLACK
6
CONTINUOUS
10
58.8451
20
-153.902
11
58.9403
21
-153.806
0
LINE
8
BLACK
6
CONTINUOUS
10
58.9403
20
-153.806
11
59.1308
21
-153.711
0
LINE
8
BLACK
6
CONTINUOUS
10
60.6546
20
-155.711
11
60.6546
21
-154.378
0
LINE
8
BLACK
6
CONTINUOUS
10
60.6546
20
-154.568
11
60.7499
21
-154.473
0
LINE
8
BLACK
6
CONTINUOUS
10
60.7499
20
-154.473
11
60.9403
21
-154.378
0
LINE
8
BLACK
6
CONTINUOUS
10
60.9403
20
-154.378
11
61.226
21
-154.378
0
LINE
8
BLACK
6
CONTINUOUS
10
61.226
20
-154.378
11
61.4165
21
-154.473
0
LINE
8
BLACK
6
CONTINUOUS
10
61.4165
20
-154.473
11
61.5118
21
-154.664
0
LINE
8
BLACK
6
CONTINUOUS
10
61.5118
20
-154.664
11
61.5118
21
-155.711
0
LINE
8
BLACK
6
CONTINUOUS
10
61.5118
20
-154.664
11
61.607
21
-154.473
0
LINE
8
BLACK
6
CONTINUOUS
10
61.607
20
-154.473
11
61.7975
21
-154.378
0
LINE
8
BLACK
6
CONTINUOUS
10
61.7975
20
-154.378
11
62.0832
21
-154.378
0
LINE
8
BLACK
6
CONTINUOUS
10
62.0832
20
-154.378
11
62.2737
21
-154.473
0
LINE
8
BLACK
6
CONTINUOUS
10
62.2737
20
-154.473
11
62.3689
21
-154.664
0
LINE
8
BLACK
6
CONTINUOUS
10
62.3689
20
-154.664
11
62.3689
21
-155.711
0
LINE
8
BLACK
6
CONTINUOUS
10
63.3213
20
-155.711
11
63.3213
21
-154.378
0
LINE
8
BLACK
6
CONTINUOUS
10
63.3213
20
-154.568
11
63.4165
21
-154.473
0
LINE
8
BLACK
6
CONTINUOUS
10
63.4165
20
-154.473
11
63.607
21
-154.378
0
LINE
8
BLACK
6
CONTINUOUS
10
63.607
20
-154.378
11
63.8927
21
-154.378
0
LINE
8
BLACK
6
CONTINUOUS
10
63.8927
20
-154.378
11
64.0832
21
-154.473
0
LINE
8
BLACK
6
CONTINUOUS
10
64.0832
20
-154.473
11
64.1784
21
-154.664
0
LINE
8
BLACK
6
CONTINUOUS
10
64.1784
20
-154.664
11
64.1784
21
-155.711
0
LINE
8
BLACK
6
CONTINUOUS
10
64.1784
20
-154.664
11
64.2737
21
-154.473
0
LINE
8
BLACK
6
CONTINUOUS
10
64.2737
20
-154.473
11
64.4641
21
-154.378
0
LINE
8
BLACK
6
CONTINUOUS
10
64.4641
20
-154.378
11
64.7499
21
-154.378
0
LINE
8
BLACK
6
CONTINUOUS
10
64.7499
20
-154.378
11
64.9403
21
-154.473
0
LINE
8
BLACK
6
CONTINUOUS
10
64.9403
20
-154.473
11
65.0356
21
-154.664
0
LINE
8
BLACK
6
CONTINUOUS
10
65.0356
20
-154.664
11
65.0356
21
-155.711
0
LINE
8
BLACK
6
CONTINUOUS
10
68.9403
20
-153.616
11
67.226
21
-156.187
0
LINE
8
BLACK
6
CONTINUOUS
10
71.5118
20
-153.711
11
71.7022
21
-153.711
0
LINE
8
BLACK
6
CONTINUOUS
10
71.7022
20
-153.711
11
71.8927
21
-153.806
0
LINE
8
BLACK
6
CONTINUOUS
10
71.8927
20
-153.806
11
71.988
21
-153.902
0
LINE
8
BLACK
6
CONTINUOUS
10
71.988
20
-153.902
11
72.0832
21
-154.092
0
LINE
8
BLACK
6
CONTINUOUS
10
72.0832
20
-154.092
11
72.1784
21
-154.473
0
LINE
8
BLACK
6
CONTINUOUS
10
72.1784
20
-154.473
11
72.1784
21
-154.949
0
LINE
8
BLACK
6
CONTINUOUS
10
72.1784
20
-154.949
11
72.0832
21
-155.33
0
LINE
8
BLACK
6
CONTINUOUS
10
72.0832
20
-155.33
11
71.988
21
-155.521
0
LINE
8
BLACK
6
CONTINUOUS
10
71.988
20
-155.521
11
71.8927
21
-155.616
0
LINE
8
BLACK
6
CONTINUOUS
10
71.8927
20
-155.616
11
71.7022
21
-155.711
0
LINE
8
BLACK
6
CONTINUOUS
10
71.7022
20
-155.711
11
71.5118
21
-155.711
0
LINE
8
BLACK
6
CONTINUOUS
10
71.5118
20
-155.711
11
71.3213
21
-155.616
0
LINE
8
BLACK
6
CONTINUOUS
10
71.3213
20
-155.616
11
71.226
21
-155.521
0
LINE
8
BLACK
6
CONTINUOUS
10
71.226
20
-155.521
11
71.1308
21
-155.33
0
LINE
8
BLACK
6
CONTINUOUS
10
71.1308
20
-155.33
11
71.0356
21
-154.949
0
LINE
8
BLACK
6
CONTINUOUS
10
71.0356
20
-154.949
11
71.0356
21
-154.473
0
LINE
8
BLACK
6
CONTINUOUS
10
71.0356
20
-154.473
11
71.1308
21
-154.092
0
LINE
8
BLACK
6
CONTINUOUS
10
71.1308
20
-154.092
11
71.226
21
-153.902
0
LINE
8
BLACK
6
CONTINUOUS
10
71.226
20
-153.902
11
71.3213
21
-153.806
0
LINE
8
BLACK
6
CONTINUOUS
10
71.3213
20
-153.806
11
71.5118
21
-153.711
0
LINE
8
BLACK
6
CONTINUOUS
10
73.0356
20
-155.521
11
73.1308
21
-155.616
0
LINE
8
BLACK
6
CONTINUOUS
10
73.1308
20
-155.616
11
73.0356
21
-155.711
0
LINE
8
BLACK
6
CONTINUOUS
10
73.0356
20
-155.711
11
72.9403
21
-155.616
0
LINE
8
BLACK
6
CONTINUOUS
10
72.9403
20
-155.616
11
73.0356
21
-155.521
0
LINE
8
BLACK
6
CONTINUOUS
10
73.0356
20
-155.521
11
73.0356
21
-155.711
0
LINE
8
BLACK
6
CONTINUOUS
10
74.3689
20
-153.711
11
74.5594
21
-153.711
0
LINE
8
BLACK
6
CONTINUOUS
10
74.5594
20
-153.711
11
74.7499
21
-153.806
0
LINE
8
BLACK
6
CONTINUOUS
10
74.7499
20
-153.806
11
74.8451
21
-153.902
0
LINE
8
BLACK
6
CONTINUOUS
10
74.8451
20
-153.902
11
74.9403
21
-154.092
0
LINE
8
BLACK
6
CONTINUOUS
10
74.9403
20
-154.092
11
75.0356
21
-154.473
0
LINE
8
BLACK
6
CONTINUOUS
10
75.0356
20
-154.473
11
75.0356
21
-154.949
0
LINE
8
BLACK
6
CONTINUOUS
10
75.0356
20
-154.949
11
74.9403
21
-155.33
0
LINE
8
BLACK
6
CONTINUOUS
10
74.9403
20
-155.33
11
74.8451
21
-155.521
0
LINE
8
BLACK
6
CONTINUOUS
10
74.8451
20
-155.521
11
74.7499
21
-155.616
0
LINE
8
BLACK
6
CONTINUOUS
10
74.7499
20
-155.616
11
74.5594
21
-155.711
0
LINE
8
BLACK
6
CONTINUOUS
10
74.5594
20
-155.711
11
74.3689
21
-155.711
0
LINE
8
BLACK
6
CONTINUOUS
10
74.3689
20
-155.711
11
74.1784
21
-155.616
0
LINE
8
BLACK
6
CONTINUOUS
10
74.1784
20
-155.616
11
74.0832
21
-155.521
0
LINE
8
BLACK
6
CONTINUOUS
10
74.0832
20
-155.521
11
73.988
21
-155.33
0
LINE
8
BLACK
6
CONTINUOUS
10
73.988
20
-155.33
11
73.8927
21
-154.949
0
LINE
8
BLACK
6
CONTINUOUS
10
73.8927
20
-154.949
11
73.8927
21
-154.473
0
LINE
8
BLACK
6
CONTINUOUS
10
73.8927
20
-154.473
11
73.988
21
-154.092
0
LINE
8
BLACK
6
CONTINUOUS
10
73.988
20
-154.092
11
74.0832
21
-153.902
0
LINE
8
BLACK
6
CONTINUOUS
10
74.0832
20
-153.902
11
74.1784
21
-153.806
0
LINE
8
BLACK
6
CONTINUOUS
10
74.1784
20
-153.806
11
74.3689
21
-153.711
0
LINE
8
BLACK
6
CONTINUOUS
10
76.9403
20
-155.711
11
75.7975
21
-155.711
0
LINE
8
BLACK
6
CONTINUOUS
10
76.3689
20
-155.711
11
76.3689
21
-153.711
0
LINE
8
BLACK
6
CONTINUOUS
10
76.3689
20
-153.711
11
76.1784
21
-153.997
0
LINE
8
BLACK
6
CONTINUOUS
10
76.1784
20
-153.997
11
75.988
21
-154.187
0
LINE
8
BLACK
6
CONTINUOUS
10
75.988
20
-154.187
11
75.7975
21
-154.283
0
LINE
8
BLACK
6
CONTINUOUS
10
78.7499
20
-153.711
11
77.7975
21
-153.711
0
LINE
8
BLACK
6
CONTINUOUS
10
77.7975
20
-153.711
11
77.7022
21
-154.664
0
LINE
8
BLACK
6
CONTINUOUS
10
77.7022
20
-154.664
11
77.7975
21
-154.568
0
LINE
8
BLACK
6
CONTINUOUS
10
77.7975
20
-154.568
11
77.988
21
-154.473
0
LINE
8
BLACK
6
CONTINUOUS
10
77.988
20
-154.473
11
78.4641
21
-154.473
0
LINE
8
BLACK
6
CONTINUOUS
10
78.4641
20
-154.473
11
78.6546
21
-154.568
0
LINE
8
BLACK
6
CONTINUOUS
10
78.6546
20
-154.568
11
78.7499
21
-154.664
0
LINE
8
BLACK
6
CONTINUOUS
10
78.7499
20
-154.664
11
78.8451
21
-154.854
0
LINE
8
BLACK
6
CONTINUOUS
10
78.8451
20
-154.854
11
78.8451
21
-155.33
0
LINE
8
BLACK
6
CONTINUOUS
10
78.8451
20
-155.33
11
78.7499
21
-155.521
0
LINE
8
BLACK
6
CONTINUOUS
10
78.7499
20
-155.521
11
78.6546
21
-155.616
0
LINE
8
BLACK
6
CONTINUOUS
10
78.6546
20
-155.616
11
78.4641
21
-155.711
0
LINE
8
BLACK
6
CONTINUOUS
10
78.4641
20
-155.711
11
77.988
21
-155.711
0
LINE
8
BLACK
6
CONTINUOUS
10
77.988
20
-155.711
11
77.7975
21
-155.616
0
LINE
8
BLACK
6
CONTINUOUS
10
77.7975
20
-155.616
11
77.7022
21
-155.521
0
LINE
8
BLACK
6
CONTINUOUS
10
79.5118
20
-153.711
11
80.8451
21
-153.711
0
LINE
8
BLACK
6
CONTINUOUS
10
80.8451
20
-153.711
11
79.988
21
-155.711
0
LINE
8
BLACK
6
CONTINUOUS
10
81.5118
20
-153.711
11
81.5118
21
-154.092
0
LINE
8
BLACK
6
CONTINUOUS
10
82.2737
20
-153.711
11
82.2737
21
-154.092
0
LINE
8
BLACK
6
CONTINUOUS
10
85.2261
20
-156.473
11
85.1308
21
-156.378
0
LINE
8
BLACK
6
CONTINUOUS
10
85.1308
20
-156.378
11
84.9403
21
-156.092
0
LINE
8
BLACK
6
CONTINUOUS
10
84.9403
20
-156.092
11
84.8451
21
-155.902
0
LINE
8
BLACK
6
CONTINUOUS
10
84.8451
20
-155.902
11
84.7499
21
-155.616
0
LINE
8
BLACK
6
CONTINUOUS
10
84.7499
20
-155.616
11
84.6546
21
-155.14
0
LINE
8
BLACK
6
CONTINUOUS
10
84.6546
20
-155.14
11
84.6546
21
-154.759
0
LINE
8
BLACK
6
CONTINUOUS
10
84.6546
20
-154.759
11
84.7499
21
-154.283
0
LINE
8
BLACK
6
CONTINUOUS
10
84.7499
20
-154.283
11
84.8451
21
-153.997
0
LINE
8
BLACK
6
CONTINUOUS
10
84.8451
20
-153.997
11
84.9403
21
-153.806
0
LINE
8
BLACK
6
CONTINUOUS
10
84.9403
20
-153.806
11
85.1308
21
-153.521
0
LINE
8
BLACK
6
CONTINUOUS
10
85.1308
20
-153.521
11
85.2261
21
-153.426
0
LINE
8
BLACK
6
CONTINUOUS
10
85.8927
20
-153.902
11
85.988
21
-153.806
0
LINE
8
BLACK
6
CONTINUOUS
10
85.988
20
-153.806
11
86.1784
21
-153.711
0
LINE
8
BLACK
6
CONTINUOUS
10
86.1784
20
-153.711
11
86.6546
21
-153.711
0
LINE
8
BLACK
6
CONTINUOUS
10
86.6546
20
-153.711
11
86.8451
21
-153.806
0
LINE
8
BLACK
6
CONTINUOUS
10
86.8451
20
-153.806
11
86.9403
21
-153.902
0
LINE
8
BLACK
6
CONTINUOUS
10
86.9403
20
-153.902
11
87.0356
21
-154.092
0
LINE
8
BLACK
6
CONTINUOUS
10
87.0356
20
-154.092
11
87.0356
21
-154.283
0
LINE
8
BLACK
6
CONTINUOUS
10
87.0356
20
-154.283
11
86.9403
21
-154.568
0
LINE
8
BLACK
6
CONTINUOUS
10
86.9403
20
-154.568
11
85.7975
21
-155.711
0
LINE
8
BLACK
6
CONTINUOUS
10
85.7975
20
-155.711
11
87.0356
21
-155.711
0
LINE
8
BLACK
6
CONTINUOUS
10
89.4165
20
-155.711
11
89.4165
21
-153.711
0
LINE
8
BLACK
6
CONTINUOUS
10
90.2737
20
-155.711
11
90.2737
21
-154.664
0
LINE
8
BLACK
6
CONTINUOUS
10
90.2737
20
-154.664
11
90.1784
21
-154.473
0
LINE
8
BLACK
6
CONTINUOUS
10
90.1784
20
-154.473
11
89.988
21
-154.378
0
LINE
8
BLACK
6
CONTINUOUS
10
89.988
20
-154.378
11
89.7022
21
-154.378
0
LINE
8
BLACK
6
CONTINUOUS
10
89.7022
20
-154.378
11
89.5118
21
-154.473
0
LINE
8
BLACK
6
CONTINUOUS
10
89.5118
20
-154.473
11
89.4165
21
-154.568
0
LINE
8
BLACK
6
CONTINUOUS
10
91.5118
20
-155.711
11
91.3213
21
-155.616
0
LINE
8
BLACK
6
CONTINUOUS
10
91.3213
20
-155.616
11
91.2261
21
-155.521
0
LINE
8
BLACK
6
CONTINUOUS
10
91.2261
20
-155.521
11
91.1308
21
-155.33
0
LINE
8
BLACK
6
CONTINUOUS
10
91.1308
20
-155.33
11
91.1308
21
-154.759
0
LINE
8
BLACK
6
CONTINUOUS
10
91.1308
20
-154.759
11
91.2261
21
-154.568
0
LINE
8
BLACK
6
CONTINUOUS
10
91.2261
20
-154.568
11
91.3213
21
-154.473
0
LINE
8
BLACK
6
CONTINUOUS
10
91.3213
20
-154.473
11
91.5118
21
-154.378
0
LINE
8
BLACK
6
CONTINUOUS
10
91.5118
20
-154.378
11
91.7975
21
-154.378
0
LINE
8
BLACK
6
CONTINUOUS
10
91.7975
20
-154.378
11
91.988
21
-154.473
0
LINE
8
BLACK
6
CONTINUOUS
10
91.988
20
-154.473
11
92.0832
21
-154.568
0
LINE
8
BLACK
6
CONTINUOUS
10
92.0832
20
-154.568
11
92.1784
21
-154.759
0
LINE
8
BLACK
6
CONTINUOUS
10
92.1784
20
-154.759
11
92.1784
21
-155.33
0
LINE
8
BLACK
6
CONTINUOUS
10
92.1784
20
-155.33
11
92.0832
21
-155.521
0
LINE
8
BLACK
6
CONTINUOUS
10
92.0832
20
-155.521
11
91.988
21
-155.616
0
LINE
8
BLACK
6
CONTINUOUS
10
91.988
20
-155.616
11
91.7975
21
-155.711
0
LINE
8
BLACK
6
CONTINUOUS
10
91.7975
20
-155.711
11
91.5118
21
-155.711
0
LINE
8
BLACK
6
CONTINUOUS
10
93.3213
20
-155.711
11
93.1308
21
-155.616
0
LINE
8
BLACK
6
CONTINUOUS
10
93.1308
20
-155.616
11
93.0356
21
-155.426
0
LINE
8
BLACK
6
CONTINUOUS
10
93.0356
20
-155.426
11
93.0356
21
-153.711
0
LINE
8
BLACK
6
CONTINUOUS
10
94.8451
20
-155.616
11
94.6546
21
-155.711
0
LINE
8
BLACK
6
CONTINUOUS
10
94.6546
20
-155.711
11
94.2737
21
-155.711
0
LINE
8
BLACK
6
CONTINUOUS
10
94.2737
20
-155.711
11
94.0832
21
-155.616
0
LINE
8
BLACK
6
CONTINUOUS
10
94.0832
20
-155.616
11
93.988
21
-155.426
0
LINE
8
BLACK
6
CONTINUOUS
10
93.988
20
-155.426
11
93.988
21
-154.664
0
LINE
8
BLACK
6
CONTINUOUS
10
93.988
20
-154.664
11
94.0832
21
-154.473
0
LINE
8
BLACK
6
CONTINUOUS
10
94.0832
20
-154.473
11
94.2737
21
-154.378
0
LINE
8
BLACK
6
CONTINUOUS
10
94.2737
20
-154.378
11
94.6546
21
-154.378
0
LINE
8
BLACK
6
CONTINUOUS
10
94.6546
20
-154.378
11
94.8451
21
-154.473
0
LINE
8
BLACK
6
CONTINUOUS
10
94.8451
20
-154.473
11
94.9403
21
-154.664
0
LINE
8
BLACK
6
CONTINUOUS
10
94.9403
20
-154.664
11
94.9403
21
-154.854
0
LINE
8
BLACK
6
CONTINUOUS
10
94.9403
20
-154.854
11
93.988
21
-155.045
0
LINE
8
BLACK
6
CONTINUOUS
10
95.7022
20
-155.616
11
95.8927
21
-155.711
0
LINE
8
BLACK
6
CONTINUOUS
10
95.8927
20
-155.711
11
96.2737
21
-155.711
0
LINE
8
BLACK
6
CONTINUOUS
10
96.2737
20
-155.711
11
96.4641
21
-155.616
0
LINE
8
BLACK
6
CONTINUOUS
10
96.4641
20
-155.616
11
96.5594
21
-155.426
0
LINE
8
BLACK
6
CONTINUOUS
10
96.5594
20
-155.426
11
96.5594
21
-155.33
0
LINE
8
BLACK
6
CONTINUOUS
10
96.5594
20
-155.33
11
96.4641
21
-155.14
0
LINE
8
BLACK
6
CONTINUOUS
10
96.4641
20
-155.14
11
96.2737
21
-155.045
0
LINE
8
BLACK
6
CONTINUOUS
10
96.2737
20
-155.045
11
95.988
21
-155.045
0
LINE
8
BLACK
6
CONTINUOUS
10
95.988
20
-155.045
11
95.7975
21
-154.949
0
LINE
8
BLACK
6
CONTINUOUS
10
95.7975
20
-154.949
11
95.7022
21
-154.759
0
LINE
8
BLACK
6
CONTINUOUS
10
95.7022
20
-154.759
11
95.7022
21
-154.664
0
LINE
8
BLACK
6
CONTINUOUS
10
95.7022
20
-154.664
11
95.7975
21
-154.473
0
LINE
8
BLACK
6
CONTINUOUS
10
95.7975
20
-154.473
11
95.988
21
-154.378
0
LINE
8
BLACK
6
CONTINUOUS
10
95.988
20
-154.378
11
96.2737
21
-154.378
0
LINE
8
BLACK
6
CONTINUOUS
10
96.2737
20
-154.378
11
96.4641
21
-154.473
0
LINE
8
BLACK
6
CONTINUOUS
10
97.2261
20
-156.473
11
97.3213
21
-156.378
0
LINE
8
BLACK
6
CONTINUOUS
10
97.3213
20
-156.378
11
97.5118
21
-156.092
0
LINE
8
BLACK
6
CONTINUOUS
10
97.5118
20
-156.092
11
97.607
21
-155.902
0
LINE
8
BLACK
6
CONTINUOUS
10
97.607
20
-155.902
11
97.7022
21
-155.616
0
LINE
8
BLACK
6
CONTINUOUS
10
97.7022
20
-155.616
11
97.7975
21
-155.14
0
LINE
8
BLACK
6
CONTINUOUS
10
97.7975
20
-155.14
11
97.7975
21
-154.759
0
LINE
8
BLACK
6
CONTINUOUS
10
97.7975
20
-154.759
11
97.7022
21
-154.283
0
LINE
8
BLACK
6
CONTINUOUS
10
97.7022
20
-154.283
11
97.607
21
-153.997
0
LINE
8
BLACK
6
CONTINUOUS
10
97.607
20
-153.997
11
97.5118
21
-153.806
0
LINE
8
BLACK
6
CONTINUOUS
10
97.5118
20
-153.806
11
97.3213
21
-153.521
0
LINE
8
BLACK
6
CONTINUOUS
10
97.3213
20
-153.521
11
97.2261
21
-153.426
0
CIRCLE
8
BLACK
10
49.307
20
-157.426
40
0.3
0
LINE
8
BLACK
6
CONTINUOUS
10
52.4641
20
-156.351
11
52.6546
21
-156.351
0
LINE
8
BLACK
6
CONTINUOUS
10
52.6546
20
-156.351
11
52.8451
21
-156.446
0
LINE
8
BLACK
6
CONTINUOUS
10
52.8451
20
-156.446
11
52.9403
21
-156.542
0
LINE
8
BLACK
6
CONTINUOUS
10
52.9403
20
-156.542
11
53.0356
21
-156.732
0
LINE
8
BLACK
6
CONTINUOUS
10
53.0356
20
-156.732
11
53.1308
21
-157.113
0
LINE
8
BLACK
6
CONTINUOUS
10
53.1308
20
-157.113
11
53.1308
21
-157.589
0
LINE
8
BLACK
6
CONTINUOUS
10
53.1308
20
-157.589
11
53.0356
21
-157.97
0
LINE
8
BLACK
6
CONTINUOUS
10
53.0356
20
-157.97
11
52.9403
21
-158.161
0
LINE
8
BLACK
6
CONTINUOUS
10
52.9403
20
-158.161
11
52.8451
21
-158.256
0
LINE
8
BLACK
6
CONTINUOUS
10
52.8451
20
-158.256
11
52.6546
21
-158.351
0
LINE
8
BLACK
6
CONTINUOUS
10
52.6546
20
-158.351
11
52.4641
21
-158.351
0
LINE
8
BLACK
6
CONTINUOUS
10
52.4641
20
-158.351
11
52.2737
21
-158.256
0
LINE
8
BLACK
6
CONTINUOUS
10
52.2737
20
-158.256
11
52.1784
21
-158.161
0
LINE
8
BLACK
6
CONTINUOUS
10
52.1784
20
-158.161
11
52.0832
21
-157.97
0
LINE
8
BLACK
6
CONTINUOUS
10
52.0832
20
-157.97
11
51.988
21
-157.589
0
LINE
8
BLACK
6
CONTINUOUS
10
51.988
20
-157.589
11
51.988
21
-157.113
0
LINE
8
BLACK
6
CONTINUOUS
10
51.988
20
-157.113
11
52.0832
21
-156.732
0
LINE
8
BLACK
6
CONTINUOUS
10
52.0832
20
-156.732
11
52.1784
21
-156.542
0
LINE
8
BLACK
6
CONTINUOUS
10
52.1784
20
-156.542
11
52.2737
21
-156.446
0
LINE
8
BLACK
6
CONTINUOUS
10
52.2737
20
-156.446
11
52.4641
21
-156.351
0
LINE
8
BLACK
6
CONTINUOUS
10
53.988
20
-158.161
11
54.0832
21
-158.256
0
LINE
8
BLACK
6
CONTINUOUS
10
54.0832
20
-158.256
11
53.988
21
-158.351
0
LINE
8
BLACK
6
CONTINUOUS
10
53.988
20
-158.351
11
53.8927
21
-158.256
0
LINE
8
BLACK
6
CONTINUOUS
10
53.8927
20
-158.256
11
53.988
21
-158.161
0
LINE
8
BLACK
6
CONTINUOUS
10
53.988
20
-158.161
11
53.988
21
-158.351
0
LINE
8
BLACK
6
CONTINUOUS
10
55.7975
20
-156.351
11
55.4165
21
-156.351
0
LINE
8
BLACK
6
CONTINUOUS
10
55.4165
20
-156.351
11
55.226
21
-156.446
0
LINE
8
BLACK
6
CONTINUOUS
10
55.226
20
-156.446
11
55.1308
21
-156.542
0
LINE
8
BLACK
6
CONTINUOUS
10
55.1308
20
-156.542
11
54.9403
21
-156.827
0
LINE
8
BLACK
6
CONTINUOUS
10
54.9403
20
-156.827
11
54.8451
21
-157.208
0
LINE
8
BLACK
6
CONTINUOUS
10
54.8451
20
-157.208
11
54.8451
21
-157.97
0
LINE
8
BLACK
6
CONTINUOUS
10
54.8451
20
-157.97
11
54.9403
21
-158.161
0
LINE
8
BLACK
6
CONTINUOUS
10
54.9403
20
-158.161
11
55.0356
21
-158.256
0
LINE
8
BLACK
6
CONTINUOUS
10
55.0356
20
-158.256
11
55.226
21
-158.351
0
LINE
8
BLACK
6
CONTINUOUS
10
55.226
20
-158.351
11
55.607
21
-158.351
0
LINE
8
BLACK
6
CONTINUOUS
10
55.607
20
-158.351
11
55.7975
21
-158.256
0
LINE
8
BLACK
6
CONTINUOUS
10
55.7975
20
-158.256
11
55.8927
21
-158.161
0
LINE
8
BLACK
6
CONTINUOUS
10
55.8927
20
-158.161
11
55.988
21
-157.97
0
LINE
8
BLACK
6
CONTINUOUS
10
55.988
20
-157.97
11
55.988
21
-157.494
0
LINE
8
BLACK
6
CONTINUOUS
10
55.988
20
-157.494
11
55.8927
21
-157.304
0
LINE
8
BLACK
6
CONTINUOUS
10
55.8927
20
-157.304
11
55.7975
21
-157.208
0
LINE
8
BLACK
6
CONTINUOUS
10
55.7975
20
-157.208
11
55.607
21
-157.113
0
LINE
8
BLACK
6
CONTINUOUS
10
55.607
20
-157.113
11
55.226
21
-157.113
0
LINE
8
BLACK
6
CONTINUOUS
10
55.226
20
-157.113
11
55.0356
21
-157.208
0
LINE
8
BLACK
6
CONTINUOUS
10
55.0356
20
-157.208
11
54.9403
21
-157.304
0
LINE
8
BLACK
6
CONTINUOUS
10
54.9403
20
-157.304
11
54.8451
21
-157.494
0
LINE
8
BLACK
6
CONTINUOUS
10
57.226
20
-156.351
11
57.4165
21
-156.351
0
LINE
8
BLACK
6
CONTINUOUS
10
57.4165
20
-156.351
11
57.607
21
-156.446
0
LINE
8
BLACK
6
CONTINUOUS
10
57.607
20
-156.446
11
57.7022
21
-156.542
0
LINE
8
BLACK
6
CONTINUOUS
10
57.7022
20
-156.542
11
57.7975
21
-156.732
0
LINE
8
BLACK
6
CONTINUOUS
10
57.7975
20
-156.732
11
57.8927
21
-157.113
0
LINE
8
BLACK
6
CONTINUOUS
10
57.8927
20
-157.113
11
57.8927
21
-157.589
0
LINE
8
BLACK
6
CONTINUOUS
10
57.8927
20
-157.589
11
57.7975
21
-157.97
0
LINE
8
BLACK
6
CONTINUOUS
10
57.7975
20
-157.97
11
57.7022
21
-158.161
0
LINE
8
BLACK
6
CONTINUOUS
10
57.7022
20
-158.161
11
57.607
21
-158.256
0
LINE
8
BLACK
6
CONTINUOUS
10
57.607
20
-158.256
11
57.4165
21
-158.351
0
LINE
8
BLACK
6
CONTINUOUS
10
57.4165
20
-158.351
11
57.226
21
-158.351
0
LINE
8
BLACK
6
CONTINUOUS
10
57.226
20
-158.351
11
57.0356
21
-158.256
0
LINE
8
BLACK
6
CONTINUOUS
10
57.0356
20
-158.256
11
56.9403
21
-158.161
0
LINE
8
BLACK
6
CONTINUOUS
10
56.9403
20
-158.161
11
56.8451
21
-157.97
0
LINE
8
BLACK
6
CONTINUOUS
10
56.8451
20
-157.97
11
56.7499
21
-157.589
0
LINE
8
BLACK
6
CONTINUOUS
10
56.7499
20
-157.589
11
56.7499
21
-157.113
0
LINE
8
BLACK
6
CONTINUOUS
10
56.7499
20
-157.113
11
56.8451
21
-156.732
0
LINE
8
BLACK
6
CONTINUOUS
10
56.8451
20
-156.732
11
56.9403
21
-156.542
0
LINE
8
BLACK
6
CONTINUOUS
10
56.9403
20
-156.542
11
57.0356
21
-156.446
0
LINE
8
BLACK
6
CONTINUOUS
10
57.0356
20
-156.446
11
57.226
21
-156.351
0
LINE
8
BLACK
6
CONTINUOUS
10
59.1308
20
-156.351
11
59.3213
21
-156.351
0
LINE
8
BLACK
6
CONTINUOUS
10
59.3213
20
-156.351
11
59.5118
21
-156.446
0
LINE
8
BLACK
6
CONTINUOUS
10
59.5118
20
-156.446
11
59.607
21
-156.542
0
LINE
8
BLACK
6
CONTINUOUS
10
59.607
20
-156.542
11
59.7022
21
-156.732
0
LINE
8
BLACK
6
CONTINUOUS
10
59.7022
20
-156.732
11
59.7975
21
-157.113
0
LINE
8
BLACK
6
CONTINUOUS
10
59.7975
20
-157.113
11
59.7975
21
-157.589
0
LINE
8
BLACK
6
CONTINUOUS
10
59.7975
20
-157.589
11
59.7022
21
-157.97
0
LINE
8
BLACK
6
CONTINUOUS
10
59.7022
20
-157.97
11
59.607
21
-158.161
0
LINE
8
BLACK
6
CONTINUOUS
10
59.607
20
-158.161
11
59.5118
21
-158.256
0
LINE
8
BLACK
6
CONTINUOUS
10
59.5118
20
-158.256
11
59.3213
21
-158.351
0
LINE
8
BLACK
6
CONTINUOUS
10
59.3213
20
-158.351
11
59.1308
21
-158.351
0
LINE
8
BLACK
6
CONTINUOUS
10
59.1308
20
-158.351
11
58.9403
21
-158.256
0
LINE
8
BLACK
6
CONTINUOUS
10
58.9403
20
-158.256
11
58.8451
21
-158.161
0
LINE
8
BLACK
6
CONTINUOUS
10
58.8451
20
-158.161
11
58.7499
21
-157.97
0
LINE
8
BLACK
6
CONTINUOUS
10
58.7499
20
-157.97
11
58.6546
21
-157.589
0
LINE
8
BLACK
6
CONTINUOUS
10
58.6546
20
-157.589
11
58.6546
21
-157.113
0
LINE
8
BLACK
6
CONTINUOUS
10
58.6546
20
-157.113
11
58.7499
21
-156.732
0
LINE
8
BLACK
6
CONTINUOUS
10
58.7499
20
-156.732
11
58.8451
21
-156.542
0
LINE
8
BLACK
6
CONTINUOUS
10
58.8451
20
-156.542
11
58.9403
21
-156.446
0
LINE
8
BLACK
6
CONTINUOUS
10
58.9403
20
-156.446
11
59.1308
21
-156.351
0
LINE
8
BLACK
6
CONTINUOUS
10
60.6546
20
-158.351
11
60.6546
21
-157.018
0
LINE
8
BLACK
6
CONTINUOUS
10
60.6546
20
-157.208
11
60.7499
21
-157.113
0
LINE
8
BLACK
6
CONTINUOUS
10
60.7499
20
-157.113
11
60.9403
21
-157.018
0
LINE
8
BLACK
6
CONTINUOUS
10
60.9403
20
-157.018
11
61.226
21
-157.018
0
LINE
8
BLACK
6
CONTINUOUS
10
61.226
20
-157.018
11
61.4165
21
-157.113
0
LINE
8
BLACK
6
CONTINUOUS
10
61.4165
20
-157.113
11
61.5118
21
-157.304
0
LINE
8
BLACK
6
CONTINUOUS
10
61.5118
20
-157.304
11
61.5118
21
-158.351
0
LINE
8
BLACK
6
CONTINUOUS
10
61.5118
20
-157.304
11
61.607
21
-157.113
0
LINE
8
BLACK
6
CONTINUOUS
10
61.607
20
-157.113
11
61.7975
21
-157.018
0
LINE
8
BLACK
6
CONTINUOUS
10
61.7975
20
-157.018
11
62.0832
21
-157.018
0
LINE
8
BLACK
6
CONTINUOUS
10
62.0832
20
-157.018
11
62.2737
21
-157.113
0
LINE
8
BLACK
6
CONTINUOUS
10
62.2737
20
-157.113
11
62.3689
21
-157.304
0
LINE
8
BLACK
6
CONTINUOUS
10
62.3689
20
-157.304
11
62.3689
21
-158.351
0
LINE
8
BLACK
6
CONTINUOUS
10
63.3213
20
-158.351
11
63.3213
21
-157.018
0
LINE
8
BLACK
6
CONTINUOUS
10
63.3213
20
-157.208
11
63.4165
21
-157.113
0
LINE
8
BLACK
6
CONTINUOUS
10
63.4165
20
-157.113
11
63.607
21
-157.018
0
LINE
8
BLACK
6
CONTINUOUS
10
63.607
20
-157.018
11
63.8927
21
-157.018
0
LINE
8
BLACK
6
CONTINUOUS
10
63.8927
20
-157.018
11
64.0832
21
-157.113
0
LINE
8
BLACK
6
CONTINUOUS
10
64.0832
20
-157.113
11
64.1784
21
-157.304
0
LINE
8
BLACK
6
CONTINUOUS
10
64.1784
20
-157.304
11
64.1784
21
-158.351
0
LINE
8
BLACK
6
CONTINUOUS
10
64.1784
20
-157.304
11
64.2737
21
-157.113
0
LINE
8
BLACK
6
CONTINUOUS
10
64.2737
20
-157.113
11
64.4641
21
-157.018
0
LINE
8
BLACK
6
CONTINUOUS
10
64.4641
20
-157.018
11
64.7499
21
-157.018
0
LINE
8
BLACK
6
CONTINUOUS
10
64.7499
20
-157.018
11
64.9403
21
-157.113
0
LINE
8
BLACK
6
CONTINUOUS
10
64.9403
20
-157.113
11
65.0356
21
-157.304
0
LINE
8
BLACK
6
CONTINUOUS
10
65.0356
20
-157.304
11
65.0356
21
-158.351
0
LINE
8
BLACK
6
CONTINUOUS
10
68.9403
20
-156.256
11
67.226
21
-158.827
0
LINE
8
BLACK
6
CONTINUOUS
10
71.5118
20
-156.351
11
71.7022
21
-156.351
0
LINE
8
BLACK
6
CONTINUOUS
10
71.7022
20
-156.351
11
71.8927
21
-156.446
0
LINE
8
BLACK
6
CONTINUOUS
10
71.8927
20
-156.446
11
71.988
21
-156.542
0
LINE
8
BLACK
6
CONTINUOUS
10
71.988
20
-156.542
11
72.0832
21
-156.732
0
LINE
8
BLACK
6
CONTINUOUS
10
72.0832
20
-156.732
11
72.1784
21
-157.113
0
LINE
8
BLACK
6
CONTINUOUS
10
72.1784
20
-157.113
11
72.1784
21
-157.589
0
LINE
8
BLACK
6
CONTINUOUS
10
72.1784
20
-157.589
11
72.0832
21
-157.97
0
LINE
8
BLACK
6
CONTINUOUS
10
72.0832
20
-157.97
11
71.988
21
-158.161
0
LINE
8
BLACK
6
CONTINUOUS
10
71.988
20
-158.161
11
71.8927
21
-158.256
0
LINE
8
BLACK
6
CONTINUOUS
10
71.8927
20
-158.256
11
71.7022
21
-158.351
0
LINE
8
BLACK
6
CONTINUOUS
10
71.7022
20
-158.351
11
71.5118
21
-158.351
0
LINE
8
BLACK
6
CONTINUOUS
10
71.5118
20
-158.351
11
71.3213
21
-158.256
0
LINE
8
BLACK
6
CONTINUOUS
10
71.3213
20
-158.256
11
71.226
21
-158.161
0
LINE
8
BLACK
6
CONTINUOUS
10
71.226
20
-158.161
11
71.1308
21
-157.97
0
LINE
8
BLACK
6
CONTINUOUS
10
71.1308
20
-157.97
11
71.0356
21
-157.589
0
LINE
8
BLACK
6
CONTINUOUS
10
71.0356
20
-157.589
11
71.0356
21
-157.113
0
LINE
8
BLACK
6
CONTINUOUS
10
71.0356
20
-157.113
11
71.1308
21
-156.732
0
LINE
8
BLACK
6
CONTINUOUS
10
71.1308
20
-156.732
11
71.226
21
-156.542
0
LINE
8
BLACK
6
CONTINUOUS
10
71.226
20
-156.542
11
71.3213
21
-156.446
0
LINE
8
BLACK
6
CONTINUOUS
10
71.3213
20
-156.446
11
71.5118
21
-156.351
0
LINE
8
BLACK
6
CONTINUOUS
10
73.0356
20
-158.161
11
73.1308
21
-158.256
0
LINE
8
BLACK
6
CONTINUOUS
10
73.1308
20
-158.256
11
73.0356
21
-158.351
0
LINE
8
BLACK
6
CONTINUOUS
10
73.0356
20
-158.351
11
72.9403
21
-158.256
0
LINE
8
BLACK
6
CONTINUOUS
10
72.9403
20
-158.256
11
73.0356
21
-158.161
0
LINE
8
BLACK
6
CONTINUOUS
10
73.0356
20
-158.161
11
73.0356
21
-158.351
0
LINE
8
BLACK
6
CONTINUOUS
10
74.3689
20
-156.351
11
74.5594
21
-156.351
0
LINE
8
BLACK
6
CONTINUOUS
10
74.5594
20
-156.351
11
74.7499
21
-156.446
0
LINE
8
BLACK
6
CONTINUOUS
10
74.7499
20
-156.446
11
74.8451
21
-156.542
0
LINE
8
BLACK
6
CONTINUOUS
10
74.8451
20
-156.542
11
74.9403
21
-156.732
0
LINE
8
BLACK
6
CONTINUOUS
10
74.9403
20
-156.732
11
75.0356
21
-157.113
0
LINE
8
BLACK
6
CONTINUOUS
10
75.0356
20
-157.113
11
75.0356
21
-157.589
0
LINE
8
BLACK
6
CONTINUOUS
10
75.0356
20
-157.589
11
74.9403
21
-157.97
0
LINE
8
BLACK
6
CONTINUOUS
10
74.9403
20
-157.97
11
74.8451
21
-158.161
0
LINE
8
BLACK
6
CONTINUOUS
10
74.8451
20
-158.161
11
74.7499
21
-158.256
0
LINE
8
BLACK
6
CONTINUOUS
10
74.7499
20
-158.256
11
74.5594
21
-158.351
0
LINE
8
BLACK
6
CONTINUOUS
10
74.5594
20
-158.351
11
74.3689
21
-158.351
0
LINE
8
BLACK
6
CONTINUOUS
10
74.3689
20
-158.351
11
74.1784
21
-158.256
0
LINE
8
BLACK
6
CONTINUOUS
10
74.1784
20
-158.256
11
74.0832
21
-158.161
0
LINE
8
BLACK
6
CONTINUOUS
10
74.0832
20
-158.161
11
73.988
21
-157.97
0
LINE
8
BLACK
6
CONTINUOUS
10
73.988
20
-157.97
11
73.8927
21
-157.589
0
LINE
8
BLACK
6
CONTINUOUS
10
73.8927
20
-157.589
11
73.8927
21
-157.113
0
LINE
8
BLACK
6
CONTINUOUS
10
73.8927
20
-157.113
11
73.988
21
-156.732
0
LINE
8
BLACK
6
CONTINUOUS
10
73.988
20
-156.732
11
74.0832
21
-156.542
0
LINE
8
BLACK
6
CONTINUOUS
10
74.0832
20
-156.542
11
74.1784
21
-156.446
0
LINE
8
BLACK
6
CONTINUOUS
10
74.1784
20
-156.446
11
74.3689
21
-156.351
0
LINE
8
BLACK
6
CONTINUOUS
10
75.7975
20
-156.542
11
75.8927
21
-156.446
0
LINE
8
BLACK
6
CONTINUOUS
10
75.8927
20
-156.446
11
76.0832
21
-156.351
0
LINE
8
BLACK
6
CONTINUOUS
10
76.0832
20
-156.351
11
76.5594
21
-156.351
0
LINE
8
BLACK
6
CONTINUOUS
10
76.5594
20
-156.351
11
76.7499
21
-156.446
0
LINE
8
BLACK
6
CONTINUOUS
10
76.7499
20
-156.446
11
76.8451
21
-156.542
0
LINE
8
BLACK
6
CONTINUOUS
10
76.8451
20
-156.542
11
76.9403
21
-156.732
0
LINE
8
BLACK
6
CONTINUOUS
10
76.9403
20
-156.732
11
76.9403
21
-156.923
0
LINE
8
BLACK
6
CONTINUOUS
10
76.9403
20
-156.923
11
76.8451
21
-157.208
0
LINE
8
BLACK
6
CONTINUOUS
10
76.8451
20
-157.208
11
75.7022
21
-158.351
0
LINE
8
BLACK
6
CONTINUOUS
10
75.7022
20
-158.351
11
76.9403
21
-158.351
0
LINE
8
BLACK
6
CONTINUOUS
10
77.607
20
-156.351
11
78.8451
21
-156.351
0
LINE
8
BLACK
6
CONTINUOUS
10
78.8451
20
-156.351
11
78.1784
21
-157.113
0
LINE
8
BLACK
6
CONTINUOUS
10
78.1784
20
-157.113
11
78.4641
21
-157.113
0
LINE
8
BLACK
6
CONTINUOUS
10
78.4641
20
-157.113
11
78.6546
21
-157.208
0
LINE
8
BLACK
6
CONTINUOUS
10
78.6546
20
-157.208
11
78.7499
21
-157.304
0
LINE
8
BLACK
6
CONTINUOUS
10
78.7499
20
-157.304
11
78.8451
21
-157.494
0
LINE
8
BLACK
6
CONTINUOUS
10
78.8451
20
-157.494
11
78.8451
21
-157.97
0
LINE
8
BLACK
6
CONTINUOUS
10
78.8451
20
-157.97
11
78.7499
21
-158.161
0
LINE
8
BLACK
6
CONTINUOUS
10
78.7499
20
-158.161
11
78.6546
21
-158.256
0
LINE
8
BLACK
6
CONTINUOUS
10
78.6546
20
-158.256
11
78.4641
21
-158.351
0
LINE
8
BLACK
6
CONTINUOUS
10
78.4641
20
-158.351
11
77.8927
21
-158.351
0
LINE
8
BLACK
6
CONTINUOUS
10
77.8927
20
-158.351
11
77.7022
21
-158.256
0
LINE
8
BLACK
6
CONTINUOUS
10
77.7022
20
-158.256
11
77.607
21
-158.161
0
LINE
8
BLACK
6
CONTINUOUS
10
80.5594
20
-156.351
11
80.1784
21
-156.351
0
LINE
8
BLACK
6
CONTINUOUS
10
80.1784
20
-156.351
11
79.988
21
-156.446
0
LINE
8
BLACK
6
CONTINUOUS
10
79.988
20
-156.446
11
79.8927
21
-156.542
0
LINE
8
BLACK
6
CONTINUOUS
10
79.8927
20
-156.542
11
79.7022
21
-156.827
0
LINE
8
BLACK
6
CONTINUOUS
10
79.7022
20
-156.827
11
79.607
21
-157.208
0
LINE
8
BLACK
6
CONTINUOUS
10
79.607
20
-157.208
11
79.607
21
-157.97
0
LINE
8
BLACK
6
CONTINUOUS
10
79.607
20
-157.97
11
79.7022
21
-158.161
0
LINE
8
BLACK
6
CONTINUOUS
10
79.7022
20
-158.161
11
79.7975
21
-158.256
0
LINE
8
BLACK
6
CONTINUOUS
10
79.7975
20
-158.256
11
79.988
21
-158.351
0
LINE
8
BLACK
6
CONTINUOUS
10
79.988
20
-158.351
11
80.3689
21
-158.351
0
LINE
8
BLACK
6
CONTINUOUS
10
80.3689
20
-158.351
11
80.5594
21
-158.256
0
LINE
8
BLACK
6
CONTINUOUS
10
80.5594
20
-158.256
11
80.6546
21
-158.161
0
LINE
8
BLACK
6
CONTINUOUS
10
80.6546
20
-158.161
11
80.7499
21
-157.97
0
LINE
8
BLACK
6
CONTINUOUS
10
80.7499
20
-157.97
11
80.7499
21
-157.494
0
LINE
8
BLACK
6
CONTINUOUS
10
80.7499
20
-157.494
11
80.6546
21
-157.304
0
LINE
8
BLACK
6
CONTINUOUS
10
80.6546
20
-157.304
11
80.5594
21
-157.208
0
LINE
8
BLACK
6
CONTINUOUS
10
80.5594
20
-157.208
11
80.3689
21
-157.113
0
LINE
8
BLACK
6
CONTINUOUS
10
80.3689
20
-157.113
11
79.988
21
-157.113
0
LINE
8
BLACK
6
CONTINUOUS
10
79.988
20
-157.113
11
79.7975
21
-157.208
0
LINE
8
BLACK
6
CONTINUOUS
10
79.7975
20
-157.208
11
79.7022
21
-157.304
0
LINE
8
BLACK
6
CONTINUOUS
10
79.7022
20
-157.304
11
79.607
21
-157.494
0
LINE
8
BLACK
6
CONTINUOUS
10
81.5118
20
-156.351
11
81.5118
21
-156.732
0
LINE
8
BLACK
6
CONTINUOUS
10
82.2737
20
-156.351
11
82.2737
21
-156.732
0
LINE
8
BLACK
6
CONTINUOUS
10
85.2261
20
-159.113
11
85.1308
21
-159.018
0
LINE
8
BLACK
6
CONTINUOUS
10
85.1308
20
-159.018
11
84.9403
21
-158.732
0
LINE
8
BLACK
6
CONTINUOUS
10
84.9403
20
-158.732
11
84.8451
21
-158.542
0
LINE
8
BLACK
6
CONTINUOUS
10
84.8451
20
-158.542
11
84.7499
21
-158.256
0
LINE
8
BLACK
6
CONTINUOUS
10
84.7499
20
-158.256
11
84.6546
21
-157.78
0
LINE
8
BLACK
6
CONTINUOUS
10
84.6546
20
-157.78
11
84.6546
21
-157.399
0
LINE
8
BLACK
6
CONTINUOUS
10
84.6546
20
-157.399
11
84.7499
21
-156.923
0
LINE
8
BLACK
6
CONTINUOUS
10
84.7499
20
-156.923
11
84.8451
21
-156.637
0
LINE
8
BLACK
6
CONTINUOUS
10
84.8451
20
-156.637
11
84.9403
21
-156.446
0
LINE
8
BLACK
6
CONTINUOUS
10
84.9403
20
-156.446
11
85.1308
21
-156.161
0
LINE
8
BLACK
6
CONTINUOUS
10
85.1308
20
-156.161
11
85.2261
21
-156.066
0
LINE
8
BLACK
6
CONTINUOUS
10
87.0356
20
-158.351
11
85.8927
21
-158.351
0
LINE
8
BLACK
6
CONTINUOUS
10
86.4641
20
-158.351
11
86.4641
21
-156.351
0
LINE
8
BLACK
6
CONTINUOUS
10
86.4641
20
-156.351
11
86.2737
21
-156.637
0
LINE
8
BLACK
6
CONTINUOUS
10
86.2737
20
-156.637
11
86.0832
21
-156.827
0
LINE
8
BLACK
6
CONTINUOUS
10
86.0832
20
-156.827
11
85.8927
21
-156.923
0
LINE
8
BLACK
6
CONTINUOUS
10
88.2737
20
-156.351
11
88.4641
21
-156.351
0
LINE
8
BLACK
6
CONTINUOUS
10
88.4641
20
-156.351
11
88.6546
21
-156.446
0
LINE
8
BLACK
6
CONTINUOUS
10
88.6546
20
-156.446
11
88.7499
21
-156.542
0
LINE
8
BLACK
6
CONTINUOUS
10
88.7499
20
-156.542
11
88.8451
21
-156.732
0
LINE
8
BLACK
6
CONTINUOUS
10
88.8451
20
-156.732
11
88.9403
21
-157.113
0
LINE
8
BLACK
6
CONTINUOUS
10
88.9403
20
-157.113
11
88.9403
21
-157.589
0
LINE
8
BLACK
6
CONTINUOUS
10
88.9403
20
-157.589
11
88.8451
21
-157.97
0
LINE
8
BLACK
6
CONTINUOUS
10
88.8451
20
-157.97
11
88.7499
21
-158.161
0
LINE
8
BLACK
6
CONTINUOUS
10
88.7499
20
-158.161
11
88.6546
21
-158.256
0
LINE
8
BLACK
6
CONTINUOUS
10
88.6546
20
-158.256
11
88.4641
21
-158.351
0
LINE
8
BLACK
6
CONTINUOUS
10
88.4641
20
-158.351
11
88.2737
21
-158.351
0
LINE
8
BLACK
6
CONTINUOUS
10
88.2737
20
-158.351
11
88.0832
21
-158.256
0
LINE
8
BLACK
6
CONTINUOUS
10
88.0832
20
-158.256
11
87.988
21
-158.161
0
LINE
8
BLACK
6
CONTINUOUS
10
87.988
20
-158.161
11
87.8927
21
-157.97
0
LINE
8
BLACK
6
CONTINUOUS
10
87.8927
20
-157.97
11
87.7975
21
-157.589
0
LINE
8
BLACK
6
CONTINUOUS
10
87.7975
20
-157.589
11
87.7975
21
-157.113
0
LINE
8
BLACK
6
CONTINUOUS
10
87.7975
20
-157.113
11
87.8927
21
-156.732
0
LINE
8
BLACK
6
CONTINUOUS
10
87.8927
20
-156.732
11
87.988
21
-156.542
0
LINE
8
BLACK
6
CONTINUOUS
10
87.988
20
-156.542
11
88.0832
21
-156.446
0
LINE
8
BLACK
6
CONTINUOUS
10
88.0832
20
-156.446
11
88.2737
21
-156.351
0
LINE
8
BLACK
6
CONTINUOUS
10
91.3213
20
-158.351
11
91.3213
21
-156.351
0
LINE
8
BLACK
6
CONTINUOUS
10
92.1784
20
-158.351
11
92.1784
21
-157.304
0
LINE
8
BLACK
6
CONTINUOUS
10
92.1784
20
-157.304
11
92.0832
21
-157.113
0
LINE
8
BLACK
6
CONTINUOUS
10
92.0832
20
-157.113
11
91.8927
21
-157.018
0
LINE
8
BLACK
6
CONTINUOUS
10
91.8927
20
-157.018
11
91.607
21
-157.018
0
LINE
8
BLACK
6
CONTINUOUS
10
91.607
20
-157.018
11
91.4165
21
-157.113
0
LINE
8
BLACK
6
CONTINUOUS
10
91.4165
20
-157.113
11
91.3213
21
-157.208
0
LINE
8
BLACK
6
CONTINUOUS
10
93.4165
20
-158.351
11
93.2261
21
-158.256
0
LINE
8
BLACK
6
CONTINUOUS
10
93.2261
20
-158.256
11
93.1308
21
-158.161
0
LINE
8
BLACK
6
CONTINUOUS
10
93.1308
20
-158.161
11
93.0356
21
-157.97
0
LINE
8
BLACK
6
CONTINUOUS
10
93.0356
20
-157.97
11
93.0356
21
-157.399
0
LINE
8
BLACK
6
CONTINUOUS
10
93.0356
20
-157.399
11
93.1308
21
-157.208
0
LINE
8
BLACK
6
CONTINUOUS
10
93.1308
20
-157.208
11
93.2261
21
-157.113
0
LINE
8
BLACK
6
CONTINUOUS
10
93.2261
20
-157.113
11
93.4165
21
-157.018
0
LINE
8
BLACK
6
CONTINUOUS
10
93.4165
20
-157.018
11
93.7022
21
-157.018
0
LINE
8
BLACK
6
CONTINUOUS
10
93.7022
20
-157.018
11
93.8927
21
-157.113
0
LINE
8
BLACK
6
CONTINUOUS
10
93.8927
20
-157.113
11
93.988
21
-157.208
0
LINE
8
BLACK
6
CONTINUOUS
10
93.988
20
-157.208
11
94.0832
21
-157.399
0
LINE
8
BLACK
6
CONTINUOUS
10
94.0832
20
-157.399
11
94.0832
21
-157.97
0
LINE
8
BLACK
6
CONTINUOUS
10
94.0832
20
-157.97
11
93.988
21
-158.161
0
LINE
8
BLACK
6
CONTINUOUS
10
93.988
20
-158.161
11
93.8927
21
-158.256
0
LINE
8
BLACK
6
CONTINUOUS
10
93.8927
20
-158.256
11
93.7022
21
-158.351
0
LINE
8
BLACK
6
CONTINUOUS
10
93.7022
20
-158.351
11
93.4165
21
-158.351
0
LINE
8
BLACK
6
CONTINUOUS
10
95.2261
20
-158.351
11
95.0356
21
-158.256
0
LINE
8
BLACK
6
CONTINUOUS
10
95.0356
20
-158.256
11
94.9403
21
-158.066
0
LINE
8
BLACK
6
CONTINUOUS
10
94.9403
20
-158.066
11
94.9403
21
-156.351
0
LINE
8
BLACK
6
CONTINUOUS
10
96.7499
20
-158.256
11
96.5594
21
-158.351
0
LINE
8
BLACK
6
CONTINUOUS
10
96.5594
20
-158.351
11
96.1784
21
-158.351
0
LINE
8
BLACK
6
CONTINUOUS
10
96.1784
20
-158.351
11
95.988
21
-158.256
0
LINE
8
BLACK
6
CONTINUOUS
10
95.988
20
-158.256
11
95.8927
21
-158.066
0
LINE
8
BLACK
6
CONTINUOUS
10
95.8927
20
-158.066
11
95.8927
21
-157.304
0
LINE
8
BLACK
6
CONTINUOUS
10
95.8927
20
-157.304
11
95.988
21
-157.113
0
LINE
8
BLACK
6
CONTINUOUS
10
95.988
20
-157.113
11
96.1784
21
-157.018
0
LINE
8
BLACK
6
CONTINUOUS
10
96.1784
20
-157.018
11
96.5594
21
-157.018
0
LINE
8
BLACK
6
CONTINUOUS
10
96.5594
20
-157.018
11
96.7499
21
-157.113
0
LINE
8
BLACK
6
CONTINUOUS
10
96.7499
20
-157.113
11
96.8451
21
-157.304
0
LINE
8
BLACK
6
CONTINUOUS
10
96.8451
20
-157.304
11
96.8451
21
-157.494
0
LINE
8
BLACK
6
CONTINUOUS
10
96.8451
20
-157.494
11
95.8927
21
-157.685
0
LINE
8
BLACK
6
CONTINUOUS
10
97.607
20
-158.256
11
97.7975
21
-158.351
0
LINE
8
BLACK
6
CONTINUOUS
10
97.7975
20
-158.351
11
98.1784
21
-158.351
0
LINE
8
BLACK
6
CONTINUOUS
10
98.1784
20
-158.351
11
98.3689
21
-158.256
0
LINE
8
BLACK
6
CONTINUOUS
10
98.3689
20
-158.256
11
98.4641
21
-158.066
0
LINE
8
BLACK
6
CONTINUOUS
10
98.4641
20
-158.066
11
98.4641
21
-157.97
0
LINE
8
BLACK
6
CONTINUOUS
10
98.4641
20
-157.97
11
98.3689
21
-157.78
0
LINE
8
BLACK
6
CONTINUOUS
10
98.3689
20
-157.78
11
98.1784
21
-157.685
0
LINE
8
BLACK
6
CONTINUOUS
10
98.1784
20
-157.685
11
97.8927
21
-157.685
0
LINE
8
BLACK
6
CONTINUOUS
10
97.8927
20
-157.685
11
97.7022
21
-157.589
0
LINE
8
BLACK
6
CONTINUOUS
10
97.7022
20
-157.589
11
97.607
21
-157.399
0
LINE
8
BLACK
6
CONTINUOUS
10
97.607
20
-157.399
11
97.607
21
-157.304
0
LINE
8
BLACK
6
CONTINUOUS
10
97.607
20
-157.304
11
97.7022
21
-157.113
0
LINE
8
BLACK
6
CONTINUOUS
10
97.7022
20
-157.113
11
97.8927
21
-157.018
0
LINE
8
BLACK
6
CONTINUOUS
10
97.8927
20
-157.018
11
98.1784
21
-157.018
0
LINE
8
BLACK
6
CONTINUOUS
10
98.1784
20
-157.018
11
98.3689
21
-157.113
0
LINE
8
BLACK
6
CONTINUOUS
10
99.1308
20
-159.113
11
99.2261
21
-159.018
0
LINE
8
BLACK
6
CONTINUOUS
10
99.2261
20
-159.018
11
99.4165
21
-158.732
0
LINE
8
BLACK
6
CONTINUOUS
10
99.4165
20
-158.732
11
99.5118
21
-158.542
0
LINE
8
BLACK
6
CONTINUOUS
10
99.5118
20
-158.542
11
99.607
21
-158.256
0
LINE
8
BLACK
6
CONTINUOUS
10
99.607
20
-158.256
11
99.7022
21
-157.78
0
LINE
8
BLACK
6
CONTINUOUS
10
99.7022
20
-157.78
11
99.7022
21
-157.399
0
LINE
8
BLACK
6
CONTINUOUS
10
99.7022
20
-157.399
11
99.607
21
-156.923
0
LINE
8
BLACK
6
CONTINUOUS
10
99.607
20
-156.923
11
99.5118
21
-156.637
0
LINE
8
BLACK
6
CONTINUOUS
10
99.5118
20
-156.637
11
99.4165
21
-156.446
0
LINE
8
BLACK
6
CONTINUOUS
10
99.4165
20
-156.446
11
99.2261
21
-156.161
0
LINE
8
BLACK
6
CONTINUOUS
10
99.2261
20
-156.161
11
99.1308
21
-156.066
0
LINE
8
BLACK
6
CONTINUOUS
10
49.207
20
-159.666
11
49.207
21
-160.466
0
LINE
8
BLACK
6
CONTINUOUS
10
48.807
20
-160.066
11
49.607
21
-160.066
0
LINE
8
BLACK
6
CONTINUOUS
10
52.4641
20
-158.991
11
52.6546
21
-158.991
0
LINE
8
BLACK
6
CONTINUOUS
10
52.6546
20
-158.991
11
52.8451
21
-159.086
0
LINE
8
BLACK
6
CONTINUOUS
10
52.8451
20
-159.086
11
52.9403
21
-159.182
0
LINE
8
BLACK
6
CONTINUOUS
10
52.9403
20
-159.182
11
53.0356
21
-159.372
0
LINE
8
BLACK
6
CONTINUOUS
10
53.0356
20
-159.372
11
53.1308
21
-159.753
0
LINE
8
BLACK
6
CONTINUOUS
10
53.1308
20
-159.753
11
53.1308
21
-160.229
0
LINE
8
BLACK
6
CONTINUOUS
10
53.1308
20
-160.229
11
53.0356
21
-160.61
0
LINE
8
BLACK
6
CONTINUOUS
10
53.0356
20
-160.61
11
52.9403
21
-160.801
0
LINE
8
BLACK
6
CONTINUOUS
10
52.9403
20
-160.801
11
52.8451
21
-160.896
0
LINE
8
BLACK
6
CONTINUOUS
10
52.8451
20
-160.896
11
52.6546
21
-160.991
0
LINE
8
BLACK
6
CONTINUOUS
10
52.6546
20
-160.991
11
52.4641
21
-160.991
0
LINE
8
BLACK
6
CONTINUOUS
10
52.4641
20
-160.991
11
52.2737
21
-160.896
0
LINE
8
BLACK
6
CONTINUOUS
10
52.2737
20
-160.896
11
52.1784
21
-160.801
0
LINE
8
BLACK
6
CONTINUOUS
10
52.1784
20
-160.801
11
52.0832
21
-160.61
0
LINE
8
BLACK
6
CONTINUOUS
10
52.0832
20
-160.61
11
51.988
21
-160.229
0
LINE
8
BLACK
6
CONTINUOUS
10
51.988
20
-160.229
11
51.988
21
-159.753
0
LINE
8
BLACK
6
CONTINUOUS
10
51.988
20
-159.753
11
52.0832
21
-159.372
0
LINE
8
BLACK
6
CONTINUOUS
10
52.0832
20
-159.372
11
52.1784
21
-159.182
0
LINE
8
BLACK
6
CONTINUOUS
10
52.1784
20
-159.182
11
52.2737
21
-159.086
0
LINE
8
BLACK
6
CONTINUOUS
10
52.2737
20
-159.086
11
52.4641
21
-158.991
0
LINE
8
BLACK
6
CONTINUOUS
10
53.988
20
-160.801
11
54.0832
21
-160.896
0
LINE
8
BLACK
6
CONTINUOUS
10
54.0832
20
-160.896
11
53.988
21
-160.991
0
LINE
8
BLACK
6
CONTINUOUS
10
53.988
20
-160.991
11
53.8927
21
-160.896
0
LINE
8
BLACK
6
CONTINUOUS
10
53.8927
20
-160.896
11
53.988
21
-160.801
0
LINE
8
BLACK
6
CONTINUOUS
10
53.988
20
-160.801
11
53.988
21
-160.991
0
LINE
8
BLACK
6
CONTINUOUS
10
55.226
20
-159.848
11
55.0356
21
-159.753
0
LINE
8
BLACK
6
CONTINUOUS
10
55.0356
20
-159.753
11
54.9403
21
-159.658
0
LINE
8
BLACK
6
CONTINUOUS
10
54.9403
20
-159.658
11
54.8451
21
-159.467
0
LINE
8
BLACK
6
CONTINUOUS
10
54.8451
20
-159.467
11
54.8451
21
-159.372
0
LINE
8
BLACK
6
CONTINUOUS
10
54.8451
20
-159.372
11
54.9403
21
-159.182
0
LINE
8
BLACK
6
CONTINUOUS
10
54.9403
20
-159.182
11
55.0356
21
-159.086
0
LINE
8
BLACK
6
CONTINUOUS
10
55.0356
20
-159.086
11
55.226
21
-158.991
0
LINE
8
BLACK
6
CONTINUOUS
10
55.226
20
-158.991
11
55.607
21
-158.991
0
LINE
8
BLACK
6
CONTINUOUS
10
55.607
20
-158.991
11
55.7975
21
-159.086
0
LINE
8
BLACK
6
CONTINUOUS
10
55.7975
20
-159.086
11
55.8927
21
-159.182
0
LINE
8
BLACK
6
CONTINUOUS
10
55.8927
20
-159.182
11
55.988
21
-159.372
0
LINE
8
BLACK
6
CONTINUOUS
10
55.988
20
-159.372
11
55.988
21
-159.467
0
LINE
8
BLACK
6
CONTINUOUS
10
55.988
20
-159.467
11
55.8927
21
-159.658
0
LINE
8
BLACK
6
CONTINUOUS
10
55.8927
20
-159.658
11
55.7975
21
-159.753
0
LINE
8
BLACK
6
CONTINUOUS
10
55.7975
20
-159.753
11
55.607
21
-159.848
0
LINE
8
BLACK
6
CONTINUOUS
10
55.607
20
-159.848
11
55.226
21
-159.848
0
LINE
8
BLACK
6
CONTINUOUS
10
55.226
20
-159.848
11
55.0356
21
-159.944
0
LINE
8
BLACK
6
CONTINUOUS
10
55.0356
20
-159.944
11
54.9403
21
-160.039
0
LINE
8
BLACK
6
CONTINUOUS
10
54.9403
20
-160.039
11
54.8451
21
-160.229
0
LINE
8
BLACK
6
CONTINUOUS
10
54.8451
20
-160.229
11
54.8451
21
-160.61
0
LINE
8
BLACK
6
CONTINUOUS
10
54.8451
20
-160.61
11
54.9403
21
-160.801
0
LINE
8
BLACK
6
CONTINUOUS
10
54.9403
20
-160.801
11
55.0356
21
-160.896
0
LINE
8
BLACK
6
CONTINUOUS
10
55.0356
20
-160.896
11
55.226
21
-160.991
0
LINE
8
BLACK
6
CONTINUOUS
10
55.226
20
-160.991
11
55.607
21
-160.991
0
LINE
8
BLACK
6
CONTINUOUS
10
55.607
20
-160.991
11
55.7975
21
-160.896
0
LINE
8
BLACK
6
CONTINUOUS
10
55.7975
20
-160.896
11
55.8927
21
-160.801
0
LINE
8
BLACK
6
CONTINUOUS
10
55.8927
20
-160.801
11
55.988
21
-160.61
0
LINE
8
BLACK
6
CONTINUOUS
10
55.988
20
-160.61
11
55.988
21
-160.229
0
LINE
8
BLACK
6
CONTINUOUS
10
55.988
20
-160.229
11
55.8927
21
-160.039
0
LINE
8
BLACK
6
CONTINUOUS
10
55.8927
20
-160.039
11
55.7975
21
-159.944
0
LINE
8
BLACK
6
CONTINUOUS
10
55.7975
20
-159.944
11
55.607
21
-159.848
0
LINE
8
BLACK
6
CONTINUOUS
10
57.226
20
-158.991
11
57.4165
21
-158.991
0
LINE
8
BLACK
6
CONTINUOUS
10
57.4165
20
-158.991
11
57.607
21
-159.086
0
LINE
8
BLACK
6
CONTINUOUS
10
57.607
20
-159.086
11
57.7022
21
-159.182
0
LINE
8
BLACK
6
CONTINUOUS
10
57.7022
20
-159.182
11
57.7975
21
-159.372
0
LINE
8
BLACK
6
CONTINUOUS
10
57.7975
20
-159.372
11
57.8927
21
-159.753
0
LINE
8
BLACK
6
CONTINUOUS
10
57.8927
20
-159.753
11
57.8927
21
-160.229
0
LINE
8
BLACK
6
CONTINUOUS
10
57.8927
20
-160.229
11
57.7975
21
-160.61
0
LINE
8
BLACK
6
CONTINUOUS
10
57.7975
20
-160.61
11
57.7022
21
-160.801
0
LINE
8
BLACK
6
CONTINUOUS
10
57.7022
20
-160.801
11
57.607
21
-160.896
0
LINE
8
BLACK
6
CONTINUOUS
10
57.607
20
-160.896
11
57.4165
21
-160.991
0
LINE
8
BLACK
6
CONTINUOUS
10
57.4165
20
-160.991
11
57.226
21
-160.991
0
LINE
8
BLACK
6
CONTINUOUS
10
57.226
20
-160.991
11
57.0356
21
-160.896
0
LINE
8
BLACK
6
CONTINUOUS
10
57.0356
20
-160.896
11
56.9403
21
-160.801
0
LINE
8
BLACK
6
CONTINUOUS
10
56.9403
20
-160.801
11
56.8451
21
-160.61
0
LINE
8
BLACK
6
CONTINUOUS
10
56.8451
20
-160.61
11
56.7499
21
-160.229
0
LINE
8
BLACK
6
CONTINUOUS
10
56.7499
20
-160.229
11
56.7499
21
-159.753
0
LINE
8
BLACK
6
CONTINUOUS
10
56.7499
20
-159.753
11
56.8451
21
-159.372
0
LINE
8
BLACK
6
CONTINUOUS
10
56.8451
20
-159.372
11
56.9403
21
-159.182
0
LINE
8
BLACK
6
CONTINUOUS
10
56.9403
20
-159.182
11
57.0356
21
-159.086
0
LINE
8
BLACK
6
CONTINUOUS
10
57.0356
20
-159.086
11
57.226
21
-158.991
0
LINE
8
BLACK
6
CONTINUOUS
10
59.1308
20
-158.991
11
59.3213
21
-158.991
0
LINE
8
BLACK
6
CONTINUOUS
10
59.3213
20
-158.991
11
59.5118
21
-159.086
0
LINE
8
BLACK
6
CONTINUOUS
10
59.5118
20
-159.086
11
59.607
21
-159.182
0
LINE
8
BLACK
6
CONTINUOUS
10
59.607
20
-159.182
11
59.7022
21
-159.372
0
LINE
8
BLACK
6
CONTINUOUS
10
59.7022
20
-159.372
11
59.7975
21
-159.753
0
LINE
8
BLACK
6
CONTINUOUS
10
59.7975
20
-159.753
11
59.7975
21
-160.229
0
LINE
8
BLACK
6
CONTINUOUS
10
59.7975
20
-160.229
11
59.7022
21
-160.61
0
LINE
8
BLACK
6
CONTINUOUS
10
59.7022
20
-160.61
11
59.607
21
-160.801
0
LINE
8
BLACK
6
CONTINUOUS
10
59.607
20
-160.801
11
59.5118
21
-160.896
0
LINE
8
BLACK
6
CONTINUOUS
10
59.5118
20
-160.896
11
59.3213
21
-160.991
0
LINE
8
BLACK
6
CONTINUOUS
10
59.3213
20
-160.991
11
59.1308
21
-160.991
0
LINE
8
BLACK
6
CONTINUOUS
10
59.1308
20
-160.991
11
58.9403
21
-160.896
0
LINE
8
BLACK
6
CONTINUOUS
10
58.9403
20
-160.896
11
58.8451
21
-160.801
0
LINE
8
BLACK
6
CONTINUOUS
10
58.8451
20
-160.801
11
58.7499
21
-160.61
0
LINE
8
BLACK
6
CONTINUOUS
10
58.7499
20
-160.61
11
58.6546
21
-160.229
0
LINE
8
BLACK
6
CONTINUOUS
10
58.6546
20
-160.229
11
58.6546
21
-159.753
0
LINE
8
BLACK
6
CONTINUOUS
10
58.6546
20
-159.753
11
58.7499
21
-159.372
0
LINE
8
BLACK
6
CONTINUOUS
10
58.7499
20
-159.372
11
58.8451
21
-159.182
0
LINE
8
BLACK
6
CONTINUOUS
10
58.8451
20
-159.182
11
58.9403
21
-159.086
0
LINE
8
BLACK
6
CONTINUOUS
10
58.9403
20
-159.086
11
59.1308
21
-158.991
0
LINE
8
BLACK
6
CONTINUOUS
10
60.6546
20
-160.991
11
60.6546
21
-159.658
0
LINE
8
BLACK
6
CONTINUOUS
10
60.6546
20
-159.848
11
60.7499
21
-159.753
0
LINE
8
BLACK
6
CONTINUOUS
10
60.7499
20
-159.753
11
60.9403
21
-159.658
0
LINE
8
BLACK
6
CONTINUOUS
10
60.9403
20
-159.658
11
61.226
21
-159.658
0
LINE
8
BLACK
6
CONTINUOUS
10
61.226
20
-159.658
11
61.4165
21
-159.753
0
LINE
8
BLACK
6
CONTINUOUS
10
61.4165
20
-159.753
11
61.5118
21
-159.944
0
LINE
8
BLACK
6
CONTINUOUS
10
61.5118
20
-159.944
11
61.5118
21
-160.991
0
LINE
8
BLACK
6
CONTINUOUS
10
61.5118
20
-159.944
11
61.607
21
-159.753
0
LINE
8
BLACK
6
CONTINUOUS
10
61.607
20
-159.753
11
61.7975
21
-159.658
0
LINE
8
BLACK
6
CONTINUOUS
10
61.7975
20
-159.658
11
62.0832
21
-159.658
0
LINE
8
BLACK
6
CONTINUOUS
10
62.0832
20
-159.658
11
62.2737
21
-159.753
0
LINE
8
BLACK
6
CONTINUOUS
10
62.2737
20
-159.753
11
62.3689
21
-159.944
0
LINE
8
BLACK
6
CONTINUOUS
10
62.3689
20
-159.944
11
62.3689
21
-160.991
0
LINE
8
BLACK
6
CONTINUOUS
10
63.3213
20
-160.991
11
63.3213
21
-159.658
0
LINE
8
BLACK
6
CONTINUOUS
10
63.3213
20
-159.848
11
63.4165
21
-159.753
0
LINE
8
BLACK
6
CONTINUOUS
10
63.4165
20
-159.753
11
63.607
21
-159.658
0
LINE
8
BLACK
6
CONTINUOUS
10
63.607
20
-159.658
11
63.8927
21
-159.658
0
LINE
8
BLACK
6
CONTINUOUS
10
63.8927
20
-159.658
11
64.0832
21
-159.753
0
LINE
8
BLACK
6
CONTINUOUS
10
64.0832
20
-159.753
11
64.1784
21
-159.944
0
LINE
8
BLACK
6
CONTINUOUS
10
64.1784
20
-159.944
11
64.1784
21
-160.991
0
LINE
8
BLACK
6
CONTINUOUS
10
64.1784
20
-159.944
11
64.2737
21
-159.753
0
LINE
8
BLACK
6
CONTINUOUS
10
64.2737
20
-159.753
11
64.4641
21
-159.658
0
LINE
8
BLACK
6
CONTINUOUS
10
64.4641
20
-159.658
11
64.7499
21
-159.658
0
LINE
8
BLACK
6
CONTINUOUS
10
64.7499
20
-159.658
11
64.9403
21
-159.753
0
LINE
8
BLACK
6
CONTINUOUS
10
64.9403
20
-159.753
11
65.0356
21
-159.944
0
LINE
8
BLACK
6
CONTINUOUS
10
65.0356
20
-159.944
11
65.0356
21
-160.991
0
LINE
8
BLACK
6
CONTINUOUS
10
68.9403
20
-158.896
11
67.226
21
-161.467
0
LINE
8
BLACK
6
CONTINUOUS
10
71.5118
20
-158.991
11
71.7022
21
-158.991
0
LINE
8
BLACK
6
CONTINUOUS
10
71.7022
20
-158.991
11
71.8927
21
-159.086
0
LINE
8
BLACK
6
CONTINUOUS
10
71.8927
20
-159.086
11
71.988
21
-159.182
0
LINE
8
BLACK
6
CONTINUOUS
10
71.988
20
-159.182
11
72.0832
21
-159.372
0
LINE
8
BLACK
6
CONTINUOUS
10
72.0832
20
-159.372
11
72.1784
21
-159.753
0
LINE
8
BLACK
6
CONTINUOUS
10
72.1784
20
-159.753
11
72.1784
21
-160.229
0
LINE
8
BLACK
6
CONTINUOUS
10
72.1784
20
-160.229
11
72.0832
21
-160.61
0
LINE
8
BLACK
6
CONTINUOUS
10
72.0832
20
-160.61
11
71.988
21
-160.801
0
LINE
8
BLACK
6
CONTINUOUS
10
71.988
20
-160.801
11
71.8927
21
-160.896
0
LINE
8
BLACK
6
CONTINUOUS
10
71.8927
20
-160.896
11
71.7022
21
-160.991
0
LINE
8
BLACK
6
CONTINUOUS
10
71.7022
20
-160.991
11
71.5118
21
-160.991
0
LINE
8
BLACK
6
CONTINUOUS
10
71.5118
20
-160.991
11
71.3213
21
-160.896
0
LINE
8
BLACK
6
CONTINUOUS
10
71.3213
20
-160.896
11
71.226
21
-160.801
0
LINE
8
BLACK
6
CONTINUOUS
10
71.226
20
-160.801
11
71.1308
21
-160.61
0
LINE
8
BLACK
6
CONTINUOUS
10
71.1308
20
-160.61
11
71.0356
21
-160.229
0
LINE
8
BLACK
6
CONTINUOUS
10
71.0356
20
-160.229
11
71.0356
21
-159.753
0
LINE
8
BLACK
6
CONTINUOUS
10
71.0356
20
-159.753
11
71.1308
21
-159.372
0
LINE
8
BLACK
6
CONTINUOUS
10
71.1308
20
-159.372
11
71.226
21
-159.182
0
LINE
8
BLACK
6
CONTINUOUS
10
71.226
20
-159.182
11
71.3213
21
-159.086
0
LINE
8
BLACK
6
CONTINUOUS
10
71.3213
20
-159.086
11
71.5118
21
-158.991
0
LINE
8
BLACK
6
CONTINUOUS
10
73.0356
20
-160.801
11
73.1308
21
-160.896
0
LINE
8
BLACK
6
CONTINUOUS
10
73.1308
20
-160.896
11
73.0356
21
-160.991
0
LINE
8
BLACK
6
CONTINUOUS
10
73.0356
20
-160.991
11
72.9403
21
-160.896
0
LINE
8
BLACK
6
CONTINUOUS
10
72.9403
20
-160.896
11
73.0356
21
-160.801
0
LINE
8
BLACK
6
CONTINUOUS
10
73.0356
20
-160.801
11
73.0356
21
-160.991
0
LINE
8
BLACK
6
CONTINUOUS
10
74.3689
20
-158.991
11
74.5594
21
-158.991
0
LINE
8
BLACK
6
CONTINUOUS
10
74.5594
20
-158.991
11
74.7499
21
-159.086
0
LINE
8
BLACK
6
CONTINUOUS
10
74.7499
20
-159.086
11
74.8451
21
-159.182
0
LINE
8
BLACK
6
CONTINUOUS
10
74.8451
20
-159.182
11
74.9403
21
-159.372
0
LINE
8
BLACK
6
CONTINUOUS
10
74.9403
20
-159.372
11
75.0356
21
-159.753
0
LINE
8
BLACK
6
CONTINUOUS
10
75.0356
20
-159.753
11
75.0356
21
-160.229
0
LINE
8
BLACK
6
CONTINUOUS
10
75.0356
20
-160.229
11
74.9403
21
-160.61
0
LINE
8
BLACK
6
CONTINUOUS
10
74.9403
20
-160.61
11
74.8451
21
-160.801
0
LINE
8
BLACK
6
CONTINUOUS
10
74.8451
20
-160.801
11
74.7499
21
-160.896
0
LINE
8
BLACK
6
CONTINUOUS
10
74.7499
20
-160.896
11
74.5594
21
-160.991
0
LINE
8
BLACK
6
CONTINUOUS
10
74.5594
20
-160.991
11
74.3689
21
-160.991
0
LINE
8
BLACK
6
CONTINUOUS
10
74.3689
20
-160.991
11
74.1784
21
-160.896
0
LINE
8
BLACK
6
CONTINUOUS
10
74.1784
20
-160.896
11
74.0832
21
-160.801
0
LINE
8
BLACK
6
CONTINUOUS
10
74.0832
20
-160.801
11
73.988
21
-160.61
0
LINE
8
BLACK
6
CONTINUOUS
10
73.988
20
-160.61
11
73.8927
21
-160.229
0
LINE
8
BLACK
6
CONTINUOUS
10
73.8927
20
-160.229
11
73.8927
21
-159.753
0
LINE
8
BLACK
6
CONTINUOUS
10
73.8927
20
-159.753
11
73.988
21
-159.372
0
LINE
8
BLACK
6
CONTINUOUS
10
73.988
20
-159.372
11
74.0832
21
-159.182
0
LINE
8
BLACK
6
CONTINUOUS
10
74.0832
20
-159.182
11
74.1784
21
-159.086
0
LINE
8
BLACK
6
CONTINUOUS
10
74.1784
20
-159.086
11
74.3689
21
-158.991
0
LINE
8
BLACK
6
CONTINUOUS
10
75.7022
20
-158.991
11
76.9403
21
-158.991
0
LINE
8
BLACK
6
CONTINUOUS
10
76.9403
20
-158.991
11
76.2737
21
-159.753
0
LINE
8
BLACK
6
CONTINUOUS
10
76.2737
20
-159.753
11
76.5594
21
-159.753
0
LINE
8
BLACK
6
CONTINUOUS
10
76.5594
20
-159.753
11
76.7499
21
-159.848
0
LINE
8
BLACK
6
CONTINUOUS
10
76.7499
20
-159.848
11
76.8451
21
-159.944
0
LINE
8
BLACK
6
CONTINUOUS
10
76.8451
20
-159.944
11
76.9403
21
-160.134
0
LINE
8
BLACK
6
CONTINUOUS
10
76.9403
20
-160.134
11
76.9403
21
-160.61
0
LINE
8
BLACK
6
CONTINUOUS
10
76.9403
20
-160.61
11
76.8451
21
-160.801
0
LINE
8
BLACK
6
CONTINUOUS
10
76.8451
20
-160.801
11
76.7499
21
-160.896
0
LINE
8
BLACK
6
CONTINUOUS
10
76.7499
20
-160.896
11
76.5594
21
-160.991
0
LINE
8
BLACK
6
CONTINUOUS
10
76.5594
20
-160.991
11
75.988
21
-160.991
0
LINE
8
BLACK
6
CONTINUOUS
10
75.988
20
-160.991
11
75.7975
21
-160.896
0
LINE
8
BLACK
6
CONTINUOUS
10
75.7975
20
-160.896
11
75.7022
21
-160.801
0
LINE
8
BLACK
6
CONTINUOUS
10
78.8451
20
-160.991
11
77.7022
21
-160.991
0
LINE
8
BLACK
6
CONTINUOUS
10
78.2737
20
-160.991
11
78.2737
21
-158.991
0
LINE
8
BLACK
6
CONTINUOUS
10
78.2737
20
-158.991
11
78.0832
21
-159.277
0
LINE
8
BLACK
6
CONTINUOUS
10
78.0832
20
-159.277
11
77.8927
21
-159.467
0
LINE
8
BLACK
6
CONTINUOUS
10
77.8927
20
-159.467
11
77.7022
21
-159.563
0
LINE
8
BLACK
6
CONTINUOUS
10
80.6546
20
-158.991
11
79.7022
21
-158.991
0
LINE
8
BLACK
6
CONTINUOUS
10
79.7022
20
-158.991
11
79.607
21
-159.944
0
LINE
8
BLACK
6
CONTINUOUS
10
79.607
20
-159.944
11
79.7022
21
-159.848
0
LINE
8
BLACK
6
CONTINUOUS
10
79.7022
20
-159.848
11
79.8927
21
-159.753
0
LINE
8
BLACK
6
CONTINUOUS
10
79.8927
20
-159.753
11
80.3689
21
-159.753
0
LINE
8
BLACK
6
CONTINUOUS
10
80.3689
20
-159.753
11
80.5594
21
-159.848
0
LINE
8
BLACK
6
CONTINUOUS
10
80.5594
20
-159.848
11
80.6546
21
-159.944
0
LINE
8
BLACK
6
CONTINUOUS
10
80.6546
20
-159.944
11
80.7499
21
-160.134
0
LINE
8
BLACK
6
CONTINUOUS
10
80.7499
20
-160.134
11
80.7499
21
-160.61
0
LINE
8
BLACK
6
CONTINUOUS
10
80.7499
20
-160.61
11
80.6546
21
-160.801
0
LINE
8
BLACK
6
CONTINUOUS
10
80.6546
20
-160.801
11
80.5594
21
-160.896
0
LINE
8
BLACK
6
CONTINUOUS
10
80.5594
20
-160.896
11
80.3689
21
-160.991
0
LINE
8
BLACK
6
CONTINUOUS
10
80.3689
20
-160.991
11
79.8927
21
-160.991
0
LINE
8
BLACK
6
CONTINUOUS
10
79.8927
20
-160.991
11
79.7022
21
-160.896
0
LINE
8
BLACK
6
CONTINUOUS
10
79.7022
20
-160.896
11
79.607
21
-160.801
0
LINE
8
BLACK
6
CONTINUOUS
10
81.5118
20
-158.991
11
81.5118
21
-159.372
0
LINE
8
BLACK
6
CONTINUOUS
10
82.2737
20
-158.991
11
82.2737
21
-159.372
0
LINE
8
BLACK
6
CONTINUOUS
10
85.2261
20
-161.753
11
85.1308
21
-161.658
0
LINE
8
BLACK
6
CONTINUOUS
10
85.1308
20
-161.658
11
84.9403
21
-161.372
0
LINE
8
BLACK
6
CONTINUOUS
10
84.9403
20
-161.372
11
84.8451
21
-161.182
0
LINE
8
BLACK
6
CONTINUOUS
10
84.8451
20
-161.182
11
84.7499
21
-160.896
0
LINE
8
BLACK
6
CONTINUOUS
10
84.7499
20
-160.896
11
84.6546
21
-160.42
0
LINE
8
BLACK
6
CONTINUOUS
10
84.6546
20
-160.42
11
84.6546
21
-160.039
0
LINE
8
BLACK
6
CONTINUOUS
10
84.6546
20
-160.039
11
84.7499
21
-159.563
0
LINE
8
BLACK
6
CONTINUOUS
10
84.7499
20
-159.563
11
84.8451
21
-159.277
0
LINE
8
BLACK
6
CONTINUOUS
10
84.8451
20
-159.277
11
84.9403
21
-159.086
0
LINE
8
BLACK
6
CONTINUOUS
10
84.9403
20
-159.086
11
85.1308
21
-158.801
0
LINE
8
BLACK
6
CONTINUOUS
10
85.1308
20
-158.801
11
85.2261
21
-158.706
0
LINE
8
BLACK
6
CONTINUOUS
10
86.2737
20
-159.848
11
86.0832
21
-159.753
0
LINE
8
BLACK
6
CONTINUOUS
10
86.0832
20
-159.753
11
85.988
21
-159.658
0
LINE
8
BLACK
6
CONTINUOUS
10
85.988
20
-159.658
11
85.8927
21
-159.467
0
LINE
8
BLACK
6
CONTINUOUS
10
85.8927
20
-159.467
11
85.8927
21
-159.372
0
LINE
8
BLACK
6
CONTINUOUS
10
85.8927
20
-159.372
11
85.988
21
-159.182
0
LINE
8
BLACK
6
CONTINUOUS
10
85.988
20
-159.182
11
86.0832
21
-159.086
0
LINE
8
BLACK
6
CONTINUOUS
10
86.0832
20
-159.086
11
86.2737
21
-158.991
0
LINE
8
BLACK
6
CONTINUOUS
10
86.2737
20
-158.991
11
86.6546
21
-158.991
0
LINE
8
BLACK
6
CONTINUOUS
10
86.6546
20
-158.991
11
86.8451
21
-159.086
0
LINE
8
BLACK
6
CONTINUOUS
10
86.8451
20
-159.086
11
86.9403
21
-159.182
0
LINE
8
BLACK
6
CONTINUOUS
10
86.9403
20
-159.182
11
87.0356
21
-159.372
0
LINE
8
BLACK
6
CONTINUOUS
10
87.0356
20
-159.372
11
87.0356
21
-159.467
0
LINE
8
BLACK
6
CONTINUOUS
10
87.0356
20
-159.467
11
86.9403
21
-159.658
0
LINE
8
BLACK
6
CONTINUOUS
10
86.9403
20
-159.658
11
86.8451
21
-159.753
0
LINE
8
BLACK
6
CONTINUOUS
10
86.8451
20
-159.753
11
86.6546
21
-159.848
0
LINE
8
BLACK
6
CONTINUOUS
10
86.6546
20
-159.848
11
86.2737
21
-159.848
0
LINE
8
BLACK
6
CONTINUOUS
10
86.2737
20
-159.848
11
86.0832
21
-159.944
0
LINE
8
BLACK
6
CONTINUOUS
10
86.0832
20
-159.944
11
85.988
21
-160.039
0
LINE
8
BLACK
6
CONTINUOUS
10
85.988
20
-160.039
11
85.8927
21
-160.229
0
LINE
8
BLACK
6
CONTINUOUS
10
85.8927
20
-160.229
11
85.8927
21
-160.61
0
LINE
8
BLACK
6
CONTINUOUS
10
85.8927
20
-160.61
11
85.988
21
-160.801
0
LINE
8
BLACK
6
CONTINUOUS
10
85.988
20
-160.801
11
86.0832
21
-160.896
0
LINE
8
BLACK
6
CONTINUOUS
10
86.0832
20
-160.896
11
86.2737
21
-160.991
0
LINE
8
BLACK
6
CONTINUOUS
10
86.2737
20
-160.991
11
86.6546
21
-160.991
0
LINE
8
BLACK
6
CONTINUOUS
10
86.6546
20
-160.991
11
86.8451
21
-160.896
0
LINE
8
BLACK
6
CONTINUOUS
10
86.8451
20
-160.896
11
86.9403
21
-160.801
0
LINE
8
BLACK
6
CONTINUOUS
10
86.9403
20
-160.801
11
87.0356
21
-160.61
0
LINE
8
BLACK
6
CONTINUOUS
10
87.0356
20
-160.61
11
87.0356
21
-160.229
0
LINE
8
BLACK
6
CONTINUOUS
10
87.0356
20
-160.229
11
86.9403
21
-160.039
0
LINE
8
BLACK
6
CONTINUOUS
10
86.9403
20
-160.039
11
86.8451
21
-159.944
0
LINE
8
BLACK
6
CONTINUOUS
10
86.8451
20
-159.944
11
86.6546
21
-159.848
0
LINE
8
BLACK
6
CONTINUOUS
10
88.7499
20
-159.658
11
88.7499
21
-160.991
0
LINE
8
BLACK
6
CONTINUOUS
10
88.2737
20
-158.896
11
87.7975
21
-160.325
0
LINE
8
BLACK
6
CONTINUOUS
10
87.7975
20
-160.325
11
89.0356
21
-160.325
0
LINE
8
BLACK
6
CONTINUOUS
10
91.3213
20
-160.991
11
91.3213
21
-158.991
0
LINE
8
BLACK
6
CONTINUOUS
10
92.1784
20
-160.991
11
92.1784
21
-159.944
0
LINE
8
BLACK
6
CONTINUOUS
10
92.1784
20
-159.944
11
92.0832
21
-159.753
0
LINE
8
BLACK
6
CONTINUOUS
10
92.0832
20
-159.753
11
91.8927
21
-159.658
0
LINE
8
BLACK
6
CONTINUOUS
10
91.8927
20
-159.658
11
91.607
21
-159.658
0
LINE
8
BLACK
6
CONTINUOUS
10
91.607
20
-159.658
11
91.4165
21
-159.753
0
LINE
8
BLACK
6
CONTINUOUS
10
91.4165
20
-159.753
11
91.3213
21
-159.848
0
LINE
8
BLACK
6
CONTINUOUS
10
93.4165
20
-160.991
11
93.2261
21
-160.896
0
LINE
8
BLACK
6
CONTINUOUS
10
93.2261
20
-160.896
11
93.1308
21
-160.801
0
LINE
8
BLACK
6
CONTINUOUS
10
93.1308
20
-160.801
11
93.0356
21
-160.61
0
LINE
8
BLACK
6
CONTINUOUS
10
93.0356
20
-160.61
11
93.0356
21
-160.039
0
LINE
8
BLACK
6
CONTINUOUS
10
93.0356
20
-160.039
11
93.1308
21
-159.848
0
LINE
8
BLACK
6
CONTINUOUS
10
93.1308
20
-159.848
11
93.2261
21
-159.753
0
LINE
8
BLACK
6
CONTINUOUS
10
93.2261
20
-159.753
11
93.4165
21
-159.658
0
LINE
8
BLACK
6
CONTINUOUS
10
93.4165
20
-159.658
11
93.7022
21
-159.658
0
LINE
8
BLACK
6
CONTINUOUS
10
93.7022
20
-159.658
11
93.8927
21
-159.753
0
LINE
8
BLACK
6
CONTINUOUS
10
93.8927
20
-159.753
11
93.988
21
-159.848
0
LINE
8
BLACK
6
CONTINUOUS
10
93.988
20
-159.848
11
94.0832
21
-160.039
0
LINE
8
BLACK
6
CONTINUOUS
10
94.0832
20
-160.039
11
94.0832
21
-160.61
0
LINE
8
BLACK
6
CONTINUOUS
10
94.0832
20
-160.61
11
93.988
21
-160.801
0
LINE
8
BLACK
6
CONTINUOUS
10
93.988
20
-160.801
11
93.8927
21
-160.896
0
LINE
8
BLACK
6
CONTINUOUS
10
93.8927
20
-160.896
11
93.7022
21
-160.991
0
LINE
8
BLACK
6
CONTINUOUS
10
93.7022
20
-160.991
11
93.4165
21
-160.991
0
LINE
8
BLACK
6
CONTINUOUS
10
95.2261
20
-160.991
11
95.0356
21
-160.896
0
LINE
8
BLACK
6
CONTINUOUS
10
95.0356
20
-160.896
11
94.9403
21
-160.706
0
LINE
8
BLACK
6
CONTINUOUS
10
94.9403
20
-160.706
11
94.9403
21
-158.991
0
LINE
8
BLACK
6
CONTINUOUS
10
96.7499
20
-160.896
11
96.5594
21
-160.991
0
LINE
8
BLACK
6
CONTINUOUS
10
96.5594
20
-160.991
11
96.1784
21
-160.991
0
LINE
8
BLACK
6
CONTINUOUS
10
96.1784
20
-160.991
11
95.988
21
-160.896
0
LINE
8
BLACK
6
CONTINUOUS
10
95.988
20
-160.896
11
95.8927
21
-160.706
0
LINE
8
BLACK
6
CONTINUOUS
10
95.8927
20
-160.706
11
95.8927
21
-159.944
0
LINE
8
BLACK
6
CONTINUOUS
10
95.8927
20
-159.944
11
95.988
21
-159.753
0
LINE
8
BLACK
6
CONTINUOUS
10
95.988
20
-159.753
11
96.1784
21
-159.658
0
LINE
8
BLACK
6
CONTINUOUS
10
96.1784
20
-159.658
11
96.5594
21
-159.658
0
LINE
8
BLACK
6
CONTINUOUS
10
96.5594
20
-159.658
11
96.7499
21
-159.753
0
LINE
8
BLACK
6
CONTINUOUS
10
96.7499
20
-159.753
11
96.8451
21
-159.944
0
LINE
8
BLACK
6
CONTINUOUS
10
96.8451
20
-159.944
11
96.8451
21
-160.134
0
LINE
8
BLACK
6
CONTINUOUS
10
96.8451
20
-160.134
11
95.8927
21
-160.325
0
LINE
8
BLACK
6
CONTINUOUS
10
97.607
20
-160.896
11
97.7975
21
-160.991
0
LINE
8
BLACK
6
CONTINUOUS
10
97.7975
20
-160.991
11
98.1784
21
-160.991
0
LINE
8
BLACK
6
CONTINUOUS
10
98.1784
20
-160.991
11
98.3689
21
-160.896
0
LINE
8
BLACK
6
CONTINUOUS
10
98.3689
20
-160.896
11
98.4641
21
-160.706
0
LINE
8
BLACK
6
CONTINUOUS
10
98.4641
20
-160.706
11
98.4641
21
-160.61
0
LINE
8
BLACK
6
CONTINUOUS
10
98.4641
20
-160.61
11
98.3689
21
-160.42
0
LINE
8
BLACK
6
CONTINUOUS
10
98.3689
20
-160.42
11
98.1784
21
-160.325
0
LINE
8
BLACK
6
CONTINUOUS
10
98.1784
20
-160.325
11
97.8927
21
-160.325
0
LINE
8
BLACK
6
CONTINUOUS
10
97.8927
20
-160.325
11
97.7022
21
-160.229
0
LINE
8
BLACK
6
CONTINUOUS
10
97.7022
20
-160.229
11
97.607
21
-160.039
0
LINE
8
BLACK
6
CONTINUOUS
10
97.607
20
-160.039
11
97.607
21
-159.944
0
LINE
8
BLACK
6
CONTINUOUS
10
97.607
20
-159.944
11
97.7022
21
-159.753
0
LINE
8
BLACK
6
CONTINUOUS
10
97.7022
20
-159.753
11
97.8927
21
-159.658
0
LINE
8
BLACK
6
CONTINUOUS
10
97.8927
20
-159.658
11
98.1784
21
-159.658
0
LINE
8
BLACK
6
CONTINUOUS
10
98.1784
20
-159.658
11
98.3689
21
-159.753
0
LINE
8
BLACK
6
CONTINUOUS
10
99.1308
20
-161.753
11
99.2261
21
-161.658
0
LINE
8
BLACK
6
CONTINUOUS
10
99.2261
20
-161.658
11
99.4165
21
-161.372
0
LINE
8
BLACK
6
CONTINUOUS
10
99.4165
20
-161.372
11
99.5118
21
-161.182
0
LINE
8
BLACK
6
CONTINUOUS
10
99.5118
20
-161.182
11
99.607
21
-160.896
0
LINE
8
BLACK
6
CONTINUOUS
10
99.607
20
-160.896
11
99.7022
21
-160.42
0
LINE
8
BLACK
6
CONTINUOUS
10
99.7022
20
-160.42
11
99.7022
21
-160.039
0
LINE
8
BLACK
6
CONTINUOUS
10
99.7022
20
-160.039
11
99.607
21
-159.563
0
LINE
8
BLACK
6
CONTINUOUS
10
99.607
20
-159.563
11
99.5118
21
-159.277
0
LINE
8
BLACK
6
CONTINUOUS
10
99.5118
20
-159.277
11
99.4165
21
-159.086
0
LINE
8
BLACK
6
CONTINUOUS
10
99.4165
20
-159.086
11
99.2261
21
-158.801
0
LINE
8
BLACK
6
CONTINUOUS
10
99.2261
20
-158.801
11
99.1308
21
-158.706
0
LINE
8
BLACK
6
CONTINUOUS
10
49.4768
20
-163.02
11
49.4768
21
-162.392
0
LINE
8
BLACK
6
CONTINUOUS
10
49.4768
20
-162.392
11
48.8482
21
-162.392
0
LINE
8
BLACK
6
CONTINUOUS
10
48.8482
20
-162.392
11
48.8482
21
-163.02
0
LINE
8
BLACK
6
CONTINUOUS
10
48.8482
20
-163.02
11
49.4768
21
-163.02
0
LINE
8
BLACK
6
CONTINUOUS
10
52.4641
20
-161.631
11
52.6546
21
-161.631
0
LINE
8
BLACK
6
CONTINUOUS
10
52.6546
20
-161.631
11
52.8451
21
-161.726
0
LINE
8
BLACK
6
CONTINUOUS
10
52.8451
20
-161.726
11
52.9403
21
-161.822
0
LINE
8
BLACK
6
CONTINUOUS
10
52.9403
20
-161.822
11
53.0356
21
-162.012
0
LINE
8
BLACK
6
CONTINUOUS
10
53.0356
20
-162.012
11
53.1308
21
-162.393
0
LINE
8
BLACK
6
CONTINUOUS
10
53.1308
20
-162.393
11
53.1308
21
-162.869
0
LINE
8
BLACK
6
CONTINUOUS
10
53.1308
20
-162.869
11
53.0356
21
-163.25
0
LINE
8
BLACK
6
CONTINUOUS
10
53.0356
20
-163.25
11
52.9403
21
-163.441
0
LINE
8
BLACK
6
CONTINUOUS
10
52.9403
20
-163.441
11
52.8451
21
-163.536
0
LINE
8
BLACK
6
CONTINUOUS
10
52.8451
20
-163.536
11
52.6546
21
-163.631
0
LINE
8
BLACK
6
CONTINUOUS
10
52.6546
20
-163.631
11
52.4641
21
-163.631
0
LINE
8
BLACK
6
CONTINUOUS
10
52.4641
20
-163.631
11
52.2737
21
-163.536
0
LINE
8
BLACK
6
CONTINUOUS
10
52.2737
20
-163.536
11
52.1784
21
-163.441
0
LINE
8
BLACK
6
CONTINUOUS
10
52.1784
20
-163.441
11
52.0832
21
-163.25
0
LINE
8
BLACK
6
CONTINUOUS
10
52.0832
20
-163.25
11
51.988
21
-162.869
0
LINE
8
BLACK
6
CONTINUOUS
10
51.988
20
-162.869
11
51.988
21
-162.393
0
LINE
8
BLACK
6
CONTINUOUS
10
51.988
20
-162.393
11
52.0832
21
-162.012
0
LINE
8
BLACK
6
CONTINUOUS
10
52.0832
20
-162.012
11
52.1784
21
-161.822
0
LINE
8
BLACK
6
CONTINUOUS
10
52.1784
20
-161.822
11
52.2737
21
-161.726
0
LINE
8
BLACK
6
CONTINUOUS
10
52.2737
20
-161.726
11
52.4641
21
-161.631
0
LINE
8
BLACK
6
CONTINUOUS
10
53.988
20
-163.441
11
54.0832
21
-163.536
0
LINE
8
BLACK
6
CONTINUOUS
10
54.0832
20
-163.536
11
53.988
21
-163.631
0
LINE
8
BLACK
6
CONTINUOUS
10
53.988
20
-163.631
11
53.8927
21
-163.536
0
LINE
8
BLACK
6
CONTINUOUS
10
53.8927
20
-163.536
11
53.988
21
-163.441
0
LINE
8
BLACK
6
CONTINUOUS
10
53.988
20
-163.441
11
53.988
21
-163.631
0
LINE
8
BLACK
6
CONTINUOUS
10
55.226
20
-162.488
11
55.0356
21
-162.393
0
LINE
8
BLACK
6
CONTINUOUS
10
55.0356
20
-162.393
11
54.9403
21
-162.298
0
LINE
8
BLACK
6
CONTINUOUS
10
54.9403
20
-162.298
11
54.8451
21
-162.107
0
LINE
8
BLACK
6
CONTINUOUS
10
54.8451
20
-162.107
11
54.8451
21
-162.012
0
LINE
8
BLACK
6
CONTINUOUS
10
54.8451
20
-162.012
11
54.9403
21
-161.822
0
LINE
8
BLACK
6
CONTINUOUS
10
54.9403
20
-161.822
11
55.0356
21
-161.726
0
LINE
8
BLACK
6
CONTINUOUS
10
55.0356
20
-161.726
11
55.226
21
-161.631
0
LINE
8
BLACK
6
CONTINUOUS
10
55.226
20
-161.631
11
55.607
21
-161.631
0
LINE
8
BLACK
6
CONTINUOUS
10
55.607
20
-161.631
11
55.7975
21
-161.726
0
LINE
8
BLACK
6
CONTINUOUS
10
55.7975
20
-161.726
11
55.8927
21
-161.822
0
LINE
8
BLACK
6
CONTINUOUS
10
55.8927
20
-161.822
11
55.988
21
-162.012
0
LINE
8
BLACK
6
CONTINUOUS
10
55.988
20
-162.012
11
55.988
21
-162.107
0
LINE
8
BLACK
6
CONTINUOUS
10
55.988
20
-162.107
11
55.8927
21
-162.298
0
LINE
8
BLACK
6
CONTINUOUS
10
55.8927
20
-162.298
11
55.7975
21
-162.393
0
LINE
8
BLACK
6
CONTINUOUS
10
55.7975
20
-162.393
11
55.607
21
-162.488
0
LINE
8
BLACK
6
CONTINUOUS
10
55.607
20
-162.488
11
55.226
21
-162.488
0
LINE
8
BLACK
6
CONTINUOUS
10
55.226
20
-162.488
11
55.0356
21
-162.584
0
LINE
8
BLACK
6
CONTINUOUS
10
55.0356
20
-162.584
11
54.9403
21
-162.679
0
LINE
8
BLACK
6
CONTINUOUS
10
54.9403
20
-162.679
11
54.8451
21
-162.869
0
LINE
8
BLACK
6
CONTINUOUS
10
54.8451
20
-162.869
11
54.8451
21
-163.25
0
LINE
8
BLACK
6
CONTINUOUS
10
54.8451
20
-163.25
11
54.9403
21
-163.441
0
LINE
8
BLACK
6
CONTINUOUS
10
54.9403
20
-163.441
11
55.0356
21
-163.536
0
LINE
8
BLACK
6
CONTINUOUS
10
55.0356
20
-163.536
11
55.226
21
-163.631
0
LINE
8
BLACK
6
CONTINUOUS
10
55.226
20
-163.631
11
55.607
21
-163.631
0
LINE
8
BLACK
6
CONTINUOUS
10
55.607
20
-163.631
11
55.7975
21
-163.536
0
LINE
8
BLACK
6
CONTINUOUS
10
55.7975
20
-163.536
11
55.8927
21
-163.441
0
LINE
8
BLACK
6
CONTINUOUS
10
55.8927
20
-163.441
11
55.988
21
-163.25
0
LINE
8
BLACK
6
CONTINUOUS
10
55.988
20
-163.25
11
55.988
21
-162.869
0
LINE
8
BLACK
6
CONTINUOUS
10
55.988
20
-162.869
11
55.8927
21
-162.679
0
LINE
8
BLACK
6
CONTINUOUS
10
55.8927
20
-162.679
11
55.7975
21
-162.584
0
LINE
8
BLACK
6
CONTINUOUS
10
55.7975
20
-162.584
11
55.607
21
-162.488
0
LINE
8
BLACK
6
CONTINUOUS
10
57.1308
20
-162.488
11
56.9403
21
-162.393
0
LINE
8
BLACK
6
CONTINUOUS
10
56.9403
20
-162.393
11
56.8451
21
-162.298
0
LINE
8
BLACK
6
CONTINUOUS
10
56.8451
20
-162.298
11
56.7499
21
-162.107
0
LINE
8
BLACK
6
CONTINUOUS
10
56.7499
20
-162.107
11
56.7499
21
-162.012
0
LINE
8
BLACK
6
CONTINUOUS
10
56.7499
20
-162.012
11
56.8451
21
-161.822
0
LINE
8
BLACK
6
CONTINUOUS
10
56.8451
20
-161.822
11
56.9403
21
-161.726
0
LINE
8
BLACK
6
CONTINUOUS
10
56.9403
20
-161.726
11
57.1308
21
-161.631
0
LINE
8
BLACK
6
CONTINUOUS
10
57.1308
20
-161.631
11
57.5118
21
-161.631
0
LINE
8
BLACK
6
CONTINUOUS
10
57.5118
20
-161.631
11
57.7022
21
-161.726
0
LINE
8
BLACK
6
CONTINUOUS
10
57.7022
20
-161.726
11
57.7975
21
-161.822
0
LINE
8
BLACK
6
CONTINUOUS
10
57.7975
20
-161.822
11
57.8927
21
-162.012
0
LINE
8
BLACK
6
CONTINUOUS
10
57.8927
20
-162.012
11
57.8927
21
-162.107
0
LINE
8
BLACK
6
CONTINUOUS
10
57.8927
20
-162.107
11
57.7975
21
-162.298
0
LINE
8
BLACK
6
CONTINUOUS
10
57.7975
20
-162.298
11
57.7022
21
-162.393
0
LINE
8
BLACK
6
CONTINUOUS
10
57.7022
20
-162.393
11
57.5118
21
-162.488
0
LINE
8
BLACK
6
CONTINUOUS
10
57.5118
20
-162.488
11
57.1308
21
-162.488
0
LINE
8
BLACK
6
CONTINUOUS
10
57.1308
20
-162.488
11
56.9403
21
-162.584
0
LINE
8
BLACK
6
CONTINUOUS
10
56.9403
20
-162.584
11
56.8451
21
-162.679
0
LINE
8
BLACK
6
CONTINUOUS
10
56.8451
20
-162.679
11
56.7499
21
-162.869
0
LINE
8
BLACK
6
CONTINUOUS
10
56.7499
20
-162.869
11
56.7499
21
-163.25
0
LINE
8
BLACK
6
CONTINUOUS
10
56.7499
20
-163.25
11
56.8451
21
-163.441
0
LINE
8
BLACK
6
CONTINUOUS
10
56.8451
20
-163.441
11
56.9403
21
-163.536
0
LINE
8
BLACK
6
CONTINUOUS
10
56.9403
20
-163.536
11
57.1308
21
-163.631
0
LINE
8
BLACK
6
CONTINUOUS
10
57.1308
20
-163.631
11
57.5118
21
-163.631
0
LINE
8
BLACK
6
CONTINUOUS
10
57.5118
20
-163.631
11
57.7022
21
-163.536
0
LINE
8
BLACK
6
CONTINUOUS
10
57.7022
20
-163.536
11
57.7975
21
-163.441
0
LINE
8
BLACK
6
CONTINUOUS
10
57.7975
20
-163.441
11
57.8927
21
-163.25
0
LINE
8
BLACK
6
CONTINUOUS
10
57.8927
20
-163.25
11
57.8927
21
-162.869
0
LINE
8
BLACK
6
CONTINUOUS
10
57.8927
20
-162.869
11
57.7975
21
-162.679
0
LINE
8
BLACK
6
CONTINUOUS
10
57.7975
20
-162.679
11
57.7022
21
-162.584
0
LINE
8
BLACK
6
CONTINUOUS
10
57.7022
20
-162.584
11
57.5118
21
-162.488
0
LINE
8
BLACK
6
CONTINUOUS
10
58.8451
20
-163.631
11
59.226
21
-163.631
0
LINE
8
BLACK
6
CONTINUOUS
10
59.226
20
-163.631
11
59.4165
21
-163.536
0
LINE
8
BLACK
6
CONTINUOUS
10
59.4165
20
-163.536
11
59.5118
21
-163.441
0
LINE
8
BLACK
6
CONTINUOUS
10
59.5118
20
-163.441
11
59.7022
21
-163.155
0
LINE
8
BLACK
6
CONTINUOUS
10
59.7022
20
-163.155
11
59.7975
21
-162.774
0
LINE
8
BLACK
6
CONTINUOUS
10
59.7975
20
-162.774
11
59.7975
21
-162.012
0
LINE
8
BLACK
6
CONTINUOUS
10
59.7975
20
-162.012
11
59.7022
21
-161.822
0
LINE
8
BLACK
6
CONTINUOUS
10
59.7022
20
-161.822
11
59.607
21
-161.726
0
LINE
8
BLACK
6
CONTINUOUS
10
59.607
20
-161.726
11
59.4165
21
-161.631
0
LINE
8
BLACK
6
CONTINUOUS
10
59.4165
20
-161.631
11
59.0356
21
-161.631
0
LINE
8
BLACK
6
CONTINUOUS
10
59.0356
20
-161.631
11
58.8451
21
-161.726
0
LINE
8
BLACK
6
CONTINUOUS
10
58.8451
20
-161.726
11
58.7499
21
-161.822
0
LINE
8
BLACK
6
CONTINUOUS
10
58.7499
20
-161.822
11
58.6546
21
-162.012
0
LINE
8
BLACK
6
CONTINUOUS
10
58.6546
20
-162.012
11
58.6546
21
-162.488
0
LINE
8
BLACK
6
CONTINUOUS
10
58.6546
20
-162.488
11
58.7499
21
-162.679
0
LINE
8
BLACK
6
CONTINUOUS
10
58.7499
20
-162.679
11
58.8451
21
-162.774
0
LINE
8
BLACK
6
CONTINUOUS
10
58.8451
20
-162.774
11
59.0356
21
-162.869
0
LINE
8
BLACK
6
CONTINUOUS
10
59.0356
20
-162.869
11
59.4165
21
-162.869
0
LINE
8
BLACK
6
CONTINUOUS
10
59.4165
20
-162.869
11
59.607
21
-162.774
0
LINE
8
BLACK
6
CONTINUOUS
10
59.607
20
-162.774
11
59.7022
21
-162.679
0
LINE
8
BLACK
6
CONTINUOUS
10
59.7022
20
-162.679
11
59.7975
21
-162.488
0
LINE
8
BLACK
6
CONTINUOUS
10
60.6546
20
-163.631
11
60.6546
21
-162.298
0
LINE
8
BLACK
6
CONTINUOUS
10
60.6546
20
-162.488
11
60.7499
21
-162.393
0
LINE
8
BLACK
6
CONTINUOUS
10
60.7499
20
-162.393
11
60.9403
21
-162.298
0
LINE
8
BLACK
6
CONTINUOUS
10
60.9403
20
-162.298
11
61.226
21
-162.298
0
LINE
8
BLACK
6
CONTINUOUS
10
61.226
20
-162.298
11
61.4165
21
-162.393
0
LINE
8
BLACK
6
CONTINUOUS
10
61.4165
20
-162.393
11
61.5118
21
-162.584
0
LINE
8
BLACK
6
CONTINUOUS
10
61.5118
20
-162.584
11
61.5118
21
-163.631
0
LINE
8
BLACK
6
CONTINUOUS
10
61.5118
20
-162.584
11
61.607
21
-162.393
0
LINE
8
BLACK
6
CONTINUOUS
10
61.607
20
-162.393
11
61.7975
21
-162.298
0
LINE
8
BLACK
6
CONTINUOUS
10
61.7975
20
-162.298
11
62.0832
21
-162.298
0
LINE
8
BLACK
6
CONTINUOUS
10
62.0832
20
-162.298
11
62.2737
21
-162.393
0
LINE
8
BLACK
6
CONTINUOUS
10
62.2737
20
-162.393
11
62.3689
21
-162.584
0
LINE
8
BLACK
6
CONTINUOUS
10
62.3689
20
-162.584
11
62.3689
21
-163.631
0
LINE
8
BLACK
6
CONTINUOUS
10
63.3213
20
-163.631
11
63.3213
21
-162.298
0
LINE
8
BLACK
6
CONTINUOUS
10
63.3213
20
-162.488
11
63.4165
21
-162.393
0
LINE
8
BLACK
6
CONTINUOUS
10
63.4165
20
-162.393
11
63.607
21
-162.298
0
LINE
8
BLACK
6
CONTINUOUS
10
63.607
20
-162.298
11
63.8927
21
-162.298
0
LINE
8
BLACK
6
CONTINUOUS
10
63.8927
20
-162.298
11
64.0832
21
-162.393
0
LINE
8
BLACK
6
CONTINUOUS
10
64.0832
20
-162.393
11
64.1784
21
-162.584
0
LINE
8
BLACK
6
CONTINUOUS
10
64.1784
20
-162.584
11
64.1784
21
-163.631
0
LINE
8
BLACK
6
CONTINUOUS
10
64.1784
20
-162.584
11
64.2737
21
-162.393
0
LINE
8
BLACK
6
CONTINUOUS
10
64.2737
20
-162.393
11
64.4641
21
-162.298
0
LINE
8
BLACK
6
CONTINUOUS
10
64.4641
20
-162.298
11
64.7499
21
-162.298
0
LINE
8
BLACK
6
CONTINUOUS
10
64.7499
20
-162.298
11
64.9403
21
-162.393
0
LINE
8
BLACK
6
CONTINUOUS
10
64.9403
20
-162.393
11
65.0356
21
-162.584
0
LINE
8
BLACK
6
CONTINUOUS
10
65.0356
20
-162.584
11
65.0356
21
-163.631
0
LINE
8
BLACK
6
CONTINUOUS
10
68.9403
20
-161.536
11
67.226
21
-164.107
0
LINE
8
BLACK
6
CONTINUOUS
10
71.5118
20
-161.631
11
71.7022
21
-161.631
0
LINE
8
BLACK
6
CONTINUOUS
10
71.7022
20
-161.631
11
71.8927
21
-161.726
0
LINE
8
BLACK
6
CONTINUOUS
10
71.8927
20
-161.726
11
71.988
21
-161.822
0
LINE
8
BLACK
6
CONTINUOUS
10
71.988
20
-161.822
11
72.0832
21
-162.012
0
LINE
8
BLACK
6
CONTINUOUS
10
72.0832
20
-162.012
11
72.1784
21
-162.393
0
LINE
8
BLACK
6
CONTINUOUS
10
72.1784
20
-162.393
11
72.1784
21
-162.869
0
LINE
8
BLACK
6
CONTINUOUS
10
72.1784
20
-162.869
11
72.0832
21
-163.25
0
LINE
8
BLACK
6
CONTINUOUS
10
72.0832
20
-163.25
11
71.988
21
-163.441
0
LINE
8
BLACK
6
CONTINUOUS
10
71.988
20
-163.441
11
71.8927
21
-163.536
0
LINE
8
BLACK
6
CONTINUOUS
10
71.8927
20
-163.536
11
71.7022
21
-163.631
0
LINE
8
BLACK
6
CONTINUOUS
10
71.7022
20
-163.631
11
71.5118
21
-163.631
0
LINE
8
BLACK
6
CONTINUOUS
10
71.5118
20
-163.631
11
71.3213
21
-163.536
0
LINE
8
BLACK
6
CONTINUOUS
10
71.3213
20
-163.536
11
71.226
21
-163.441
0
LINE
8
BLACK
6
CONTINUOUS
10
71.226
20
-163.441
11
71.1308
21
-163.25
0
LINE
8
BLACK
6
CONTINUOUS
10
71.1308
20
-163.25
11
71.0356
21
-162.869
0
LINE
8
BLACK
6
CONTINUOUS
10
71.0356
20
-162.869
11
71.0356
21
-162.393
0
LINE
8
BLACK
6
CONTINUOUS
10
71.0356
20
-162.393
11
71.1308
21
-162.012
0
LINE
8
BLACK
6
CONTINUOUS
10
71.1308
20
-162.012
11
71.226
21
-161.822
0
LINE
8
BLACK
6
CONTINUOUS
10
71.226
20
-161.822
11
71.3213
21
-161.726
0
LINE
8
BLACK
6
CONTINUOUS
10
71.3213
20
-161.726
11
71.5118
21
-161.631
0
LINE
8
BLACK
6
CONTINUOUS
10
73.0356
20
-163.441
11
73.1308
21
-163.536
0
LINE
8
BLACK
6
CONTINUOUS
10
73.1308
20
-163.536
11
73.0356
21
-163.631
0
LINE
8
BLACK
6
CONTINUOUS
10
73.0356
20
-163.631
11
72.9403
21
-163.536
0
LINE
8
BLACK
6
CONTINUOUS
10
72.9403
20
-163.536
11
73.0356
21
-163.441
0
LINE
8
BLACK
6
CONTINUOUS
10
73.0356
20
-163.441
11
73.0356
21
-163.631
0
LINE
8
BLACK
6
CONTINUOUS
10
74.3689
20
-161.631
11
74.5594
21
-161.631
0
LINE
8
BLACK
6
CONTINUOUS
10
74.5594
20
-161.631
11
74.7499
21
-161.726
0
LINE
8
BLACK
6
CONTINUOUS
10
74.7499
20
-161.726
11
74.8451
21
-161.822
0
LINE
8
BLACK
6
CONTINUOUS
10
74.8451
20
-161.822
11
74.9403
21
-162.012
0
LINE
8
BLACK
6
CONTINUOUS
10
74.9403
20
-162.012
11
75.0356
21
-162.393
0
LINE
8
BLACK
6
CONTINUOUS
10
75.0356
20
-162.393
11
75.0356
21
-162.869
0
LINE
8
BLACK
6
CONTINUOUS
10
75.0356
20
-162.869
11
74.9403
21
-163.25
0
LINE
8
BLACK
6
CONTINUOUS
10
74.9403
20
-163.25
11
74.8451
21
-163.441
0
LINE
8
BLACK
6
CONTINUOUS
10
74.8451
20
-163.441
11
74.7499
21
-163.536
0
LINE
8
BLACK
6
CONTINUOUS
10
74.7499
20
-163.536
11
74.5594
21
-163.631
0
LINE
8
BLACK
6
CONTINUOUS
10
74.5594
20
-163.631
11
74.3689
21
-163.631
0
LINE
8
BLACK
6
CONTINUOUS
10
74.3689
20
-163.631
11
74.1784
21
-163.536
0
LINE
8
BLACK
6
CONTINUOUS
10
74.1784
20
-163.536
11
74.0832
21
-163.441
0
LINE
8
BLACK
6
CONTINUOUS
10
74.0832
20
-163.441
11
73.988
21
-163.25
0
LINE
8
BLACK
6
CONTINUOUS
10
73.988
20
-163.25
11
73.8927
21
-162.869
0
LINE
8
BLACK
6
CONTINUOUS
10
73.8927
20
-162.869
11
73.8927
21
-162.393
0
LINE
8
BLACK
6
CONTINUOUS
10
73.8927
20
-162.393
11
73.988
21
-162.012
0
LINE
8
BLACK
6
CONTINUOUS
10
73.988
20
-162.012
11
74.0832
21
-161.822
0
LINE
8
BLACK
6
CONTINUOUS
10
74.0832
20
-161.822
11
74.1784
21
-161.726
0
LINE
8
BLACK
6
CONTINUOUS
10
74.1784
20
-161.726
11
74.3689
21
-161.631
0
LINE
8
BLACK
6
CONTINUOUS
10
75.7022
20
-161.631
11
76.9403
21
-161.631
0
LINE
8
BLACK
6
CONTINUOUS
10
76.9403
20
-161.631
11
76.2737
21
-162.393
0
LINE
8
BLACK
6
CONTINUOUS
10
76.2737
20
-162.393
11
76.5594
21
-162.393
0
LINE
8
BLACK
6
CONTINUOUS
10
76.5594
20
-162.393
11
76.7499
21
-162.488
0
LINE
8
BLACK
6
CONTINUOUS
10
76.7499
20
-162.488
11
76.8451
21
-162.584
0
LINE
8
BLACK
6
CONTINUOUS
10
76.8451
20
-162.584
11
76.9403
21
-162.774
0
LINE
8
BLACK
6
CONTINUOUS
10
76.9403
20
-162.774
11
76.9403
21
-163.25
0
LINE
8
BLACK
6
CONTINUOUS
10
76.9403
20
-163.25
11
76.8451
21
-163.441
0
LINE
8
BLACK
6
CONTINUOUS
10
76.8451
20
-163.441
11
76.7499
21
-163.536
0
LINE
8
BLACK
6
CONTINUOUS
10
76.7499
20
-163.536
11
76.5594
21
-163.631
0
LINE
8
BLACK
6
CONTINUOUS
10
76.5594
20
-163.631
11
75.988
21
-163.631
0
LINE
8
BLACK
6
CONTINUOUS
10
75.988
20
-163.631
11
75.7975
21
-163.536
0
LINE
8
BLACK
6
CONTINUOUS
10
75.7975
20
-163.536
11
75.7022
21
-163.441
0
LINE
8
BLACK
6
CONTINUOUS
10
78.7499
20
-161.631
11
77.7975
21
-161.631
0
LINE
8
BLACK
6
CONTINUOUS
10
77.7975
20
-161.631
11
77.7022
21
-162.584
0
LINE
8
BLACK
6
CONTINUOUS
10
77.7022
20
-162.584
11
77.7975
21
-162.488
0
LINE
8
BLACK
6
CONTINUOUS
10
77.7975
20
-162.488
11
77.988
21
-162.393
0
LINE
8
BLACK
6
CONTINUOUS
10
77.988
20
-162.393
11
78.4641
21
-162.393
0
LINE
8
BLACK
6
CONTINUOUS
10
78.4641
20
-162.393
11
78.6546
21
-162.488
0
LINE
8
BLACK
6
CONTINUOUS
10
78.6546
20
-162.488
11
78.7499
21
-162.584
0
LINE
8
BLACK
6
CONTINUOUS
10
78.7499
20
-162.584
11
78.8451
21
-162.774
0
LINE
8
BLACK
6
CONTINUOUS
10
78.8451
20
-162.774
11
78.8451
21
-163.25
0
LINE
8
BLACK
6
CONTINUOUS
10
78.8451
20
-163.25
11
78.7499
21
-163.441
0
LINE
8
BLACK
6
CONTINUOUS
10
78.7499
20
-163.441
11
78.6546
21
-163.536
0
LINE
8
BLACK
6
CONTINUOUS
10
78.6546
20
-163.536
11
78.4641
21
-163.631
0
LINE
8
BLACK
6
CONTINUOUS
10
78.4641
20
-163.631
11
77.988
21
-163.631
0
LINE
8
BLACK
6
CONTINUOUS
10
77.988
20
-163.631
11
77.7975
21
-163.536
0
LINE
8
BLACK
6
CONTINUOUS
10
77.7975
20
-163.536
11
77.7022
21
-163.441
0
LINE
8
BLACK
6
CONTINUOUS
10
80.0832
20
-161.631
11
80.2737
21
-161.631
0
LINE
8
BLACK
6
CONTINUOUS
10
80.2737
20
-161.631
11
80.4641
21
-161.726
0
LINE
8
BLACK
6
CONTINUOUS
10
80.4641
20
-161.726
11
80.5594
21
-161.822
0
LINE
8
BLACK
6
CONTINUOUS
10
80.5594
20
-161.822
11
80.6546
21
-162.012
0
LINE
8
BLACK
6
CONTINUOUS
10
80.6546
20
-162.012
11
80.7499
21
-162.393
0
LINE
8
BLACK
6
CONTINUOUS
10
80.7499
20
-162.393
11
80.7499
21
-162.869
0
LINE
8
BLACK
6
CONTINUOUS
10
80.7499
20
-162.869
11
80.6546
21
-163.25
0
LINE
8
BLACK
6
CONTINUOUS
10
80.6546
20
-163.25
11
80.5594
21
-163.441
0
LINE
8
BLACK
6
CONTINUOUS
10
80.5594
20
-163.441
11
80.4641
21
-163.536
0
LINE
8
BLACK
6
CONTINUOUS
10
80.4641
20
-163.536
11
80.2737
21
-163.631
0
LINE
8
BLACK
6
CONTINUOUS
10
80.2737
20
-163.631
11
80.0832
21
-163.631
0
LINE
8
BLACK
6
CONTINUOUS
10
80.0832
20
-163.631
11
79.8927
21
-163.536
0
LINE
8
BLACK
6
CONTINUOUS
10
79.8927
20
-163.536
11
79.7975
21
-163.441
0
LINE
8
BLACK
6
CONTINUOUS
10
79.7975
20
-163.441
11
79.7022
21
-163.25
0
LINE
8
BLACK
6
CONTINUOUS
10
79.7022
20
-163.25
11
79.607
21
-162.869
0
LINE
8
BLACK
6
CONTINUOUS
10
79.607
20
-162.869
11
79.607
21
-162.393
0
LINE
8
BLACK
6
CONTINUOUS
10
79.607
20
-162.393
11
79.7022
21
-162.012
0
LINE
8
BLACK
6
CONTINUOUS
10
79.7022
20
-162.012
11
79.7975
21
-161.822
0
LINE
8
BLACK
6
CONTINUOUS
10
79.7975
20
-161.822
11
79.8927
21
-161.726
0
LINE
8
BLACK
6
CONTINUOUS
10
79.8927
20
-161.726
11
80.0832
21
-161.631
0
LINE
8
BLACK
6
CONTINUOUS
10
81.5118
20
-161.631
11
81.5118
21
-162.012
0
LINE
8
BLACK
6
CONTINUOUS
10
82.2737
20
-161.631
11
82.2737
21
-162.012
0
LINE
8
BLACK
6
CONTINUOUS
10
85.2261
20
-164.393
11
85.1308
21
-164.298
0
LINE
8
BLACK
6
CONTINUOUS
10
85.1308
20
-164.298
11
84.9403
21
-164.012
0
LINE
8
BLACK
6
CONTINUOUS
10
84.9403
20
-164.012
11
84.8451
21
-163.822
0
LINE
8
BLACK
6
CONTINUOUS
10
84.8451
20
-163.822
11
84.7499
21
-163.536
0
LINE
8
BLACK
6
CONTINUOUS
10
84.7499
20
-163.536
11
84.6546
21
-163.06
0
LINE
8
BLACK
6
CONTINUOUS
10
84.6546
20
-163.06
11
84.6546
21
-162.679
0
LINE
8
BLACK
6
CONTINUOUS
10
84.6546
20
-162.679
11
84.7499
21
-162.203
0
LINE
8
BLACK
6
CONTINUOUS
10
84.7499
20
-162.203
11
84.8451
21
-161.917
0
LINE
8
BLACK
6
CONTINUOUS
10
84.8451
20
-161.917
11
84.9403
21
-161.726
0
LINE
8
BLACK
6
CONTINUOUS
10
84.9403
20
-161.726
11
85.1308
21
-161.441
0
LINE
8
BLACK
6
CONTINUOUS
10
85.1308
20
-161.441
11
85.2261
21
-161.346
0
LINE
8
BLACK
6
CONTINUOUS
10
85.7975
20
-161.631
11
87.0356
21
-161.631
0
LINE
8
BLACK
6
CONTINUOUS
10
87.0356
20
-161.631
11
86.3689
21
-162.393
0
LINE
8
BLACK
6
CONTINUOUS
10
86.3689
20
-162.393
11
86.6546
21
-162.393
0
LINE
8
BLACK
6
CONTINUOUS
10
86.6546
20
-162.393
11
86.8451
21
-162.488
0
LINE
8
BLACK
6
CONTINUOUS
10
86.8451
20
-162.488
11
86.9403
21
-162.584
0
LINE
8
BLACK
6
CONTINUOUS
10
86.9403
20
-162.584
11
87.0356
21
-162.774
0
LINE
8
BLACK
6
CONTINUOUS
10
87.0356
20
-162.774
11
87.0356
21
-163.25
0
LINE
8
BLACK
6
CONTINUOUS
10
87.0356
20
-163.25
11
86.9403
21
-163.441
0
LINE
8
BLACK
6
CONTINUOUS
10
86.9403
20
-163.441
11
86.8451
21
-163.536
0
LINE
8
BLACK
6
CONTINUOUS
10
86.8451
20
-163.536
11
86.6546
21
-163.631
0
LINE
8
BLACK
6
CONTINUOUS
10
86.6546
20
-163.631
11
86.0832
21
-163.631
0
LINE
8
BLACK
6
CONTINUOUS
10
86.0832
20
-163.631
11
85.8927
21
-163.536
0
LINE
8
BLACK
6
CONTINUOUS
10
85.8927
20
-163.536
11
85.7975
21
-163.441
0
LINE
8
BLACK
6
CONTINUOUS
10
87.7975
20
-161.822
11
87.8927
21
-161.726
0
LINE
8
BLACK
6
CONTINUOUS
10
87.8927
20
-161.726
11
88.0832
21
-161.631
0
LINE
8
BLACK
6
CONTINUOUS
10
88.0832
20
-161.631
11
88.5594
21
-161.631
0
LINE
8
BLACK
6
CONTINUOUS
10
88.5594
20
-161.631
11
88.7499
21
-161.726
0
LINE
8
BLACK
6
CONTINUOUS
10
88.7499
20
-161.726
11
88.8451
21
-161.822
0
LINE
8
BLACK
6
CONTINUOUS
10
88.8451
20
-161.822
11
88.9403
21
-162.012
0
LINE
8
BLACK
6
CONTINUOUS
10
88.9403
20
-162.012
11
88.9403
21
-162.203
0
LINE
8
BLACK
6
CONTINUOUS
10
88.9403
20
-162.203
11
88.8451
21
-162.488
0
LINE
8
BLACK
6
CONTINUOUS
10
88.8451
20
-162.488
11
87.7022
21
-163.631
0
LINE
8
BLACK
6
CONTINUOUS
10
87.7022
20
-163.631
11
88.9403
21
-163.631
0
LINE
8
BLACK
6
CONTINUOUS
10
91.3213
20
-163.631
11
91.3213
21
-161.631
0
LINE
8
BLACK
6
CONTINUOUS
10
92.1784
20
-163.631
11
92.1784
21
-162.584
0
LINE
8
BLACK
6
CONTINUOUS
10
92.1784
20
-162.584
11
92.0832
21
-162.393
0
LINE
8
BLACK
6
CONTINUOUS
10
92.0832
20
-162.393
11
91.8927
21
-162.298
0
LINE
8
BLACK
6
CONTINUOUS
10
91.8927
20
-162.298
11
91.607
21
-162.298
0
LINE
8
BLACK
6
CONTINUOUS
10
91.607
20
-162.298
11
91.4165
21
-162.393
0
LINE
8
BLACK
6
CONTINUOUS
10
91.4165
20
-162.393
11
91.3213
21
-162.488
0
LINE
8
BLACK
6
CONTINUOUS
10
93.4165
20
-163.631
11
93.2261
21
-163.536
0
LINE
8
BLACK
6
CONTINUOUS
10
93.2261
20
-163.536
11
93.1308
21
-163.441
0
LINE
8
BLACK
6
CONTINUOUS
10
93.1308
20
-163.441
11
93.0356
21
-163.25
0
LINE
8
BLACK
6
CONTINUOUS
10
93.0356
20
-163.25
11
93.0356
21
-162.679
0
LINE
8
BLACK
6
CONTINUOUS
10
93.0356
20
-162.679
11
93.1308
21
-162.488
0
LINE
8
BLACK
6
CONTINUOUS
10
93.1308
20
-162.488
11
93.2261
21
-162.393
0
LINE
8
BLACK
6
CONTINUOUS
10
93.2261
20
-162.393
11
93.4165
21
-162.298
0
LINE
8
BLACK
6
CONTINUOUS
10
93.4165
20
-162.298
11
93.7022
21
-162.298
0
LINE
8
BLACK
6
CONTINUOUS
10
93.7022
20
-162.298
11
93.8927
21
-162.393
0
LINE
8
BLACK
6
CONTINUOUS
10
93.8927
20
-162.393
11
93.988
21
-162.488
0
LINE
8
BLACK
6
CONTINUOUS
10
93.988
20
-162.488
11
94.0832
21
-162.679
0
LINE
8
BLACK
6
CONTINUOUS
10
94.0832
20
-162.679
11
94.0832
21
-163.25
0
LINE
8
BLACK
6
CONTINUOUS
10
94.0832
20
-163.25
11
93.988
21
-163.441
0
LINE
8
BLACK
6
CONTINUOUS
10
93.988
20
-163.441
11
93.8927
21
-163.536
0
LINE
8
BLACK
6
CONTINUOUS
10
93.8927
20
-163.536
11
93.7022
21
-163.631
0
LINE
8
BLACK
6
CONTINUOUS
10
93.7022
20
-163.631
11
93.4165
21
-163.631
0
LINE
8
BLACK
6
CONTINUOUS
10
95.2261
20
-163.631
11
95.0356
21
-163.536
0
LINE
8
BLACK
6
CONTINUOUS
10
95.0356
20
-163.536
11
94.9403
21
-163.346
0
LINE
8
BLACK
6
CONTINUOUS
10
94.9403
20
-163.346
11
94.9403
21
-161.631
0
LINE
8
BLACK
6
CONTINUOUS
10
96.7499
20
-163.536
11
96.5594
21
-163.631
0
LINE
8
BLACK
6
CONTINUOUS
10
96.5594
20
-163.631
11
96.1784
21
-163.631
0
LINE
8
BLACK
6
CONTINUOUS
10
96.1784
20
-163.631
11
95.988
21
-163.536
0
LINE
8
BLACK
6
CONTINUOUS
10
95.988
20
-163.536
11
95.8927
21
-163.346
0
LINE
8
BLACK
6
CONTINUOUS
10
95.8927
20
-163.346
11
95.8927
21
-162.584
0
LINE
8
BLACK
6
CONTINUOUS
10
95.8927
20
-162.584
11
95.988
21
-162.393
0
LINE
8
BLACK
6
CONTINUOUS
10
95.988
20
-162.393
11
96.1784
21
-162.298
0
LINE
8
BLACK
6
CONTINUOUS
10
96.1784
20
-162.298
11
96.5594
21
-162.298
0
LINE
8
BLACK
6
CONTINUOUS
10
96.5594
20
-162.298
11
96.7499
21
-162.393
0
LINE
8
BLACK
6
CONTINUOUS
10
96.7499
20
-162.393
11
96.8451
21
-162.584
0
LINE
8
BLACK
6
CONTINUOUS
10
96.8451
20
-162.584
11
96.8451
21
-162.774
0
LINE
8
BLACK
6
CONTINUOUS
10
96.8451
20
-162.774
11
95.8927
21
-162.965
0
LINE
8
BLACK
6
CONTINUOUS
10
97.607
20
-163.536
11
97.7975
21
-163.631
0
LINE
8
BLACK
6
CONTINUOUS
10
97.7975
20
-163.631
11
98.1784
21
-163.631
0
LINE
8
BLACK
6
CONTINUOUS
10
98.1784
20
-163.631
11
98.3689
21
-163.536
0
LINE
8
BLACK
6
CONTINUOUS
10
98.3689
20
-163.536
11
98.4641
21
-163.346
0
LINE
8
BLACK
6
CONTINUOUS
10
98.4641
20
-163.346
11
98.4641
21
-163.25
0
LINE
8
BLACK
6
CONTINUOUS
10
98.4641
20
-163.25
11
98.3689
21
-163.06
0
LINE
8
BLACK
6
CONTINUOUS
10
98.3689
20
-163.06
11
98.1784
21
-162.965
0
LINE
8
BLACK
6
CONTINUOUS
10
98.1784
20
-162.965
11
97.8927
21
-162.965
0
LINE
8
BLACK
6
CONTINUOUS
10
97.8927
20
-162.965
11
97.7022
21
-162.869
0
LINE
8
BLACK
6
CONTINUOUS
10
97.7022
20
-162.869
11
97.607
21
-162.679
0
LINE
8
BLACK
6
CONTINUOUS
10
97.607
20
-162.679
11
97.607
21
-162.584
0
LINE
8
BLACK
6
CONTINUOUS
10
97.607
20
-162.584
11
97.7022
21
-162.393
0
LINE
8
BLACK
6
CONTINUOUS
10
97.7022
20
-162.393
11
97.8927
21
-162.298
0
LINE
8
BLACK
6
CONTINUOUS
10
97.8927
20
-162.298
11
98.1784
21
-162.298
0
LINE
8
BLACK
6
CONTINUOUS
10
98.1784
20
-162.298
11
98.3689
21
-162.393
0
LINE
8
BLACK
6
CONTINUOUS
10
99.1308
20
-164.393
11
99.2261
21
-164.298
0
LINE
8
BLACK
6
CONTINUOUS
10
99.2261
20
-164.298
11
99.4165
21
-164.012
0
LINE
8
BLACK
6
CONTINUOUS
10
99.4165
20
-164.012
11
99.5118
21
-163.822
0
LINE
8
BLACK
6
CONTINUOUS
10
99.5118
20
-163.822
11
99.607
21
-163.536
0
LINE
8
BLACK
6
CONTINUOUS
10
99.607
20
-163.536
11
99.7022
21
-163.06
0
LINE
8
BLACK
6
CONTINUOUS
10
99.7022
20
-163.06
11
99.7022
21
-162.679
0
LINE
8
BLACK
6
CONTINUOUS
10
99.7022
20
-162.679
11
99.607
21
-162.203
0
LINE
8
BLACK
6
CONTINUOUS
10
99.607
20
-162.203
11
99.5118
21
-161.917
0
LINE
8
BLACK
6
CONTINUOUS
10
99.5118
20
-161.917
11
99.4165
21
-161.726
0
LINE
8
BLACK
6
CONTINUOUS
10
99.4165
20
-161.726
11
99.2261
21
-161.441
0
LINE
8
BLACK
6
CONTINUOUS
10
99.2261
20
-161.441
11
99.1308
21
-161.346
0
LINE
8
BLACK
6
CONTINUOUS
10
49.107
20
-165.846
11
49.607
21
-165.346
0
LINE
8
BLACK
6
CONTINUOUS
10
49.607
20
-165.346
11
49.107
21
-164.846
0
LINE
8
BLACK
6
CONTINUOUS
10
49.107
20
-164.846
11
48.607
21
-165.346
0
LINE
8
BLACK
6
CONTINUOUS
10
48.607
20
-165.346
11
49.107
21
-165.846
0
LINE
8
BLACK
6
CONTINUOUS
10
53.1308
20
-166.271
11
51.988
21
-166.271
0
LINE
8
BLACK
6
CONTINUOUS
10
52.5594
20
-166.271
11
52.5594
21
-164.271
0
LINE
8
BLACK
6
CONTINUOUS
10
52.5594
20
-164.271
11
52.3689
21
-164.557
0
LINE
8
BLACK
6
CONTINUOUS
10
52.3689
20
-164.557
11
52.1784
21
-164.747
0
LINE
8
BLACK
6
CONTINUOUS
10
52.1784
20
-164.747
11
51.988
21
-164.843
0
LINE
8
BLACK
6
CONTINUOUS
10
53.988
20
-166.081
11
54.0832
21
-166.176
0
LINE
8
BLACK
6
CONTINUOUS
10
54.0832
20
-166.176
11
53.988
21
-166.271
0
LINE
8
BLACK
6
CONTINUOUS
10
53.988
20
-166.271
11
53.8927
21
-166.176
0
LINE
8
BLACK
6
CONTINUOUS
10
53.8927
20
-166.176
11
53.988
21
-166.081
0
LINE
8
BLACK
6
CONTINUOUS
10
53.988
20
-166.081
11
53.988
21
-166.271
0
LINE
8
BLACK
6
CONTINUOUS
10
55.3213
20
-164.271
11
55.5118
21
-164.271
0
LINE
8
BLACK
6
CONTINUOUS
10
55.5118
20
-164.271
11
55.7022
21
-164.366
0
LINE
8
BLACK
6
CONTINUOUS
10
55.7022
20
-164.366
11
55.7975
21
-164.462
0
LINE
8
BLACK
6
CONTINUOUS
10
55.7975
20
-164.462
11
55.8927
21
-164.652
0
LINE
8
BLACK
6
CONTINUOUS
10
55.8927
20
-164.652
11
55.988
21
-165.033
0
LINE
8
BLACK
6
CONTINUOUS
10
55.988
20
-165.033
11
55.988
21
-165.509
0
LINE
8
BLACK
6
CONTINUOUS
10
55.988
20
-165.509
11
55.8927
21
-165.89
0
LINE
8
BLACK
6
CONTINUOUS
10
55.8927
20
-165.89
11
55.7975
21
-166.081
0
LINE
8
BLACK
6
CONTINUOUS
10
55.7975
20
-166.081
11
55.7022
21
-166.176
0
LINE
8
BLACK
6
CONTINUOUS
10
55.7022
20
-166.176
11
55.5118
21
-166.271
0
LINE
8
BLACK
6
CONTINUOUS
10
55.5118
20
-166.271
11
55.3213
21
-166.271
0
LINE
8
BLACK
6
CONTINUOUS
10
55.3213
20
-166.271
11
55.1308
21
-166.176
0
LINE
8
BLACK
6
CONTINUOUS
10
55.1308
20
-166.176
11
55.0356
21
-166.081
0
LINE
8
BLACK
6
CONTINUOUS
10
55.0356
20
-166.081
11
54.9403
21
-165.89
0
LINE
8
BLACK
6
CONTINUOUS
10
54.9403
20
-165.89
11
54.8451
21
-165.509
0
LINE
8
BLACK
6
CONTINUOUS
10
54.8451
20
-165.509
11
54.8451
21
-165.033
0
LINE
8
BLACK
6
CONTINUOUS
10
54.8451
20
-165.033
11
54.9403
21
-164.652
0
LINE
8
BLACK
6
CONTINUOUS
10
54.9403
20
-164.652
11
55.0356
21
-164.462
0
LINE
8
BLACK
6
CONTINUOUS
10
55.0356
20
-164.462
11
55.1308
21
-164.366
0
LINE
8
BLACK
6
CONTINUOUS
10
55.1308
20
-164.366
11
55.3213
21
-164.271
0
LINE
8
BLACK
6
CONTINUOUS
10
57.226
20
-164.271
11
57.4165
21
-164.271
0
LINE
8
BLACK
6
CONTINUOUS
10
57.4165
20
-164.271
11
57.607
21
-164.366
0
LINE
8
BLACK
6
CONTINUOUS
10
57.607
20
-164.366
11
57.7022
21
-164.462
0
LINE
8
BLACK
6
CONTINUOUS
10
57.7022
20
-164.462
11
57.7975
21
-164.652
0
LINE
8
BLACK
6
CONTINUOUS
10
57.7975
20
-164.652
11
57.8927
21
-165.033
0
LINE
8
BLACK
6
CONTINUOUS
10
57.8927
20
-165.033
11
57.8927
21
-165.509
0
LINE
8
BLACK
6
CONTINUOUS
10
57.8927
20
-165.509
11
57.7975
21
-165.89
0
LINE
8
BLACK
6
CONTINUOUS
10
57.7975
20
-165.89
11
57.7022
21
-166.081
0
LINE
8
BLACK
6
CONTINUOUS
10
57.7022
20
-166.081
11
57.607
21
-166.176
0
LINE
8
BLACK
6
CONTINUOUS
10
57.607
20
-166.176
11
57.4165
21
-166.271
0
LINE
8
BLACK
6
CONTINUOUS
10
57.4165
20
-166.271
11
57.226
21
-166.271
0
LINE
8
BLACK
6
CONTINUOUS
10
57.226
20
-166.271
11
57.0356
21
-166.176
0
LINE
8
BLACK
6
CONTINUOUS
10
57.0356
20
-166.176
11
56.9403
21
-166.081
0
LINE
8
BLACK
6
CONTINUOUS
10
56.9403
20
-166.081
11
56.8451
21
-165.89
0
LINE
8
BLACK
6
CONTINUOUS
10
56.8451
20
-165.89
11
56.7499
21
-165.509
0
LINE
8
BLACK
6
CONTINUOUS
10
56.7499
20
-165.509
11
56.7499
21
-165.033
0
LINE
8
BLACK
6
CONTINUOUS
10
56.7499
20
-165.033
11
56.8451
21
-164.652
0
LINE
8
BLACK
6
CONTINUOUS
10
56.8451
20
-164.652
11
56.9403
21
-164.462
0
LINE
8
BLACK
6
CONTINUOUS
10
56.9403
20
-164.462
11
57.0356
21
-164.366
0
LINE
8
BLACK
6
CONTINUOUS
10
57.0356
20
-164.366
11
57.226
21
-164.271
0
LINE
8
BLACK
6
CONTINUOUS
10
59.1308
20
-164.271
11
59.3213
21
-164.271
0
LINE
8
BLACK
6
CONTINUOUS
10
59.3213
20
-164.271
11
59.5118
21
-164.366
0
LINE
8
BLACK
6
CONTINUOUS
10
59.5118
20
-164.366
11
59.607
21
-164.462
0
LINE
8
BLACK
6
CONTINUOUS
10
59.607
20
-164.462
11
59.7022
21
-164.652
0
LINE
8
BLACK
6
CONTINUOUS
10
59.7022
20
-164.652
11
59.7975
21
-165.033
0
LINE
8
BLACK
6
CONTINUOUS
10
59.7975
20
-165.033
11
59.7975
21
-165.509
0
LINE
8
BLACK
6
CONTINUOUS
10
59.7975
20
-165.509
11
59.7022
21
-165.89
0
LINE
8
BLACK
6
CONTINUOUS
10
59.7022
20
-165.89
11
59.607
21
-166.081
0
LINE
8
BLACK
6
CONTINUOUS
10
59.607
20
-166.081
11
59.5118
21
-166.176
0
LINE
8
BLACK
6
CONTINUOUS
10
59.5118
20
-166.176
11
59.3213
21
-166.271
0
LINE
8
BLACK
6
CONTINUOUS
10
59.3213
20
-166.271
11
59.1308
21
-166.271
0
LINE
8
BLACK
6
CONTINUOUS
10
59.1308
20
-166.271
11
58.9403
21
-166.176
0
LINE
8
BLACK
6
CONTINUOUS
10
58.9403
20
-166.176
11
58.8451
21
-166.081
0
LINE
8
BLACK
6
CONTINUOUS
10
58.8451
20
-166.081
11
58.7499
21
-165.89
0
LINE
8
BLACK
6
CONTINUOUS
10
58.7499
20
-165.89
11
58.6546
21
-165.509
0
LINE
8
BLACK
6
CONTINUOUS
10
58.6546
20
-165.509
11
58.6546
21
-165.033
0
LINE
8
BLACK
6
CONTINUOUS
10
58.6546
20
-165.033
11
58.7499
21
-164.652
0
LINE
8
BLACK
6
CONTINUOUS
10
58.7499
20
-164.652
11
58.8451
21
-164.462
0
LINE
8
BLACK
6
CONTINUOUS
10
58.8451
20
-164.462
11
58.9403
21
-164.366
0
LINE
8
BLACK
6
CONTINUOUS
10
58.9403
20
-164.366
11
59.1308
21
-164.271
0
LINE
8
BLACK
6
CONTINUOUS
10
60.6546
20
-166.271
11
60.6546
21
-164.938
0
LINE
8
BLACK
6
CONTINUOUS
10
60.6546
20
-165.128
11
60.7499
21
-165.033
0
LINE
8
BLACK
6
CONTINUOUS
10
60.7499
20
-165.033
11
60.9403
21
-164.938
0
LINE
8
BLACK
6
CONTINUOUS
10
60.9403
20
-164.938
11
61.226
21
-164.938
0
LINE
8
BLACK
6
CONTINUOUS
10
61.226
20
-164.938
11
61.4165
21
-165.033
0
LINE
8
BLACK
6
CONTINUOUS
10
61.4165
20
-165.033
11
61.5118
21
-165.224
0
LINE
8
BLACK
6
CONTINUOUS
10
61.5118
20
-165.224
11
61.5118
21
-166.271
0
LINE
8
BLACK
6
CONTINUOUS
10
61.5118
20
-165.224
11
61.607
21
-165.033
0
LINE
8
BLACK
6
CONTINUOUS
10
61.607
20
-165.033
11
61.7975
21
-164.938
0
LINE
8
BLACK
6
CONTINUOUS
10
61.7975
20
-164.938
11
62.0832
21
-164.938
0
LINE
8
BLACK
6
CONTINUOUS
10
62.0832
20
-164.938
11
62.2737
21
-165.033
0
LINE
8
BLACK
6
CONTINUOUS
10
62.2737
20
-165.033
11
62.3689
21
-165.224
0
LINE
8
BLACK
6
CONTINUOUS
10
62.3689
20
-165.224
11
62.3689
21
-166.271
0
LINE
8
BLACK
6
CONTINUOUS
10
63.3213
20
-166.271
11
63.3213
21
-164.938
0
LINE
8
BLACK
6
CONTINUOUS
10
63.3213
20
-165.128
11
63.4165
21
-165.033
0
LINE
8
BLACK
6
CONTINUOUS
10
63.4165
20
-165.033
11
63.607
21
-164.938
0
LINE
8
BLACK
6
CONTINUOUS
10
63.607
20
-164.938
11
63.8927
21
-164.938
0
LINE
8
BLACK
6
CONTINUOUS
10
63.8927
20
-164.938
11
64.0832
21
-165.033
0
LINE
8
BLACK
6
CONTINUOUS
10
64.0832
20
-165.033
11
64.1784
21
-165.224
0
LINE
8
BLACK
6
CONTINUOUS
10
64.1784
20
-165.224
11
64.1784
21
-166.271
0
LINE
8
BLACK
6
CONTINUOUS
10
64.1784
20
-165.224
11
64.2737
21
-165.033
0
LINE
8
BLACK
6
CONTINUOUS
10
64.2737
20
-165.033
11
64.4641
21
-164.938
0
LINE
8
BLACK
6
CONTINUOUS
10
64.4641
20
-164.938
11
64.7499
21
-164.938
0
LINE
8
BLACK
6
CONTINUOUS
10
64.7499
20
-164.938
11
64.9403
21
-165.033
0
LINE
8
BLACK
6
CONTINUOUS
10
64.9403
20
-165.033
11
65.0356
21
-165.224
0
LINE
8
BLACK
6
CONTINUOUS
10
65.0356
20
-165.224
11
65.0356
21
-166.271
0
LINE
8
BLACK
6
CONTINUOUS
10
68.9403
20
-164.176
11
67.226
21
-166.747
0
LINE
8
BLACK
6
CONTINUOUS
10
71.5118
20
-164.271
11
71.7022
21
-164.271
0
LINE
8
BLACK
6
CONTINUOUS
10
71.7022
20
-164.271
11
71.8927
21
-164.366
0
LINE
8
BLACK
6
CONTINUOUS
10
71.8927
20
-164.366
11
71.988
21
-164.462
0
LINE
8
BLACK
6
CONTINUOUS
10
71.988
20
-164.462
11
72.0832
21
-164.652
0
LINE
8
BLACK
6
CONTINUOUS
10
72.0832
20
-164.652
11
72.1784
21
-165.033
0
LINE
8
BLACK
6
CONTINUOUS
10
72.1784
20
-165.033
11
72.1784
21
-165.509
0
LINE
8
BLACK
6
CONTINUOUS
10
72.1784
20
-165.509
11
72.0832
21
-165.89
0
LINE
8
BLACK
6
CONTINUOUS
10
72.0832
20
-165.89
11
71.988
21
-166.081
0
LINE
8
BLACK
6
CONTINUOUS
10
71.988
20
-166.081
11
71.8927
21
-166.176
0
LINE
8
BLACK
6
CONTINUOUS
10
71.8927
20
-166.176
11
71.7022
21
-166.271
0
LINE
8
BLACK
6
CONTINUOUS
10
71.7022
20
-166.271
11
71.5118
21
-166.271
0
LINE
8
BLACK
6
CONTINUOUS
10
71.5118
20
-166.271
11
71.3213
21
-166.176
0
LINE
8
BLACK
6
CONTINUOUS
10
71.3213
20
-166.176
11
71.226
21
-166.081
0
LINE
8
BLACK
6
CONTINUOUS
10
71.226
20
-166.081
11
71.1308
21
-165.89
0
LINE
8
BLACK
6
CONTINUOUS
10
71.1308
20
-165.89
11
71.0356
21
-165.509
0
LINE
8
BLACK
6
CONTINUOUS
10
71.0356
20
-165.509
11
71.0356
21
-165.033
0
LINE
8
BLACK
6
CONTINUOUS
10
71.0356
20
-165.033
11
71.1308
21
-164.652
0
LINE
8
BLACK
6
CONTINUOUS
10
71.1308
20
-164.652
11
71.226
21
-164.462
0
LINE
8
BLACK
6
CONTINUOUS
10
71.226
20
-164.462
11
71.3213
21
-164.366
0
LINE
8
BLACK
6
CONTINUOUS
10
71.3213
20
-164.366
11
71.5118
21
-164.271
0
LINE
8
BLACK
6
CONTINUOUS
10
73.0356
20
-166.081
11
73.1308
21
-166.176
0
LINE
8
BLACK
6
CONTINUOUS
10
73.1308
20
-166.176
11
73.0356
21
-166.271
0
LINE
8
BLACK
6
CONTINUOUS
10
73.0356
20
-166.271
11
72.9403
21
-166.176
0
LINE
8
BLACK
6
CONTINUOUS
10
72.9403
20
-166.176
11
73.0356
21
-166.081
0
LINE
8
BLACK
6
CONTINUOUS
10
73.0356
20
-166.081
11
73.0356
21
-166.271
0
LINE
8
BLACK
6
CONTINUOUS
10
74.3689
20
-164.271
11
74.5594
21
-164.271
0
LINE
8
BLACK
6
CONTINUOUS
10
74.5594
20
-164.271
11
74.7499
21
-164.366
0
LINE
8
BLACK
6
CONTINUOUS
10
74.7499
20
-164.366
11
74.8451
21
-164.462
0
LINE
8
BLACK
6
CONTINUOUS
10
74.8451
20
-164.462
11
74.9403
21
-164.652
0
LINE
8
BLACK
6
CONTINUOUS
10
74.9403
20
-164.652
11
75.0356
21
-165.033
0
LINE
8
BLACK
6
CONTINUOUS
10
75.0356
20
-165.033
11
75.0356
21
-165.509
0
LINE
8
BLACK
6
CONTINUOUS
10
75.0356
20
-165.509
11
74.9403
21
-165.89
0
LINE
8
BLACK
6
CONTINUOUS
10
74.9403
20
-165.89
11
74.8451
21
-166.081
0
LINE
8
BLACK
6
CONTINUOUS
10
74.8451
20
-166.081
11
74.7499
21
-166.176
0
LINE
8
BLACK
6
CONTINUOUS
10
74.7499
20
-166.176
11
74.5594
21
-166.271
0
LINE
8
BLACK
6
CONTINUOUS
10
74.5594
20
-166.271
11
74.3689
21
-166.271
0
LINE
8
BLACK
6
CONTINUOUS
10
74.3689
20
-166.271
11
74.1784
21
-166.176
0
LINE
8
BLACK
6
CONTINUOUS
10
74.1784
20
-166.176
11
74.0832
21
-166.081
0
LINE
8
BLACK
6
CONTINUOUS
10
74.0832
20
-166.081
11
73.988
21
-165.89
0
LINE
8
BLACK
6
CONTINUOUS
10
73.988
20
-165.89
11
73.8927
21
-165.509
0
LINE
8
BLACK
6
CONTINUOUS
10
73.8927
20
-165.509
11
73.8927
21
-165.033
0
LINE
8
BLACK
6
CONTINUOUS
10
73.8927
20
-165.033
11
73.988
21
-164.652
0
LINE
8
BLACK
6
CONTINUOUS
10
73.988
20
-164.652
11
74.0832
21
-164.462
0
LINE
8
BLACK
6
CONTINUOUS
10
74.0832
20
-164.462
11
74.1784
21
-164.366
0
LINE
8
BLACK
6
CONTINUOUS
10
74.1784
20
-164.366
11
74.3689
21
-164.271
0
LINE
8
BLACK
6
CONTINUOUS
10
75.7022
20
-164.271
11
76.9403
21
-164.271
0
LINE
8
BLACK
6
CONTINUOUS
10
76.9403
20
-164.271
11
76.2737
21
-165.033
0
LINE
8
BLACK
6
CONTINUOUS
10
76.2737
20
-165.033
11
76.5594
21
-165.033
0
LINE
8
BLACK
6
CONTINUOUS
10
76.5594
20
-165.033
11
76.7499
21
-165.128
0
LINE
8
BLACK
6
CONTINUOUS
10
76.7499
20
-165.128
11
76.8451
21
-165.224
0
LINE
8
BLACK
6
CONTINUOUS
10
76.8451
20
-165.224
11
76.9403
21
-165.414
0
LINE
8
BLACK
6
CONTINUOUS
10
76.9403
20
-165.414
11
76.9403
21
-165.89
0
LINE
8
BLACK
6
CONTINUOUS
10
76.9403
20
-165.89
11
76.8451
21
-166.081
0
LINE
8
BLACK
6
CONTINUOUS
10
76.8451
20
-166.081
11
76.7499
21
-166.176
0
LINE
8
BLACK
6
CONTINUOUS
10
76.7499
20
-166.176
11
76.5594
21
-166.271
0
LINE
8
BLACK
6
CONTINUOUS
10
76.5594
20
-166.271
11
75.988
21
-166.271
0
LINE
8
BLACK
6
CONTINUOUS
10
75.988
20
-166.271
11
75.7975
21
-166.176
0
LINE
8
BLACK
6
CONTINUOUS
10
75.7975
20
-166.176
11
75.7022
21
-166.081
0
LINE
8
BLACK
6
CONTINUOUS
10
77.8927
20
-166.271
11
78.2737
21
-166.271
0
LINE
8
BLACK
6
CONTINUOUS
10
78.2737
20
-166.271
11
78.4641
21
-166.176
0
LINE
8
BLACK
6
CONTINUOUS
10
78.4641
20
-166.176
11
78.5594
21
-166.081
0
LINE
8
BLACK
6
CONTINUOUS
10
78.5594
20
-166.081
11
78.7499
21
-165.795
0
LINE
8
BLACK
6
CONTINUOUS
10
78.7499
20
-165.795
11
78.8451
21
-165.414
0
LINE
8
BLACK
6
CONTINUOUS
10
78.8451
20
-165.414
11
78.8451
21
-164.652
0
LINE
8
BLACK
6
CONTINUOUS
10
78.8451
20
-164.652
11
78.7499
21
-164.462
0
LINE
8
BLACK
6
CONTINUOUS
10
78.7499
20
-164.462
11
78.6546
21
-164.366
0
LINE
8
BLACK
6
CONTINUOUS
10
78.6546
20
-164.366
11
78.4641
21
-164.271
0
LINE
8
BLACK
6
CONTINUOUS
10
78.4641
20
-164.271
11
78.0832
21
-164.271
0
LINE
8
BLACK
6
CONTINUOUS
10
78.0832
20
-164.271
11
77.8927
21
-164.366
0
LINE
8
BLACK
6
CONTINUOUS
10
77.8927
20
-164.366
11
77.7975
21
-164.462
0
LINE
8
BLACK
6
CONTINUOUS
10
77.7975
20
-164.462
11
77.7022
21
-164.652
0
LINE
8
BLACK
6
CONTINUOUS
10
77.7022
20
-164.652
11
77.7022
21
-165.128
0
LINE
8
BLACK
6
CONTINUOUS
10
77.7022
20
-165.128
11
77.7975
21
-165.319
0
LINE
8
BLACK
6
CONTINUOUS
10
77.7975
20
-165.319
11
77.8927
21
-165.414
0
LINE
8
BLACK
6
CONTINUOUS
10
77.8927
20
-165.414
11
78.0832
21
-165.509
0
LINE
8
BLACK
6
CONTINUOUS
10
78.0832
20
-165.509
11
78.4641
21
-165.509
0
LINE
8
BLACK
6
CONTINUOUS
10
78.4641
20
-165.509
11
78.6546
21
-165.414
0
LINE
8
BLACK
6
CONTINUOUS
10
78.6546
20
-165.414
11
78.7499
21
-165.319
0
LINE
8
BLACK
6
CONTINUOUS
10
78.7499
20
-165.319
11
78.8451
21
-165.128
0
LINE
8
BLACK
6
CONTINUOUS
10
80.5594
20
-164.938
11
80.5594
21
-166.271
0
LINE
8
BLACK
6
CONTINUOUS
10
80.0832
20
-164.176
11
79.607
21
-165.605
0
LINE
8
BLACK
6
CONTINUOUS
10
79.607
20
-165.605
11
80.8451
21
-165.605
0
LINE
8
BLACK
6
CONTINUOUS
10
81.5118
20
-164.271
11
81.5118
21
-164.652
0
LINE
8
BLACK
6
CONTINUOUS
10
82.2737
20
-164.271
11
82.2737
21
-164.652
0
LINE
8
BLACK
6
CONTINUOUS
10
85.2261
20
-167.033
11
85.1308
21
-166.938
0
LINE
8
BLACK
6
CONTINUOUS
10
85.1308
20
-166.938
11
84.9403
21
-166.652
0
LINE
8
BLACK
6
CONTINUOUS
10
84.9403
20
-166.652
11
84.8451
21
-166.462
0
LINE
8
BLACK
6
CONTINUOUS
10
84.8451
20
-166.462
11
84.7499
21
-166.176
0
LINE
8
BLACK
6
CONTINUOUS
10
84.7499
20
-166.176
11
84.6546
21
-165.7
0
LINE
8
BLACK
6
CONTINUOUS
10
84.6546
20
-165.7
11
84.6546
21
-165.319
0
LINE
8
BLACK
6
CONTINUOUS
10
84.6546
20
-165.319
11
84.7499
21
-164.843
0
LINE
8
BLACK
6
CONTINUOUS
10
84.7499
20
-164.843
11
84.8451
21
-164.557
0
LINE
8
BLACK
6
CONTINUOUS
10
84.8451
20
-164.557
11
84.9403
21
-164.366
0
LINE
8
BLACK
6
CONTINUOUS
10
84.9403
20
-164.366
11
85.1308
21
-164.081
0
LINE
8
BLACK
6
CONTINUOUS
10
85.1308
20
-164.081
11
85.2261
21
-163.986
0
LINE
8
BLACK
6
CONTINUOUS
10
86.8451
20
-164.938
11
86.8451
21
-166.271
0
LINE
8
BLACK
6
CONTINUOUS
10
86.3689
20
-164.176
11
85.8927
21
-165.605
0
LINE
8
BLACK
6
CONTINUOUS
10
85.8927
20
-165.605
11
87.1308
21
-165.605
0
LINE
8
BLACK
6
CONTINUOUS
10
87.7975
20
-164.462
11
87.8927
21
-164.366
0
LINE
8
BLACK
6
CONTINUOUS
10
87.8927
20
-164.366
11
88.0832
21
-164.271
0
LINE
8
BLACK
6
CONTINUOUS
10
88.0832
20
-164.271
11
88.5594
21
-164.271
0
LINE
8
BLACK
6
CONTINUOUS
10
88.5594
20
-164.271
11
88.7499
21
-164.366
0
LINE
8
BLACK
6
CONTINUOUS
10
88.7499
20
-164.366
11
88.8451
21
-164.462
0
LINE
8
BLACK
6
CONTINUOUS
10
88.8451
20
-164.462
11
88.9403
21
-164.652
0
LINE
8
BLACK
6
CONTINUOUS
10
88.9403
20
-164.652
11
88.9403
21
-164.843
0
LINE
8
BLACK
6
CONTINUOUS
10
88.9403
20
-164.843
11
88.8451
21
-165.128
0
LINE
8
BLACK
6
CONTINUOUS
10
88.8451
20
-165.128
11
87.7022
21
-166.271
0
LINE
8
BLACK
6
CONTINUOUS
10
87.7022
20
-166.271
11
88.9403
21
-166.271
0
LINE
8
BLACK
6
CONTINUOUS
10
91.3213
20
-166.271
11
91.3213
21
-164.271
0
LINE
8
BLACK
6
CONTINUOUS
10
92.1784
20
-166.271
11
92.1784
21
-165.224
0
LINE
8
BLACK
6
CONTINUOUS
10
92.1784
20
-165.224
11
92.0832
21
-165.033
0
LINE
8
BLACK
6
CONTINUOUS
10
92.0832
20
-165.033
11
91.8927
21
-164.938
0
LINE
8
BLACK
6
CONTINUOUS
10
91.8927
20
-164.938
11
91.607
21
-164.938
0
LINE
8
BLACK
6
CONTINUOUS
10
91.607
20
-164.938
11
91.4165
21
-165.033
0
LINE
8
BLACK
6
CONTINUOUS
10
91.4165
20
-165.033
11
91.3213
21
-165.128
0
LINE
8
BLACK
6
CONTINUOUS
10
93.4165
20
-166.271
11
93.2261
21
-166.176
0
LINE
8
BLACK
6
CONTINUOUS
10
93.2261
20
-166.176
11
93.1308
21
-166.081
0
LINE
8
BLACK
6
CONTINUOUS
10
93.1308
20
-166.081
11
93.0356
21
-165.89
0
LINE
8
BLACK
6
CONTINUOUS
10
93.0356
20
-165.89
11
93.0356
21
-165.319
0
LINE
8
BLACK
6
CONTINUOUS
10
93.0356
20
-165.319
11
93.1308
21
-165.128
0
LINE
8
BLACK
6
CONTINUOUS
10
93.1308
20
-165.128
11
93.2261
21
-165.033
0
LINE
8
BLACK
6
CONTINUOUS
10
93.2261
20
-165.033
11
93.4165
21
-164.938
0
LINE
8
BLACK
6
CONTINUOUS
10
93.4165
20
-164.938
11
93.7022
21
-164.938
0
LINE
8
BLACK
6
CONTINUOUS
10
93.7022
20
-164.938
11
93.8927
21
-165.033
0
LINE
8
BLACK
6
CONTINUOUS
10
93.8927
20
-165.033
11
93.988
21
-165.128
0
LINE
8
BLACK
6
CONTINUOUS
10
93.988
20
-165.128
11
94.0832
21
-165.319
0
LINE
8
BLACK
6
CONTINUOUS
10
94.0832
20
-165.319
11
94.0832
21
-165.89
0
LINE
8
BLACK
6
CONTINUOUS
10
94.0832
20
-165.89
11
93.988
21
-166.081
0
LINE
8
BLACK
6
CONTINUOUS
10
93.988
20
-166.081
11
93.8927
21
-166.176
0
LINE
8
BLACK
6
CONTINUOUS
10
93.8927
20
-166.176
11
93.7022
21
-166.271
0
LINE
8
BLACK
6
CONTINUOUS
10
93.7022
20
-166.271
11
93.4165
21
-166.271
0
LINE
8
BLACK
6
CONTINUOUS
10
95.2261
20
-166.271
11
95.0356
21
-166.176
0
LINE
8
BLACK
6
CONTINUOUS
10
95.0356
20
-166.176
11
94.9403
21
-165.986
0
LINE
8
BLACK
6
CONTINUOUS
10
94.9403
20
-165.986
11
94.9403
21
-164.271
0
LINE
8
BLACK
6
CONTINUOUS
10
96.7499
20
-166.176
11
96.5594
21
-166.271
0
LINE
8
BLACK
6
CONTINUOUS
10
96.5594
20
-166.271
11
96.1784
21
-166.271
0
LINE
8
BLACK
6
CONTINUOUS
10
96.1784
20
-166.271
11
95.988
21
-166.176
0
LINE
8
BLACK
6
CONTINUOUS
10
95.988
20
-166.176
11
95.8927
21
-165.986
0
LINE
8
BLACK
6
CONTINUOUS
10
95.8927
20
-165.986
11
95.8927
21
-165.224
0
LINE
8
BLACK
6
CONTINUOUS
10
95.8927
20
-165.224
11
95.988
21
-165.033
0
LINE
8
BLACK
6
CONTINUOUS
10
95.988
20
-165.033
11
96.1784
21
-164.938
0
LINE
8
BLACK
6
CONTINUOUS
10
96.1784
20
-164.938
11
96.5594
21
-164.938
0
LINE
8
BLACK
6
CONTINUOUS
10
96.5594
20
-164.938
11
96.7499
21
-165.033
0
LINE
8
BLACK
6
CONTINUOUS
10
96.7499
20
-165.033
11
96.8451
21
-165.224
0
LINE
8
BLACK
6
CONTINUOUS
10
96.8451
20
-165.224
11
96.8451
21
-165.414
0
LINE
8
BLACK
6
CONTINUOUS
10
96.8451
20
-165.414
11
95.8927
21
-165.605
0
LINE
8
BLACK
6
CONTINUOUS
10
97.607
20
-166.176
11
97.7975
21
-166.271
0
LINE
8
BLACK
6
CONTINUOUS
10
97.7975
20
-166.271
11
98.1784
21
-166.271
0
LINE
8
BLACK
6
CONTINUOUS
10
98.1784
20
-166.271
11
98.3689
21
-166.176
0
LINE
8
BLACK
6
CONTINUOUS
10
98.3689
20
-166.176
11
98.4641
21
-165.986
0
LINE
8
BLACK
6
CONTINUOUS
10
98.4641
20
-165.986
11
98.4641
21
-165.89
0
LINE
8
BLACK
6
CONTINUOUS
10
98.4641
20
-165.89
11
98.3689
21
-165.7
0
LINE
8
BLACK
6
CONTINUOUS
10
98.3689
20
-165.7
11
98.1784
21
-165.605
0
LINE
8
BLACK
6
CONTINUOUS
10
98.1784
20
-165.605
11
97.8927
21
-165.605
0
LINE
8
BLACK
6
CONTINUOUS
10
97.8927
20
-165.605
11
97.7022
21
-165.509
0
LINE
8
BLACK
6
CONTINUOUS
10
97.7022
20
-165.509
11
97.607
21
-165.319
0
LINE
8
BLACK
6
CONTINUOUS
10
97.607
20
-165.319
11
97.607
21
-165.224
0
LINE
8
BLACK
6
CONTINUOUS
10
97.607
20
-165.224
11
97.7022
21
-165.033
0
LINE
8
BLACK
6
CONTINUOUS
10
97.7022
20
-165.033
11
97.8927
21
-164.938
0
LINE
8
BLACK
6
CONTINUOUS
10
97.8927
20
-164.938
11
98.1784
21
-164.938
0
LINE
8
BLACK
6
CONTINUOUS
10
98.1784
20
-164.938
11
98.3689
21
-165.033
0
LINE
8
BLACK
6
CONTINUOUS
10
99.1308
20
-167.033
11
99.2261
21
-166.938
0
LINE
8
BLACK
6
CONTINUOUS
10
99.2261
20
-166.938
11
99.4165
21
-166.652
0
LINE
8
BLACK
6
CONTINUOUS
10
99.4165
20
-166.652
11
99.5118
21
-166.462
0
LINE
8
BLACK
6
CONTINUOUS
10
99.5118
20
-166.462
11
99.607
21
-166.176
0
LINE
8
BLACK
6
CONTINUOUS
10
99.607
20
-166.176
11
99.7022
21
-165.7
0
LINE
8
BLACK
6
CONTINUOUS
10
99.7022
20
-165.7
11
99.7022
21
-165.319
0
LINE
8
BLACK
6
CONTINUOUS
10
99.7022
20
-165.319
11
99.607
21
-164.843
0
LINE
8
BLACK
6
CONTINUOUS
10
99.607
20
-164.843
11
99.5118
21
-164.557
0
LINE
8
BLACK
6
CONTINUOUS
10
99.5118
20
-164.557
11
99.4165
21
-164.366
0
LINE
8
BLACK
6
CONTINUOUS
10
99.4165
20
-164.366
11
99.2261
21
-164.081
0
LINE
8
BLACK
6
CONTINUOUS
10
99.2261
20
-164.081
11
99.1308
21
-163.986
0
LINE
8
BLACK
6
CONTINUOUS
10
48.507
20
-167.436
11
49.607
21
-168.536
0
LINE
8
BLACK
6
CONTINUOUS
10
49.607
20
-167.436
11
48.507
21
-168.536
0
CIRCLE
8
BLACK
10
49.057
20
-167.986
40
0.55
0
LINE
8
BLACK
6
CONTINUOUS
10
53.1308
20
-168.911
11
51.988
21
-168.911
0
LINE
8
BLACK
6
CONTINUOUS
10
52.5594
20
-168.911
11
52.5594
21
-166.911
0
LINE
8
BLACK
6
CONTINUOUS
10
52.5594
20
-166.911
11
52.3689
21
-167.197
0
LINE
8
BLACK
6
CONTINUOUS
10
52.3689
20
-167.197
11
52.1784
21
-167.387
0
LINE
8
BLACK
6
CONTINUOUS
10
52.1784
20
-167.387
11
51.988
21
-167.483
0
LINE
8
BLACK
6
CONTINUOUS
10
53.988
20
-168.721
11
54.0832
21
-168.816
0
LINE
8
BLACK
6
CONTINUOUS
10
54.0832
20
-168.816
11
53.988
21
-168.911
0
LINE
8
BLACK
6
CONTINUOUS
10
53.988
20
-168.911
11
53.8927
21
-168.816
0
LINE
8
BLACK
6
CONTINUOUS
10
53.8927
20
-168.816
11
53.988
21
-168.721
0
LINE
8
BLACK
6
CONTINUOUS
10
53.988
20
-168.721
11
53.988
21
-168.911
0
LINE
8
BLACK
6
CONTINUOUS
10
55.988
20
-168.911
11
54.8451
21
-168.911
0
LINE
8
BLACK
6
CONTINUOUS
10
55.4165
20
-168.911
11
55.4165
21
-166.911
0
LINE
8
BLACK
6
CONTINUOUS
10
55.4165
20
-166.911
11
55.226
21
-167.197
0
LINE
8
BLACK
6
CONTINUOUS
10
55.226
20
-167.197
11
55.0356
21
-167.387
0
LINE
8
BLACK
6
CONTINUOUS
10
55.0356
20
-167.387
11
54.8451
21
-167.483
0
LINE
8
BLACK
6
CONTINUOUS
10
57.226
20
-166.911
11
57.4165
21
-166.911
0
LINE
8
BLACK
6
CONTINUOUS
10
57.4165
20
-166.911
11
57.607
21
-167.006
0
LINE
8
BLACK
6
CONTINUOUS
10
57.607
20
-167.006
11
57.7022
21
-167.102
0
LINE
8
BLACK
6
CONTINUOUS
10
57.7022
20
-167.102
11
57.7975
21
-167.292
0
LINE
8
BLACK
6
CONTINUOUS
10
57.7975
20
-167.292
11
57.8927
21
-167.673
0
LINE
8
BLACK
6
CONTINUOUS
10
57.8927
20
-167.673
11
57.8927
21
-168.149
0
LINE
8
BLACK
6
CONTINUOUS
10
57.8927
20
-168.149
11
57.7975
21
-168.53
0
LINE
8
BLACK
6
CONTINUOUS
10
57.7975
20
-168.53
11
57.7022
21
-168.721
0
LINE
8
BLACK
6
CONTINUOUS
10
57.7022
20
-168.721
11
57.607
21
-168.816
0
LINE
8
BLACK
6
CONTINUOUS
10
57.607
20
-168.816
11
57.4165
21
-168.911
0
LINE
8
BLACK
6
CONTINUOUS
10
57.4165
20
-168.911
11
57.226
21
-168.911
0
LINE
8
BLACK
6
CONTINUOUS
10
57.226
20
-168.911
11
57.0356
21
-168.816
0
LINE
8
BLACK
6
CONTINUOUS
10
57.0356
20
-168.816
11
56.9403
21
-168.721
0
LINE
8
BLACK
6
CONTINUOUS
10
56.9403
20
-168.721
11
56.8451
21
-168.53
0
LINE
8
BLACK
6
CONTINUOUS
10
56.8451
20
-168.53
11
56.7499
21
-168.149
0
LINE
8
BLACK
6
CONTINUOUS
10
56.7499
20
-168.149
11
56.7499
21
-167.673
0
LINE
8
BLACK
6
CONTINUOUS
10
56.7499
20
-167.673
11
56.8451
21
-167.292
0
LINE
8
BLACK
6
CONTINUOUS
10
56.8451
20
-167.292
11
56.9403
21
-167.102
0
LINE
8
BLACK
6
CONTINUOUS
10
56.9403
20
-167.102
11
57.0356
21
-167.006
0
LINE
8
BLACK
6
CONTINUOUS
10
57.0356
20
-167.006
11
57.226
21
-166.911
0
LINE
8
BLACK
6
CONTINUOUS
10
59.1308
20
-166.911
11
59.3213
21
-166.911
0
LINE
8
BLACK
6
CONTINUOUS
10
59.3213
20
-166.911
11
59.5118
21
-167.006
0
LINE
8
BLACK
6
CONTINUOUS
10
59.5118
20
-167.006
11
59.607
21
-167.102
0
LINE
8
BLACK
6
CONTINUOUS
10
59.607
20
-167.102
11
59.7022
21
-167.292
0
LINE
8
BLACK
6
CONTINUOUS
10
59.7022
20
-167.292
11
59.7975
21
-167.673
0
LINE
8
BLACK
6
CONTINUOUS
10
59.7975
20
-167.673
11
59.7975
21
-168.149
0
LINE
8
BLACK
6
CONTINUOUS
10
59.7975
20
-168.149
11
59.7022
21
-168.53
0
LINE
8
BLACK
6
CONTINUOUS
10
59.7022
20
-168.53
11
59.607
21
-168.721
0
LINE
8
BLACK
6
CONTINUOUS
10
59.607
20
-168.721
11
59.5118
21
-168.816
0
LINE
8
BLACK
6
CONTINUOUS
10
59.5118
20
-168.816
11
59.3213
21
-168.911
0
LINE
8
BLACK
6
CONTINUOUS
10
59.3213
20
-168.911
11
59.1308
21
-168.911
0
LINE
8
BLACK
6
CONTINUOUS
10
59.1308
20
-168.911
11
58.9403
21
-168.816
0
LINE
8
BLACK
6
CONTINUOUS
10
58.9403
20
-168.816
11
58.8451
21
-168.721
0
LINE
8
BLACK
6
CONTINUOUS
10
58.8451
20
-168.721
11
58.7499
21
-168.53
0
LINE
8
BLACK
6
CONTINUOUS
10
58.7499
20
-168.53
11
58.6546
21
-168.149
0
LINE
8
BLACK
6
CONTINUOUS
10
58.6546
20
-168.149
11
58.6546
21
-167.673
0
LINE
8
BLACK
6
CONTINUOUS
10
58.6546
20
-167.673
11
58.7499
21
-167.292
0
LINE
8
BLACK
6
CONTINUOUS
10
58.7499
20
-167.292
11
58.8451
21
-167.102
0
LINE
8
BLACK
6
CONTINUOUS
10
58.8451
20
-167.102
11
58.9403
21
-167.006
0
LINE
8
BLACK
6
CONTINUOUS
10
58.9403
20
-167.006
11
59.1308
21
-166.911
0
LINE
8
BLACK
6
CONTINUOUS
10
60.6546
20
-168.911
11
60.6546
21
-167.578
0
LINE
8
BLACK
6
CONTINUOUS
10
60.6546
20
-167.768
11
60.7499
21
-167.673
0
LINE
8
BLACK
6
CONTINUOUS
10
60.7499
20
-167.673
11
60.9403
21
-167.578
0
LINE
8
BLACK
6
CONTINUOUS
10
60.9403
20
-167.578
11
61.226
21
-167.578
0
LINE
8
BLACK
6
CONTINUOUS
10
61.226
20
-167.578
11
61.4165
21
-167.673
0
LINE
8
BLACK
6
CONTINUOUS
10
61.4165
20
-167.673
11
61.5118
21
-167.864
0
LINE
8
BLACK
6
CONTINUOUS
10
61.5118
20
-167.864
11
61.5118
21
-168.911
0
LINE
8
BLACK
6
CONTINUOUS
10
61.5118
20
-167.864
11
61.607
21
-167.673
0
LINE
8
BLACK
6
CONTINUOUS
10
61.607
20
-167.673
11
61.7975
21
-167.578
0
LINE
8
BLACK
6
CONTINUOUS
10
61.7975
20
-167.578
11
62.0832
21
-167.578
0
LINE
8
BLACK
6
CONTINUOUS
10
62.0832
20
-167.578
11
62.2737
21
-167.673
0
LINE
8
BLACK
6
CONTINUOUS
10
62.2737
20
-167.673
11
62.3689
21
-167.864
0
LINE
8
BLACK
6
CONTINUOUS
10
62.3689
20
-167.864
11
62.3689
21
-168.911
0
LINE
8
BLACK
6
CONTINUOUS
10
63.3213
20
-168.911
11
63.3213
21
-167.578
0
LINE
8
BLACK
6
CONTINUOUS
10
63.3213
20
-167.768
11
63.4165
21
-167.673
0
LINE
8
BLACK
6
CONTINUOUS
10
63.4165
20
-167.673
11
63.607
21
-167.578
0
LINE
8
BLACK
6
CONTINUOUS
10
63.607
20
-167.578
11
63.8927
21
-167.578
0
LINE
8
BLACK
6
CONTINUOUS
10
63.8927
20
-167.578
11
64.0832
21
-167.673
0
LINE
8
BLACK
6
CONTINUOUS
10
64.0832
20
-167.673
11
64.1784
21
-167.864
0
LINE
8
BLACK
6
CONTINUOUS
10
64.1784
20
-167.864
11
64.1784
21
-168.911
0
LINE
8
BLACK
6
CONTINUOUS
10
64.1784
20
-167.864
11
64.2737
21
-167.673
0
LINE
8
BLACK
6
CONTINUOUS
10
64.2737
20
-167.673
11
64.4641
21
-167.578
0
LINE
8
BLACK
6
CONTINUOUS
10
64.4641
20
-167.578
11
64.7499
21
-167.578
0
LINE
8
BLACK
6
CONTINUOUS
10
64.7499
20
-167.578
11
64.9403
21
-167.673
0
LINE
8
BLACK
6
CONTINUOUS
10
64.9403
20
-167.673
11
65.0356
21
-167.864
0
LINE
8
BLACK
6
CONTINUOUS
10
65.0356
20
-167.864
11
65.0356
21
-168.911
0
LINE
8
BLACK
6
CONTINUOUS
10
68.9403
20
-166.816
11
67.226
21
-169.387
0
LINE
8
BLACK
6
CONTINUOUS
10
71.5118
20
-166.911
11
71.7022
21
-166.911
0
LINE
8
BLACK
6
CONTINUOUS
10
71.7022
20
-166.911
11
71.8927
21
-167.006
0
LINE
8
BLACK
6
CONTINUOUS
10
71.8927
20
-167.006
11
71.988
21
-167.102
0
LINE
8
BLACK
6
CONTINUOUS
10
71.988
20
-167.102
11
72.0832
21
-167.292
0
LINE
8
BLACK
6
CONTINUOUS
10
72.0832
20
-167.292
11
72.1784
21
-167.673
0
LINE
8
BLACK
6
CONTINUOUS
10
72.1784
20
-167.673
11
72.1784
21
-168.149
0
LINE
8
BLACK
6
CONTINUOUS
10
72.1784
20
-168.149
11
72.0832
21
-168.53
0
LINE
8
BLACK
6
CONTINUOUS
10
72.0832
20
-168.53
11
71.988
21
-168.721
0
LINE
8
BLACK
6
CONTINUOUS
10
71.988
20
-168.721
11
71.8927
21
-168.816
0
LINE
8
BLACK
6
CONTINUOUS
10
71.8927
20
-168.816
11
71.7022
21
-168.911
0
LINE
8
BLACK
6
CONTINUOUS
10
71.7022
20
-168.911
11
71.5118
21
-168.911
0
LINE
8
BLACK
6
CONTINUOUS
10
71.5118
20
-168.911
11
71.3213
21
-168.816
0
LINE
8
BLACK
6
CONTINUOUS
10
71.3213
20
-168.816
11
71.226
21
-168.721
0
LINE
8
BLACK
6
CONTINUOUS
10
71.226
20
-168.721
11
71.1308
21
-168.53
0
LINE
8
BLACK
6
CONTINUOUS
10
71.1308
20
-168.53
11
71.0356
21
-168.149
0
LINE
8
BLACK
6
CONTINUOUS
10
71.0356
20
-168.149
11
71.0356
21
-167.673
0
LINE
8
BLACK
6
CONTINUOUS
10
71.0356
20
-167.673
11
71.1308
21
-167.292
0
LINE
8
BLACK
6
CONTINUOUS
10
71.1308
20
-167.292
11
71.226
21
-167.102
0
LINE
8
BLACK
6
CONTINUOUS
10
71.226
20
-167.102
11
71.3213
21
-167.006
0
LINE
8
BLACK
6
CONTINUOUS
10
71.3213
20
-167.006
11
71.5118
21
-166.911
0
LINE
8
BLACK
6
CONTINUOUS
10
73.0356
20
-168.721
11
73.1308
21
-168.816
0
LINE
8
BLACK
6
CONTINUOUS
10
73.1308
20
-168.816
11
73.0356
21
-168.911
0
LINE
8
BLACK
6
CONTINUOUS
10
73.0356
20
-168.911
11
72.9403
21
-168.816
0
LINE
8
BLACK
6
CONTINUOUS
10
72.9403
20
-168.816
11
73.0356
21
-168.721
0
LINE
8
BLACK
6
CONTINUOUS
10
73.0356
20
-168.721
11
73.0356
21
-168.911
0
LINE
8
BLACK
6
CONTINUOUS
10
74.3689
20
-166.911
11
74.5594
21
-166.911
0
LINE
8
BLACK
6
CONTINUOUS
10
74.5594
20
-166.911
11
74.7499
21
-167.006
0
LINE
8
BLACK
6
CONTINUOUS
10
74.7499
20
-167.006
11
74.8451
21
-167.102
0
LINE
8
BLACK
6
CONTINUOUS
10
74.8451
20
-167.102
11
74.9403
21
-167.292
0
LINE
8
BLACK
6
CONTINUOUS
10
74.9403
20
-167.292
11
75.0356
21
-167.673
0
LINE
8
BLACK
6
CONTINUOUS
10
75.0356
20
-167.673
11
75.0356
21
-168.149
0
LINE
8
BLACK
6
CONTINUOUS
10
75.0356
20
-168.149
11
74.9403
21
-168.53
0
LINE
8
BLACK
6
CONTINUOUS
10
74.9403
20
-168.53
11
74.8451
21
-168.721
0
LINE
8
BLACK
6
CONTINUOUS
10
74.8451
20
-168.721
11
74.7499
21
-168.816
0
LINE
8
BLACK
6
CONTINUOUS
10
74.7499
20
-168.816
11
74.5594
21
-168.911
0
LINE
8
BLACK
6
CONTINUOUS
10
74.5594
20
-168.911
11
74.3689
21
-168.911
0
LINE
8
BLACK
6
CONTINUOUS
10
74.3689
20
-168.911
11
74.1784
21
-168.816
0
LINE
8
BLACK
6
CONTINUOUS
10
74.1784
20
-168.816
11
74.0832
21
-168.721
0
LINE
8
BLACK
6
CONTINUOUS
10
74.0832
20
-168.721
11
73.988
21
-168.53
0
LINE
8
BLACK
6
CONTINUOUS
10
73.988
20
-168.53
11
73.8927
21
-168.149
0
LINE
8
BLACK
6
CONTINUOUS
10
73.8927
20
-168.149
11
73.8927
21
-167.673
0
LINE
8
BLACK
6
CONTINUOUS
10
73.8927
20
-167.673
11
73.988
21
-167.292
0
LINE
8
BLACK
6
CONTINUOUS
10
73.988
20
-167.292
11
74.0832
21
-167.102
0
LINE
8
BLACK
6
CONTINUOUS
10
74.0832
20
-167.102
11
74.1784
21
-167.006
0
LINE
8
BLACK
6
CONTINUOUS
10
74.1784
20
-167.006
11
74.3689
21
-166.911
0
LINE
8
BLACK
6
CONTINUOUS
10
76.7499
20
-167.578
11
76.7499
21
-168.911
0
LINE
8
BLACK
6
CONTINUOUS
10
76.2737
20
-166.816
11
75.7975
21
-168.245
0
LINE
8
BLACK
6
CONTINUOUS
10
75.7975
20
-168.245
11
77.0356
21
-168.245
0
LINE
8
BLACK
6
CONTINUOUS
10
77.607
20
-166.911
11
78.8451
21
-166.911
0
LINE
8
BLACK
6
CONTINUOUS
10
78.8451
20
-166.911
11
78.1784
21
-167.673
0
LINE
8
BLACK
6
CONTINUOUS
10
78.1784
20
-167.673
11
78.4641
21
-167.673
0
LINE
8
BLACK
6
CONTINUOUS
10
78.4641
20
-167.673
11
78.6546
21
-167.768
0
LINE
8
BLACK
6
CONTINUOUS
10
78.6546
20
-167.768
11
78.7499
21
-167.864
0
LINE
8
BLACK
6
CONTINUOUS
10
78.7499
20
-167.864
11
78.8451
21
-168.054
0
LINE
8
BLACK
6
CONTINUOUS
10
78.8451
20
-168.054
11
78.8451
21
-168.53
0
LINE
8
BLACK
6
CONTINUOUS
10
78.8451
20
-168.53
11
78.7499
21
-168.721
0
LINE
8
BLACK
6
CONTINUOUS
10
78.7499
20
-168.721
11
78.6546
21
-168.816
0
LINE
8
BLACK
6
CONTINUOUS
10
78.6546
20
-168.816
11
78.4641
21
-168.911
0
LINE
8
BLACK
6
CONTINUOUS
10
78.4641
20
-168.911
11
77.8927
21
-168.911
0
LINE
8
BLACK
6
CONTINUOUS
10
77.8927
20
-168.911
11
77.7022
21
-168.816
0
LINE
8
BLACK
6
CONTINUOUS
10
77.7022
20
-168.816
11
77.607
21
-168.721
0
LINE
8
BLACK
6
CONTINUOUS
10
79.5118
20
-166.911
11
80.7499
21
-166.911
0
LINE
8
BLACK
6
CONTINUOUS
10
80.7499
20
-166.911
11
80.0832
21
-167.673
0
LINE
8
BLACK
6
CONTINUOUS
10
80.0832
20
-167.673
11
80.3689
21
-167.673
0
LINE
8
BLACK
6
CONTINUOUS
10
80.3689
20
-167.673
11
80.5594
21
-167.768
0
LINE
8
BLACK
6
CONTINUOUS
10
80.5594
20
-167.768
11
80.6546
21
-167.864
0
LINE
8
BLACK
6
CONTINUOUS
10
80.6546
20
-167.864
11
80.7499
21
-168.054
0
LINE
8
BLACK
6
CONTINUOUS
10
80.7499
20
-168.054
11
80.7499
21
-168.53
0
LINE
8
BLACK
6
CONTINUOUS
10
80.7499
20
-168.53
11
80.6546
21
-168.721
0
LINE
8
BLACK
6
CONTINUOUS
10
80.6546
20
-168.721
11
80.5594
21
-168.816
0
LINE
8
BLACK
6
CONTINUOUS
10
80.5594
20
-168.816
11
80.3689
21
-168.911
0
LINE
8
BLACK
6
CONTINUOUS
10
80.3689
20
-168.911
11
79.7975
21
-168.911
0
LINE
8
BLACK
6
CONTINUOUS
10
79.7975
20
-168.911
11
79.607
21
-168.816
0
LINE
8
BLACK
6
CONTINUOUS
10
79.607
20
-168.816
11
79.5118
21
-168.721
0
LINE
8
BLACK
6
CONTINUOUS
10
81.5118
20
-166.911
11
81.5118
21
-167.292
0
LINE
8
BLACK
6
CONTINUOUS
10
82.2737
20
-166.911
11
82.2737
21
-167.292
0
LINE
8
BLACK
6
CONTINUOUS
10
85.2261
20
-169.673
11
85.1308
21
-169.578
0
LINE
8
BLACK
6
CONTINUOUS
10
85.1308
20
-169.578
11
84.9403
21
-169.292
0
LINE
8
BLACK
6
CONTINUOUS
10
84.9403
20
-169.292
11
84.8451
21
-169.102
0
LINE
8
BLACK
6
CONTINUOUS
10
84.8451
20
-169.102
11
84.7499
21
-168.816
0
LINE
8
BLACK
6
CONTINUOUS
10
84.7499
20
-168.816
11
84.6546
21
-168.34
0
LINE
8
BLACK
6
CONTINUOUS
10
84.6546
20
-168.34
11
84.6546
21
-167.959
0
LINE
8
BLACK
6
CONTINUOUS
10
84.6546
20
-167.959
11
84.7499
21
-167.483
0
LINE
8
BLACK
6
CONTINUOUS
10
84.7499
20
-167.483
11
84.8451
21
-167.197
0
LINE
8
BLACK
6
CONTINUOUS
10
84.8451
20
-167.197
11
84.9403
21
-167.006
0
LINE
8
BLACK
6
CONTINUOUS
10
84.9403
20
-167.006
11
85.1308
21
-166.721
0
LINE
8
BLACK
6
CONTINUOUS
10
85.1308
20
-166.721
11
85.2261
21
-166.626
0
LINE
8
BLACK
6
CONTINUOUS
10
86.8451
20
-166.911
11
86.4641
21
-166.911
0
LINE
8
BLACK
6
CONTINUOUS
10
86.4641
20
-166.911
11
86.2737
21
-167.006
0
LINE
8
BLACK
6
CONTINUOUS
10
86.2737
20
-167.006
11
86.1784
21
-167.102
0
LINE
8
BLACK
6
CONTINUOUS
10
86.1784
20
-167.102
11
85.988
21
-167.387
0
LINE
8
BLACK
6
CONTINUOUS
10
85.988
20
-167.387
11
85.8927
21
-167.768
0
LINE
8
BLACK
6
CONTINUOUS
10
85.8927
20
-167.768
11
85.8927
21
-168.53
0
LINE
8
BLACK
6
CONTINUOUS
10
85.8927
20
-168.53
11
85.988
21
-168.721
0
LINE
8
BLACK
6
CONTINUOUS
10
85.988
20
-168.721
11
86.0832
21
-168.816
0
LINE
8
BLACK
6
CONTINUOUS
10
86.0832
20
-168.816
11
86.2737
21
-168.911
0
LINE
8
BLACK
6
CONTINUOUS
10
86.2737
20
-168.911
11
86.6546
21
-168.911
0
LINE
8
BLACK
6
CONTINUOUS
10
86.6546
20
-168.911
11
86.8451
21
-168.816
0
LINE
8
BLACK
6
CONTINUOUS
10
86.8451
20
-168.816
11
86.9403
21
-168.721
0
LINE
8
BLACK
6
CONTINUOUS
10
86.9403
20
-168.721
11
87.0356
21
-168.53
0
LINE
8
BLACK
6
CONTINUOUS
10
87.0356
20
-168.53
11
87.0356
21
-168.054
0
LINE
8
BLACK
6
CONTINUOUS
10
87.0356
20
-168.054
11
86.9403
21
-167.864
0
LINE
8
BLACK
6
CONTINUOUS
10
86.9403
20
-167.864
11
86.8451
21
-167.768
0
LINE
8
BLACK
6
CONTINUOUS
10
86.8451
20
-167.768
11
86.6546
21
-167.673
0
LINE
8
BLACK
6
CONTINUOUS
10
86.6546
20
-167.673
11
86.2737
21
-167.673
0
LINE
8
BLACK
6
CONTINUOUS
10
86.2737
20
-167.673
11
86.0832
21
-167.768
0
LINE
8
BLACK
6
CONTINUOUS
10
86.0832
20
-167.768
11
85.988
21
-167.864
0
LINE
8
BLACK
6
CONTINUOUS
10
85.988
20
-167.864
11
85.8927
21
-168.054
0
LINE
8
BLACK
6
CONTINUOUS
10
88.9403
20
-168.911
11
87.7975
21
-168.911
0
LINE
8
BLACK
6
CONTINUOUS
10
88.3689
20
-168.911
11
88.3689
21
-166.911
0
LINE
8
BLACK
6
CONTINUOUS
10
88.3689
20
-166.911
11
88.1784
21
-167.197
0
LINE
8
BLACK
6
CONTINUOUS
10
88.1784
20
-167.197
11
87.988
21
-167.387
0
LINE
8
BLACK
6
CONTINUOUS
10
87.988
20
-167.387
11
87.7975
21
-167.483
0
LINE
8
BLACK
6
CONTINUOUS
10
91.3213
20
-168.911
11
91.3213
21
-166.911
0
LINE
8
BLACK
6
CONTINUOUS
10
92.1784
20
-168.911
11
92.1784
21
-167.864
0
LINE
8
BLACK
6
CONTINUOUS
10
92.1784
20
-167.864
11
92.0832
21
-167.673
0
LINE
8
BLACK
6
CONTINUOUS
10
92.0832
20
-167.673
11
91.8927
21
-167.578
0
LINE
8
BLACK
6
CONTINUOUS
10
91.8927
20
-167.578
11
91.607
21
-167.578
0
LINE
8
BLACK
6
CONTINUOUS
10
91.607
20
-167.578
11
91.4165
21
-167.673
0
LINE
8
BLACK
6
CONTINUOUS
10
91.4165
20
-167.673
11
91.3213
21
-167.768
0
LINE
8
BLACK
6
CONTINUOUS
10
93.4165
20
-168.911
11
93.2261
21
-168.816
0
LINE
8
BLACK
6
CONTINUOUS
10
93.2261
20
-168.816
11
93.1308
21
-168.721
0
LINE
8
BLACK
6
CONTINUOUS
10
93.1308
20
-168.721
11
93.0356
21
-168.53
0
LINE
8
BLACK
6
CONTINUOUS
10
93.0356
20
-168.53
11
93.0356
21
-167.959
0
LINE
8
BLACK
6
CONTINUOUS
10
93.0356
20
-167.959
11
93.1308
21
-167.768
0
LINE
8
BLACK
6
CONTINUOUS
10
93.1308
20
-167.768
11
93.2261
21
-167.673
0
LINE
8
BLACK
6
CONTINUOUS
10
93.2261
20
-167.673
11
93.4165
21
-167.578
0
LINE
8
BLACK
6
CONTINUOUS
10
93.4165
20
-167.578
11
93.7022
21
-167.578
0
LINE
8
BLACK
6
CONTINUOUS
10
93.7022
20
-167.578
11
93.8927
21
-167.673
0
LINE
8
BLACK
6
CONTINUOUS
10
93.8927
20
-167.673
11
93.988
21
-167.768
0
LINE
8
BLACK
6
CONTINUOUS
10
93.988
20
-167.768
11
94.0832
21
-167.959
0
LINE
8
BLACK
6
CONTINUOUS
10
94.0832
20
-167.959
11
94.0832
21
-168.53
0
LINE
8
BLACK
6
CONTINUOUS
10
94.0832
20
-168.53
11
93.988
21
-168.721
0
LINE
8
BLACK
6
CONTINUOUS
10
93.988
20
-168.721
11
93.8927
21
-168.816
0
LINE
8
BLACK
6
CONTINUOUS
10
93.8927
20
-168.816
11
93.7022
21
-168.911
0
LINE
8
BLACK
6
CONTINUOUS
10
93.7022
20
-168.911
11
93.4165
21
-168.911
0
LINE
8
BLACK
6
CONTINUOUS
10
95.2261
20
-168.911
11
95.0356
21
-168.816
0
LINE
8
BLACK
6
CONTINUOUS
10
95.0356
20
-168.816
11
94.9403
21
-168.626
0
LINE
8
BLACK
6
CONTINUOUS
10
94.9403
20
-168.626
11
94.9403
21
-166.911
0
LINE
8
BLACK
6
CONTINUOUS
10
96.7499
20
-168.816
11
96.5594
21
-168.911
0
LINE
8
BLACK
6
CONTINUOUS
10
96.5594
20
-168.911
11
96.1784
21
-168.911
0
LINE
8
BLACK
6
CONTINUOUS
10
96.1784
20
-168.911
11
95.988
21
-168.816
0
LINE
8
BLACK
6
CONTINUOUS
10
95.988
20
-168.816
11
95.8927
21
-168.626
0
LINE
8
BLACK
6
CONTINUOUS
10
95.8927
20
-168.626
11
95.8927
21
-167.864
0
LINE
8
BLACK
6
CONTINUOUS
10
95.8927
20
-167.864
11
95.988
21
-167.673
0
LINE
8
BLACK
6
CONTINUOUS
10
95.988
20
-167.673
11
96.1784
21
-167.578
0
LINE
8
BLACK
6
CONTINUOUS
10
96.1784
20
-167.578
11
96.5594
21
-167.578
0
LINE
8
BLACK
6
CONTINUOUS
10
96.5594
20
-167.578
11
96.7499
21
-167.673
0
LINE
8
BLACK
6
CONTINUOUS
10
96.7499
20
-167.673
11
96.8451
21
-167.864
0
LINE
8
BLACK
6
CONTINUOUS
10
96.8451
20
-167.864
11
96.8451
21
-168.054
0
LINE
8
BLACK
6
CONTINUOUS
10
96.8451
20
-168.054
11
95.8927
21
-168.245
0
LINE
8
BLACK
6
CONTINUOUS
10
97.607
20
-168.816
11
97.7975
21
-168.911
0
LINE
8
BLACK
6
CONTINUOUS
10
97.7975
20
-168.911
11
98.1784
21
-168.911
0
LINE
8
BLACK
6
CONTINUOUS
10
98.1784
20
-168.911
11
98.3689
21
-168.816
0
LINE
8
BLACK
6
CONTINUOUS
10
98.3689
20
-168.816
11
98.4641
21
-168.626
0
LINE
8
BLACK
6
CONTINUOUS
10
98.4641
20
-168.626
11
98.4641
21
-168.53
0
LINE
8
BLACK
6
CONTINUOUS
10
98.4641
20
-168.53
11
98.3689
21
-168.34
0
LINE
8
BLACK
6
CONTINUOUS
10
98.3689
20
-168.34
11
98.1784
21
-168.245
0
LINE
8
BLACK
6
CONTINUOUS
10
98.1784
20
-168.245
11
97.8927
21
-168.245
0
LINE
8
BLACK
6
CONTINUOUS
10
97.8927
20
-168.245
11
97.7022
21
-168.149
0
LINE
8
BLACK
6
CONTINUOUS
10
97.7022
20
-168.149
11
97.607
21
-167.959
0
LINE
8
BLACK
6
CONTINUOUS
10
97.607
20
-167.959
11
97.607
21
-167.864
0
LINE
8
BLACK
6
CONTINUOUS
10
97.607
20
-167.864
11
97.7022
21
-167.673
0
LINE
8
BLACK
6
CONTINUOUS
10
97.7022
20
-167.673
11
97.8927
21
-167.578
0
LINE
8
BLACK
6
CONTINUOUS
10
97.8927
20
-167.578
11
98.1784
21
-167.578
0
LINE
8
BLACK
6
CONTINUOUS
10
98.1784
20
-167.578
11
98.3689
21
-167.673
0
LINE
8
BLACK
6
CONTINUOUS
10
99.1308
20
-169.673
11
99.2261
21
-169.578
0
LINE
8
BLACK
6
CONTINUOUS
10
99.2261
20
-169.578
11
99.4165
21
-169.292
0
LINE
8
BLACK
6
CONTINUOUS
10
99.4165
20
-169.292
11
99.5118
21
-169.102
0
LINE
8
BLACK
6
CONTINUOUS
10
99.5118
20
-169.102
11
99.607
21
-168.816
0
LINE
8
BLACK
6
CONTINUOUS
10
99.607
20
-168.816
11
99.7022
21
-168.34
0
LINE
8
BLACK
6
CONTINUOUS
10
99.7022
20
-168.34
11
99.7022
21
-167.959
0
LINE
8
BLACK
6
CONTINUOUS
10
99.7022
20
-167.959
11
99.607
21
-167.483
0
LINE
8
BLACK
6
CONTINUOUS
10
99.607
20
-167.483
11
99.5118
21
-167.197
0
LINE
8
BLACK
6
CONTINUOUS
10
99.5118
20
-167.197
11
99.4165
21
-167.006
0
LINE
8
BLACK
6
CONTINUOUS
10
99.4165
20
-167.006
11
99.2261
21
-166.721
0
LINE
8
BLACK
6
CONTINUOUS
10
99.2261
20
-166.721
11
99.1308
21
-166.626
  0
ENDSEC
  0
EOF
