%FSLAX45Y45*%
G04 Gerber Fmt 4.5, Leading zero omitted, Abs format (unit mm)*
G04 Created by KiCad (PCBNEW (6.0.0-0)) date 2023-03-28 13:13:55*
%MOMM*%
%LPD*%
G01*
G04 APERTURE LIST*
%TA.AperFunction,Profile*%
%ADD10C,0.100000*%
%TD*%
%ADD11C,0.200000*%
%ADD12C,0.140000*%
%ADD13C,0.160020*%
%ADD14C,0.270000*%
%ADD15C,0.320040*%
%ADD16C,0.350000*%
G04 APERTURE END LIST*
D10*
X5702300Y-14833600D02*
X4965700Y-14097000D01*
X15811500Y-14097000D02*
X15074900Y-14833600D01*
X5702300Y-4495800D02*
X13474700Y-4495800D01*
X13474700Y-4495800D02*
X15811500Y-4495800D01*
X15811500Y-14097000D02*
X15811500Y-4495800D01*
X4965700Y-14097000D02*
X4965700Y-5232400D01*
X5702300Y-4495800D02*
X4965700Y-5232400D01*
X15074900Y-14833600D02*
X5702300Y-14833600D01*
D11*
D12*
X5141800Y-13392000D02*
X5281800Y-13532000D01*
X5281800Y-13392000D02*
X5141800Y-13532000D01*
X5641800Y-13392000D02*
X5781800Y-13532000D01*
X5781800Y-13392000D02*
X5641800Y-13532000D01*
D13*
X5707751Y-6018140D02*
G75*
G03*
X5707751Y-6018140I-80010J0D01*
G01*
X5707751Y-11905860D02*
G75*
G03*
X5707751Y-11905860I-80010J0D01*
G01*
X7092051Y-7565000D02*
G75*
G03*
X7092051Y-7565000I-80010J0D01*
G01*
X7092051Y-8962000D02*
G75*
G03*
X7092051Y-8962000I-80010J0D01*
G01*
X7092051Y-10359000D02*
G75*
G03*
X7092051Y-10359000I-80010J0D01*
G01*
D14*
X5397500Y-5262500D02*
X5397500Y-5532500D01*
X5262500Y-5397500D02*
X5532500Y-5397500D01*
X5969000Y-14279500D02*
X5969000Y-14549500D01*
X5834000Y-14414500D02*
X6104000Y-14414500D01*
X10106800Y-5699600D02*
X10106800Y-5969600D01*
X9971800Y-5834600D02*
X10241800Y-5834600D01*
X13006800Y-5699600D02*
X13006800Y-5969600D01*
X12871800Y-5834600D02*
X13141800Y-5834600D01*
X13006800Y-11499600D02*
X13006800Y-11769600D01*
X12871800Y-11634600D02*
X13141800Y-11634600D01*
X14351000Y-7548500D02*
X14351000Y-7818500D01*
X14216000Y-7683500D02*
X14486000Y-7683500D01*
X14795500Y-14279500D02*
X14795500Y-14549500D01*
X14660500Y-14414500D02*
X14930500Y-14414500D01*
D15*
X6109193Y-6408152D02*
X6109193Y-6181848D01*
X5882888Y-6181848D01*
X5882888Y-6408152D01*
X6109193Y-6408152D01*
X6109193Y-11742152D02*
X6109193Y-11515848D01*
X5882888Y-11515848D01*
X5882888Y-11742152D01*
X6109193Y-11742152D01*
D16*
X11531600Y-14608600D02*
X11706600Y-14433600D01*
X11531600Y-14258600D01*
X11356600Y-14433600D01*
X11531600Y-14608600D01*
D11*
X5218319Y-15149076D02*
X5218319Y-14949076D01*
X5265938Y-14949076D01*
X5294510Y-14958600D01*
X5313557Y-14977648D01*
X5323081Y-14996695D01*
X5332605Y-15034790D01*
X5332605Y-15063362D01*
X5323081Y-15101457D01*
X5313557Y-15120505D01*
X5294510Y-15139552D01*
X5265938Y-15149076D01*
X5218319Y-15149076D01*
X5418319Y-15149076D02*
X5418319Y-15015743D01*
X5418319Y-15053838D02*
X5427843Y-15034790D01*
X5437367Y-15025267D01*
X5456414Y-15015743D01*
X5475462Y-15015743D01*
X5542129Y-15149076D02*
X5542129Y-15015743D01*
X5542129Y-14949076D02*
X5532605Y-14958600D01*
X5542129Y-14968124D01*
X5551652Y-14958600D01*
X5542129Y-14949076D01*
X5542129Y-14968124D01*
X5665938Y-15149076D02*
X5646890Y-15139552D01*
X5637367Y-15120505D01*
X5637367Y-14949076D01*
X5770700Y-15149076D02*
X5751652Y-15139552D01*
X5742128Y-15120505D01*
X5742128Y-14949076D01*
X5999271Y-15149076D02*
X5999271Y-14949076D01*
X6065938Y-15091933D01*
X6132605Y-14949076D01*
X6132605Y-15149076D01*
X6313557Y-15149076D02*
X6313557Y-15044314D01*
X6304033Y-15025267D01*
X6284986Y-15015743D01*
X6246890Y-15015743D01*
X6227843Y-15025267D01*
X6313557Y-15139552D02*
X6294509Y-15149076D01*
X6246890Y-15149076D01*
X6227843Y-15139552D01*
X6218319Y-15120505D01*
X6218319Y-15101457D01*
X6227843Y-15082409D01*
X6246890Y-15072886D01*
X6294509Y-15072886D01*
X6313557Y-15063362D01*
X6408795Y-15015743D02*
X6408795Y-15215743D01*
X6408795Y-15025267D02*
X6427843Y-15015743D01*
X6465938Y-15015743D01*
X6484986Y-15025267D01*
X6494509Y-15034790D01*
X6504033Y-15053838D01*
X6504033Y-15110981D01*
X6494509Y-15130028D01*
X6484986Y-15139552D01*
X6465938Y-15149076D01*
X6427843Y-15149076D01*
X6408795Y-15139552D01*
X6589748Y-15130028D02*
X6599271Y-15139552D01*
X6589748Y-15149076D01*
X6580224Y-15139552D01*
X6589748Y-15130028D01*
X6589748Y-15149076D01*
X6589748Y-15025267D02*
X6599271Y-15034790D01*
X6589748Y-15044314D01*
X6580224Y-15034790D01*
X6589748Y-15025267D01*
X6589748Y-15044314D01*
D12*
X4820700Y-15408600D02*
X4960700Y-15548600D01*
X4960700Y-15408600D02*
X4820700Y-15548600D01*
D11*
X5323081Y-15569076D02*
X5208795Y-15569076D01*
X5265938Y-15569076D02*
X5265938Y-15369076D01*
X5246890Y-15397648D01*
X5227843Y-15416695D01*
X5208795Y-15426219D01*
X5408795Y-15550028D02*
X5418319Y-15559552D01*
X5408795Y-15569076D01*
X5399271Y-15559552D01*
X5408795Y-15550028D01*
X5408795Y-15569076D01*
X5589748Y-15435743D02*
X5589748Y-15569076D01*
X5542129Y-15359552D02*
X5494510Y-15502409D01*
X5618319Y-15502409D01*
X5732605Y-15369076D02*
X5751652Y-15369076D01*
X5770700Y-15378600D01*
X5780224Y-15388124D01*
X5789748Y-15407171D01*
X5799271Y-15445267D01*
X5799271Y-15492886D01*
X5789748Y-15530981D01*
X5780224Y-15550028D01*
X5770700Y-15559552D01*
X5751652Y-15569076D01*
X5732605Y-15569076D01*
X5713557Y-15559552D01*
X5704033Y-15550028D01*
X5694509Y-15530981D01*
X5684986Y-15492886D01*
X5684986Y-15445267D01*
X5694509Y-15407171D01*
X5704033Y-15388124D01*
X5713557Y-15378600D01*
X5732605Y-15369076D01*
X5923081Y-15369076D02*
X5942128Y-15369076D01*
X5961176Y-15378600D01*
X5970700Y-15388124D01*
X5980224Y-15407171D01*
X5989748Y-15445267D01*
X5989748Y-15492886D01*
X5980224Y-15530981D01*
X5970700Y-15550028D01*
X5961176Y-15559552D01*
X5942128Y-15569076D01*
X5923081Y-15569076D01*
X5904033Y-15559552D01*
X5894509Y-15550028D01*
X5884986Y-15530981D01*
X5875462Y-15492886D01*
X5875462Y-15445267D01*
X5884986Y-15407171D01*
X5894509Y-15388124D01*
X5904033Y-15378600D01*
X5923081Y-15369076D01*
X6075462Y-15569076D02*
X6075462Y-15435743D01*
X6075462Y-15454790D02*
X6084986Y-15445267D01*
X6104033Y-15435743D01*
X6132605Y-15435743D01*
X6151652Y-15445267D01*
X6161176Y-15464314D01*
X6161176Y-15569076D01*
X6161176Y-15464314D02*
X6170700Y-15445267D01*
X6189748Y-15435743D01*
X6218319Y-15435743D01*
X6237367Y-15445267D01*
X6246890Y-15464314D01*
X6246890Y-15569076D01*
X6342128Y-15569076D02*
X6342128Y-15435743D01*
X6342128Y-15454790D02*
X6351652Y-15445267D01*
X6370700Y-15435743D01*
X6399271Y-15435743D01*
X6418319Y-15445267D01*
X6427843Y-15464314D01*
X6427843Y-15569076D01*
X6427843Y-15464314D02*
X6437367Y-15445267D01*
X6456414Y-15435743D01*
X6484986Y-15435743D01*
X6504033Y-15445267D01*
X6513557Y-15464314D01*
X6513557Y-15569076D01*
X6904033Y-15359552D02*
X6732605Y-15616695D01*
X7161176Y-15369076D02*
X7180224Y-15369076D01*
X7199271Y-15378600D01*
X7208795Y-15388124D01*
X7218319Y-15407171D01*
X7227843Y-15445267D01*
X7227843Y-15492886D01*
X7218319Y-15530981D01*
X7208795Y-15550028D01*
X7199271Y-15559552D01*
X7180224Y-15569076D01*
X7161176Y-15569076D01*
X7142128Y-15559552D01*
X7132605Y-15550028D01*
X7123081Y-15530981D01*
X7113557Y-15492886D01*
X7113557Y-15445267D01*
X7123081Y-15407171D01*
X7132605Y-15388124D01*
X7142128Y-15378600D01*
X7161176Y-15369076D01*
X7313557Y-15550028D02*
X7323081Y-15559552D01*
X7313557Y-15569076D01*
X7304033Y-15559552D01*
X7313557Y-15550028D01*
X7313557Y-15569076D01*
X7446890Y-15369076D02*
X7465938Y-15369076D01*
X7484986Y-15378600D01*
X7494509Y-15388124D01*
X7504033Y-15407171D01*
X7513557Y-15445267D01*
X7513557Y-15492886D01*
X7504033Y-15530981D01*
X7494509Y-15550028D01*
X7484986Y-15559552D01*
X7465938Y-15569076D01*
X7446890Y-15569076D01*
X7427843Y-15559552D01*
X7418319Y-15550028D01*
X7408795Y-15530981D01*
X7399271Y-15492886D01*
X7399271Y-15445267D01*
X7408795Y-15407171D01*
X7418319Y-15388124D01*
X7427843Y-15378600D01*
X7446890Y-15369076D01*
X7694509Y-15369076D02*
X7599271Y-15369076D01*
X7589748Y-15464314D01*
X7599271Y-15454790D01*
X7618319Y-15445267D01*
X7665938Y-15445267D01*
X7684986Y-15454790D01*
X7694509Y-15464314D01*
X7704033Y-15483362D01*
X7704033Y-15530981D01*
X7694509Y-15550028D01*
X7684986Y-15559552D01*
X7665938Y-15569076D01*
X7618319Y-15569076D01*
X7599271Y-15559552D01*
X7589748Y-15550028D01*
X7884986Y-15369076D02*
X7789748Y-15369076D01*
X7780224Y-15464314D01*
X7789748Y-15454790D01*
X7808795Y-15445267D01*
X7856414Y-15445267D01*
X7875462Y-15454790D01*
X7884986Y-15464314D01*
X7894509Y-15483362D01*
X7894509Y-15530981D01*
X7884986Y-15550028D01*
X7875462Y-15559552D01*
X7856414Y-15569076D01*
X7808795Y-15569076D01*
X7789748Y-15559552D01*
X7780224Y-15550028D01*
X8084986Y-15569076D02*
X7970700Y-15569076D01*
X8027843Y-15569076D02*
X8027843Y-15369076D01*
X8008795Y-15397648D01*
X7989748Y-15416695D01*
X7970700Y-15426219D01*
X8161176Y-15369076D02*
X8161176Y-15407171D01*
X8237367Y-15369076D02*
X8237367Y-15407171D01*
X8532605Y-15645267D02*
X8523081Y-15635743D01*
X8504033Y-15607171D01*
X8494510Y-15588124D01*
X8484986Y-15559552D01*
X8475462Y-15511933D01*
X8475462Y-15473838D01*
X8484986Y-15426219D01*
X8494510Y-15397648D01*
X8504033Y-15378600D01*
X8523081Y-15350028D01*
X8532605Y-15340505D01*
X8599271Y-15388124D02*
X8608795Y-15378600D01*
X8627843Y-15369076D01*
X8675462Y-15369076D01*
X8694510Y-15378600D01*
X8704033Y-15388124D01*
X8713557Y-15407171D01*
X8713557Y-15426219D01*
X8704033Y-15454790D01*
X8589748Y-15569076D01*
X8713557Y-15569076D01*
X8951652Y-15569076D02*
X8951652Y-15369076D01*
X9037367Y-15569076D02*
X9037367Y-15464314D01*
X9027843Y-15445267D01*
X9008795Y-15435743D01*
X8980224Y-15435743D01*
X8961176Y-15445267D01*
X8951652Y-15454790D01*
X9161176Y-15569076D02*
X9142129Y-15559552D01*
X9132605Y-15550028D01*
X9123081Y-15530981D01*
X9123081Y-15473838D01*
X9132605Y-15454790D01*
X9142129Y-15445267D01*
X9161176Y-15435743D01*
X9189748Y-15435743D01*
X9208795Y-15445267D01*
X9218319Y-15454790D01*
X9227843Y-15473838D01*
X9227843Y-15530981D01*
X9218319Y-15550028D01*
X9208795Y-15559552D01*
X9189748Y-15569076D01*
X9161176Y-15569076D01*
X9342129Y-15569076D02*
X9323081Y-15559552D01*
X9313557Y-15540505D01*
X9313557Y-15369076D01*
X9494510Y-15559552D02*
X9475462Y-15569076D01*
X9437367Y-15569076D01*
X9418319Y-15559552D01*
X9408795Y-15540505D01*
X9408795Y-15464314D01*
X9418319Y-15445267D01*
X9437367Y-15435743D01*
X9475462Y-15435743D01*
X9494510Y-15445267D01*
X9504033Y-15464314D01*
X9504033Y-15483362D01*
X9408795Y-15502409D01*
X9580224Y-15559552D02*
X9599271Y-15569076D01*
X9637367Y-15569076D01*
X9656414Y-15559552D01*
X9665938Y-15540505D01*
X9665938Y-15530981D01*
X9656414Y-15511933D01*
X9637367Y-15502409D01*
X9608795Y-15502409D01*
X9589748Y-15492886D01*
X9580224Y-15473838D01*
X9580224Y-15464314D01*
X9589748Y-15445267D01*
X9608795Y-15435743D01*
X9637367Y-15435743D01*
X9656414Y-15445267D01*
X9732605Y-15645267D02*
X9742129Y-15635743D01*
X9761176Y-15607171D01*
X9770700Y-15588124D01*
X9780224Y-15559552D01*
X9789748Y-15511933D01*
X9789748Y-15473838D01*
X9780224Y-15426219D01*
X9770700Y-15397648D01*
X9761176Y-15378600D01*
X9742129Y-15350028D01*
X9732605Y-15340505D01*
X10094510Y-15645267D02*
X10084986Y-15635743D01*
X10065938Y-15607171D01*
X10056414Y-15588124D01*
X10046890Y-15559552D01*
X10037367Y-15511933D01*
X10037367Y-15473838D01*
X10046890Y-15426219D01*
X10056414Y-15397648D01*
X10065938Y-15378600D01*
X10084986Y-15350028D01*
X10094510Y-15340505D01*
X10170700Y-15435743D02*
X10170700Y-15569076D01*
X10170700Y-15454790D02*
X10180224Y-15445267D01*
X10199271Y-15435743D01*
X10227843Y-15435743D01*
X10246890Y-15445267D01*
X10256414Y-15464314D01*
X10256414Y-15569076D01*
X10380224Y-15569076D02*
X10361176Y-15559552D01*
X10351652Y-15550028D01*
X10342129Y-15530981D01*
X10342129Y-15473838D01*
X10351652Y-15454790D01*
X10361176Y-15445267D01*
X10380224Y-15435743D01*
X10408795Y-15435743D01*
X10427843Y-15445267D01*
X10437367Y-15454790D01*
X10446890Y-15473838D01*
X10446890Y-15530981D01*
X10437367Y-15550028D01*
X10427843Y-15559552D01*
X10408795Y-15569076D01*
X10380224Y-15569076D01*
X10504033Y-15435743D02*
X10580224Y-15435743D01*
X10532605Y-15369076D02*
X10532605Y-15540505D01*
X10542129Y-15559552D01*
X10561176Y-15569076D01*
X10580224Y-15569076D01*
X10799271Y-15435743D02*
X10799271Y-15635743D01*
X10799271Y-15445267D02*
X10818319Y-15435743D01*
X10856414Y-15435743D01*
X10875462Y-15445267D01*
X10884986Y-15454790D01*
X10894510Y-15473838D01*
X10894510Y-15530981D01*
X10884986Y-15550028D01*
X10875462Y-15559552D01*
X10856414Y-15569076D01*
X10818319Y-15569076D01*
X10799271Y-15559552D01*
X11008795Y-15569076D02*
X10989748Y-15559552D01*
X10980224Y-15540505D01*
X10980224Y-15369076D01*
X11170700Y-15569076D02*
X11170700Y-15464314D01*
X11161176Y-15445267D01*
X11142129Y-15435743D01*
X11104033Y-15435743D01*
X11084986Y-15445267D01*
X11170700Y-15559552D02*
X11151652Y-15569076D01*
X11104033Y-15569076D01*
X11084986Y-15559552D01*
X11075462Y-15540505D01*
X11075462Y-15521457D01*
X11084986Y-15502409D01*
X11104033Y-15492886D01*
X11151652Y-15492886D01*
X11170700Y-15483362D01*
X11237367Y-15435743D02*
X11313557Y-15435743D01*
X11265938Y-15369076D02*
X11265938Y-15540505D01*
X11275462Y-15559552D01*
X11294509Y-15569076D01*
X11313557Y-15569076D01*
X11456414Y-15559552D02*
X11437367Y-15569076D01*
X11399271Y-15569076D01*
X11380224Y-15559552D01*
X11370700Y-15540505D01*
X11370700Y-15464314D01*
X11380224Y-15445267D01*
X11399271Y-15435743D01*
X11437367Y-15435743D01*
X11456414Y-15445267D01*
X11465938Y-15464314D01*
X11465938Y-15483362D01*
X11370700Y-15502409D01*
X11637367Y-15569076D02*
X11637367Y-15369076D01*
X11637367Y-15559552D02*
X11618319Y-15569076D01*
X11580224Y-15569076D01*
X11561176Y-15559552D01*
X11551652Y-15550028D01*
X11542128Y-15530981D01*
X11542128Y-15473838D01*
X11551652Y-15454790D01*
X11561176Y-15445267D01*
X11580224Y-15435743D01*
X11618319Y-15435743D01*
X11637367Y-15445267D01*
X11713557Y-15645267D02*
X11723081Y-15635743D01*
X11742128Y-15607171D01*
X11751652Y-15588124D01*
X11761176Y-15559552D01*
X11770700Y-15511933D01*
X11770700Y-15473838D01*
X11761176Y-15426219D01*
X11751652Y-15397648D01*
X11742128Y-15378600D01*
X11723081Y-15350028D01*
X11713557Y-15340505D01*
D13*
X4960700Y-15742600D02*
G75*
G03*
X4960700Y-15742600I-80010J0D01*
G01*
D11*
X5323081Y-15833076D02*
X5208795Y-15833076D01*
X5265938Y-15833076D02*
X5265938Y-15633076D01*
X5246890Y-15661648D01*
X5227843Y-15680695D01*
X5208795Y-15690219D01*
X5408795Y-15814028D02*
X5418319Y-15823552D01*
X5408795Y-15833076D01*
X5399271Y-15823552D01*
X5408795Y-15814028D01*
X5408795Y-15833076D01*
X5589748Y-15633076D02*
X5551652Y-15633076D01*
X5532605Y-15642600D01*
X5523081Y-15652124D01*
X5504033Y-15680695D01*
X5494510Y-15718790D01*
X5494510Y-15794981D01*
X5504033Y-15814028D01*
X5513557Y-15823552D01*
X5532605Y-15833076D01*
X5570700Y-15833076D01*
X5589748Y-15823552D01*
X5599271Y-15814028D01*
X5608795Y-15794981D01*
X5608795Y-15747362D01*
X5599271Y-15728314D01*
X5589748Y-15718790D01*
X5570700Y-15709267D01*
X5532605Y-15709267D01*
X5513557Y-15718790D01*
X5504033Y-15728314D01*
X5494510Y-15747362D01*
X5732605Y-15633076D02*
X5751652Y-15633076D01*
X5770700Y-15642600D01*
X5780224Y-15652124D01*
X5789748Y-15671171D01*
X5799271Y-15709267D01*
X5799271Y-15756886D01*
X5789748Y-15794981D01*
X5780224Y-15814028D01*
X5770700Y-15823552D01*
X5751652Y-15833076D01*
X5732605Y-15833076D01*
X5713557Y-15823552D01*
X5704033Y-15814028D01*
X5694509Y-15794981D01*
X5684986Y-15756886D01*
X5684986Y-15709267D01*
X5694509Y-15671171D01*
X5704033Y-15652124D01*
X5713557Y-15642600D01*
X5732605Y-15633076D01*
X5923081Y-15633076D02*
X5942128Y-15633076D01*
X5961176Y-15642600D01*
X5970700Y-15652124D01*
X5980224Y-15671171D01*
X5989748Y-15709267D01*
X5989748Y-15756886D01*
X5980224Y-15794981D01*
X5970700Y-15814028D01*
X5961176Y-15823552D01*
X5942128Y-15833076D01*
X5923081Y-15833076D01*
X5904033Y-15823552D01*
X5894509Y-15814028D01*
X5884986Y-15794981D01*
X5875462Y-15756886D01*
X5875462Y-15709267D01*
X5884986Y-15671171D01*
X5894509Y-15652124D01*
X5904033Y-15642600D01*
X5923081Y-15633076D01*
X6075462Y-15833076D02*
X6075462Y-15699743D01*
X6075462Y-15718790D02*
X6084986Y-15709267D01*
X6104033Y-15699743D01*
X6132605Y-15699743D01*
X6151652Y-15709267D01*
X6161176Y-15728314D01*
X6161176Y-15833076D01*
X6161176Y-15728314D02*
X6170700Y-15709267D01*
X6189748Y-15699743D01*
X6218319Y-15699743D01*
X6237367Y-15709267D01*
X6246890Y-15728314D01*
X6246890Y-15833076D01*
X6342128Y-15833076D02*
X6342128Y-15699743D01*
X6342128Y-15718790D02*
X6351652Y-15709267D01*
X6370700Y-15699743D01*
X6399271Y-15699743D01*
X6418319Y-15709267D01*
X6427843Y-15728314D01*
X6427843Y-15833076D01*
X6427843Y-15728314D02*
X6437367Y-15709267D01*
X6456414Y-15699743D01*
X6484986Y-15699743D01*
X6504033Y-15709267D01*
X6513557Y-15728314D01*
X6513557Y-15833076D01*
X6904033Y-15623552D02*
X6732605Y-15880695D01*
X7161176Y-15633076D02*
X7180224Y-15633076D01*
X7199271Y-15642600D01*
X7208795Y-15652124D01*
X7218319Y-15671171D01*
X7227843Y-15709267D01*
X7227843Y-15756886D01*
X7218319Y-15794981D01*
X7208795Y-15814028D01*
X7199271Y-15823552D01*
X7180224Y-15833076D01*
X7161176Y-15833076D01*
X7142128Y-15823552D01*
X7132605Y-15814028D01*
X7123081Y-15794981D01*
X7113557Y-15756886D01*
X7113557Y-15709267D01*
X7123081Y-15671171D01*
X7132605Y-15652124D01*
X7142128Y-15642600D01*
X7161176Y-15633076D01*
X7313557Y-15814028D02*
X7323081Y-15823552D01*
X7313557Y-15833076D01*
X7304033Y-15823552D01*
X7313557Y-15814028D01*
X7313557Y-15833076D01*
X7446890Y-15633076D02*
X7465938Y-15633076D01*
X7484986Y-15642600D01*
X7494509Y-15652124D01*
X7504033Y-15671171D01*
X7513557Y-15709267D01*
X7513557Y-15756886D01*
X7504033Y-15794981D01*
X7494509Y-15814028D01*
X7484986Y-15823552D01*
X7465938Y-15833076D01*
X7446890Y-15833076D01*
X7427843Y-15823552D01*
X7418319Y-15814028D01*
X7408795Y-15794981D01*
X7399271Y-15756886D01*
X7399271Y-15709267D01*
X7408795Y-15671171D01*
X7418319Y-15652124D01*
X7427843Y-15642600D01*
X7446890Y-15633076D01*
X7684986Y-15633076D02*
X7646890Y-15633076D01*
X7627843Y-15642600D01*
X7618319Y-15652124D01*
X7599271Y-15680695D01*
X7589748Y-15718790D01*
X7589748Y-15794981D01*
X7599271Y-15814028D01*
X7608795Y-15823552D01*
X7627843Y-15833076D01*
X7665938Y-15833076D01*
X7684986Y-15823552D01*
X7694509Y-15814028D01*
X7704033Y-15794981D01*
X7704033Y-15747362D01*
X7694509Y-15728314D01*
X7684986Y-15718790D01*
X7665938Y-15709267D01*
X7627843Y-15709267D01*
X7608795Y-15718790D01*
X7599271Y-15728314D01*
X7589748Y-15747362D01*
X7770700Y-15633076D02*
X7894509Y-15633076D01*
X7827843Y-15709267D01*
X7856414Y-15709267D01*
X7875462Y-15718790D01*
X7884986Y-15728314D01*
X7894509Y-15747362D01*
X7894509Y-15794981D01*
X7884986Y-15814028D01*
X7875462Y-15823552D01*
X7856414Y-15833076D01*
X7799271Y-15833076D01*
X7780224Y-15823552D01*
X7770700Y-15814028D01*
X8018319Y-15633076D02*
X8037367Y-15633076D01*
X8056414Y-15642600D01*
X8065938Y-15652124D01*
X8075462Y-15671171D01*
X8084986Y-15709267D01*
X8084986Y-15756886D01*
X8075462Y-15794981D01*
X8065938Y-15814028D01*
X8056414Y-15823552D01*
X8037367Y-15833076D01*
X8018319Y-15833076D01*
X7999271Y-15823552D01*
X7989748Y-15814028D01*
X7980224Y-15794981D01*
X7970700Y-15756886D01*
X7970700Y-15709267D01*
X7980224Y-15671171D01*
X7989748Y-15652124D01*
X7999271Y-15642600D01*
X8018319Y-15633076D01*
X8161176Y-15633076D02*
X8161176Y-15671171D01*
X8237367Y-15633076D02*
X8237367Y-15671171D01*
X8532605Y-15909267D02*
X8523081Y-15899743D01*
X8504033Y-15871171D01*
X8494510Y-15852124D01*
X8484986Y-15823552D01*
X8475462Y-15775933D01*
X8475462Y-15737838D01*
X8484986Y-15690219D01*
X8494510Y-15661648D01*
X8504033Y-15642600D01*
X8523081Y-15614028D01*
X8532605Y-15604505D01*
X8704033Y-15633076D02*
X8608795Y-15633076D01*
X8599271Y-15728314D01*
X8608795Y-15718790D01*
X8627843Y-15709267D01*
X8675462Y-15709267D01*
X8694510Y-15718790D01*
X8704033Y-15728314D01*
X8713557Y-15747362D01*
X8713557Y-15794981D01*
X8704033Y-15814028D01*
X8694510Y-15823552D01*
X8675462Y-15833076D01*
X8627843Y-15833076D01*
X8608795Y-15823552D01*
X8599271Y-15814028D01*
X8951652Y-15833076D02*
X8951652Y-15633076D01*
X9037367Y-15833076D02*
X9037367Y-15728314D01*
X9027843Y-15709267D01*
X9008795Y-15699743D01*
X8980224Y-15699743D01*
X8961176Y-15709267D01*
X8951652Y-15718790D01*
X9161176Y-15833076D02*
X9142129Y-15823552D01*
X9132605Y-15814028D01*
X9123081Y-15794981D01*
X9123081Y-15737838D01*
X9132605Y-15718790D01*
X9142129Y-15709267D01*
X9161176Y-15699743D01*
X9189748Y-15699743D01*
X9208795Y-15709267D01*
X9218319Y-15718790D01*
X9227843Y-15737838D01*
X9227843Y-15794981D01*
X9218319Y-15814028D01*
X9208795Y-15823552D01*
X9189748Y-15833076D01*
X9161176Y-15833076D01*
X9342129Y-15833076D02*
X9323081Y-15823552D01*
X9313557Y-15804505D01*
X9313557Y-15633076D01*
X9494510Y-15823552D02*
X9475462Y-15833076D01*
X9437367Y-15833076D01*
X9418319Y-15823552D01*
X9408795Y-15804505D01*
X9408795Y-15728314D01*
X9418319Y-15709267D01*
X9437367Y-15699743D01*
X9475462Y-15699743D01*
X9494510Y-15709267D01*
X9504033Y-15728314D01*
X9504033Y-15747362D01*
X9408795Y-15766409D01*
X9580224Y-15823552D02*
X9599271Y-15833076D01*
X9637367Y-15833076D01*
X9656414Y-15823552D01*
X9665938Y-15804505D01*
X9665938Y-15794981D01*
X9656414Y-15775933D01*
X9637367Y-15766409D01*
X9608795Y-15766409D01*
X9589748Y-15756886D01*
X9580224Y-15737838D01*
X9580224Y-15728314D01*
X9589748Y-15709267D01*
X9608795Y-15699743D01*
X9637367Y-15699743D01*
X9656414Y-15709267D01*
X9732605Y-15909267D02*
X9742129Y-15899743D01*
X9761176Y-15871171D01*
X9770700Y-15852124D01*
X9780224Y-15823552D01*
X9789748Y-15775933D01*
X9789748Y-15737838D01*
X9780224Y-15690219D01*
X9770700Y-15661648D01*
X9761176Y-15642600D01*
X9742129Y-15614028D01*
X9732605Y-15604505D01*
X10094510Y-15909267D02*
X10084986Y-15899743D01*
X10065938Y-15871171D01*
X10056414Y-15852124D01*
X10046890Y-15823552D01*
X10037367Y-15775933D01*
X10037367Y-15737838D01*
X10046890Y-15690219D01*
X10056414Y-15661648D01*
X10065938Y-15642600D01*
X10084986Y-15614028D01*
X10094510Y-15604505D01*
X10170700Y-15699743D02*
X10170700Y-15833076D01*
X10170700Y-15718790D02*
X10180224Y-15709267D01*
X10199271Y-15699743D01*
X10227843Y-15699743D01*
X10246890Y-15709267D01*
X10256414Y-15728314D01*
X10256414Y-15833076D01*
X10380224Y-15833076D02*
X10361176Y-15823552D01*
X10351652Y-15814028D01*
X10342129Y-15794981D01*
X10342129Y-15737838D01*
X10351652Y-15718790D01*
X10361176Y-15709267D01*
X10380224Y-15699743D01*
X10408795Y-15699743D01*
X10427843Y-15709267D01*
X10437367Y-15718790D01*
X10446890Y-15737838D01*
X10446890Y-15794981D01*
X10437367Y-15814028D01*
X10427843Y-15823552D01*
X10408795Y-15833076D01*
X10380224Y-15833076D01*
X10504033Y-15699743D02*
X10580224Y-15699743D01*
X10532605Y-15633076D02*
X10532605Y-15804505D01*
X10542129Y-15823552D01*
X10561176Y-15833076D01*
X10580224Y-15833076D01*
X10799271Y-15699743D02*
X10799271Y-15899743D01*
X10799271Y-15709267D02*
X10818319Y-15699743D01*
X10856414Y-15699743D01*
X10875462Y-15709267D01*
X10884986Y-15718790D01*
X10894510Y-15737838D01*
X10894510Y-15794981D01*
X10884986Y-15814028D01*
X10875462Y-15823552D01*
X10856414Y-15833076D01*
X10818319Y-15833076D01*
X10799271Y-15823552D01*
X11008795Y-15833076D02*
X10989748Y-15823552D01*
X10980224Y-15804505D01*
X10980224Y-15633076D01*
X11170700Y-15833076D02*
X11170700Y-15728314D01*
X11161176Y-15709267D01*
X11142129Y-15699743D01*
X11104033Y-15699743D01*
X11084986Y-15709267D01*
X11170700Y-15823552D02*
X11151652Y-15833076D01*
X11104033Y-15833076D01*
X11084986Y-15823552D01*
X11075462Y-15804505D01*
X11075462Y-15785457D01*
X11084986Y-15766409D01*
X11104033Y-15756886D01*
X11151652Y-15756886D01*
X11170700Y-15747362D01*
X11237367Y-15699743D02*
X11313557Y-15699743D01*
X11265938Y-15633076D02*
X11265938Y-15804505D01*
X11275462Y-15823552D01*
X11294509Y-15833076D01*
X11313557Y-15833076D01*
X11456414Y-15823552D02*
X11437367Y-15833076D01*
X11399271Y-15833076D01*
X11380224Y-15823552D01*
X11370700Y-15804505D01*
X11370700Y-15728314D01*
X11380224Y-15709267D01*
X11399271Y-15699743D01*
X11437367Y-15699743D01*
X11456414Y-15709267D01*
X11465938Y-15728314D01*
X11465938Y-15747362D01*
X11370700Y-15766409D01*
X11637367Y-15833076D02*
X11637367Y-15633076D01*
X11637367Y-15823552D02*
X11618319Y-15833076D01*
X11580224Y-15833076D01*
X11561176Y-15823552D01*
X11551652Y-15814028D01*
X11542128Y-15794981D01*
X11542128Y-15737838D01*
X11551652Y-15718790D01*
X11561176Y-15709267D01*
X11580224Y-15699743D01*
X11618319Y-15699743D01*
X11637367Y-15709267D01*
X11713557Y-15909267D02*
X11723081Y-15899743D01*
X11742128Y-15871171D01*
X11751652Y-15852124D01*
X11761176Y-15823552D01*
X11770700Y-15775933D01*
X11770700Y-15737838D01*
X11761176Y-15690219D01*
X11751652Y-15661648D01*
X11742128Y-15642600D01*
X11723081Y-15614028D01*
X11713557Y-15604505D01*
X4860700Y-15922620D02*
X4860700Y-16122620D01*
X4760700Y-16022620D02*
X4960700Y-16022620D01*
X5208795Y-15932144D02*
X5218319Y-15922620D01*
X5237367Y-15913096D01*
X5284986Y-15913096D01*
X5304033Y-15922620D01*
X5313557Y-15932144D01*
X5323081Y-15951191D01*
X5323081Y-15970239D01*
X5313557Y-15998810D01*
X5199271Y-16113096D01*
X5323081Y-16113096D01*
X5408795Y-16094048D02*
X5418319Y-16103572D01*
X5408795Y-16113096D01*
X5399271Y-16103572D01*
X5408795Y-16094048D01*
X5408795Y-16113096D01*
X5484986Y-15913096D02*
X5618319Y-15913096D01*
X5532605Y-16113096D01*
X5732605Y-15913096D02*
X5751652Y-15913096D01*
X5770700Y-15922620D01*
X5780224Y-15932144D01*
X5789748Y-15951191D01*
X5799271Y-15989287D01*
X5799271Y-16036906D01*
X5789748Y-16075001D01*
X5780224Y-16094048D01*
X5770700Y-16103572D01*
X5751652Y-16113096D01*
X5732605Y-16113096D01*
X5713557Y-16103572D01*
X5704033Y-16094048D01*
X5694509Y-16075001D01*
X5684986Y-16036906D01*
X5684986Y-15989287D01*
X5694509Y-15951191D01*
X5704033Y-15932144D01*
X5713557Y-15922620D01*
X5732605Y-15913096D01*
X5923081Y-15913096D02*
X5942128Y-15913096D01*
X5961176Y-15922620D01*
X5970700Y-15932144D01*
X5980224Y-15951191D01*
X5989748Y-15989287D01*
X5989748Y-16036906D01*
X5980224Y-16075001D01*
X5970700Y-16094048D01*
X5961176Y-16103572D01*
X5942128Y-16113096D01*
X5923081Y-16113096D01*
X5904033Y-16103572D01*
X5894509Y-16094048D01*
X5884986Y-16075001D01*
X5875462Y-16036906D01*
X5875462Y-15989287D01*
X5884986Y-15951191D01*
X5894509Y-15932144D01*
X5904033Y-15922620D01*
X5923081Y-15913096D01*
X6075462Y-16113096D02*
X6075462Y-15979763D01*
X6075462Y-15998810D02*
X6084986Y-15989287D01*
X6104033Y-15979763D01*
X6132605Y-15979763D01*
X6151652Y-15989287D01*
X6161176Y-16008334D01*
X6161176Y-16113096D01*
X6161176Y-16008334D02*
X6170700Y-15989287D01*
X6189748Y-15979763D01*
X6218319Y-15979763D01*
X6237367Y-15989287D01*
X6246890Y-16008334D01*
X6246890Y-16113096D01*
X6342128Y-16113096D02*
X6342128Y-15979763D01*
X6342128Y-15998810D02*
X6351652Y-15989287D01*
X6370700Y-15979763D01*
X6399271Y-15979763D01*
X6418319Y-15989287D01*
X6427843Y-16008334D01*
X6427843Y-16113096D01*
X6427843Y-16008334D02*
X6437367Y-15989287D01*
X6456414Y-15979763D01*
X6484986Y-15979763D01*
X6504033Y-15989287D01*
X6513557Y-16008334D01*
X6513557Y-16113096D01*
X6904033Y-15903572D02*
X6732605Y-16160715D01*
X7161176Y-15913096D02*
X7180224Y-15913096D01*
X7199271Y-15922620D01*
X7208795Y-15932144D01*
X7218319Y-15951191D01*
X7227843Y-15989287D01*
X7227843Y-16036906D01*
X7218319Y-16075001D01*
X7208795Y-16094048D01*
X7199271Y-16103572D01*
X7180224Y-16113096D01*
X7161176Y-16113096D01*
X7142128Y-16103572D01*
X7132605Y-16094048D01*
X7123081Y-16075001D01*
X7113557Y-16036906D01*
X7113557Y-15989287D01*
X7123081Y-15951191D01*
X7132605Y-15932144D01*
X7142128Y-15922620D01*
X7161176Y-15913096D01*
X7313557Y-16094048D02*
X7323081Y-16103572D01*
X7313557Y-16113096D01*
X7304033Y-16103572D01*
X7313557Y-16094048D01*
X7313557Y-16113096D01*
X7513557Y-16113096D02*
X7399271Y-16113096D01*
X7456414Y-16113096D02*
X7456414Y-15913096D01*
X7437367Y-15941668D01*
X7418319Y-15960715D01*
X7399271Y-15970239D01*
X7637367Y-15913096D02*
X7656414Y-15913096D01*
X7675462Y-15922620D01*
X7684986Y-15932144D01*
X7694509Y-15951191D01*
X7704033Y-15989287D01*
X7704033Y-16036906D01*
X7694509Y-16075001D01*
X7684986Y-16094048D01*
X7675462Y-16103572D01*
X7656414Y-16113096D01*
X7637367Y-16113096D01*
X7618319Y-16103572D01*
X7608795Y-16094048D01*
X7599271Y-16075001D01*
X7589748Y-16036906D01*
X7589748Y-15989287D01*
X7599271Y-15951191D01*
X7608795Y-15932144D01*
X7618319Y-15922620D01*
X7637367Y-15913096D01*
X7875462Y-15913096D02*
X7837367Y-15913096D01*
X7818319Y-15922620D01*
X7808795Y-15932144D01*
X7789748Y-15960715D01*
X7780224Y-15998810D01*
X7780224Y-16075001D01*
X7789748Y-16094048D01*
X7799271Y-16103572D01*
X7818319Y-16113096D01*
X7856414Y-16113096D01*
X7875462Y-16103572D01*
X7884986Y-16094048D01*
X7894509Y-16075001D01*
X7894509Y-16027382D01*
X7884986Y-16008334D01*
X7875462Y-15998810D01*
X7856414Y-15989287D01*
X7818319Y-15989287D01*
X7799271Y-15998810D01*
X7789748Y-16008334D01*
X7780224Y-16027382D01*
X7961176Y-15913096D02*
X8084986Y-15913096D01*
X8018319Y-15989287D01*
X8046890Y-15989287D01*
X8065938Y-15998810D01*
X8075462Y-16008334D01*
X8084986Y-16027382D01*
X8084986Y-16075001D01*
X8075462Y-16094048D01*
X8065938Y-16103572D01*
X8046890Y-16113096D01*
X7989748Y-16113096D01*
X7970700Y-16103572D01*
X7961176Y-16094048D01*
X8161176Y-15913096D02*
X8161176Y-15951191D01*
X8237367Y-15913096D02*
X8237367Y-15951191D01*
X8532605Y-16189287D02*
X8523081Y-16179763D01*
X8504033Y-16151191D01*
X8494510Y-16132144D01*
X8484986Y-16103572D01*
X8475462Y-16055953D01*
X8475462Y-16017858D01*
X8484986Y-15970239D01*
X8494510Y-15941668D01*
X8504033Y-15922620D01*
X8523081Y-15894048D01*
X8532605Y-15884525D01*
X8589748Y-15913096D02*
X8723081Y-15913096D01*
X8637367Y-16113096D01*
X8951652Y-16113096D02*
X8951652Y-15913096D01*
X9037367Y-16113096D02*
X9037367Y-16008334D01*
X9027843Y-15989287D01*
X9008795Y-15979763D01*
X8980224Y-15979763D01*
X8961176Y-15989287D01*
X8951652Y-15998810D01*
X9161176Y-16113096D02*
X9142129Y-16103572D01*
X9132605Y-16094048D01*
X9123081Y-16075001D01*
X9123081Y-16017858D01*
X9132605Y-15998810D01*
X9142129Y-15989287D01*
X9161176Y-15979763D01*
X9189748Y-15979763D01*
X9208795Y-15989287D01*
X9218319Y-15998810D01*
X9227843Y-16017858D01*
X9227843Y-16075001D01*
X9218319Y-16094048D01*
X9208795Y-16103572D01*
X9189748Y-16113096D01*
X9161176Y-16113096D01*
X9342129Y-16113096D02*
X9323081Y-16103572D01*
X9313557Y-16084525D01*
X9313557Y-15913096D01*
X9494510Y-16103572D02*
X9475462Y-16113096D01*
X9437367Y-16113096D01*
X9418319Y-16103572D01*
X9408795Y-16084525D01*
X9408795Y-16008334D01*
X9418319Y-15989287D01*
X9437367Y-15979763D01*
X9475462Y-15979763D01*
X9494510Y-15989287D01*
X9504033Y-16008334D01*
X9504033Y-16027382D01*
X9408795Y-16046429D01*
X9580224Y-16103572D02*
X9599271Y-16113096D01*
X9637367Y-16113096D01*
X9656414Y-16103572D01*
X9665938Y-16084525D01*
X9665938Y-16075001D01*
X9656414Y-16055953D01*
X9637367Y-16046429D01*
X9608795Y-16046429D01*
X9589748Y-16036906D01*
X9580224Y-16017858D01*
X9580224Y-16008334D01*
X9589748Y-15989287D01*
X9608795Y-15979763D01*
X9637367Y-15979763D01*
X9656414Y-15989287D01*
X9732605Y-16189287D02*
X9742129Y-16179763D01*
X9761176Y-16151191D01*
X9770700Y-16132144D01*
X9780224Y-16103572D01*
X9789748Y-16055953D01*
X9789748Y-16017858D01*
X9780224Y-15970239D01*
X9770700Y-15941668D01*
X9761176Y-15922620D01*
X9742129Y-15894048D01*
X9732605Y-15884525D01*
X10094510Y-16189287D02*
X10084986Y-16179763D01*
X10065938Y-16151191D01*
X10056414Y-16132144D01*
X10046890Y-16103572D01*
X10037367Y-16055953D01*
X10037367Y-16017858D01*
X10046890Y-15970239D01*
X10056414Y-15941668D01*
X10065938Y-15922620D01*
X10084986Y-15894048D01*
X10094510Y-15884525D01*
X10170700Y-15979763D02*
X10170700Y-16113096D01*
X10170700Y-15998810D02*
X10180224Y-15989287D01*
X10199271Y-15979763D01*
X10227843Y-15979763D01*
X10246890Y-15989287D01*
X10256414Y-16008334D01*
X10256414Y-16113096D01*
X10380224Y-16113096D02*
X10361176Y-16103572D01*
X10351652Y-16094048D01*
X10342129Y-16075001D01*
X10342129Y-16017858D01*
X10351652Y-15998810D01*
X10361176Y-15989287D01*
X10380224Y-15979763D01*
X10408795Y-15979763D01*
X10427843Y-15989287D01*
X10437367Y-15998810D01*
X10446890Y-16017858D01*
X10446890Y-16075001D01*
X10437367Y-16094048D01*
X10427843Y-16103572D01*
X10408795Y-16113096D01*
X10380224Y-16113096D01*
X10504033Y-15979763D02*
X10580224Y-15979763D01*
X10532605Y-15913096D02*
X10532605Y-16084525D01*
X10542129Y-16103572D01*
X10561176Y-16113096D01*
X10580224Y-16113096D01*
X10799271Y-15979763D02*
X10799271Y-16179763D01*
X10799271Y-15989287D02*
X10818319Y-15979763D01*
X10856414Y-15979763D01*
X10875462Y-15989287D01*
X10884986Y-15998810D01*
X10894510Y-16017858D01*
X10894510Y-16075001D01*
X10884986Y-16094048D01*
X10875462Y-16103572D01*
X10856414Y-16113096D01*
X10818319Y-16113096D01*
X10799271Y-16103572D01*
X11008795Y-16113096D02*
X10989748Y-16103572D01*
X10980224Y-16084525D01*
X10980224Y-15913096D01*
X11170700Y-16113096D02*
X11170700Y-16008334D01*
X11161176Y-15989287D01*
X11142129Y-15979763D01*
X11104033Y-15979763D01*
X11084986Y-15989287D01*
X11170700Y-16103572D02*
X11151652Y-16113096D01*
X11104033Y-16113096D01*
X11084986Y-16103572D01*
X11075462Y-16084525D01*
X11075462Y-16065477D01*
X11084986Y-16046429D01*
X11104033Y-16036906D01*
X11151652Y-16036906D01*
X11170700Y-16027382D01*
X11237367Y-15979763D02*
X11313557Y-15979763D01*
X11265938Y-15913096D02*
X11265938Y-16084525D01*
X11275462Y-16103572D01*
X11294509Y-16113096D01*
X11313557Y-16113096D01*
X11456414Y-16103572D02*
X11437367Y-16113096D01*
X11399271Y-16113096D01*
X11380224Y-16103572D01*
X11370700Y-16084525D01*
X11370700Y-16008334D01*
X11380224Y-15989287D01*
X11399271Y-15979763D01*
X11437367Y-15979763D01*
X11456414Y-15989287D01*
X11465938Y-16008334D01*
X11465938Y-16027382D01*
X11370700Y-16046429D01*
X11637367Y-16113096D02*
X11637367Y-15913096D01*
X11637367Y-16103572D02*
X11618319Y-16113096D01*
X11580224Y-16113096D01*
X11561176Y-16103572D01*
X11551652Y-16094048D01*
X11542128Y-16075001D01*
X11542128Y-16017858D01*
X11551652Y-15998810D01*
X11561176Y-15989287D01*
X11580224Y-15979763D01*
X11618319Y-15979763D01*
X11637367Y-15989287D01*
X11713557Y-16189287D02*
X11723081Y-16179763D01*
X11742128Y-16151191D01*
X11751652Y-16132144D01*
X11761176Y-16103572D01*
X11770700Y-16055953D01*
X11770700Y-16017858D01*
X11761176Y-15970239D01*
X11751652Y-15941668D01*
X11742128Y-15922620D01*
X11723081Y-15894048D01*
X11713557Y-15884525D01*
X4931411Y-16413331D02*
X4931411Y-16271909D01*
X4789989Y-16271909D01*
X4789989Y-16413331D01*
X4931411Y-16413331D01*
X5199271Y-16233096D02*
X5323081Y-16233096D01*
X5256414Y-16309287D01*
X5284986Y-16309287D01*
X5304033Y-16318810D01*
X5313557Y-16328334D01*
X5323081Y-16347382D01*
X5323081Y-16395001D01*
X5313557Y-16414048D01*
X5304033Y-16423572D01*
X5284986Y-16433096D01*
X5227843Y-16433096D01*
X5208795Y-16423572D01*
X5199271Y-16414048D01*
X5408795Y-16414048D02*
X5418319Y-16423572D01*
X5408795Y-16433096D01*
X5399271Y-16423572D01*
X5408795Y-16414048D01*
X5408795Y-16433096D01*
X5494510Y-16252144D02*
X5504033Y-16242620D01*
X5523081Y-16233096D01*
X5570700Y-16233096D01*
X5589748Y-16242620D01*
X5599271Y-16252144D01*
X5608795Y-16271191D01*
X5608795Y-16290239D01*
X5599271Y-16318810D01*
X5484986Y-16433096D01*
X5608795Y-16433096D01*
X5732605Y-16233096D02*
X5751652Y-16233096D01*
X5770700Y-16242620D01*
X5780224Y-16252144D01*
X5789748Y-16271191D01*
X5799271Y-16309287D01*
X5799271Y-16356906D01*
X5789748Y-16395001D01*
X5780224Y-16414048D01*
X5770700Y-16423572D01*
X5751652Y-16433096D01*
X5732605Y-16433096D01*
X5713557Y-16423572D01*
X5704033Y-16414048D01*
X5694509Y-16395001D01*
X5684986Y-16356906D01*
X5684986Y-16309287D01*
X5694509Y-16271191D01*
X5704033Y-16252144D01*
X5713557Y-16242620D01*
X5732605Y-16233096D01*
X5923081Y-16233096D02*
X5942128Y-16233096D01*
X5961176Y-16242620D01*
X5970700Y-16252144D01*
X5980224Y-16271191D01*
X5989748Y-16309287D01*
X5989748Y-16356906D01*
X5980224Y-16395001D01*
X5970700Y-16414048D01*
X5961176Y-16423572D01*
X5942128Y-16433096D01*
X5923081Y-16433096D01*
X5904033Y-16423572D01*
X5894509Y-16414048D01*
X5884986Y-16395001D01*
X5875462Y-16356906D01*
X5875462Y-16309287D01*
X5884986Y-16271191D01*
X5894509Y-16252144D01*
X5904033Y-16242620D01*
X5923081Y-16233096D01*
X6075462Y-16433096D02*
X6075462Y-16299763D01*
X6075462Y-16318810D02*
X6084986Y-16309287D01*
X6104033Y-16299763D01*
X6132605Y-16299763D01*
X6151652Y-16309287D01*
X6161176Y-16328334D01*
X6161176Y-16433096D01*
X6161176Y-16328334D02*
X6170700Y-16309287D01*
X6189748Y-16299763D01*
X6218319Y-16299763D01*
X6237367Y-16309287D01*
X6246890Y-16328334D01*
X6246890Y-16433096D01*
X6342128Y-16433096D02*
X6342128Y-16299763D01*
X6342128Y-16318810D02*
X6351652Y-16309287D01*
X6370700Y-16299763D01*
X6399271Y-16299763D01*
X6418319Y-16309287D01*
X6427843Y-16328334D01*
X6427843Y-16433096D01*
X6427843Y-16328334D02*
X6437367Y-16309287D01*
X6456414Y-16299763D01*
X6484986Y-16299763D01*
X6504033Y-16309287D01*
X6513557Y-16328334D01*
X6513557Y-16433096D01*
X6904033Y-16223572D02*
X6732605Y-16480715D01*
X7161176Y-16233096D02*
X7180224Y-16233096D01*
X7199271Y-16242620D01*
X7208795Y-16252144D01*
X7218319Y-16271191D01*
X7227843Y-16309287D01*
X7227843Y-16356906D01*
X7218319Y-16395001D01*
X7208795Y-16414048D01*
X7199271Y-16423572D01*
X7180224Y-16433096D01*
X7161176Y-16433096D01*
X7142128Y-16423572D01*
X7132605Y-16414048D01*
X7123081Y-16395001D01*
X7113557Y-16356906D01*
X7113557Y-16309287D01*
X7123081Y-16271191D01*
X7132605Y-16252144D01*
X7142128Y-16242620D01*
X7161176Y-16233096D01*
X7313557Y-16414048D02*
X7323081Y-16423572D01*
X7313557Y-16433096D01*
X7304033Y-16423572D01*
X7313557Y-16414048D01*
X7313557Y-16433096D01*
X7513557Y-16433096D02*
X7399271Y-16433096D01*
X7456414Y-16433096D02*
X7456414Y-16233096D01*
X7437367Y-16261668D01*
X7418319Y-16280715D01*
X7399271Y-16290239D01*
X7589748Y-16252144D02*
X7599271Y-16242620D01*
X7618319Y-16233096D01*
X7665938Y-16233096D01*
X7684986Y-16242620D01*
X7694509Y-16252144D01*
X7704033Y-16271191D01*
X7704033Y-16290239D01*
X7694509Y-16318810D01*
X7580224Y-16433096D01*
X7704033Y-16433096D01*
X7875462Y-16233096D02*
X7837367Y-16233096D01*
X7818319Y-16242620D01*
X7808795Y-16252144D01*
X7789748Y-16280715D01*
X7780224Y-16318810D01*
X7780224Y-16395001D01*
X7789748Y-16414048D01*
X7799271Y-16423572D01*
X7818319Y-16433096D01*
X7856414Y-16433096D01*
X7875462Y-16423572D01*
X7884986Y-16414048D01*
X7894509Y-16395001D01*
X7894509Y-16347382D01*
X7884986Y-16328334D01*
X7875462Y-16318810D01*
X7856414Y-16309287D01*
X7818319Y-16309287D01*
X7799271Y-16318810D01*
X7789748Y-16328334D01*
X7780224Y-16347382D01*
X8018319Y-16233096D02*
X8037367Y-16233096D01*
X8056414Y-16242620D01*
X8065938Y-16252144D01*
X8075462Y-16271191D01*
X8084986Y-16309287D01*
X8084986Y-16356906D01*
X8075462Y-16395001D01*
X8065938Y-16414048D01*
X8056414Y-16423572D01*
X8037367Y-16433096D01*
X8018319Y-16433096D01*
X7999271Y-16423572D01*
X7989748Y-16414048D01*
X7980224Y-16395001D01*
X7970700Y-16356906D01*
X7970700Y-16309287D01*
X7980224Y-16271191D01*
X7989748Y-16252144D01*
X7999271Y-16242620D01*
X8018319Y-16233096D01*
X8161176Y-16233096D02*
X8161176Y-16271191D01*
X8237367Y-16233096D02*
X8237367Y-16271191D01*
X8532605Y-16509287D02*
X8523081Y-16499763D01*
X8504033Y-16471191D01*
X8494510Y-16452144D01*
X8484986Y-16423572D01*
X8475462Y-16375953D01*
X8475462Y-16337858D01*
X8484986Y-16290239D01*
X8494510Y-16261668D01*
X8504033Y-16242620D01*
X8523081Y-16214048D01*
X8532605Y-16204525D01*
X8599271Y-16252144D02*
X8608795Y-16242620D01*
X8627843Y-16233096D01*
X8675462Y-16233096D01*
X8694510Y-16242620D01*
X8704033Y-16252144D01*
X8713557Y-16271191D01*
X8713557Y-16290239D01*
X8704033Y-16318810D01*
X8589748Y-16433096D01*
X8713557Y-16433096D01*
X8951652Y-16433096D02*
X8951652Y-16233096D01*
X9037367Y-16433096D02*
X9037367Y-16328334D01*
X9027843Y-16309287D01*
X9008795Y-16299763D01*
X8980224Y-16299763D01*
X8961176Y-16309287D01*
X8951652Y-16318810D01*
X9161176Y-16433096D02*
X9142129Y-16423572D01*
X9132605Y-16414048D01*
X9123081Y-16395001D01*
X9123081Y-16337858D01*
X9132605Y-16318810D01*
X9142129Y-16309287D01*
X9161176Y-16299763D01*
X9189748Y-16299763D01*
X9208795Y-16309287D01*
X9218319Y-16318810D01*
X9227843Y-16337858D01*
X9227843Y-16395001D01*
X9218319Y-16414048D01*
X9208795Y-16423572D01*
X9189748Y-16433096D01*
X9161176Y-16433096D01*
X9342129Y-16433096D02*
X9323081Y-16423572D01*
X9313557Y-16404525D01*
X9313557Y-16233096D01*
X9494510Y-16423572D02*
X9475462Y-16433096D01*
X9437367Y-16433096D01*
X9418319Y-16423572D01*
X9408795Y-16404525D01*
X9408795Y-16328334D01*
X9418319Y-16309287D01*
X9437367Y-16299763D01*
X9475462Y-16299763D01*
X9494510Y-16309287D01*
X9504033Y-16328334D01*
X9504033Y-16347382D01*
X9408795Y-16366429D01*
X9580224Y-16423572D02*
X9599271Y-16433096D01*
X9637367Y-16433096D01*
X9656414Y-16423572D01*
X9665938Y-16404525D01*
X9665938Y-16395001D01*
X9656414Y-16375953D01*
X9637367Y-16366429D01*
X9608795Y-16366429D01*
X9589748Y-16356906D01*
X9580224Y-16337858D01*
X9580224Y-16328334D01*
X9589748Y-16309287D01*
X9608795Y-16299763D01*
X9637367Y-16299763D01*
X9656414Y-16309287D01*
X9732605Y-16509287D02*
X9742129Y-16499763D01*
X9761176Y-16471191D01*
X9770700Y-16452144D01*
X9780224Y-16423572D01*
X9789748Y-16375953D01*
X9789748Y-16337858D01*
X9780224Y-16290239D01*
X9770700Y-16261668D01*
X9761176Y-16242620D01*
X9742129Y-16214048D01*
X9732605Y-16204525D01*
X10094510Y-16509287D02*
X10084986Y-16499763D01*
X10065938Y-16471191D01*
X10056414Y-16452144D01*
X10046890Y-16423572D01*
X10037367Y-16375953D01*
X10037367Y-16337858D01*
X10046890Y-16290239D01*
X10056414Y-16261668D01*
X10065938Y-16242620D01*
X10084986Y-16214048D01*
X10094510Y-16204525D01*
X10170700Y-16299763D02*
X10170700Y-16433096D01*
X10170700Y-16318810D02*
X10180224Y-16309287D01*
X10199271Y-16299763D01*
X10227843Y-16299763D01*
X10246890Y-16309287D01*
X10256414Y-16328334D01*
X10256414Y-16433096D01*
X10380224Y-16433096D02*
X10361176Y-16423572D01*
X10351652Y-16414048D01*
X10342129Y-16395001D01*
X10342129Y-16337858D01*
X10351652Y-16318810D01*
X10361176Y-16309287D01*
X10380224Y-16299763D01*
X10408795Y-16299763D01*
X10427843Y-16309287D01*
X10437367Y-16318810D01*
X10446890Y-16337858D01*
X10446890Y-16395001D01*
X10437367Y-16414048D01*
X10427843Y-16423572D01*
X10408795Y-16433096D01*
X10380224Y-16433096D01*
X10504033Y-16299763D02*
X10580224Y-16299763D01*
X10532605Y-16233096D02*
X10532605Y-16404525D01*
X10542129Y-16423572D01*
X10561176Y-16433096D01*
X10580224Y-16433096D01*
X10799271Y-16299763D02*
X10799271Y-16499763D01*
X10799271Y-16309287D02*
X10818319Y-16299763D01*
X10856414Y-16299763D01*
X10875462Y-16309287D01*
X10884986Y-16318810D01*
X10894510Y-16337858D01*
X10894510Y-16395001D01*
X10884986Y-16414048D01*
X10875462Y-16423572D01*
X10856414Y-16433096D01*
X10818319Y-16433096D01*
X10799271Y-16423572D01*
X11008795Y-16433096D02*
X10989748Y-16423572D01*
X10980224Y-16404525D01*
X10980224Y-16233096D01*
X11170700Y-16433096D02*
X11170700Y-16328334D01*
X11161176Y-16309287D01*
X11142129Y-16299763D01*
X11104033Y-16299763D01*
X11084986Y-16309287D01*
X11170700Y-16423572D02*
X11151652Y-16433096D01*
X11104033Y-16433096D01*
X11084986Y-16423572D01*
X11075462Y-16404525D01*
X11075462Y-16385477D01*
X11084986Y-16366429D01*
X11104033Y-16356906D01*
X11151652Y-16356906D01*
X11170700Y-16347382D01*
X11237367Y-16299763D02*
X11313557Y-16299763D01*
X11265938Y-16233096D02*
X11265938Y-16404525D01*
X11275462Y-16423572D01*
X11294509Y-16433096D01*
X11313557Y-16433096D01*
X11456414Y-16423572D02*
X11437367Y-16433096D01*
X11399271Y-16433096D01*
X11380224Y-16423572D01*
X11370700Y-16404525D01*
X11370700Y-16328334D01*
X11380224Y-16309287D01*
X11399271Y-16299763D01*
X11437367Y-16299763D01*
X11456414Y-16309287D01*
X11465938Y-16328334D01*
X11465938Y-16347382D01*
X11370700Y-16366429D01*
X11637367Y-16433096D02*
X11637367Y-16233096D01*
X11637367Y-16423572D02*
X11618319Y-16433096D01*
X11580224Y-16433096D01*
X11561176Y-16423572D01*
X11551652Y-16414048D01*
X11542128Y-16395001D01*
X11542128Y-16337858D01*
X11551652Y-16318810D01*
X11561176Y-16309287D01*
X11580224Y-16299763D01*
X11618319Y-16299763D01*
X11637367Y-16309287D01*
X11713557Y-16509287D02*
X11723081Y-16499763D01*
X11742128Y-16471191D01*
X11751652Y-16452144D01*
X11761176Y-16423572D01*
X11770700Y-16375953D01*
X11770700Y-16337858D01*
X11761176Y-16290239D01*
X11751652Y-16261668D01*
X11742128Y-16242620D01*
X11723081Y-16214048D01*
X11713557Y-16204525D01*
X4860700Y-16762620D02*
X4960700Y-16662620D01*
X4860700Y-16562620D01*
X4760700Y-16662620D01*
X4860700Y-16762620D01*
X5199271Y-16553096D02*
X5323081Y-16553096D01*
X5256414Y-16629287D01*
X5284986Y-16629287D01*
X5304033Y-16638810D01*
X5313557Y-16648334D01*
X5323081Y-16667382D01*
X5323081Y-16715001D01*
X5313557Y-16734048D01*
X5304033Y-16743572D01*
X5284986Y-16753096D01*
X5227843Y-16753096D01*
X5208795Y-16743572D01*
X5199271Y-16734048D01*
X5408795Y-16734048D02*
X5418319Y-16743572D01*
X5408795Y-16753096D01*
X5399271Y-16743572D01*
X5408795Y-16734048D01*
X5408795Y-16753096D01*
X5599271Y-16553096D02*
X5504033Y-16553096D01*
X5494510Y-16648334D01*
X5504033Y-16638810D01*
X5523081Y-16629287D01*
X5570700Y-16629287D01*
X5589748Y-16638810D01*
X5599271Y-16648334D01*
X5608795Y-16667382D01*
X5608795Y-16715001D01*
X5599271Y-16734048D01*
X5589748Y-16743572D01*
X5570700Y-16753096D01*
X5523081Y-16753096D01*
X5504033Y-16743572D01*
X5494510Y-16734048D01*
X5732605Y-16553096D02*
X5751652Y-16553096D01*
X5770700Y-16562620D01*
X5780224Y-16572144D01*
X5789748Y-16591191D01*
X5799271Y-16629287D01*
X5799271Y-16676906D01*
X5789748Y-16715001D01*
X5780224Y-16734048D01*
X5770700Y-16743572D01*
X5751652Y-16753096D01*
X5732605Y-16753096D01*
X5713557Y-16743572D01*
X5704033Y-16734048D01*
X5694509Y-16715001D01*
X5684986Y-16676906D01*
X5684986Y-16629287D01*
X5694509Y-16591191D01*
X5704033Y-16572144D01*
X5713557Y-16562620D01*
X5732605Y-16553096D01*
X5923081Y-16553096D02*
X5942128Y-16553096D01*
X5961176Y-16562620D01*
X5970700Y-16572144D01*
X5980224Y-16591191D01*
X5989748Y-16629287D01*
X5989748Y-16676906D01*
X5980224Y-16715001D01*
X5970700Y-16734048D01*
X5961176Y-16743572D01*
X5942128Y-16753096D01*
X5923081Y-16753096D01*
X5904033Y-16743572D01*
X5894509Y-16734048D01*
X5884986Y-16715001D01*
X5875462Y-16676906D01*
X5875462Y-16629287D01*
X5884986Y-16591191D01*
X5894509Y-16572144D01*
X5904033Y-16562620D01*
X5923081Y-16553096D01*
X6075462Y-16753096D02*
X6075462Y-16619763D01*
X6075462Y-16638810D02*
X6084986Y-16629287D01*
X6104033Y-16619763D01*
X6132605Y-16619763D01*
X6151652Y-16629287D01*
X6161176Y-16648334D01*
X6161176Y-16753096D01*
X6161176Y-16648334D02*
X6170700Y-16629287D01*
X6189748Y-16619763D01*
X6218319Y-16619763D01*
X6237367Y-16629287D01*
X6246890Y-16648334D01*
X6246890Y-16753096D01*
X6342128Y-16753096D02*
X6342128Y-16619763D01*
X6342128Y-16638810D02*
X6351652Y-16629287D01*
X6370700Y-16619763D01*
X6399271Y-16619763D01*
X6418319Y-16629287D01*
X6427843Y-16648334D01*
X6427843Y-16753096D01*
X6427843Y-16648334D02*
X6437367Y-16629287D01*
X6456414Y-16619763D01*
X6484986Y-16619763D01*
X6504033Y-16629287D01*
X6513557Y-16648334D01*
X6513557Y-16753096D01*
X6904033Y-16543572D02*
X6732605Y-16800715D01*
X7161176Y-16553096D02*
X7180224Y-16553096D01*
X7199271Y-16562620D01*
X7208795Y-16572144D01*
X7218319Y-16591191D01*
X7227843Y-16629287D01*
X7227843Y-16676906D01*
X7218319Y-16715001D01*
X7208795Y-16734048D01*
X7199271Y-16743572D01*
X7180224Y-16753096D01*
X7161176Y-16753096D01*
X7142128Y-16743572D01*
X7132605Y-16734048D01*
X7123081Y-16715001D01*
X7113557Y-16676906D01*
X7113557Y-16629287D01*
X7123081Y-16591191D01*
X7132605Y-16572144D01*
X7142128Y-16562620D01*
X7161176Y-16553096D01*
X7313557Y-16734048D02*
X7323081Y-16743572D01*
X7313557Y-16753096D01*
X7304033Y-16743572D01*
X7313557Y-16734048D01*
X7313557Y-16753096D01*
X7513557Y-16753096D02*
X7399271Y-16753096D01*
X7456414Y-16753096D02*
X7456414Y-16553096D01*
X7437367Y-16581668D01*
X7418319Y-16600715D01*
X7399271Y-16610239D01*
X7580224Y-16553096D02*
X7704033Y-16553096D01*
X7637367Y-16629287D01*
X7665938Y-16629287D01*
X7684986Y-16638810D01*
X7694509Y-16648334D01*
X7704033Y-16667382D01*
X7704033Y-16715001D01*
X7694509Y-16734048D01*
X7684986Y-16743572D01*
X7665938Y-16753096D01*
X7608795Y-16753096D01*
X7589748Y-16743572D01*
X7580224Y-16734048D01*
X7770700Y-16553096D02*
X7904033Y-16553096D01*
X7818319Y-16753096D01*
X8008795Y-16638810D02*
X7989748Y-16629287D01*
X7980224Y-16619763D01*
X7970700Y-16600715D01*
X7970700Y-16591191D01*
X7980224Y-16572144D01*
X7989748Y-16562620D01*
X8008795Y-16553096D01*
X8046890Y-16553096D01*
X8065938Y-16562620D01*
X8075462Y-16572144D01*
X8084986Y-16591191D01*
X8084986Y-16600715D01*
X8075462Y-16619763D01*
X8065938Y-16629287D01*
X8046890Y-16638810D01*
X8008795Y-16638810D01*
X7989748Y-16648334D01*
X7980224Y-16657858D01*
X7970700Y-16676906D01*
X7970700Y-16715001D01*
X7980224Y-16734048D01*
X7989748Y-16743572D01*
X8008795Y-16753096D01*
X8046890Y-16753096D01*
X8065938Y-16743572D01*
X8075462Y-16734048D01*
X8084986Y-16715001D01*
X8084986Y-16676906D01*
X8075462Y-16657858D01*
X8065938Y-16648334D01*
X8046890Y-16638810D01*
X8161176Y-16553096D02*
X8161176Y-16591191D01*
X8237367Y-16553096D02*
X8237367Y-16591191D01*
X8532605Y-16829287D02*
X8523081Y-16819763D01*
X8504033Y-16791191D01*
X8494510Y-16772144D01*
X8484986Y-16743572D01*
X8475462Y-16695953D01*
X8475462Y-16657858D01*
X8484986Y-16610239D01*
X8494510Y-16581668D01*
X8504033Y-16562620D01*
X8523081Y-16534048D01*
X8532605Y-16524525D01*
X8713557Y-16753096D02*
X8599271Y-16753096D01*
X8656414Y-16753096D02*
X8656414Y-16553096D01*
X8637367Y-16581668D01*
X8618319Y-16600715D01*
X8599271Y-16610239D01*
X8951652Y-16753096D02*
X8951652Y-16553096D01*
X9037367Y-16753096D02*
X9037367Y-16648334D01*
X9027843Y-16629287D01*
X9008795Y-16619763D01*
X8980224Y-16619763D01*
X8961176Y-16629287D01*
X8951652Y-16638810D01*
X9161176Y-16753096D02*
X9142129Y-16743572D01*
X9132605Y-16734048D01*
X9123081Y-16715001D01*
X9123081Y-16657858D01*
X9132605Y-16638810D01*
X9142129Y-16629287D01*
X9161176Y-16619763D01*
X9189748Y-16619763D01*
X9208795Y-16629287D01*
X9218319Y-16638810D01*
X9227843Y-16657858D01*
X9227843Y-16715001D01*
X9218319Y-16734048D01*
X9208795Y-16743572D01*
X9189748Y-16753096D01*
X9161176Y-16753096D01*
X9342129Y-16753096D02*
X9323081Y-16743572D01*
X9313557Y-16724525D01*
X9313557Y-16553096D01*
X9494510Y-16743572D02*
X9475462Y-16753096D01*
X9437367Y-16753096D01*
X9418319Y-16743572D01*
X9408795Y-16724525D01*
X9408795Y-16648334D01*
X9418319Y-16629287D01*
X9437367Y-16619763D01*
X9475462Y-16619763D01*
X9494510Y-16629287D01*
X9504033Y-16648334D01*
X9504033Y-16667382D01*
X9408795Y-16686429D01*
X9570700Y-16829287D02*
X9580224Y-16819763D01*
X9599271Y-16791191D01*
X9608795Y-16772144D01*
X9618319Y-16743572D01*
X9627843Y-16695953D01*
X9627843Y-16657858D01*
X9618319Y-16610239D01*
X9608795Y-16581668D01*
X9599271Y-16562620D01*
X9580224Y-16534048D01*
X9570700Y-16524525D01*
X9932605Y-16829287D02*
X9923081Y-16819763D01*
X9904033Y-16791191D01*
X9894510Y-16772144D01*
X9884986Y-16743572D01*
X9875462Y-16695953D01*
X9875462Y-16657858D01*
X9884986Y-16610239D01*
X9894510Y-16581668D01*
X9904033Y-16562620D01*
X9923081Y-16534048D01*
X9932605Y-16524525D01*
X10008795Y-16619763D02*
X10008795Y-16753096D01*
X10008795Y-16638810D02*
X10018319Y-16629287D01*
X10037367Y-16619763D01*
X10065938Y-16619763D01*
X10084986Y-16629287D01*
X10094510Y-16648334D01*
X10094510Y-16753096D01*
X10218319Y-16753096D02*
X10199271Y-16743572D01*
X10189748Y-16734048D01*
X10180224Y-16715001D01*
X10180224Y-16657858D01*
X10189748Y-16638810D01*
X10199271Y-16629287D01*
X10218319Y-16619763D01*
X10246890Y-16619763D01*
X10265938Y-16629287D01*
X10275462Y-16638810D01*
X10284986Y-16657858D01*
X10284986Y-16715001D01*
X10275462Y-16734048D01*
X10265938Y-16743572D01*
X10246890Y-16753096D01*
X10218319Y-16753096D01*
X10342129Y-16619763D02*
X10418319Y-16619763D01*
X10370700Y-16553096D02*
X10370700Y-16724525D01*
X10380224Y-16743572D01*
X10399271Y-16753096D01*
X10418319Y-16753096D01*
X10637367Y-16619763D02*
X10637367Y-16819763D01*
X10637367Y-16629287D02*
X10656414Y-16619763D01*
X10694510Y-16619763D01*
X10713557Y-16629287D01*
X10723081Y-16638810D01*
X10732605Y-16657858D01*
X10732605Y-16715001D01*
X10723081Y-16734048D01*
X10713557Y-16743572D01*
X10694510Y-16753096D01*
X10656414Y-16753096D01*
X10637367Y-16743572D01*
X10846890Y-16753096D02*
X10827843Y-16743572D01*
X10818319Y-16724525D01*
X10818319Y-16553096D01*
X11008795Y-16753096D02*
X11008795Y-16648334D01*
X10999271Y-16629287D01*
X10980224Y-16619763D01*
X10942129Y-16619763D01*
X10923081Y-16629287D01*
X11008795Y-16743572D02*
X10989748Y-16753096D01*
X10942129Y-16753096D01*
X10923081Y-16743572D01*
X10913557Y-16724525D01*
X10913557Y-16705477D01*
X10923081Y-16686429D01*
X10942129Y-16676906D01*
X10989748Y-16676906D01*
X11008795Y-16667382D01*
X11075462Y-16619763D02*
X11151652Y-16619763D01*
X11104033Y-16553096D02*
X11104033Y-16724525D01*
X11113557Y-16743572D01*
X11132605Y-16753096D01*
X11151652Y-16753096D01*
X11294509Y-16743572D02*
X11275462Y-16753096D01*
X11237367Y-16753096D01*
X11218319Y-16743572D01*
X11208795Y-16724525D01*
X11208795Y-16648334D01*
X11218319Y-16629287D01*
X11237367Y-16619763D01*
X11275462Y-16619763D01*
X11294509Y-16629287D01*
X11304033Y-16648334D01*
X11304033Y-16667382D01*
X11208795Y-16686429D01*
X11475462Y-16753096D02*
X11475462Y-16553096D01*
X11475462Y-16743572D02*
X11456414Y-16753096D01*
X11418319Y-16753096D01*
X11399271Y-16743572D01*
X11389748Y-16734048D01*
X11380224Y-16715001D01*
X11380224Y-16657858D01*
X11389748Y-16638810D01*
X11399271Y-16629287D01*
X11418319Y-16619763D01*
X11456414Y-16619763D01*
X11475462Y-16629287D01*
X11551652Y-16829287D02*
X11561176Y-16819763D01*
X11580224Y-16791191D01*
X11589748Y-16772144D01*
X11599271Y-16743572D01*
X11608795Y-16695953D01*
X11608795Y-16657858D01*
X11599271Y-16610239D01*
X11589748Y-16581668D01*
X11580224Y-16562620D01*
X11561176Y-16534048D01*
X11551652Y-16524525D01*
M02*
