%TF.GenerationSoftware,KiCad,Pcbnew,7.0.2-0*%
%TF.CreationDate,2023-05-05T14:14:21-04:00*%
%TF.ProjectId,SATS,53415453-2e6b-4696-9361-645f70636258,rev?*%
%TF.SameCoordinates,Original*%
%TF.FileFunction,Legend,Bot*%
%TF.FilePolarity,Positive*%
%FSLAX46Y46*%
G04 Gerber Fmt 4.6, Leading zero omitted, Abs format (unit mm)*
G04 Created by KiCad (PCBNEW 7.0.2-0) date 2023-05-05 14:14:21*
%MOMM*%
%LPD*%
G01*
G04 APERTURE LIST*
%ADD10C,0.200000*%
%ADD11C,0.150000*%
%ADD12C,0.120000*%
G04 APERTURE END LIST*
D10*
X55540114Y-81050219D02*
X55540114Y-81764504D01*
X55540114Y-81764504D02*
X55587733Y-81907361D01*
X55587733Y-81907361D02*
X55682971Y-82002600D01*
X55682971Y-82002600D02*
X55825828Y-82050219D01*
X55825828Y-82050219D02*
X55921066Y-82050219D01*
X55111542Y-81764504D02*
X54635352Y-81764504D01*
X55206780Y-82050219D02*
X54873447Y-81050219D01*
X54873447Y-81050219D02*
X54540114Y-82050219D01*
X53635352Y-81954980D02*
X53682971Y-82002600D01*
X53682971Y-82002600D02*
X53825828Y-82050219D01*
X53825828Y-82050219D02*
X53921066Y-82050219D01*
X53921066Y-82050219D02*
X54063923Y-82002600D01*
X54063923Y-82002600D02*
X54159161Y-81907361D01*
X54159161Y-81907361D02*
X54206780Y-81812123D01*
X54206780Y-81812123D02*
X54254399Y-81621647D01*
X54254399Y-81621647D02*
X54254399Y-81478790D01*
X54254399Y-81478790D02*
X54206780Y-81288314D01*
X54206780Y-81288314D02*
X54159161Y-81193076D01*
X54159161Y-81193076D02*
X54063923Y-81097838D01*
X54063923Y-81097838D02*
X53921066Y-81050219D01*
X53921066Y-81050219D02*
X53825828Y-81050219D01*
X53825828Y-81050219D02*
X53682971Y-81097838D01*
X53682971Y-81097838D02*
X53635352Y-81145457D01*
X53206780Y-82050219D02*
X53206780Y-81050219D01*
X52635352Y-82050219D02*
X53063923Y-81478790D01*
X52635352Y-81050219D02*
X53206780Y-81621647D01*
X53968685Y-83670219D02*
X54540113Y-83670219D01*
X54254399Y-83670219D02*
X54254399Y-82670219D01*
X54254399Y-82670219D02*
X54349637Y-82813076D01*
X54349637Y-82813076D02*
X54444875Y-82908314D01*
X54444875Y-82908314D02*
X54540113Y-82955933D01*
X132873714Y-113968952D02*
X132873714Y-114635619D01*
X133111809Y-113588000D02*
X133349904Y-114302285D01*
X133349904Y-114302285D02*
X132730857Y-114302285D01*
X132159428Y-113635619D02*
X132064190Y-113635619D01*
X132064190Y-113635619D02*
X131968952Y-113683238D01*
X131968952Y-113683238D02*
X131921333Y-113730857D01*
X131921333Y-113730857D02*
X131873714Y-113826095D01*
X131873714Y-113826095D02*
X131826095Y-114016571D01*
X131826095Y-114016571D02*
X131826095Y-114254666D01*
X131826095Y-114254666D02*
X131873714Y-114445142D01*
X131873714Y-114445142D02*
X131921333Y-114540380D01*
X131921333Y-114540380D02*
X131968952Y-114588000D01*
X131968952Y-114588000D02*
X132064190Y-114635619D01*
X132064190Y-114635619D02*
X132159428Y-114635619D01*
X132159428Y-114635619D02*
X132254666Y-114588000D01*
X132254666Y-114588000D02*
X132302285Y-114540380D01*
X132302285Y-114540380D02*
X132349904Y-114445142D01*
X132349904Y-114445142D02*
X132397523Y-114254666D01*
X132397523Y-114254666D02*
X132397523Y-114016571D01*
X132397523Y-114016571D02*
X132349904Y-113826095D01*
X132349904Y-113826095D02*
X132302285Y-113730857D01*
X132302285Y-113730857D02*
X132254666Y-113683238D01*
X132254666Y-113683238D02*
X132159428Y-113635619D01*
X55616314Y-108761619D02*
X55616314Y-109475904D01*
X55616314Y-109475904D02*
X55663933Y-109618761D01*
X55663933Y-109618761D02*
X55759171Y-109714000D01*
X55759171Y-109714000D02*
X55902028Y-109761619D01*
X55902028Y-109761619D02*
X55997266Y-109761619D01*
X55187742Y-109475904D02*
X54711552Y-109475904D01*
X55282980Y-109761619D02*
X54949647Y-108761619D01*
X54949647Y-108761619D02*
X54616314Y-109761619D01*
X53711552Y-109666380D02*
X53759171Y-109714000D01*
X53759171Y-109714000D02*
X53902028Y-109761619D01*
X53902028Y-109761619D02*
X53997266Y-109761619D01*
X53997266Y-109761619D02*
X54140123Y-109714000D01*
X54140123Y-109714000D02*
X54235361Y-109618761D01*
X54235361Y-109618761D02*
X54282980Y-109523523D01*
X54282980Y-109523523D02*
X54330599Y-109333047D01*
X54330599Y-109333047D02*
X54330599Y-109190190D01*
X54330599Y-109190190D02*
X54282980Y-108999714D01*
X54282980Y-108999714D02*
X54235361Y-108904476D01*
X54235361Y-108904476D02*
X54140123Y-108809238D01*
X54140123Y-108809238D02*
X53997266Y-108761619D01*
X53997266Y-108761619D02*
X53902028Y-108761619D01*
X53902028Y-108761619D02*
X53759171Y-108809238D01*
X53759171Y-108809238D02*
X53711552Y-108856857D01*
X53282980Y-109761619D02*
X53282980Y-108761619D01*
X52711552Y-109761619D02*
X53140123Y-109190190D01*
X52711552Y-108761619D02*
X53282980Y-109333047D01*
X54663932Y-110381619D02*
X54044885Y-110381619D01*
X54044885Y-110381619D02*
X54378218Y-110762571D01*
X54378218Y-110762571D02*
X54235361Y-110762571D01*
X54235361Y-110762571D02*
X54140123Y-110810190D01*
X54140123Y-110810190D02*
X54092504Y-110857809D01*
X54092504Y-110857809D02*
X54044885Y-110953047D01*
X54044885Y-110953047D02*
X54044885Y-111191142D01*
X54044885Y-111191142D02*
X54092504Y-111286380D01*
X54092504Y-111286380D02*
X54140123Y-111334000D01*
X54140123Y-111334000D02*
X54235361Y-111381619D01*
X54235361Y-111381619D02*
X54521075Y-111381619D01*
X54521075Y-111381619D02*
X54616313Y-111334000D01*
X54616313Y-111334000D02*
X54663932Y-111286380D01*
X55565514Y-94690019D02*
X55565514Y-95404304D01*
X55565514Y-95404304D02*
X55613133Y-95547161D01*
X55613133Y-95547161D02*
X55708371Y-95642400D01*
X55708371Y-95642400D02*
X55851228Y-95690019D01*
X55851228Y-95690019D02*
X55946466Y-95690019D01*
X55136942Y-95404304D02*
X54660752Y-95404304D01*
X55232180Y-95690019D02*
X54898847Y-94690019D01*
X54898847Y-94690019D02*
X54565514Y-95690019D01*
X53660752Y-95594780D02*
X53708371Y-95642400D01*
X53708371Y-95642400D02*
X53851228Y-95690019D01*
X53851228Y-95690019D02*
X53946466Y-95690019D01*
X53946466Y-95690019D02*
X54089323Y-95642400D01*
X54089323Y-95642400D02*
X54184561Y-95547161D01*
X54184561Y-95547161D02*
X54232180Y-95451923D01*
X54232180Y-95451923D02*
X54279799Y-95261447D01*
X54279799Y-95261447D02*
X54279799Y-95118590D01*
X54279799Y-95118590D02*
X54232180Y-94928114D01*
X54232180Y-94928114D02*
X54184561Y-94832876D01*
X54184561Y-94832876D02*
X54089323Y-94737638D01*
X54089323Y-94737638D02*
X53946466Y-94690019D01*
X53946466Y-94690019D02*
X53851228Y-94690019D01*
X53851228Y-94690019D02*
X53708371Y-94737638D01*
X53708371Y-94737638D02*
X53660752Y-94785257D01*
X53232180Y-95690019D02*
X53232180Y-94690019D01*
X52660752Y-95690019D02*
X53089323Y-95118590D01*
X52660752Y-94690019D02*
X53232180Y-95261447D01*
X54089323Y-96643352D02*
X54089323Y-97310019D01*
X54327418Y-96262400D02*
X54565513Y-96976685D01*
X54565513Y-96976685D02*
X53946466Y-96976685D01*
X58829104Y-140442019D02*
X59400532Y-140442019D01*
X59114818Y-140442019D02*
X59114818Y-139442019D01*
X59114818Y-139442019D02*
X59210056Y-139584876D01*
X59210056Y-139584876D02*
X59305294Y-139680114D01*
X59305294Y-139680114D02*
X59400532Y-139727733D01*
X58400532Y-140061066D02*
X57638628Y-140061066D01*
X57257675Y-139442019D02*
X57019580Y-140442019D01*
X57019580Y-140442019D02*
X56829104Y-139727733D01*
X56829104Y-139727733D02*
X56638628Y-140442019D01*
X56638628Y-140442019D02*
X56400533Y-139442019D01*
X56019580Y-140442019D02*
X56019580Y-139442019D01*
X54971962Y-140442019D02*
X55305295Y-139965828D01*
X55543390Y-140442019D02*
X55543390Y-139442019D01*
X55543390Y-139442019D02*
X55162438Y-139442019D01*
X55162438Y-139442019D02*
X55067200Y-139489638D01*
X55067200Y-139489638D02*
X55019581Y-139537257D01*
X55019581Y-139537257D02*
X54971962Y-139632495D01*
X54971962Y-139632495D02*
X54971962Y-139775352D01*
X54971962Y-139775352D02*
X55019581Y-139870590D01*
X55019581Y-139870590D02*
X55067200Y-139918209D01*
X55067200Y-139918209D02*
X55162438Y-139965828D01*
X55162438Y-139965828D02*
X55543390Y-139965828D01*
X54543390Y-139918209D02*
X54210057Y-139918209D01*
X54067200Y-140442019D02*
X54543390Y-140442019D01*
X54543390Y-140442019D02*
X54543390Y-139442019D01*
X54543390Y-139442019D02*
X54067200Y-139442019D01*
X52876723Y-140442019D02*
X52876723Y-139442019D01*
X51686248Y-139394400D02*
X52543390Y-140680114D01*
X51162438Y-139442019D02*
X50971962Y-139442019D01*
X50971962Y-139442019D02*
X50876724Y-139489638D01*
X50876724Y-139489638D02*
X50781486Y-139584876D01*
X50781486Y-139584876D02*
X50733867Y-139775352D01*
X50733867Y-139775352D02*
X50733867Y-140108685D01*
X50733867Y-140108685D02*
X50781486Y-140299161D01*
X50781486Y-140299161D02*
X50876724Y-140394400D01*
X50876724Y-140394400D02*
X50971962Y-140442019D01*
X50971962Y-140442019D02*
X51162438Y-140442019D01*
X51162438Y-140442019D02*
X51257676Y-140394400D01*
X51257676Y-140394400D02*
X51352914Y-140299161D01*
X51352914Y-140299161D02*
X51400533Y-140108685D01*
X51400533Y-140108685D02*
X51400533Y-139775352D01*
X51400533Y-139775352D02*
X51352914Y-139584876D01*
X51352914Y-139584876D02*
X51257676Y-139489638D01*
X51257676Y-139489638D02*
X51162438Y-139442019D01*
X127118999Y-114889619D02*
X127118999Y-113889619D01*
X127118999Y-113889619D02*
X126738047Y-113889619D01*
X126738047Y-113889619D02*
X126642809Y-113937238D01*
X126642809Y-113937238D02*
X126595190Y-113984857D01*
X126595190Y-113984857D02*
X126547571Y-114080095D01*
X126547571Y-114080095D02*
X126547571Y-114222952D01*
X126547571Y-114222952D02*
X126595190Y-114318190D01*
X126595190Y-114318190D02*
X126642809Y-114365809D01*
X126642809Y-114365809D02*
X126738047Y-114413428D01*
X126738047Y-114413428D02*
X127118999Y-114413428D01*
X126118999Y-114889619D02*
X126118999Y-113889619D01*
X126053885Y-65105619D02*
X126625313Y-65105619D01*
X126339599Y-65105619D02*
X126339599Y-64105619D01*
X126339599Y-64105619D02*
X126434837Y-64248476D01*
X126434837Y-64248476D02*
X126530075Y-64343714D01*
X126530075Y-64343714D02*
X126625313Y-64391333D01*
X55489314Y-67740619D02*
X55489314Y-68454904D01*
X55489314Y-68454904D02*
X55536933Y-68597761D01*
X55536933Y-68597761D02*
X55632171Y-68693000D01*
X55632171Y-68693000D02*
X55775028Y-68740619D01*
X55775028Y-68740619D02*
X55870266Y-68740619D01*
X55060742Y-68454904D02*
X54584552Y-68454904D01*
X55155980Y-68740619D02*
X54822647Y-67740619D01*
X54822647Y-67740619D02*
X54489314Y-68740619D01*
X53584552Y-68645380D02*
X53632171Y-68693000D01*
X53632171Y-68693000D02*
X53775028Y-68740619D01*
X53775028Y-68740619D02*
X53870266Y-68740619D01*
X53870266Y-68740619D02*
X54013123Y-68693000D01*
X54013123Y-68693000D02*
X54108361Y-68597761D01*
X54108361Y-68597761D02*
X54155980Y-68502523D01*
X54155980Y-68502523D02*
X54203599Y-68312047D01*
X54203599Y-68312047D02*
X54203599Y-68169190D01*
X54203599Y-68169190D02*
X54155980Y-67978714D01*
X54155980Y-67978714D02*
X54108361Y-67883476D01*
X54108361Y-67883476D02*
X54013123Y-67788238D01*
X54013123Y-67788238D02*
X53870266Y-67740619D01*
X53870266Y-67740619D02*
X53775028Y-67740619D01*
X53775028Y-67740619D02*
X53632171Y-67788238D01*
X53632171Y-67788238D02*
X53584552Y-67835857D01*
X53155980Y-68740619D02*
X53155980Y-67740619D01*
X52584552Y-68740619D02*
X53013123Y-68169190D01*
X52584552Y-67740619D02*
X53155980Y-68312047D01*
X54489313Y-69455857D02*
X54441694Y-69408238D01*
X54441694Y-69408238D02*
X54346456Y-69360619D01*
X54346456Y-69360619D02*
X54108361Y-69360619D01*
X54108361Y-69360619D02*
X54013123Y-69408238D01*
X54013123Y-69408238D02*
X53965504Y-69455857D01*
X53965504Y-69455857D02*
X53917885Y-69551095D01*
X53917885Y-69551095D02*
X53917885Y-69646333D01*
X53917885Y-69646333D02*
X53965504Y-69789190D01*
X53965504Y-69789190D02*
X54536932Y-70360619D01*
X54536932Y-70360619D02*
X53917885Y-70360619D01*
D11*
%TO.C,J1*%
X134699333Y-63343619D02*
X134699333Y-64057904D01*
X134699333Y-64057904D02*
X134746952Y-64200761D01*
X134746952Y-64200761D02*
X134842190Y-64296000D01*
X134842190Y-64296000D02*
X134985047Y-64343619D01*
X134985047Y-64343619D02*
X135080285Y-64343619D01*
X133699333Y-64343619D02*
X134270761Y-64343619D01*
X133985047Y-64343619D02*
X133985047Y-63343619D01*
X133985047Y-63343619D02*
X134080285Y-63486476D01*
X134080285Y-63486476D02*
X134175523Y-63581714D01*
X134175523Y-63581714D02*
X134270761Y-63629333D01*
D12*
%TO.C,J2*%
X66691406Y-55330000D02*
G75*
G03*
X66691406Y-55330000I-381000J0D01*
G01*
%TO.C,J1*%
X132648000Y-112836000D02*
X127448000Y-112836000D01*
X132648000Y-61916000D02*
X132648000Y-112836000D01*
X132648000Y-61916000D02*
X130048000Y-61916000D01*
X130048000Y-64516000D02*
X127448000Y-64516000D01*
X130048000Y-61916000D02*
X130048000Y-64516000D01*
X128778000Y-61916000D02*
X127448000Y-61916000D01*
X127448000Y-64516000D02*
X127448000Y-112836000D01*
X127448000Y-61916000D02*
X127448000Y-63246000D01*
%TD*%
M02*
