%FSLAX45Y45*%
G04 Gerber Fmt 4.5, Leading zero omitted, Abs format (unit mm)*
G04 Created by KiCad (PCBNEW (6.0.0-0)) date 2023-04-18 12:24:43*
%MOMM*%
%LPD*%
G01*
G04 APERTURE LIST*
%TA.AperFunction,Profile*%
%ADD10C,0.100000*%
%TD*%
%ADD11C,0.200000*%
%ADD12C,0.040000*%
%ADD13C,0.060000*%
%ADD14C,0.080000*%
%ADD15C,0.088900*%
%ADD16C,0.100000*%
%ADD17C,0.110000*%
G04 APERTURE END LIST*
D10*
X5702300Y-14833600D02*
X4965700Y-14097000D01*
X15811500Y-14097000D02*
X15074900Y-14833600D01*
X5702300Y-4495800D02*
X13474700Y-4495800D01*
X13474700Y-4495800D02*
X15811500Y-4495800D01*
X15811500Y-14097000D02*
X15811500Y-4495800D01*
X4965700Y-14097000D02*
X4965700Y-5232400D01*
X5702300Y-4495800D02*
X4965700Y-5232400D01*
X15074900Y-14833600D02*
X5702300Y-14833600D01*
D11*
D12*
X12476800Y-9847900D02*
X12516800Y-9887900D01*
X12516800Y-9847900D02*
X12476800Y-9887900D01*
X12616500Y-9847900D02*
X12656500Y-9887900D01*
X12656500Y-9847900D02*
X12616500Y-9887900D01*
D13*
X7294400Y-13868400D02*
G75*
G03*
X7294400Y-13868400I-30000J0D01*
G01*
X7580000Y-6007500D02*
G75*
G03*
X7580000Y-6007500I-30000J0D01*
G01*
X7580000Y-6286500D02*
G75*
G03*
X7580000Y-6286500I-30000J0D01*
G01*
X8335800Y-9212200D02*
G75*
G03*
X8335800Y-9212200I-30000J0D01*
G01*
X8373900Y-9766300D02*
G75*
G03*
X8373900Y-9766300I-30000J0D01*
G01*
X9720100Y-9207500D02*
G75*
G03*
X9720100Y-9207500I-30000J0D01*
G01*
X10075700Y-9359900D02*
G75*
G03*
X10075700Y-9359900I-30000J0D01*
G01*
X12069600Y-6794500D02*
G75*
G03*
X12069600Y-6794500I-30000J0D01*
G01*
X12209300Y-7213600D02*
G75*
G03*
X12209300Y-7213600I-30000J0D01*
G01*
X12647450Y-6965950D02*
G75*
G03*
X12647450Y-6965950I-30000J0D01*
G01*
D14*
X6946900Y-12855580D02*
X6946900Y-12935580D01*
X6906900Y-12895580D02*
X6986900Y-12895580D01*
X7545300Y-7647580D02*
X7545300Y-7727580D01*
X7505300Y-7687580D02*
X7585300Y-7687580D01*
X7545300Y-8409580D02*
X7545300Y-8489580D01*
X7505300Y-8449580D02*
X7585300Y-8449580D01*
X7547800Y-7072000D02*
X7547800Y-7152000D01*
X7507800Y-7112000D02*
X7587800Y-7112000D01*
X7708900Y-12855580D02*
X7708900Y-12935580D01*
X7668900Y-12895580D02*
X7748900Y-12895580D01*
X7799300Y-7647580D02*
X7799300Y-7727580D01*
X7759300Y-7687580D02*
X7839300Y-7687580D01*
X7799300Y-8409580D02*
X7799300Y-8489580D01*
X7759300Y-8449580D02*
X7839300Y-8449580D01*
X8047800Y-7072000D02*
X8047800Y-7152000D01*
X8007800Y-7112000D02*
X8087800Y-7112000D01*
X8053300Y-7647580D02*
X8053300Y-7727580D01*
X8013300Y-7687580D02*
X8093300Y-7687580D01*
X8053300Y-8409580D02*
X8053300Y-8489580D01*
X8013300Y-8449580D02*
X8093300Y-8449580D01*
X8307300Y-7647580D02*
X8307300Y-7727580D01*
X8267300Y-7687580D02*
X8347300Y-7687580D01*
X8307300Y-8409580D02*
X8307300Y-8489580D01*
X8267300Y-8449580D02*
X8347300Y-8449580D01*
X8432800Y-10823200D02*
X8432800Y-10903200D01*
X8392800Y-10863200D02*
X8472800Y-10863200D01*
X8432800Y-11077200D02*
X8432800Y-11157200D01*
X8392800Y-11117200D02*
X8472800Y-11117200D01*
X8432800Y-11331200D02*
X8432800Y-11411200D01*
X8392800Y-11371200D02*
X8472800Y-11371200D01*
X8432800Y-11585200D02*
X8432800Y-11665200D01*
X8392800Y-11625200D02*
X8472800Y-11625200D01*
X8432800Y-11839200D02*
X8432800Y-11919200D01*
X8392800Y-11879200D02*
X8472800Y-11879200D01*
X8432800Y-12093200D02*
X8432800Y-12173200D01*
X8392800Y-12133200D02*
X8472800Y-12133200D01*
X8432800Y-12347200D02*
X8432800Y-12427200D01*
X8392800Y-12387200D02*
X8472800Y-12387200D01*
X8432800Y-12601200D02*
X8432800Y-12681200D01*
X8392800Y-12641200D02*
X8472800Y-12641200D01*
X8432800Y-12855200D02*
X8432800Y-12935200D01*
X8392800Y-12895200D02*
X8472800Y-12895200D01*
X8432800Y-13109200D02*
X8432800Y-13189200D01*
X8392800Y-13149200D02*
X8472800Y-13149200D01*
X8432800Y-13363200D02*
X8432800Y-13443200D01*
X8392800Y-13403200D02*
X8472800Y-13403200D01*
X8432800Y-13617200D02*
X8432800Y-13697200D01*
X8392800Y-13657200D02*
X8472800Y-13657200D01*
X8432800Y-13871200D02*
X8432800Y-13951200D01*
X8392800Y-13911200D02*
X8472800Y-13911200D01*
X8432800Y-14125200D02*
X8432800Y-14205200D01*
X8392800Y-14165200D02*
X8472800Y-14165200D01*
X8561300Y-7647580D02*
X8561300Y-7727580D01*
X8521300Y-7687580D02*
X8601300Y-7687580D01*
X8561300Y-8409580D02*
X8561300Y-8489580D01*
X8521300Y-8449580D02*
X8601300Y-8449580D01*
X8815300Y-7647580D02*
X8815300Y-7727580D01*
X8775300Y-7687580D02*
X8855300Y-7687580D01*
X8815300Y-8409580D02*
X8815300Y-8489580D01*
X8775300Y-8449580D02*
X8855300Y-8449580D01*
X9069300Y-7647580D02*
X9069300Y-7727580D01*
X9029300Y-7687580D02*
X9109300Y-7687580D01*
X9069300Y-8409580D02*
X9069300Y-8489580D01*
X9029300Y-8449580D02*
X9109300Y-8449580D01*
X9194800Y-10823200D02*
X9194800Y-10903200D01*
X9154800Y-10863200D02*
X9234800Y-10863200D01*
X9194800Y-11077200D02*
X9194800Y-11157200D01*
X9154800Y-11117200D02*
X9234800Y-11117200D01*
X9194800Y-11331200D02*
X9194800Y-11411200D01*
X9154800Y-11371200D02*
X9234800Y-11371200D01*
X9194800Y-11585200D02*
X9194800Y-11665200D01*
X9154800Y-11625200D02*
X9234800Y-11625200D01*
X9194800Y-11839200D02*
X9194800Y-11919200D01*
X9154800Y-11879200D02*
X9234800Y-11879200D01*
X9194800Y-12093200D02*
X9194800Y-12173200D01*
X9154800Y-12133200D02*
X9234800Y-12133200D01*
X9194800Y-12347200D02*
X9194800Y-12427200D01*
X9154800Y-12387200D02*
X9234800Y-12387200D01*
X9194800Y-12601200D02*
X9194800Y-12681200D01*
X9154800Y-12641200D02*
X9234800Y-12641200D01*
X9194800Y-12855200D02*
X9194800Y-12935200D01*
X9154800Y-12895200D02*
X9234800Y-12895200D01*
X9194800Y-13109200D02*
X9194800Y-13189200D01*
X9154800Y-13149200D02*
X9234800Y-13149200D01*
X9194800Y-13363200D02*
X9194800Y-13443200D01*
X9154800Y-13403200D02*
X9234800Y-13403200D01*
X9194800Y-13617200D02*
X9194800Y-13697200D01*
X9154800Y-13657200D02*
X9234800Y-13657200D01*
X9194800Y-13871200D02*
X9194800Y-13951200D01*
X9154800Y-13911200D02*
X9234800Y-13911200D01*
X9194800Y-14125200D02*
X9194800Y-14205200D01*
X9154800Y-14165200D02*
X9234800Y-14165200D01*
X9245600Y-8654800D02*
X9245600Y-8734800D01*
X9205600Y-8694800D02*
X9285600Y-8694800D01*
X9245600Y-9154800D02*
X9245600Y-9234800D01*
X9205600Y-9194800D02*
X9285600Y-9194800D01*
X9323300Y-7647580D02*
X9323300Y-7727580D01*
X9283300Y-7687580D02*
X9363300Y-7687580D01*
X9323300Y-8409580D02*
X9323300Y-8489580D01*
X9283300Y-8449580D02*
X9363300Y-8449580D01*
X9575800Y-13363200D02*
X9575800Y-13443200D01*
X9535800Y-13403200D02*
X9615800Y-13403200D01*
X9575800Y-13863200D02*
X9575800Y-13943200D01*
X9535800Y-13903200D02*
X9615800Y-13903200D01*
X10464800Y-8037200D02*
X10464800Y-8117200D01*
X10424800Y-8077200D02*
X10504800Y-8077200D01*
X10464800Y-8291200D02*
X10464800Y-8371200D01*
X10424800Y-8331200D02*
X10504800Y-8331200D01*
X10464800Y-8545200D02*
X10464800Y-8625200D01*
X10424800Y-8585200D02*
X10504800Y-8585200D01*
X10464800Y-8799200D02*
X10464800Y-8879200D01*
X10424800Y-8839200D02*
X10504800Y-8839200D01*
X10464800Y-9053200D02*
X10464800Y-9133200D01*
X10424800Y-9093200D02*
X10504800Y-9093200D01*
X10464800Y-9307200D02*
X10464800Y-9387200D01*
X10424800Y-9347200D02*
X10504800Y-9347200D01*
X10464800Y-9561200D02*
X10464800Y-9641200D01*
X10424800Y-9601200D02*
X10504800Y-9601200D01*
X10464800Y-9815200D02*
X10464800Y-9895200D01*
X10424800Y-9855200D02*
X10504800Y-9855200D01*
X10464800Y-10069200D02*
X10464800Y-10149200D01*
X10424800Y-10109200D02*
X10504800Y-10109200D01*
X10464800Y-10323200D02*
X10464800Y-10403200D01*
X10424800Y-10363200D02*
X10504800Y-10363200D01*
X10464800Y-10577200D02*
X10464800Y-10657200D01*
X10424800Y-10617200D02*
X10504800Y-10617200D01*
X10464800Y-10831200D02*
X10464800Y-10911200D01*
X10424800Y-10871200D02*
X10504800Y-10871200D01*
X10464800Y-11085200D02*
X10464800Y-11165200D01*
X10424800Y-11125200D02*
X10504800Y-11125200D01*
X10464800Y-11339200D02*
X10464800Y-11419200D01*
X10424800Y-11379200D02*
X10504800Y-11379200D01*
X11226800Y-8037200D02*
X11226800Y-8117200D01*
X11186800Y-8077200D02*
X11266800Y-8077200D01*
X11226800Y-8291200D02*
X11226800Y-8371200D01*
X11186800Y-8331200D02*
X11266800Y-8331200D01*
X11226800Y-8545200D02*
X11226800Y-8625200D01*
X11186800Y-8585200D02*
X11266800Y-8585200D01*
X11226800Y-8799200D02*
X11226800Y-8879200D01*
X11186800Y-8839200D02*
X11266800Y-8839200D01*
X11226800Y-9053200D02*
X11226800Y-9133200D01*
X11186800Y-9093200D02*
X11266800Y-9093200D01*
X11226800Y-9307200D02*
X11226800Y-9387200D01*
X11186800Y-9347200D02*
X11266800Y-9347200D01*
X11226800Y-9561200D02*
X11226800Y-9641200D01*
X11186800Y-9601200D02*
X11266800Y-9601200D01*
X11226800Y-9815200D02*
X11226800Y-9895200D01*
X11186800Y-9855200D02*
X11266800Y-9855200D01*
X11226800Y-10069200D02*
X11226800Y-10149200D01*
X11186800Y-10109200D02*
X11266800Y-10109200D01*
X11226800Y-10323200D02*
X11226800Y-10403200D01*
X11186800Y-10363200D02*
X11266800Y-10363200D01*
X11226800Y-10577200D02*
X11226800Y-10657200D01*
X11186800Y-10617200D02*
X11266800Y-10617200D01*
X11226800Y-10831200D02*
X11226800Y-10911200D01*
X11186800Y-10871200D02*
X11266800Y-10871200D01*
X11226800Y-11085200D02*
X11226800Y-11165200D01*
X11186800Y-11125200D02*
X11266800Y-11125200D01*
X11226800Y-11339200D02*
X11226800Y-11419200D01*
X11186800Y-11379200D02*
X11266800Y-11379200D01*
X11607800Y-10577200D02*
X11607800Y-10657200D01*
X11567800Y-10617200D02*
X11647800Y-10617200D01*
X11607800Y-11077200D02*
X11607800Y-11157200D01*
X11567800Y-11117200D02*
X11647800Y-11117200D01*
D15*
X6662472Y-6453431D02*
X6662472Y-6390569D01*
X6599609Y-6390569D01*
X6599609Y-6453431D01*
X6662472Y-6453431D01*
X6662472Y-6707431D02*
X6662472Y-6644569D01*
X6599609Y-6644569D01*
X6599609Y-6707431D01*
X6662472Y-6707431D01*
X6662472Y-6961431D02*
X6662472Y-6898569D01*
X6599609Y-6898569D01*
X6599609Y-6961431D01*
X6662472Y-6961431D01*
X6662472Y-7215431D02*
X6662472Y-7152569D01*
X6599609Y-7152569D01*
X6599609Y-7215431D01*
X6662472Y-7215431D01*
X6662472Y-7850431D02*
X6662472Y-7787569D01*
X6599609Y-7787569D01*
X6599609Y-7850431D01*
X6662472Y-7850431D01*
X6662472Y-8104431D02*
X6662472Y-8041569D01*
X6599609Y-8041569D01*
X6599609Y-8104431D01*
X6662472Y-8104431D01*
X6662472Y-8358431D02*
X6662472Y-8295569D01*
X6599609Y-8295569D01*
X6599609Y-8358431D01*
X6662472Y-8358431D01*
X6662472Y-8612431D02*
X6662472Y-8549569D01*
X6599609Y-8549569D01*
X6599609Y-8612431D01*
X6662472Y-8612431D01*
X6662472Y-9247431D02*
X6662472Y-9184569D01*
X6599609Y-9184569D01*
X6599609Y-9247431D01*
X6662472Y-9247431D01*
X6662472Y-9501431D02*
X6662472Y-9438569D01*
X6599609Y-9438569D01*
X6599609Y-9501431D01*
X6662472Y-9501431D01*
X6662472Y-9755431D02*
X6662472Y-9692569D01*
X6599609Y-9692569D01*
X6599609Y-9755431D01*
X6662472Y-9755431D01*
X6662472Y-10009431D02*
X6662472Y-9946569D01*
X6599609Y-9946569D01*
X6599609Y-10009431D01*
X6662472Y-10009431D01*
X6662472Y-10644431D02*
X6662472Y-10581569D01*
X6599609Y-10581569D01*
X6599609Y-10644431D01*
X6662472Y-10644431D01*
X6662472Y-10898431D02*
X6662472Y-10835569D01*
X6599609Y-10835569D01*
X6599609Y-10898431D01*
X6662472Y-10898431D01*
X6662472Y-11152431D02*
X6662472Y-11089569D01*
X6599609Y-11089569D01*
X6599609Y-11152431D01*
X6662472Y-11152431D01*
X6662472Y-11406431D02*
X6662472Y-11343569D01*
X6599609Y-11343569D01*
X6599609Y-11406431D01*
X6662472Y-11406431D01*
X6916472Y-6580431D02*
X6916472Y-6517569D01*
X6853609Y-6517569D01*
X6853609Y-6580431D01*
X6916472Y-6580431D01*
X6916472Y-6834431D02*
X6916472Y-6771569D01*
X6853609Y-6771569D01*
X6853609Y-6834431D01*
X6916472Y-6834431D01*
X6916472Y-7088431D02*
X6916472Y-7025569D01*
X6853609Y-7025569D01*
X6853609Y-7088431D01*
X6916472Y-7088431D01*
X6916472Y-7342431D02*
X6916472Y-7279569D01*
X6853609Y-7279569D01*
X6853609Y-7342431D01*
X6916472Y-7342431D01*
X6916472Y-7977431D02*
X6916472Y-7914569D01*
X6853609Y-7914569D01*
X6853609Y-7977431D01*
X6916472Y-7977431D01*
X6916472Y-8231431D02*
X6916472Y-8168569D01*
X6853609Y-8168569D01*
X6853609Y-8231431D01*
X6916472Y-8231431D01*
X6916472Y-8485431D02*
X6916472Y-8422569D01*
X6853609Y-8422569D01*
X6853609Y-8485431D01*
X6916472Y-8485431D01*
X6916472Y-8739431D02*
X6916472Y-8676569D01*
X6853609Y-8676569D01*
X6853609Y-8739431D01*
X6916472Y-8739431D01*
X6916472Y-9374431D02*
X6916472Y-9311569D01*
X6853609Y-9311569D01*
X6853609Y-9374431D01*
X6916472Y-9374431D01*
X6916472Y-9628431D02*
X6916472Y-9565569D01*
X6853609Y-9565569D01*
X6853609Y-9628431D01*
X6916472Y-9628431D01*
X6916472Y-9882431D02*
X6916472Y-9819569D01*
X6853609Y-9819569D01*
X6853609Y-9882431D01*
X6916472Y-9882431D01*
X6916472Y-10136431D02*
X6916472Y-10073569D01*
X6853609Y-10073569D01*
X6853609Y-10136431D01*
X6916472Y-10136431D01*
X6916472Y-10771431D02*
X6916472Y-10708569D01*
X6853609Y-10708569D01*
X6853609Y-10771431D01*
X6916472Y-10771431D01*
X6916472Y-11025431D02*
X6916472Y-10962569D01*
X6853609Y-10962569D01*
X6853609Y-11025431D01*
X6916472Y-11025431D01*
X6916472Y-11279431D02*
X6916472Y-11216569D01*
X6853609Y-11216569D01*
X6853609Y-11279431D01*
X6916472Y-11279431D01*
X6916472Y-11533431D02*
X6916472Y-11470569D01*
X6853609Y-11470569D01*
X6853609Y-11533431D01*
X6916472Y-11533431D01*
D16*
X12877800Y-6374600D02*
X12927800Y-6324600D01*
X12877800Y-6274600D01*
X12827800Y-6324600D01*
X12877800Y-6374600D01*
X12877800Y-6628600D02*
X12927800Y-6578600D01*
X12877800Y-6528600D01*
X12827800Y-6578600D01*
X12877800Y-6628600D01*
X12877800Y-6882600D02*
X12927800Y-6832600D01*
X12877800Y-6782600D01*
X12827800Y-6832600D01*
X12877800Y-6882600D01*
X12877800Y-7136600D02*
X12927800Y-7086600D01*
X12877800Y-7036600D01*
X12827800Y-7086600D01*
X12877800Y-7136600D01*
X12877800Y-7390600D02*
X12927800Y-7340600D01*
X12877800Y-7290600D01*
X12827800Y-7340600D01*
X12877800Y-7390600D01*
X12877800Y-7644600D02*
X12927800Y-7594600D01*
X12877800Y-7544600D01*
X12827800Y-7594600D01*
X12877800Y-7644600D01*
X12877800Y-7898600D02*
X12927800Y-7848600D01*
X12877800Y-7798600D01*
X12827800Y-7848600D01*
X12877800Y-7898600D01*
X12877800Y-8152600D02*
X12927800Y-8102600D01*
X12877800Y-8052600D01*
X12827800Y-8102600D01*
X12877800Y-8152600D01*
X12877800Y-8406600D02*
X12927800Y-8356600D01*
X12877800Y-8306600D01*
X12827800Y-8356600D01*
X12877800Y-8406600D01*
X12877800Y-8660600D02*
X12927800Y-8610600D01*
X12877800Y-8560600D01*
X12827800Y-8610600D01*
X12877800Y-8660600D01*
X12877800Y-8914600D02*
X12927800Y-8864600D01*
X12877800Y-8814600D01*
X12827800Y-8864600D01*
X12877800Y-8914600D01*
X12877800Y-9168600D02*
X12927800Y-9118600D01*
X12877800Y-9068600D01*
X12827800Y-9118600D01*
X12877800Y-9168600D01*
X12877800Y-9422600D02*
X12927800Y-9372600D01*
X12877800Y-9322600D01*
X12827800Y-9372600D01*
X12877800Y-9422600D01*
X12877800Y-9676600D02*
X12927800Y-9626600D01*
X12877800Y-9576600D01*
X12827800Y-9626600D01*
X12877800Y-9676600D01*
X12877800Y-9930600D02*
X12927800Y-9880600D01*
X12877800Y-9830600D01*
X12827800Y-9880600D01*
X12877800Y-9930600D01*
X12877800Y-10184600D02*
X12927800Y-10134600D01*
X12877800Y-10084600D01*
X12827800Y-10134600D01*
X12877800Y-10184600D01*
X12877800Y-10438600D02*
X12927800Y-10388600D01*
X12877800Y-10338600D01*
X12827800Y-10388600D01*
X12877800Y-10438600D01*
X12877800Y-10692600D02*
X12927800Y-10642600D01*
X12877800Y-10592600D01*
X12827800Y-10642600D01*
X12877800Y-10692600D01*
X12877800Y-10946600D02*
X12927800Y-10896600D01*
X12877800Y-10846600D01*
X12827800Y-10896600D01*
X12877800Y-10946600D01*
X12877800Y-11200600D02*
X12927800Y-11150600D01*
X12877800Y-11100600D01*
X12827800Y-11150600D01*
X12877800Y-11200600D01*
X13131800Y-6374600D02*
X13181800Y-6324600D01*
X13131800Y-6274600D01*
X13081800Y-6324600D01*
X13131800Y-6374600D01*
X13131800Y-6628600D02*
X13181800Y-6578600D01*
X13131800Y-6528600D01*
X13081800Y-6578600D01*
X13131800Y-6628600D01*
X13131800Y-6882600D02*
X13181800Y-6832600D01*
X13131800Y-6782600D01*
X13081800Y-6832600D01*
X13131800Y-6882600D01*
X13131800Y-7136600D02*
X13181800Y-7086600D01*
X13131800Y-7036600D01*
X13081800Y-7086600D01*
X13131800Y-7136600D01*
X13131800Y-7390600D02*
X13181800Y-7340600D01*
X13131800Y-7290600D01*
X13081800Y-7340600D01*
X13131800Y-7390600D01*
X13131800Y-7644600D02*
X13181800Y-7594600D01*
X13131800Y-7544600D01*
X13081800Y-7594600D01*
X13131800Y-7644600D01*
X13131800Y-7898600D02*
X13181800Y-7848600D01*
X13131800Y-7798600D01*
X13081800Y-7848600D01*
X13131800Y-7898600D01*
X13131800Y-8152600D02*
X13181800Y-8102600D01*
X13131800Y-8052600D01*
X13081800Y-8102600D01*
X13131800Y-8152600D01*
X13131800Y-8406600D02*
X13181800Y-8356600D01*
X13131800Y-8306600D01*
X13081800Y-8356600D01*
X13131800Y-8406600D01*
X13131800Y-8660600D02*
X13181800Y-8610600D01*
X13131800Y-8560600D01*
X13081800Y-8610600D01*
X13131800Y-8660600D01*
X13131800Y-8914600D02*
X13181800Y-8864600D01*
X13131800Y-8814600D01*
X13081800Y-8864600D01*
X13131800Y-8914600D01*
X13131800Y-9168600D02*
X13181800Y-9118600D01*
X13131800Y-9068600D01*
X13081800Y-9118600D01*
X13131800Y-9168600D01*
X13131800Y-9422600D02*
X13181800Y-9372600D01*
X13131800Y-9322600D01*
X13081800Y-9372600D01*
X13131800Y-9422600D01*
X13131800Y-9676600D02*
X13181800Y-9626600D01*
X13131800Y-9576600D01*
X13081800Y-9626600D01*
X13131800Y-9676600D01*
X13131800Y-9930600D02*
X13181800Y-9880600D01*
X13131800Y-9830600D01*
X13081800Y-9880600D01*
X13131800Y-9930600D01*
X13131800Y-10184600D02*
X13181800Y-10134600D01*
X13131800Y-10084600D01*
X13081800Y-10134600D01*
X13131800Y-10184600D01*
X13131800Y-10438600D02*
X13181800Y-10388600D01*
X13131800Y-10338600D01*
X13081800Y-10388600D01*
X13131800Y-10438600D01*
X13131800Y-10692600D02*
X13181800Y-10642600D01*
X13131800Y-10592600D01*
X13081800Y-10642600D01*
X13131800Y-10692600D01*
X13131800Y-10946600D02*
X13181800Y-10896600D01*
X13131800Y-10846600D01*
X13081800Y-10896600D01*
X13131800Y-10946600D01*
X13131800Y-11200600D02*
X13181800Y-11150600D01*
X13131800Y-11100600D01*
X13081800Y-11150600D01*
X13131800Y-11200600D01*
X14020800Y-13909168D02*
X14070800Y-13859168D01*
X14020800Y-13809168D01*
X13970800Y-13859168D01*
X14020800Y-13909168D01*
X14020800Y-14409168D02*
X14070800Y-14359168D01*
X14020800Y-14309168D01*
X13970800Y-14359168D01*
X14020800Y-14409168D01*
D17*
X11222600Y-12712600D02*
X11332600Y-12822600D01*
X11332600Y-12712600D02*
X11222600Y-12822600D01*
X11332600Y-12767600D02*
G75*
G03*
X11332600Y-12767600I-55000J0D01*
G01*
X11476600Y-12712600D02*
X11586600Y-12822600D01*
X11586600Y-12712600D02*
X11476600Y-12822600D01*
X11586600Y-12767600D02*
G75*
G03*
X11586600Y-12767600I-55000J0D01*
G01*
X11730600Y-12712600D02*
X11840600Y-12822600D01*
X11840600Y-12712600D02*
X11730600Y-12822600D01*
X11840600Y-12767600D02*
G75*
G03*
X11840600Y-12767600I-55000J0D01*
G01*
X12314800Y-13241900D02*
X12424800Y-13351900D01*
X12424800Y-13241900D02*
X12314800Y-13351900D01*
X12424800Y-13296900D02*
G75*
G03*
X12424800Y-13296900I-55000J0D01*
G01*
X12430400Y-4775000D02*
X12540400Y-4885000D01*
X12540400Y-4775000D02*
X12430400Y-4885000D01*
X12540400Y-4830000D02*
G75*
G03*
X12540400Y-4830000I-55000J0D01*
G01*
X12430400Y-5275000D02*
X12540400Y-5385000D01*
X12540400Y-5275000D02*
X12430400Y-5385000D01*
X12540400Y-5330000D02*
G75*
G03*
X12540400Y-5330000I-55000J0D01*
G01*
X12622400Y-13940300D02*
X12732400Y-14050300D01*
X12732400Y-13940300D02*
X12622400Y-14050300D01*
X12732400Y-13995300D02*
G75*
G03*
X12732400Y-13995300I-55000J0D01*
G01*
X12622400Y-14440300D02*
X12732400Y-14550300D01*
X12732400Y-14440300D02*
X12622400Y-14550300D01*
X12732400Y-14495300D02*
G75*
G03*
X12732400Y-14495300I-55000J0D01*
G01*
X12780400Y-4775000D02*
X12890400Y-4885000D01*
X12890400Y-4775000D02*
X12780400Y-4885000D01*
X12890400Y-4830000D02*
G75*
G03*
X12890400Y-4830000I-55000J0D01*
G01*
X12780400Y-5275000D02*
X12890400Y-5385000D01*
X12890400Y-5275000D02*
X12780400Y-5385000D01*
X12890400Y-5330000D02*
G75*
G03*
X12890400Y-5330000I-55000J0D01*
G01*
X12972400Y-13940300D02*
X13082400Y-14050300D01*
X13082400Y-13940300D02*
X12972400Y-14050300D01*
X13082400Y-13995300D02*
G75*
G03*
X13082400Y-13995300I-55000J0D01*
G01*
X12972400Y-14440300D02*
X13082400Y-14550300D01*
X13082400Y-14440300D02*
X12972400Y-14550300D01*
X13082400Y-14495300D02*
G75*
G03*
X13082400Y-14495300I-55000J0D01*
G01*
X13130400Y-4775000D02*
X13240400Y-4885000D01*
X13240400Y-4775000D02*
X13130400Y-4885000D01*
X13240400Y-4830000D02*
G75*
G03*
X13240400Y-4830000I-55000J0D01*
G01*
X13130400Y-5275000D02*
X13240400Y-5385000D01*
X13240400Y-5275000D02*
X13130400Y-5385000D01*
X13240400Y-5330000D02*
G75*
G03*
X13240400Y-5330000I-55000J0D01*
G01*
X13330800Y-13241900D02*
X13440800Y-13351900D01*
X13440800Y-13241900D02*
X13330800Y-13351900D01*
X13440800Y-13296900D02*
G75*
G03*
X13440800Y-13296900I-55000J0D01*
G01*
X13480400Y-4775000D02*
X13590400Y-4885000D01*
X13590400Y-4775000D02*
X13480400Y-4885000D01*
X13590400Y-4830000D02*
G75*
G03*
X13590400Y-4830000I-55000J0D01*
G01*
X13480400Y-5275000D02*
X13590400Y-5385000D01*
X13590400Y-5275000D02*
X13480400Y-5385000D01*
X13590400Y-5330000D02*
G75*
G03*
X13590400Y-5330000I-55000J0D01*
G01*
X14920000Y-6170000D02*
X15030000Y-6280000D01*
X15030000Y-6170000D02*
X14920000Y-6280000D01*
X15030000Y-6225000D02*
G75*
G03*
X15030000Y-6225000I-55000J0D01*
G01*
X14920000Y-6520000D02*
X15030000Y-6630000D01*
X15030000Y-6520000D02*
X14920000Y-6630000D01*
X15030000Y-6575000D02*
G75*
G03*
X15030000Y-6575000I-55000J0D01*
G01*
X14920000Y-4770000D02*
X15030000Y-4880000D01*
X15030000Y-4770000D02*
X14920000Y-4880000D01*
X15030000Y-4825000D02*
G75*
G03*
X15030000Y-4825000I-55000J0D01*
G01*
X14920000Y-5120000D02*
X15030000Y-5230000D01*
X15030000Y-5120000D02*
X14920000Y-5230000D01*
X15030000Y-5175000D02*
G75*
G03*
X15030000Y-5175000I-55000J0D01*
G01*
X14920000Y-5470000D02*
X15030000Y-5580000D01*
X15030000Y-5470000D02*
X14920000Y-5580000D01*
X15030000Y-5525000D02*
G75*
G03*
X15030000Y-5525000I-55000J0D01*
G01*
X14920000Y-5820000D02*
X15030000Y-5930000D01*
X15030000Y-5820000D02*
X14920000Y-5930000D01*
X15030000Y-5875000D02*
G75*
G03*
X15030000Y-5875000I-55000J0D01*
G01*
X14920000Y-6870000D02*
X15030000Y-6980000D01*
X15030000Y-6870000D02*
X14920000Y-6980000D01*
X15030000Y-6925000D02*
G75*
G03*
X15030000Y-6925000I-55000J0D01*
G01*
X14920000Y-7220000D02*
X15030000Y-7330000D01*
X15030000Y-7220000D02*
X14920000Y-7330000D01*
X15030000Y-7275000D02*
G75*
G03*
X15030000Y-7275000I-55000J0D01*
G01*
X14920000Y-8345000D02*
X15030000Y-8455000D01*
X15030000Y-8345000D02*
X14920000Y-8455000D01*
X15030000Y-8400000D02*
G75*
G03*
X15030000Y-8400000I-55000J0D01*
G01*
X14920000Y-8695000D02*
X15030000Y-8805000D01*
X15030000Y-8695000D02*
X14920000Y-8805000D01*
X15030000Y-8750000D02*
G75*
G03*
X15030000Y-8750000I-55000J0D01*
G01*
X14920000Y-9045000D02*
X15030000Y-9155000D01*
X15030000Y-9045000D02*
X14920000Y-9155000D01*
X15030000Y-9100000D02*
G75*
G03*
X15030000Y-9100000I-55000J0D01*
G01*
X14920000Y-9395000D02*
X15030000Y-9505000D01*
X15030000Y-9395000D02*
X14920000Y-9505000D01*
X15030000Y-9450000D02*
G75*
G03*
X15030000Y-9450000I-55000J0D01*
G01*
X14920000Y-9745000D02*
X15030000Y-9855000D01*
X15030000Y-9745000D02*
X14920000Y-9855000D01*
X15030000Y-9800000D02*
G75*
G03*
X15030000Y-9800000I-55000J0D01*
G01*
X14920000Y-10095000D02*
X15030000Y-10205000D01*
X15030000Y-10095000D02*
X14920000Y-10205000D01*
X15030000Y-10150000D02*
G75*
G03*
X15030000Y-10150000I-55000J0D01*
G01*
X14920000Y-11220000D02*
X15030000Y-11330000D01*
X15030000Y-11220000D02*
X14920000Y-11330000D01*
X15030000Y-11275000D02*
G75*
G03*
X15030000Y-11275000I-55000J0D01*
G01*
X14920000Y-11570000D02*
X15030000Y-11680000D01*
X15030000Y-11570000D02*
X14920000Y-11680000D01*
X15030000Y-11625000D02*
G75*
G03*
X15030000Y-11625000I-55000J0D01*
G01*
X14920000Y-11920000D02*
X15030000Y-12030000D01*
X15030000Y-11920000D02*
X14920000Y-12030000D01*
X15030000Y-11975000D02*
G75*
G03*
X15030000Y-11975000I-55000J0D01*
G01*
X14920000Y-12270000D02*
X15030000Y-12380000D01*
X15030000Y-12270000D02*
X14920000Y-12380000D01*
X15030000Y-12325000D02*
G75*
G03*
X15030000Y-12325000I-55000J0D01*
G01*
X14920000Y-12620000D02*
X15030000Y-12730000D01*
X15030000Y-12620000D02*
X14920000Y-12730000D01*
X15030000Y-12675000D02*
G75*
G03*
X15030000Y-12675000I-55000J0D01*
G01*
X14920000Y-12970000D02*
X15030000Y-13080000D01*
X15030000Y-12970000D02*
X14920000Y-13080000D01*
X15030000Y-13025000D02*
G75*
G03*
X15030000Y-13025000I-55000J0D01*
G01*
X14920000Y-13320000D02*
X15030000Y-13430000D01*
X15030000Y-13320000D02*
X14920000Y-13430000D01*
X15030000Y-13375000D02*
G75*
G03*
X15030000Y-13375000I-55000J0D01*
G01*
X14920000Y-13670000D02*
X15030000Y-13780000D01*
X15030000Y-13670000D02*
X14920000Y-13780000D01*
X15030000Y-13725000D02*
G75*
G03*
X15030000Y-13725000I-55000J0D01*
G01*
X15420000Y-6170000D02*
X15530000Y-6280000D01*
X15530000Y-6170000D02*
X15420000Y-6280000D01*
X15530000Y-6225000D02*
G75*
G03*
X15530000Y-6225000I-55000J0D01*
G01*
X15420000Y-6520000D02*
X15530000Y-6630000D01*
X15530000Y-6520000D02*
X15420000Y-6630000D01*
X15530000Y-6575000D02*
G75*
G03*
X15530000Y-6575000I-55000J0D01*
G01*
X15420000Y-4770000D02*
X15530000Y-4880000D01*
X15530000Y-4770000D02*
X15420000Y-4880000D01*
X15530000Y-4825000D02*
G75*
G03*
X15530000Y-4825000I-55000J0D01*
G01*
X15420000Y-5120000D02*
X15530000Y-5230000D01*
X15530000Y-5120000D02*
X15420000Y-5230000D01*
X15530000Y-5175000D02*
G75*
G03*
X15530000Y-5175000I-55000J0D01*
G01*
X15420000Y-5470000D02*
X15530000Y-5580000D01*
X15530000Y-5470000D02*
X15420000Y-5580000D01*
X15530000Y-5525000D02*
G75*
G03*
X15530000Y-5525000I-55000J0D01*
G01*
X15420000Y-5820000D02*
X15530000Y-5930000D01*
X15530000Y-5820000D02*
X15420000Y-5930000D01*
X15530000Y-5875000D02*
G75*
G03*
X15530000Y-5875000I-55000J0D01*
G01*
X15420000Y-6870000D02*
X15530000Y-6980000D01*
X15530000Y-6870000D02*
X15420000Y-6980000D01*
X15530000Y-6925000D02*
G75*
G03*
X15530000Y-6925000I-55000J0D01*
G01*
X15420000Y-7220000D02*
X15530000Y-7330000D01*
X15530000Y-7220000D02*
X15420000Y-7330000D01*
X15530000Y-7275000D02*
G75*
G03*
X15530000Y-7275000I-55000J0D01*
G01*
X15420000Y-8345000D02*
X15530000Y-8455000D01*
X15530000Y-8345000D02*
X15420000Y-8455000D01*
X15530000Y-8400000D02*
G75*
G03*
X15530000Y-8400000I-55000J0D01*
G01*
X15420000Y-8695000D02*
X15530000Y-8805000D01*
X15530000Y-8695000D02*
X15420000Y-8805000D01*
X15530000Y-8750000D02*
G75*
G03*
X15530000Y-8750000I-55000J0D01*
G01*
X15420000Y-9045000D02*
X15530000Y-9155000D01*
X15530000Y-9045000D02*
X15420000Y-9155000D01*
X15530000Y-9100000D02*
G75*
G03*
X15530000Y-9100000I-55000J0D01*
G01*
X15420000Y-9395000D02*
X15530000Y-9505000D01*
X15530000Y-9395000D02*
X15420000Y-9505000D01*
X15530000Y-9450000D02*
G75*
G03*
X15530000Y-9450000I-55000J0D01*
G01*
X15420000Y-9745000D02*
X15530000Y-9855000D01*
X15530000Y-9745000D02*
X15420000Y-9855000D01*
X15530000Y-9800000D02*
G75*
G03*
X15530000Y-9800000I-55000J0D01*
G01*
X15420000Y-10095000D02*
X15530000Y-10205000D01*
X15530000Y-10095000D02*
X15420000Y-10205000D01*
X15530000Y-10150000D02*
G75*
G03*
X15530000Y-10150000I-55000J0D01*
G01*
X15420000Y-11220000D02*
X15530000Y-11330000D01*
X15530000Y-11220000D02*
X15420000Y-11330000D01*
X15530000Y-11275000D02*
G75*
G03*
X15530000Y-11275000I-55000J0D01*
G01*
X15420000Y-11570000D02*
X15530000Y-11680000D01*
X15530000Y-11570000D02*
X15420000Y-11680000D01*
X15530000Y-11625000D02*
G75*
G03*
X15530000Y-11625000I-55000J0D01*
G01*
X15420000Y-11920000D02*
X15530000Y-12030000D01*
X15530000Y-11920000D02*
X15420000Y-12030000D01*
X15530000Y-11975000D02*
G75*
G03*
X15530000Y-11975000I-55000J0D01*
G01*
X15420000Y-12270000D02*
X15530000Y-12380000D01*
X15530000Y-12270000D02*
X15420000Y-12380000D01*
X15530000Y-12325000D02*
G75*
G03*
X15530000Y-12325000I-55000J0D01*
G01*
X15420000Y-12620000D02*
X15530000Y-12730000D01*
X15530000Y-12620000D02*
X15420000Y-12730000D01*
X15530000Y-12675000D02*
G75*
G03*
X15530000Y-12675000I-55000J0D01*
G01*
X15420000Y-12970000D02*
X15530000Y-13080000D01*
X15530000Y-12970000D02*
X15420000Y-13080000D01*
X15530000Y-13025000D02*
G75*
G03*
X15530000Y-13025000I-55000J0D01*
G01*
X15420000Y-13320000D02*
X15530000Y-13430000D01*
X15530000Y-13320000D02*
X15420000Y-13430000D01*
X15530000Y-13375000D02*
G75*
G03*
X15530000Y-13375000I-55000J0D01*
G01*
X15420000Y-13670000D02*
X15530000Y-13780000D01*
X15530000Y-13670000D02*
X15420000Y-13780000D01*
X15530000Y-13725000D02*
G75*
G03*
X15530000Y-13725000I-55000J0D01*
G01*
D11*
X5218319Y-15149076D02*
X5218319Y-14949076D01*
X5265938Y-14949076D01*
X5294510Y-14958600D01*
X5313557Y-14977648D01*
X5323081Y-14996695D01*
X5332605Y-15034790D01*
X5332605Y-15063362D01*
X5323081Y-15101457D01*
X5313557Y-15120505D01*
X5294510Y-15139552D01*
X5265938Y-15149076D01*
X5218319Y-15149076D01*
X5418319Y-15149076D02*
X5418319Y-15015743D01*
X5418319Y-15053838D02*
X5427843Y-15034790D01*
X5437367Y-15025267D01*
X5456414Y-15015743D01*
X5475462Y-15015743D01*
X5542129Y-15149076D02*
X5542129Y-15015743D01*
X5542129Y-14949076D02*
X5532605Y-14958600D01*
X5542129Y-14968124D01*
X5551652Y-14958600D01*
X5542129Y-14949076D01*
X5542129Y-14968124D01*
X5665938Y-15149076D02*
X5646890Y-15139552D01*
X5637367Y-15120505D01*
X5637367Y-14949076D01*
X5770700Y-15149076D02*
X5751652Y-15139552D01*
X5742128Y-15120505D01*
X5742128Y-14949076D01*
X5999271Y-15149076D02*
X5999271Y-14949076D01*
X6065938Y-15091933D01*
X6132605Y-14949076D01*
X6132605Y-15149076D01*
X6313557Y-15149076D02*
X6313557Y-15044314D01*
X6304033Y-15025267D01*
X6284986Y-15015743D01*
X6246890Y-15015743D01*
X6227843Y-15025267D01*
X6313557Y-15139552D02*
X6294509Y-15149076D01*
X6246890Y-15149076D01*
X6227843Y-15139552D01*
X6218319Y-15120505D01*
X6218319Y-15101457D01*
X6227843Y-15082409D01*
X6246890Y-15072886D01*
X6294509Y-15072886D01*
X6313557Y-15063362D01*
X6408795Y-15015743D02*
X6408795Y-15215743D01*
X6408795Y-15025267D02*
X6427843Y-15015743D01*
X6465938Y-15015743D01*
X6484986Y-15025267D01*
X6494509Y-15034790D01*
X6504033Y-15053838D01*
X6504033Y-15110981D01*
X6494509Y-15130028D01*
X6484986Y-15139552D01*
X6465938Y-15149076D01*
X6427843Y-15149076D01*
X6408795Y-15139552D01*
X6589748Y-15130028D02*
X6599271Y-15139552D01*
X6589748Y-15149076D01*
X6580224Y-15139552D01*
X6589748Y-15130028D01*
X6589748Y-15149076D01*
X6589748Y-15025267D02*
X6599271Y-15034790D01*
X6589748Y-15044314D01*
X6580224Y-15034790D01*
X6589748Y-15025267D01*
X6589748Y-15044314D01*
D12*
X4920700Y-15458600D02*
X4960700Y-15498600D01*
X4960700Y-15458600D02*
X4920700Y-15498600D01*
D11*
X5256414Y-15369076D02*
X5275462Y-15369076D01*
X5294510Y-15378600D01*
X5304033Y-15388124D01*
X5313557Y-15407171D01*
X5323081Y-15445267D01*
X5323081Y-15492886D01*
X5313557Y-15530981D01*
X5304033Y-15550028D01*
X5294510Y-15559552D01*
X5275462Y-15569076D01*
X5256414Y-15569076D01*
X5237367Y-15559552D01*
X5227843Y-15550028D01*
X5218319Y-15530981D01*
X5208795Y-15492886D01*
X5208795Y-15445267D01*
X5218319Y-15407171D01*
X5227843Y-15388124D01*
X5237367Y-15378600D01*
X5256414Y-15369076D01*
X5408795Y-15550028D02*
X5418319Y-15559552D01*
X5408795Y-15569076D01*
X5399271Y-15559552D01*
X5408795Y-15550028D01*
X5408795Y-15569076D01*
X5589748Y-15435743D02*
X5589748Y-15569076D01*
X5542129Y-15359552D02*
X5494510Y-15502409D01*
X5618319Y-15502409D01*
X5732605Y-15369076D02*
X5751652Y-15369076D01*
X5770700Y-15378600D01*
X5780224Y-15388124D01*
X5789748Y-15407171D01*
X5799271Y-15445267D01*
X5799271Y-15492886D01*
X5789748Y-15530981D01*
X5780224Y-15550028D01*
X5770700Y-15559552D01*
X5751652Y-15569076D01*
X5732605Y-15569076D01*
X5713557Y-15559552D01*
X5704033Y-15550028D01*
X5694509Y-15530981D01*
X5684986Y-15492886D01*
X5684986Y-15445267D01*
X5694509Y-15407171D01*
X5704033Y-15388124D01*
X5713557Y-15378600D01*
X5732605Y-15369076D01*
X5923081Y-15369076D02*
X5942128Y-15369076D01*
X5961176Y-15378600D01*
X5970700Y-15388124D01*
X5980224Y-15407171D01*
X5989748Y-15445267D01*
X5989748Y-15492886D01*
X5980224Y-15530981D01*
X5970700Y-15550028D01*
X5961176Y-15559552D01*
X5942128Y-15569076D01*
X5923081Y-15569076D01*
X5904033Y-15559552D01*
X5894509Y-15550028D01*
X5884986Y-15530981D01*
X5875462Y-15492886D01*
X5875462Y-15445267D01*
X5884986Y-15407171D01*
X5894509Y-15388124D01*
X5904033Y-15378600D01*
X5923081Y-15369076D01*
X6075462Y-15569076D02*
X6075462Y-15435743D01*
X6075462Y-15454790D02*
X6084986Y-15445267D01*
X6104033Y-15435743D01*
X6132605Y-15435743D01*
X6151652Y-15445267D01*
X6161176Y-15464314D01*
X6161176Y-15569076D01*
X6161176Y-15464314D02*
X6170700Y-15445267D01*
X6189748Y-15435743D01*
X6218319Y-15435743D01*
X6237367Y-15445267D01*
X6246890Y-15464314D01*
X6246890Y-15569076D01*
X6342128Y-15569076D02*
X6342128Y-15435743D01*
X6342128Y-15454790D02*
X6351652Y-15445267D01*
X6370700Y-15435743D01*
X6399271Y-15435743D01*
X6418319Y-15445267D01*
X6427843Y-15464314D01*
X6427843Y-15569076D01*
X6427843Y-15464314D02*
X6437367Y-15445267D01*
X6456414Y-15435743D01*
X6484986Y-15435743D01*
X6504033Y-15445267D01*
X6513557Y-15464314D01*
X6513557Y-15569076D01*
X6904033Y-15359552D02*
X6732605Y-15616695D01*
X7161176Y-15369076D02*
X7180224Y-15369076D01*
X7199271Y-15378600D01*
X7208795Y-15388124D01*
X7218319Y-15407171D01*
X7227843Y-15445267D01*
X7227843Y-15492886D01*
X7218319Y-15530981D01*
X7208795Y-15550028D01*
X7199271Y-15559552D01*
X7180224Y-15569076D01*
X7161176Y-15569076D01*
X7142128Y-15559552D01*
X7132605Y-15550028D01*
X7123081Y-15530981D01*
X7113557Y-15492886D01*
X7113557Y-15445267D01*
X7123081Y-15407171D01*
X7132605Y-15388124D01*
X7142128Y-15378600D01*
X7161176Y-15369076D01*
X7313557Y-15550028D02*
X7323081Y-15559552D01*
X7313557Y-15569076D01*
X7304033Y-15559552D01*
X7313557Y-15550028D01*
X7313557Y-15569076D01*
X7446890Y-15369076D02*
X7465938Y-15369076D01*
X7484986Y-15378600D01*
X7494509Y-15388124D01*
X7504033Y-15407171D01*
X7513557Y-15445267D01*
X7513557Y-15492886D01*
X7504033Y-15530981D01*
X7494509Y-15550028D01*
X7484986Y-15559552D01*
X7465938Y-15569076D01*
X7446890Y-15569076D01*
X7427843Y-15559552D01*
X7418319Y-15550028D01*
X7408795Y-15530981D01*
X7399271Y-15492886D01*
X7399271Y-15445267D01*
X7408795Y-15407171D01*
X7418319Y-15388124D01*
X7427843Y-15378600D01*
X7446890Y-15369076D01*
X7704033Y-15569076D02*
X7589748Y-15569076D01*
X7646890Y-15569076D02*
X7646890Y-15369076D01*
X7627843Y-15397648D01*
X7608795Y-15416695D01*
X7589748Y-15426219D01*
X7884986Y-15369076D02*
X7789748Y-15369076D01*
X7780224Y-15464314D01*
X7789748Y-15454790D01*
X7808795Y-15445267D01*
X7856414Y-15445267D01*
X7875462Y-15454790D01*
X7884986Y-15464314D01*
X7894509Y-15483362D01*
X7894509Y-15530981D01*
X7884986Y-15550028D01*
X7875462Y-15559552D01*
X7856414Y-15569076D01*
X7808795Y-15569076D01*
X7789748Y-15559552D01*
X7780224Y-15550028D01*
X7961176Y-15369076D02*
X8094509Y-15369076D01*
X8008795Y-15569076D01*
X8161176Y-15369076D02*
X8161176Y-15407171D01*
X8237367Y-15369076D02*
X8237367Y-15407171D01*
X8532605Y-15645267D02*
X8523081Y-15635743D01*
X8504033Y-15607171D01*
X8494510Y-15588124D01*
X8484986Y-15559552D01*
X8475462Y-15511933D01*
X8475462Y-15473838D01*
X8484986Y-15426219D01*
X8494510Y-15397648D01*
X8504033Y-15378600D01*
X8523081Y-15350028D01*
X8532605Y-15340505D01*
X8599271Y-15388124D02*
X8608795Y-15378600D01*
X8627843Y-15369076D01*
X8675462Y-15369076D01*
X8694510Y-15378600D01*
X8704033Y-15388124D01*
X8713557Y-15407171D01*
X8713557Y-15426219D01*
X8704033Y-15454790D01*
X8589748Y-15569076D01*
X8713557Y-15569076D01*
X8951652Y-15569076D02*
X8951652Y-15369076D01*
X9037367Y-15569076D02*
X9037367Y-15464314D01*
X9027843Y-15445267D01*
X9008795Y-15435743D01*
X8980224Y-15435743D01*
X8961176Y-15445267D01*
X8951652Y-15454790D01*
X9161176Y-15569076D02*
X9142129Y-15559552D01*
X9132605Y-15550028D01*
X9123081Y-15530981D01*
X9123081Y-15473838D01*
X9132605Y-15454790D01*
X9142129Y-15445267D01*
X9161176Y-15435743D01*
X9189748Y-15435743D01*
X9208795Y-15445267D01*
X9218319Y-15454790D01*
X9227843Y-15473838D01*
X9227843Y-15530981D01*
X9218319Y-15550028D01*
X9208795Y-15559552D01*
X9189748Y-15569076D01*
X9161176Y-15569076D01*
X9342129Y-15569076D02*
X9323081Y-15559552D01*
X9313557Y-15540505D01*
X9313557Y-15369076D01*
X9494510Y-15559552D02*
X9475462Y-15569076D01*
X9437367Y-15569076D01*
X9418319Y-15559552D01*
X9408795Y-15540505D01*
X9408795Y-15464314D01*
X9418319Y-15445267D01*
X9437367Y-15435743D01*
X9475462Y-15435743D01*
X9494510Y-15445267D01*
X9504033Y-15464314D01*
X9504033Y-15483362D01*
X9408795Y-15502409D01*
X9580224Y-15559552D02*
X9599271Y-15569076D01*
X9637367Y-15569076D01*
X9656414Y-15559552D01*
X9665938Y-15540505D01*
X9665938Y-15530981D01*
X9656414Y-15511933D01*
X9637367Y-15502409D01*
X9608795Y-15502409D01*
X9589748Y-15492886D01*
X9580224Y-15473838D01*
X9580224Y-15464314D01*
X9589748Y-15445267D01*
X9608795Y-15435743D01*
X9637367Y-15435743D01*
X9656414Y-15445267D01*
X9732605Y-15645267D02*
X9742129Y-15635743D01*
X9761176Y-15607171D01*
X9770700Y-15588124D01*
X9780224Y-15559552D01*
X9789748Y-15511933D01*
X9789748Y-15473838D01*
X9780224Y-15426219D01*
X9770700Y-15397648D01*
X9761176Y-15378600D01*
X9742129Y-15350028D01*
X9732605Y-15340505D01*
D13*
X4960700Y-15742600D02*
G75*
G03*
X4960700Y-15742600I-30000J0D01*
G01*
D11*
X5256414Y-15633076D02*
X5275462Y-15633076D01*
X5294510Y-15642600D01*
X5304033Y-15652124D01*
X5313557Y-15671171D01*
X5323081Y-15709267D01*
X5323081Y-15756886D01*
X5313557Y-15794981D01*
X5304033Y-15814028D01*
X5294510Y-15823552D01*
X5275462Y-15833076D01*
X5256414Y-15833076D01*
X5237367Y-15823552D01*
X5227843Y-15814028D01*
X5218319Y-15794981D01*
X5208795Y-15756886D01*
X5208795Y-15709267D01*
X5218319Y-15671171D01*
X5227843Y-15652124D01*
X5237367Y-15642600D01*
X5256414Y-15633076D01*
X5408795Y-15814028D02*
X5418319Y-15823552D01*
X5408795Y-15833076D01*
X5399271Y-15823552D01*
X5408795Y-15814028D01*
X5408795Y-15833076D01*
X5589748Y-15633076D02*
X5551652Y-15633076D01*
X5532605Y-15642600D01*
X5523081Y-15652124D01*
X5504033Y-15680695D01*
X5494510Y-15718790D01*
X5494510Y-15794981D01*
X5504033Y-15814028D01*
X5513557Y-15823552D01*
X5532605Y-15833076D01*
X5570700Y-15833076D01*
X5589748Y-15823552D01*
X5599271Y-15814028D01*
X5608795Y-15794981D01*
X5608795Y-15747362D01*
X5599271Y-15728314D01*
X5589748Y-15718790D01*
X5570700Y-15709267D01*
X5532605Y-15709267D01*
X5513557Y-15718790D01*
X5504033Y-15728314D01*
X5494510Y-15747362D01*
X5732605Y-15633076D02*
X5751652Y-15633076D01*
X5770700Y-15642600D01*
X5780224Y-15652124D01*
X5789748Y-15671171D01*
X5799271Y-15709267D01*
X5799271Y-15756886D01*
X5789748Y-15794981D01*
X5780224Y-15814028D01*
X5770700Y-15823552D01*
X5751652Y-15833076D01*
X5732605Y-15833076D01*
X5713557Y-15823552D01*
X5704033Y-15814028D01*
X5694509Y-15794981D01*
X5684986Y-15756886D01*
X5684986Y-15709267D01*
X5694509Y-15671171D01*
X5704033Y-15652124D01*
X5713557Y-15642600D01*
X5732605Y-15633076D01*
X5923081Y-15633076D02*
X5942128Y-15633076D01*
X5961176Y-15642600D01*
X5970700Y-15652124D01*
X5980224Y-15671171D01*
X5989748Y-15709267D01*
X5989748Y-15756886D01*
X5980224Y-15794981D01*
X5970700Y-15814028D01*
X5961176Y-15823552D01*
X5942128Y-15833076D01*
X5923081Y-15833076D01*
X5904033Y-15823552D01*
X5894509Y-15814028D01*
X5884986Y-15794981D01*
X5875462Y-15756886D01*
X5875462Y-15709267D01*
X5884986Y-15671171D01*
X5894509Y-15652124D01*
X5904033Y-15642600D01*
X5923081Y-15633076D01*
X6075462Y-15833076D02*
X6075462Y-15699743D01*
X6075462Y-15718790D02*
X6084986Y-15709267D01*
X6104033Y-15699743D01*
X6132605Y-15699743D01*
X6151652Y-15709267D01*
X6161176Y-15728314D01*
X6161176Y-15833076D01*
X6161176Y-15728314D02*
X6170700Y-15709267D01*
X6189748Y-15699743D01*
X6218319Y-15699743D01*
X6237367Y-15709267D01*
X6246890Y-15728314D01*
X6246890Y-15833076D01*
X6342128Y-15833076D02*
X6342128Y-15699743D01*
X6342128Y-15718790D02*
X6351652Y-15709267D01*
X6370700Y-15699743D01*
X6399271Y-15699743D01*
X6418319Y-15709267D01*
X6427843Y-15728314D01*
X6427843Y-15833076D01*
X6427843Y-15728314D02*
X6437367Y-15709267D01*
X6456414Y-15699743D01*
X6484986Y-15699743D01*
X6504033Y-15709267D01*
X6513557Y-15728314D01*
X6513557Y-15833076D01*
X6904033Y-15623552D02*
X6732605Y-15880695D01*
X7161176Y-15633076D02*
X7180224Y-15633076D01*
X7199271Y-15642600D01*
X7208795Y-15652124D01*
X7218319Y-15671171D01*
X7227843Y-15709267D01*
X7227843Y-15756886D01*
X7218319Y-15794981D01*
X7208795Y-15814028D01*
X7199271Y-15823552D01*
X7180224Y-15833076D01*
X7161176Y-15833076D01*
X7142128Y-15823552D01*
X7132605Y-15814028D01*
X7123081Y-15794981D01*
X7113557Y-15756886D01*
X7113557Y-15709267D01*
X7123081Y-15671171D01*
X7132605Y-15652124D01*
X7142128Y-15642600D01*
X7161176Y-15633076D01*
X7313557Y-15814028D02*
X7323081Y-15823552D01*
X7313557Y-15833076D01*
X7304033Y-15823552D01*
X7313557Y-15814028D01*
X7313557Y-15833076D01*
X7446890Y-15633076D02*
X7465938Y-15633076D01*
X7484986Y-15642600D01*
X7494509Y-15652124D01*
X7504033Y-15671171D01*
X7513557Y-15709267D01*
X7513557Y-15756886D01*
X7504033Y-15794981D01*
X7494509Y-15814028D01*
X7484986Y-15823552D01*
X7465938Y-15833076D01*
X7446890Y-15833076D01*
X7427843Y-15823552D01*
X7418319Y-15814028D01*
X7408795Y-15794981D01*
X7399271Y-15756886D01*
X7399271Y-15709267D01*
X7408795Y-15671171D01*
X7418319Y-15652124D01*
X7427843Y-15642600D01*
X7446890Y-15633076D01*
X7589748Y-15652124D02*
X7599271Y-15642600D01*
X7618319Y-15633076D01*
X7665938Y-15633076D01*
X7684986Y-15642600D01*
X7694509Y-15652124D01*
X7704033Y-15671171D01*
X7704033Y-15690219D01*
X7694509Y-15718790D01*
X7580224Y-15833076D01*
X7704033Y-15833076D01*
X7770700Y-15633076D02*
X7894509Y-15633076D01*
X7827843Y-15709267D01*
X7856414Y-15709267D01*
X7875462Y-15718790D01*
X7884986Y-15728314D01*
X7894509Y-15747362D01*
X7894509Y-15794981D01*
X7884986Y-15814028D01*
X7875462Y-15823552D01*
X7856414Y-15833076D01*
X7799271Y-15833076D01*
X7780224Y-15823552D01*
X7770700Y-15814028D01*
X8065938Y-15633076D02*
X8027843Y-15633076D01*
X8008795Y-15642600D01*
X7999271Y-15652124D01*
X7980224Y-15680695D01*
X7970700Y-15718790D01*
X7970700Y-15794981D01*
X7980224Y-15814028D01*
X7989748Y-15823552D01*
X8008795Y-15833076D01*
X8046890Y-15833076D01*
X8065938Y-15823552D01*
X8075462Y-15814028D01*
X8084986Y-15794981D01*
X8084986Y-15747362D01*
X8075462Y-15728314D01*
X8065938Y-15718790D01*
X8046890Y-15709267D01*
X8008795Y-15709267D01*
X7989748Y-15718790D01*
X7980224Y-15728314D01*
X7970700Y-15747362D01*
X8161176Y-15633076D02*
X8161176Y-15671171D01*
X8237367Y-15633076D02*
X8237367Y-15671171D01*
X8532605Y-15909267D02*
X8523081Y-15899743D01*
X8504033Y-15871171D01*
X8494510Y-15852124D01*
X8484986Y-15823552D01*
X8475462Y-15775933D01*
X8475462Y-15737838D01*
X8484986Y-15690219D01*
X8494510Y-15661648D01*
X8504033Y-15642600D01*
X8523081Y-15614028D01*
X8532605Y-15604505D01*
X8713557Y-15833076D02*
X8599271Y-15833076D01*
X8656414Y-15833076D02*
X8656414Y-15633076D01*
X8637367Y-15661648D01*
X8618319Y-15680695D01*
X8599271Y-15690219D01*
X8837367Y-15633076D02*
X8856414Y-15633076D01*
X8875462Y-15642600D01*
X8884986Y-15652124D01*
X8894510Y-15671171D01*
X8904033Y-15709267D01*
X8904033Y-15756886D01*
X8894510Y-15794981D01*
X8884986Y-15814028D01*
X8875462Y-15823552D01*
X8856414Y-15833076D01*
X8837367Y-15833076D01*
X8818319Y-15823552D01*
X8808795Y-15814028D01*
X8799271Y-15794981D01*
X8789748Y-15756886D01*
X8789748Y-15709267D01*
X8799271Y-15671171D01*
X8808795Y-15652124D01*
X8818319Y-15642600D01*
X8837367Y-15633076D01*
X9142129Y-15833076D02*
X9142129Y-15633076D01*
X9227843Y-15833076D02*
X9227843Y-15728314D01*
X9218319Y-15709267D01*
X9199271Y-15699743D01*
X9170700Y-15699743D01*
X9151652Y-15709267D01*
X9142129Y-15718790D01*
X9351652Y-15833076D02*
X9332605Y-15823552D01*
X9323081Y-15814028D01*
X9313557Y-15794981D01*
X9313557Y-15737838D01*
X9323081Y-15718790D01*
X9332605Y-15709267D01*
X9351652Y-15699743D01*
X9380224Y-15699743D01*
X9399271Y-15709267D01*
X9408795Y-15718790D01*
X9418319Y-15737838D01*
X9418319Y-15794981D01*
X9408795Y-15814028D01*
X9399271Y-15823552D01*
X9380224Y-15833076D01*
X9351652Y-15833076D01*
X9532605Y-15833076D02*
X9513557Y-15823552D01*
X9504033Y-15804505D01*
X9504033Y-15633076D01*
X9684986Y-15823552D02*
X9665938Y-15833076D01*
X9627843Y-15833076D01*
X9608795Y-15823552D01*
X9599271Y-15804505D01*
X9599271Y-15728314D01*
X9608795Y-15709267D01*
X9627843Y-15699743D01*
X9665938Y-15699743D01*
X9684986Y-15709267D01*
X9694510Y-15728314D01*
X9694510Y-15747362D01*
X9599271Y-15766409D01*
X9770700Y-15823552D02*
X9789748Y-15833076D01*
X9827843Y-15833076D01*
X9846890Y-15823552D01*
X9856414Y-15804505D01*
X9856414Y-15794981D01*
X9846890Y-15775933D01*
X9827843Y-15766409D01*
X9799271Y-15766409D01*
X9780224Y-15756886D01*
X9770700Y-15737838D01*
X9770700Y-15728314D01*
X9780224Y-15709267D01*
X9799271Y-15699743D01*
X9827843Y-15699743D01*
X9846890Y-15709267D01*
X9923081Y-15909267D02*
X9932605Y-15899743D01*
X9951652Y-15871171D01*
X9961176Y-15852124D01*
X9970700Y-15823552D01*
X9980224Y-15775933D01*
X9980224Y-15737838D01*
X9970700Y-15690219D01*
X9961176Y-15661648D01*
X9951652Y-15642600D01*
X9932605Y-15614028D01*
X9923081Y-15604505D01*
D14*
X4920700Y-15966600D02*
X4920700Y-16046600D01*
X4880700Y-16006600D02*
X4960700Y-16006600D01*
D11*
X5256414Y-15897076D02*
X5275462Y-15897076D01*
X5294510Y-15906600D01*
X5304033Y-15916124D01*
X5313557Y-15935171D01*
X5323081Y-15973267D01*
X5323081Y-16020886D01*
X5313557Y-16058981D01*
X5304033Y-16078028D01*
X5294510Y-16087552D01*
X5275462Y-16097076D01*
X5256414Y-16097076D01*
X5237367Y-16087552D01*
X5227843Y-16078028D01*
X5218319Y-16058981D01*
X5208795Y-16020886D01*
X5208795Y-15973267D01*
X5218319Y-15935171D01*
X5227843Y-15916124D01*
X5237367Y-15906600D01*
X5256414Y-15897076D01*
X5408795Y-16078028D02*
X5418319Y-16087552D01*
X5408795Y-16097076D01*
X5399271Y-16087552D01*
X5408795Y-16078028D01*
X5408795Y-16097076D01*
X5532605Y-15982790D02*
X5513557Y-15973267D01*
X5504033Y-15963743D01*
X5494510Y-15944695D01*
X5494510Y-15935171D01*
X5504033Y-15916124D01*
X5513557Y-15906600D01*
X5532605Y-15897076D01*
X5570700Y-15897076D01*
X5589748Y-15906600D01*
X5599271Y-15916124D01*
X5608795Y-15935171D01*
X5608795Y-15944695D01*
X5599271Y-15963743D01*
X5589748Y-15973267D01*
X5570700Y-15982790D01*
X5532605Y-15982790D01*
X5513557Y-15992314D01*
X5504033Y-16001838D01*
X5494510Y-16020886D01*
X5494510Y-16058981D01*
X5504033Y-16078028D01*
X5513557Y-16087552D01*
X5532605Y-16097076D01*
X5570700Y-16097076D01*
X5589748Y-16087552D01*
X5599271Y-16078028D01*
X5608795Y-16058981D01*
X5608795Y-16020886D01*
X5599271Y-16001838D01*
X5589748Y-15992314D01*
X5570700Y-15982790D01*
X5732605Y-15897076D02*
X5751652Y-15897076D01*
X5770700Y-15906600D01*
X5780224Y-15916124D01*
X5789748Y-15935171D01*
X5799271Y-15973267D01*
X5799271Y-16020886D01*
X5789748Y-16058981D01*
X5780224Y-16078028D01*
X5770700Y-16087552D01*
X5751652Y-16097076D01*
X5732605Y-16097076D01*
X5713557Y-16087552D01*
X5704033Y-16078028D01*
X5694509Y-16058981D01*
X5684986Y-16020886D01*
X5684986Y-15973267D01*
X5694509Y-15935171D01*
X5704033Y-15916124D01*
X5713557Y-15906600D01*
X5732605Y-15897076D01*
X5923081Y-15897076D02*
X5942128Y-15897076D01*
X5961176Y-15906600D01*
X5970700Y-15916124D01*
X5980224Y-15935171D01*
X5989748Y-15973267D01*
X5989748Y-16020886D01*
X5980224Y-16058981D01*
X5970700Y-16078028D01*
X5961176Y-16087552D01*
X5942128Y-16097076D01*
X5923081Y-16097076D01*
X5904033Y-16087552D01*
X5894509Y-16078028D01*
X5884986Y-16058981D01*
X5875462Y-16020886D01*
X5875462Y-15973267D01*
X5884986Y-15935171D01*
X5894509Y-15916124D01*
X5904033Y-15906600D01*
X5923081Y-15897076D01*
X6075462Y-16097076D02*
X6075462Y-15963743D01*
X6075462Y-15982790D02*
X6084986Y-15973267D01*
X6104033Y-15963743D01*
X6132605Y-15963743D01*
X6151652Y-15973267D01*
X6161176Y-15992314D01*
X6161176Y-16097076D01*
X6161176Y-15992314D02*
X6170700Y-15973267D01*
X6189748Y-15963743D01*
X6218319Y-15963743D01*
X6237367Y-15973267D01*
X6246890Y-15992314D01*
X6246890Y-16097076D01*
X6342128Y-16097076D02*
X6342128Y-15963743D01*
X6342128Y-15982790D02*
X6351652Y-15973267D01*
X6370700Y-15963743D01*
X6399271Y-15963743D01*
X6418319Y-15973267D01*
X6427843Y-15992314D01*
X6427843Y-16097076D01*
X6427843Y-15992314D02*
X6437367Y-15973267D01*
X6456414Y-15963743D01*
X6484986Y-15963743D01*
X6504033Y-15973267D01*
X6513557Y-15992314D01*
X6513557Y-16097076D01*
X6904033Y-15887552D02*
X6732605Y-16144695D01*
X7161176Y-15897076D02*
X7180224Y-15897076D01*
X7199271Y-15906600D01*
X7208795Y-15916124D01*
X7218319Y-15935171D01*
X7227843Y-15973267D01*
X7227843Y-16020886D01*
X7218319Y-16058981D01*
X7208795Y-16078028D01*
X7199271Y-16087552D01*
X7180224Y-16097076D01*
X7161176Y-16097076D01*
X7142128Y-16087552D01*
X7132605Y-16078028D01*
X7123081Y-16058981D01*
X7113557Y-16020886D01*
X7113557Y-15973267D01*
X7123081Y-15935171D01*
X7132605Y-15916124D01*
X7142128Y-15906600D01*
X7161176Y-15897076D01*
X7313557Y-16078028D02*
X7323081Y-16087552D01*
X7313557Y-16097076D01*
X7304033Y-16087552D01*
X7313557Y-16078028D01*
X7313557Y-16097076D01*
X7446890Y-15897076D02*
X7465938Y-15897076D01*
X7484986Y-15906600D01*
X7494509Y-15916124D01*
X7504033Y-15935171D01*
X7513557Y-15973267D01*
X7513557Y-16020886D01*
X7504033Y-16058981D01*
X7494509Y-16078028D01*
X7484986Y-16087552D01*
X7465938Y-16097076D01*
X7446890Y-16097076D01*
X7427843Y-16087552D01*
X7418319Y-16078028D01*
X7408795Y-16058981D01*
X7399271Y-16020886D01*
X7399271Y-15973267D01*
X7408795Y-15935171D01*
X7418319Y-15916124D01*
X7427843Y-15906600D01*
X7446890Y-15897076D01*
X7580224Y-15897076D02*
X7704033Y-15897076D01*
X7637367Y-15973267D01*
X7665938Y-15973267D01*
X7684986Y-15982790D01*
X7694509Y-15992314D01*
X7704033Y-16011362D01*
X7704033Y-16058981D01*
X7694509Y-16078028D01*
X7684986Y-16087552D01*
X7665938Y-16097076D01*
X7608795Y-16097076D01*
X7589748Y-16087552D01*
X7580224Y-16078028D01*
X7894509Y-16097076D02*
X7780224Y-16097076D01*
X7837367Y-16097076D02*
X7837367Y-15897076D01*
X7818319Y-15925648D01*
X7799271Y-15944695D01*
X7780224Y-15954219D01*
X8075462Y-15897076D02*
X7980224Y-15897076D01*
X7970700Y-15992314D01*
X7980224Y-15982790D01*
X7999271Y-15973267D01*
X8046890Y-15973267D01*
X8065938Y-15982790D01*
X8075462Y-15992314D01*
X8084986Y-16011362D01*
X8084986Y-16058981D01*
X8075462Y-16078028D01*
X8065938Y-16087552D01*
X8046890Y-16097076D01*
X7999271Y-16097076D01*
X7980224Y-16087552D01*
X7970700Y-16078028D01*
X8161176Y-15897076D02*
X8161176Y-15935171D01*
X8237367Y-15897076D02*
X8237367Y-15935171D01*
X8532605Y-16173267D02*
X8523081Y-16163743D01*
X8504033Y-16135171D01*
X8494510Y-16116124D01*
X8484986Y-16087552D01*
X8475462Y-16039933D01*
X8475462Y-16001838D01*
X8484986Y-15954219D01*
X8494510Y-15925648D01*
X8504033Y-15906600D01*
X8523081Y-15878028D01*
X8532605Y-15868505D01*
X8637367Y-15982790D02*
X8618319Y-15973267D01*
X8608795Y-15963743D01*
X8599271Y-15944695D01*
X8599271Y-15935171D01*
X8608795Y-15916124D01*
X8618319Y-15906600D01*
X8637367Y-15897076D01*
X8675462Y-15897076D01*
X8694510Y-15906600D01*
X8704033Y-15916124D01*
X8713557Y-15935171D01*
X8713557Y-15944695D01*
X8704033Y-15963743D01*
X8694510Y-15973267D01*
X8675462Y-15982790D01*
X8637367Y-15982790D01*
X8618319Y-15992314D01*
X8608795Y-16001838D01*
X8599271Y-16020886D01*
X8599271Y-16058981D01*
X8608795Y-16078028D01*
X8618319Y-16087552D01*
X8637367Y-16097076D01*
X8675462Y-16097076D01*
X8694510Y-16087552D01*
X8704033Y-16078028D01*
X8713557Y-16058981D01*
X8713557Y-16020886D01*
X8704033Y-16001838D01*
X8694510Y-15992314D01*
X8675462Y-15982790D01*
X8789748Y-15916124D02*
X8799271Y-15906600D01*
X8818319Y-15897076D01*
X8865938Y-15897076D01*
X8884986Y-15906600D01*
X8894510Y-15916124D01*
X8904033Y-15935171D01*
X8904033Y-15954219D01*
X8894510Y-15982790D01*
X8780224Y-16097076D01*
X8904033Y-16097076D01*
X9142129Y-16097076D02*
X9142129Y-15897076D01*
X9227843Y-16097076D02*
X9227843Y-15992314D01*
X9218319Y-15973267D01*
X9199271Y-15963743D01*
X9170700Y-15963743D01*
X9151652Y-15973267D01*
X9142129Y-15982790D01*
X9351652Y-16097076D02*
X9332605Y-16087552D01*
X9323081Y-16078028D01*
X9313557Y-16058981D01*
X9313557Y-16001838D01*
X9323081Y-15982790D01*
X9332605Y-15973267D01*
X9351652Y-15963743D01*
X9380224Y-15963743D01*
X9399271Y-15973267D01*
X9408795Y-15982790D01*
X9418319Y-16001838D01*
X9418319Y-16058981D01*
X9408795Y-16078028D01*
X9399271Y-16087552D01*
X9380224Y-16097076D01*
X9351652Y-16097076D01*
X9532605Y-16097076D02*
X9513557Y-16087552D01*
X9504033Y-16068505D01*
X9504033Y-15897076D01*
X9684986Y-16087552D02*
X9665938Y-16097076D01*
X9627843Y-16097076D01*
X9608795Y-16087552D01*
X9599271Y-16068505D01*
X9599271Y-15992314D01*
X9608795Y-15973267D01*
X9627843Y-15963743D01*
X9665938Y-15963743D01*
X9684986Y-15973267D01*
X9694510Y-15992314D01*
X9694510Y-16011362D01*
X9599271Y-16030409D01*
X9770700Y-16087552D02*
X9789748Y-16097076D01*
X9827843Y-16097076D01*
X9846890Y-16087552D01*
X9856414Y-16068505D01*
X9856414Y-16058981D01*
X9846890Y-16039933D01*
X9827843Y-16030409D01*
X9799271Y-16030409D01*
X9780224Y-16020886D01*
X9770700Y-16001838D01*
X9770700Y-15992314D01*
X9780224Y-15973267D01*
X9799271Y-15963743D01*
X9827843Y-15963743D01*
X9846890Y-15973267D01*
X9923081Y-16173267D02*
X9932605Y-16163743D01*
X9951652Y-16135171D01*
X9961176Y-16116124D01*
X9970700Y-16087552D01*
X9980224Y-16039933D01*
X9980224Y-16001838D01*
X9970700Y-15954219D01*
X9961176Y-15925648D01*
X9951652Y-15906600D01*
X9932605Y-15878028D01*
X9923081Y-15868505D01*
D15*
X4947681Y-16302031D02*
X4947681Y-16239169D01*
X4884819Y-16239169D01*
X4884819Y-16302031D01*
X4947681Y-16302031D01*
D11*
X5256414Y-16161076D02*
X5275462Y-16161076D01*
X5294510Y-16170600D01*
X5304033Y-16180124D01*
X5313557Y-16199171D01*
X5323081Y-16237267D01*
X5323081Y-16284886D01*
X5313557Y-16322981D01*
X5304033Y-16342028D01*
X5294510Y-16351552D01*
X5275462Y-16361076D01*
X5256414Y-16361076D01*
X5237367Y-16351552D01*
X5227843Y-16342028D01*
X5218319Y-16322981D01*
X5208795Y-16284886D01*
X5208795Y-16237267D01*
X5218319Y-16199171D01*
X5227843Y-16180124D01*
X5237367Y-16170600D01*
X5256414Y-16161076D01*
X5408795Y-16342028D02*
X5418319Y-16351552D01*
X5408795Y-16361076D01*
X5399271Y-16351552D01*
X5408795Y-16342028D01*
X5408795Y-16361076D01*
X5532605Y-16246790D02*
X5513557Y-16237267D01*
X5504033Y-16227743D01*
X5494510Y-16208695D01*
X5494510Y-16199171D01*
X5504033Y-16180124D01*
X5513557Y-16170600D01*
X5532605Y-16161076D01*
X5570700Y-16161076D01*
X5589748Y-16170600D01*
X5599271Y-16180124D01*
X5608795Y-16199171D01*
X5608795Y-16208695D01*
X5599271Y-16227743D01*
X5589748Y-16237267D01*
X5570700Y-16246790D01*
X5532605Y-16246790D01*
X5513557Y-16256314D01*
X5504033Y-16265838D01*
X5494510Y-16284886D01*
X5494510Y-16322981D01*
X5504033Y-16342028D01*
X5513557Y-16351552D01*
X5532605Y-16361076D01*
X5570700Y-16361076D01*
X5589748Y-16351552D01*
X5599271Y-16342028D01*
X5608795Y-16322981D01*
X5608795Y-16284886D01*
X5599271Y-16265838D01*
X5589748Y-16256314D01*
X5570700Y-16246790D01*
X5723081Y-16246790D02*
X5704033Y-16237267D01*
X5694509Y-16227743D01*
X5684986Y-16208695D01*
X5684986Y-16199171D01*
X5694509Y-16180124D01*
X5704033Y-16170600D01*
X5723081Y-16161076D01*
X5761176Y-16161076D01*
X5780224Y-16170600D01*
X5789748Y-16180124D01*
X5799271Y-16199171D01*
X5799271Y-16208695D01*
X5789748Y-16227743D01*
X5780224Y-16237267D01*
X5761176Y-16246790D01*
X5723081Y-16246790D01*
X5704033Y-16256314D01*
X5694509Y-16265838D01*
X5684986Y-16284886D01*
X5684986Y-16322981D01*
X5694509Y-16342028D01*
X5704033Y-16351552D01*
X5723081Y-16361076D01*
X5761176Y-16361076D01*
X5780224Y-16351552D01*
X5789748Y-16342028D01*
X5799271Y-16322981D01*
X5799271Y-16284886D01*
X5789748Y-16265838D01*
X5780224Y-16256314D01*
X5761176Y-16246790D01*
X5894509Y-16361076D02*
X5932605Y-16361076D01*
X5951652Y-16351552D01*
X5961176Y-16342028D01*
X5980224Y-16313457D01*
X5989748Y-16275362D01*
X5989748Y-16199171D01*
X5980224Y-16180124D01*
X5970700Y-16170600D01*
X5951652Y-16161076D01*
X5913557Y-16161076D01*
X5894509Y-16170600D01*
X5884986Y-16180124D01*
X5875462Y-16199171D01*
X5875462Y-16246790D01*
X5884986Y-16265838D01*
X5894509Y-16275362D01*
X5913557Y-16284886D01*
X5951652Y-16284886D01*
X5970700Y-16275362D01*
X5980224Y-16265838D01*
X5989748Y-16246790D01*
X6075462Y-16361076D02*
X6075462Y-16227743D01*
X6075462Y-16246790D02*
X6084986Y-16237267D01*
X6104033Y-16227743D01*
X6132605Y-16227743D01*
X6151652Y-16237267D01*
X6161176Y-16256314D01*
X6161176Y-16361076D01*
X6161176Y-16256314D02*
X6170700Y-16237267D01*
X6189748Y-16227743D01*
X6218319Y-16227743D01*
X6237367Y-16237267D01*
X6246890Y-16256314D01*
X6246890Y-16361076D01*
X6342128Y-16361076D02*
X6342128Y-16227743D01*
X6342128Y-16246790D02*
X6351652Y-16237267D01*
X6370700Y-16227743D01*
X6399271Y-16227743D01*
X6418319Y-16237267D01*
X6427843Y-16256314D01*
X6427843Y-16361076D01*
X6427843Y-16256314D02*
X6437367Y-16237267D01*
X6456414Y-16227743D01*
X6484986Y-16227743D01*
X6504033Y-16237267D01*
X6513557Y-16256314D01*
X6513557Y-16361076D01*
X6904033Y-16151552D02*
X6732605Y-16408695D01*
X7161176Y-16161076D02*
X7180224Y-16161076D01*
X7199271Y-16170600D01*
X7208795Y-16180124D01*
X7218319Y-16199171D01*
X7227843Y-16237267D01*
X7227843Y-16284886D01*
X7218319Y-16322981D01*
X7208795Y-16342028D01*
X7199271Y-16351552D01*
X7180224Y-16361076D01*
X7161176Y-16361076D01*
X7142128Y-16351552D01*
X7132605Y-16342028D01*
X7123081Y-16322981D01*
X7113557Y-16284886D01*
X7113557Y-16237267D01*
X7123081Y-16199171D01*
X7132605Y-16180124D01*
X7142128Y-16170600D01*
X7161176Y-16161076D01*
X7313557Y-16342028D02*
X7323081Y-16351552D01*
X7313557Y-16361076D01*
X7304033Y-16351552D01*
X7313557Y-16342028D01*
X7313557Y-16361076D01*
X7446890Y-16161076D02*
X7465938Y-16161076D01*
X7484986Y-16170600D01*
X7494509Y-16180124D01*
X7504033Y-16199171D01*
X7513557Y-16237267D01*
X7513557Y-16284886D01*
X7504033Y-16322981D01*
X7494509Y-16342028D01*
X7484986Y-16351552D01*
X7465938Y-16361076D01*
X7446890Y-16361076D01*
X7427843Y-16351552D01*
X7418319Y-16342028D01*
X7408795Y-16322981D01*
X7399271Y-16284886D01*
X7399271Y-16237267D01*
X7408795Y-16199171D01*
X7418319Y-16180124D01*
X7427843Y-16170600D01*
X7446890Y-16161076D01*
X7580224Y-16161076D02*
X7704033Y-16161076D01*
X7637367Y-16237267D01*
X7665938Y-16237267D01*
X7684986Y-16246790D01*
X7694509Y-16256314D01*
X7704033Y-16275362D01*
X7704033Y-16322981D01*
X7694509Y-16342028D01*
X7684986Y-16351552D01*
X7665938Y-16361076D01*
X7608795Y-16361076D01*
X7589748Y-16351552D01*
X7580224Y-16342028D01*
X7884986Y-16161076D02*
X7789748Y-16161076D01*
X7780224Y-16256314D01*
X7789748Y-16246790D01*
X7808795Y-16237267D01*
X7856414Y-16237267D01*
X7875462Y-16246790D01*
X7884986Y-16256314D01*
X7894509Y-16275362D01*
X7894509Y-16322981D01*
X7884986Y-16342028D01*
X7875462Y-16351552D01*
X7856414Y-16361076D01*
X7808795Y-16361076D01*
X7789748Y-16351552D01*
X7780224Y-16342028D01*
X8018319Y-16161076D02*
X8037367Y-16161076D01*
X8056414Y-16170600D01*
X8065938Y-16180124D01*
X8075462Y-16199171D01*
X8084986Y-16237267D01*
X8084986Y-16284886D01*
X8075462Y-16322981D01*
X8065938Y-16342028D01*
X8056414Y-16351552D01*
X8037367Y-16361076D01*
X8018319Y-16361076D01*
X7999271Y-16351552D01*
X7989748Y-16342028D01*
X7980224Y-16322981D01*
X7970700Y-16284886D01*
X7970700Y-16237267D01*
X7980224Y-16199171D01*
X7989748Y-16180124D01*
X7999271Y-16170600D01*
X8018319Y-16161076D01*
X8161176Y-16161076D02*
X8161176Y-16199171D01*
X8237367Y-16161076D02*
X8237367Y-16199171D01*
X8532605Y-16437267D02*
X8523081Y-16427743D01*
X8504033Y-16399171D01*
X8494510Y-16380124D01*
X8484986Y-16351552D01*
X8475462Y-16303933D01*
X8475462Y-16265838D01*
X8484986Y-16218219D01*
X8494510Y-16189648D01*
X8504033Y-16170600D01*
X8523081Y-16142028D01*
X8532605Y-16132505D01*
X8589748Y-16161076D02*
X8713557Y-16161076D01*
X8646890Y-16237267D01*
X8675462Y-16237267D01*
X8694510Y-16246790D01*
X8704033Y-16256314D01*
X8713557Y-16275362D01*
X8713557Y-16322981D01*
X8704033Y-16342028D01*
X8694510Y-16351552D01*
X8675462Y-16361076D01*
X8618319Y-16361076D01*
X8599271Y-16351552D01*
X8589748Y-16342028D01*
X8789748Y-16180124D02*
X8799271Y-16170600D01*
X8818319Y-16161076D01*
X8865938Y-16161076D01*
X8884986Y-16170600D01*
X8894510Y-16180124D01*
X8904033Y-16199171D01*
X8904033Y-16218219D01*
X8894510Y-16246790D01*
X8780224Y-16361076D01*
X8904033Y-16361076D01*
X9142129Y-16361076D02*
X9142129Y-16161076D01*
X9227843Y-16361076D02*
X9227843Y-16256314D01*
X9218319Y-16237267D01*
X9199271Y-16227743D01*
X9170700Y-16227743D01*
X9151652Y-16237267D01*
X9142129Y-16246790D01*
X9351652Y-16361076D02*
X9332605Y-16351552D01*
X9323081Y-16342028D01*
X9313557Y-16322981D01*
X9313557Y-16265838D01*
X9323081Y-16246790D01*
X9332605Y-16237267D01*
X9351652Y-16227743D01*
X9380224Y-16227743D01*
X9399271Y-16237267D01*
X9408795Y-16246790D01*
X9418319Y-16265838D01*
X9418319Y-16322981D01*
X9408795Y-16342028D01*
X9399271Y-16351552D01*
X9380224Y-16361076D01*
X9351652Y-16361076D01*
X9532605Y-16361076D02*
X9513557Y-16351552D01*
X9504033Y-16332505D01*
X9504033Y-16161076D01*
X9684986Y-16351552D02*
X9665938Y-16361076D01*
X9627843Y-16361076D01*
X9608795Y-16351552D01*
X9599271Y-16332505D01*
X9599271Y-16256314D01*
X9608795Y-16237267D01*
X9627843Y-16227743D01*
X9665938Y-16227743D01*
X9684986Y-16237267D01*
X9694510Y-16256314D01*
X9694510Y-16275362D01*
X9599271Y-16294409D01*
X9770700Y-16351552D02*
X9789748Y-16361076D01*
X9827843Y-16361076D01*
X9846890Y-16351552D01*
X9856414Y-16332505D01*
X9856414Y-16322981D01*
X9846890Y-16303933D01*
X9827843Y-16294409D01*
X9799271Y-16294409D01*
X9780224Y-16284886D01*
X9770700Y-16265838D01*
X9770700Y-16256314D01*
X9780224Y-16237267D01*
X9799271Y-16227743D01*
X9827843Y-16227743D01*
X9846890Y-16237267D01*
X9923081Y-16437267D02*
X9932605Y-16427743D01*
X9951652Y-16399171D01*
X9961176Y-16380124D01*
X9970700Y-16351552D01*
X9980224Y-16303933D01*
X9980224Y-16265838D01*
X9970700Y-16218219D01*
X9961176Y-16189648D01*
X9951652Y-16170600D01*
X9932605Y-16142028D01*
X9923081Y-16132505D01*
D16*
X4910700Y-16584600D02*
X4960700Y-16534600D01*
X4910700Y-16484600D01*
X4860700Y-16534600D01*
X4910700Y-16584600D01*
D11*
X5323081Y-16625076D02*
X5208795Y-16625076D01*
X5265938Y-16625076D02*
X5265938Y-16425076D01*
X5246890Y-16453648D01*
X5227843Y-16472695D01*
X5208795Y-16482219D01*
X5408795Y-16606028D02*
X5418319Y-16615552D01*
X5408795Y-16625076D01*
X5399271Y-16615552D01*
X5408795Y-16606028D01*
X5408795Y-16625076D01*
X5542129Y-16425076D02*
X5561176Y-16425076D01*
X5580224Y-16434600D01*
X5589748Y-16444124D01*
X5599271Y-16463171D01*
X5608795Y-16501267D01*
X5608795Y-16548886D01*
X5599271Y-16586981D01*
X5589748Y-16606028D01*
X5580224Y-16615552D01*
X5561176Y-16625076D01*
X5542129Y-16625076D01*
X5523081Y-16615552D01*
X5513557Y-16606028D01*
X5504033Y-16586981D01*
X5494510Y-16548886D01*
X5494510Y-16501267D01*
X5504033Y-16463171D01*
X5513557Y-16444124D01*
X5523081Y-16434600D01*
X5542129Y-16425076D01*
X5732605Y-16425076D02*
X5751652Y-16425076D01*
X5770700Y-16434600D01*
X5780224Y-16444124D01*
X5789748Y-16463171D01*
X5799271Y-16501267D01*
X5799271Y-16548886D01*
X5789748Y-16586981D01*
X5780224Y-16606028D01*
X5770700Y-16615552D01*
X5751652Y-16625076D01*
X5732605Y-16625076D01*
X5713557Y-16615552D01*
X5704033Y-16606028D01*
X5694509Y-16586981D01*
X5684986Y-16548886D01*
X5684986Y-16501267D01*
X5694509Y-16463171D01*
X5704033Y-16444124D01*
X5713557Y-16434600D01*
X5732605Y-16425076D01*
X5923081Y-16425076D02*
X5942128Y-16425076D01*
X5961176Y-16434600D01*
X5970700Y-16444124D01*
X5980224Y-16463171D01*
X5989748Y-16501267D01*
X5989748Y-16548886D01*
X5980224Y-16586981D01*
X5970700Y-16606028D01*
X5961176Y-16615552D01*
X5942128Y-16625076D01*
X5923081Y-16625076D01*
X5904033Y-16615552D01*
X5894509Y-16606028D01*
X5884986Y-16586981D01*
X5875462Y-16548886D01*
X5875462Y-16501267D01*
X5884986Y-16463171D01*
X5894509Y-16444124D01*
X5904033Y-16434600D01*
X5923081Y-16425076D01*
X6075462Y-16625076D02*
X6075462Y-16491743D01*
X6075462Y-16510790D02*
X6084986Y-16501267D01*
X6104033Y-16491743D01*
X6132605Y-16491743D01*
X6151652Y-16501267D01*
X6161176Y-16520314D01*
X6161176Y-16625076D01*
X6161176Y-16520314D02*
X6170700Y-16501267D01*
X6189748Y-16491743D01*
X6218319Y-16491743D01*
X6237367Y-16501267D01*
X6246890Y-16520314D01*
X6246890Y-16625076D01*
X6342128Y-16625076D02*
X6342128Y-16491743D01*
X6342128Y-16510790D02*
X6351652Y-16501267D01*
X6370700Y-16491743D01*
X6399271Y-16491743D01*
X6418319Y-16501267D01*
X6427843Y-16520314D01*
X6427843Y-16625076D01*
X6427843Y-16520314D02*
X6437367Y-16501267D01*
X6456414Y-16491743D01*
X6484986Y-16491743D01*
X6504033Y-16501267D01*
X6513557Y-16520314D01*
X6513557Y-16625076D01*
X6904033Y-16415552D02*
X6732605Y-16672695D01*
X7161176Y-16425076D02*
X7180224Y-16425076D01*
X7199271Y-16434600D01*
X7208795Y-16444124D01*
X7218319Y-16463171D01*
X7227843Y-16501267D01*
X7227843Y-16548886D01*
X7218319Y-16586981D01*
X7208795Y-16606028D01*
X7199271Y-16615552D01*
X7180224Y-16625076D01*
X7161176Y-16625076D01*
X7142128Y-16615552D01*
X7132605Y-16606028D01*
X7123081Y-16586981D01*
X7113557Y-16548886D01*
X7113557Y-16501267D01*
X7123081Y-16463171D01*
X7132605Y-16444124D01*
X7142128Y-16434600D01*
X7161176Y-16425076D01*
X7313557Y-16606028D02*
X7323081Y-16615552D01*
X7313557Y-16625076D01*
X7304033Y-16615552D01*
X7313557Y-16606028D01*
X7313557Y-16625076D01*
X7446890Y-16425076D02*
X7465938Y-16425076D01*
X7484986Y-16434600D01*
X7494509Y-16444124D01*
X7504033Y-16463171D01*
X7513557Y-16501267D01*
X7513557Y-16548886D01*
X7504033Y-16586981D01*
X7494509Y-16606028D01*
X7484986Y-16615552D01*
X7465938Y-16625076D01*
X7446890Y-16625076D01*
X7427843Y-16615552D01*
X7418319Y-16606028D01*
X7408795Y-16586981D01*
X7399271Y-16548886D01*
X7399271Y-16501267D01*
X7408795Y-16463171D01*
X7418319Y-16444124D01*
X7427843Y-16434600D01*
X7446890Y-16425076D01*
X7580224Y-16425076D02*
X7704033Y-16425076D01*
X7637367Y-16501267D01*
X7665938Y-16501267D01*
X7684986Y-16510790D01*
X7694509Y-16520314D01*
X7704033Y-16539362D01*
X7704033Y-16586981D01*
X7694509Y-16606028D01*
X7684986Y-16615552D01*
X7665938Y-16625076D01*
X7608795Y-16625076D01*
X7589748Y-16615552D01*
X7580224Y-16606028D01*
X7799271Y-16625076D02*
X7837367Y-16625076D01*
X7856414Y-16615552D01*
X7865938Y-16606028D01*
X7884986Y-16577457D01*
X7894509Y-16539362D01*
X7894509Y-16463171D01*
X7884986Y-16444124D01*
X7875462Y-16434600D01*
X7856414Y-16425076D01*
X7818319Y-16425076D01*
X7799271Y-16434600D01*
X7789748Y-16444124D01*
X7780224Y-16463171D01*
X7780224Y-16510790D01*
X7789748Y-16529838D01*
X7799271Y-16539362D01*
X7818319Y-16548886D01*
X7856414Y-16548886D01*
X7875462Y-16539362D01*
X7884986Y-16529838D01*
X7894509Y-16510790D01*
X8065938Y-16491743D02*
X8065938Y-16625076D01*
X8018319Y-16415552D02*
X7970700Y-16558409D01*
X8094509Y-16558409D01*
X8161176Y-16425076D02*
X8161176Y-16463171D01*
X8237367Y-16425076D02*
X8237367Y-16463171D01*
X8532605Y-16701267D02*
X8523081Y-16691743D01*
X8504033Y-16663171D01*
X8494510Y-16644124D01*
X8484986Y-16615552D01*
X8475462Y-16567933D01*
X8475462Y-16529838D01*
X8484986Y-16482219D01*
X8494510Y-16453648D01*
X8504033Y-16434600D01*
X8523081Y-16406028D01*
X8532605Y-16396505D01*
X8694510Y-16491743D02*
X8694510Y-16625076D01*
X8646890Y-16415552D02*
X8599271Y-16558409D01*
X8723081Y-16558409D01*
X8789748Y-16444124D02*
X8799271Y-16434600D01*
X8818319Y-16425076D01*
X8865938Y-16425076D01*
X8884986Y-16434600D01*
X8894510Y-16444124D01*
X8904033Y-16463171D01*
X8904033Y-16482219D01*
X8894510Y-16510790D01*
X8780224Y-16625076D01*
X8904033Y-16625076D01*
X9142129Y-16625076D02*
X9142129Y-16425076D01*
X9227843Y-16625076D02*
X9227843Y-16520314D01*
X9218319Y-16501267D01*
X9199271Y-16491743D01*
X9170700Y-16491743D01*
X9151652Y-16501267D01*
X9142129Y-16510790D01*
X9351652Y-16625076D02*
X9332605Y-16615552D01*
X9323081Y-16606028D01*
X9313557Y-16586981D01*
X9313557Y-16529838D01*
X9323081Y-16510790D01*
X9332605Y-16501267D01*
X9351652Y-16491743D01*
X9380224Y-16491743D01*
X9399271Y-16501267D01*
X9408795Y-16510790D01*
X9418319Y-16529838D01*
X9418319Y-16586981D01*
X9408795Y-16606028D01*
X9399271Y-16615552D01*
X9380224Y-16625076D01*
X9351652Y-16625076D01*
X9532605Y-16625076D02*
X9513557Y-16615552D01*
X9504033Y-16596505D01*
X9504033Y-16425076D01*
X9684986Y-16615552D02*
X9665938Y-16625076D01*
X9627843Y-16625076D01*
X9608795Y-16615552D01*
X9599271Y-16596505D01*
X9599271Y-16520314D01*
X9608795Y-16501267D01*
X9627843Y-16491743D01*
X9665938Y-16491743D01*
X9684986Y-16501267D01*
X9694510Y-16520314D01*
X9694510Y-16539362D01*
X9599271Y-16558409D01*
X9770700Y-16615552D02*
X9789748Y-16625076D01*
X9827843Y-16625076D01*
X9846890Y-16615552D01*
X9856414Y-16596505D01*
X9856414Y-16586981D01*
X9846890Y-16567933D01*
X9827843Y-16558409D01*
X9799271Y-16558409D01*
X9780224Y-16548886D01*
X9770700Y-16529838D01*
X9770700Y-16520314D01*
X9780224Y-16501267D01*
X9799271Y-16491743D01*
X9827843Y-16491743D01*
X9846890Y-16501267D01*
X9923081Y-16701267D02*
X9932605Y-16691743D01*
X9951652Y-16663171D01*
X9961176Y-16644124D01*
X9970700Y-16615552D01*
X9980224Y-16567933D01*
X9980224Y-16529838D01*
X9970700Y-16482219D01*
X9961176Y-16453648D01*
X9951652Y-16434600D01*
X9932605Y-16406028D01*
X9923081Y-16396505D01*
D17*
X4850700Y-16743600D02*
X4960700Y-16853600D01*
X4960700Y-16743600D02*
X4850700Y-16853600D01*
X4960700Y-16798600D02*
G75*
G03*
X4960700Y-16798600I-55000J0D01*
G01*
D11*
X5323081Y-16889076D02*
X5208795Y-16889076D01*
X5265938Y-16889076D02*
X5265938Y-16689076D01*
X5246890Y-16717648D01*
X5227843Y-16736695D01*
X5208795Y-16746219D01*
X5408795Y-16870029D02*
X5418319Y-16879552D01*
X5408795Y-16889076D01*
X5399271Y-16879552D01*
X5408795Y-16870029D01*
X5408795Y-16889076D01*
X5608795Y-16889076D02*
X5494510Y-16889076D01*
X5551652Y-16889076D02*
X5551652Y-16689076D01*
X5532605Y-16717648D01*
X5513557Y-16736695D01*
X5494510Y-16746219D01*
X5732605Y-16689076D02*
X5751652Y-16689076D01*
X5770700Y-16698600D01*
X5780224Y-16708124D01*
X5789748Y-16727171D01*
X5799271Y-16765267D01*
X5799271Y-16812886D01*
X5789748Y-16850981D01*
X5780224Y-16870029D01*
X5770700Y-16879552D01*
X5751652Y-16889076D01*
X5732605Y-16889076D01*
X5713557Y-16879552D01*
X5704033Y-16870029D01*
X5694509Y-16850981D01*
X5684986Y-16812886D01*
X5684986Y-16765267D01*
X5694509Y-16727171D01*
X5704033Y-16708124D01*
X5713557Y-16698600D01*
X5732605Y-16689076D01*
X5923081Y-16689076D02*
X5942128Y-16689076D01*
X5961176Y-16698600D01*
X5970700Y-16708124D01*
X5980224Y-16727171D01*
X5989748Y-16765267D01*
X5989748Y-16812886D01*
X5980224Y-16850981D01*
X5970700Y-16870029D01*
X5961176Y-16879552D01*
X5942128Y-16889076D01*
X5923081Y-16889076D01*
X5904033Y-16879552D01*
X5894509Y-16870029D01*
X5884986Y-16850981D01*
X5875462Y-16812886D01*
X5875462Y-16765267D01*
X5884986Y-16727171D01*
X5894509Y-16708124D01*
X5904033Y-16698600D01*
X5923081Y-16689076D01*
X6075462Y-16889076D02*
X6075462Y-16755743D01*
X6075462Y-16774790D02*
X6084986Y-16765267D01*
X6104033Y-16755743D01*
X6132605Y-16755743D01*
X6151652Y-16765267D01*
X6161176Y-16784314D01*
X6161176Y-16889076D01*
X6161176Y-16784314D02*
X6170700Y-16765267D01*
X6189748Y-16755743D01*
X6218319Y-16755743D01*
X6237367Y-16765267D01*
X6246890Y-16784314D01*
X6246890Y-16889076D01*
X6342128Y-16889076D02*
X6342128Y-16755743D01*
X6342128Y-16774790D02*
X6351652Y-16765267D01*
X6370700Y-16755743D01*
X6399271Y-16755743D01*
X6418319Y-16765267D01*
X6427843Y-16784314D01*
X6427843Y-16889076D01*
X6427843Y-16784314D02*
X6437367Y-16765267D01*
X6456414Y-16755743D01*
X6484986Y-16755743D01*
X6504033Y-16765267D01*
X6513557Y-16784314D01*
X6513557Y-16889076D01*
X6904033Y-16679552D02*
X6732605Y-16936695D01*
X7161176Y-16689076D02*
X7180224Y-16689076D01*
X7199271Y-16698600D01*
X7208795Y-16708124D01*
X7218319Y-16727171D01*
X7227843Y-16765267D01*
X7227843Y-16812886D01*
X7218319Y-16850981D01*
X7208795Y-16870029D01*
X7199271Y-16879552D01*
X7180224Y-16889076D01*
X7161176Y-16889076D01*
X7142128Y-16879552D01*
X7132605Y-16870029D01*
X7123081Y-16850981D01*
X7113557Y-16812886D01*
X7113557Y-16765267D01*
X7123081Y-16727171D01*
X7132605Y-16708124D01*
X7142128Y-16698600D01*
X7161176Y-16689076D01*
X7313557Y-16870029D02*
X7323081Y-16879552D01*
X7313557Y-16889076D01*
X7304033Y-16879552D01*
X7313557Y-16870029D01*
X7313557Y-16889076D01*
X7446890Y-16689076D02*
X7465938Y-16689076D01*
X7484986Y-16698600D01*
X7494509Y-16708124D01*
X7504033Y-16727171D01*
X7513557Y-16765267D01*
X7513557Y-16812886D01*
X7504033Y-16850981D01*
X7494509Y-16870029D01*
X7484986Y-16879552D01*
X7465938Y-16889076D01*
X7446890Y-16889076D01*
X7427843Y-16879552D01*
X7418319Y-16870029D01*
X7408795Y-16850981D01*
X7399271Y-16812886D01*
X7399271Y-16765267D01*
X7408795Y-16727171D01*
X7418319Y-16708124D01*
X7427843Y-16698600D01*
X7446890Y-16689076D01*
X7684986Y-16755743D02*
X7684986Y-16889076D01*
X7637367Y-16679552D02*
X7589748Y-16822410D01*
X7713557Y-16822410D01*
X7770700Y-16689076D02*
X7894509Y-16689076D01*
X7827843Y-16765267D01*
X7856414Y-16765267D01*
X7875462Y-16774790D01*
X7884986Y-16784314D01*
X7894509Y-16803362D01*
X7894509Y-16850981D01*
X7884986Y-16870029D01*
X7875462Y-16879552D01*
X7856414Y-16889076D01*
X7799271Y-16889076D01*
X7780224Y-16879552D01*
X7770700Y-16870029D01*
X7961176Y-16689076D02*
X8084986Y-16689076D01*
X8018319Y-16765267D01*
X8046890Y-16765267D01*
X8065938Y-16774790D01*
X8075462Y-16784314D01*
X8084986Y-16803362D01*
X8084986Y-16850981D01*
X8075462Y-16870029D01*
X8065938Y-16879552D01*
X8046890Y-16889076D01*
X7989748Y-16889076D01*
X7970700Y-16879552D01*
X7961176Y-16870029D01*
X8161176Y-16689076D02*
X8161176Y-16727171D01*
X8237367Y-16689076D02*
X8237367Y-16727171D01*
X8532605Y-16965267D02*
X8523081Y-16955743D01*
X8504033Y-16927171D01*
X8494510Y-16908124D01*
X8484986Y-16879552D01*
X8475462Y-16831933D01*
X8475462Y-16793838D01*
X8484986Y-16746219D01*
X8494510Y-16717648D01*
X8504033Y-16698600D01*
X8523081Y-16670028D01*
X8532605Y-16660505D01*
X8694510Y-16689076D02*
X8656414Y-16689076D01*
X8637367Y-16698600D01*
X8627843Y-16708124D01*
X8608795Y-16736695D01*
X8599271Y-16774790D01*
X8599271Y-16850981D01*
X8608795Y-16870029D01*
X8618319Y-16879552D01*
X8637367Y-16889076D01*
X8675462Y-16889076D01*
X8694510Y-16879552D01*
X8704033Y-16870029D01*
X8713557Y-16850981D01*
X8713557Y-16803362D01*
X8704033Y-16784314D01*
X8694510Y-16774790D01*
X8675462Y-16765267D01*
X8637367Y-16765267D01*
X8618319Y-16774790D01*
X8608795Y-16784314D01*
X8599271Y-16803362D01*
X8904033Y-16889076D02*
X8789748Y-16889076D01*
X8846890Y-16889076D02*
X8846890Y-16689076D01*
X8827843Y-16717648D01*
X8808795Y-16736695D01*
X8789748Y-16746219D01*
X9142129Y-16889076D02*
X9142129Y-16689076D01*
X9227843Y-16889076D02*
X9227843Y-16784314D01*
X9218319Y-16765267D01*
X9199271Y-16755743D01*
X9170700Y-16755743D01*
X9151652Y-16765267D01*
X9142129Y-16774790D01*
X9351652Y-16889076D02*
X9332605Y-16879552D01*
X9323081Y-16870029D01*
X9313557Y-16850981D01*
X9313557Y-16793838D01*
X9323081Y-16774790D01*
X9332605Y-16765267D01*
X9351652Y-16755743D01*
X9380224Y-16755743D01*
X9399271Y-16765267D01*
X9408795Y-16774790D01*
X9418319Y-16793838D01*
X9418319Y-16850981D01*
X9408795Y-16870029D01*
X9399271Y-16879552D01*
X9380224Y-16889076D01*
X9351652Y-16889076D01*
X9532605Y-16889076D02*
X9513557Y-16879552D01*
X9504033Y-16860505D01*
X9504033Y-16689076D01*
X9684986Y-16879552D02*
X9665938Y-16889076D01*
X9627843Y-16889076D01*
X9608795Y-16879552D01*
X9599271Y-16860505D01*
X9599271Y-16784314D01*
X9608795Y-16765267D01*
X9627843Y-16755743D01*
X9665938Y-16755743D01*
X9684986Y-16765267D01*
X9694510Y-16784314D01*
X9694510Y-16803362D01*
X9599271Y-16822410D01*
X9770700Y-16879552D02*
X9789748Y-16889076D01*
X9827843Y-16889076D01*
X9846890Y-16879552D01*
X9856414Y-16860505D01*
X9856414Y-16850981D01*
X9846890Y-16831933D01*
X9827843Y-16822410D01*
X9799271Y-16822410D01*
X9780224Y-16812886D01*
X9770700Y-16793838D01*
X9770700Y-16784314D01*
X9780224Y-16765267D01*
X9799271Y-16755743D01*
X9827843Y-16755743D01*
X9846890Y-16765267D01*
X9923081Y-16965267D02*
X9932605Y-16955743D01*
X9951652Y-16927171D01*
X9961176Y-16908124D01*
X9970700Y-16879552D01*
X9980224Y-16831933D01*
X9980224Y-16793838D01*
X9970700Y-16746219D01*
X9961176Y-16717648D01*
X9951652Y-16698600D01*
X9932605Y-16670028D01*
X9923081Y-16660505D01*
M02*
