%TF.GenerationSoftware,KiCad,Pcbnew,(6.0.0-0)*%
%TF.CreationDate,2023-03-28T13:13:57-04:00*%
%TF.ProjectId,SATS,53415453-2e6b-4696-9361-645f70636258,rev?*%
%TF.SameCoordinates,Original*%
%TF.FileFunction,Copper,L2,Bot*%
%TF.FilePolarity,Positive*%
%FSLAX46Y46*%
G04 Gerber Fmt 4.6, Leading zero omitted, Abs format (unit mm)*
G04 Created by KiCad (PCBNEW (6.0.0-0)) date 2023-03-28 13:13:57*
%MOMM*%
%LPD*%
G01*
G04 APERTURE LIST*
%ADD10C,0.200000*%
%TA.AperFunction,NonConductor*%
%ADD11C,0.200000*%
%TD*%
%TA.AperFunction,ComponentPad*%
%ADD12R,1.650000X1.650000*%
%TD*%
%TA.AperFunction,ComponentPad*%
%ADD13C,1.650000*%
%TD*%
%TA.AperFunction,ComponentPad*%
%ADD14R,1.600000X1.600000*%
%TD*%
%TA.AperFunction,ComponentPad*%
%ADD15O,1.600000X1.600000*%
%TD*%
%TA.AperFunction,ComponentPad*%
%ADD16C,1.397000*%
%TD*%
%TA.AperFunction,ComponentPad*%
%ADD17C,1.600000*%
%TD*%
%TA.AperFunction,ComponentPad*%
%ADD18R,2.200000X2.200000*%
%TD*%
%TA.AperFunction,ComponentPad*%
%ADD19O,2.200000X2.200000*%
%TD*%
%TA.AperFunction,ComponentPad*%
%ADD20R,1.905000X2.000000*%
%TD*%
%TA.AperFunction,ComponentPad*%
%ADD21O,1.905000X2.000000*%
%TD*%
%TA.AperFunction,ComponentPad*%
%ADD22R,1.700000X1.700000*%
%TD*%
%TA.AperFunction,ComponentPad*%
%ADD23O,1.700000X1.700000*%
%TD*%
%TA.AperFunction,ViaPad*%
%ADD24C,0.800000*%
%TD*%
%TA.AperFunction,Conductor*%
%ADD25C,0.500000*%
%TD*%
%TA.AperFunction,Conductor*%
%ADD26C,1.000000*%
%TD*%
%TA.AperFunction,Conductor*%
%ADD27C,0.250000*%
%TD*%
G04 APERTURE END LIST*
D10*
D11*
X55540114Y-81044980D02*
X55540114Y-81759266D01*
X55587733Y-81902123D01*
X55682971Y-81997361D01*
X55825828Y-82044980D01*
X55921066Y-82044980D01*
X55111542Y-81759266D02*
X54635352Y-81759266D01*
X55206780Y-82044980D02*
X54873447Y-81044980D01*
X54540114Y-82044980D01*
X53635352Y-81949742D02*
X53682971Y-81997361D01*
X53825828Y-82044980D01*
X53921066Y-82044980D01*
X54063923Y-81997361D01*
X54159161Y-81902123D01*
X54206780Y-81806885D01*
X54254400Y-81616409D01*
X54254400Y-81473552D01*
X54206780Y-81283076D01*
X54159161Y-81187838D01*
X54063923Y-81092600D01*
X53921066Y-81044980D01*
X53825828Y-81044980D01*
X53682971Y-81092600D01*
X53635352Y-81140219D01*
X53206780Y-82044980D02*
X53206780Y-81044980D01*
X52635352Y-82044980D02*
X53063923Y-81473552D01*
X52635352Y-81044980D02*
X53206780Y-81616409D01*
X53968685Y-83654980D02*
X54540114Y-83654980D01*
X54254400Y-83654980D02*
X54254400Y-82654980D01*
X54349638Y-82797838D01*
X54444876Y-82893076D01*
X54540114Y-82940695D01*
D10*
D11*
X132873714Y-113958714D02*
X132873714Y-114625380D01*
X133111809Y-113577761D02*
X133349904Y-114292047D01*
X132730857Y-114292047D01*
X132159428Y-113625380D02*
X132064190Y-113625380D01*
X131968952Y-113673000D01*
X131921333Y-113720619D01*
X131873714Y-113815857D01*
X131826095Y-114006333D01*
X131826095Y-114244428D01*
X131873714Y-114434904D01*
X131921333Y-114530142D01*
X131968952Y-114577761D01*
X132064190Y-114625380D01*
X132159428Y-114625380D01*
X132254666Y-114577761D01*
X132302285Y-114530142D01*
X132349904Y-114434904D01*
X132397523Y-114244428D01*
X132397523Y-114006333D01*
X132349904Y-113815857D01*
X132302285Y-113720619D01*
X132254666Y-113673000D01*
X132159428Y-113625380D01*
D10*
D11*
X55616314Y-108756380D02*
X55616314Y-109470666D01*
X55663933Y-109613523D01*
X55759171Y-109708761D01*
X55902028Y-109756380D01*
X55997266Y-109756380D01*
X55187742Y-109470666D02*
X54711552Y-109470666D01*
X55282980Y-109756380D02*
X54949647Y-108756380D01*
X54616314Y-109756380D01*
X53711552Y-109661142D02*
X53759171Y-109708761D01*
X53902028Y-109756380D01*
X53997266Y-109756380D01*
X54140123Y-109708761D01*
X54235361Y-109613523D01*
X54282980Y-109518285D01*
X54330600Y-109327809D01*
X54330600Y-109184952D01*
X54282980Y-108994476D01*
X54235361Y-108899238D01*
X54140123Y-108804000D01*
X53997266Y-108756380D01*
X53902028Y-108756380D01*
X53759171Y-108804000D01*
X53711552Y-108851619D01*
X53282980Y-109756380D02*
X53282980Y-108756380D01*
X52711552Y-109756380D02*
X53140123Y-109184952D01*
X52711552Y-108756380D02*
X53282980Y-109327809D01*
X54663933Y-110366380D02*
X54044885Y-110366380D01*
X54378219Y-110747333D01*
X54235361Y-110747333D01*
X54140123Y-110794952D01*
X54092504Y-110842571D01*
X54044885Y-110937809D01*
X54044885Y-111175904D01*
X54092504Y-111271142D01*
X54140123Y-111318761D01*
X54235361Y-111366380D01*
X54521076Y-111366380D01*
X54616314Y-111318761D01*
X54663933Y-111271142D01*
D10*
D11*
X55565514Y-94684780D02*
X55565514Y-95399066D01*
X55613133Y-95541923D01*
X55708371Y-95637161D01*
X55851228Y-95684780D01*
X55946466Y-95684780D01*
X55136942Y-95399066D02*
X54660752Y-95399066D01*
X55232180Y-95684780D02*
X54898847Y-94684780D01*
X54565514Y-95684780D01*
X53660752Y-95589542D02*
X53708371Y-95637161D01*
X53851228Y-95684780D01*
X53946466Y-95684780D01*
X54089323Y-95637161D01*
X54184561Y-95541923D01*
X54232180Y-95446685D01*
X54279800Y-95256209D01*
X54279800Y-95113352D01*
X54232180Y-94922876D01*
X54184561Y-94827638D01*
X54089323Y-94732400D01*
X53946466Y-94684780D01*
X53851228Y-94684780D01*
X53708371Y-94732400D01*
X53660752Y-94780019D01*
X53232180Y-95684780D02*
X53232180Y-94684780D01*
X52660752Y-95684780D02*
X53089323Y-95113352D01*
X52660752Y-94684780D02*
X53232180Y-95256209D01*
X54089323Y-96628114D02*
X54089323Y-97294780D01*
X54327419Y-96247161D02*
X54565514Y-96961447D01*
X53946466Y-96961447D01*
D10*
D11*
X58829104Y-140431780D02*
X59400533Y-140431780D01*
X59114819Y-140431780D02*
X59114819Y-139431780D01*
X59210057Y-139574638D01*
X59305295Y-139669876D01*
X59400533Y-139717495D01*
X58400533Y-140050828D02*
X57638628Y-140050828D01*
X57257676Y-139431780D02*
X57019580Y-140431780D01*
X56829104Y-139717495D01*
X56638628Y-140431780D01*
X56400533Y-139431780D01*
X56019580Y-140431780D02*
X56019580Y-139431780D01*
X54971961Y-140431780D02*
X55305295Y-139955590D01*
X55543390Y-140431780D02*
X55543390Y-139431780D01*
X55162438Y-139431780D01*
X55067200Y-139479400D01*
X55019580Y-139527019D01*
X54971961Y-139622257D01*
X54971961Y-139765114D01*
X55019580Y-139860352D01*
X55067200Y-139907971D01*
X55162438Y-139955590D01*
X55543390Y-139955590D01*
X54543390Y-139907971D02*
X54210057Y-139907971D01*
X54067200Y-140431780D02*
X54543390Y-140431780D01*
X54543390Y-139431780D01*
X54067200Y-139431780D01*
X52876723Y-140431780D02*
X52876723Y-139431780D01*
X51686247Y-139384161D02*
X52543390Y-140669876D01*
X51162438Y-139431780D02*
X50971961Y-139431780D01*
X50876723Y-139479400D01*
X50781485Y-139574638D01*
X50733866Y-139765114D01*
X50733866Y-140098447D01*
X50781485Y-140288923D01*
X50876723Y-140384161D01*
X50971961Y-140431780D01*
X51162438Y-140431780D01*
X51257676Y-140384161D01*
X51352914Y-140288923D01*
X51400533Y-140098447D01*
X51400533Y-139765114D01*
X51352914Y-139574638D01*
X51257676Y-139479400D01*
X51162438Y-139431780D01*
D10*
D11*
X126992000Y-114549180D02*
X126992000Y-113549180D01*
X126611047Y-113549180D01*
X126515809Y-113596800D01*
X126468190Y-113644419D01*
X126420571Y-113739657D01*
X126420571Y-113882514D01*
X126468190Y-113977752D01*
X126515809Y-114025371D01*
X126611047Y-114072990D01*
X126992000Y-114072990D01*
X125992000Y-114549180D02*
X125992000Y-113549180D01*
D10*
D11*
X126053885Y-65019180D02*
X126625314Y-65019180D01*
X126339600Y-65019180D02*
X126339600Y-64019180D01*
X126434838Y-64162038D01*
X126530076Y-64257276D01*
X126625314Y-64304895D01*
D10*
D11*
X55489314Y-67735380D02*
X55489314Y-68449666D01*
X55536933Y-68592523D01*
X55632171Y-68687761D01*
X55775028Y-68735380D01*
X55870266Y-68735380D01*
X55060742Y-68449666D02*
X54584552Y-68449666D01*
X55155980Y-68735380D02*
X54822647Y-67735380D01*
X54489314Y-68735380D01*
X53584552Y-68640142D02*
X53632171Y-68687761D01*
X53775028Y-68735380D01*
X53870266Y-68735380D01*
X54013123Y-68687761D01*
X54108361Y-68592523D01*
X54155980Y-68497285D01*
X54203600Y-68306809D01*
X54203600Y-68163952D01*
X54155980Y-67973476D01*
X54108361Y-67878238D01*
X54013123Y-67783000D01*
X53870266Y-67735380D01*
X53775028Y-67735380D01*
X53632171Y-67783000D01*
X53584552Y-67830619D01*
X53155980Y-68735380D02*
X53155980Y-67735380D01*
X52584552Y-68735380D02*
X53013123Y-68163952D01*
X52584552Y-67735380D02*
X53155980Y-68306809D01*
X54489314Y-69440619D02*
X54441695Y-69393000D01*
X54346457Y-69345380D01*
X54108361Y-69345380D01*
X54013123Y-69393000D01*
X53965504Y-69440619D01*
X53917885Y-69535857D01*
X53917885Y-69631095D01*
X53965504Y-69773952D01*
X54536933Y-70345380D01*
X53917885Y-70345380D01*
D12*
%TO.P,SW2,1,1*%
%TO.N,Earth*%
X154750000Y-94500000D03*
D13*
%TO.P,SW2,2,1*%
X149750000Y-94500000D03*
%TO.P,SW2,3,2*%
%TO.N,Serv Door*%
X154750000Y-91000000D03*
%TO.P,SW2,4,2*%
X149750000Y-91000000D03*
%TD*%
D14*
%TO.P,U2,1,GPB0*%
%TO.N,PD_31*%
X84328000Y-108632000D03*
D15*
%TO.P,U2,2,GPB1*%
%TO.N,PD_32*%
X84328000Y-111172000D03*
%TO.P,U2,3,GPB2*%
%TO.N,PD_33*%
X84328000Y-113712000D03*
%TO.P,U2,4,GPB3*%
%TO.N,PD_34*%
X84328000Y-116252000D03*
%TO.P,U2,5,GPB4*%
%TO.N,PD_35*%
X84328000Y-118792000D03*
%TO.P,U2,6,GPB5*%
%TO.N,unconnected-(U2-Pad6)*%
X84328000Y-121332000D03*
%TO.P,U2,7,GPB6*%
%TO.N,unconnected-(U2-Pad7)*%
X84328000Y-123872000D03*
%TO.P,U2,8,GPB7*%
%TO.N,unconnected-(U2-Pad8)*%
X84328000Y-126412000D03*
%TO.P,U2,9,VDD*%
%TO.N,+3V3*%
X84328000Y-128952000D03*
%TO.P,U2,10,VSS*%
%TO.N,Earth*%
X84328000Y-131492000D03*
%TO.P,U2,11,NC*%
%TO.N,unconnected-(U2-Pad11)*%
X84328000Y-134032000D03*
%TO.P,U2,12,SCK*%
%TO.N,SCL*%
X84328000Y-136572000D03*
%TO.P,U2,13,SDA*%
%TO.N,SDA*%
X84328000Y-139112000D03*
%TO.P,U2,14,NC*%
%TO.N,unconnected-(U2-Pad14)*%
X84328000Y-141652000D03*
%TO.P,U2,15,A0*%
%TO.N,Earth*%
X91948000Y-141652000D03*
%TO.P,U2,16,A1*%
X91948000Y-139112000D03*
%TO.P,U2,17,A2*%
%TO.N,+3V3*%
X91948000Y-136572000D03*
%TO.P,U2,18,~{RESET}*%
X91948000Y-134032000D03*
%TO.P,U2,19,INTB*%
%TO.N,Int 2B*%
X91948000Y-131492000D03*
%TO.P,U2,20,INTA*%
%TO.N,Int 2A*%
X91948000Y-128952000D03*
%TO.P,U2,21,GPA0*%
%TO.N,PD_41*%
X91948000Y-126412000D03*
%TO.P,U2,22,GPA1*%
%TO.N,PD_42*%
X91948000Y-123872000D03*
%TO.P,U2,23,GPA2*%
%TO.N,PD_43*%
X91948000Y-121332000D03*
%TO.P,U2,24,GPA3*%
%TO.N,PD_44*%
X91948000Y-118792000D03*
%TO.P,U2,25,GPA4*%
%TO.N,PD_45*%
X91948000Y-116252000D03*
%TO.P,U2,26,GPA5*%
%TO.N,unconnected-(U2-Pad26)*%
X91948000Y-113712000D03*
%TO.P,U2,27,GPA6*%
%TO.N,unconnected-(U2-Pad27)*%
X91948000Y-111172000D03*
%TO.P,U2,28,GPA7*%
%TO.N,unconnected-(U2-Pad28)*%
X91948000Y-108632000D03*
%TD*%
D16*
%TO.P,J2,A1,A1*%
%TO.N,PD_21*%
X66310406Y-64220000D03*
%TO.P,J2,A2,A2*%
%TO.N,PD_22*%
X68850406Y-65490000D03*
%TO.P,J2,A3,A3*%
%TO.N,PD_23*%
X66310406Y-66760000D03*
%TO.P,J2,A4,A4*%
%TO.N,PD_24*%
X68850406Y-68030000D03*
%TO.P,J2,A5,A5*%
%TO.N,PD_25*%
X66310406Y-69300000D03*
%TO.P,J2,A6,A6*%
%TO.N,+5V*%
X68850406Y-70570000D03*
%TO.P,J2,A7,A7*%
%TO.N,Earth*%
X66310406Y-71840000D03*
%TO.P,J2,A8,A8*%
%TO.N,LED2 Out*%
X68850406Y-73110000D03*
%TO.P,J2,B1,B1*%
%TO.N,PD_11*%
X66310406Y-78190000D03*
%TO.P,J2,B2,B2*%
%TO.N,PD_12*%
X68850406Y-79460000D03*
%TO.P,J2,B3,B3*%
%TO.N,PD_13*%
X66310406Y-80730000D03*
%TO.P,J2,B4,B4*%
%TO.N,PD_14*%
X68850406Y-82000000D03*
%TO.P,J2,B5,B5*%
%TO.N,PD_15*%
X66310406Y-83270000D03*
%TO.P,J2,B6,B6*%
%TO.N,+5V*%
X68850406Y-84540000D03*
%TO.P,J2,B7,B7*%
%TO.N,Earth*%
X66310406Y-85810000D03*
%TO.P,J2,B8,B8*%
%TO.N,LED1 Out*%
X68850406Y-87080000D03*
%TO.P,J2,C1,C1*%
%TO.N,PD_41*%
X66310406Y-92160000D03*
%TO.P,J2,C2,C2*%
%TO.N,PD_42*%
X68850406Y-93430000D03*
%TO.P,J2,C3,C3*%
%TO.N,PD_43*%
X66310406Y-94700000D03*
%TO.P,J2,C4,C4*%
%TO.N,PD_44*%
X68850406Y-95970000D03*
%TO.P,J2,C5,C5*%
%TO.N,PD_45*%
X66310406Y-97240000D03*
%TO.P,J2,C6,C6*%
%TO.N,+5V*%
X68850406Y-98510000D03*
%TO.P,J2,C7,C7*%
%TO.N,Earth*%
X66310406Y-99780000D03*
%TO.P,J2,C8,C8*%
%TO.N,LED3 Out*%
X68850406Y-101050000D03*
%TO.P,J2,D1,D1*%
%TO.N,PD_31*%
X66310406Y-106130000D03*
%TO.P,J2,D2,D2*%
%TO.N,PD_32*%
X68850406Y-107400000D03*
%TO.P,J2,D3,D3*%
%TO.N,PD_33*%
X66310406Y-108670000D03*
%TO.P,J2,D4,D4*%
%TO.N,PD_34*%
X68850406Y-109940000D03*
%TO.P,J2,D5,D5*%
%TO.N,PD_35*%
X66310406Y-111210000D03*
%TO.P,J2,D6,D6*%
%TO.N,+5V*%
X68850406Y-112480000D03*
%TO.P,J2,D7,D7*%
%TO.N,Earth*%
X66310406Y-113750000D03*
%TO.P,J2,D8,D8*%
%TO.N,LED4 Out*%
X68850406Y-115020000D03*
%TD*%
D12*
%TO.P,J11,1,1*%
%TO.N,EXT_GPIO12*%
X149750000Y-119750000D03*
D13*
%TO.P,J11,2,1*%
X154750000Y-119750000D03*
%TO.P,J11,3,2*%
%TO.N,EXT_GPIO13*%
X149750000Y-123250000D03*
%TO.P,J11,4,2*%
X154750000Y-123250000D03*
%TD*%
D12*
%TO.P,SW1,1,1*%
%TO.N,Earth*%
X154750000Y-87500000D03*
D13*
%TO.P,SW1,2,1*%
X149750000Y-87500000D03*
%TO.P,SW1,3,2*%
%TO.N,Main Door*%
X154750000Y-84000000D03*
%TO.P,SW1,4,2*%
X149750000Y-84000000D03*
%TD*%
D17*
%TO.P,C4,1*%
%TO.N,+3V3*%
X92456000Y-86948000D03*
%TO.P,C4,2*%
%TO.N,Earth*%
X92456000Y-91948000D03*
%TD*%
D12*
%TO.P,L1,1,1*%
%TO.N,+5V*%
X130274000Y-139953000D03*
D13*
%TO.P,L1,2,1*%
X130274000Y-144953000D03*
%TO.P,L1,3,2*%
%TO.N,Net-(D1-Pad2)*%
X126774000Y-139953000D03*
%TO.P,L1,4,2*%
X126774000Y-144953000D03*
%TD*%
D14*
%TO.P,U3,1,VCC*%
%TO.N,+3V3*%
X75453000Y-84495800D03*
D15*
%TO.P,U3,2,EN_A*%
X77993000Y-84495800D03*
%TO.P,U3,3,A*%
%TO.N,LED Sig3*%
X80533000Y-84495800D03*
%TO.P,U3,4,E*%
%TO.N,LED3 Out*%
X83073000Y-84495800D03*
%TO.P,U3,5,F*%
%TO.N,LED4 Out*%
X85613000Y-84495800D03*
%TO.P,U3,6,B*%
%TO.N,LED Sig4*%
X88153000Y-84495800D03*
%TO.P,U3,7,EN_B*%
%TO.N,+3V3*%
X90693000Y-84495800D03*
%TO.P,U3,8,VSS*%
%TO.N,Earth*%
X93233000Y-84495800D03*
%TO.P,U3,9,EN_C*%
%TO.N,+3V3*%
X93233000Y-76875800D03*
%TO.P,U3,10,C*%
%TO.N,LED Sig2*%
X90693000Y-76875800D03*
%TO.P,U3,11,G*%
%TO.N,LED2 Out*%
X88153000Y-76875800D03*
%TO.P,U3,12*%
%TO.N,N/C*%
X85613000Y-76875800D03*
%TO.P,U3,13,H*%
%TO.N,LED1 Out*%
X83073000Y-76875800D03*
%TO.P,U3,14,D*%
%TO.N,LED Sig1*%
X80533000Y-76875800D03*
%TO.P,U3,15,EN_D*%
%TO.N,+3V3*%
X77993000Y-76875800D03*
%TO.P,U3,16,VDD*%
%TO.N,+5V*%
X75453000Y-76875800D03*
%TD*%
D12*
%TO.P,J4,1,1*%
%TO.N,+5V*%
X135354000Y-48300000D03*
D13*
%TO.P,J4,2,1*%
X135354000Y-53300000D03*
%TO.P,J4,3,2*%
%TO.N,Earth*%
X131854000Y-48300000D03*
%TO.P,J4,4,2*%
X131854000Y-53300000D03*
%TD*%
D12*
%TO.P,J10,1,1*%
%TO.N,EXT_GPIO5*%
X149750000Y-112750000D03*
D13*
%TO.P,J10,2,1*%
X154750000Y-112750000D03*
%TO.P,J10,3,2*%
%TO.N,EXT_GPIO6*%
X149750000Y-116250000D03*
%TO.P,J10,4,2*%
X154750000Y-116250000D03*
%TD*%
D12*
%TO.P,SW3,1,1*%
%TO.N,Earth*%
X154750000Y-101500000D03*
D13*
%TO.P,SW3,2,1*%
X149750000Y-101500000D03*
%TO.P,SW3,3,2*%
%TO.N,Third Reed*%
X154750000Y-98000000D03*
%TO.P,SW3,4,2*%
X149750000Y-98000000D03*
%TD*%
D17*
%TO.P,C2,1*%
%TO.N,+3V3*%
X95758000Y-134032000D03*
%TO.P,C2,2*%
%TO.N,Earth*%
X95758000Y-139032000D03*
%TD*%
D12*
%TO.P,J12,1,1*%
%TO.N,EXT_GPIO16*%
X149750000Y-126750000D03*
D13*
%TO.P,J12,2,1*%
X154750000Y-126750000D03*
%TO.P,J12,3,2*%
%TO.N,EXT_GPIO19*%
X149750000Y-130250000D03*
%TO.P,J12,4,2*%
X154750000Y-130250000D03*
%TD*%
D12*
%TO.P,J6,1,1*%
%TO.N,Card GRN*%
X154750000Y-72750000D03*
D13*
%TO.P,J6,2,1*%
X149750000Y-72750000D03*
%TO.P,J6,3,2*%
%TO.N,Card RED*%
X154750000Y-69250000D03*
%TO.P,J6,4,2*%
X149750000Y-69250000D03*
%TD*%
D17*
%TO.P,C1,1*%
%TO.N,+3V3*%
X116078000Y-106172000D03*
%TO.P,C1,2*%
%TO.N,Earth*%
X116078000Y-111172000D03*
%TD*%
D12*
%TO.P,J9,1,1*%
%TO.N,Earth*%
X154750000Y-51750000D03*
D13*
%TO.P,J9,2,1*%
X149750000Y-51750000D03*
%TO.P,J9,3,2*%
%TO.N,+5V*%
X154750000Y-48250000D03*
%TO.P,J9,4,2*%
X149750000Y-48250000D03*
%TD*%
D12*
%TO.P,J8,1,1*%
%TO.N,Card Beeper*%
X154750000Y-58750000D03*
D13*
%TO.P,J8,2,1*%
X149750000Y-58750000D03*
%TO.P,J8,3,2*%
%TO.N,Earth*%
X154750000Y-55250000D03*
%TO.P,J8,4,2*%
X149750000Y-55250000D03*
%TD*%
D18*
%TO.P,D1,1,K*%
%TO.N,+5V*%
X133858000Y-132969000D03*
D19*
%TO.P,D1,2,A*%
%TO.N,Net-(D1-Pad2)*%
X123698000Y-132969000D03*
%TD*%
D17*
%TO.P,C3,1*%
%TO.N,+5V*%
X75478000Y-71120000D03*
%TO.P,C3,2*%
%TO.N,Earth*%
X80478000Y-71120000D03*
%TD*%
D14*
%TO.P,U1,1,GPB0*%
%TO.N,PD_11*%
X104648000Y-80772000D03*
D15*
%TO.P,U1,2,GPB1*%
%TO.N,PD_12*%
X104648000Y-83312000D03*
%TO.P,U1,3,GPB2*%
%TO.N,PD_13*%
X104648000Y-85852000D03*
%TO.P,U1,4,GPB3*%
%TO.N,PD_14*%
X104648000Y-88392000D03*
%TO.P,U1,5,GPB4*%
%TO.N,PD_15*%
X104648000Y-90932000D03*
%TO.P,U1,6,GPB5*%
%TO.N,unconnected-(U1-Pad6)*%
X104648000Y-93472000D03*
%TO.P,U1,7,GPB6*%
%TO.N,unconnected-(U1-Pad7)*%
X104648000Y-96012000D03*
%TO.P,U1,8,GPB7*%
%TO.N,unconnected-(U1-Pad8)*%
X104648000Y-98552000D03*
%TO.P,U1,9,VDD*%
%TO.N,+3V3*%
X104648000Y-101092000D03*
%TO.P,U1,10,VSS*%
%TO.N,Earth*%
X104648000Y-103632000D03*
%TO.P,U1,11,NC*%
%TO.N,unconnected-(U1-Pad11)*%
X104648000Y-106172000D03*
%TO.P,U1,12,SCK*%
%TO.N,SCL*%
X104648000Y-108712000D03*
%TO.P,U1,13,SDA*%
%TO.N,SDA*%
X104648000Y-111252000D03*
%TO.P,U1,14,NC*%
%TO.N,unconnected-(U1-Pad14)*%
X104648000Y-113792000D03*
%TO.P,U1,15,A0*%
%TO.N,Earth*%
X112268000Y-113792000D03*
%TO.P,U1,16,A1*%
X112268000Y-111252000D03*
%TO.P,U1,17,A2*%
X112268000Y-108712000D03*
%TO.P,U1,18,~{RESET}*%
%TO.N,+3V3*%
X112268000Y-106172000D03*
%TO.P,U1,19,INTB*%
%TO.N,Int 1B*%
X112268000Y-103632000D03*
%TO.P,U1,20,INTA*%
%TO.N,Int 1A*%
X112268000Y-101092000D03*
%TO.P,U1,21,GPA0*%
%TO.N,PD_21*%
X112268000Y-98552000D03*
%TO.P,U1,22,GPA1*%
%TO.N,PD_22*%
X112268000Y-96012000D03*
%TO.P,U1,23,GPA2*%
%TO.N,PD_23*%
X112268000Y-93472000D03*
%TO.P,U1,24,GPA3*%
%TO.N,PD_24*%
X112268000Y-90932000D03*
%TO.P,U1,25,GPA4*%
%TO.N,PD_25*%
X112268000Y-88392000D03*
%TO.P,U1,26,GPA5*%
%TO.N,unconnected-(U1-Pad26)*%
X112268000Y-85852000D03*
%TO.P,U1,27,GPA6*%
%TO.N,unconnected-(U1-Pad27)*%
X112268000Y-83312000D03*
%TO.P,U1,28,GPA7*%
%TO.N,unconnected-(U1-Pad28)*%
X112268000Y-80772000D03*
%TD*%
D20*
%TO.P,U4,1,G*%
%TO.N,Latch*%
X117856000Y-127676000D03*
D21*
%TO.P,U4,2,D*%
%TO.N,Earth*%
X115316000Y-127676000D03*
%TO.P,U4,3,S*%
%TO.N,Net-(D1-Pad2)*%
X112776000Y-127676000D03*
%TD*%
D12*
%TO.P,J7,1,1*%
%TO.N,Wiegand 1*%
X154749998Y-65750000D03*
D13*
%TO.P,J7,2,1*%
X149749998Y-65750000D03*
%TO.P,J7,3,2*%
%TO.N,Wiegand 0*%
X154749998Y-62250000D03*
%TO.P,J7,4,2*%
X149749998Y-62250000D03*
%TD*%
D12*
%TO.P,J13,1,1*%
%TO.N,EXT_GPIO21*%
X154750000Y-137250000D03*
D13*
%TO.P,J13,2,1*%
X149750000Y-137250000D03*
%TO.P,J13,3,2*%
%TO.N,EXT_GPIO20*%
X154750000Y-133750000D03*
%TO.P,J13,4,2*%
X149750000Y-133750000D03*
%TD*%
D12*
%TO.P,J5,1,1*%
%TO.N,Earth*%
X128354000Y-48300000D03*
D13*
%TO.P,J5,2,1*%
X128354000Y-53300000D03*
%TO.P,J5,3,2*%
%TO.N,+3V3*%
X124854000Y-48300000D03*
%TO.P,J5,4,2*%
X124854000Y-53300000D03*
%TD*%
D17*
%TO.P,R4,1*%
%TO.N,1-Wire*%
X69469000Y-128955800D03*
D15*
%TO.P,R4,2*%
%TO.N,+3V3*%
X77089000Y-128955800D03*
%TD*%
D22*
%TO.P,J1,1,3V3*%
%TO.N,+3V3*%
X128778000Y-63246000D03*
D23*
%TO.P,J1,2,5V*%
%TO.N,+5V*%
X131318000Y-63246000D03*
%TO.P,J1,3,SDA/GPIO2*%
%TO.N,SDA*%
X128778000Y-65786000D03*
%TO.P,J1,4,5V*%
%TO.N,+5V*%
X131318000Y-65786000D03*
%TO.P,J1,5,SCL/GPIO3*%
%TO.N,SCL*%
X128778000Y-68326000D03*
%TO.P,J1,6,GND*%
%TO.N,Earth*%
X131318000Y-68326000D03*
%TO.P,J1,7,GCLK0/GPIO4*%
%TO.N,Int 1A*%
X128778000Y-70866000D03*
%TO.P,J1,8,GPIO14/TXD*%
%TO.N,Card Beeper*%
X131318000Y-70866000D03*
%TO.P,J1,9,GND*%
%TO.N,Earth*%
X128778000Y-73406000D03*
%TO.P,J1,10,GPIO15/RXD*%
%TO.N,Wiegand 0*%
X131318000Y-73406000D03*
%TO.P,J1,11,GPIO17*%
%TO.N,Int 1B*%
X128778000Y-75946000D03*
%TO.P,J1,12,GPIO18/PWM0*%
%TO.N,Wiegand 1*%
X131318000Y-75946000D03*
%TO.P,J1,13,GPIO27*%
%TO.N,Int 2A*%
X128778000Y-78486000D03*
%TO.P,J1,14,GND*%
%TO.N,Earth*%
X131318000Y-78486000D03*
%TO.P,J1,15,GPIO22*%
%TO.N,Int 2B*%
X128778000Y-81026000D03*
%TO.P,J1,16,GPIO23*%
%TO.N,Card RED*%
X131318000Y-81026000D03*
%TO.P,J1,17,3V3*%
%TO.N,unconnected-(J1-Pad17)*%
X128778000Y-83566000D03*
%TO.P,J1,18,GPIO24*%
%TO.N,Card GRN*%
X131318000Y-83566000D03*
%TO.P,J1,19,MOSI0/GPIO10*%
%TO.N,LED Sig2*%
X128778000Y-86106000D03*
%TO.P,J1,20,GND*%
%TO.N,Earth*%
X131318000Y-86106000D03*
%TO.P,J1,21,MISO0/GPIO9*%
%TO.N,LED Sig4*%
X128778000Y-88646000D03*
%TO.P,J1,22,GPIO25*%
%TO.N,Latch*%
X131318000Y-88646000D03*
%TO.P,J1,23,SCLK0/GPIO11*%
%TO.N,LED Sig1*%
X128778000Y-91186000D03*
%TO.P,J1,24,~{CE0}/GPIO8*%
%TO.N,Main Door*%
X131318000Y-91186000D03*
%TO.P,J1,25,GND*%
%TO.N,Earth*%
X128778000Y-93726000D03*
%TO.P,J1,26,~{CE1}/GPIO7*%
%TO.N,Serv Door*%
X131318000Y-93726000D03*
%TO.P,J1,27,ID_SD/GPIO0*%
%TO.N,LED Sig3*%
X128778000Y-96266000D03*
%TO.P,J1,28,ID_SC/GPIO1*%
%TO.N,Third Reed*%
X131318000Y-96266000D03*
%TO.P,J1,29,GCLK1/GPIO5*%
%TO.N,EXT_GPIO5*%
X128778000Y-98806000D03*
%TO.P,J1,30,GND*%
%TO.N,Earth*%
X131318000Y-98806000D03*
%TO.P,J1,31,GCLK2/GPIO6*%
%TO.N,EXT_GPIO6*%
X128778000Y-101346000D03*
%TO.P,J1,32,PWM0/GPIO12*%
%TO.N,EXT_GPIO12*%
X131318000Y-101346000D03*
%TO.P,J1,33,PWM1/GPIO13*%
%TO.N,EXT_GPIO13*%
X128778000Y-103886000D03*
%TO.P,J1,34,GND*%
%TO.N,Earth*%
X131318000Y-103886000D03*
%TO.P,J1,35,GPIO19/MISO1*%
%TO.N,EXT_GPIO19*%
X128778000Y-106426000D03*
%TO.P,J1,36,GPIO16*%
%TO.N,EXT_GPIO16*%
X131318000Y-106426000D03*
%TO.P,J1,37,GPIO26*%
%TO.N,1-Wire*%
X128778000Y-108966000D03*
%TO.P,J1,38,GPIO20/MOSI1*%
%TO.N,EXT_GPIO20*%
X131318000Y-108966000D03*
%TO.P,J1,39,GND*%
%TO.N,Earth*%
X128778000Y-111506000D03*
%TO.P,J1,40,GPIO21/SCLK1*%
%TO.N,EXT_GPIO21*%
X131318000Y-111506000D03*
%TD*%
D24*
%TO.N,+3V3*%
X83439000Y-97663000D03*
X96901000Y-92075000D03*
%TO.N,Earth*%
X65278000Y-126492000D03*
%TO.N,+5V*%
X75500000Y-62800000D03*
X75500000Y-60075000D03*
%TO.N,Int 2A*%
X124968000Y-98679000D03*
%TO.N,Int 2B*%
X126365000Y-98679000D03*
%TO.N,LED4 Out*%
X83058000Y-92122000D03*
%TD*%
D25*
%TO.N,+3V3*%
X93218000Y-76722000D02*
X93218000Y-82122000D01*
X78994000Y-74930000D02*
X77978000Y-75946000D01*
X92202000Y-74930000D02*
X78994000Y-74930000D01*
X101600000Y-63246000D02*
X100584000Y-64262000D01*
X86614000Y-106680000D02*
X86614000Y-127762000D01*
X77978000Y-75946000D02*
X77978000Y-76722000D01*
X75438000Y-84662000D02*
X77978000Y-84662000D01*
X93218000Y-82122000D02*
X90678000Y-84662000D01*
X128778000Y-63246000D02*
X101600000Y-63246000D01*
X93218000Y-76722000D02*
X93218000Y-75946000D01*
X92456000Y-86614000D02*
X90678000Y-84836000D01*
X85424000Y-128952000D02*
X84328000Y-128952000D01*
X83439000Y-103505000D02*
X86614000Y-106680000D01*
X83439000Y-97663000D02*
X83439000Y-103505000D01*
X100584000Y-64262000D02*
X96901000Y-67945000D01*
X92456000Y-86948000D02*
X92456000Y-86614000D01*
X96901000Y-67945000D02*
X96901000Y-92075000D01*
X86614000Y-127762000D02*
X85424000Y-128952000D01*
X93218000Y-75946000D02*
X92202000Y-74930000D01*
X77978000Y-84662000D02*
X77978000Y-76722000D01*
X90678000Y-84836000D02*
X90678000Y-84662000D01*
%TO.N,Earth*%
X66628406Y-99742000D02*
X65278000Y-99742000D01*
D26*
X139446000Y-142875000D02*
X135382000Y-146939000D01*
X137287000Y-46355000D02*
X139446000Y-48514000D01*
D25*
X64008000Y-84502000D02*
X64008000Y-73072000D01*
D27*
X130048000Y-72136000D02*
X130048000Y-69596000D01*
D26*
X115316000Y-126111000D02*
X115316000Y-127676000D01*
D25*
X92202000Y-71120000D02*
X80478000Y-71120000D01*
D27*
X131318000Y-103886000D02*
X130556000Y-103886000D01*
X131318000Y-86106000D02*
X130048000Y-87376000D01*
D25*
X93218000Y-84662000D02*
X95250000Y-82630000D01*
D27*
X130556000Y-98806000D02*
X130048000Y-99314000D01*
D25*
X98552000Y-93599000D02*
X94107000Y-93599000D01*
X64008000Y-62865000D02*
X65278000Y-61595000D01*
D26*
X111379000Y-124460000D02*
X113665000Y-124460000D01*
D25*
X125774000Y-55880000D02*
X128354000Y-53300000D01*
X94234000Y-90424000D02*
X92710000Y-91948000D01*
D26*
X121285000Y-146769464D02*
X109728000Y-135212464D01*
D25*
X141759000Y-101500000D02*
X139446000Y-99187000D01*
X65278000Y-99742000D02*
X64008000Y-98472000D01*
D27*
X130048000Y-98298000D02*
X130048000Y-99314000D01*
X128778000Y-73406000D02*
X130048000Y-72136000D01*
D25*
X100076000Y-92075000D02*
X98552000Y-93599000D01*
X96520000Y-53975000D02*
X118110000Y-53975000D01*
D26*
X113665000Y-124460000D02*
X115316000Y-126111000D01*
D27*
X130048000Y-93218000D02*
X130048000Y-94234000D01*
D25*
X64008000Y-87042000D02*
X64008000Y-84502000D01*
X65278000Y-71780400D02*
X64008000Y-70510400D01*
X100076000Y-79883000D02*
X100076000Y-92075000D01*
D26*
X139446000Y-84836000D02*
X139446000Y-99187000D01*
D25*
X65278000Y-85772000D02*
X64008000Y-87042000D01*
D27*
X130556000Y-103886000D02*
X130048000Y-104394000D01*
D25*
X94107000Y-93599000D02*
X92456000Y-91948000D01*
D27*
X130048000Y-103378000D02*
X130048000Y-104394000D01*
D25*
X93218000Y-84662000D02*
X94234000Y-85678000D01*
X64008000Y-98472000D02*
X64008000Y-87042000D01*
X110363000Y-108712000D02*
X108331000Y-106680000D01*
D26*
X139446000Y-99187000D02*
X139446000Y-142875000D01*
X135382000Y-146939000D02*
X121285000Y-146939000D01*
X109728000Y-135212464D02*
X109728000Y-126111000D01*
D27*
X128778000Y-93726000D02*
X129540000Y-93726000D01*
D25*
X108331000Y-106680000D02*
X108331000Y-79629000D01*
X66628406Y-113712000D02*
X65278000Y-113712000D01*
X80478000Y-64247400D02*
X80478000Y-71120000D01*
X94234000Y-85678000D02*
X94234000Y-90424000D01*
X65278000Y-71802000D02*
X66628406Y-71802000D01*
D27*
X129540000Y-93726000D02*
X130048000Y-93218000D01*
X130556000Y-98806000D02*
X130048000Y-98298000D01*
D25*
X65278000Y-61595000D02*
X77825600Y-61595000D01*
X66628406Y-85772000D02*
X65278000Y-85772000D01*
D26*
X133799000Y-46355000D02*
X137287000Y-46355000D01*
D25*
X64008000Y-101012000D02*
X64008000Y-98472000D01*
D27*
X131318000Y-98806000D02*
X130556000Y-98806000D01*
D25*
X65278000Y-99742000D02*
X64008000Y-101012000D01*
X149750000Y-101500000D02*
X141759000Y-101500000D01*
X65278000Y-113712000D02*
X64008000Y-112442000D01*
X95250000Y-74168000D02*
X92202000Y-71120000D01*
X112268000Y-108712000D02*
X110363000Y-108712000D01*
X95250000Y-82630000D02*
X95250000Y-74168000D01*
D27*
X130048000Y-94234000D02*
X130048000Y-98298000D01*
D25*
X101981000Y-77978000D02*
X100076000Y-79883000D01*
D26*
X109728000Y-126111000D02*
X111379000Y-124460000D01*
D25*
X120015000Y-55880000D02*
X125774000Y-55880000D01*
X108331000Y-79629000D02*
X106680000Y-77978000D01*
X77825600Y-61595000D02*
X80478000Y-64247400D01*
X142110000Y-87500000D02*
X139446000Y-84836000D01*
X92710000Y-91948000D02*
X92456000Y-91948000D01*
X106680000Y-77978000D02*
X101981000Y-77978000D01*
D27*
X129540000Y-93726000D02*
X130048000Y-94234000D01*
X130048000Y-110236000D02*
X128778000Y-111506000D01*
D26*
X131854000Y-48300000D02*
X133799000Y-46355000D01*
D27*
X130048000Y-104394000D02*
X130048000Y-110236000D01*
D25*
X64008000Y-73072000D02*
X64008000Y-62865000D01*
X64008000Y-73072000D02*
X65278000Y-71802000D01*
D27*
X130048000Y-87376000D02*
X130048000Y-93218000D01*
D26*
X121285000Y-146939000D02*
X121285000Y-146769464D01*
D25*
X64008000Y-112442000D02*
X64008000Y-101012000D01*
X149750000Y-87500000D02*
X142110000Y-87500000D01*
D27*
X130048000Y-99314000D02*
X130048000Y-102616000D01*
D26*
X139446000Y-48514000D02*
X139446000Y-84836000D01*
D25*
X65278000Y-85772000D02*
X64008000Y-84502000D01*
D27*
X130556000Y-103886000D02*
X130048000Y-103378000D01*
X130048000Y-69596000D02*
X131318000Y-68326000D01*
D25*
X88900000Y-61595000D02*
X96520000Y-53975000D01*
X118110000Y-53975000D02*
X120015000Y-55880000D01*
X77825600Y-61595000D02*
X88900000Y-61595000D01*
D27*
X130048000Y-102616000D02*
X130048000Y-103378000D01*
D25*
X65278000Y-126492000D02*
X65278000Y-113712000D01*
%TO.N,+5V*%
X69168406Y-98472000D02*
X71628000Y-98472000D01*
D26*
X135354000Y-53300000D02*
X135354000Y-48300000D01*
X133858000Y-127508000D02*
X137287000Y-124079000D01*
D25*
X72898000Y-99742000D02*
X72898000Y-111172000D01*
X75500000Y-60075000D02*
X75500000Y-52770000D01*
X69168406Y-84502000D02*
X71628000Y-84502000D01*
X74328000Y-76722000D02*
X72898000Y-78152000D01*
X75438000Y-71160000D02*
X75478000Y-71120000D01*
X72898000Y-78152000D02*
X72898000Y-75612000D01*
X71628000Y-70532000D02*
X69168406Y-70532000D01*
X72898000Y-71802000D02*
X71628000Y-70532000D01*
X75500000Y-52770000D02*
X77597000Y-50673000D01*
X72898000Y-75612000D02*
X72898000Y-71802000D01*
X72898000Y-111172000D02*
X71628000Y-112442000D01*
D26*
X130274000Y-144953000D02*
X130274000Y-139953000D01*
D25*
X74008000Y-76722000D02*
X72898000Y-75612000D01*
X75438000Y-76722000D02*
X74328000Y-76722000D01*
X72898000Y-83232000D02*
X72898000Y-78152000D01*
X75500000Y-62800000D02*
X75478000Y-62822000D01*
X71628000Y-112442000D02*
X69168406Y-112442000D01*
X135354000Y-50193000D02*
X135354000Y-48300000D01*
X75478000Y-62822000D02*
X75478000Y-71120000D01*
X77597000Y-50673000D02*
X134874000Y-50673000D01*
D26*
X133858000Y-135509000D02*
X133858000Y-132969000D01*
D25*
X71628000Y-84502000D02*
X72898000Y-85772000D01*
X75438000Y-76722000D02*
X74008000Y-76722000D01*
D26*
X130274000Y-139093000D02*
X133858000Y-135509000D01*
D25*
X71628000Y-98472000D02*
X72898000Y-99742000D01*
D26*
X133858000Y-132969000D02*
X133858000Y-127508000D01*
X130274000Y-139953000D02*
X130274000Y-139093000D01*
D25*
X71628000Y-84502000D02*
X72898000Y-83232000D01*
X134874000Y-50673000D02*
X135354000Y-50193000D01*
X72898000Y-85772000D02*
X72898000Y-83232000D01*
X71628000Y-98472000D02*
X72898000Y-97202000D01*
X72898000Y-97202000D02*
X72898000Y-85772000D01*
X75438000Y-76722000D02*
X75438000Y-71160000D01*
D26*
X137287000Y-124079000D02*
X137287000Y-55233000D01*
X137287000Y-55233000D02*
X135354000Y-53300000D01*
D25*
X72898000Y-97202000D02*
X72898000Y-99742000D01*
D26*
%TO.N,Net-(D1-Pad2)*%
X112776000Y-131572000D02*
X112776000Y-127676000D01*
X123698000Y-135509000D02*
X123698000Y-132969000D01*
X126774000Y-138585000D02*
X123698000Y-135509000D01*
X114173000Y-132969000D02*
X112776000Y-131572000D01*
X126774000Y-144953000D02*
X126774000Y-139953000D01*
X123698000Y-132969000D02*
X114173000Y-132969000D01*
X126774000Y-139953000D02*
X126774000Y-138585000D01*
D27*
%TO.N,Int 1A*%
X114173000Y-101092000D02*
X115443000Y-99822000D01*
X117221000Y-70866000D02*
X128778000Y-70866000D01*
X115443000Y-72644000D02*
X117221000Y-70866000D01*
X115443000Y-99822000D02*
X115443000Y-72644000D01*
X112268000Y-101092000D02*
X114173000Y-101092000D01*
%TO.N,Int 1B*%
X114554000Y-103632000D02*
X117094000Y-101092000D01*
X112268000Y-103632000D02*
X114554000Y-103632000D01*
X117094000Y-77089000D02*
X118237000Y-75946000D01*
X117094000Y-101092000D02*
X117094000Y-77089000D01*
X118237000Y-75946000D02*
X128778000Y-75946000D01*
%TO.N,Int 2A*%
X93425000Y-128952000D02*
X97155000Y-125222000D01*
X124968000Y-111760000D02*
X124968000Y-103632000D01*
X97155000Y-125222000D02*
X101219000Y-121158000D01*
X91948000Y-128952000D02*
X93425000Y-128952000D01*
X124968000Y-103632000D02*
X124968000Y-98679000D01*
X122174000Y-114554000D02*
X124968000Y-111760000D01*
X101219000Y-121158000D02*
X103251000Y-121158000D01*
X115570000Y-121158000D02*
X122174000Y-114554000D01*
X103251000Y-121158000D02*
X115570000Y-121158000D01*
%TO.N,Int 2B*%
X126365000Y-108331000D02*
X126365000Y-98679000D01*
X126365000Y-112522000D02*
X126365000Y-108331000D01*
X116205000Y-122682000D02*
X117856000Y-121031000D01*
X95250000Y-129540000D02*
X102108000Y-122682000D01*
X93298000Y-131492000D02*
X95250000Y-129540000D01*
X103759000Y-122682000D02*
X116205000Y-122682000D01*
X91948000Y-131492000D02*
X93298000Y-131492000D01*
X117856000Y-121031000D02*
X126365000Y-112522000D01*
X102108000Y-122682000D02*
X103759000Y-122682000D01*
%TO.N,LED Sig1*%
X99949000Y-116967000D02*
X101727000Y-118745000D01*
X120523000Y-112649000D02*
X120523000Y-92329000D01*
X121666000Y-91186000D02*
X128778000Y-91186000D01*
X86868000Y-94869000D02*
X89281000Y-97282000D01*
X89281000Y-97282000D02*
X97663000Y-97282000D01*
X97663000Y-97282000D02*
X99949000Y-99568000D01*
X101727000Y-118745000D02*
X114427000Y-118745000D01*
X114427000Y-118745000D02*
X120523000Y-112649000D01*
X80518000Y-76722000D02*
X86868000Y-83072000D01*
X86868000Y-83072000D02*
X86868000Y-94869000D01*
X99949000Y-99568000D02*
X99949000Y-116967000D01*
X120523000Y-92329000D02*
X121666000Y-91186000D01*
%TO.N,LED Sig2*%
X121666000Y-86106000D02*
X128778000Y-86106000D01*
X103251000Y-116586000D02*
X113411000Y-116586000D01*
X118491000Y-89281000D02*
X121666000Y-86106000D01*
X113411000Y-116586000D02*
X118491000Y-111506000D01*
X89408000Y-93218000D02*
X91186000Y-94996000D01*
X102108000Y-115443000D02*
X103251000Y-116586000D01*
X102108000Y-98171000D02*
X102108000Y-115443000D01*
X91186000Y-94996000D02*
X98933000Y-94996000D01*
X98933000Y-94996000D02*
X102108000Y-98171000D01*
X90678000Y-76722000D02*
X90678000Y-82550000D01*
X118491000Y-111506000D02*
X118491000Y-89281000D01*
X89408000Y-83820000D02*
X89408000Y-93218000D01*
X90678000Y-82550000D02*
X89408000Y-83820000D01*
%TO.N,Latch*%
X134239000Y-90043000D02*
X134239000Y-123444000D01*
X131318000Y-88646000D02*
X132842000Y-88646000D01*
X134239000Y-123444000D02*
X130007000Y-127676000D01*
X130007000Y-127676000D02*
X117856000Y-127676000D01*
X132842000Y-88646000D02*
X134239000Y-90043000D01*
%TO.N,LED Sig3*%
X96774000Y-98552000D02*
X98806000Y-100584000D01*
X114808000Y-120015000D02*
X121666000Y-113157000D01*
X88773000Y-98552000D02*
X96774000Y-98552000D01*
X121666000Y-97536000D02*
X122936000Y-96266000D01*
X81534000Y-87376000D02*
X84328000Y-87376000D01*
X100838000Y-120015000D02*
X114808000Y-120015000D01*
X84328000Y-87376000D02*
X85598000Y-88646000D01*
X80518000Y-86360000D02*
X81534000Y-87376000D01*
X98806000Y-117983000D02*
X100838000Y-120015000D01*
X98806000Y-100584000D02*
X98806000Y-117983000D01*
X122936000Y-96266000D02*
X128778000Y-96266000D01*
X85598000Y-95377000D02*
X88773000Y-98552000D01*
X80518000Y-84662000D02*
X80518000Y-86360000D01*
X121666000Y-113157000D02*
X121666000Y-97536000D01*
X85598000Y-88646000D02*
X85598000Y-95377000D01*
%TO.N,LED Sig4*%
X119380000Y-112014000D02*
X119380000Y-90170000D01*
X120904000Y-88646000D02*
X128778000Y-88646000D01*
X88138000Y-84662000D02*
X88138000Y-93980000D01*
X90297000Y-96139000D02*
X98171000Y-96139000D01*
X113792000Y-117602000D02*
X119380000Y-112014000D01*
X98171000Y-96139000D02*
X101092000Y-99060000D01*
X101092000Y-116205000D02*
X102489000Y-117602000D01*
X88138000Y-93980000D02*
X90297000Y-96139000D01*
X119380000Y-90170000D02*
X120904000Y-88646000D01*
X102489000Y-117602000D02*
X113792000Y-117602000D01*
X101092000Y-99060000D02*
X101092000Y-116205000D01*
%TO.N,LED4 Out*%
X72898000Y-114982000D02*
X69168406Y-114982000D01*
X74168000Y-113712000D02*
X72898000Y-114982000D01*
X74168000Y-93392000D02*
X74168000Y-113712000D01*
X83058000Y-92122000D02*
X75438000Y-92122000D01*
X75438000Y-92122000D02*
X74168000Y-93392000D01*
%TD*%
M02*
