%TF.GenerationSoftware,KiCad,Pcbnew,7.0.2-0*%
%TF.CreationDate,2023-05-02T13:55:30-04:00*%
%TF.ProjectId,SATS,53415453-2e6b-4696-9361-645f70636258,rev?*%
%TF.SameCoordinates,Original*%
%TF.FileFunction,Copper,L1,Top*%
%TF.FilePolarity,Positive*%
%FSLAX46Y46*%
G04 Gerber Fmt 4.6, Leading zero omitted, Abs format (unit mm)*
G04 Created by KiCad (PCBNEW 7.0.2-0) date 2023-05-02 13:55:30*
%MOMM*%
%LPD*%
G01*
G04 APERTURE LIST*
G04 Aperture macros list*
%AMRoundRect*
0 Rectangle with rounded corners*
0 $1 Rounding radius*
0 $2 $3 $4 $5 $6 $7 $8 $9 X,Y pos of 4 corners*
0 Add a 4 corners polygon primitive as box body*
4,1,4,$2,$3,$4,$5,$6,$7,$8,$9,$2,$3,0*
0 Add four circle primitives for the rounded corners*
1,1,$1+$1,$2,$3*
1,1,$1+$1,$4,$5*
1,1,$1+$1,$6,$7*
1,1,$1+$1,$8,$9*
0 Add four rect primitives between the rounded corners*
20,1,$1+$1,$2,$3,$4,$5,0*
20,1,$1+$1,$4,$5,$6,$7,0*
20,1,$1+$1,$6,$7,$8,$9,0*
20,1,$1+$1,$8,$9,$2,$3,0*%
G04 Aperture macros list end*
%TA.AperFunction,ComponentPad*%
%ADD10R,1.650000X1.650000*%
%TD*%
%TA.AperFunction,ComponentPad*%
%ADD11C,1.650000*%
%TD*%
%TA.AperFunction,ComponentPad*%
%ADD12R,1.600000X1.600000*%
%TD*%
%TA.AperFunction,ComponentPad*%
%ADD13O,1.600000X1.600000*%
%TD*%
%TA.AperFunction,ComponentPad*%
%ADD14C,1.397000*%
%TD*%
%TA.AperFunction,ComponentPad*%
%ADD15C,1.600000*%
%TD*%
%TA.AperFunction,ComponentPad*%
%ADD16R,2.000000X2.000000*%
%TD*%
%TA.AperFunction,ComponentPad*%
%ADD17C,2.000000*%
%TD*%
%TA.AperFunction,SMDPad,CuDef*%
%ADD18RoundRect,0.187500X0.562500X-0.562500X0.562500X0.562500X-0.562500X0.562500X-0.562500X-0.562500X0*%
%TD*%
%TA.AperFunction,ComponentPad*%
%ADD19R,2.200000X2.200000*%
%TD*%
%TA.AperFunction,ComponentPad*%
%ADD20O,2.200000X2.200000*%
%TD*%
%TA.AperFunction,ComponentPad*%
%ADD21R,1.905000X2.000000*%
%TD*%
%TA.AperFunction,ComponentPad*%
%ADD22O,1.905000X2.000000*%
%TD*%
%TA.AperFunction,ComponentPad*%
%ADD23R,1.700000X1.700000*%
%TD*%
%TA.AperFunction,ComponentPad*%
%ADD24O,1.700000X1.700000*%
%TD*%
%TA.AperFunction,ViaPad*%
%ADD25C,1.200000*%
%TD*%
%TA.AperFunction,ViaPad*%
%ADD26C,0.800000*%
%TD*%
%TA.AperFunction,Conductor*%
%ADD27C,0.500000*%
%TD*%
%TA.AperFunction,Conductor*%
%ADD28C,1.000000*%
%TD*%
%TA.AperFunction,Conductor*%
%ADD29C,0.250000*%
%TD*%
G04 APERTURE END LIST*
D10*
%TO.P,J14,1,1*%
%TO.N,EXT_GPIO21*%
X154700000Y-138500000D03*
D11*
%TO.P,J14,3,2*%
%TO.N,EXT_GPIO20*%
X154700000Y-135000000D03*
%TO.P,J14,4,2*%
X149700000Y-135000000D03*
%TO.P,J14,2,1*%
%TO.N,EXT_GPIO21*%
X149700000Y-138500000D03*
%TD*%
%TO.P,SW2,4,2*%
%TO.N,Serv Door*%
X149750000Y-86250000D03*
%TO.P,SW2,3,2*%
X154750000Y-86250000D03*
%TO.P,SW2,2,1*%
%TO.N,Earth*%
X149750000Y-89750000D03*
D10*
%TO.P,SW2,1,1*%
X154750000Y-89750000D03*
%TD*%
D12*
%TO.P,U2,1,GPB0*%
%TO.N,PD_31*%
X84328000Y-108632000D03*
D13*
%TO.P,U2,2,GPB1*%
%TO.N,PD_32*%
X84328000Y-111172000D03*
%TO.P,U2,3,GPB2*%
%TO.N,PD_33*%
X84328000Y-113712000D03*
%TO.P,U2,4,GPB3*%
%TO.N,PD_34*%
X84328000Y-116252000D03*
%TO.P,U2,5,GPB4*%
%TO.N,PD_35*%
X84328000Y-118792000D03*
%TO.P,U2,6,GPB5*%
%TO.N,unconnected-(U2-GPB5-Pad6)*%
X84328000Y-121332000D03*
%TO.P,U2,7,GPB6*%
%TO.N,unconnected-(U2-GPB6-Pad7)*%
X84328000Y-123872000D03*
%TO.P,U2,8,GPB7*%
%TO.N,unconnected-(U2-GPB7-Pad8)*%
X84328000Y-126412000D03*
%TO.P,U2,9,VDD*%
%TO.N,+3V3*%
X84328000Y-128952000D03*
%TO.P,U2,10,VSS*%
%TO.N,Earth*%
X84328000Y-131492000D03*
%TO.P,U2,11,NC*%
%TO.N,unconnected-(U2-NC-Pad11)*%
X84328000Y-134032000D03*
%TO.P,U2,12,SCK*%
%TO.N,SCL*%
X84328000Y-136572000D03*
%TO.P,U2,13,SDA*%
%TO.N,SDA*%
X84328000Y-139112000D03*
%TO.P,U2,14,NC*%
%TO.N,unconnected-(U2-NC-Pad14)*%
X84328000Y-141652000D03*
%TO.P,U2,15,A0*%
%TO.N,Earth*%
X91948000Y-141652000D03*
%TO.P,U2,16,A1*%
X91948000Y-139112000D03*
%TO.P,U2,17,A2*%
%TO.N,+3V3*%
X91948000Y-136572000D03*
%TO.P,U2,18,~{RESET}*%
X91948000Y-134032000D03*
%TO.P,U2,19,INTB*%
%TO.N,Int 2B*%
X91948000Y-131492000D03*
%TO.P,U2,20,INTA*%
%TO.N,Int 2A*%
X91948000Y-128952000D03*
%TO.P,U2,21,GPA0*%
%TO.N,PD_41*%
X91948000Y-126412000D03*
%TO.P,U2,22,GPA1*%
%TO.N,PD_42*%
X91948000Y-123872000D03*
%TO.P,U2,23,GPA2*%
%TO.N,PD_43*%
X91948000Y-121332000D03*
%TO.P,U2,24,GPA3*%
%TO.N,PD_44*%
X91948000Y-118792000D03*
%TO.P,U2,25,GPA4*%
%TO.N,PD_45*%
X91948000Y-116252000D03*
%TO.P,U2,26,GPA5*%
%TO.N,unconnected-(U2-GPA5-Pad26)*%
X91948000Y-113712000D03*
%TO.P,U2,27,GPA6*%
%TO.N,unconnected-(U2-GPA6-Pad27)*%
X91948000Y-111172000D03*
%TO.P,U2,28,GPA7*%
%TO.N,unconnected-(U2-GPA7-Pad28)*%
X91948000Y-108632000D03*
%TD*%
D14*
%TO.P,J2,A1,A1*%
%TO.N,PD_21*%
X66310406Y-64220000D03*
%TO.P,J2,A2,A2*%
%TO.N,PD_22*%
X68850406Y-65490000D03*
%TO.P,J2,A3,A3*%
%TO.N,PD_23*%
X66310406Y-66760000D03*
%TO.P,J2,A4,A4*%
%TO.N,PD_24*%
X68850406Y-68030000D03*
%TO.P,J2,A5,A5*%
%TO.N,PD_25*%
X66310406Y-69300000D03*
%TO.P,J2,A6,A6*%
%TO.N,+5V*%
X68850406Y-70570000D03*
%TO.P,J2,A7,A7*%
%TO.N,Earth*%
X66310406Y-71840000D03*
%TO.P,J2,A8,A8*%
%TO.N,LED2 Out*%
X68850406Y-73110000D03*
%TO.P,J2,B1,B1*%
%TO.N,PD_11*%
X66310406Y-78190000D03*
%TO.P,J2,B2,B2*%
%TO.N,PD_12*%
X68850406Y-79460000D03*
%TO.P,J2,B3,B3*%
%TO.N,PD_13*%
X66310406Y-80730000D03*
%TO.P,J2,B4,B4*%
%TO.N,PD_14*%
X68850406Y-82000000D03*
%TO.P,J2,B5,B5*%
%TO.N,PD_15*%
X66310406Y-83270000D03*
%TO.P,J2,B6,B6*%
%TO.N,+5V*%
X68850406Y-84540000D03*
%TO.P,J2,B7,B7*%
%TO.N,Earth*%
X66310406Y-85810000D03*
%TO.P,J2,B8,B8*%
%TO.N,LED1 Out*%
X68850406Y-87080000D03*
%TO.P,J2,C1,C1*%
%TO.N,PD_41*%
X66310406Y-92160000D03*
%TO.P,J2,C2,C2*%
%TO.N,PD_42*%
X68850406Y-93430000D03*
%TO.P,J2,C3,C3*%
%TO.N,PD_43*%
X66310406Y-94700000D03*
%TO.P,J2,C4,C4*%
%TO.N,PD_44*%
X68850406Y-95970000D03*
%TO.P,J2,C5,C5*%
%TO.N,PD_45*%
X66310406Y-97240000D03*
%TO.P,J2,C6,C6*%
%TO.N,+5V*%
X68850406Y-98510000D03*
%TO.P,J2,C7,C7*%
%TO.N,Earth*%
X66310406Y-99780000D03*
%TO.P,J2,C8,C8*%
%TO.N,LED3 Out*%
X68850406Y-101050000D03*
%TO.P,J2,D1,D1*%
%TO.N,PD_31*%
X66310406Y-106130000D03*
%TO.P,J2,D2,D2*%
%TO.N,PD_32*%
X68850406Y-107400000D03*
%TO.P,J2,D3,D3*%
%TO.N,PD_33*%
X66310406Y-108670000D03*
%TO.P,J2,D4,D4*%
%TO.N,PD_34*%
X68850406Y-109940000D03*
%TO.P,J2,D5,D5*%
%TO.N,PD_35*%
X66310406Y-111210000D03*
%TO.P,J2,D6,D6*%
%TO.N,+5V*%
X68850406Y-112480000D03*
%TO.P,J2,D7,D7*%
%TO.N,Earth*%
X66310406Y-113750000D03*
%TO.P,J2,D8,D8*%
%TO.N,LED4 Out*%
X68850406Y-115020000D03*
%TD*%
D11*
%TO.P,J11,4,2*%
%TO.N,+5V*%
X154700000Y-114500000D03*
%TO.P,J11,3,2*%
X149700000Y-114500000D03*
%TO.P,J11,2,1*%
%TO.N,Earth*%
X154700000Y-111000000D03*
D10*
%TO.P,J11,1,1*%
X149700000Y-111000000D03*
%TD*%
D11*
%TO.P,SW1,4,2*%
%TO.N,Main Door*%
X149750000Y-79250000D03*
%TO.P,SW1,3,2*%
X154750000Y-79250000D03*
%TO.P,SW1,2,1*%
%TO.N,Earth*%
X149750000Y-82750000D03*
D10*
%TO.P,SW1,1,1*%
X154750000Y-82750000D03*
%TD*%
D15*
%TO.P,C4,1*%
%TO.N,+3V3*%
X92456000Y-86948000D03*
%TO.P,C4,2*%
%TO.N,Earth*%
X92456000Y-91948000D03*
%TD*%
D10*
%TO.P,L1,1,1*%
%TO.N,+5V*%
X130274000Y-139953000D03*
D11*
%TO.P,L1,2,1*%
X130274000Y-144953000D03*
%TO.P,L1,3,2*%
%TO.N,Net-(L1-2-Pad3)*%
X126774000Y-139953000D03*
%TO.P,L1,4,2*%
X126774000Y-144953000D03*
%TD*%
D12*
%TO.P,U3,1,VCC*%
%TO.N,+3V3*%
X75453000Y-84495800D03*
D13*
%TO.P,U3,2,EN_A*%
X77993000Y-84495800D03*
%TO.P,U3,3,A*%
%TO.N,LED Sig3*%
X80533000Y-84495800D03*
%TO.P,U3,4,E*%
%TO.N,LED3 Out*%
X83073000Y-84495800D03*
%TO.P,U3,5,F*%
%TO.N,LED4 Out*%
X85613000Y-84495800D03*
%TO.P,U3,6,B*%
%TO.N,LED Sig4*%
X88153000Y-84495800D03*
%TO.P,U3,7,EN_B*%
%TO.N,+3V3*%
X90693000Y-84495800D03*
%TO.P,U3,8,VSS*%
%TO.N,Earth*%
X93233000Y-84495800D03*
%TO.P,U3,9,EN_C*%
%TO.N,+3V3*%
X93233000Y-76875800D03*
%TO.P,U3,10,C*%
%TO.N,LED Sig2*%
X90693000Y-76875800D03*
%TO.P,U3,11,G*%
%TO.N,LED2 Out*%
X88153000Y-76875800D03*
%TO.P,U3,12*%
%TO.N,N/C*%
X85613000Y-76875800D03*
%TO.P,U3,13,H*%
%TO.N,LED1 Out*%
X83073000Y-76875800D03*
%TO.P,U3,14,D*%
%TO.N,LED Sig1*%
X80533000Y-76875800D03*
%TO.P,U3,15,EN_D*%
%TO.N,+3V3*%
X77993000Y-76875800D03*
%TO.P,U3,16,VDD*%
%TO.N,+5V*%
X75453000Y-76875800D03*
%TD*%
D10*
%TO.P,J4,1,1*%
%TO.N,+5V*%
X135354000Y-48300000D03*
D11*
%TO.P,J4,2,1*%
X135354000Y-53300000D03*
%TO.P,J4,3,2*%
%TO.N,Earth*%
X131854000Y-48300000D03*
%TO.P,J4,4,2*%
X131854000Y-53300000D03*
%TD*%
D16*
%TO.P,C5,1*%
%TO.N,+5V*%
X138950000Y-144367677D03*
D17*
%TO.P,C5,2*%
%TO.N,Earth*%
X138950000Y-139367677D03*
%TD*%
D11*
%TO.P,J10,4,2*%
%TO.N,PHOTO*%
X154700000Y-106750000D03*
%TO.P,J10,3,2*%
X149700000Y-106750000D03*
%TO.P,J10,2,1*%
%TO.N,TOUCH*%
X154700000Y-103250000D03*
D10*
%TO.P,J10,1,1*%
X149700000Y-103250000D03*
%TD*%
D11*
%TO.P,SW3,4,2*%
%TO.N,Third Reed*%
X149750000Y-93250000D03*
%TO.P,SW3,3,2*%
X154750000Y-93250000D03*
%TO.P,SW3,2,1*%
%TO.N,Earth*%
X149750000Y-96750000D03*
D10*
%TO.P,SW3,1,1*%
X154750000Y-96750000D03*
%TD*%
D15*
%TO.P,C2,1*%
%TO.N,+3V3*%
X95758000Y-134032000D03*
%TO.P,C2,2*%
%TO.N,Earth*%
X95758000Y-139032000D03*
%TD*%
D10*
%TO.P,J12,1,1*%
%TO.N,EXT_GPIO12*%
X149700000Y-121000000D03*
D11*
%TO.P,J12,2,1*%
X154700000Y-121000000D03*
%TO.P,J12,3,2*%
%TO.N,EXT_GPIO13*%
X149700000Y-124500000D03*
%TO.P,J12,4,2*%
X154700000Y-124500000D03*
%TD*%
D10*
%TO.P,J6,1,1*%
%TO.N,Card GRN*%
X154750000Y-72750000D03*
D11*
%TO.P,J6,2,1*%
X149750000Y-72750000D03*
%TO.P,J6,3,2*%
%TO.N,Card RED*%
X154750000Y-69250000D03*
%TO.P,J6,4,2*%
X149750000Y-69250000D03*
%TD*%
D15*
%TO.P,C1,1*%
%TO.N,+3V3*%
X116078000Y-106172000D03*
%TO.P,C1,2*%
%TO.N,Earth*%
X116078000Y-111172000D03*
%TD*%
D10*
%TO.P,J9,1,1*%
%TO.N,Earth*%
X154750000Y-51750000D03*
D11*
%TO.P,J9,2,1*%
X149750000Y-51750000D03*
%TO.P,J9,3,2*%
%TO.N,+5V*%
X154750000Y-48250000D03*
%TO.P,J9,4,2*%
X149750000Y-48250000D03*
%TD*%
D10*
%TO.P,J8,1,1*%
%TO.N,Card Beeper*%
X154750000Y-58750000D03*
D11*
%TO.P,J8,2,1*%
X149750000Y-58750000D03*
%TO.P,J8,3,2*%
%TO.N,Earth*%
X154750000Y-55250000D03*
%TO.P,J8,4,2*%
X149750000Y-55250000D03*
%TD*%
D18*
%TO.P,J3,R1*%
%TO.N,Earth*%
X55118000Y-131870000D03*
%TO.P,J3,R1N*%
%TO.N,unconnected-(J3-PadR1N)*%
X58818000Y-131870000D03*
%TO.P,J3,R2*%
%TO.N,Earth*%
X51418000Y-137370000D03*
%TO.P,J3,S*%
X51418000Y-131870000D03*
%TO.P,J3,T*%
%TO.N,1-Wire*%
X55118000Y-137370000D03*
%TO.P,J3,TN*%
%TO.N,unconnected-(J3-PadTN)*%
X58818000Y-137370000D03*
%TD*%
D19*
%TO.P,D1,1,K*%
%TO.N,+5V*%
X134747000Y-133477000D03*
D20*
%TO.P,D1,2,A*%
%TO.N,Net-(D1-A)*%
X124587000Y-133477000D03*
%TD*%
D15*
%TO.P,C3,1*%
%TO.N,+5V*%
X75478000Y-71120000D03*
%TO.P,C3,2*%
%TO.N,Earth*%
X80478000Y-71120000D03*
%TD*%
D12*
%TO.P,U1,1,GPB0*%
%TO.N,PD_11*%
X104648000Y-80772000D03*
D13*
%TO.P,U1,2,GPB1*%
%TO.N,PD_12*%
X104648000Y-83312000D03*
%TO.P,U1,3,GPB2*%
%TO.N,PD_13*%
X104648000Y-85852000D03*
%TO.P,U1,4,GPB3*%
%TO.N,PD_14*%
X104648000Y-88392000D03*
%TO.P,U1,5,GPB4*%
%TO.N,PD_15*%
X104648000Y-90932000D03*
%TO.P,U1,6,GPB5*%
%TO.N,unconnected-(U1-GPB5-Pad6)*%
X104648000Y-93472000D03*
%TO.P,U1,7,GPB6*%
%TO.N,unconnected-(U1-GPB6-Pad7)*%
X104648000Y-96012000D03*
%TO.P,U1,8,GPB7*%
%TO.N,unconnected-(U1-GPB7-Pad8)*%
X104648000Y-98552000D03*
%TO.P,U1,9,VDD*%
%TO.N,+3V3*%
X104648000Y-101092000D03*
%TO.P,U1,10,VSS*%
%TO.N,Earth*%
X104648000Y-103632000D03*
%TO.P,U1,11,NC*%
%TO.N,unconnected-(U1-NC-Pad11)*%
X104648000Y-106172000D03*
%TO.P,U1,12,SCK*%
%TO.N,SCL*%
X104648000Y-108712000D03*
%TO.P,U1,13,SDA*%
%TO.N,SDA*%
X104648000Y-111252000D03*
%TO.P,U1,14,NC*%
%TO.N,unconnected-(U1-NC-Pad14)*%
X104648000Y-113792000D03*
%TO.P,U1,15,A0*%
%TO.N,Earth*%
X112268000Y-113792000D03*
%TO.P,U1,16,A1*%
X112268000Y-111252000D03*
%TO.P,U1,17,A2*%
X112268000Y-108712000D03*
%TO.P,U1,18,~{RESET}*%
%TO.N,+3V3*%
X112268000Y-106172000D03*
%TO.P,U1,19,INTB*%
%TO.N,Int 1B*%
X112268000Y-103632000D03*
%TO.P,U1,20,INTA*%
%TO.N,Int 1A*%
X112268000Y-101092000D03*
%TO.P,U1,21,GPA0*%
%TO.N,PD_21*%
X112268000Y-98552000D03*
%TO.P,U1,22,GPA1*%
%TO.N,PD_22*%
X112268000Y-96012000D03*
%TO.P,U1,23,GPA2*%
%TO.N,PD_23*%
X112268000Y-93472000D03*
%TO.P,U1,24,GPA3*%
%TO.N,PD_24*%
X112268000Y-90932000D03*
%TO.P,U1,25,GPA4*%
%TO.N,PD_25*%
X112268000Y-88392000D03*
%TO.P,U1,26,GPA5*%
%TO.N,unconnected-(U1-GPA5-Pad26)*%
X112268000Y-85852000D03*
%TO.P,U1,27,GPA6*%
%TO.N,unconnected-(U1-GPA6-Pad27)*%
X112268000Y-83312000D03*
%TO.P,U1,28,GPA7*%
%TO.N,unconnected-(U1-GPA7-Pad28)*%
X112268000Y-80772000D03*
%TD*%
D21*
%TO.P,U4,1,G*%
%TO.N,Latch*%
X116586000Y-127676000D03*
D22*
%TO.P,U4,2,D*%
%TO.N,Earth*%
X114046000Y-127676000D03*
%TO.P,U4,3,S*%
%TO.N,Net-(D1-A)*%
X111506000Y-127676000D03*
%TD*%
D10*
%TO.P,J7,1,1*%
%TO.N,Wiegand 1*%
X154749998Y-65750000D03*
D11*
%TO.P,J7,2,1*%
X149749998Y-65750000D03*
%TO.P,J7,3,2*%
%TO.N,Wiegand 0*%
X154749998Y-62250000D03*
%TO.P,J7,4,2*%
X149749998Y-62250000D03*
%TD*%
D15*
%TO.P,R1,1*%
%TO.N,1-Wire*%
X69469000Y-129032000D03*
D13*
%TO.P,R1,2*%
%TO.N,+3V3*%
X77089000Y-129032000D03*
%TD*%
D10*
%TO.P,J13,1,1*%
%TO.N,EXT_GPIO16*%
X149700000Y-128000000D03*
D11*
%TO.P,J13,2,1*%
X154700000Y-128000000D03*
%TO.P,J13,3,2*%
%TO.N,EXT_GPIO19*%
X149700000Y-131500000D03*
%TO.P,J13,4,2*%
X154700000Y-131500000D03*
%TD*%
D15*
%TO.P,R2,1*%
%TO.N,Net-(L1-2-Pad3)*%
X121400000Y-141100000D03*
D13*
%TO.P,R2,2*%
%TO.N,Net-(D1-A)*%
X121400000Y-133480000D03*
%TD*%
D10*
%TO.P,J5,1,1*%
%TO.N,Earth*%
X128354000Y-48300000D03*
D11*
%TO.P,J5,2,1*%
X128354000Y-53300000D03*
%TO.P,J5,3,2*%
%TO.N,+3V3*%
X124854000Y-48300000D03*
%TO.P,J5,4,2*%
X124854000Y-53300000D03*
%TD*%
D23*
%TO.P,J1,1,3V3*%
%TO.N,+3V3*%
X128778000Y-63246000D03*
D24*
%TO.P,J1,2,5V*%
%TO.N,+5V*%
X131318000Y-63246000D03*
%TO.P,J1,3,SDA/GPIO2*%
%TO.N,SDA*%
X128778000Y-65786000D03*
%TO.P,J1,4,5V*%
%TO.N,+5V*%
X131318000Y-65786000D03*
%TO.P,J1,5,SCL/GPIO3*%
%TO.N,SCL*%
X128778000Y-68326000D03*
%TO.P,J1,6,GND*%
%TO.N,Earth*%
X131318000Y-68326000D03*
%TO.P,J1,7,GCLK0/GPIO4*%
%TO.N,Int 1A*%
X128778000Y-70866000D03*
%TO.P,J1,8,GPIO14/TXD*%
%TO.N,Card Beeper*%
X131318000Y-70866000D03*
%TO.P,J1,9,GND*%
%TO.N,Earth*%
X128778000Y-73406000D03*
%TO.P,J1,10,GPIO15/RXD*%
%TO.N,Wiegand 0*%
X131318000Y-73406000D03*
%TO.P,J1,11,GPIO17*%
%TO.N,Int 1B*%
X128778000Y-75946000D03*
%TO.P,J1,12,GPIO18/PWM0*%
%TO.N,Wiegand 1*%
X131318000Y-75946000D03*
%TO.P,J1,13,GPIO27*%
%TO.N,Int 2A*%
X128778000Y-78486000D03*
%TO.P,J1,14,GND*%
%TO.N,Earth*%
X131318000Y-78486000D03*
%TO.P,J1,15,GPIO22*%
%TO.N,Int 2B*%
X128778000Y-81026000D03*
%TO.P,J1,16,GPIO23*%
%TO.N,Card RED*%
X131318000Y-81026000D03*
%TO.P,J1,17,3V3*%
%TO.N,unconnected-(J1-3V3-Pad17)*%
X128778000Y-83566000D03*
%TO.P,J1,18,GPIO24*%
%TO.N,Card GRN*%
X131318000Y-83566000D03*
%TO.P,J1,19,MOSI0/GPIO10*%
%TO.N,LED Sig2*%
X128778000Y-86106000D03*
%TO.P,J1,20,GND*%
%TO.N,Earth*%
X131318000Y-86106000D03*
%TO.P,J1,21,MISO0/GPIO9*%
%TO.N,LED Sig4*%
X128778000Y-88646000D03*
%TO.P,J1,22,GPIO25*%
%TO.N,Latch*%
X131318000Y-88646000D03*
%TO.P,J1,23,SCLK0/GPIO11*%
%TO.N,LED Sig1*%
X128778000Y-91186000D03*
%TO.P,J1,24,~{CE0}/GPIO8*%
%TO.N,Main Door*%
X131318000Y-91186000D03*
%TO.P,J1,25,GND*%
%TO.N,Earth*%
X128778000Y-93726000D03*
%TO.P,J1,26,~{CE1}/GPIO7*%
%TO.N,Serv Door*%
X131318000Y-93726000D03*
%TO.P,J1,27,ID_SD/GPIO0*%
%TO.N,LED Sig3*%
X128778000Y-96266000D03*
%TO.P,J1,28,ID_SC/GPIO1*%
%TO.N,Third Reed*%
X131318000Y-96266000D03*
%TO.P,J1,29,GCLK1/GPIO5*%
%TO.N,TOUCH*%
X128778000Y-98806000D03*
%TO.P,J1,30,GND*%
%TO.N,Earth*%
X131318000Y-98806000D03*
%TO.P,J1,31,GCLK2/GPIO6*%
%TO.N,PHOTO*%
X128778000Y-101346000D03*
%TO.P,J1,32,PWM0/GPIO12*%
%TO.N,EXT_GPIO12*%
X131318000Y-101346000D03*
%TO.P,J1,33,PWM1/GPIO13*%
%TO.N,EXT_GPIO13*%
X128778000Y-103886000D03*
%TO.P,J1,34,GND*%
%TO.N,Earth*%
X131318000Y-103886000D03*
%TO.P,J1,35,GPIO19/MISO1*%
%TO.N,EXT_GPIO19*%
X128778000Y-106426000D03*
%TO.P,J1,36,GPIO16*%
%TO.N,EXT_GPIO16*%
X131318000Y-106426000D03*
%TO.P,J1,37,GPIO26*%
%TO.N,1-Wire*%
X128778000Y-108966000D03*
%TO.P,J1,38,GPIO20/MOSI1*%
%TO.N,EXT_GPIO20*%
X131318000Y-108966000D03*
%TO.P,J1,39,GND*%
%TO.N,Earth*%
X128778000Y-111506000D03*
%TO.P,J1,40,GPIO21/SCLK1*%
%TO.N,EXT_GPIO21*%
X131318000Y-111506000D03*
%TD*%
D25*
%TO.N,+3V3*%
X83439000Y-97663000D03*
X96901000Y-92075000D03*
%TO.N,Earth*%
X122174000Y-72517000D03*
X120396000Y-59944000D03*
X120396000Y-67945000D03*
X55118000Y-129794000D03*
%TO.N,SDA*%
X126174500Y-69659500D03*
D26*
%TO.N,Int 2A*%
X124968000Y-98679000D03*
%TO.N,Int 2B*%
X126365000Y-98679000D03*
D25*
%TO.N,LED4 Out*%
X83058000Y-92122000D03*
%TD*%
D27*
%TO.N,TOUCH*%
X133036000Y-97536000D02*
X140208000Y-97536000D01*
X140208000Y-97536000D02*
X145922000Y-103250000D01*
X145922000Y-103250000D02*
X149700000Y-103250000D01*
%TO.N,PHOTO*%
X133731000Y-100076000D02*
X138453000Y-100076000D01*
X138453000Y-100076000D02*
X145127000Y-106750000D01*
X145127000Y-106750000D02*
X149700000Y-106750000D01*
%TO.N,Main Door*%
X149750000Y-79250000D02*
X144750000Y-79250000D01*
X132814000Y-91186000D02*
X131318000Y-91186000D01*
X144750000Y-79250000D02*
X132814000Y-91186000D01*
%TO.N,Serv Door*%
X149750000Y-86250000D02*
X140250000Y-86250000D01*
X132774000Y-93726000D02*
X131318000Y-93726000D01*
X140250000Y-86250000D02*
X132774000Y-93726000D01*
%TO.N,Third Reed*%
X132766000Y-96266000D02*
X135782000Y-93250000D01*
X135782000Y-93250000D02*
X149750000Y-93250000D01*
D28*
%TO.N,+5V*%
X149700000Y-114500000D02*
X154700000Y-114500000D01*
D27*
%TO.N,EXT_GPIO21*%
X149700000Y-138500000D02*
X154700000Y-138500000D01*
X131318000Y-111506000D02*
X129794000Y-113030000D01*
X129794000Y-113030000D02*
X128524000Y-113030000D01*
X126746000Y-121539000D02*
X143707000Y-138500000D01*
X126746000Y-114808000D02*
X126746000Y-121539000D01*
X128524000Y-113030000D02*
X126746000Y-114808000D01*
X143707000Y-138500000D02*
X149700000Y-138500000D01*
%TO.N,EXT_GPIO20*%
X131318000Y-108966000D02*
X132966000Y-108966000D01*
X134000000Y-110000000D02*
X134000000Y-124983000D01*
X144017000Y-135000000D02*
X149700000Y-135000000D01*
X132966000Y-108966000D02*
X134000000Y-110000000D01*
X134000000Y-124983000D02*
X144017000Y-135000000D01*
%TO.N,EXT_GPIO19*%
X135500000Y-110500000D02*
X135500000Y-122800000D01*
X135500000Y-122800000D02*
X144200000Y-131500000D01*
X144200000Y-131500000D02*
X149700000Y-131500000D01*
%TO.N,EXT_GPIO16*%
X131318000Y-106426000D02*
X132926000Y-106426000D01*
X132926000Y-106426000D02*
X137160000Y-110660000D01*
X137160000Y-110660000D02*
X137160000Y-121285000D01*
X137160000Y-121285000D02*
X143875000Y-128000000D01*
X143875000Y-128000000D02*
X149700000Y-128000000D01*
%TO.N,EXT_GPIO13*%
X137033000Y-105156000D02*
X138303000Y-106426000D01*
X143931000Y-124500000D02*
X149700000Y-124500000D01*
X138303000Y-106426000D02*
X138303000Y-118872000D01*
X138303000Y-118872000D02*
X143931000Y-124500000D01*
%TO.N,EXT_GPIO12*%
X131318000Y-101346000D02*
X137668000Y-101346000D01*
X137668000Y-101346000D02*
X139319000Y-102997000D01*
X143987000Y-121000000D02*
X149700000Y-121000000D01*
X139319000Y-102997000D02*
X139319000Y-116332000D01*
X139319000Y-116332000D02*
X143987000Y-121000000D01*
%TO.N,EXT_GPIO20*%
X149700000Y-135000000D02*
X154700000Y-135000000D01*
D29*
%TO.N,EXT_GPIO19*%
X132696000Y-107696000D02*
X135500000Y-110500000D01*
X130048000Y-107696000D02*
X132696000Y-107696000D01*
X128778000Y-106426000D02*
X130048000Y-107696000D01*
%TO.N,EXT_GPIO13*%
X130048000Y-105156000D02*
X137033000Y-105156000D01*
X128778000Y-103886000D02*
X130048000Y-105156000D01*
D28*
%TO.N,+3V3*%
X102997000Y-101092000D02*
X104648000Y-101092000D01*
X88646000Y-92583000D02*
X88646000Y-94437200D01*
X91948000Y-134032000D02*
X95758000Y-134032000D01*
X88646000Y-86694000D02*
X90678000Y-84662000D01*
X88646000Y-92583000D02*
X88519000Y-92583000D01*
X108458000Y-102362000D02*
X108458000Y-104902000D01*
X96901000Y-94996000D02*
X102997000Y-101092000D01*
X86740300Y-128952000D02*
X84328000Y-128952000D01*
X91948000Y-136572000D02*
X91948000Y-134032000D01*
X96901000Y-93548200D02*
X96901000Y-94996000D01*
X109728000Y-106172000D02*
X112268000Y-106172000D01*
X96901000Y-92075000D02*
X96901000Y-93548200D01*
X124854000Y-53300000D02*
X124854000Y-59322000D01*
X88646000Y-94437200D02*
X89941400Y-95732600D01*
X108458000Y-104902000D02*
X109728000Y-106172000D01*
X91948000Y-134032000D02*
X90852000Y-134032000D01*
X77089000Y-128955800D02*
X84324200Y-128955800D01*
X89535000Y-132715000D02*
X89535000Y-131746700D01*
X88519000Y-92583000D02*
X83439000Y-97663000D01*
X96901000Y-94335600D02*
X96901000Y-93548200D01*
X89941400Y-95732600D02*
X95504000Y-95732600D01*
D27*
X84324200Y-128955800D02*
X84328000Y-128952000D01*
D28*
X107188000Y-101092000D02*
X108458000Y-102362000D01*
X107188000Y-101092000D02*
X104648000Y-101092000D01*
X95504000Y-95732600D02*
X96901000Y-94335600D01*
X90852000Y-134032000D02*
X89535000Y-132715000D01*
X124854000Y-59322000D02*
X128778000Y-63246000D01*
X88646000Y-92583000D02*
X88646000Y-86694000D01*
X89535000Y-131746700D02*
X86740300Y-128952000D01*
X112268000Y-106172000D02*
X116078000Y-106172000D01*
X124854000Y-53300000D02*
X124854000Y-48300000D01*
D27*
%TO.N,Earth*%
X54483000Y-135001000D02*
X54483000Y-132505000D01*
D28*
X128354000Y-53300000D02*
X128354000Y-48300000D01*
D27*
X55118000Y-131870000D02*
X51418000Y-131870000D01*
D28*
X131854000Y-53300000D02*
X128354000Y-53300000D01*
D27*
X51418000Y-137370000D02*
X52114000Y-137370000D01*
X120396000Y-67945000D02*
X120396000Y-59944000D01*
X55118000Y-129794000D02*
X55118000Y-131870000D01*
D28*
X128354000Y-48300000D02*
X131854000Y-48300000D01*
D27*
X112348000Y-111172000D02*
X112268000Y-111252000D01*
X120396000Y-70739000D02*
X120396000Y-67945000D01*
D28*
X131854000Y-48300000D02*
X131854000Y-53300000D01*
D27*
X122174000Y-72517000D02*
X120396000Y-70739000D01*
D28*
X116078000Y-111172000D02*
X112348000Y-111172000D01*
D27*
X54483000Y-132505000D02*
X55118000Y-131870000D01*
X52114000Y-137370000D02*
X54483000Y-135001000D01*
D28*
%TO.N,+5V*%
X135354000Y-48300000D02*
X149700000Y-48300000D01*
X131318000Y-63246000D02*
X135354000Y-59210000D01*
D27*
X149700000Y-48300000D02*
X149750000Y-48250000D01*
D28*
X131318000Y-63246000D02*
X131318000Y-65786000D01*
X135354000Y-59210000D02*
X135354000Y-53300000D01*
X149750000Y-48250000D02*
X154750000Y-48250000D01*
D27*
%TO.N,SDA*%
X109982000Y-118110000D02*
X108458000Y-118110000D01*
X106680000Y-138430000D02*
X98933000Y-146177000D01*
X123952000Y-78994000D02*
X126174500Y-76771500D01*
X98933000Y-146177000D02*
X91393000Y-146177000D01*
X107696000Y-115824000D02*
X107696000Y-112522000D01*
X109982000Y-118110000D02*
X107696000Y-115824000D01*
X91393000Y-146177000D02*
X84328000Y-139112000D01*
X106680000Y-119888000D02*
X106680000Y-138430000D01*
X123952000Y-110998000D02*
X123952000Y-78994000D01*
X108458000Y-118110000D02*
X106680000Y-119888000D01*
X126174500Y-76771500D02*
X126174500Y-69659500D01*
X106426000Y-111252000D02*
X104648000Y-111252000D01*
X107696000Y-112522000D02*
X106426000Y-111252000D01*
X109982000Y-118110000D02*
X116840000Y-118110000D01*
X116840000Y-118110000D02*
X123952000Y-110998000D01*
%TO.N,SCL*%
X110998000Y-116840000D02*
X109728000Y-115570000D01*
X128778000Y-68326000D02*
X125349000Y-68326000D01*
X106172000Y-108712000D02*
X104648000Y-108712000D01*
X84328000Y-136906000D02*
X84328000Y-136572000D01*
X97790000Y-145034000D02*
X92456000Y-145034000D01*
X104648000Y-108712000D02*
X103124000Y-108712000D01*
X102362000Y-140462000D02*
X97790000Y-145034000D01*
X123698000Y-69977000D02*
X123698000Y-76835000D01*
X109728000Y-112268000D02*
X106172000Y-108712000D01*
X92456000Y-145034000D02*
X84328000Y-136906000D01*
X123698000Y-76835000D02*
X122809000Y-77724000D01*
X125349000Y-68326000D02*
X123698000Y-69977000D01*
X102362000Y-109474000D02*
X102362000Y-140462000D01*
X103124000Y-108712000D02*
X102362000Y-109474000D01*
X122809000Y-77724000D02*
X122809000Y-109982000D01*
X122809000Y-109982000D02*
X115951000Y-116840000D01*
X109728000Y-115570000D02*
X109728000Y-112268000D01*
X115951000Y-116840000D02*
X110998000Y-116840000D01*
%TO.N,Card Beeper*%
X131318000Y-70866000D02*
X133134000Y-70866000D01*
X141605000Y-62395000D02*
X141605000Y-61087000D01*
X154750000Y-58750000D02*
X149750000Y-58750000D01*
X133134000Y-70866000D02*
X141605000Y-62395000D01*
X141605000Y-61087000D02*
X143942000Y-58750000D01*
X143942000Y-58750000D02*
X149750000Y-58750000D01*
%TO.N,Wiegand 0*%
X133096000Y-73406000D02*
X144252000Y-62250000D01*
D29*
X144250000Y-62250000D02*
X144673000Y-62250000D01*
D27*
X144673000Y-62250000D02*
X149749998Y-62250000D01*
X131318000Y-73406000D02*
X133096000Y-73406000D01*
X144252000Y-62250000D02*
X144673000Y-62250000D01*
X154749998Y-62250000D02*
X149749998Y-62250000D01*
%TO.N,Wiegand 1*%
X143250000Y-65750000D02*
X149749998Y-65750000D01*
X133054000Y-75946000D02*
X143250000Y-65750000D01*
X154749998Y-65750000D02*
X149749998Y-65750000D01*
X131318000Y-75946000D02*
X133054000Y-75946000D01*
%TO.N,Int 2A*%
X124968000Y-98679000D02*
X124968000Y-79629000D01*
X126111000Y-78486000D02*
X128778000Y-78486000D01*
X124968000Y-79629000D02*
X126111000Y-78486000D01*
%TO.N,Int 2B*%
X126365000Y-82042000D02*
X127381000Y-81026000D01*
X127381000Y-81026000D02*
X128778000Y-81026000D01*
X126365000Y-98679000D02*
X126365000Y-82042000D01*
%TO.N,Card RED*%
X137795000Y-73660000D02*
X137795000Y-76205000D01*
X149750000Y-69250000D02*
X142205000Y-69250000D01*
X137795000Y-76205000D02*
X132974000Y-81026000D01*
X154750000Y-69250000D02*
X149750000Y-69250000D01*
X132974000Y-81026000D02*
X131318000Y-81026000D01*
X142205000Y-69250000D02*
X137795000Y-73660000D01*
%TO.N,Card GRN*%
X154750000Y-72750000D02*
X149750000Y-72750000D01*
X139700000Y-76800000D02*
X139700000Y-74930000D01*
X132934000Y-83566000D02*
X139700000Y-76800000D01*
X139700000Y-74930000D02*
X141880000Y-72750000D01*
X131318000Y-83566000D02*
X132934000Y-83566000D01*
X141880000Y-72750000D02*
X149750000Y-72750000D01*
%TO.N,Main Door*%
X154750000Y-79250000D02*
X149750000Y-79250000D01*
%TO.N,Serv Door*%
X154750000Y-86250000D02*
X149750000Y-86250000D01*
%TO.N,Third Reed*%
X131318000Y-96266000D02*
X132766000Y-96266000D01*
X154750000Y-93250000D02*
X149750000Y-93250000D01*
D29*
%TO.N,TOUCH*%
X128778000Y-98806000D02*
X130048000Y-97536000D01*
X130048000Y-97536000D02*
X133036000Y-97536000D01*
D27*
X149700000Y-103250000D02*
X154700000Y-103250000D01*
D29*
%TO.N,PHOTO*%
X130048000Y-100076000D02*
X133731000Y-100076000D01*
D27*
X149700000Y-106750000D02*
X154700000Y-106750000D01*
D29*
X128778000Y-101346000D02*
X130048000Y-100076000D01*
D27*
%TO.N,EXT_GPIO13*%
X149700000Y-124500000D02*
X154700000Y-124500000D01*
%TO.N,EXT_GPIO12*%
X149700000Y-121000000D02*
X154700000Y-121000000D01*
%TO.N,1-Wire*%
X108458000Y-120523000D02*
X109728000Y-119253000D01*
X56355800Y-137370000D02*
X64770000Y-128955800D01*
X109728000Y-119253000D02*
X117729000Y-119253000D01*
X71374000Y-133477000D02*
X80772000Y-133477000D01*
X81915000Y-134620000D02*
X81915000Y-144653000D01*
X84582000Y-147320000D02*
X81915000Y-144653000D01*
X69469000Y-131572000D02*
X71374000Y-133477000D01*
X55118000Y-137370000D02*
X56355800Y-137370000D01*
X108458000Y-137160000D02*
X108458000Y-120523000D01*
X117729000Y-119253000D02*
X125476000Y-111506000D01*
X127000000Y-108966000D02*
X128778000Y-108966000D01*
X108458000Y-137160000D02*
X108458000Y-138430000D01*
X80772000Y-133477000D02*
X81915000Y-134620000D01*
X99568000Y-147320000D02*
X84582000Y-147320000D01*
X108458000Y-138430000D02*
X99568000Y-147320000D01*
X64770000Y-128955800D02*
X69469000Y-128955800D01*
X125476000Y-111506000D02*
X125476000Y-110490000D01*
X69469000Y-128955800D02*
X69469000Y-131572000D01*
X125476000Y-110490000D02*
X127000000Y-108966000D01*
%TO.N,EXT_GPIO19*%
X154700000Y-131500000D02*
X149700000Y-131500000D01*
%TO.N,EXT_GPIO16*%
X154700000Y-128000000D02*
X149700000Y-128000000D01*
%TO.N,PD_11*%
X99568000Y-78152000D02*
X102108000Y-80692000D01*
X102108000Y-80692000D02*
X104648000Y-80692000D01*
X66628406Y-78152000D02*
X99568000Y-78152000D01*
%TO.N,PD_12*%
X98298000Y-79422000D02*
X99568000Y-80692000D01*
X100838000Y-83232000D02*
X104648000Y-83232000D01*
X98298000Y-79422000D02*
X69168406Y-79422000D01*
X99568000Y-80692000D02*
X99568000Y-81962000D01*
X99568000Y-81962000D02*
X100838000Y-83232000D01*
%TO.N,PD_13*%
X99568000Y-85772000D02*
X104648000Y-85772000D01*
X66628406Y-80692000D02*
X97028000Y-80692000D01*
X98298000Y-81962000D02*
X98298000Y-84502000D01*
X97028000Y-80692000D02*
X98298000Y-81962000D01*
X98298000Y-84502000D02*
X99568000Y-85772000D01*
%TO.N,PD_14*%
X98298000Y-88312000D02*
X104648000Y-88312000D01*
X95758000Y-81962000D02*
X69168406Y-81962000D01*
X95758000Y-81962000D02*
X97028000Y-83232000D01*
X97028000Y-83232000D02*
X97028000Y-87042000D01*
X97028000Y-87042000D02*
X98298000Y-88312000D01*
%TO.N,PD_15*%
X94488000Y-83232000D02*
X95758000Y-84502000D01*
X95758000Y-89582000D02*
X97028000Y-90852000D01*
X95758000Y-84502000D02*
X95758000Y-89582000D01*
X66628406Y-83232000D02*
X94488000Y-83232000D01*
X97028000Y-90852000D02*
X104648000Y-90852000D01*
%TO.N,LED1 Out*%
X83058000Y-75612000D02*
X81788000Y-74342000D01*
X65278000Y-74342000D02*
X64008000Y-75612000D01*
X83058000Y-76722000D02*
X83058000Y-75612000D01*
X65278000Y-87042000D02*
X69168406Y-87042000D01*
X64008000Y-85772000D02*
X65278000Y-87042000D01*
X81788000Y-74342000D02*
X65278000Y-74342000D01*
X64008000Y-75612000D02*
X64008000Y-85772000D01*
%TO.N,PD_21*%
X121158000Y-73072000D02*
X119888000Y-71802000D01*
X102108000Y-71802000D02*
X119888000Y-71802000D01*
X100838000Y-65452000D02*
X100838000Y-70532000D01*
X121158000Y-97202000D02*
X121158000Y-73072000D01*
X100838000Y-70532000D02*
X102108000Y-71802000D01*
X112268000Y-98472000D02*
X119888000Y-98472000D01*
X99568000Y-64182000D02*
X100838000Y-65452000D01*
X99568000Y-64182000D02*
X66628406Y-64182000D01*
X119888000Y-98472000D02*
X121158000Y-97202000D01*
%TO.N,PD_22*%
X99568000Y-71802000D02*
X100838000Y-73072000D01*
X100838000Y-73072000D02*
X118618000Y-73072000D01*
X119888000Y-94662000D02*
X119888000Y-74342000D01*
X98298000Y-65452000D02*
X99568000Y-66722000D01*
X99568000Y-66722000D02*
X99568000Y-71802000D01*
X69168406Y-65452000D02*
X98298000Y-65452000D01*
X118618000Y-73072000D02*
X119888000Y-74342000D01*
X118618000Y-95932000D02*
X119888000Y-94662000D01*
X112268000Y-95932000D02*
X118618000Y-95932000D01*
%TO.N,PD_23*%
X118618000Y-75612000D02*
X117348000Y-74342000D01*
X112268000Y-93392000D02*
X117348000Y-93392000D01*
X97028000Y-66722000D02*
X66628406Y-66722000D01*
X97028000Y-66722000D02*
X98298000Y-67992000D01*
X118618000Y-92122000D02*
X118618000Y-75612000D01*
X117348000Y-93392000D02*
X118618000Y-92122000D01*
X98298000Y-67992000D02*
X98298000Y-73072000D01*
X99568000Y-74342000D02*
X117348000Y-74342000D01*
X98298000Y-73072000D02*
X99568000Y-74342000D01*
%TO.N,PD_24*%
X116078000Y-90852000D02*
X112268000Y-90852000D01*
X117348000Y-89582000D02*
X116078000Y-90852000D01*
X117348000Y-76882000D02*
X117348000Y-89582000D01*
X69168406Y-67992000D02*
X95758000Y-67992000D01*
X97028000Y-74342000D02*
X98298000Y-75612000D01*
X95758000Y-67992000D02*
X97028000Y-69262000D01*
X117348000Y-76882000D02*
X116078000Y-75612000D01*
X97028000Y-69262000D02*
X97028000Y-74342000D01*
X98298000Y-75612000D02*
X116078000Y-75612000D01*
%TO.N,PD_25*%
X116078000Y-87042000D02*
X116078000Y-78152000D01*
X94488000Y-69262000D02*
X95758000Y-70532000D01*
X114808000Y-88312000D02*
X116078000Y-87042000D01*
X94488000Y-69262000D02*
X66628406Y-69262000D01*
X95758000Y-70532000D02*
X95758000Y-75612000D01*
X112268000Y-88312000D02*
X114808000Y-88312000D01*
X116078000Y-78152000D02*
X114808000Y-76882000D01*
X95758000Y-75612000D02*
X97028000Y-76882000D01*
X97028000Y-76882000D02*
X114808000Y-76882000D01*
%TO.N,LED2 Out*%
X88138000Y-76722000D02*
X88138000Y-74342000D01*
X88138000Y-74342000D02*
X86868000Y-73072000D01*
X86868000Y-73072000D02*
X69168406Y-73072000D01*
%TO.N,PD_31*%
X66628406Y-106092000D02*
X79248000Y-106092000D01*
X79248000Y-106092000D02*
X81788000Y-108632000D01*
X81788000Y-108632000D02*
X84328000Y-108632000D01*
%TO.N,PD_32*%
X79248000Y-109902000D02*
X80518000Y-111172000D01*
X69168406Y-107362000D02*
X77978000Y-107362000D01*
X77978000Y-107362000D02*
X79248000Y-108632000D01*
X80518000Y-111172000D02*
X84328000Y-111172000D01*
X79248000Y-108632000D02*
X79248000Y-109902000D01*
%TO.N,PD_33*%
X76708000Y-108632000D02*
X77978000Y-109902000D01*
X77978000Y-112442000D02*
X79248000Y-113712000D01*
X66628406Y-108632000D02*
X76708000Y-108632000D01*
X79248000Y-113712000D02*
X84328000Y-113712000D01*
X77978000Y-109902000D02*
X77978000Y-112442000D01*
%TO.N,PD_34*%
X76708000Y-111172000D02*
X76708000Y-114982000D01*
X76708000Y-114982000D02*
X77978000Y-116252000D01*
X69168406Y-109902000D02*
X75438000Y-109902000D01*
X77978000Y-116252000D02*
X84328000Y-116252000D01*
X75438000Y-109902000D02*
X76708000Y-111172000D01*
%TO.N,PD_35*%
X75438000Y-117522000D02*
X76708000Y-118792000D01*
X74168000Y-111172000D02*
X75438000Y-112442000D01*
X75438000Y-112442000D02*
X75438000Y-117522000D01*
X66628406Y-111172000D02*
X74168000Y-111172000D01*
X76708000Y-118792000D02*
X84328000Y-118792000D01*
%TO.N,LED3 Out*%
X81454000Y-91186000D02*
X83058000Y-89582000D01*
X67484000Y-90852000D02*
X67818000Y-91186000D01*
X64008000Y-99742000D02*
X64008000Y-92122000D01*
X67818000Y-91186000D02*
X81454000Y-91186000D01*
X64008000Y-92122000D02*
X65278000Y-90852000D01*
X83058000Y-89582000D02*
X83058000Y-84662000D01*
X65278000Y-90852000D02*
X67484000Y-90852000D01*
X65278000Y-101012000D02*
X64008000Y-99742000D01*
X69168406Y-101012000D02*
X65278000Y-101012000D01*
%TO.N,PD_41*%
X79248000Y-92122000D02*
X80518000Y-93392000D01*
X66628406Y-92122000D02*
X79248000Y-92122000D01*
X100838000Y-125142000D02*
X100838000Y-101012000D01*
X80518000Y-98472000D02*
X81788000Y-99742000D01*
X91948000Y-126412000D02*
X99568000Y-126412000D01*
X81788000Y-99742000D02*
X99568000Y-99742000D01*
X99568000Y-126412000D02*
X100838000Y-125142000D01*
X100838000Y-101012000D02*
X99568000Y-99742000D01*
X80518000Y-93392000D02*
X80518000Y-98472000D01*
%TO.N,PD_42*%
X79248000Y-94662000D02*
X79248000Y-99742000D01*
X79248000Y-99742000D02*
X80518000Y-101012000D01*
X77978000Y-93392000D02*
X79248000Y-94662000D01*
X99568000Y-122602000D02*
X99568000Y-102282000D01*
X98298000Y-123872000D02*
X99568000Y-122602000D01*
X91948000Y-123872000D02*
X98298000Y-123872000D01*
X98298000Y-101012000D02*
X99568000Y-102282000D01*
X80518000Y-101012000D02*
X98298000Y-101012000D01*
X69168406Y-93392000D02*
X77978000Y-93392000D01*
%TO.N,PD_43*%
X76708000Y-94662000D02*
X77978000Y-95932000D01*
X66628406Y-94662000D02*
X76708000Y-94662000D01*
X98298000Y-120062000D02*
X98298000Y-103552000D01*
X91948000Y-121332000D02*
X97028000Y-121332000D01*
X79248000Y-102282000D02*
X97028000Y-102282000D01*
X77978000Y-95932000D02*
X77978000Y-101012000D01*
X97028000Y-121332000D02*
X98298000Y-120062000D01*
X77978000Y-101012000D02*
X79248000Y-102282000D01*
X98298000Y-103552000D02*
X97028000Y-102282000D01*
%TO.N,PD_44*%
X76708000Y-102282000D02*
X77978000Y-103552000D01*
X75438000Y-95932000D02*
X76708000Y-97202000D01*
X76708000Y-97202000D02*
X76708000Y-102282000D01*
X97028000Y-104822000D02*
X97028000Y-117522000D01*
X95758000Y-118792000D02*
X91948000Y-118792000D01*
X69168406Y-95932000D02*
X75438000Y-95932000D01*
X97028000Y-117522000D02*
X95758000Y-118792000D01*
X77978000Y-103552000D02*
X95758000Y-103552000D01*
X97028000Y-104822000D02*
X95758000Y-103552000D01*
%TO.N,PD_45*%
X76708000Y-104822000D02*
X94488000Y-104822000D01*
X66628406Y-97202000D02*
X74168000Y-97202000D01*
X75438000Y-98472000D02*
X75438000Y-103552000D01*
X95758000Y-106092000D02*
X94488000Y-104822000D01*
X94488000Y-116252000D02*
X95758000Y-114982000D01*
X75438000Y-103552000D02*
X76708000Y-104822000D01*
X74168000Y-97202000D02*
X75438000Y-98472000D01*
X91948000Y-116252000D02*
X94488000Y-116252000D01*
X95758000Y-114982000D02*
X95758000Y-106092000D01*
%TO.N,LED4 Out*%
X85598000Y-89582000D02*
X85598000Y-84662000D01*
X83058000Y-92122000D02*
X85598000Y-89582000D01*
%TD*%
M02*
